<svg width="16" height="12" viewBox="0 0 16 12" fill="none" xmlns="http://www.w3.org/2000/svg">
<path d="M14.0033 1.17167L5.94217 9.23217C5.88797 9.28658 5.82356 9.32975 5.75264 9.35921C5.68172 9.38867 5.60567 9.40384 5.52888 9.40384C5.45208 9.40384 5.37604 9.38867 5.30511 9.35921C5.23419 9.32975 5.16978 9.28658 5.11558 9.23217L1.99825 6.11192C1.94405 6.05751 1.87965 6.01433 1.80872 5.98487C1.7378 5.95541 1.66176 5.94025 1.58496 5.94025C1.50816 5.94025 1.43212 5.95541 1.3612 5.98487C1.29027 6.01433 1.22587 6.05751 1.17167 6.11192C1.11726 6.16612 1.07408 6.23052 1.04462 6.30145C1.01516 6.37237 1 6.44841 1 6.52521C1 6.60201 1.01516 6.67805 1.04462 6.74897C1.07408 6.8199 1.11726 6.88431 1.17167 6.9385L4.29017 10.0564C4.61914 10.3848 5.06495 10.5692 5.52975 10.5692C5.99455 10.5692 6.44037 10.3848 6.76933 10.0564L14.8298 1.99767C14.8842 1.94348 14.9273 1.87911 14.9567 1.80824C14.9861 1.73737 15.0012 1.6614 15.0012 1.58467C15.0012 1.50794 14.9861 1.43197 14.9567 1.3611C14.9273 1.29023 14.8842 1.22586 14.8298 1.17167C14.7756 1.11726 14.7112 1.07408 14.6403 1.04462C14.5694 1.01516 14.4933 1 14.4165 1C14.3397 1 14.2637 1.01516 14.1928 1.04462C14.1219 1.07408 14.0574 1.11726 14.0033 1.17167Z" fill="white" stroke="white"/>
</svg>
