<svg width="314" height="913" viewBox="0 0 314 913" fill="none" xmlns="http://www.w3.org/2000/svg">
<mask id="path-1-inside-1_105_218" fill="white">
<path d="M253.741 912.772C259.166 912.625 264.668 912.479 270.094 912.322C285.247 911.909 297.497 900.638 297.629 886.784C298.676 777.075 301.099 667.375 301.107 557.657C308.644 557.341 314.235 552.454 313.992 545.524C313.767 538.49 307.348 535.073 299.653 535.073C299.634 535.073 299.634 535.073 299.625 535.073C299.463 526.442 299.284 522.973 299.114 517.854C295.381 513.777 291.651 508.997 287.918 504.371L258.47 500.625L258.238 474.293L267.27 473.918L266.486 454.965L258.075 455.315L257.919 438.081L266.582 437.715L265.804 418.753L257.735 419.103L257.601 403.201L264.294 402.917L263.52 383.969L257.427 384.227L257.29 368.641L265.034 368.317L264.256 349.354L257.107 349.665L256.946 331.096L265.969 330.718L265.2 311.759L256.782 312.127L256.651 297.888L265.095 297.528L264.32 278.579L256.467 278.91L256.309 261.677L264.426 261.333L263.654 242.387L256.152 242.692L256.009 227.277L266.689 226.829L265.909 207.865L255.848 208.299L255.711 192.56L265.92 192.133L265.145 173.184L255.546 173.59L255.421 159.343L265.061 158.939L264.29 139.981L255.239 140.366L255.107 126.127L264.181 125.735L263.416 106.793L254.949 107.15L254.857 96.0619L264.649 95.6341L263.877 76.6858L254.686 77.0801L254.579 64.4897L265.194 64.0453L264.423 45.0867L253.844 45.5329C252.833 39.8185 250.679 34.4805 247.439 29.6614L253.024 19.7582L236.32 10.529L233.017 16.4043C228.037 13.6113 222.627 11.8967 216.922 11.3044L215.824 -9.43395e-06L196.791 1.85393L197.911 13.588C194.173 14.9399 190.629 16.8312 187.362 19.2179L182.312 12.7837L167.219 24.4787L174.733 34.0203C172.324 38.726 170.856 43.7739 170.368 49.0347L162.467 49.3684L163.241 68.3167L170.295 68.0239L170.411 80.617L161.925 80.9805L162.7 99.9298L170.587 99.5923L170.683 110.691L161.492 111.076L162.263 130.034L170.869 129.689L170.993 143.918L162.35 144.279L163.128 163.242L171.174 162.895L171.291 177.138L163.227 177.482L164 196.432L171.463 196.112L171.6 211.85L164.001 212.169L164.775 231.116L171.77 230.831L171.91 246.255L161.744 246.68L162.515 265.638L172.073 265.225L172.224 282.454L162.403 282.87L163.172 301.828L172.398 301.449L172.523 315.676L163.268 316.08L164.043 335.029L172.694 334.65L172.854 353.218L162.325 353.674L163.098 372.622L173.014 372.205L173.15 387.79L161.566 388.266L162.344 407.227L173.317 406.75L173.461 422.655L163.852 423.062L164.626 442.01L173.634 441.627L173.793 458.862L164.532 459.263L165.296 478.205L173.962 477.843L174.068 489.893L143.798 486.043C141.613 490.957 139.428 495.87 137.247 500.792C136.756 501.931 136.037 502.361 134.743 502.406C108.028 503.139 81.3245 503.882 54.6304 504.606C37.0667 509.802 19.5507 514.998 2.00659 520.176C0.305013 520.694 -0.233555 521.506 0.088466 523.11C0.428221 524.75 0.759575 526.381 1.09 528.029C1.43069 529.782 2.36595 530.377 4.29434 530.102C21.2709 527.72 38.2484 525.328 55.2259 522.928C65.7182 523.568 76.2207 524.224 86.6943 524.862C87.9516 524.94 88.5938 525.371 89.095 526.425C91.3342 531.102 93.537 535.772 95.7501 540.44C93.3391 540.838 90.8722 541.252 88.3483 541.658C51.8125 547.777 44.6477 550.859 40.8003 553.258C32.1039 558.713 26.1301 566.765 24.7963 574.844C23.7948 580.903 25.4292 586.763 29.3812 591.303C34.1069 596.722 61.6336 622.821 76.8433 637.149C73.5624 644.598 70.2358 652.046 66.9456 659.502C66.6058 660.305 66.6338 660.927 67.0678 661.678C69.1857 665.329 71.3213 668.971 73.4588 672.614C71.3316 676.203 69.2231 679.802 67.0968 683.393C64.894 687.13 64.6774 690.238 66.3874 694.208C75.9444 716.483 85.4912 738.777 95.0668 761.053C96.8926 765.316 101.059 768.372 105.995 769.097C114.663 770.357 123.312 771.617 131.991 772.877C155.169 812.586 178.347 852.306 201.562 892.024C206.695 900.828 211.951 907.395 223.171 910.649C233.417 913.582 243.419 913.055 253.741 912.772ZM88.2801 611.325C73.8265 597.638 58.6449 583.111 53.0492 577.414C53.654 576.569 54.6939 575.499 56.206 574.489C61.6896 572.177 85.0469 567.887 109.179 564.185C102.222 579.891 95.2274 595.618 88.2801 611.325ZM253.201 899.876C239.769 900.24 227.574 892.653 223.047 881.062C217.83 867.718 212.621 854.376 207.393 841.024C209.728 836.82 215.787 832.229 221.327 831.15C223.095 830.815 223.653 828.777 222.273 827.716C212.81 820.466 203.348 813.225 193.886 805.94C187.931 786.676 193.82 773.523 216.185 772.902C227.709 772.582 239.24 772.272 250.773 771.953C262.523 771.633 269.697 774.913 276.257 783.864C282.354 792.167 284.028 800.4 283.933 810.085C283.688 835.623 283.442 861.143 283.215 886.673C283.148 893.586 277.089 899.239 269.508 899.438C264.091 899.582 258.638 899.722 253.201 899.876Z"/>
</mask>
<path d="M253.741 912.772C259.166 912.625 264.668 912.479 270.094 912.322C285.247 911.909 297.497 900.638 297.629 886.784C298.676 777.075 301.099 667.375 301.107 557.657C308.644 557.341 314.235 552.454 313.992 545.524C313.767 538.49 307.348 535.073 299.653 535.073C299.634 535.073 299.634 535.073 299.625 535.073C299.463 526.442 299.284 522.973 299.114 517.854C295.381 513.777 291.651 508.997 287.918 504.371L258.47 500.625L258.238 474.293L267.27 473.918L266.486 454.965L258.075 455.315L257.919 438.081L266.582 437.715L265.804 418.753L257.735 419.103L257.601 403.201L264.294 402.917L263.52 383.969L257.427 384.227L257.29 368.641L265.034 368.317L264.256 349.354L257.107 349.665L256.946 331.096L265.969 330.718L265.2 311.759L256.782 312.127L256.651 297.888L265.095 297.528L264.32 278.579L256.467 278.91L256.309 261.677L264.426 261.333L263.654 242.387L256.152 242.692L256.009 227.277L266.689 226.829L265.909 207.865L255.848 208.299L255.711 192.56L265.92 192.133L265.145 173.184L255.546 173.59L255.421 159.343L265.061 158.939L264.29 139.981L255.239 140.366L255.107 126.127L264.181 125.735L263.416 106.793L254.949 107.15L254.857 96.0619L264.649 95.6341L263.877 76.6858L254.686 77.0801L254.579 64.4897L265.194 64.0453L264.423 45.0867L253.844 45.5329C252.833 39.8185 250.679 34.4805 247.439 29.6614L253.024 19.7582L236.32 10.529L233.017 16.4043C228.037 13.6113 222.627 11.8967 216.922 11.3044L215.824 -9.43395e-06L196.791 1.85393L197.911 13.588C194.173 14.9399 190.629 16.8312 187.362 19.2179L182.312 12.7837L167.219 24.4787L174.733 34.0203C172.324 38.726 170.856 43.7739 170.368 49.0347L162.467 49.3684L163.241 68.3167L170.295 68.0239L170.411 80.617L161.925 80.9805L162.7 99.9298L170.587 99.5923L170.683 110.691L161.492 111.076L162.263 130.034L170.869 129.689L170.993 143.918L162.35 144.279L163.128 163.242L171.174 162.895L171.291 177.138L163.227 177.482L164 196.432L171.463 196.112L171.6 211.85L164.001 212.169L164.775 231.116L171.77 230.831L171.91 246.255L161.744 246.68L162.515 265.638L172.073 265.225L172.224 282.454L162.403 282.87L163.172 301.828L172.398 301.449L172.523 315.676L163.268 316.08L164.043 335.029L172.694 334.65L172.854 353.218L162.325 353.674L163.098 372.622L173.014 372.205L173.15 387.79L161.566 388.266L162.344 407.227L173.317 406.75L173.461 422.655L163.852 423.062L164.626 442.01L173.634 441.627L173.793 458.862L164.532 459.263L165.296 478.205L173.962 477.843L174.068 489.893L143.798 486.043C141.613 490.957 139.428 495.87 137.247 500.792C136.756 501.931 136.037 502.361 134.743 502.406C108.028 503.139 81.3245 503.882 54.6304 504.606C37.0667 509.802 19.5507 514.998 2.00659 520.176C0.305013 520.694 -0.233555 521.506 0.088466 523.11C0.428221 524.75 0.759575 526.381 1.09 528.029C1.43069 529.782 2.36595 530.377 4.29434 530.102C21.2709 527.72 38.2484 525.328 55.2259 522.928C65.7182 523.568 76.2207 524.224 86.6943 524.862C87.9516 524.94 88.5938 525.371 89.095 526.425C91.3342 531.102 93.537 535.772 95.7501 540.44C93.3391 540.838 90.8722 541.252 88.3483 541.658C51.8125 547.777 44.6477 550.859 40.8003 553.258C32.1039 558.713 26.1301 566.765 24.7963 574.844C23.7948 580.903 25.4292 586.763 29.3812 591.303C34.1069 596.722 61.6336 622.821 76.8433 637.149C73.5624 644.598 70.2358 652.046 66.9456 659.502C66.6058 660.305 66.6338 660.927 67.0678 661.678C69.1857 665.329 71.3213 668.971 73.4588 672.614C71.3316 676.203 69.2231 679.802 67.0968 683.393C64.894 687.13 64.6774 690.238 66.3874 694.208C75.9444 716.483 85.4912 738.777 95.0668 761.053C96.8926 765.316 101.059 768.372 105.995 769.097C114.663 770.357 123.312 771.617 131.991 772.877C155.169 812.586 178.347 852.306 201.562 892.024C206.695 900.828 211.951 907.395 223.171 910.649C233.417 913.582 243.419 913.055 253.741 912.772ZM88.2801 611.325C73.8265 597.638 58.6449 583.111 53.0492 577.414C53.654 576.569 54.6939 575.499 56.206 574.489C61.6896 572.177 85.0469 567.887 109.179 564.185C102.222 579.891 95.2274 595.618 88.2801 611.325ZM253.201 899.876C239.769 900.24 227.574 892.653 223.047 881.062C217.83 867.718 212.621 854.376 207.393 841.024C209.728 836.82 215.787 832.229 221.327 831.15C223.095 830.815 223.653 828.777 222.273 827.716C212.81 820.466 203.348 813.225 193.886 805.94C187.931 786.676 193.82 773.523 216.185 772.902C227.709 772.582 239.24 772.272 250.773 771.953C262.523 771.633 269.697 774.913 276.257 783.864C282.354 792.167 284.028 800.4 283.933 810.085C283.688 835.623 283.442 861.143 283.215 886.673C283.148 893.586 277.089 899.239 269.508 899.438C264.091 899.582 258.638 899.722 253.201 899.876Z" stroke="#393939" stroke-width="2" mask="url(#path-1-inside-1_105_218)"/>
</svg>
