<svg width="891" height="556" viewBox="0 0 891 556" fill="none" xmlns="http://www.w3.org/2000/svg">
<g opacity="0.05">
<path d="M58.7964 244.403V330.553H28.8869L28.8869 244.403H0.146078L0.146078 218.365H88.9981V244.403H58.7964ZM126.642 281.507H151.95C151.95 276.102 151.001 272.681 149.102 271.245C147.203 269.809 143.807 269.09 138.913 269.09C135.699 269.09 133.252 269.419 131.573 270.076C129.917 270.709 128.712 271.902 127.957 273.655C127.202 275.384 126.764 278.001 126.642 281.507ZM152.389 304.368H177.66C177.66 315.251 174.118 322.738 167.033 326.828C163.868 328.581 160.046 329.798 155.566 330.48C151.086 331.137 145.693 331.466 139.388 331.466C129.162 331.466 121.274 330.175 115.723 327.595C110.172 325.014 106.313 320.863 104.146 315.141C102.004 309.42 100.933 301.495 100.933 291.367C100.933 280.874 101.955 272.791 104 267.118C106.07 261.421 109.843 257.331 115.321 254.848C120.799 252.364 128.821 251.123 139.388 251.123C149.443 251.123 157.185 252.267 162.614 254.556C168.068 256.82 171.939 260.825 174.227 266.571C176.516 272.316 177.66 280.582 177.66 291.367V295.713H126.642C126.642 299.243 126.813 302.141 127.154 304.405C127.519 306.669 128.152 308.458 129.053 309.773C129.954 311.088 131.22 312.037 132.851 312.622C134.506 313.206 136.685 313.498 139.388 313.498C143.965 313.498 147.276 312.926 149.321 311.782C151.366 310.637 152.389 308.166 152.389 304.368ZM247.843 318.903H246.967C245.433 327.278 237.898 331.466 224.361 331.466C217.91 331.466 212.651 330.796 208.585 329.457C204.519 328.118 201.391 325.659 199.199 322.08C197.033 318.501 195.949 313.498 195.949 307.071C195.949 298.014 198.262 291.635 202.888 287.934C207.514 284.234 214.672 282.383 224.361 282.383C229.912 282.383 234.55 282.883 238.275 283.881C242.025 284.879 244.52 287.326 245.762 291.221H246.967V278.805C246.967 274.447 246.297 271.367 244.958 269.565C243.644 267.739 240.418 266.826 235.281 266.826C231.726 266.826 229.085 267.423 227.356 268.616C225.652 269.809 224.8 272.061 224.8 275.372H199.09C199.09 267.849 200.709 262.322 203.947 258.792C207.185 255.262 211.19 253.107 215.962 252.328C220.734 251.524 227.173 251.123 235.281 251.123C244.898 251.123 252.287 251.817 257.448 253.204C262.61 254.568 266.432 257.416 268.915 261.75C271.423 266.059 272.677 272.645 272.677 281.507V330.553H246.967L247.843 318.903ZM246.967 305.281C246.967 302.262 245.847 300.315 243.607 299.438C241.367 298.537 237.801 298.087 232.907 298.087C229.231 298.087 226.431 298.635 224.507 299.73C222.608 300.826 221.659 303.017 221.659 306.304C221.659 310.004 222.742 312.354 224.909 313.352C227.076 314.35 229.742 314.849 232.907 314.849C236.729 314.849 239.602 314.618 241.526 314.155C243.473 313.693 244.861 312.792 245.689 311.453C246.541 310.09 246.967 308.032 246.967 305.281ZM322.847 285.962L322.701 330.553H297.138V252.036H322.117V263.101H323.139C324.6 258.816 327.278 255.749 331.174 253.898C335.069 252.048 339.573 251.123 344.686 251.123C348.971 251.123 352.757 251.512 356.044 252.291C359.355 253.046 362.142 254.568 364.406 256.856C366.695 259.145 368.046 262.371 368.46 266.534H369.665C370.298 261.324 372.709 257.453 376.896 254.921C381.108 252.389 385.977 251.123 391.504 251.123C400.78 251.123 407.633 253.156 412.064 257.222C416.52 261.263 418.748 267.812 418.748 276.869V330.553H393.147V285.086C392.953 281.312 392.685 278.573 392.344 276.869C392.003 275.165 391.114 273.741 389.678 272.596C388.242 271.452 385.965 270.88 382.849 270.88C378.223 270.88 375.07 272.195 373.39 274.824C371.71 277.429 370.87 281.142 370.87 285.962V330.553H345.124V282.968C344.954 278.634 344.309 275.542 343.189 273.692C342.093 271.817 339.5 270.88 335.41 270.88C330.443 270.88 327.108 272.097 325.404 274.532C323.699 276.942 322.847 280.752 322.847 285.962ZM554.374 304.806L571.282 218.365H601.338L576.505 330.553H533.266L518 260.253H516.832L500.507 330.553H457.743L433.494 218.365H463.878L480.02 304.806H481.079L502.151 218.365H533.266L553.315 304.806H554.374ZM651.801 251.123C660.371 251.123 667.151 251.683 672.142 252.803C677.157 253.923 681.053 255.919 683.828 258.792C686.604 261.64 688.515 265.609 689.562 270.697C690.633 275.761 691.169 282.651 691.169 291.367C691.169 299.889 690.621 306.657 689.525 311.672C688.43 316.687 686.482 320.644 683.682 323.541C680.907 326.438 677.023 328.483 672.032 329.676C667.041 330.869 660.297 331.466 651.801 331.466C643.572 331.466 636.949 330.833 631.934 329.567C626.943 328.301 623.035 326.183 620.211 323.212C617.387 320.242 615.415 316.249 614.295 311.234C613.175 306.194 612.615 299.572 612.615 291.367C612.615 282.87 613.139 276.114 614.185 271.099C615.257 266.059 617.168 262.079 619.919 259.157C622.67 256.235 626.578 254.166 631.642 252.949C636.706 251.731 643.425 251.123 651.801 251.123ZM652.275 270.88C648.015 270.88 644.935 271.403 643.036 272.45C641.137 273.497 639.883 275.42 639.274 278.22C638.666 280.996 638.361 285.378 638.361 291.367C638.361 297.356 638.666 301.739 639.274 304.514C639.883 307.265 641.137 309.152 643.036 310.175C644.959 311.197 648.039 311.709 652.275 311.709C655.343 311.709 657.741 311.441 659.47 310.905C661.198 310.345 662.489 309.371 663.341 307.984C664.193 306.572 664.753 304.624 665.021 302.141C665.288 299.633 665.422 296.042 665.422 291.367C665.422 285.329 665.142 280.935 664.582 278.184C664.047 275.408 662.878 273.497 661.077 272.45C659.299 271.403 656.366 270.88 652.275 270.88ZM747.949 251.123C756.519 251.123 763.3 251.683 768.291 252.803C773.306 253.923 777.201 255.919 779.977 258.792C782.752 261.64 784.664 265.609 785.71 270.697C786.782 275.761 787.317 282.651 787.317 291.367C787.317 299.889 786.769 306.657 785.674 311.672C784.578 316.687 782.631 320.644 779.831 323.541C777.055 326.438 773.172 328.483 768.181 329.676C763.19 330.869 756.446 331.466 747.949 331.466C739.72 331.466 733.098 330.833 728.083 329.567C723.092 328.301 719.184 326.183 716.36 323.212C713.536 320.242 711.564 316.249 710.444 311.234C709.324 306.194 708.764 299.572 708.764 291.367C708.764 282.87 709.287 276.114 710.334 271.099C711.405 266.059 713.317 262.079 716.068 259.157C718.819 256.235 722.726 254.166 727.79 252.949C732.854 251.731 739.574 251.123 747.949 251.123ZM748.424 270.88C744.163 270.88 741.084 271.403 739.185 272.45C737.286 273.497 736.032 275.42 735.423 278.22C734.814 280.996 734.51 285.378 734.51 291.367C734.51 297.356 734.814 301.739 735.423 304.514C736.032 307.265 737.286 309.152 739.185 310.175C741.108 311.197 744.188 311.709 748.424 311.709C751.492 311.709 753.89 311.441 755.618 310.905C757.347 310.345 758.637 309.371 759.489 307.984C760.342 306.572 760.901 304.624 761.169 302.141C761.437 299.633 761.571 296.042 761.571 291.367C761.571 285.329 761.291 280.935 760.731 278.184C760.195 275.408 759.027 273.497 757.225 272.45C755.448 271.403 752.514 270.88 748.424 270.88ZM857.574 291.367C857.574 285.5 857.33 281.239 856.843 278.585C856.381 275.932 855.175 273.984 853.228 272.742C851.28 271.501 848.091 270.88 843.66 270.88C839.448 270.88 836.417 271.488 834.566 272.706C832.74 273.923 831.608 275.846 831.17 278.476C830.732 281.105 830.513 285.402 830.513 291.367C830.513 297.868 830.853 302.506 831.535 305.281C832.241 308.032 833.446 309.797 835.151 310.577C836.879 311.331 839.716 311.709 843.66 311.709C847.433 311.709 850.282 311.234 852.205 310.284C854.129 309.335 855.504 307.424 856.332 304.551C857.16 301.654 857.574 297.259 857.574 291.367ZM857.574 263.247V218.365H883.32V330.553H857.574L858.158 316.931H856.989C855.602 322.458 853.045 326.268 849.32 328.362C845.62 330.431 840.689 331.466 834.53 331.466C824.743 331.466 817.329 329.177 812.289 324.6C807.274 319.999 804.766 312.658 804.766 302.579V284.648C804.766 278.561 805.314 273.4 806.41 269.163C807.53 264.903 809.246 261.47 811.559 258.865C813.896 256.235 816.939 254.288 820.689 253.022C824.463 251.756 829.076 251.123 834.53 251.123C839.935 251.123 844.439 251.963 848.042 253.643C851.67 255.323 854.445 258.524 856.368 263.247H857.574Z" fill="#E09D64"/>
<g clip-path="url(#clip0_114_381)">
<path d="M720.948 288.905C721.458 285.812 720.666 282.285 720.232 279.229C719.685 275.362 719.703 271.477 719.232 267.591C718.742 263.592 716.139 259.876 715.252 255.934C714.648 253.237 714.252 250.71 713.158 248.276C713.422 247.107 713.668 245.956 713.932 244.825C714.912 240.713 716.648 235.639 715.856 231.376C714.931 226.491 711.744 222.115 709.763 217.588C708.424 214.551 707.613 211.42 706.632 208.251C705.783 205.516 703.708 203.366 703.105 200.517C703.029 200.14 702.897 199.801 702.746 199.499C702.746 199.291 702.746 199.065 702.746 198.857C702.52 193.595 702.69 187.54 700.464 182.711C697.823 176.959 693.938 171.583 690.448 166.339C688.751 163.812 687.94 160.492 686.487 157.795C684.846 154.72 683.262 151.759 682.036 148.514C681.055 145.911 679.584 144.006 679.188 141.158C678.754 138.102 677.471 135.273 676.038 132.576C673.133 127.144 669.228 122.598 665.89 117.411C664.664 115.487 663.589 112.808 662.023 111.148C659.948 108.96 656.817 107.527 654.478 105.565C651.234 102.83 648.046 99.3219 644.142 97.4734C644.085 97.3979 644.01 97.3225 643.953 97.2659C644.745 95.6437 644.651 93.7198 642.953 92.3429C639.615 89.6267 636.182 87.0049 632.655 84.5339C628.524 81.648 626.185 78.8941 623.393 74.8011C620.753 70.9343 616.641 67.7844 612.868 65.0682C611.114 63.8233 608.53 63.1065 606.229 62.1823C605.814 61.8616 605.399 61.5598 604.984 61.2392C604.795 59.9565 604.154 58.7116 603.154 57.9572C602.834 57.712 602.513 57.5045 602.192 57.2781C601.985 56.335 601.381 55.4108 600.231 54.7129C599.042 53.9772 597.797 53.3171 596.553 52.6758C593.987 51.0536 591.705 49.1863 589.14 47.2812C587.253 45.8665 585.009 45.0743 582.708 44.3953C580.293 42.6788 577.954 40.8869 575.634 39.0007C568.014 32.8328 558.79 29.3999 549.491 26.6083C545.379 25.3634 542.003 24.3825 538.231 22.1379C534.157 19.7047 530.252 18.837 525.725 17.7996C515.898 15.5362 507.07 9.21735 496.904 8.38742C495.659 8.29311 494.395 8.40631 493.131 8.53835C490.208 7.82159 487.265 6.72753 484.379 6.01077C482.644 5.57694 480.833 5.53927 479.098 5.18089C477.381 4.82251 475.175 2.72878 473.93 1.61591C467.762 -3.87297 464.121 4.03026 457.84 3.84163C457.425 3.82277 457.067 3.89825 456.727 3.99256C451.936 3.76622 447.145 3.74732 442.373 3.53983C437.884 3.33235 434.3 3.4078 429.887 2.18176C425.246 0.899129 421.549 1.10661 416.834 1.23865C406.912 1.52158 395.595 8.14224 385.768 5.35064C384.674 5.02998 383.693 5.14311 382.882 5.53922C379.883 5.18084 376.846 4.74701 373.885 5.06766C371.414 5.33173 369.037 6.67099 366.811 7.70841C364.473 8.80241 360.908 9.31167 358.361 9.7455C352.25 10.8018 347.497 12.3673 342.027 15.291C340.914 15.8757 340.291 16.7434 340.027 17.6487C337.745 18.1014 335.5 18.5918 333.143 18.8748C326.333 19.7424 321.505 24.7786 315.054 26.1744C312.564 26.7026 309.904 26.363 307.396 26.8912C304.774 27.4571 302.642 29.3621 300.775 31.1352C298.927 32.8894 296.682 34.0777 294.89 35.8885C292.268 38.5292 290.514 41.0756 287.307 43.1881C282.064 46.6399 276.367 49.1297 271.388 53.0342C269.011 54.9015 267.314 57.7497 264.824 59.4284C262.617 60.9185 259.297 60.6922 256.807 61.7485C251.243 64.0874 247.546 69.7837 244.132 74.4615C240.435 79.5166 236.116 84.2887 232.211 89.1929C229.759 92.2863 227.854 95.7381 225.987 99.2087C221.12 104.754 216.48 110.451 212.104 116.336C210.859 117.618 209.501 118.75 207.803 119.316C201.617 121.372 197.769 124.314 194.091 129.784C191.054 134.292 190.375 140.026 187.979 144.761C185.188 150.325 181.321 155.38 177.926 160.567C174.964 165.075 171.626 169.225 171.418 174.789C171.343 177.072 171.607 179.316 172.116 181.504C171.211 184.202 170.268 186.88 169.193 189.577C166.929 195.236 165.477 200.612 164.628 206.383C163.741 209.439 163.006 212.551 162.478 215.739C161.968 218.851 160.969 222.039 161.855 224.868C159.516 235.337 156.197 245.598 155.367 256.33C155.084 259.858 156.083 262.97 156.404 266.441C155.178 269.515 153.405 272.854 153.782 276.136C154.009 278.116 154.537 280.04 154.876 282.002C155.14 283.454 155.103 284.944 154.952 286.434C154.707 287.528 154.405 288.66 153.971 289.83C152.613 293.508 150.84 296.884 150.349 300.807C149.406 308.333 152.651 315.18 155.178 322.046C155.876 323.932 156.385 325.837 156.857 327.761C156.612 331.892 157.291 336.042 157.706 340.229C158.46 347.793 157.913 355.923 160.158 363.241C162.497 370.824 167.061 377.727 171.041 384.537C173.342 388.479 175.493 392.515 177.775 396.476C179.623 399.702 182.358 402.135 184.113 405.436C185.565 408.171 185.848 411.283 186.904 414.169C188.281 417.96 190.431 421.318 192.733 424.619C196.901 430.636 200.881 436.558 204.333 443.028C207.747 449.422 212.255 454.911 216.82 460.513C218.857 463.003 221.743 464.682 224.082 466.908C225.213 468.662 226.27 470.397 227.081 472.17C228.986 476.32 230.381 480.583 233.399 484.091C236.153 487.26 240.378 488.995 243.377 491.975C246.094 494.673 247.923 498.106 251.036 500.426C254.582 503.085 258.599 505.16 262.541 507.159C266.502 509.178 269.671 512.931 273.142 515.666C276.914 518.628 280.781 521.589 284.723 524.324C288.496 526.927 293.343 528.342 297.55 530.039C302.171 531.907 306.396 534.51 311.149 536C313.205 536.641 315.299 537.113 317.185 538.15C318.977 539.131 320.203 540.885 321.938 541.885C326.258 544.374 330.973 545.733 335.444 547.845C339.876 549.939 344.271 551.655 348.383 554.352C349.477 555.069 350.477 555.88 351.439 556.729C351.797 557.597 352.439 558.37 353.174 558.823C353.646 559.106 354.136 559.351 354.664 559.577C355.758 560.52 356.89 561.407 358.154 562.18C361.436 564.161 365.397 563.52 369.037 563.727C372.527 563.897 375.828 563.501 378.902 561.916C379.185 562.105 379.506 562.275 379.864 562.407C381.675 563.048 383.448 563.142 385.353 563.029C385.636 563.01 385.9 563.029 386.164 563.029C387.239 563.388 388.295 563.784 389.144 564.048C391.955 564.915 394.576 565.708 397.274 566.915C401.876 568.971 406.12 570.574 411.232 569.537C416.702 568.424 422.115 569.103 427.661 568.537C430.358 568.273 432.886 567.613 435.526 566.99C435.734 566.952 435.922 566.915 436.13 566.877C439.28 567.745 442.486 568.292 445.75 568.763C453.936 569.895 462.782 568.933 470.704 566.858C474.929 565.745 479.362 565.726 483.681 564.991C488.227 564.199 492 561.294 496.394 560.388C500.997 559.426 505.26 557.767 509.768 556.484C514.219 555.22 518.803 554.409 523.103 552.674C526.291 551.391 529.46 550.127 532.648 548.864C537.382 546.996 542.003 544.11 546.945 542.865C555.376 540.734 563.657 536.698 571.296 532.623C575.068 530.605 578.879 528.662 582.538 526.455C586.914 523.815 590.479 520.061 594.723 517.213C596.986 515.685 599.382 514.346 601.721 512.95C602.513 513.082 603.362 513.026 604.211 512.686C606.719 511.667 608.662 509.857 610.284 507.706C612.434 504.839 615.377 502.425 617.848 499.841C618.866 498.785 619.149 497.408 618.923 496.125C619.96 494.956 620.998 493.805 622.111 492.73C623.261 491.617 624.374 490.466 625.468 489.316C626.581 490.089 628.052 490.334 629.674 489.504C633.805 487.373 638.219 485.411 641.086 481.563C643.991 477.64 648.329 475.094 651.253 471.34C652.743 469.435 653.912 466.983 656.119 465.813C658.383 464.587 660.816 463.55 662.928 462.041C666.512 459.495 667.87 454.685 668.87 450.629C669.36 448.649 669.719 446.593 670.115 444.575C672.341 441.538 674.208 438.331 674.981 435.144C675.038 434.898 675.076 434.672 675.095 434.465C676.604 434.823 678.245 434.333 679.169 432.465C681.545 427.674 684.167 423.147 686.374 418.375C687.355 417.093 688.147 415.735 689.052 414.282C690.165 412.471 691.75 410.189 692.825 407.831C693.146 407.529 693.429 407.171 693.655 406.718C695.239 403.436 696.937 400.437 698.861 397.344C700.785 394.232 703.746 392.459 705.915 389.535C709.895 384.159 709.197 375.954 710.933 369.73C712.593 363.788 714.271 356.677 713.422 350.509C712.894 346.642 710.97 343.153 710.706 339.23C710.442 335.419 714.743 333.288 716.12 330.176C717.289 327.573 717.459 324.857 717.629 322.027C717.836 318.368 718.496 314.822 718.402 311.144C718.327 307.522 717.572 303.806 717.836 300.204C718.195 296.394 720.326 292.678 720.948 288.905ZM706.066 293.395C706.047 296.695 706.066 299.959 706.085 303.259C706.104 307.73 705.198 312.087 704.765 316.501C704.312 320.971 704.293 325.347 703.52 329.799C702.784 334.024 704.029 338.419 703.124 342.757C702.256 346.85 700.709 350.811 700.2 354.98C699.238 362.77 696.956 370.993 693.051 377.878C691.486 380.632 689.864 383.292 687.977 385.781C687.94 385.97 687.902 386.159 687.883 386.347C687.506 388.931 687.185 391.402 686.468 393.892C685.016 399.023 682.507 403.606 681.545 408.888C680.659 413.811 677.735 417.017 674.265 420.393C672.227 422.374 670.586 424.43 668.832 426.618C668.285 427.297 667.568 428.07 666.871 428.9C666.776 429.146 666.663 429.372 666.569 429.636C665.984 431.371 665.286 432.918 664.06 434.295C663.834 434.559 663.57 434.785 663.287 434.974C663.607 438.275 662.796 441.349 661.401 444.405C659.948 447.574 659.099 451.327 656.176 453.553C655.044 454.402 653.856 455.1 652.63 455.741C652.252 456.118 651.856 456.477 651.441 456.797C650.762 457.307 649.857 457.59 648.952 457.608C647.858 458.193 646.782 458.797 645.745 459.514C641.878 462.23 638.804 465.531 635.371 468.737C631.9 471.982 629.014 475.716 625.261 478.659C623.752 479.847 621.752 480.337 620.243 481.563C618.64 482.884 617.489 484.6 616.188 486.185C613.17 489.919 609.36 492.73 606.059 496.201C603.06 499.351 600.08 503.18 596.42 505.613C592.591 508.159 588.574 510.555 584.594 512.875C580.916 514.987 576.445 516.496 573.258 519.325C570.07 522.136 566.788 524.984 563.166 527.191C559.979 529.134 556.282 529.568 552.924 531.02C549.208 532.642 546.172 535.792 542.362 537.113C538.174 538.565 533.874 538.301 529.498 538.527C527.63 538.622 525.706 538.961 523.745 539.338C520.915 540.64 518.407 542.601 515.464 543.544C508.862 545.657 502.374 547.713 495.47 548.486C488.491 549.279 481.795 550.712 474.967 552.315C471.213 553.183 467.46 553.919 463.593 553.806C460.651 553.711 457.765 552.862 454.822 553.202C451.257 553.598 448.126 555.164 444.599 555.673C440.261 556.314 435.922 556.786 431.584 557.465C424.096 558.596 416.325 560.219 408.742 559.615C401.423 559.049 394.388 555.673 387.371 553.673C383.486 552.561 379.543 551.693 375.96 550.014C374.073 549.769 372.187 549.543 370.282 549.486C363.265 549.297 356.003 549.807 349.647 546.28C346.308 544.45 343.913 541.677 341.14 539.168C340.254 538.376 339.367 537.697 338.462 537.094C337.198 536.415 335.878 535.868 334.482 535.585C332.614 535.207 330.709 535 328.861 534.491C325.805 533.661 323.466 530.907 321.146 528.719C317.94 527.757 314.808 527.549 311.753 526.059C302.473 521.495 294.513 514.931 286.006 509.14C283.177 508.914 280.687 506.914 278.084 505.349C275.443 503.764 272.934 501.991 270.52 500.124C265.691 497.332 261.41 494.145 257.166 490.127C255.148 488.203 253.092 486.411 251.017 484.657C248.885 484.336 246.773 483.789 244.773 482.903C239.869 480.752 237.36 476.301 234.399 472.076C230.985 467.209 227.835 461.985 223.874 457.533C220.498 453.742 215.631 451.082 212.689 446.801C209.124 441.595 207.86 437.105 208.218 430.881C208.313 429.146 207.803 427.542 207.087 425.996C203.409 420.016 199.957 413.867 196.75 407.567C194.317 404.681 191.922 401.758 190.035 398.476C187.036 393.27 184.32 387.724 181.114 382.631C178.171 377.935 174.399 372.634 174.267 366.844C174.21 364.241 175.587 361.355 175.04 358.865C174.417 356.036 172.494 353.527 171.664 350.754C169.947 344.945 169.758 338.984 168.532 333.081C167.778 329.478 166.156 327.007 164.703 323.744C163.723 321.499 163.477 319.085 162.553 316.821C161.629 314.52 160.686 311.955 161.101 309.427C161.516 306.975 162.761 304.731 163.176 302.354C164.232 296.13 161.44 290.037 163.081 283.662C163.647 281.455 164.006 279.286 164.421 277.098C163.704 276.532 163.157 275.664 163.025 274.476C162.365 268.572 162.647 263.762 163.873 257.953C164.383 255.538 165.194 252.162 165.062 249.71C164.93 247.352 164.571 244.768 165.213 242.467C165.986 239.713 167.438 237.166 168.834 234.62C168.778 233.752 169.023 232.847 169.683 231.979C175.662 224.189 173.776 211.778 177.02 202.837C178.567 198.575 179.68 195.217 182.472 191.52C185.131 188.012 186.338 184.805 188.093 180.882C189.979 176.694 191.695 172.432 193.581 168.244C193.6 167.924 193.676 167.565 193.827 167.207C196.222 161.68 190.469 155.644 197.542 152.079C198.976 151.363 201.636 150.137 202.56 148.741C203.503 147.307 204.182 145.723 205.163 144.327C206.804 142.007 208.841 139.781 210.501 137.423C210.821 136.254 211.18 135.066 211.708 134.009C216.046 125.257 224.798 119.618 230.287 111.658C232.834 107.98 234.984 104.811 238.587 102.057C241.925 99.4916 244 96.8321 246.565 93.6066C252.356 86.307 258.656 79.3091 266.861 74.7068C269.37 73.311 271.803 71.8397 274.179 70.3119C275.594 68.5011 277.103 66.7847 279.027 65.5964C281.649 63.9931 284.101 62.5972 286.459 60.8997C287.458 60.0131 288.496 59.1643 289.571 58.3532C290.608 57.5799 291.627 57.3536 292.551 57.5045C292.872 57.297 293.174 57.0706 293.494 56.882C294.532 56.2596 295.871 56.1275 297.078 56.4293C297.512 56.1653 297.927 55.9012 298.361 55.6372C300.002 53.9018 301.548 51.8647 303.284 50.733C307.037 48.3186 311.281 45.7722 315.676 44.7914C320.335 43.754 323.598 42.6411 327.635 39.9815C331.087 37.7181 334.633 35.5867 338.254 33.5684C340.084 32.5499 341.838 33.1346 343.007 34.4172C343.102 34.3984 343.177 34.3606 343.271 34.3229C346.308 31.5124 350.552 29.9092 354.136 27.9852C356.72 26.6083 359.097 24.3259 361.775 23.2319C363.812 22.4209 366.566 22.4209 368.735 22.0059C374.526 20.8742 379.977 19.0068 385.843 18.3278C388.748 18.0071 391.728 17.8562 394.595 18.5541C397.274 19.1955 399.5 18.573 402.178 18.6296C405.517 18.6861 408.723 18.3278 412.024 17.9505C414.948 17.6299 418.192 18.0637 421.04 17.4601C426.963 16.1963 433.112 14.6308 439.167 14.3102C444.241 14.0461 449.597 16.3284 454.351 18.0071C454.539 18.0637 454.747 18.158 454.935 18.2335C455.256 18.2146 455.596 18.2146 455.973 18.2901C458.727 18.7616 461.367 17.6676 464.102 17.8751C467.252 18.1392 470.346 18.4976 473.515 18.3844C478.249 18.2146 483.285 16.932 487.944 17.8374C492.018 18.6296 495.942 21.987 499.261 24.3071C500.167 24.9484 501.11 25.5708 502.053 26.231C504.599 26.1178 506.995 26.6649 509.617 27.0798C513.446 27.6834 517.671 26.6837 521.406 27.6645C525.027 28.6077 528.479 30.0034 532.119 30.89C534.986 31.5879 538.419 32.1349 540.985 33.6816C544.116 35.5678 546.662 38.7744 549.925 40.3588C553.037 41.8678 556.602 42.509 559.866 43.7351C563.185 44.9611 566.109 46.8096 569.297 48.2809C571.749 49.4315 574.125 50.5632 576.03 52.5248C578.294 54.8449 578.69 59.4284 582.18 60.5413C585.763 61.6919 589.555 61.2203 593.195 62.1257C598.986 63.5592 604.739 67.558 609.454 71.1418C614.396 74.8954 621.96 77.1777 625.336 82.6289C627.166 85.5903 627.694 88.8534 629.788 91.6827C631.862 94.4932 633.937 97.0773 636.314 99.6425C636.635 100.001 636.861 100.397 637.012 100.793C638.728 102.585 640.218 104.811 641.426 106.433C642.388 107.734 643.331 108.942 644.123 110.262C647.593 113.921 650.706 117.863 654.139 121.674C655.478 123.164 655.346 124.805 654.478 126.012C654.667 126.106 654.874 126.219 655.044 126.37C657.628 128.181 659.816 130.973 661.74 134.047C663.419 135.103 665.098 136.16 666.701 137.291C669.983 139.63 673.774 142.554 674.774 146.628C675.359 149.024 675.434 151.57 675.717 154.022C675.981 156.399 677.754 158.304 678.924 160.303C681.244 164.227 681.979 168.999 684.45 172.979C686.864 176.883 687.053 181.523 687.487 185.956C687.657 187.672 686.921 188.917 685.827 189.634C686.468 191.03 687.091 192.425 687.676 193.84C688.241 195.217 688.902 196.556 689.581 197.895C690.807 198.141 691.92 198.876 692.504 200.159C693.919 203.29 695.032 206.761 696.843 209.684C698.201 211.891 699.125 214.249 699.144 216.852C699.144 217.72 698.899 218.493 698.502 219.153C698.917 221.756 699.257 224.34 699.823 226.905C700.86 231.678 702.954 236.186 703.765 241.033C704.425 245.089 704.821 249.163 705.274 253.237C706.198 261.48 706.877 270.288 705.802 278.55C705.142 283.379 706.066 288.509 706.066 293.395Z" fill="#E09D64"/>
<path d="M705.255 253.201C704.802 249.127 704.406 245.034 703.746 240.997C702.954 236.15 700.86 231.641 699.804 226.869C699.238 224.304 698.899 221.72 698.484 219.117C698.88 218.457 699.125 217.683 699.125 216.816C699.106 214.213 698.182 211.855 696.824 209.648C695.032 206.725 693.919 203.254 692.485 200.123C691.901 198.84 690.769 198.105 689.562 197.859C688.883 196.52 688.242 195.181 687.657 193.804C687.072 192.389 686.45 190.993 685.808 189.598C686.902 188.881 687.638 187.655 687.468 185.92C687.034 181.487 686.846 176.847 684.431 172.942C681.96 168.962 681.225 164.19 678.905 160.267C677.735 158.268 675.962 156.363 675.698 153.986C675.415 151.534 675.34 148.987 674.755 146.592C673.755 142.499 669.964 139.575 666.682 137.255C665.079 136.123 663.4 135.086 661.721 134.011C659.797 130.936 657.609 128.145 655.025 126.334C654.837 126.202 654.648 126.089 654.459 125.976C655.327 124.75 655.478 123.127 654.12 121.637C650.706 117.827 647.594 113.885 644.104 110.226C643.312 108.905 642.369 107.698 641.407 106.397C640.2 104.756 638.709 102.549 636.993 100.757C636.842 100.361 636.616 99.9648 636.295 99.6064C633.918 97.0223 631.862 94.457 629.769 91.6465C627.675 88.8361 627.147 85.554 625.317 82.5927C621.941 77.1415 614.377 74.878 609.435 71.1056C604.739 67.5218 598.986 63.5042 593.176 62.0895C589.536 61.1841 585.745 61.6557 582.161 60.5051C578.671 59.3922 578.275 54.8087 576.012 52.4887C574.107 50.527 571.73 49.3953 569.278 48.2447C566.09 46.7546 563.166 44.9249 559.847 43.6989C556.584 42.4917 553.019 41.8504 549.906 40.3226C546.662 38.757 544.116 35.5316 540.966 33.6454C538.4 32.0987 534.968 31.5517 532.101 30.8538C528.46 29.9673 525.008 28.5715 521.387 27.6284C517.652 26.6475 513.427 27.6472 509.598 27.0436C506.976 26.6287 504.581 26.0817 502.034 26.1948C501.091 25.5535 500.148 24.9122 499.243 24.2709C495.923 21.9509 492.018 18.5934 487.925 17.8011C483.247 16.8958 478.211 18.1973 473.496 18.3482C470.327 18.4613 467.234 18.0841 464.084 17.8389C461.349 17.6126 458.689 18.7066 455.954 18.2539C455.577 18.1784 455.237 18.1784 454.917 18.1973C454.728 18.1218 454.52 18.0464 454.332 17.971C449.56 16.2922 444.222 14.0099 439.148 14.2739C433.093 14.5946 426.925 16.1413 421.021 17.4239C418.173 18.0275 414.929 17.5937 412.005 17.9144C408.704 18.2916 405.498 18.65 402.159 18.5934C399.481 18.5368 397.255 19.1781 394.577 18.5179C391.709 17.82 388.729 17.9709 385.824 18.2916C379.958 18.9518 374.526 20.838 368.717 21.9697C366.566 22.3847 363.794 22.3847 361.756 23.1958C359.059 24.2709 356.682 26.5532 354.117 27.949C350.533 29.8729 346.271 31.4762 343.253 34.2867C343.158 34.3244 343.083 34.3433 342.989 34.381C341.819 33.1172 340.084 32.5137 338.235 33.5322C334.633 35.5505 331.086 37.6819 327.616 39.9454C323.579 42.6049 320.316 43.7178 315.657 44.7552C311.262 45.736 307.018 48.2824 303.265 50.6968C301.529 51.8285 299.983 53.8656 298.342 55.6009C297.908 55.865 297.493 56.1291 297.059 56.3932C295.852 56.1102 294.513 56.2422 293.475 56.8458C293.155 57.0345 292.853 57.2608 292.532 57.4683C291.608 57.3174 290.571 57.5437 289.552 58.3171C288.477 59.1282 287.439 59.977 286.44 60.8635C284.082 62.5799 281.63 63.9569 279.008 65.5601C277.084 66.7296 275.575 68.446 274.16 70.2757C271.784 71.8035 269.351 73.2748 266.842 74.6706C258.637 79.273 252.318 86.2708 246.546 93.5705C244 96.7959 241.925 99.4555 238.568 102.021C234.965 104.793 232.815 107.962 230.268 111.622C224.779 119.581 216.027 125.221 211.689 133.973C211.161 135.048 210.803 136.218 210.482 137.387C208.822 139.745 206.785 141.971 205.144 144.291C204.144 145.687 203.465 147.271 202.541 148.705C201.617 150.119 198.976 151.326 197.524 152.043C190.45 155.608 196.203 161.625 193.808 167.171C193.657 167.529 193.581 167.887 193.563 168.208C191.676 172.414 189.96 176.658 188.074 180.846C186.301 184.769 185.093 187.994 182.453 191.484C179.661 195.162 178.548 198.52 177.002 202.801C173.738 211.742 175.643 224.172 169.664 231.943C169.004 232.811 168.759 233.716 168.815 234.584C167.42 237.13 165.967 239.677 165.194 242.431C164.553 244.732 164.911 247.335 165.043 249.674C165.194 252.145 164.364 255.502 163.855 257.916C162.629 263.726 162.346 268.536 163.006 274.44C163.138 275.628 163.685 276.496 164.402 277.062C163.987 279.25 163.628 281.419 163.062 283.626C161.421 290.001 164.213 296.093 163.157 302.318C162.761 304.713 161.497 306.958 161.082 309.391C160.648 311.919 161.61 314.503 162.534 316.785C163.44 319.049 163.704 321.482 164.685 323.708C166.118 326.971 167.759 329.442 168.514 333.044C169.74 338.929 169.928 344.89 171.645 350.718C172.475 353.491 174.399 356.019 175.021 358.829C175.568 361.319 174.21 364.205 174.248 366.808C174.38 372.579 178.133 377.899 181.095 382.595C184.282 387.669 187.017 393.215 190.016 398.44C191.903 401.74 194.298 404.645 196.731 407.531C199.957 413.812 203.39 419.98 207.068 425.959C207.785 427.525 208.294 429.128 208.2 430.845C207.841 437.088 209.105 441.558 212.67 446.764C215.612 451.046 220.498 453.706 223.855 457.497C227.797 461.967 230.966 467.192 234.38 472.04C237.36 476.265 239.869 480.716 244.754 482.867C246.754 483.753 248.847 484.3 250.998 484.621C253.091 486.394 255.147 488.186 257.147 490.091C261.391 494.108 265.673 497.296 270.501 500.088C272.916 501.974 275.424 503.728 278.065 505.312C280.668 506.878 283.139 508.877 285.987 509.104C294.494 514.894 302.454 521.459 311.734 526.023C314.79 527.513 317.921 527.74 321.127 528.683C323.447 530.852 325.786 533.625 328.842 534.455C330.69 534.964 332.577 535.171 334.463 535.549C335.859 535.831 337.179 536.378 338.443 537.057C339.348 537.661 340.235 538.321 341.121 539.132C343.913 541.641 346.308 544.414 349.628 546.243C356.003 549.771 363.246 549.28 370.263 549.45C372.187 549.507 374.054 549.714 375.941 549.978C379.525 551.657 383.467 552.506 387.352 553.637C394.35 555.637 401.405 559.013 408.723 559.579C416.306 560.182 424.077 558.56 431.565 557.429C435.903 556.768 440.242 556.278 444.58 555.637C448.107 555.127 451.238 553.562 454.803 553.166C457.746 552.826 460.632 553.675 463.574 553.769C467.441 553.883 471.195 553.147 474.948 552.279C481.776 550.695 488.472 549.242 495.451 548.45C502.355 547.677 508.844 545.621 515.445 543.508C518.388 542.565 520.896 540.604 523.726 539.302C525.687 538.906 527.611 538.585 529.479 538.491C533.855 538.265 538.155 538.529 542.343 537.076C546.153 535.756 549.19 532.587 552.905 530.984C556.282 529.532 559.979 529.098 563.148 527.155C566.769 524.948 570.051 522.1 573.239 519.289C576.427 516.46 580.897 514.97 584.575 512.839C588.555 510.537 592.554 508.142 596.402 505.577C600.061 503.124 603.022 499.314 606.04 496.164C609.341 492.694 613.151 489.883 616.169 486.149C617.471 484.564 618.621 482.848 620.225 481.527C621.733 480.282 623.733 479.811 625.242 478.623C628.995 475.661 631.881 471.945 635.352 468.701C638.785 465.494 641.859 462.194 645.726 459.477C646.745 458.761 647.839 458.157 648.933 457.572C649.838 457.572 650.762 457.271 651.423 456.761C651.837 456.441 652.234 456.082 652.611 455.705C653.837 455.064 655.025 454.366 656.157 453.517C659.081 451.291 659.929 447.519 661.382 444.369C662.778 441.313 663.589 438.239 663.268 434.938C663.551 434.749 663.815 434.542 664.041 434.259C665.249 432.882 665.965 431.316 666.55 429.6C666.644 429.355 666.758 429.109 666.852 428.864C667.55 428.034 668.266 427.242 668.814 426.582C670.568 424.375 672.209 422.338 674.246 420.357C677.716 416.981 680.621 413.756 681.527 408.851C682.47 403.57 684.997 399.005 686.45 393.856C687.166 391.347 687.487 388.876 687.864 386.311C687.883 386.123 687.921 385.934 687.959 385.745C689.845 383.237 691.467 380.596 693.032 377.842C696.937 370.957 699.219 362.733 700.181 354.943C700.691 350.775 702.237 346.814 703.105 342.721C704.01 338.382 702.765 333.987 703.501 329.762C704.293 325.311 704.293 320.935 704.746 316.465C705.199 312.051 706.085 307.694 706.066 303.223C706.047 299.941 706.047 296.659 706.047 293.358C706.047 288.473 705.123 283.343 705.764 278.495C706.858 270.252 706.179 261.444 705.255 253.201ZM691.127 293.736C690.995 298.074 689.864 302.337 688.996 306.619C688.713 310.108 688.355 313.598 687.94 317.068C687.94 321.444 688.185 325.858 687.449 330.083C686.902 333.214 685.582 336.176 684.243 339.137C681.696 351.02 678.32 362.62 674.151 373.9C674.51 377.201 674.793 380.483 673.68 383.237C671.379 388.858 666.871 393.611 664.173 399.024C662.099 403.212 659.42 407.097 656.911 411.039C643.199 435.277 625.6 457.138 604.833 475.718C602.645 479.151 600.683 482.848 597.647 485.319C595.006 487.469 591.46 488.45 587.97 489.525C573.05 500.729 556.829 510.349 539.513 518.101C537.91 519.535 536.231 520.836 534.326 521.628C531.61 522.76 528.687 523.326 525.725 523.816C520.463 525.816 515.106 527.626 509.673 529.286C506.542 531.229 503.43 533.266 499.978 534.172C494.15 535.681 487.925 536.133 481.927 537.227C476.023 538.321 470.195 541.433 464.121 542.113C460.424 542.528 456.558 540.962 452.747 539.755C435.187 540.962 417.89 540.358 401.046 538.095C397.594 538.812 394.162 539.566 390.917 539C384.919 537.944 378.902 536.341 373.055 534.888C367.17 533.417 360.776 532.983 355.023 531.097C349.251 529.211 344.139 525.042 338.556 522.76C335.463 521.496 332.709 519.516 329.936 517.535C322.806 514.291 315.865 510.707 309.093 506.84C308.226 506.388 307.358 505.935 306.509 505.444C306.113 505.218 305.736 504.935 305.359 504.671C292.759 497.164 280.838 488.601 269.728 479.075C267.049 477.472 264.39 475.831 262.126 473.737C257.675 469.644 253.959 464.721 249.791 460.307C249.13 459.609 248.527 458.836 247.961 458.063C234.814 443.765 223.233 427.94 213.575 410.813C210.972 407.946 208.2 405.173 206.502 401.816C204.823 398.496 204.238 394.648 203.484 390.857C201.692 386.877 199.976 382.859 198.391 378.766C195.883 375.39 192.94 372.146 191.657 368.298C189.733 362.583 187.489 356.716 185.961 350.813C185.112 347.568 185.999 343.909 186.753 340.269C184.905 331.781 183.471 323.104 182.49 314.295C182.226 311.919 182 309.523 181.793 307.147C180.491 303.525 179.001 299.923 178.85 296.263C178.737 293.604 179.718 290.963 180.887 288.303C180.812 281.494 181.019 274.741 181.491 268.027C180.359 265.178 179.378 262.349 179.642 259.595C180.265 253.54 182 247.505 183.037 241.563C183.528 238.752 184.867 236.112 186.282 233.509C191.601 208.158 200.73 184.052 213.123 161.889C213.556 160.003 214.122 158.173 215.065 156.551C216.216 154.59 217.763 152.873 219.423 151.232C223.195 145.196 227.213 139.33 231.457 133.653C232.437 130.936 233.513 128.296 235.229 126.127C239.001 121.392 242.001 115.752 246.094 111.301C250.187 106.849 255.43 103.266 259.844 99.1159C264.258 94.9663 268.917 90.9109 273.613 87.063C275.5 85.5163 277.914 84.6487 280.423 83.9319C290.571 76.123 301.341 69.0685 312.677 62.844C314.544 60.1844 316.468 57.6003 319.09 56.28C324.466 53.545 331.011 52.9414 336.613 50.6025C338.103 49.98 339.688 49.6027 341.31 49.3387C350.062 45.868 359.059 42.8501 368.302 40.3414C369.245 39.9265 370.207 39.5681 371.188 39.304C374.866 38.3421 378.638 37.6253 382.41 36.9274C385.315 36.3049 388.239 35.758 391.2 35.2298C396.35 33.8906 401.405 31.3631 406.724 30.7595C409.61 30.4388 412.59 31.231 415.551 32.1364C421.795 31.646 428 31.3819 434.168 31.3442C437.224 30.005 440.298 28.7035 443.335 28.7978C449.428 28.9864 455.577 30.1181 461.575 30.7217C467.63 31.3442 473.609 33.0795 479.551 34.1358C482.738 34.7016 485.794 35.8334 488.85 36.984C495.508 38.4175 502.072 40.1151 508.561 42.0579C510.635 42.4917 512.691 42.9821 514.71 43.6423C520.481 45.5285 526.989 45.6606 532.591 47.9618C536.118 49.4142 539.042 52.2246 542.079 54.7899C546.492 56.827 550.849 59.015 555.131 61.2973C558.583 62.2404 562.072 63.1269 565.053 64.9C567.618 66.4089 569.693 68.6724 571.73 70.9925C585.971 80.0463 599.288 90.4771 611.472 102.134C615.434 104.473 619.979 106.246 623.016 109.49C627.166 113.904 630.071 119.619 633.9 124.316C635.277 126.013 636.125 128.088 636.823 130.295C643.5 138.934 649.631 148.025 655.176 157.513C657.892 161.776 660.797 165.982 663.079 170.49C664.475 173.225 665.475 176.168 666.437 179.11C674.114 195.747 680.074 213.402 684.073 231.887C685.544 234.207 686.883 236.564 687.355 239.13C688.449 245.034 689.411 251.164 690.09 257.219C690.769 263.292 692.203 269.422 692.448 275.421C692.674 281.494 691.297 287.719 691.127 293.736Z" fill="#E09D64"/>
<path d="M619.619 157.586C623.128 162.623 624.203 169.224 627.296 174.562C630.371 179.863 633.313 185.144 635.973 190.727C638.595 196.273 644.348 200.554 646.517 206.345C648.667 212.079 646.083 219.398 647.78 225.358C649.44 231.243 651.723 236.845 652.911 242.938C654.081 248.936 653.76 255.028 654.458 261.196C655.156 267.364 657.457 273.23 657.645 279.323C657.834 285.528 656.514 291.545 656.193 297.638C656.193 297.713 656.193 297.789 656.193 297.864C657.023 297.732 657.853 297.619 658.721 297.544C658.872 297.525 658.985 297.581 659.079 297.657C659.645 297.525 660.211 297.412 660.795 297.317C661.022 297.279 661.192 297.393 661.286 297.544C661.739 297.298 662.21 297.091 662.682 297.317C662.776 297.374 662.889 297.393 662.983 297.43C663.455 297.298 663.945 297.185 664.417 297.034C665.681 296.638 667.284 297.223 668.567 297.374C668.642 297.374 668.699 297.374 668.774 297.393C668.85 297.393 668.906 297.355 668.982 297.355C669.981 297.204 670.887 297.129 671.886 297.147C673.207 297.166 674.414 296.638 675.678 296.261C677.055 295.865 678.3 295.223 679.582 294.582C680.167 294.035 680.563 293.356 681.072 292.847C681.336 292.583 681.317 292.073 681.563 291.772C681.638 291.696 681.695 291.602 681.77 291.508C681.94 291.3 682.242 291.206 682.525 291.112C681.714 286.358 679.62 281.567 679.45 276.757C679.356 274.117 680.242 271.382 681.223 268.628C681.185 268.043 681.148 267.458 681.091 266.855C681.525 263.95 681.864 261.026 681.544 258.14C681.28 255.707 680.393 253.387 679.375 251.105C679.243 250.199 679.111 249.294 678.96 248.389C677.243 245.823 675.583 243.239 675.055 240.523C673.905 234.431 673.471 228.395 671.886 222.491C671.094 219.511 671.113 216.285 671.075 213.079C670.943 212.852 670.792 212.607 670.66 212.381C662.965 187.615 651.553 164.678 637.105 144.138C635.558 142.893 634.105 141.572 632.993 140.045C632.879 139.894 632.804 139.743 632.691 139.592C632.144 139.931 631.597 140.195 630.974 140.365C629.503 140.761 629.05 141.61 628.277 142.742C627.56 143.817 626.598 144.835 625.825 145.948C625.221 146.835 624.561 147.703 623.769 148.438C621.751 150.324 619.827 152.248 617.658 153.965C617.412 154.153 617.186 154.342 616.941 154.531C617.922 155.493 618.846 156.473 619.619 157.586Z" fill="#E09D64"/>
<path d="M373.715 69.2357C379.6 67.5758 385.956 67.3118 392.049 66.1234C398.047 64.954 404.026 62.7471 410.194 62.0492C416.362 61.3513 422.719 62.6716 428.811 62.483C435.017 62.2944 441.222 61.2758 447.334 61.5965C453.52 61.9171 459.217 66.3498 465.29 67.1797C471.421 68.0096 478.079 65.3878 484.058 66.727C490.094 68.0662 496.696 67.8398 502.562 69.6695C508.466 71.4991 513.502 76.0826 519.198 78.4027C524.914 80.7227 530.591 83.1937 536.08 85.9664C541.588 88.7391 547.416 91.0781 552.66 94.2846C557.904 97.51 562.091 102.376 567.052 106.017C572.012 109.657 578.501 111.506 583.16 115.542C587.8 119.579 589.083 127.18 593.383 131.594C597.684 135.989 601.72 140.365 605.644 145.118C606.625 146.288 607.756 147.344 608.963 148.325C609.567 147.665 610.114 146.948 610.51 146.118C612.396 142.1 613.849 138.215 616.565 134.65C618.715 131.839 621.507 129.198 622.978 125.973C620.564 123.144 618.093 120.39 615.546 117.674C613.038 116.202 610.529 114.712 608.567 112.732C604.229 108.394 598.891 105.357 594.232 101.339C589.573 97.3214 585.669 92.6624 580.727 89.0032C575.785 85.3439 570.824 81.9488 565.618 78.6668C562.449 76.6674 560.148 73.159 557.602 70.0656C555.583 68.7641 553.528 67.5003 551.434 66.3875C546.02 63.5204 540.569 60.3139 534.93 57.8429C532.251 56.6735 529.139 56.5792 525.989 56.5792C525.744 56.4849 525.517 56.3905 525.272 56.2962C522.009 56.5226 518.746 56.7678 515.954 55.787C510.164 53.7498 505.071 49.8831 499.11 48.2798C497.563 47.8648 496.055 47.2235 494.564 46.5067C493.169 46.1672 491.773 45.8277 490.358 45.5071C487.604 43.602 484.832 41.7158 481.757 41.1499C477.626 40.3766 473.231 40.9047 468.893 41.1122C466.913 41.2631 464.951 41.3197 463.027 41.1122C456.953 40.4332 450.861 39.6032 444.674 39.3769C438.582 39.1505 432.508 41.4706 426.321 41.6969C423.454 41.8101 420.474 40.9047 417.513 40.0182C414.306 40.2445 411.099 40.5275 407.874 40.8859C404.837 41.2254 401.838 41.6403 398.858 42.093C395.991 43.8472 393.143 45.658 390.144 46.2238C384.07 47.3744 378.072 47.978 372.168 49.5436C366.189 51.128 360.153 52.0334 354.381 54.0516C351.797 54.957 349.118 55.5606 346.44 56.1642C346.572 56.3906 346.685 56.6169 346.761 56.8998C347.062 58.2767 348.27 59.5216 348.647 60.9552C349.477 64.0297 349.684 67.142 350.797 70.1599C351.288 71.4991 351.514 73.027 352.193 74.3096C352.683 75.2338 353.381 75.8751 354.098 76.5353C354.834 76.2335 355.569 75.9317 356.324 75.6488C361.964 73.4608 367.754 70.9333 373.715 69.2357Z" fill="#E09D64"/>
<path d="M281.364 128.05C285.759 123.749 289.192 118.637 293.945 114.695C298.68 110.772 302.867 106.226 307.922 102.699C312.958 99.1905 317.844 95.4181 323.201 92.3247C328.501 89.2501 333.707 85.7984 339.29 83.1577C340.988 82.3466 342.704 81.5355 344.439 80.7245C343.892 80.1397 343.27 79.6116 342.553 79.1589C340.12 77.6688 337.517 76.5182 335.386 74.5754C333.367 72.7269 331.519 70.6898 329.821 68.5206C328.897 67.3323 327.482 65.9742 326.615 64.5596C326.351 64.6916 326.087 64.8048 325.822 64.9368C324.012 66.0308 322.22 67.106 320.371 68.0868C314.92 70.9727 310.752 75.8391 305.564 79.1023C301.905 81.4035 297.341 82.3466 293.247 83.9499C291.682 84.893 290.154 85.8738 288.702 86.9489C286.57 88.5334 284.628 90.3442 282.741 92.2304C280.497 95.0031 278.384 97.9268 275.743 100.19C273.48 102.133 270.707 103.51 267.935 104.906C260.144 112.13 252.826 119.845 246.036 127.993C246.545 128.88 246.847 129.917 246.884 130.936C246.979 133.369 248.318 135.161 248.771 137.462C249.6 141.744 252.317 144.347 255.618 146.799C256.919 147.515 258.088 148.402 259.314 149.307C259.786 149.666 260.239 149.986 260.691 150.326C263.332 147.251 266.105 144.328 268.802 141.215C272.801 136.575 276.969 132.35 281.364 128.05Z" fill="#E09D64"/>
<path d="M215.347 310.501C214.649 304.333 209.368 298.486 209.179 292.393C208.99 286.188 214.479 280.076 214.8 273.984C215.121 267.797 213.649 261.61 214.479 255.537C215.309 249.406 213.555 242.748 214.894 236.769C216.233 230.733 219.553 225.112 221.383 219.265C221.553 218.699 221.741 218.133 221.93 217.548C221.439 217.379 220.949 217.171 220.477 216.907C220.025 216.643 220.176 215.775 220.76 215.945C221.27 216.096 221.817 216.152 222.345 216.209C223.91 211.343 225.608 206.476 227.513 201.779C229.833 196.064 234.53 191.481 237.302 185.992C240.075 180.484 243.999 175.825 247.205 170.581C250.431 165.338 253.184 160 256.825 155.039C257.447 154.171 258.126 153.36 258.786 152.549C258.541 152.436 258.296 152.323 258.032 152.191C257.9 152.115 257.825 152.002 257.787 151.889C257.24 151.701 256.712 151.474 256.165 151.248C255.957 151.153 255.901 150.946 255.901 150.776C255.372 150.738 254.92 150.606 254.637 150.173C254.58 150.078 254.599 149.89 254.524 149.814C254.052 149.663 253.731 149.305 253.26 149.192C251.977 148.852 251.261 147.079 250.261 146.268C250.204 146.23 250.148 146.193 250.11 146.155C250.053 146.098 249.638 146.513 249.582 146.495C248.658 146.098 247.507 146.08 246.658 145.533C245.545 144.816 244.225 144.571 242.961 144.212C241.584 143.816 240.17 143.59 238.736 143.477C237.963 143.646 237.189 143.816 236.491 143.967C236.114 144.042 235.756 144.137 235.379 144.231C235.265 144.288 235.171 144.307 235.058 144.344C234.681 144.476 234.266 144.514 233.851 144.571C233.794 144.589 233.738 144.589 233.662 144.608C232.247 148.532 231.342 152.757 229.173 156.19C225.91 161.377 221.534 165.772 218.648 171.204C217.61 173.166 216.026 174.863 214.328 176.523C211.499 182.219 208.896 188.048 206.519 193.971C205.69 194.895 204.86 195.838 204.049 196.762C203.728 199.346 203.351 201.893 202.54 204.25C200.502 210.041 199.465 216.115 197.862 222.075C196.277 227.998 193.523 233.675 192.373 239.73C191.675 243.465 189.977 247.124 188.619 250.821C188.336 253.16 188.053 255.499 187.789 257.819C187.167 263.383 188.883 269.249 189.015 274.946C188.978 275.87 188.959 276.794 188.921 277.719C188.732 279.869 188.28 282.038 187.789 284.226C189.053 287.753 190.619 291.299 190.751 294.845C190.939 299.995 191.373 305.088 191.901 310.256C192.411 310.52 192.901 310.803 193.429 311.123C194.108 311.538 194.599 312.217 195.259 312.651C196.126 313.198 197.088 313.368 198.069 313.5C198.239 313.519 198.39 313.575 198.522 313.651C199.012 313.708 199.503 313.802 199.955 313.934C200.37 314.009 200.804 314.066 201.219 314.141C202.181 314.179 203.162 314.255 204.218 314.405C206.897 314.764 209.613 314.255 212.291 314.387C213.272 314.424 214.234 314.405 215.215 314.405C215.441 313.085 215.498 311.784 215.347 310.501Z" fill="#E09D64"/>
<path d="M264.409 184.522C261.259 189.822 255.657 193.821 253.017 199.404C250.376 204.968 250.753 211.815 248.622 217.625C247.584 220.473 246.264 223.227 245.019 226C249.659 227.641 254.375 229.093 259.222 230.074C261.655 230.564 263.994 231.3 266.277 232.205C268.144 226.32 270.502 220.511 272.973 214.909C275.444 209.269 280.801 205.119 283.837 199.781C286.874 194.424 289.93 189.313 293.514 184.314C297.097 179.316 301.53 175.279 305.623 170.696C309.697 166.093 310.754 158.567 315.299 154.418C316.544 153.286 317.846 152.211 319.185 151.155C318.845 150.645 318.468 150.098 318.016 149.702C317.865 149.57 317.827 149.4 317.846 149.25C317.619 148.967 317.431 148.665 317.167 148.382C316.846 148.042 316.469 147.759 316.148 147.401C316.073 147.307 315.997 147.212 315.941 147.099C315.677 146.835 315.431 146.552 315.337 146.232C315.205 145.817 315.733 145.27 316.129 145.647C316.28 145.798 316.412 145.949 316.563 146.1C316.676 146.213 316.695 146.364 316.752 146.496C317.072 146.816 317.45 147.118 317.657 147.344C317.978 147.684 318.28 148.042 318.581 148.401C318.676 148.42 318.751 148.495 318.827 148.589C318.864 148.646 318.883 148.703 318.921 148.74C319.185 148.684 319.506 148.816 319.581 149.155C319.525 148.948 319.996 149.683 320.354 150.23C323.561 147.778 326.9 145.477 330.106 143.1C335.029 139.46 339.518 134.707 344.838 131.595C350.119 128.501 357.966 130.255 363.587 127.69C363.775 127.615 363.945 127.52 364.115 127.426C362.776 126.125 361.436 124.672 360.738 123.012C360.267 121.899 360.305 120.787 360.04 119.636C359.682 118.014 359.116 116.467 358.682 114.864C357.89 111.978 357.173 109.13 356.551 106.206C356.268 104.848 355.891 103.509 355.476 102.188C351.515 104.886 348.12 108.639 343.932 110.827C338.443 113.694 331.181 113.317 326.013 116.656C320.826 120.013 315.62 123.522 310.772 127.332C305.925 131.161 303.982 138.234 299.512 142.478C295.041 146.722 288.345 148.721 284.29 153.362C281.744 156.266 279.744 159.605 277.707 162.906C277.915 163.057 278.103 163.226 278.292 163.377C278.424 163.49 278.443 163.66 278.424 163.811C278.518 163.887 278.537 164 278.613 164.075C278.669 164.113 278.594 164.302 278.65 164.339C278.839 164.396 279.009 164.49 279.178 164.566C279.197 164.547 279.461 164.528 279.461 164.528C279.556 164.584 279.989 164.641 279.989 164.698C279.989 165.056 280.97 165.471 281.555 165.848H281.442C281.649 165.98 282.177 165.716 282.442 165.773C283.064 165.924 283.045 166.735 282.423 166.584C282.121 166.508 281.951 166.225 281.649 166.112C280.838 165.999 280.046 165.735 279.367 165.282C279.31 165.245 279.367 165.037 279.329 164.981C279.31 164.962 279.499 164.679 279.499 164.66C279.405 164.603 279.292 164.566 279.197 164.509C279.141 164.584 279.009 164.83 278.971 164.811C278.763 164.716 278.443 164.999 278.254 164.867C278.216 164.867 278.386 164.999 278.348 164.981C278.273 165.075 278.254 165.207 278.235 165.301C278.537 165.546 278.82 165.792 278.82 165.81V165.829C278.82 165.829 278.066 165.301 278.103 165.339C278.216 165.452 278.235 165.396 278.254 165.301C278.009 165.094 277.764 164.886 277.707 164.83C277.669 164.792 277.141 164.339 276.934 164.132C275.972 165.678 274.991 167.206 273.935 168.678C270.313 173.77 267.559 179.222 264.409 184.522Z" fill="#E09D64"/>
<path d="M588.668 195.822C591.762 201.104 592.422 207.724 594.987 213.364C597.515 218.928 601.57 223.964 603.513 229.831C605.437 235.621 604.776 242.166 606.097 248.221C607.398 254.163 606.738 260.293 607.436 266.461C608.134 272.648 611.774 278.457 611.831 284.531C611.887 290.736 610.963 296.848 610.379 302.921C609.775 309.089 611.85 315.748 610.624 321.727C610.492 322.406 610.265 323.066 610.039 323.726C610.888 324.066 611.737 324.387 612.604 324.67C614.472 325.235 616.358 326.103 618.282 326.443C619.885 326.726 621.526 326.82 623.092 327.216C624.563 327.593 625.978 327.97 627.449 328.291C628.203 328.442 628.713 328.649 629.316 329.14C629.675 329.442 629.467 329.932 629.052 330.026C626.543 330.592 623.299 329.442 620.809 328.989C617.98 328.48 615.245 327.744 612.51 326.82C612.472 326.82 612.434 326.82 612.397 326.82C611.359 326.612 610.209 326.254 609.077 325.82C606.87 330.14 603.192 334.063 601.777 338.533C599.91 344.418 599.42 350.737 596.949 356.339C594.742 361.375 592.497 366.43 589.894 371.24C592.61 372.372 595.308 373.522 597.797 375.163C600.4 376.861 602.739 378.804 605.361 380.445C606.512 381.162 607.738 381.746 608.907 382.425C611.378 378.823 613.981 375.296 615.867 371.316C618.508 365.751 620.168 359.848 622.299 354.038C624.412 348.266 628.373 343.041 629.939 337.062C631.504 331.12 631.863 324.839 632.881 318.728C633.881 312.673 632.315 306.392 632.749 300.186C632.768 299.903 632.806 299.621 632.824 299.338C632.41 299.451 632.013 299.753 631.598 300.507H631.58C631.316 300.507 631.014 299.904 630.75 299.998C630.146 300.186 629.712 298.904 630.335 298.696C630.636 298.602 630.919 298.149 631.24 298.055C631.806 297.81 632.391 297.583 632.994 297.489C633.598 292.302 634.73 287.153 634.616 281.852C634.484 275.741 635.748 269.479 635.05 263.292C634.352 257.105 630.222 251.579 628.977 245.599C627.732 239.507 631.108 232.264 629.335 226.417C627.524 220.475 623.676 215.137 621.356 209.459C618.998 203.725 617.112 197.671 614.264 192.238C611.397 186.749 605.456 183.071 602.117 177.922C600.099 174.791 597.797 171.943 595.459 169.113C593.006 170.302 590.611 171.584 588.423 173.188C584.575 175.96 581.142 179.223 577.389 182.09C580.991 186.768 585.688 190.748 588.668 195.822Z" fill="#E09D64"/>
<path d="M397.67 114.676C403.612 113.375 409.383 110.564 415.57 109.867C421.757 109.169 427.982 107.528 434.055 107.49C440.261 107.433 446.429 109.885 452.502 110.47C458.67 111.074 464.197 114.676 470.195 115.902C476.08 117.11 482.154 116.808 487.85 118.486C488.246 117.392 488.642 116.298 489.001 115.204C489.019 115.072 489.038 114.94 489.057 114.808C489.076 114.658 489.133 114.544 489.246 114.488C489.699 113.092 490.076 111.696 490.415 110.281C490.981 107.81 492.245 105.811 492.113 103.152C492.094 102.831 492.339 102.661 492.566 102.623C492.566 102.605 492.566 102.605 492.566 102.605C492.641 102.359 492.698 102.133 492.773 101.888C492.943 100.926 493.056 99.945 493.169 99.0396C493.245 98.4737 494.112 98.5115 494.169 99.0585C494.282 100.039 494.112 100.982 493.905 101.907C493.98 102.001 494.018 102.095 494.018 102.246C494.018 102.265 494.018 102.303 493.999 102.322C494.075 102.491 494.075 102.661 493.942 102.812C493.848 103.434 493.641 103.981 493.377 104.642C493.358 104.679 493.339 104.717 493.32 104.736C493.32 105.208 493.358 105.641 493.377 105.924C493.433 107.094 492.905 108.169 492.792 109.301C492.509 111.809 491.755 114.148 491.076 116.563C490.83 117.43 490.585 118.317 490.321 119.184C495.697 120.505 501.563 120.58 506.561 122.768C512.201 125.239 517.313 129.049 522.651 132.086C528.008 135.142 533.968 137.462 538.966 141.046C543.965 144.629 546.36 151.476 550.963 155.569C555.565 159.644 559.904 163.737 564.053 168.283C567.354 171.885 571.202 174.979 574.484 178.6C575.578 177.487 576.672 176.356 577.785 175.262C581.274 171.829 585.141 168.848 588.951 165.793C589.743 165.151 590.517 164.604 591.309 164.076C591.177 163.907 591.026 163.737 590.894 163.567C587.065 158.719 586.197 151.344 581.953 146.874C577.709 142.385 571.391 140.008 566.75 135.934C562.11 131.86 559.262 125.428 554.264 121.806C549.265 118.185 544.248 114.167 538.929 111.017C533.629 107.867 526.159 108.622 520.576 105.962C515.011 103.321 509.127 101.812 503.317 99.6809C497.545 97.5683 492.547 93.098 486.567 91.5136C480.626 89.9481 474.741 87.4583 468.611 86.4397C462.556 85.44 455.935 89.1936 449.748 88.7598C443.637 88.3259 437.601 82.5164 431.396 82.6296C425.284 82.7616 419.494 88.7975 413.307 89.4954C407.12 90.1933 401.197 90.7591 395.199 91.9852C389.107 93.2489 383.448 95.1163 377.601 96.8893C373.168 98.2474 368.283 98.1154 363.737 98.9264C363.85 99.4169 363.963 99.9261 364.02 100.417C364.435 104.019 364.869 107.584 365.567 111.149C366.151 114.092 366.434 117.883 368.471 120.222C369.415 121.316 370.207 122.466 370.98 123.655C373.847 121.957 376.733 120.297 379.921 119.241C385.674 117.317 391.596 115.997 397.67 114.676Z" fill="#E09D64"/>
<path d="M421.531 162.944C427.604 162.264 433.338 158.322 439.28 158.492C445.354 158.681 451.201 160.925 457.086 161.944C463.065 162.981 468.365 165.773 474.043 167.64C479.777 169.526 485.285 171.299 490.66 173.959C496.074 176.637 501.204 179.372 506.146 182.786C511.107 186.201 516.2 189.256 520.632 193.33C525.046 197.405 531.629 199.687 535.439 204.365C536.533 205.704 537.571 207.138 538.57 208.59C539.438 207.685 540.475 206.798 541.532 206.138C541.626 206.006 541.72 205.855 541.833 205.761C541.965 205.629 542.116 205.515 542.267 205.402C542.569 204.912 542.871 204.497 543.229 204.252C545.342 202.705 548.039 202.686 550.453 201.932C550.906 201.8 551.944 201.158 553.094 200.517C553.113 200.46 553.132 200.385 553.17 200.347C554.264 199.178 555.452 197.895 556.867 197.103C557.885 196.537 558.394 195.707 558.941 194.839C556.772 191.199 554.603 187.521 551.906 184.409C547.888 179.806 541.777 176.92 537.25 172.846C532.723 168.753 526.876 166.32 521.877 162.811C516.898 159.303 512.333 155.191 506.938 152.305C501.582 149.419 496.715 145.1 491.019 142.874C489.038 142.101 486.963 141.573 484.832 141.158C482.776 148.42 480.003 155.531 478.589 162.906C478.476 163.547 477.495 163.396 477.608 162.755C478.419 157.775 480.135 152.984 481.003 148.042C481.437 145.59 481.814 143.138 482.21 140.667C479.098 140.139 475.948 139.705 472.949 138.932C467.083 137.423 460.802 138.328 454.709 137.536C448.711 136.763 442.845 136.404 436.696 136.367C430.66 136.329 424.737 135.933 418.588 136.612C412.439 137.31 405.95 135.65 400.084 137.027C394.086 138.442 389.276 143.497 383.599 145.59C383.127 145.76 382.675 145.93 382.203 146.1C382.712 147.684 383.146 149.344 383.316 150.909C383.712 154.229 385.523 157.813 387.032 160.756C387.918 162.472 388.729 164.283 389.503 166.112C394.03 164.924 398.896 164.471 403.461 163.302C409.176 161.774 415.457 163.623 421.531 162.944Z" fill="#E09D64"/>
<path d="M349.721 189.239C346.401 184.429 343.345 179.45 340.176 174.508C339.46 173.395 338.724 172.301 337.97 171.207C337.536 171.603 337.102 171.999 336.668 172.395C332.066 176.413 326.049 178.997 321.956 183.524C317.863 188.051 313.826 192.842 310.318 197.84C306.809 202.82 306.168 209.573 303.263 214.967C300.377 220.324 294.002 224.172 291.776 229.868C290.418 233.377 290.644 237.432 290.682 241.412C292.757 242.487 294.813 243.6 296.85 244.788C296.926 244.826 296.944 244.883 297.001 244.939C299.944 246.297 303.037 246.882 306.055 248.07C307.771 248.749 309.356 249.617 311.223 249.824C311.525 249.862 311.808 249.9 312.091 249.957C312.279 248.504 312.562 247.071 313.015 245.694C314.901 239.941 320.201 235.508 322.861 230.132C325.539 224.738 325.917 217.872 329.331 212.911C332.745 207.95 337.649 203.876 341.723 199.444C344.553 196.388 348.174 194.143 351.701 191.804C351.022 191.012 350.343 190.145 349.721 189.239Z" fill="#E09D64"/>
<path d="M350.192 160.057C346.344 162.66 343.194 166.112 339.893 169.375C340.176 169.903 340.44 170.45 340.648 170.903C340.912 171.299 341.176 171.695 341.402 172.091C341.478 172.223 341.497 172.374 341.459 172.506C341.855 173.223 342.251 173.939 342.666 174.637L342.685 174.656C342.798 174.675 342.892 174.713 343.006 174.807C344.1 175.958 344.854 177.353 345.552 178.806C346.401 180.126 347.268 181.447 348.193 182.729C348.362 182.729 348.551 182.805 348.664 182.993C348.985 183.578 349.343 184.163 349.72 184.729C350.003 185.087 350.286 185.426 350.588 185.785C350.664 185.898 350.701 185.973 350.701 186.087C351.758 187.539 352.908 188.916 354.021 190.312C354.794 189.765 355.549 189.199 356.285 188.595C360.925 184.804 364.282 179.013 369.469 175.901C374.6 172.827 380.07 169.695 385.653 167.356C386.049 167.187 386.464 167.055 386.86 166.904C386.049 164.961 385.276 163.037 384.446 161.094C383.163 158.114 381.56 155.417 380.032 152.569C379.183 150.965 378.429 149.343 377.712 147.702C374.015 149.06 370.375 150.494 366.847 152.305C361.34 155.134 355.209 156.662 350.192 160.057Z" fill="#E09D64"/>
</g>
<g clip-path="url(#clip1_114_381)">
<path d="M176.988 336.589C168.844 331.827 163.437 329.16 160.635 328.017C159.072 319.349 157.931 310.522 157.15 301.569C162.296 304.935 168.29 303.792 170.407 302.998C178.258 299.601 179.822 291.314 180.017 288.012C180.18 284.297 179.105 277.852 170.733 269.248C164.218 262.58 159.658 258.707 157.247 256.865C157.997 247.912 159.169 239.054 160.798 230.418C164.87 234.958 170.994 235.402 173.274 235.021C181.776 233.783 185.489 226.163 186.532 223.02C187.672 219.528 188.323 213.019 182.493 202.541C177.932 194.477 174.512 189.524 172.688 187.143C175.815 178.729 179.333 170.538 183.177 162.537C185.945 167.998 191.711 169.934 193.991 170.157C202.526 171.109 208.194 164.696 210.018 161.933C212.07 158.854 214.416 152.758 211.582 141.201C209.301 132.279 207.347 126.723 206.239 123.897C211.484 116.595 216.989 109.578 222.95 102.815C224.123 108.753 229.172 112.023 231.322 112.817C239.368 115.865 246.501 111.102 249.01 108.88C251.779 106.403 255.72 101.101 255.981 89.1947C256.176 80.019 255.785 74.1453 255.459 71.1608C262.398 65.4458 269.662 60.0166 277.154 54.9684C276.731 60.9691 280.77 65.4458 282.561 66.7476C289.532 71.7005 297.676 68.9066 300.705 67.4143C304.028 65.7316 309.24 61.6358 312.66 50.1742C315.364 41.2525 316.504 35.5058 316.96 32.5848C325.169 28.7431 333.638 25.3776 342.238 22.3614C340.186 28.1398 342.922 33.4738 344.355 35.22C349.73 41.7287 358.362 41.1255 361.685 40.3952C365.366 39.6332 371.457 36.9663 377.842 26.7746C382.793 18.8371 385.399 13.5667 386.669 10.8679C395.595 9.34394 404.618 8.20095 413.771 7.4707C410.318 12.4872 411.491 18.2974 412.371 20.3929C415.856 28.0446 424.358 29.5686 427.713 29.7591C431.492 29.8861 438.137 28.9018 446.997 20.7104C453.805 14.3287 457.779 9.88369 459.701 7.5342C468.855 8.26445 477.943 9.43919 486.836 10.9949C482.145 14.9637 481.722 20.9644 482.08 23.1551C483.35 31.4418 491.168 35.093 494.426 36.0455C497.976 37.1568 504.654 37.8235 515.404 32.1085C523.71 27.6636 528.759 24.3616 531.202 22.5836C539.835 25.6316 548.239 29.0288 556.447 32.8388C550.845 35.5058 548.858 41.1255 548.63 43.348C547.652 51.6982 554.232 57.1591 557.099 58.9689C560.291 61.0009 566.546 63.2868 578.403 60.5246C587.556 58.3021 593.257 56.3654 596.123 55.3176C603.648 60.4294 610.847 65.8268 617.785 71.5735C611.694 72.7165 608.306 77.6695 607.492 79.7332C604.365 87.5754 609.283 94.5286 611.563 96.9416C614.104 99.6721 619.544 103.482 631.76 103.768C641.206 103.99 647.2 103.609 650.262 103.26C656.125 110.023 661.696 117.103 666.875 124.437C660.718 123.992 656.093 127.929 654.757 129.707C649.676 136.502 652.575 144.408 654.073 147.392C655.8 150.631 660.034 155.71 671.761 159.044C680.947 161.711 686.843 162.791 689.84 163.235C693.749 171.236 697.202 179.523 700.329 187.873C694.4 185.873 688.928 188.54 687.104 189.937C680.426 195.144 681.045 203.589 681.794 206.764C682.576 210.352 685.279 216.289 695.768 222.512C703.912 227.37 709.319 229.878 712.121 231.116C713.684 239.816 714.857 248.579 715.606 257.532C710.46 254.167 704.466 255.31 702.349 256.199C694.498 259.596 692.934 267.819 692.739 271.121C692.576 274.836 693.619 281.281 702.023 289.822C708.57 296.521 713.098 300.363 715.509 302.268C714.792 311.253 713.587 320.079 711.958 328.715C707.886 324.08 701.73 323.699 699.482 324.08C690.98 325.318 687.267 332.97 686.224 336.081C685.084 339.605 684.4 346.114 690.231 356.591C694.791 364.688 698.212 369.577 700.003 371.99C696.876 380.436 693.391 388.563 689.482 396.628C686.745 391.072 680.98 389.167 678.667 388.913C670.1 387.992 664.497 394.405 662.64 397.199C660.588 400.311 658.243 406.439 661.077 417.964C663.357 426.949 665.311 432.537 666.419 435.331C661.174 442.57 655.637 449.714 649.708 456.413C648.535 450.444 643.454 447.142 641.337 446.412C633.291 443.268 626.157 448.094 623.681 450.317C620.912 452.73 616.971 458.032 616.71 469.97C616.482 479.082 616.873 484.988 617.231 487.877C610.293 493.719 603.029 499.053 595.537 504.133C595.96 498.164 591.921 493.655 590.129 492.29C583.159 487.274 575.015 490.099 571.986 491.719C568.663 493.401 563.451 497.434 560.031 508.959C557.294 517.785 556.187 523.627 555.731 526.58C547.522 530.358 539.02 533.787 530.42 536.676C532.473 531.025 529.769 525.532 528.336 523.849C522.961 517.277 514.329 517.976 511.039 518.674C507.358 519.404 501.266 522.135 494.882 532.231C489.898 540.201 487.292 545.439 486.054 548.17C477.129 549.789 468.106 550.932 458.952 551.535C462.405 546.519 461.232 540.74 460.353 538.772C456.867 531.057 448.365 529.437 445.01 529.374C441.232 529.183 434.586 530.136 425.759 538.391C418.951 544.804 414.977 549.249 413.055 551.503C403.901 550.805 394.813 549.662 385.92 548.074C390.611 544.074 391.034 538.2 390.709 535.978C389.438 527.659 381.588 523.913 378.33 522.992C374.78 521.881 368.134 521.119 357.385 526.929C349.046 531.342 343.997 534.644 341.554 536.454C332.921 533.343 324.517 529.945 316.309 526.104C321.879 523.532 323.898 517.849 324.126 515.626C325.071 507.276 318.524 501.783 315.657 500.037C312.497 498.037 306.21 495.656 294.353 498.481C285.2 500.64 279.532 502.672 276.633 503.752C269.108 498.64 261.909 493.243 254.971 487.464C261.062 486.289 264.45 481.336 265.264 479.273C268.391 471.43 263.473 464.541 261.193 462.096C258.652 459.366 253.212 455.524 241.029 455.27C231.582 455.048 225.589 455.46 222.527 455.841C216.663 449.079 211.093 441.967 205.914 434.664C212.07 435.077 216.696 431.14 218.031 429.33C223.113 422.631 220.246 414.662 218.748 411.646C217.022 408.471 212.754 403.359 201.06 399.993C191.907 397.39 186.011 396.279 182.981 395.834C179.072 387.77 175.619 379.547 172.492 371.101C178.421 373.197 183.893 370.593 185.718 369.164C192.395 363.989 191.776 355.575 191.027 352.305C190.148 348.781 187.444 342.812 176.988 336.589Z" fill="#E09D64"/>
<mask id="mask0_114_381" style="mask-type:alpha" maskUnits="userSpaceOnUse" x="156" y="7" width="560" height="546">
<path d="M458.106 552.108L458.921 552.045C467.879 551.441 477 550.298 486.055 548.679L486.251 548.648L486.348 548.457C487.717 545.441 490.355 540.266 495.144 532.55C501.235 522.898 507.131 519.946 511.04 519.184C511.789 519.025 513.32 518.739 515.307 518.739C519.021 518.739 524.233 519.692 527.946 524.2C529.444 525.978 531.92 531.312 529.966 536.646L529.673 537.44L530.487 537.186C538.891 534.36 547.393 530.931 555.83 527.058L556.025 526.962L556.058 526.74C556.449 524.041 557.556 518.168 560.325 509.151C562.898 500.515 566.84 494.8 572.052 492.165C573.029 491.625 576.547 489.942 580.977 489.942C584.235 489.942 587.199 490.863 589.74 492.704C591.336 493.911 595.408 498.324 594.984 504.198L594.919 505.023L595.603 504.547C603.812 498.991 610.913 493.657 617.33 488.259L617.493 488.132L617.461 487.91C617.233 485.91 616.711 480.131 616.939 470.035C617.135 461.082 619.513 454.382 623.78 450.668C624.692 449.874 629.513 445.842 635.735 445.842C637.527 445.842 639.318 446.191 641.012 446.858C643.194 447.588 648.048 450.89 649.156 456.573L649.318 457.367L649.872 456.732C655.312 450.572 660.785 443.651 666.583 435.618L666.713 435.459L666.648 435.269C665.41 432.158 663.521 426.601 661.338 417.934C659.221 409.298 659.742 402.249 662.837 397.487C663.749 396.121 668.668 389.295 676.876 389.295C677.398 389.295 677.919 389.327 678.473 389.391C680.46 389.613 686.225 391.391 688.962 396.883L689.32 397.645L689.678 396.883C693.685 388.597 697.105 380.532 700.2 372.214L700.265 372.023L700.135 371.865C698.506 369.706 695.086 364.848 690.362 356.498C685.932 348.56 684.597 341.766 686.356 336.305C686.942 334.59 690.232 325.859 699.255 324.557C699.679 324.494 700.2 324.43 700.754 324.43C702.285 324.43 707.594 324.748 711.373 329.034L711.927 329.669L712.089 328.844C713.751 320.081 714.956 311.159 715.64 302.364L715.673 302.142L715.51 302.015C712.839 299.92 708.343 296.046 702.057 289.601C695.705 283.156 692.61 276.965 692.871 271.186C692.968 269.376 693.913 260.201 702.219 256.613C703.262 256.168 705.151 255.692 707.399 255.692C709.386 255.692 712.317 256.073 715.086 257.883L715.998 258.423L715.933 257.597C715.184 248.707 714.011 240.071 712.415 231.15L712.383 230.959L712.187 230.864C707.334 228.705 701.861 225.847 695.9 222.291C687.984 217.592 683.326 212.385 682.121 206.797C681.86 205.718 679.873 196.161 687.268 190.351C688.571 189.335 691.828 187.652 695.835 187.652C697.301 187.652 698.734 187.875 700.102 188.351L700.916 188.637L700.623 187.843C697.17 178.604 693.717 170.507 690.134 163.173L690.037 162.983L689.809 162.951C684.857 162.189 678.636 160.76 671.795 158.76C662.935 156.252 657.071 152.41 654.368 147.33C653.227 145.044 649.84 136.98 655.019 130.058C656.159 128.566 660.622 124.534 666.778 124.978L667.625 125.042L667.137 124.375C662.023 117.136 656.42 110.024 650.524 103.166L650.393 103.007L650.165 103.039C648.309 103.23 644.139 103.579 637.136 103.579C635.474 103.579 633.65 103.547 631.696 103.515C622.542 103.325 615.669 101.007 611.793 96.848C610.555 95.5145 604.463 88.4343 607.819 80.0523C608.535 78.2426 611.76 73.2579 617.819 72.1149L618.666 71.9561L618.014 71.4164C611.206 65.7649 603.91 60.3039 596.32 55.1287L596.157 55.0017L595.962 55.0652C592.737 56.2717 587.036 58.145 578.306 60.2722C569.348 62.3677 562.149 61.8597 557.328 58.78C555.765 57.7957 548.012 52.43 549.054 43.5401C549.25 41.6033 551.041 36.0154 556.644 33.3484L557.393 32.9991L556.644 32.6499C548.403 28.8399 539.901 25.3792 531.366 22.3947L531.171 22.3312L531.008 22.4582C529.314 23.6647 524.395 27.0619 515.242 31.9514C507.164 36.2376 500.062 37.5711 494.59 35.8566C493.482 35.5391 483.905 32.4276 482.505 23.2837C482.212 21.474 482.407 15.4732 487.13 11.4728L487.782 10.933L486.935 10.7743C477.879 9.18678 468.726 8.01204 459.768 7.31355L459.54 7.2818L459.409 7.44054C457.813 9.40903 454.035 13.727 446.738 20.5532C440.321 26.4904 434.164 29.5066 428.366 29.5066C428.171 29.5066 427.975 29.5066 427.78 29.5066C425.923 29.4114 416.444 28.4272 412.795 20.3627C411.851 18.1085 410.906 12.5523 414.163 7.82154L414.652 7.12305L413.805 7.18655C404.749 7.91679 395.596 9.05978 386.671 10.6155L386.443 10.6473L386.345 10.8378C384.195 15.505 381.231 20.839 377.55 26.6809C372.729 34.4279 367.354 38.9363 361.653 40.1428C360.937 40.3016 359.438 40.5556 357.484 40.5556C353.738 40.5556 348.493 39.6031 344.747 35.0946C343.477 33.5706 340.675 28.3637 342.695 22.6169L342.988 21.8232L342.174 22.1089C332.858 25.3792 324.551 28.7447 316.864 32.3324L316.668 32.4276L316.636 32.6499C316.245 35.2534 315.137 41.0001 312.336 50.1758C309.762 58.8117 305.821 64.5267 300.576 67.1936C299.273 67.8286 295.82 69.2891 291.651 69.2891C288.361 69.2891 285.397 68.3684 282.856 66.5587C281.26 65.4157 277.188 61.0659 277.611 55.097L277.676 54.2715L276.992 54.7477C269.533 59.7642 262.236 65.2252 255.265 70.9719L255.102 71.0989L255.135 71.3211C255.428 73.8929 255.884 79.6713 255.656 89.2915C255.428 98.2767 253.115 104.817 248.815 108.691C247.903 109.484 243.05 113.517 236.763 113.517C235.004 113.517 233.245 113.199 231.551 112.564C229.694 111.866 224.613 108.786 223.44 102.849L223.277 102.055L222.723 102.69C216.827 109.389 211.387 116.279 206.013 123.804L205.882 123.962V124.058C206.86 126.534 208.879 132.09 211.192 141.298C213.342 150.092 212.821 156.95 209.694 161.745C208.781 163.11 203.895 169.904 195.719 169.904C195.165 169.904 194.612 169.872 194.025 169.809C192.201 169.65 186.338 167.936 183.536 162.411L183.178 161.681L182.82 162.411C178.943 170.412 175.425 178.699 172.298 187.081L172.233 187.271L172.363 187.43C173.601 189.018 176.989 193.717 182.136 202.765C186.566 210.734 187.901 217.497 186.142 222.926C185.556 224.641 182.266 233.372 173.21 234.674C172.819 234.737 172.331 234.769 171.809 234.769C170.278 234.769 164.936 234.452 161.092 230.197L160.539 229.594L160.376 230.388C158.747 239.024 157.542 247.945 156.825 256.867L156.793 257.089L156.956 257.216C158.552 258.423 163.047 262.074 170.409 269.567C176.761 276.076 179.855 282.267 179.595 288.013C179.497 289.823 178.552 299.062 170.213 302.65C169.171 303.031 167.282 303.476 165.099 303.476C162.167 303.476 159.561 302.745 157.346 301.253L156.63 300.777L156.695 301.602C157.477 310.588 158.649 319.509 160.213 328.082L160.278 328.336L160.474 328.431C162.2 329.129 167.216 331.352 176.761 336.972C184.644 341.671 189.302 346.878 190.54 352.497C190.8 353.577 192.787 363.229 185.36 368.944C184.22 369.864 180.995 371.579 177.021 371.579C175.49 371.579 173.992 371.325 172.559 370.817L171.744 370.531L172.037 371.325C175.328 380.247 178.78 388.343 182.526 396.09L182.624 396.28L182.852 396.312C185.556 396.725 191.452 397.772 200.866 400.471C209.563 402.979 215.622 406.916 218.326 411.933C219.466 414.251 222.854 422.347 217.642 429.205C216.599 430.634 212.137 434.793 205.882 434.38L205.035 434.316L205.524 434.983C210.736 442.349 216.339 449.493 222.17 456.192L222.3 456.351L222.528 456.319C224.417 456.097 228.652 455.684 235.851 455.684C237.447 455.684 239.141 455.716 240.965 455.748C250.086 455.97 256.959 458.288 260.835 462.447C262.073 463.78 268.132 470.924 264.81 479.211C264.093 481.02 260.868 485.973 254.809 487.148L253.995 487.307L254.646 487.847C261.487 493.53 268.588 498.896 276.341 504.166L276.504 504.293L276.699 504.23C280.087 502.96 285.625 501.055 294.355 498.991C303.247 496.864 310.446 497.403 315.333 500.515C316.31 501.086 324.681 506.452 323.606 515.723C323.411 517.533 321.554 523.343 316.017 525.883L315.235 526.232L316.017 526.581C323.997 530.328 332.271 533.725 341.294 536.932L341.49 536.995L341.653 536.868C343.249 535.694 347.94 532.423 357.419 527.375C365.432 523.025 372.468 521.692 378.071 523.47C382.012 524.581 388.983 528.518 390.156 536.138C390.449 538.043 390.221 543.885 385.531 547.885L384.879 548.425L385.726 548.584C394.814 550.203 403.968 551.346 412.893 552.013H413.121L413.251 551.854C415.499 549.219 419.506 544.806 425.923 538.773C432.275 532.868 438.366 529.852 444.099 529.852C444.393 529.852 444.653 529.852 444.914 529.883C448.986 529.947 456.706 531.947 459.898 539.059C460.68 540.805 461.983 546.425 458.53 551.441L458.106 552.108ZM444.132 529.09C438.203 529.09 431.917 532.169 425.402 538.234C419.082 544.171 415.076 548.552 412.795 551.219C404.228 550.584 395.466 549.473 386.736 547.949C391.133 543.758 391.361 537.98 391.036 536.043C389.798 528.042 382.501 523.914 378.397 522.74C372.631 520.898 365.334 522.263 357.126 526.708C347.907 531.598 343.184 534.836 341.425 536.138C332.792 533.027 324.844 529.788 317.189 526.232C322.531 523.375 324.291 517.818 324.486 515.818C325.594 506.071 316.831 500.451 315.821 499.848C310.74 496.641 303.313 496.07 294.192 498.229C285.592 500.261 280.087 502.166 276.634 503.436C269.207 498.356 262.366 493.244 255.786 487.783C261.715 486.291 264.842 481.37 265.591 479.528C269.077 470.797 262.757 463.336 261.454 461.939C257.35 457.526 250.477 455.176 240.998 454.986C239.141 454.954 237.447 454.922 235.851 454.922C228.88 454.922 224.645 455.303 222.658 455.525C217.088 449.08 211.713 442.254 206.664 435.174C206.697 435.174 206.729 435.174 206.762 435.174C212.918 435.174 217.186 431.173 218.293 429.649C223.733 422.474 220.248 413.997 219.042 411.552C216.176 406.281 210.15 402.281 201.094 399.709C191.875 397.074 185.979 395.994 183.178 395.55C179.562 388.089 176.272 380.31 173.08 371.801C174.35 372.182 175.686 372.341 177.021 372.341C181.223 372.341 184.579 370.563 185.882 369.515C193.667 363.483 191.582 353.386 191.322 352.275C190.019 346.433 185.263 341.067 177.184 336.241C167.933 330.812 162.884 328.526 160.995 327.732C159.529 319.477 158.389 310.937 157.607 302.301C159.789 303.571 162.395 304.206 165.132 304.206C167.412 304.206 169.432 303.761 170.539 303.317C179.302 299.539 180.311 289.887 180.409 287.982C180.67 282.013 177.51 275.599 170.995 268.932C163.861 261.661 159.399 257.978 157.64 256.645C158.356 248.072 159.496 239.531 161.027 231.245C165.001 235.182 170.213 235.499 171.777 235.499C172.363 235.499 172.884 235.468 173.308 235.404C182.82 234.039 186.273 224.927 186.891 223.117C188.748 217.497 187.38 210.48 182.82 202.321C177.836 193.526 174.481 188.827 173.145 187.049C176.142 179.016 179.53 171.079 183.211 163.364C185.979 168.063 191.191 170.222 193.96 170.476C194.546 170.539 195.133 170.571 195.719 170.571C204.319 170.571 209.433 163.491 210.378 162.062C213.668 157.109 214.189 150.029 212.006 141.012C209.726 131.995 207.739 126.471 206.729 123.867C211.876 116.66 217.121 110.024 222.756 103.611C224.287 109.357 229.303 112.405 231.193 113.136C232.952 113.802 234.808 114.152 236.698 114.152C243.278 114.152 248.359 109.961 249.304 109.103C253.799 105.071 256.21 98.3719 256.438 89.1328C256.666 79.7348 256.242 73.9564 255.949 71.2576C262.627 65.7649 269.631 60.5262 276.797 55.6685C276.732 61.5739 280.771 65.8284 282.4 67.0032C285.103 68.9081 288.231 69.8924 291.683 69.8924C296.016 69.8924 299.632 68.3684 300.967 67.7016C306.407 64.9712 310.479 59.0657 313.117 50.2075C315.854 41.2223 316.961 35.5074 317.385 32.7769C324.812 29.3161 332.76 26.0777 341.653 22.9344C339.991 28.6812 342.793 33.8246 344.063 35.3804C350.057 42.6193 359.601 41.1906 361.784 40.7143C367.712 39.4761 373.217 34.8406 378.201 26.9032C381.85 21.093 384.781 15.7907 386.964 11.1553C395.563 9.69478 404.293 8.58354 413.023 7.85329C410.092 12.711 411.069 18.172 412.046 20.458C415.89 28.9352 425.793 29.9511 427.747 30.0781C427.975 30.0781 428.17 30.0781 428.398 30.0781C434.392 30.0781 440.777 26.9984 447.324 20.9025C454.458 14.235 458.237 9.91703 459.931 7.85329C468.53 8.55179 477.293 9.66303 485.99 11.1553C481.593 15.378 481.397 21.3152 481.723 23.1567C483.189 32.7769 493.222 36.0154 494.362 36.3646C500.062 38.1743 507.359 36.8091 515.633 32.3959C524.558 27.6334 529.477 24.2997 531.334 22.9979C539.543 25.8872 547.686 29.1892 555.602 32.8086C550.227 35.7614 548.501 41.2858 548.273 43.2543C547.198 52.6205 555.276 58.2085 556.905 59.2562C561.921 62.4312 569.348 63.0027 578.534 60.8437C587.166 58.7482 592.802 56.9067 596.092 55.7002C603.356 60.6532 610.359 65.9237 616.939 71.3211C611.043 72.7816 607.884 77.7028 607.135 79.5761C603.617 88.4025 609.969 95.8002 611.272 97.1972C615.343 101.579 622.249 103.928 631.761 104.15C633.715 104.182 635.539 104.214 637.201 104.214C643.976 104.214 648.113 103.896 650.1 103.674C655.768 110.215 661.143 117.073 666.062 123.994C666.029 123.994 665.964 123.994 665.931 123.994C659.905 123.994 655.605 127.931 654.433 129.455C648.96 136.757 652.511 145.171 653.716 147.552C656.55 152.823 662.576 156.823 671.665 159.395C678.44 161.364 684.629 162.792 689.581 163.554C693.033 170.634 696.356 178.381 699.679 187.208C698.473 186.89 697.203 186.7 695.933 186.7C691.698 186.7 688.245 188.51 686.877 189.589C679.059 195.685 681.176 205.686 681.437 206.829C682.707 212.639 687.463 218.005 695.607 222.831C701.503 226.355 706.943 229.213 711.796 231.372C713.327 239.912 714.435 248.231 715.184 256.74C713.002 255.502 710.461 254.835 707.757 254.835C705.379 254.835 703.36 255.343 702.252 255.819C693.489 259.597 692.512 269.186 692.415 271.059C692.154 277.06 695.314 283.441 701.829 290.077C708.018 296.427 712.48 300.269 715.184 302.428C714.5 310.873 713.36 319.414 711.796 327.828C707.855 323.859 702.675 323.541 701.112 323.541C700.493 323.541 699.939 323.573 699.483 323.668C689.971 325.034 686.519 334.146 685.932 335.956C684.075 341.607 685.444 348.624 689.971 356.752C694.597 364.911 697.985 369.769 699.646 372.023C696.682 379.993 693.392 387.771 689.581 395.709C686.551 390.47 680.851 388.724 678.831 388.502C678.277 388.438 677.691 388.406 677.137 388.406C668.505 388.406 663.358 395.518 662.413 396.947C659.123 401.932 658.57 409.044 660.785 417.997C662.935 426.506 664.824 432.03 666.062 435.205C660.492 442.889 655.247 449.556 650.035 455.494C648.504 449.525 643.325 446.572 641.566 445.969C639.774 445.27 637.917 444.921 635.996 444.921C629.644 444.921 624.823 448.794 623.487 449.969C619.057 453.843 616.581 460.764 616.353 469.908C616.125 479.719 616.614 485.465 616.842 487.656C610.653 492.863 603.812 497.975 595.994 503.309C596.027 497.721 592.411 493.466 590.391 491.942C587.688 490.006 584.56 489.021 581.108 489.021C576.482 489.021 572.801 490.768 571.791 491.339C566.351 494.07 562.28 499.943 559.641 508.802C556.905 517.628 555.797 523.47 555.374 526.264C547.295 529.979 539.119 533.249 531.073 536.011C532.8 530.201 529.868 524.994 528.663 523.565C524.754 518.803 519.281 517.818 515.405 517.818C513.353 517.818 511.724 518.104 510.975 518.263C506.936 519.057 500.812 522.105 494.557 532.011C489.834 539.599 487.195 544.774 485.795 547.822C477.13 549.378 468.367 550.489 459.768 551.092C462.862 545.98 461.559 540.424 460.745 538.646C457.39 531.185 449.311 529.09 445.044 528.994C444.718 529.121 444.425 529.09 444.132 529.09Z" fill="url(#paint0_linear_114_381)"/>
</mask>
<g mask="url(#mask0_114_381)">
<path d="M458.106 552.108L458.921 552.045C467.879 551.441 477 550.298 486.055 548.679L486.251 548.648L486.348 548.457C487.717 545.441 490.355 540.266 495.144 532.55C501.235 522.898 507.131 519.946 511.04 519.184C511.789 519.025 513.32 518.739 515.307 518.739C519.021 518.739 524.233 519.692 527.946 524.2C529.444 525.978 531.92 531.312 529.966 536.646L529.673 537.44L530.487 537.186C538.891 534.36 547.393 530.931 555.83 527.058L556.025 526.962L556.058 526.74C556.449 524.041 557.556 518.168 560.325 509.151C562.898 500.515 566.84 494.8 572.052 492.165C573.029 491.625 576.547 489.942 580.977 489.942C584.235 489.942 587.199 490.863 589.74 492.704C591.336 493.911 595.408 498.324 594.984 504.198L594.919 505.023L595.603 504.547C603.812 498.991 610.913 493.657 617.33 488.259L617.493 488.132L617.461 487.91C617.233 485.91 616.711 480.131 616.939 470.035C617.135 461.082 619.513 454.382 623.78 450.668C624.692 449.874 629.513 445.842 635.735 445.842C637.527 445.842 639.318 446.191 641.012 446.858C643.194 447.588 648.048 450.89 649.156 456.573L649.318 457.367L649.872 456.732C655.312 450.572 660.785 443.651 666.583 435.618L666.713 435.459L666.648 435.269C665.41 432.158 663.521 426.601 661.338 417.934C659.221 409.298 659.742 402.249 662.837 397.487C663.749 396.121 668.668 389.295 676.876 389.295C677.398 389.295 677.919 389.327 678.473 389.391C680.46 389.613 686.225 391.391 688.962 396.883L689.32 397.645L689.678 396.883C693.685 388.597 697.105 380.532 700.2 372.214L700.265 372.023L700.135 371.865C698.506 369.706 695.086 364.848 690.362 356.498C685.932 348.56 684.597 341.766 686.356 336.305C686.942 334.59 690.232 325.859 699.255 324.557C699.679 324.494 700.2 324.43 700.754 324.43C702.285 324.43 707.594 324.748 711.373 329.034L711.927 329.669L712.089 328.844C713.751 320.081 714.956 311.159 715.64 302.364L715.673 302.142L715.51 302.015C712.839 299.92 708.343 296.046 702.057 289.601C695.705 283.156 692.61 276.965 692.871 271.186C692.968 269.376 693.913 260.201 702.219 256.613C703.262 256.168 705.151 255.692 707.399 255.692C709.386 255.692 712.317 256.073 715.086 257.883L715.998 258.423L715.933 257.597C715.184 248.707 714.011 240.071 712.415 231.15L712.383 230.959L712.187 230.864C707.334 228.705 701.861 225.847 695.9 222.291C687.984 217.592 683.326 212.385 682.121 206.797C681.86 205.718 679.873 196.161 687.268 190.351C688.571 189.335 691.828 187.652 695.835 187.652C697.301 187.652 698.734 187.875 700.102 188.351L700.916 188.637L700.623 187.843C697.17 178.604 693.717 170.507 690.134 163.173L690.037 162.983L689.809 162.951C684.857 162.189 678.636 160.76 671.795 158.76C662.935 156.252 657.071 152.41 654.368 147.33C653.227 145.044 649.84 136.98 655.019 130.058C656.159 128.566 660.622 124.534 666.778 124.978L667.625 125.042L667.137 124.375C662.023 117.136 656.42 110.024 650.524 103.166L650.393 103.007L650.165 103.039C648.309 103.23 644.139 103.579 637.136 103.579C635.474 103.579 633.65 103.547 631.696 103.515C622.542 103.325 615.669 101.007 611.793 96.848C610.555 95.5145 604.463 88.4343 607.819 80.0523C608.535 78.2426 611.76 73.2579 617.819 72.1149L618.666 71.9561L618.014 71.4164C611.206 65.7649 603.91 60.3039 596.32 55.1287L596.157 55.0017L595.962 55.0652C592.737 56.2717 587.036 58.145 578.306 60.2722C569.348 62.3677 562.149 61.8597 557.328 58.78C555.765 57.7957 548.012 52.43 549.054 43.5401C549.25 41.6033 551.041 36.0154 556.644 33.3484L557.393 32.9991L556.644 32.6499C548.403 28.8399 539.901 25.3792 531.366 22.3947L531.171 22.3312L531.008 22.4582C529.314 23.6647 524.395 27.0619 515.242 31.9514C507.164 36.2376 500.062 37.5711 494.59 35.8566C493.482 35.5391 483.905 32.4276 482.505 23.2837C482.212 21.474 482.407 15.4732 487.13 11.4728L487.782 10.933L486.935 10.7743C477.879 9.18678 468.726 8.01204 459.768 7.31355L459.54 7.2818L459.409 7.44054C457.813 9.40903 454.035 13.727 446.738 20.5532C440.321 26.4904 434.164 29.5066 428.366 29.5066C428.171 29.5066 427.975 29.5066 427.78 29.5066C425.923 29.4114 416.444 28.4272 412.795 20.3627C411.851 18.1085 410.906 12.5523 414.163 7.82154L414.652 7.12305L413.805 7.18655C404.749 7.91679 395.596 9.05978 386.671 10.6155L386.443 10.6473L386.345 10.8378C384.195 15.505 381.231 20.839 377.55 26.6809C372.729 34.4279 367.354 38.9363 361.653 40.1428C360.937 40.3016 359.438 40.5556 357.484 40.5556C353.738 40.5556 348.493 39.6031 344.747 35.0946C343.477 33.5706 340.675 28.3637 342.695 22.6169L342.988 21.8232L342.174 22.1089C332.858 25.3792 324.551 28.7447 316.864 32.3324L316.668 32.4276L316.636 32.6499C316.245 35.2534 315.137 41.0001 312.336 50.1758C309.762 58.8117 305.821 64.5267 300.576 67.1936C299.273 67.8286 295.82 69.2891 291.651 69.2891C288.361 69.2891 285.397 68.3684 282.856 66.5587C281.26 65.4157 277.188 61.0659 277.611 55.097L277.676 54.2715L276.992 54.7477C269.533 59.7642 262.236 65.2252 255.265 70.9719L255.102 71.0989L255.135 71.3211C255.428 73.8929 255.884 79.6713 255.656 89.2915C255.428 98.2767 253.115 104.817 248.815 108.691C247.903 109.484 243.05 113.517 236.763 113.517C235.004 113.517 233.245 113.199 231.551 112.564C229.694 111.866 224.613 108.786 223.44 102.849L223.277 102.055L222.723 102.69C216.827 109.389 211.387 116.279 206.013 123.804L205.882 123.962V124.058C206.86 126.534 208.879 132.09 211.192 141.298C213.342 150.092 212.821 156.95 209.694 161.745C208.781 163.11 203.895 169.904 195.719 169.904C195.165 169.904 194.612 169.872 194.025 169.809C192.201 169.65 186.338 167.936 183.536 162.411L183.178 161.681L182.82 162.411C178.943 170.412 175.425 178.699 172.298 187.081L172.233 187.271L172.363 187.43C173.601 189.018 176.989 193.717 182.136 202.765C186.566 210.734 187.901 217.497 186.142 222.926C185.556 224.641 182.266 233.372 173.21 234.674C172.819 234.737 172.331 234.769 171.809 234.769C170.278 234.769 164.936 234.452 161.092 230.197L160.539 229.594L160.376 230.388C158.747 239.024 157.542 247.945 156.825 256.867L156.793 257.089L156.956 257.216C158.552 258.423 163.047 262.074 170.409 269.567C176.761 276.076 179.855 282.267 179.595 288.013C179.497 289.823 178.552 299.062 170.213 302.65C169.171 303.031 167.282 303.476 165.099 303.476C162.167 303.476 159.561 302.745 157.346 301.253L156.63 300.777L156.695 301.602C157.477 310.588 158.649 319.509 160.213 328.082L160.278 328.336L160.474 328.431C162.2 329.129 167.216 331.352 176.761 336.972C184.644 341.671 189.302 346.878 190.54 352.497C190.8 353.577 192.787 363.229 185.36 368.944C184.22 369.864 180.995 371.579 177.021 371.579C175.49 371.579 173.992 371.325 172.559 370.817L171.744 370.531L172.037 371.325C175.328 380.247 178.78 388.343 182.526 396.09L182.624 396.28L182.852 396.312C185.556 396.725 191.452 397.772 200.866 400.471C209.563 402.979 215.622 406.916 218.326 411.933C219.466 414.251 222.854 422.347 217.642 429.205C216.599 430.634 212.137 434.793 205.882 434.38L205.035 434.316L205.524 434.983C210.736 442.349 216.339 449.493 222.17 456.192L222.3 456.351L222.528 456.319C224.417 456.097 228.652 455.684 235.851 455.684C237.447 455.684 239.141 455.716 240.965 455.748C250.086 455.97 256.959 458.288 260.835 462.447C262.073 463.78 268.132 470.924 264.81 479.211C264.093 481.02 260.868 485.973 254.809 487.148L253.995 487.307L254.646 487.847C261.487 493.53 268.588 498.896 276.341 504.166L276.504 504.293L276.699 504.23C280.087 502.96 285.625 501.055 294.355 498.991C303.247 496.864 310.446 497.403 315.333 500.515C316.31 501.086 324.681 506.452 323.606 515.723C323.411 517.533 321.554 523.343 316.017 525.883L315.235 526.232L316.017 526.581C323.997 530.328 332.271 533.725 341.294 536.932L341.49 536.995L341.653 536.868C343.249 535.694 347.94 532.423 357.419 527.375C365.432 523.025 372.468 521.692 378.071 523.47C382.012 524.581 388.983 528.518 390.156 536.138C390.449 538.043 390.221 543.885 385.531 547.885L384.879 548.425L385.726 548.584C394.814 550.203 403.968 551.346 412.893 552.013H413.121L413.251 551.854C415.499 549.219 419.506 544.806 425.923 538.773C432.275 532.868 438.366 529.852 444.099 529.852C444.393 529.852 444.653 529.852 444.914 529.883C448.986 529.947 456.706 531.947 459.898 539.059C460.68 540.805 461.983 546.425 458.53 551.441L458.106 552.108ZM444.132 529.09C438.203 529.09 431.917 532.169 425.402 538.234C419.082 544.171 415.076 548.552 412.795 551.219C404.228 550.584 395.466 549.473 386.736 547.949C391.133 543.758 391.361 537.98 391.036 536.043C389.798 528.042 382.501 523.914 378.397 522.74C372.631 520.898 365.334 522.263 357.126 526.708C347.907 531.598 343.184 534.836 341.425 536.138C332.792 533.027 324.844 529.788 317.189 526.232C322.531 523.375 324.291 517.818 324.486 515.818C325.594 506.071 316.831 500.451 315.821 499.848C310.74 496.641 303.313 496.07 294.192 498.229C285.592 500.261 280.087 502.166 276.634 503.436C269.207 498.356 262.366 493.244 255.786 487.783C261.715 486.291 264.842 481.37 265.591 479.528C269.077 470.797 262.757 463.336 261.454 461.939C257.35 457.526 250.477 455.176 240.998 454.986C239.141 454.954 237.447 454.922 235.851 454.922C228.88 454.922 224.645 455.303 222.658 455.525C217.088 449.08 211.713 442.254 206.664 435.174C206.697 435.174 206.729 435.174 206.762 435.174C212.918 435.174 217.186 431.173 218.293 429.649C223.733 422.474 220.248 413.997 219.042 411.552C216.176 406.281 210.15 402.281 201.094 399.709C191.875 397.074 185.979 395.994 183.178 395.55C179.562 388.089 176.272 380.31 173.08 371.801C174.35 372.182 175.686 372.341 177.021 372.341C181.223 372.341 184.579 370.563 185.882 369.515C193.667 363.483 191.582 353.386 191.322 352.275C190.019 346.433 185.263 341.067 177.184 336.241C167.933 330.812 162.884 328.526 160.995 327.732C159.529 319.477 158.389 310.937 157.607 302.301C159.789 303.571 162.395 304.206 165.132 304.206C167.412 304.206 169.432 303.761 170.539 303.317C179.302 299.539 180.311 289.887 180.409 287.982C180.67 282.013 177.51 275.599 170.995 268.932C163.861 261.661 159.399 257.978 157.64 256.645C158.356 248.072 159.496 239.531 161.027 231.245C165.001 235.182 170.213 235.499 171.777 235.499C172.363 235.499 172.884 235.468 173.308 235.404C182.82 234.039 186.273 224.927 186.891 223.117C188.748 217.497 187.38 210.48 182.82 202.321C177.836 193.526 174.481 188.827 173.145 187.049C176.142 179.016 179.53 171.079 183.211 163.364C185.979 168.063 191.191 170.222 193.96 170.476C194.546 170.539 195.133 170.571 195.719 170.571C204.319 170.571 209.433 163.491 210.378 162.062C213.668 157.109 214.189 150.029 212.006 141.012C209.726 131.995 207.739 126.471 206.729 123.867C211.876 116.66 217.121 110.024 222.756 103.611C224.287 109.357 229.303 112.405 231.193 113.136C232.952 113.802 234.808 114.152 236.698 114.152C243.278 114.152 248.359 109.961 249.304 109.103C253.799 105.071 256.21 98.3719 256.438 89.1328C256.666 79.7348 256.242 73.9564 255.949 71.2576C262.627 65.7649 269.631 60.5262 276.797 55.6685C276.732 61.5739 280.771 65.8284 282.4 67.0032C285.103 68.9081 288.231 69.8924 291.683 69.8924C296.016 69.8924 299.632 68.3684 300.967 67.7016C306.407 64.9712 310.479 59.0657 313.117 50.2075C315.854 41.2223 316.961 35.5074 317.385 32.7769C324.812 29.3161 332.76 26.0777 341.653 22.9344C339.991 28.6812 342.793 33.8246 344.063 35.3804C350.057 42.6193 359.601 41.1906 361.784 40.7143C367.712 39.4761 373.217 34.8406 378.201 26.9032C381.85 21.093 384.781 15.7907 386.964 11.1553C395.563 9.69478 404.293 8.58354 413.023 7.85329C410.092 12.711 411.069 18.172 412.046 20.458C415.89 28.9352 425.793 29.9511 427.747 30.0781C427.975 30.0781 428.17 30.0781 428.398 30.0781C434.392 30.0781 440.777 26.9984 447.324 20.9025C454.458 14.235 458.237 9.91703 459.931 7.85329C468.53 8.55179 477.293 9.66303 485.99 11.1553C481.593 15.378 481.397 21.3152 481.723 23.1567C483.189 32.7769 493.222 36.0154 494.362 36.3646C500.062 38.1743 507.359 36.8091 515.633 32.3959C524.558 27.6334 529.477 24.2997 531.334 22.9979C539.543 25.8872 547.686 29.1892 555.602 32.8086C550.227 35.7614 548.501 41.2858 548.273 43.2543C547.198 52.6205 555.276 58.2085 556.905 59.2562C561.921 62.4312 569.348 63.0027 578.534 60.8437C587.166 58.7482 592.802 56.9067 596.092 55.7002C603.356 60.6532 610.359 65.9237 616.939 71.3211C611.043 72.7816 607.884 77.7028 607.135 79.5761C603.617 88.4025 609.969 95.8002 611.272 97.1972C615.343 101.579 622.249 103.928 631.761 104.15C633.715 104.182 635.539 104.214 637.201 104.214C643.976 104.214 648.113 103.896 650.1 103.674C655.768 110.215 661.143 117.073 666.062 123.994C666.029 123.994 665.964 123.994 665.931 123.994C659.905 123.994 655.605 127.931 654.433 129.455C648.96 136.757 652.511 145.171 653.716 147.552C656.55 152.823 662.576 156.823 671.665 159.395C678.44 161.364 684.629 162.792 689.581 163.554C693.033 170.634 696.356 178.381 699.679 187.208C698.473 186.89 697.203 186.7 695.933 186.7C691.698 186.7 688.245 188.51 686.877 189.589C679.059 195.685 681.176 205.686 681.437 206.829C682.707 212.639 687.463 218.005 695.607 222.831C701.503 226.355 706.943 229.213 711.796 231.372C713.327 239.912 714.435 248.231 715.184 256.74C713.002 255.502 710.461 254.835 707.757 254.835C705.379 254.835 703.36 255.343 702.252 255.819C693.489 259.597 692.512 269.186 692.415 271.059C692.154 277.06 695.314 283.441 701.829 290.077C708.018 296.427 712.48 300.269 715.184 302.428C714.5 310.873 713.36 319.414 711.796 327.828C707.855 323.859 702.675 323.541 701.112 323.541C700.493 323.541 699.939 323.573 699.483 323.668C689.971 325.034 686.519 334.146 685.932 335.956C684.075 341.607 685.444 348.624 689.971 356.752C694.597 364.911 697.985 369.769 699.646 372.023C696.682 379.993 693.392 387.771 689.581 395.709C686.551 390.47 680.851 388.724 678.831 388.502C678.277 388.438 677.691 388.406 677.137 388.406C668.505 388.406 663.358 395.518 662.413 396.947C659.123 401.932 658.57 409.044 660.785 417.997C662.935 426.506 664.824 432.03 666.062 435.205C660.492 442.889 655.247 449.556 650.035 455.494C648.504 449.525 643.325 446.572 641.566 445.969C639.774 445.27 637.917 444.921 635.996 444.921C629.644 444.921 624.823 448.794 623.487 449.969C619.057 453.843 616.581 460.764 616.353 469.908C616.125 479.719 616.614 485.465 616.842 487.656C610.653 492.863 603.812 497.975 595.994 503.309C596.027 497.721 592.411 493.466 590.391 491.942C587.688 490.006 584.56 489.021 581.108 489.021C576.482 489.021 572.801 490.768 571.791 491.339C566.351 494.07 562.28 499.943 559.641 508.802C556.905 517.628 555.797 523.47 555.374 526.264C547.295 529.979 539.119 533.249 531.073 536.011C532.8 530.201 529.868 524.994 528.663 523.565C524.754 518.803 519.281 517.818 515.405 517.818C513.353 517.818 511.724 518.104 510.975 518.263C506.936 519.057 500.812 522.105 494.557 532.011C489.834 539.599 487.195 544.774 485.795 547.822C477.13 549.378 468.367 550.489 459.768 551.092C462.862 545.98 461.559 540.424 460.745 538.646C457.39 531.185 449.311 529.09 445.044 528.994C444.718 529.121 444.425 529.09 444.132 529.09Z" fill="#E09D64"/>
</g>
<circle cx="438.067" cy="345.468" r="74.792" fill="#222222"/>
</g>
<rect y="170.953" width="883.258" height="14.2461" rx="7.12305" fill="#E09D64"/>
<rect y="356.152" width="883.258" height="14.2461" rx="7.12305" fill="#E09D64"/>
</g>
<defs>
<linearGradient id="paint0_linear_114_381" x1="716.004" y1="279.585" x2="156.661" y2="279.585" gradientUnits="userSpaceOnUse">
<stop/>
<stop offset="0.6237" stop-color="white"/>
<stop offset="1"/>
</linearGradient>
<clipPath id="clip0_114_381">
<rect width="569.844" height="178.076" fill="white" transform="translate(149.584)"/>
</clipPath>
<clipPath id="clip1_114_381">
<rect width="562.721" height="185.199" fill="white" transform="translate(156.707 370.398)"/>
</clipPath>
</defs>
</svg>
