<svg width="125" height="78" viewBox="0 0 125 78" fill="none" xmlns="http://www.w3.org/2000/svg">
<path d="M8.25439 33.9055V46H4.05542V33.9055H0.0205078V30.25H12.4944V33.9055H8.25439ZM17.7792 39.1145H21.3322C21.3322 38.3557 21.1989 37.8755 20.9323 37.6738C20.6657 37.4722 20.1889 37.3713 19.5019 37.3713C19.0507 37.3713 18.7072 37.4175 18.4714 37.5098C18.239 37.5986 18.0698 37.7661 17.9638 38.0122C17.8579 38.2549 17.7963 38.6223 17.7792 39.1145ZM21.3938 42.324H24.9416C24.9416 43.8518 24.4443 44.9028 23.4497 45.4771C23.0053 45.7231 22.4687 45.894 21.8398 45.9897C21.2109 46.082 20.4538 46.1282 19.5686 46.1282C18.133 46.1282 17.0256 45.947 16.2463 45.5847C15.467 45.2224 14.9252 44.6396 14.621 43.8364C14.3203 43.0332 14.1699 41.9207 14.1699 40.4988C14.1699 39.0256 14.3134 37.8909 14.6005 37.0945C14.8911 36.2947 15.4208 35.7205 16.1899 35.3718C16.9589 35.0232 18.0852 34.8489 19.5686 34.8489C20.9802 34.8489 22.0671 35.0095 22.8293 35.3308C23.5949 35.6487 24.1384 36.2109 24.4597 37.0176C24.781 37.8242 24.9416 38.9846 24.9416 40.4988V41.1089H17.7792C17.7792 41.6045 17.8032 42.0112 17.851 42.3291C17.9023 42.647 17.9912 42.8982 18.1176 43.0828C18.2441 43.2673 18.4218 43.4006 18.6508 43.4827C18.8833 43.5647 19.1892 43.6057 19.5686 43.6057C20.2111 43.6057 20.676 43.5254 20.9631 43.3647C21.2502 43.2041 21.3938 42.8572 21.3938 42.324ZM34.7946 44.3645H34.6715C34.4562 45.5403 33.3983 46.1282 31.4979 46.1282C30.5922 46.1282 29.8539 46.0342 29.2831 45.8462C28.7123 45.6582 28.2731 45.313 27.9655 44.8105C27.6613 44.3081 27.5092 43.6057 27.5092 42.7034C27.5092 41.4319 27.8339 40.5364 28.4833 40.0168C29.1327 39.4973 30.1376 39.2375 31.4979 39.2375C32.2772 39.2375 32.9284 39.3076 33.4513 39.4478C33.9777 39.5879 34.328 39.9314 34.5023 40.4783H34.6715V38.7351C34.6715 38.1233 34.5775 37.6909 34.3896 37.438C34.205 37.1816 33.7521 37.0535 33.0309 37.0535C32.5319 37.0535 32.161 37.1372 31.9184 37.3047C31.6791 37.4722 31.5595 37.7883 31.5595 38.2532H27.9501C27.9501 37.197 28.1774 36.4211 28.632 35.9255C29.0866 35.4299 29.6488 35.1274 30.3188 35.0181C30.9887 34.9053 31.8927 34.8489 33.0309 34.8489C34.381 34.8489 35.4184 34.9463 36.143 35.1411C36.8676 35.3325 37.4042 35.7324 37.7528 36.3408C38.1049 36.9458 38.2809 37.8704 38.2809 39.1145V46H34.6715L34.7946 44.3645ZM34.6715 42.4521C34.6715 42.0283 34.5143 41.7549 34.1999 41.6318C33.8854 41.5054 33.3847 41.4421 32.6977 41.4421C32.1815 41.4421 31.7885 41.519 31.5185 41.6729C31.2519 41.8267 31.1186 42.1343 31.1186 42.5957C31.1186 43.1152 31.2707 43.4451 31.5749 43.5852C31.8791 43.7253 32.2533 43.7954 32.6977 43.7954C33.2343 43.7954 33.6376 43.7629 33.9076 43.698C34.1811 43.6331 34.3759 43.5066 34.4921 43.3186C34.6117 43.1272 34.6715 42.8384 34.6715 42.4521ZM45.3243 39.74L45.3038 46H41.7149V34.9771H45.2218V36.5305H45.3653C45.5704 35.929 45.9464 35.4983 46.4933 35.2385C47.0401 34.9788 47.6725 34.8489 48.3902 34.8489C48.9918 34.8489 49.5233 34.9036 49.9847 35.0129C50.4496 35.1189 50.8409 35.3325 51.1588 35.6538C51.4801 35.9751 51.6698 36.428 51.7279 37.0125H51.8971C51.9859 36.281 52.3243 35.7375 52.9122 35.3821C53.5035 35.0266 54.1871 34.8489 54.963 34.8489C56.2652 34.8489 57.2274 35.1343 57.8495 35.7051C58.475 36.2725 58.7877 37.1919 58.7877 38.4634V46H55.1937V39.6169C55.1664 39.0872 55.1288 38.7026 55.0809 38.4634C55.0331 38.2241 54.9083 38.0242 54.7066 37.8635C54.505 37.7029 54.1854 37.6226 53.7479 37.6226C53.0985 37.6226 52.6559 37.8071 52.42 38.1763C52.1842 38.542 52.0663 39.0632 52.0663 39.74V46H48.4518V39.3196C48.4278 38.7112 48.3373 38.2771 48.18 38.0173C48.0262 37.7542 47.6622 37.6226 47.088 37.6226C46.3907 37.6226 45.9225 37.7935 45.6832 38.1353C45.4439 38.4736 45.3243 39.0085 45.3243 39.74ZM77.8282 42.3855L80.202 30.25H84.4214L80.9351 46H74.8648L72.7217 36.1306H72.5577L70.2659 46H64.2623L60.858 30.25H65.1236L67.3897 42.3855H67.5384L70.4966 30.25H74.8648L77.6795 42.3855H77.8282ZM91.5059 34.8489C92.709 34.8489 93.6609 34.9275 94.3616 35.0847C95.0657 35.2419 95.6125 35.5222 96.0022 35.9255C96.3918 36.3254 96.6602 36.8826 96.8071 37.5969C96.9575 38.3079 97.0327 39.2751 97.0327 40.4988C97.0327 41.6951 96.9558 42.6453 96.802 43.3494C96.6482 44.0535 96.3748 44.6089 95.9817 45.0156C95.592 45.4224 95.0469 45.7095 94.3462 45.877C93.6455 46.0444 92.6987 46.1282 91.5059 46.1282C90.3506 46.1282 89.4209 46.0393 88.7168 45.8616C88.0161 45.6838 87.4675 45.3865 87.071 44.9695C86.6746 44.5525 86.3977 43.9919 86.2405 43.2878C86.0833 42.5803 86.0046 41.6506 86.0046 40.4988C86.0046 39.3059 86.0781 38.3574 86.2251 37.6533C86.3755 36.9458 86.6438 36.387 87.03 35.9768C87.4163 35.5667 87.9648 35.2761 88.6758 35.1052C89.3867 34.9343 90.3301 34.8489 91.5059 34.8489ZM91.5725 37.6226C90.9744 37.6226 90.542 37.696 90.2754 37.843C90.0088 37.99 89.8328 38.26 89.7473 38.6531C89.6619 39.0427 89.6191 39.658 89.6191 40.4988C89.6191 41.3396 89.6619 41.9548 89.7473 42.3445C89.8328 42.7307 90.0088 42.9956 90.2754 43.1392C90.5454 43.2827 90.9778 43.3545 91.5725 43.3545C92.0032 43.3545 92.3398 43.3169 92.5825 43.2417C92.8252 43.1631 93.0063 43.0264 93.126 42.8315C93.2456 42.6333 93.3242 42.3599 93.3618 42.0112C93.3994 41.6592 93.4182 41.155 93.4182 40.4988C93.4182 39.6511 93.3789 39.0342 93.3003 38.6479C93.2251 38.2583 93.061 37.99 92.8081 37.843C92.5586 37.696 92.1467 37.6226 91.5725 37.6226ZM105.004 34.8489C106.207 34.8489 107.159 34.9275 107.86 35.0847C108.564 35.2419 109.111 35.5222 109.5 35.9255C109.89 36.3254 110.158 36.8826 110.305 37.5969C110.456 38.3079 110.531 39.2751 110.531 40.4988C110.531 41.6951 110.454 42.6453 110.3 43.3494C110.146 44.0535 109.873 44.6089 109.48 45.0156C109.09 45.4224 108.545 45.7095 107.844 45.877C107.144 46.0444 106.197 46.1282 105.004 46.1282C103.849 46.1282 102.919 46.0393 102.215 45.8616C101.514 45.6838 100.966 45.3865 100.569 44.9695C100.173 44.5525 99.896 43.9919 99.7387 43.2878C99.5815 42.5803 99.5029 41.6506 99.5029 40.4988C99.5029 39.3059 99.5764 38.3574 99.7233 37.6533C99.8737 36.9458 100.142 36.387 100.528 35.9768C100.915 35.5667 101.463 35.2761 102.174 35.1052C102.885 34.9343 103.828 34.8489 105.004 34.8489ZM105.071 37.6226C104.473 37.6226 104.04 37.696 103.774 37.843C103.507 37.99 103.331 38.26 103.246 38.6531C103.16 39.0427 103.117 39.658 103.117 40.4988C103.117 41.3396 103.16 41.9548 103.246 42.3445C103.331 42.7307 103.507 42.9956 103.774 43.1392C104.044 43.2827 104.476 43.3545 105.071 43.3545C105.501 43.3545 105.838 43.3169 106.081 43.2417C106.323 43.1631 106.505 43.0264 106.624 42.8315C106.744 42.6333 106.822 42.3599 106.86 42.0112C106.898 41.6592 106.916 41.155 106.916 40.4988C106.916 39.6511 106.877 39.0342 106.799 38.6479C106.723 38.2583 106.559 37.99 106.306 37.843C106.057 37.696 105.645 37.6226 105.071 37.6226ZM120.394 40.4988C120.394 39.675 120.36 39.0769 120.292 38.7043C120.227 38.3318 120.058 38.0583 119.784 37.884C119.511 37.7097 119.063 37.6226 118.441 37.6226C117.85 37.6226 117.424 37.708 117.164 37.8789C116.908 38.0498 116.749 38.3198 116.687 38.689C116.626 39.0581 116.595 39.6614 116.595 40.4988C116.595 41.4114 116.643 42.0625 116.739 42.4521C116.838 42.8384 117.007 43.0862 117.246 43.1956C117.489 43.3015 117.887 43.3545 118.441 43.3545C118.971 43.3545 119.371 43.2878 119.641 43.1545C119.911 43.0212 120.104 42.7529 120.22 42.3496C120.336 41.9429 120.394 41.3259 120.394 40.4988ZM120.394 36.551V30.25H124.009V46H120.394L120.476 44.0876H120.312C120.117 44.8635 119.758 45.3984 119.235 45.6924C118.716 45.9829 118.024 46.1282 117.159 46.1282C115.785 46.1282 114.744 45.8069 114.037 45.1643C113.333 44.5183 112.981 43.4878 112.981 42.0728V39.5554C112.981 38.7009 113.058 37.9763 113.211 37.3816C113.369 36.7834 113.61 36.3015 113.934 35.9358C114.262 35.5667 114.69 35.2932 115.216 35.1155C115.746 34.9377 116.393 34.8489 117.159 34.8489C117.918 34.8489 118.55 34.9668 119.056 35.2026C119.565 35.4385 119.955 35.8879 120.225 36.551H120.394Z" fill="#E09D64"/>
<g clip-path="url(#clip0_1_338)">
<path d="M101.213 40.5594C101.285 40.1251 101.174 39.6299 101.113 39.2009C101.036 38.6581 101.039 38.1126 100.972 37.5671C100.904 37.0057 100.538 36.484 100.414 35.9306C100.329 35.5519 100.273 35.1971 100.12 34.8555C100.157 34.6913 100.191 34.5298 100.228 34.3709C100.366 33.7936 100.61 33.0813 100.499 32.4829C100.369 31.797 99.9212 31.1827 99.6432 30.5471C99.4552 30.1208 99.3413 29.6812 99.2036 29.2363C99.0844 28.8524 98.7932 28.5505 98.7084 28.1507C98.6978 28.0977 98.6793 28.05 98.6581 28.0077C98.6581 27.9785 98.6581 27.9468 98.6581 27.9176C98.6263 27.1788 98.6502 26.3288 98.3377 25.6509C97.967 24.8432 97.4215 24.0885 96.9316 23.3524C96.6933 22.9975 96.5794 22.5315 96.3755 22.1528C96.1451 21.7212 95.9227 21.3055 95.7506 20.85C95.6129 20.4846 95.4063 20.2171 95.3507 19.8173C95.2898 19.3883 95.1097 18.9911 94.9085 18.6124C94.5007 17.8498 93.9525 17.2116 93.4838 16.4834C93.3117 16.2133 93.1608 15.8372 92.941 15.6042C92.6497 15.297 92.2101 15.0958 91.8818 14.8204C91.4263 14.4364 90.9788 13.9439 90.4306 13.6844C90.4227 13.6738 90.4121 13.6632 90.4042 13.6552C90.5154 13.4275 90.5021 13.1574 90.2638 12.9641C89.7951 12.5828 89.3132 12.2147 88.818 11.8678C88.2381 11.4627 87.9097 11.076 87.5178 10.5014C87.147 9.95857 86.5698 9.51636 86.0402 9.13504C85.7939 8.96027 85.4311 8.85963 85.1081 8.72988C85.0498 8.68486 84.9915 8.6425 84.9333 8.59748C84.9068 8.41741 84.8168 8.24264 84.6764 8.13672C84.6314 8.1023 84.5864 8.07317 84.5414 8.04139C84.5122 7.90899 84.4275 7.77923 84.266 7.68126C84.0992 7.57798 83.9244 7.4853 83.7496 7.39527C83.3895 7.16754 83.0691 6.90538 82.7089 6.63793C82.4441 6.43932 82.129 6.3281 81.8059 6.23277C81.467 5.9918 81.1386 5.74024 80.8129 5.47544C79.7431 4.60953 78.4482 4.12758 77.1427 3.73567C76.5655 3.5609 76.0915 3.4232 75.5619 3.10808C74.9899 2.76649 74.4417 2.64467 73.8062 2.49903C72.4266 2.18126 71.1873 1.29417 69.76 1.17766C69.5852 1.16442 69.4078 1.18031 69.2304 1.19885C68.8199 1.09822 68.4068 0.944626 68.0017 0.844C67.7581 0.783095 67.5038 0.777806 67.2602 0.727493C67.0193 0.677181 66.7094 0.383244 66.5347 0.227009C65.6688 -0.543572 65.1577 0.565957 64.2759 0.539476C64.2176 0.536828 64.1673 0.547425 64.1196 0.560665C63.447 0.528889 62.7744 0.526235 62.1045 0.497107C61.4743 0.467978 60.9711 0.47857 60.3515 0.306447C59.7001 0.12638 59.181 0.155508 58.519 0.174045C57.1262 0.213765 55.5373 1.14324 54.1577 0.751325C54.0041 0.706308 53.8664 0.72219 53.7525 0.777799C53.3315 0.727486 52.9052 0.666581 52.4894 0.711598C52.1425 0.74867 51.8089 0.936688 51.4964 1.08233C51.1681 1.23592 50.6676 1.30741 50.3101 1.36832C49.4521 1.51661 48.7848 1.7364 48.0169 2.14684C47.8607 2.22893 47.7733 2.35074 47.7362 2.47785C47.4158 2.5414 47.1007 2.61025 46.7697 2.64997C45.8137 2.77178 45.1358 3.47881 44.2302 3.67476C43.8806 3.74891 43.5073 3.70124 43.1551 3.77539C42.787 3.85483 42.4878 4.12228 42.2256 4.3712C41.9661 4.61747 41.651 4.7843 41.3994 5.03851C41.0313 5.40924 40.7851 5.76672 40.3349 6.0633C39.5987 6.5479 38.799 6.89744 38.1 7.44558C37.7663 7.70774 37.528 8.10759 37.1784 8.34327C36.8686 8.55246 36.4026 8.52069 36.053 8.66898C35.2718 8.99734 34.7528 9.79705 34.2735 10.4538C33.7545 11.1634 33.1481 11.8334 32.6 12.5219C32.2557 12.9562 31.9883 13.4408 31.7261 13.928C31.0429 14.7065 30.3915 15.5062 29.7771 16.3324C29.6024 16.5125 29.4117 16.6714 29.1734 16.7508C28.3048 17.0394 27.7646 17.4525 27.2483 18.2205C26.8219 18.8534 26.7266 19.6584 26.3903 20.323C25.9984 21.1042 25.4555 21.8139 24.9789 22.5421C24.5631 23.175 24.0944 23.7575 24.0653 24.5387C24.0547 24.8591 24.0918 25.1742 24.1633 25.4814C24.0362 25.8601 23.9038 26.2361 23.7528 26.6148C23.4351 27.4092 23.2312 28.1639 23.112 28.9742C22.9876 29.4032 22.8843 29.8401 22.8101 30.2876C22.7386 30.7245 22.5983 31.1721 22.7227 31.5693C22.3944 33.0389 21.9283 34.4795 21.8118 35.9862C21.7721 36.4814 21.9124 36.9183 21.9575 37.4056C21.7853 37.8372 21.5364 38.3059 21.5894 38.7667C21.6212 39.0447 21.6953 39.3148 21.743 39.5902C21.78 39.7941 21.7748 40.0033 21.7536 40.2125C21.7191 40.3661 21.6768 40.525 21.6159 40.6891C21.4252 41.2055 21.1763 41.6795 21.1074 42.2303C20.975 43.2869 21.4305 44.2481 21.7853 45.212C21.8833 45.4768 21.9548 45.7443 22.021 46.0144C21.9866 46.5943 22.0819 47.1769 22.1402 47.7647C22.2461 48.8266 22.1693 49.9679 22.4844 50.9953C22.8128 52.0598 23.4536 53.029 24.0124 53.985C24.3354 54.5384 24.6373 55.1051 24.9577 55.6612C25.2172 56.114 25.6012 56.4556 25.8474 56.919C26.0513 57.303 26.0911 57.7399 26.2394 58.1451C26.4327 58.6773 26.7345 59.1487 27.0576 59.6121C27.6428 60.4568 28.2016 61.2883 28.6862 62.1966C29.1654 63.0943 29.7983 63.8648 30.4392 64.6513C30.7251 65.0008 31.1303 65.2365 31.4587 65.549C31.6175 65.7953 31.7658 66.0389 31.8797 66.2878C32.1471 66.8704 32.3431 67.4688 32.7668 67.9614C33.1534 68.4062 33.7466 68.6499 34.1676 69.0683C34.5489 69.4469 34.8058 69.9289 35.2427 70.2546C35.7405 70.628 36.3046 70.9192 36.858 71.1999C37.4141 71.4833 37.859 72.0102 38.3462 72.3942C38.8758 72.81 39.4187 73.2257 39.9721 73.6097C40.5017 73.9751 41.1823 74.1737 41.7728 74.412C42.4216 74.6742 43.0147 75.0396 43.682 75.2488C43.9707 75.3388 44.2646 75.405 44.5294 75.5507C44.781 75.6884 44.9531 75.9346 45.1967 76.075C45.8031 76.4245 46.4651 76.6152 47.0927 76.9118C47.715 77.2057 48.332 77.4467 48.9093 77.8253C49.0629 77.926 49.2032 78.0398 49.3383 78.159C49.3886 78.2808 49.4786 78.3894 49.5819 78.4529C49.6481 78.4926 49.7169 78.5271 49.7911 78.5589C49.9447 78.6913 50.1035 78.8157 50.281 78.9243C50.7417 79.2023 51.2978 79.1123 51.8089 79.1414C52.2988 79.1653 52.7622 79.1096 53.1938 78.8872C53.2335 78.9137 53.2786 78.9375 53.3289 78.9561C53.5831 79.0461 53.832 79.0593 54.0994 79.0434C54.1392 79.0408 54.1762 79.0434 54.2133 79.0434C54.3643 79.0938 54.5125 79.1494 54.6317 79.1864C55.0263 79.3083 55.3943 79.4195 55.773 79.5889C56.4191 79.8776 57.0149 80.1027 57.7326 79.957C58.5005 79.8008 59.2605 79.8961 60.039 79.8167C60.4177 79.7796 60.7725 79.6869 61.1432 79.5995C61.1724 79.5942 61.1989 79.5889 61.228 79.5836C61.6702 79.7055 62.1204 79.7822 62.5785 79.8484C63.7277 80.0073 64.9697 79.8723 66.0818 79.581C66.675 79.4248 67.2973 79.4221 67.9037 79.3188C68.5419 79.2076 69.0715 78.7998 69.6885 78.6727C70.3346 78.5377 70.9331 78.3046 71.566 78.1246C72.1909 77.9472 72.8344 77.8333 73.4381 77.5897C73.8856 77.4096 74.3305 77.2322 74.778 77.0548C75.4427 76.7926 76.0915 76.3875 76.7853 76.2127C77.9689 75.9135 79.1314 75.3468 80.2039 74.7748C80.7335 74.4915 81.2684 74.2187 81.7821 73.9089C82.3965 73.5382 82.8969 73.0112 83.4927 72.6113C83.8105 72.3968 84.1468 72.2088 84.4752 72.0129C84.5864 72.0314 84.7056 72.0235 84.8247 71.9758C85.1769 71.8328 85.4497 71.5786 85.6774 71.2767C85.9793 70.8742 86.3924 70.5353 86.7393 70.1725C86.8822 70.0242 86.922 69.8309 86.8902 69.6508C87.0358 69.4866 87.1815 69.3251 87.3377 69.1742C87.4992 69.0179 87.6555 68.8564 87.8091 68.6949C87.9653 68.8035 88.1719 68.8379 88.3996 68.7214C88.9795 68.4221 89.5991 68.1467 90.0016 67.6065C90.4094 67.0557 91.0185 66.6983 91.4289 66.1713C91.6381 65.9038 91.8023 65.5596 92.1121 65.3954C92.4299 65.2233 92.7715 65.0776 93.0681 64.8658C93.5712 64.5083 93.7619 63.8331 93.9022 63.2637C93.9711 62.9857 94.0214 62.6971 94.077 62.4137C94.3895 61.9874 94.6516 61.5372 94.7602 61.0897C94.7681 61.0553 94.7734 61.0235 94.7761 60.9944C94.9879 61.0447 95.2183 60.9758 95.3481 60.7137C95.6817 60.0411 96.0498 59.4055 96.3596 58.7356C96.4973 58.5555 96.6085 58.3649 96.7356 58.161C96.8919 57.9067 97.1143 57.5863 97.2652 57.2553C97.3102 57.2129 97.35 57.1626 97.3817 57.0991C97.6042 56.6383 97.8425 56.2173 98.1126 55.783C98.3827 55.3461 98.7985 55.0972 99.103 54.6867C99.6617 53.932 99.5637 52.7801 99.8074 51.9063C100.04 51.0721 100.276 50.0738 100.157 49.2079C100.083 48.6651 99.8127 48.1752 99.7756 47.6244C99.7385 47.0895 100.342 46.7902 100.536 46.3533C100.7 45.9879 100.724 45.6066 100.747 45.2094C100.777 44.6956 100.869 44.1978 100.856 43.6814C100.845 43.173 100.739 42.6513 100.777 42.1456C100.827 41.6107 101.126 41.089 101.213 40.5594ZM99.1242 41.1896C99.1215 41.653 99.1242 42.1111 99.1268 42.5746C99.1295 43.2021 99.0024 43.8138 98.9415 44.4335C98.8779 45.0611 98.8753 45.6754 98.7667 46.3004C98.6634 46.8935 98.8382 47.5105 98.7111 48.1196C98.5893 48.6942 98.3721 49.2503 98.3006 49.8355C98.1656 50.9291 97.8452 52.0837 97.297 53.0502C97.0772 53.4368 96.8495 53.8102 96.5847 54.1598C96.5794 54.1862 96.5741 54.2127 96.5714 54.2392C96.5185 54.602 96.4735 54.9489 96.3728 55.2984C96.1689 56.0187 95.8168 56.6622 95.6817 57.4036C95.5573 58.0947 95.1468 58.5449 94.6596 59.0189C94.3736 59.297 94.1432 59.5856 93.8969 59.8928C93.8201 59.9881 93.7195 60.0967 93.6215 60.2132C93.6083 60.2476 93.5924 60.2794 93.5792 60.3165C93.4971 60.5601 93.3991 60.7772 93.227 60.9705C93.1952 61.0076 93.1581 61.0394 93.1184 61.0659C93.1634 61.5293 93.0496 61.9609 92.8536 62.3899C92.6497 62.8348 92.5305 63.3617 92.1201 63.6742C91.9612 63.7933 91.7944 63.8913 91.6222 63.9814C91.5693 64.0343 91.5137 64.0846 91.4554 64.1296C91.3601 64.2011 91.233 64.2409 91.1059 64.2435C90.9523 64.3256 90.8014 64.4103 90.6557 64.511C90.1129 64.8923 89.6812 65.3557 89.1993 65.8059C88.7121 66.2613 88.3069 66.7856 87.7799 67.1987C87.5681 67.3656 87.2874 67.4344 87.0756 67.6065C86.8505 67.7919 86.6889 68.0329 86.5062 68.2553C86.0825 68.7796 85.5476 69.1742 85.0842 69.6614C84.6632 70.1036 84.2448 70.6412 83.7311 70.9828C83.1935 71.3403 82.6295 71.6766 82.0707 72.0023C81.5544 72.2989 80.9268 72.5107 80.4793 72.9079C80.0317 73.3025 79.571 73.7023 79.0626 74.0122C78.615 74.2849 78.096 74.3458 77.6247 74.5497C77.103 74.7774 76.6767 75.2197 76.1418 75.405C75.5539 75.6089 74.9502 75.5719 74.3358 75.6036C74.0737 75.6169 73.8035 75.6645 73.5281 75.7175C73.1309 75.9002 72.7788 76.1756 72.3657 76.308C71.4389 76.6046 70.5279 76.8932 69.5587 77.0018C68.579 77.113 67.6389 77.3143 66.6803 77.5394C66.1533 77.6612 65.6264 77.7644 65.0835 77.7486C64.6704 77.7353 64.2653 77.6161 63.8522 77.6638C63.3517 77.7194 62.9121 77.9392 62.417 78.0107C61.8079 78.1007 61.1988 78.1669 60.5898 78.2623C59.5385 78.4212 58.4475 78.6489 57.383 78.5642C56.3556 78.4847 55.3679 78.0107 54.3828 77.73C53.8373 77.5738 53.2838 77.452 52.7807 77.2163C52.5159 77.1819 52.2511 77.1501 51.9837 77.1422C50.9986 77.1157 49.9791 77.1872 49.0867 76.692C48.618 76.4351 48.2817 76.0459 47.8924 75.6937C47.768 75.5824 47.6435 75.4871 47.5164 75.4024C47.339 75.3071 47.1536 75.2303 46.9577 75.1905C46.6955 75.1376 46.4281 75.1085 46.1685 75.037C45.7396 74.9204 45.4112 74.5338 45.0855 74.2267C44.6353 74.0916 44.1958 74.0625 43.7668 73.8533C42.4639 73.2124 41.3465 72.2909 40.1522 71.478C39.755 71.4462 39.4054 71.1655 39.04 70.9457C38.6693 70.7233 38.3171 70.4744 37.9781 70.2122C37.3002 69.8203 36.6991 69.3728 36.1033 68.8087C35.82 68.5386 35.5313 68.2871 35.2401 68.0408C34.9408 67.9958 34.6443 67.919 34.3636 67.7945C33.6751 67.4927 33.3229 66.8677 32.9071 66.2746C32.4278 65.5914 31.9856 64.8579 31.4295 64.2329C30.9555 63.7007 30.2723 63.3273 29.8592 62.7262C29.3588 61.9953 29.1813 61.3651 29.2316 60.4912C29.2449 60.2476 29.1734 60.0225 29.0728 59.8054C28.5564 58.966 28.0718 58.1027 27.6216 57.2182C27.28 56.8131 26.9437 56.4027 26.6789 55.9419C26.2579 55.211 25.8766 54.4325 25.4264 53.7175C25.0133 53.0582 24.4837 52.3141 24.4652 51.5011C24.4572 51.1357 24.6505 50.7305 24.5737 50.381C24.4864 49.9838 24.2162 49.6316 24.0997 49.2423C23.8588 48.4267 23.8323 47.59 23.6602 46.7611C23.5542 46.2553 23.3265 45.9085 23.1226 45.4503C22.9849 45.1352 22.9505 44.7963 22.8207 44.4785C22.691 44.1554 22.5586 43.7953 22.6168 43.4405C22.6751 43.0962 22.8499 42.7811 22.9081 42.4474C23.0564 41.5736 22.6645 40.7183 22.8949 39.8232C22.9743 39.5134 23.0246 39.2089 23.0829 38.9017C22.9823 38.8223 22.9055 38.7005 22.8869 38.5336C22.7943 37.7048 22.834 37.0295 23.0061 36.2139C23.0776 35.875 23.1915 35.401 23.1729 35.0568C23.1544 34.7257 23.1041 34.363 23.1941 34.0399C23.3027 33.6533 23.5066 33.2958 23.7025 32.9383C23.6946 32.8165 23.729 32.6894 23.8217 32.5676C24.6611 31.4739 24.3963 29.7315 24.8518 28.4764C25.0689 27.8779 25.2252 27.4065 25.6171 26.8875C25.9904 26.395 26.1599 25.9448 26.4062 25.394C26.671 24.8062 26.912 24.2077 27.1768 23.6198C27.1794 23.5748 27.19 23.5245 27.2112 23.4742C27.5475 22.6983 26.7398 21.8509 27.7329 21.3505C27.9341 21.2498 28.3075 21.0777 28.4372 20.8818C28.5696 20.6805 28.665 20.4581 28.8027 20.2621C29.033 19.9364 29.319 19.6239 29.5521 19.2929C29.5971 19.1288 29.6474 18.9619 29.7215 18.8136C30.3306 17.5849 31.5593 16.7932 32.3299 15.6757C32.6874 15.1593 32.9892 14.7145 33.495 14.3279C33.9637 13.9677 34.255 13.5943 34.6151 13.1415C35.4281 12.1167 36.3125 11.1343 37.4644 10.4882C37.8166 10.2922 38.1582 10.0857 38.4919 9.8712C38.6905 9.61698 38.9023 9.37601 39.1724 9.20918C39.5405 8.9841 39.8847 8.78814 40.2157 8.54982C40.3561 8.42536 40.5017 8.30619 40.6527 8.19233C40.7983 8.08376 40.9413 8.05199 41.0711 8.07317C41.1161 8.04404 41.1584 8.01226 41.2035 7.98578C41.3491 7.89839 41.5371 7.87986 41.7066 7.92223C41.7675 7.88516 41.8258 7.84809 41.8867 7.81102C42.117 7.5674 42.3342 7.2814 42.5778 7.12252C43.1048 6.78357 43.7006 6.42609 44.3176 6.28839C44.9716 6.14275 45.4297 5.98651 45.9964 5.61313C46.481 5.29537 46.9789 4.99614 47.4873 4.7128C47.7441 4.5698 47.9904 4.6519 48.1546 4.83196C48.1678 4.82932 48.1784 4.82402 48.1917 4.81872C48.618 4.42416 49.2138 4.19908 49.7169 3.92898C50.0797 3.73567 50.4134 3.41525 50.7894 3.26167C51.0754 3.1478 51.462 3.1478 51.7665 3.08955C52.5795 2.93066 53.3447 2.6685 54.1683 2.57317C54.5761 2.52816 54.9945 2.50698 55.397 2.60496C55.773 2.69499 56.0855 2.6076 56.4615 2.61554C56.9302 2.62349 57.3804 2.57318 57.8438 2.52022C58.2542 2.4752 58.7097 2.5361 59.1096 2.45137C59.941 2.27395 60.8043 2.05416 61.6543 2.00915C62.3666 1.97207 63.1187 2.29249 63.786 2.52816C63.8125 2.53611 63.8416 2.54934 63.8681 2.55994C63.9131 2.55729 63.9608 2.55729 64.0137 2.56788C64.4003 2.63408 64.7711 2.48049 65.155 2.50962C65.5973 2.5467 66.0315 2.59701 66.4764 2.58113C67.1411 2.55729 67.8481 2.37722 68.5022 2.50433C69.0741 2.61555 69.6249 3.0869 70.091 3.41261C70.2181 3.50264 70.3505 3.59002 70.4829 3.68271C70.8404 3.66682 71.1767 3.74361 71.5448 3.80187C72.0823 3.88661 72.6755 3.74626 73.1998 3.88396C73.7082 4.01636 74.1928 4.21231 74.7039 4.33677C75.1064 4.43475 75.5883 4.51155 75.9485 4.72869C76.388 4.99349 76.7455 5.44366 77.2036 5.6661C77.6406 5.87794 78.141 5.96797 78.5992 6.14009C79.0652 6.31221 79.4757 6.57172 79.9232 6.77827C80.2674 6.9398 80.6011 7.09868 80.8685 7.37408C81.1863 7.69979 81.2419 8.34327 81.7318 8.4995C82.2349 8.66103 82.7672 8.59483 83.2783 8.72194C84.0912 8.92319 84.8989 9.48457 85.5609 9.9877C86.2547 10.5147 87.3165 10.8351 87.7905 11.6004C88.0474 12.0161 88.1215 12.4742 88.4155 12.8714C88.7068 13.266 88.998 13.6288 89.3317 13.9889C89.3767 14.0392 89.4085 14.0948 89.4297 14.1504C89.6706 14.402 89.8798 14.7145 90.0493 14.9422C90.1844 15.1249 90.3168 15.2944 90.428 15.4798C90.9152 15.9935 91.3521 16.5469 91.8341 17.0818C92.0221 17.291 92.0036 17.5214 91.8818 17.6909C91.9082 17.7041 91.9374 17.72 91.9612 17.7412C92.324 17.9954 92.6312 18.3873 92.9013 18.8189C93.1369 18.9672 93.3726 19.1155 93.5977 19.2744C94.0585 19.6028 94.5907 20.0132 94.731 20.5852C94.8131 20.9215 94.8237 21.279 94.8635 21.6232C94.9005 21.9569 95.1494 22.2243 95.3136 22.505C95.6393 23.0558 95.7426 23.7258 96.0895 24.2845C96.4285 24.8327 96.4549 25.4841 96.5158 26.1064C96.5397 26.3473 96.4364 26.5221 96.2828 26.6227C96.3728 26.8187 96.4602 27.0146 96.5423 27.2132C96.6218 27.4066 96.7144 27.5946 96.8098 27.7826C96.9819 27.817 97.1381 27.9203 97.2202 28.1003C97.4188 28.5399 97.5751 29.0272 97.8293 29.4376C98.0199 29.7474 98.1497 30.0784 98.1523 30.4439C98.1523 30.5657 98.1179 30.6742 98.0623 30.7669C98.1206 31.1323 98.1682 31.4951 98.2477 31.8553C98.3933 32.5252 98.6872 33.1581 98.8011 33.8386C98.8938 34.408 98.9494 34.98 99.013 35.5519C99.1427 36.7091 99.238 37.9458 99.0871 39.1056C98.9944 39.7835 99.1242 40.5038 99.1242 41.1896Z" fill="#E09D64"/>
<path d="M99.0103 35.5466C98.9468 34.9746 98.8912 34.4 98.7985 33.8333C98.6873 33.1528 98.3933 32.5199 98.245 31.8499C98.1656 31.4898 98.1179 31.127 98.0597 30.7616C98.1153 30.6689 98.1497 30.5603 98.1497 30.4385C98.1471 30.0731 98.0173 29.7421 97.8266 29.4323C97.5751 29.0218 97.4188 28.5346 97.2176 28.095C97.1355 27.9149 96.9766 27.8117 96.8071 27.7772C96.7118 27.5892 96.6218 27.4012 96.5397 27.2079C96.4576 27.0093 96.3702 26.8133 96.2802 26.6174C96.4338 26.5168 96.537 26.3446 96.5132 26.101C96.4523 25.4787 96.4258 24.8273 96.0869 24.2792C95.74 23.7204 95.6367 23.0505 95.311 22.4997C95.1468 22.219 94.8979 21.9515 94.8608 21.6179C94.8211 21.2736 94.8105 20.9161 94.7284 20.5798C94.5881 20.0052 94.0558 19.5948 93.5951 19.2691C93.37 19.1102 93.1343 18.9645 92.8986 18.8136C92.6285 18.382 92.3214 17.9901 91.9586 17.7358C91.9321 17.7173 91.9056 17.7014 91.8791 17.6855C92.0009 17.5134 92.0221 17.2857 91.8315 17.0765C91.3522 16.5416 90.9152 15.9881 90.4254 15.4744C90.3141 15.289 90.1817 15.1196 90.0467 14.9369C89.8772 14.7065 89.668 14.3967 89.427 14.1451C89.4059 14.0895 89.3741 14.0339 89.3291 13.9836C88.9954 13.6208 88.7068 13.2607 88.4128 12.8661C88.1189 12.4715 88.0448 12.0108 87.7879 11.595C87.3139 10.8297 86.252 10.512 85.5582 9.98237C84.8989 9.47924 84.0912 8.9152 83.2756 8.7166C82.7646 8.58949 82.2323 8.6557 81.7292 8.49417C81.2393 8.33793 81.1837 7.69446 80.8659 7.36875C80.5984 7.09335 80.2648 6.93447 79.9205 6.77294C79.473 6.56374 79.0626 6.30688 78.5965 6.13476C78.1384 5.96528 77.6379 5.87525 77.201 5.66075C76.7455 5.44097 76.388 4.98816 75.9458 4.72335C75.5857 4.50621 75.1038 4.42941 74.7013 4.33144C74.1902 4.20698 73.7056 4.01103 73.1972 3.87862C72.6728 3.74093 72.0797 3.88127 71.5421 3.79654C71.174 3.73828 70.8378 3.66148 70.4803 3.67737C70.3479 3.58734 70.2155 3.49731 70.0883 3.40727C69.6223 3.08156 69.0741 2.6102 68.4995 2.49899C67.8428 2.37188 67.1358 2.5546 66.4738 2.57578C66.0289 2.59167 65.5946 2.53871 65.1524 2.50429C64.7684 2.47251 64.3951 2.6261 64.0111 2.56254C63.9581 2.55195 63.9105 2.55195 63.8654 2.5546C63.839 2.54401 63.8098 2.53342 63.7833 2.52283C63.1134 2.28715 62.364 1.96673 61.6517 2.0038C60.8017 2.04882 59.9357 2.26596 59.1069 2.44603C58.7071 2.53077 58.2516 2.46986 57.8411 2.51488C57.3777 2.56784 56.9276 2.61815 56.4589 2.61021C56.0828 2.60226 55.7704 2.69229 55.3943 2.59961C54.9918 2.50164 54.5734 2.52282 54.1656 2.56784C53.3421 2.66052 52.5795 2.92533 51.7639 3.08421C51.462 3.14247 51.0727 3.14247 50.7868 3.25633C50.4081 3.40727 50.0744 3.72768 49.7143 3.92364C49.2112 4.19374 48.6127 4.41882 48.189 4.81338C48.1758 4.81868 48.1652 4.82132 48.1519 4.82662C47.9878 4.6492 47.7441 4.56447 47.4846 4.70746C46.9789 4.9908 46.481 5.29003 45.9938 5.6078C45.4271 5.98117 44.969 6.1374 44.3149 6.28305C43.6979 6.42074 43.1021 6.77823 42.5751 7.11718C42.3315 7.27606 42.1144 7.56205 41.884 7.80567C41.8231 7.84274 41.7649 7.87982 41.7039 7.91689C41.5345 7.87717 41.3465 7.89571 41.2008 7.98044C41.1558 8.00693 41.1134 8.0387 41.0684 8.06783C40.9387 8.04664 40.793 8.07842 40.65 8.18699C40.4991 8.30086 40.3534 8.42002 40.2131 8.54448C39.8821 8.78545 39.5378 8.97876 39.1698 9.20384C38.8997 9.36802 38.6878 9.60899 38.4892 9.86585C38.1556 10.0803 37.814 10.2869 37.4618 10.4829C36.3099 11.129 35.4228 12.1114 34.6125 13.1362C34.255 13.589 33.9637 13.9624 33.4924 14.3225C32.9866 14.7118 32.6847 15.1567 32.3272 15.6704C31.5566 16.7878 30.3279 17.5796 29.7189 18.8083C29.6447 18.9592 29.5944 19.1234 29.5494 19.2876C29.3164 19.6186 29.0304 19.9311 28.8 20.2568C28.6597 20.4527 28.5643 20.6752 28.4346 20.8764C28.3048 21.075 27.9341 21.2445 27.7302 21.3451C26.7372 21.8456 27.5448 22.6903 27.2085 23.4689C27.1874 23.5192 27.1768 23.5695 27.1741 23.6145C26.9093 24.205 26.6683 24.8008 26.4035 25.3887C26.1546 25.9395 25.9851 26.3923 25.6144 26.8822C25.2225 27.3986 25.0663 27.8699 24.8491 28.471C24.391 29.7262 24.6585 31.4713 23.819 32.5623C23.7264 32.6841 23.6919 32.8112 23.6999 32.933C23.5039 33.2905 23.3 33.648 23.1915 34.0346C23.1014 34.3576 23.1517 34.7231 23.1703 35.0514C23.1914 35.3983 23.0749 35.8697 23.0034 36.2086C22.8313 37.0242 22.7916 37.6995 22.8843 38.5283C22.9028 38.6951 22.9796 38.8169 23.0802 38.8964C23.022 39.2036 22.9717 39.5081 22.8922 39.8179C22.6618 40.7129 23.0538 41.5683 22.9055 42.4421C22.8499 42.7784 22.6724 43.0935 22.6142 43.4351C22.5533 43.79 22.6883 44.1528 22.8181 44.4732C22.9452 44.7909 22.9823 45.1325 23.12 45.445C23.3212 45.9031 23.5516 46.25 23.6575 46.7558C23.8296 47.582 23.8561 48.4188 24.0971 49.237C24.2136 49.6263 24.4837 49.9811 24.5711 50.3757C24.6479 50.7252 24.4572 51.1304 24.4625 51.4958C24.481 52.3061 25.008 53.0528 25.4238 53.7122C25.8713 54.4245 26.2552 55.2031 26.6763 55.9366C26.9411 56.4 27.2774 56.8078 27.619 57.2129C28.0718 58.0947 28.5537 58.9606 29.0701 59.8001C29.1707 60.0198 29.2422 60.2449 29.229 60.4859C29.1787 61.3624 29.3561 61.99 29.8566 62.7209C30.2697 63.322 30.9555 63.6953 31.4269 64.2276C31.9803 64.8552 32.4252 65.5887 32.9045 66.2692C33.3229 66.8624 33.6751 67.4873 34.3609 67.7892C34.6416 67.9137 34.9355 67.9905 35.2374 68.0355C35.5313 68.2844 35.82 68.536 36.1007 68.8034C36.6965 69.3674 37.2976 69.815 37.9755 70.2069C38.3144 70.4717 38.6666 70.7179 39.0374 70.9404C39.4028 71.1602 39.7497 71.4409 40.1495 71.4726C41.3438 72.2856 42.4613 73.2071 43.7641 73.8479C44.1931 74.0571 44.6327 74.0889 45.0828 74.2213C45.4086 74.5258 45.7369 74.9151 46.1659 75.0316C46.4254 75.1031 46.6902 75.1322 46.955 75.1852C47.151 75.2249 47.3363 75.3017 47.5138 75.397C47.6409 75.4818 47.7653 75.5745 47.8898 75.6883C48.2817 76.0405 48.618 76.4298 49.0841 76.6866C49.9791 77.1818 50.9959 77.113 51.981 77.1368C52.2511 77.1448 52.5133 77.1739 52.7781 77.211C53.2812 77.4466 53.8346 77.5658 54.3801 77.7247C55.3626 78.0054 56.3529 78.4794 57.3804 78.5588C58.4449 78.6436 59.5359 78.4158 60.5872 78.2569C61.1962 78.1643 61.8053 78.0954 62.4143 78.0054C62.9095 77.9339 63.3491 77.7141 63.8495 77.6585C64.2626 77.6108 64.6678 77.73 65.0809 77.7432C65.6237 77.7591 66.1507 77.6558 66.6777 77.534C67.6363 77.3116 68.5763 77.1077 69.5561 76.9965C70.5253 76.8879 71.4362 76.5993 72.363 76.3027C72.7761 76.1703 73.1283 75.8949 73.5255 75.7122C73.8009 75.6566 74.071 75.6115 74.3332 75.5983C74.9475 75.5665 75.5513 75.6036 76.1391 75.3997C76.674 75.2143 77.1004 74.7695 77.622 74.5444C78.096 74.3405 78.6151 74.2796 79.0599 74.0068C79.5684 73.697 80.0291 73.2971 80.4766 72.9026C80.9242 72.5054 81.5517 72.2962 82.0681 71.997C82.6268 71.6739 83.1882 71.3376 83.7284 70.9775C84.2422 70.6332 84.6579 70.0983 85.0816 69.6561C85.545 69.1688 86.0799 68.7743 86.5036 68.25C86.6863 68.0275 86.8478 67.7866 87.0729 67.6012C87.2848 67.4264 87.5655 67.3602 87.7773 67.1934C88.3043 66.7777 88.7094 66.256 89.1967 65.8005C89.6786 65.3504 90.1102 64.887 90.6531 64.5056C90.7961 64.405 90.9497 64.3203 91.1033 64.2382C91.2304 64.2382 91.3601 64.1958 91.4528 64.1243C91.511 64.0793 91.5667 64.029 91.6196 63.976C91.7917 63.886 91.9586 63.788 92.1174 63.6689C92.5279 63.3564 92.6471 62.8268 92.851 62.3845C93.0469 61.9556 93.1608 61.5239 93.1158 61.0605C93.1555 61.034 93.1926 61.0049 93.2243 60.9652C93.3938 60.7719 93.4944 60.5521 93.5765 60.3111C93.5898 60.2767 93.6057 60.2423 93.6189 60.2079C93.7169 60.0913 93.8175 59.9801 93.8943 59.8874C94.1406 59.5776 94.3709 59.2916 94.6569 59.0136C95.1442 58.5396 95.552 58.0868 95.6791 57.3983C95.8115 56.6568 96.1663 56.016 96.3702 55.2931C96.4708 54.9409 96.5159 54.594 96.5688 54.2339C96.5715 54.2074 96.5768 54.1809 96.5821 54.1544C96.8469 53.8022 97.0746 53.4315 97.2944 53.0449C97.8425 52.0784 98.1629 50.9238 98.298 49.8302C98.3695 49.2449 98.5866 48.6889 98.7084 48.1142C98.8355 47.5052 98.6608 46.8882 98.7641 46.295C98.8753 45.6701 98.8753 45.0557 98.9388 44.4281C99.0024 43.8085 99.1268 43.1968 99.1242 42.5692C99.1215 42.1085 99.1215 41.6477 99.1215 41.1843C99.1215 40.4984 98.9918 39.7782 99.0818 39.0976C99.2354 37.9404 99.1401 36.7038 99.0103 35.5466ZM97.0269 41.2373C97.0084 41.8463 96.8495 42.4448 96.7277 43.0459C96.688 43.5358 96.6377 44.0256 96.5794 44.5129C96.5794 45.1272 96.6138 45.7469 96.5106 46.34C96.4338 46.7796 96.2484 47.1954 96.0604 47.6111C95.7029 49.2794 95.2289 50.9079 94.6437 52.4915C94.694 52.9549 94.7337 53.4156 94.5775 53.8022C94.2544 54.5914 93.6215 55.2587 93.2429 56.0187C92.9516 56.6065 92.5756 57.152 92.2234 57.7055C90.2982 61.1082 87.8276 64.1773 84.9121 66.7856C84.6049 67.2675 84.3296 67.7866 83.9032 68.1335C83.5325 68.4353 83.0347 68.573 82.5448 68.724C80.4502 70.2969 78.1728 71.6474 75.7419 72.7358C75.5168 72.937 75.2812 73.1197 75.0137 73.2309C74.6324 73.3898 74.222 73.4693 73.8062 73.5381C73.0674 73.8188 72.3154 74.073 71.5527 74.3061C71.1131 74.5788 70.6762 74.8648 70.1916 74.9919C69.3734 75.2038 68.4995 75.2673 67.6574 75.4209C66.8286 75.5745 66.0104 76.0114 65.1577 76.1067C64.6387 76.165 64.0958 75.9452 63.5609 75.7757C61.0956 75.9452 58.6673 75.8605 56.3026 75.5427C55.818 75.6433 55.3361 75.7492 54.8806 75.6698C54.0385 75.5215 53.1938 75.2964 52.3729 75.0925C51.5467 74.886 50.649 74.8251 49.8414 74.5603C49.0311 74.2955 48.3135 73.7102 47.5296 73.3898C47.0954 73.2124 46.7088 72.9344 46.3195 72.6563C45.3185 72.2009 44.3441 71.6977 43.3934 71.1549C43.2716 71.0913 43.1498 71.0278 43.0306 70.9589C42.975 70.9271 42.922 70.8874 42.8691 70.8504C41.1002 69.7964 39.4266 68.5942 37.8669 67.257C37.4909 67.0319 37.1175 66.8015 36.7998 66.5076C36.1748 65.9329 35.6532 65.2418 35.0679 64.6222C34.9753 64.5242 34.8905 64.4156 34.8111 64.307C32.9654 62.2998 31.3395 60.0781 29.9837 57.6737C29.6183 57.2712 29.229 56.8819 28.9907 56.4106C28.755 55.9445 28.6729 55.4043 28.567 54.872C28.3154 54.3133 28.0745 53.7493 27.852 53.1747C27.4998 52.7006 27.0867 52.2452 26.9067 51.705C26.6366 50.9026 26.3214 50.0791 26.107 49.2502C25.9878 48.7948 26.1122 48.2811 26.2182 47.77C25.9587 46.5784 25.7574 45.3603 25.6197 44.1236C25.5826 43.79 25.5509 43.4537 25.5217 43.12C25.339 42.6116 25.1298 42.1058 25.1086 41.5921C25.0927 41.2187 25.2305 40.848 25.3946 40.4746C25.384 39.5187 25.4132 38.5707 25.4794 37.628C25.3205 37.2281 25.1828 36.8309 25.2199 36.4443C25.3072 35.5943 25.5509 34.7469 25.6965 33.9128C25.7654 33.5182 25.9534 33.1475 26.152 32.782C26.8987 29.2231 28.1804 25.8389 29.9201 22.7274C29.981 22.4626 30.0605 22.2058 30.1929 21.978C30.3544 21.7026 30.5716 21.4616 30.8046 21.2313C31.3342 20.3839 31.8982 19.5604 32.494 18.7633C32.6317 18.382 32.7827 18.0112 33.0237 17.7067C33.5533 17.0421 33.9743 16.2503 34.5489 15.6254C35.1235 15.0004 35.8597 14.4973 36.4793 13.9147C37.099 13.3321 37.7531 12.7628 38.4124 12.2226C38.6772 12.0055 39.0162 11.8837 39.3684 11.783C40.793 10.6868 42.3051 9.69638 43.8965 8.82252C44.1587 8.44915 44.4288 8.08637 44.7969 7.90101C45.5516 7.51704 46.4704 7.4323 47.2569 7.10394C47.4661 7.01656 47.6885 6.96359 47.9163 6.92652C49.145 6.43928 50.4081 6.01559 51.7056 5.6634C51.838 5.60515 51.9731 5.55484 52.1108 5.51776C52.6271 5.38271 53.1567 5.28209 53.6863 5.18411C54.0941 5.09672 54.5046 5.01993 54.9203 4.94579C55.6433 4.75777 56.3529 4.40294 57.0997 4.3182C57.5048 4.27318 57.9232 4.3844 58.339 4.5115C59.2155 4.44265 60.0867 4.40559 60.9526 4.40029C61.3816 4.21228 61.8132 4.02956 62.2395 4.0428C63.0949 4.06928 63.9581 4.22816 64.8002 4.3129C65.6502 4.40028 66.4897 4.6439 67.3238 4.79219C67.7713 4.87164 68.2003 5.03052 68.6293 5.19205C69.564 5.3933 70.4856 5.63163 71.3965 5.90438C71.6878 5.96528 71.9764 6.03413 72.2597 6.12681C73.07 6.39162 73.9836 6.41016 74.7701 6.73322C75.2653 6.93712 75.6757 7.33167 76.1021 7.69181C76.7217 7.9778 77.3334 8.28497 77.9345 8.60539C78.4191 8.73779 78.909 8.86224 79.3274 9.11116C79.6875 9.323 79.9788 9.64077 80.2648 9.96648C82.2641 11.2375 84.1336 12.7019 85.8442 14.3384C86.4003 14.6668 87.0385 14.9157 87.4648 15.3711C88.0474 15.9908 88.4552 16.7931 88.9928 17.4525C89.1861 17.6908 89.3052 17.9821 89.4032 18.2919C90.3406 19.5047 91.2012 20.7811 91.9798 22.1131C92.3611 22.7115 92.7689 23.302 93.0893 23.9349C93.2852 24.3189 93.4256 24.732 93.5606 25.1451C94.6384 27.4807 95.4752 29.9592 96.0366 32.5543C96.2431 32.88 96.4311 33.211 96.4973 33.5712C96.6509 34.4 96.7859 35.2606 96.8813 36.1106C96.9766 36.9633 97.1779 37.8239 97.2123 38.666C97.2441 39.5187 97.0508 40.3925 97.0269 41.2373Z" fill="#E09D64"/>
<path d="M86.988 22.1237C87.4805 22.8307 87.6314 23.7575 88.0657 24.5069C88.4973 25.251 88.9104 25.9924 89.2838 26.7763C89.6519 27.5548 90.4595 28.1559 90.7641 28.9689C91.0659 29.7739 90.7032 30.8013 90.9415 31.6381C91.1745 32.4643 91.4949 33.2507 91.6618 34.1061C91.8259 34.9481 91.7809 35.8035 91.8789 36.6694C91.9769 37.5353 92.2999 38.3588 92.3264 39.2141C92.3529 40.0853 92.1675 40.9301 92.1225 41.7854C92.1225 41.796 92.1225 41.8066 92.1225 41.8172C92.239 41.7986 92.3556 41.7827 92.4774 41.7722C92.4986 41.7695 92.5144 41.7775 92.5277 41.788C92.6071 41.7695 92.6866 41.7536 92.7686 41.7404C92.8004 41.7351 92.8243 41.751 92.8375 41.7722C92.9011 41.7377 92.9672 41.7086 93.0335 41.7404C93.0467 41.7483 93.0626 41.751 93.0758 41.7563C93.142 41.7377 93.2109 41.7218 93.2771 41.7007C93.4545 41.645 93.6796 41.7271 93.8596 41.7483C93.8702 41.7483 93.8782 41.7483 93.8888 41.751C93.8994 41.751 93.9073 41.7457 93.9179 41.7457C94.0582 41.7245 94.1854 41.7139 94.3257 41.7165C94.5111 41.7192 94.6805 41.6451 94.858 41.5921C95.0513 41.5365 95.226 41.4464 95.4061 41.3564C95.4882 41.2796 95.5438 41.1843 95.6153 41.1128C95.6524 41.0757 95.6497 41.0042 95.6841 40.9618C95.6947 40.9513 95.7027 40.938 95.7133 40.9248C95.7371 40.8956 95.7795 40.8824 95.8192 40.8692C95.7053 40.2019 95.4114 39.5293 95.3876 38.854C95.3743 38.4833 95.4988 38.0993 95.6365 37.7127C95.6312 37.6306 95.6259 37.5485 95.6179 37.4638C95.6789 37.056 95.7265 36.6455 95.6815 36.2404C95.6444 35.8988 95.52 35.5731 95.377 35.2527C95.3584 35.1256 95.3399 34.9984 95.3187 34.8713C95.0777 34.5112 94.8447 34.1484 94.7706 33.7671C94.609 32.9118 94.5481 32.0644 94.3257 31.2356C94.2145 30.8172 94.2171 30.3644 94.2118 29.9142C94.1933 29.8824 94.1721 29.848 94.1536 29.8162C93.0732 26.3393 91.4711 23.1193 89.4427 20.2356C89.2256 20.0608 89.0217 19.8755 88.8654 19.661C88.8495 19.6398 88.8389 19.6186 88.8231 19.5974C88.7463 19.6451 88.6695 19.6822 88.5821 19.706C88.3755 19.7616 88.312 19.8808 88.2034 20.0396C88.1028 20.1906 87.9677 20.3336 87.8592 20.4898C87.7744 20.6143 87.6817 20.7361 87.5705 20.8393C87.2872 21.1042 87.0171 21.3742 86.7126 21.6152C86.6781 21.6417 86.6464 21.6682 86.6119 21.6947C86.7496 21.8297 86.8794 21.9674 86.988 22.1237Z" fill="#E09D64"/>
<path d="M52.4655 9.72016C53.2917 9.48714 54.1841 9.45006 55.0395 9.28324C55.8815 9.11906 56.721 8.80924 57.5869 8.71126C58.4528 8.61328 59.3452 8.79864 60.2005 8.77216C61.0717 8.74568 61.9429 8.60268 62.8009 8.6477C63.6694 8.69272 64.4691 9.31501 65.3218 9.43153C66.1824 9.54804 67.1172 9.17996 67.9566 9.36797C68.804 9.55598 69.7308 9.5242 70.5543 9.78106C71.3832 10.0379 72.0902 10.6814 72.8899 11.0071C73.6923 11.3328 74.4893 11.6797 75.2599 12.069C76.0332 12.4582 76.8514 12.7866 77.5876 13.2368C78.3237 13.6896 78.9116 14.3728 79.608 14.8839C80.3045 15.3949 81.2154 15.6544 81.8694 16.2211C82.5209 16.7878 82.7009 17.855 83.3047 18.4746C83.9085 19.0916 84.4751 19.7059 85.0259 20.3732C85.1636 20.5374 85.3225 20.6857 85.492 20.8234C85.5767 20.7307 85.6535 20.6301 85.7091 20.5136C85.9739 19.9496 86.1778 19.4041 86.5591 18.9036C86.861 18.509 87.2529 18.1383 87.4595 17.6855C87.1205 17.2883 86.7736 16.9017 86.4161 16.5203C86.064 16.3138 85.7118 16.1046 85.4364 15.8266C84.8273 15.2175 84.0779 14.7912 83.4239 14.2271C82.7698 13.6631 82.2216 13.009 81.5279 12.4953C80.8341 11.9816 80.1376 11.5049 79.4068 11.0442C78.9619 10.7635 78.6388 10.271 78.2813 9.83668C77.998 9.65396 77.7094 9.47654 77.4154 9.32031C76.6555 8.9178 75.8902 8.46764 75.0984 8.12074C74.7224 7.95656 74.2854 7.94333 73.8432 7.94333C73.8088 7.93009 73.777 7.91684 73.7426 7.9036C73.2845 7.93538 72.8264 7.9698 72.4345 7.83211C71.6215 7.54612 70.9065 7.00326 70.0698 6.77818C69.8526 6.71992 69.6408 6.62989 69.4316 6.52926C69.2356 6.4816 69.0397 6.43393 68.8411 6.38892C68.4545 6.12146 68.0652 5.85666 67.6336 5.77722C67.0536 5.66865 66.4366 5.7428 65.8276 5.77193C65.5495 5.79311 65.2742 5.80105 65.0041 5.77193C64.1514 5.6766 63.2961 5.56008 62.4275 5.5283C61.5722 5.49653 60.7195 5.82224 59.851 5.85402C59.4484 5.8699 59.0301 5.74279 58.6143 5.61834C58.1642 5.65011 57.714 5.68984 57.2612 5.74015C56.8348 5.78782 56.4138 5.84607 55.9954 5.90962C55.5929 6.15589 55.193 6.4101 54.772 6.48954C53.9193 6.65108 53.0772 6.73582 52.2484 6.9556C51.409 7.17804 50.5616 7.30514 49.7513 7.58848C49.3885 7.71559 49.0125 7.80033 48.6365 7.88507C48.655 7.91685 48.6709 7.94862 48.6815 7.98834C48.7239 8.18165 48.8933 8.35642 48.9463 8.55767C49.0628 8.9893 49.0919 9.42623 49.2482 9.84992C49.317 10.0379 49.3488 10.2524 49.4441 10.4325C49.513 10.5622 49.611 10.6523 49.7116 10.745C49.8149 10.7026 49.9181 10.6602 50.0241 10.6205C50.8158 10.3133 51.6288 9.95849 52.4655 9.72016Z" fill="#E09D64"/>
<path d="M39.5006 17.9768C40.1176 17.373 40.5996 16.6554 41.2669 16.102C41.9315 15.5512 42.5194 14.913 43.2291 14.4178C43.9361 13.9253 44.6219 13.3957 45.374 12.9614C46.1181 12.5298 46.8489 12.0452 47.6328 11.6745C47.8711 11.5606 48.1121 11.4467 48.3557 11.3329C48.2789 11.2508 48.1915 11.1766 48.0909 11.1131C47.7493 10.9039 47.3839 10.7423 47.0846 10.4696C46.8013 10.2101 46.5418 9.92409 46.3035 9.61957C46.1737 9.45274 45.9751 9.26208 45.8533 9.06348C45.8162 9.08201 45.7791 9.0979 45.7421 9.11644C45.4879 9.27003 45.2363 9.42096 44.9768 9.55866C44.2115 9.96381 43.6263 10.647 42.8981 11.1051C42.3843 11.4282 41.7435 11.5606 41.1689 11.7857C40.9491 11.9181 40.7346 12.0558 40.5307 12.2067C40.2315 12.4291 39.9587 12.6834 39.6939 12.9482C39.3788 13.3374 39.0822 13.7479 38.7115 14.0656C38.3937 14.3384 38.0045 14.5317 37.6152 14.7277C36.5216 15.7419 35.4941 16.8249 34.5408 17.9689C34.6123 18.0933 34.6547 18.239 34.66 18.382C34.6732 18.7235 34.8612 18.9751 34.9248 19.2982C35.0413 19.8993 35.4226 20.2647 35.886 20.609C36.0688 20.7096 36.2329 20.834 36.4051 20.9611C36.4713 21.0115 36.5348 21.0565 36.5984 21.1041C36.9691 20.6725 37.3584 20.2621 37.737 19.8251C38.2984 19.1737 38.8836 18.5806 39.5006 17.9768Z" fill="#E09D64"/>
<path d="M30.2325 43.5914C30.1345 42.7255 29.3931 41.9046 29.3666 41.0493C29.3401 40.1781 30.1107 39.3201 30.1557 38.4648C30.2007 37.5962 29.9942 36.7277 30.1107 35.875C30.2272 35.0144 29.9809 34.0796 30.1689 33.2402C30.3569 32.3928 30.823 31.6037 31.0799 30.7828C31.1037 30.7034 31.1302 30.6239 31.1567 30.5418C31.0878 30.518 31.019 30.4889 30.9528 30.4518C30.8892 30.4147 30.9104 30.2929 30.9925 30.3167C31.064 30.3379 31.1408 30.3459 31.2149 30.3538C31.4347 29.6706 31.673 28.9874 31.9405 28.3281C32.2662 27.5257 32.9255 26.8822 33.3148 26.1116C33.7041 25.3384 34.2549 24.6843 34.705 23.9482C35.1578 23.212 35.5445 22.4626 36.0555 21.7662C36.1429 21.6444 36.2383 21.5305 36.3309 21.4167C36.2965 21.4008 36.2621 21.3849 36.225 21.3663C36.2065 21.3557 36.1959 21.3399 36.1906 21.324C36.1138 21.2975 36.0396 21.2657 35.9629 21.2339C35.9337 21.2207 35.9258 21.1916 35.9258 21.1677C35.8516 21.1624 35.7881 21.1439 35.7484 21.083C35.7404 21.0698 35.7431 21.0433 35.7325 21.0327C35.6663 21.0115 35.6213 20.9612 35.5551 20.9453C35.375 20.8976 35.2744 20.6487 35.134 20.5349C35.1261 20.5296 35.1181 20.5243 35.1128 20.519C35.1049 20.511 35.0466 20.5693 35.0387 20.5666C34.9089 20.511 34.7474 20.5084 34.6282 20.4316C34.472 20.331 34.2866 20.2965 34.1092 20.2462C33.9159 20.1906 33.7173 20.1588 33.5161 20.1429C33.4075 20.1668 33.2989 20.1906 33.2009 20.2118C33.148 20.2224 33.0977 20.2356 33.0447 20.2489C33.0288 20.2568 33.0156 20.2595 32.9997 20.2648C32.9467 20.2833 32.8885 20.2886 32.8302 20.2965C32.8223 20.2992 32.8143 20.2992 32.8037 20.3018C32.6051 20.8526 32.478 21.4458 32.1735 21.9277C31.7154 22.6559 31.101 23.2729 30.6959 24.0356C30.5503 24.311 30.3278 24.5493 30.0895 24.7823C29.6923 25.582 29.3269 26.4003 28.9932 27.2318C28.8767 27.3615 28.7602 27.4939 28.6463 27.6237C28.6013 27.9865 28.5483 28.3439 28.4345 28.6749C28.1485 29.4879 28.0028 30.3406 27.7778 31.1774C27.5553 32.0088 27.1687 32.8059 27.0072 33.6559C26.9092 34.1802 26.6709 34.694 26.4802 35.213C26.4405 35.5413 26.4008 35.8697 26.3637 36.1954C26.2763 36.9766 26.5173 37.8001 26.5358 38.5998C26.5305 38.7296 26.5279 38.8593 26.5226 38.9891C26.4961 39.291 26.4325 39.5955 26.3637 39.9027C26.5411 40.3978 26.7609 40.8957 26.7794 41.3935C26.8059 42.1164 26.8668 42.8314 26.941 43.557C27.0125 43.594 27.0813 43.6338 27.1555 43.6788C27.2508 43.737 27.3196 43.8324 27.4123 43.8933C27.5341 43.9701 27.6692 43.9939 27.8069 44.0124C27.8307 44.0151 27.8519 44.023 27.8704 44.0336C27.9393 44.0416 28.0081 44.0548 28.0717 44.0733C28.1299 44.0839 28.1908 44.0919 28.2491 44.1025C28.3842 44.1078 28.5219 44.1184 28.6701 44.1395C29.0462 44.1899 29.4275 44.1184 29.8035 44.1369C29.9412 44.1422 30.0763 44.1395 30.2139 44.1395C30.2457 43.9542 30.2537 43.7715 30.2325 43.5914Z" fill="#E09D64"/>
<path d="M37.1202 25.9052C36.678 26.6493 35.8915 27.2106 35.5208 27.9945C35.1501 28.7756 35.203 29.7369 34.9038 30.5525C34.7581 30.9523 34.5728 31.3389 34.398 31.7282C35.0494 31.9586 35.7114 32.1625 36.392 32.3002C36.7336 32.369 37.0619 32.4723 37.3824 32.5994C37.6445 31.7732 37.9755 30.9576 38.3224 30.1712C38.6693 29.3794 39.4214 28.7968 39.8477 28.0474C40.274 27.2954 40.703 26.5778 41.2061 25.876C41.7093 25.1743 42.3315 24.6076 42.9062 23.9641C43.4782 23.318 43.6264 22.2614 44.2646 21.6789C44.4394 21.52 44.6221 21.3691 44.8101 21.2208C44.7625 21.1493 44.7095 21.0725 44.6459 21.0169C44.6248 20.9983 44.6195 20.9745 44.6221 20.9533C44.5903 20.9136 44.5639 20.8712 44.5268 20.8315C44.4818 20.7838 44.4288 20.7441 44.3838 20.6938C44.3732 20.6806 44.3626 20.6673 44.3547 20.6514C44.3176 20.6144 44.2832 20.5746 44.2699 20.5296C44.2514 20.4714 44.3255 20.3946 44.3811 20.4475C44.4023 20.4687 44.4209 20.4899 44.442 20.5111C44.4579 20.527 44.4606 20.5482 44.4685 20.5667C44.5135 20.6117 44.5665 20.6541 44.5956 20.6859C44.6406 20.7335 44.683 20.7838 44.7254 20.8341C44.7386 20.8368 44.7492 20.8474 44.7598 20.8606C44.7651 20.8686 44.7678 20.8765 44.7731 20.8818C44.8101 20.8739 44.8551 20.8924 44.8657 20.9401C44.8578 20.9109 44.924 21.0142 44.9743 21.091C45.4245 20.7468 45.8932 20.4237 46.3433 20.09C47.0345 19.579 47.6647 18.9117 48.4115 18.4747C49.1529 18.0405 50.2545 18.2867 51.0436 17.9266C51.0701 17.916 51.0939 17.9028 51.1178 17.8895C50.9298 17.7068 50.7417 17.5029 50.6438 17.2699C50.5776 17.1136 50.5829 16.9574 50.5458 16.7959C50.4955 16.5681 50.416 16.351 50.3551 16.1259C50.2439 15.7208 50.1433 15.3209 50.0559 14.9105C50.0162 14.7198 49.9632 14.5318 49.905 14.3464C49.3489 14.7251 48.8722 15.2521 48.2844 15.5592C47.5138 15.9617 46.4943 15.9088 45.7687 16.3775C45.0405 16.8488 44.3096 17.3414 43.6291 17.8763C42.9485 18.4138 42.6758 19.4068 42.0482 20.0027C41.4206 20.5985 40.4806 20.8792 39.9112 21.5306C39.5537 21.9384 39.2731 22.4071 38.9871 22.8705C39.0162 22.8917 39.0427 22.9155 39.0692 22.9367C39.0877 22.9526 39.0903 22.9764 39.0877 22.9976C39.1009 23.0082 39.1036 23.0241 39.1142 23.0347C39.1221 23.04 39.1115 23.0664 39.1195 23.0717C39.146 23.0797 39.1698 23.0929 39.1936 23.1035C39.1963 23.1009 39.2333 23.0982 39.2333 23.0982C39.2466 23.1062 39.3075 23.1141 39.3075 23.1221C39.3075 23.1724 39.4452 23.2306 39.5273 23.2836H39.5114C39.5405 23.3021 39.6147 23.2651 39.6517 23.273C39.7391 23.2942 39.7365 23.408 39.6491 23.3869C39.6067 23.3763 39.5829 23.3365 39.5405 23.3207C39.4266 23.3048 39.3154 23.2677 39.2201 23.2041C39.2122 23.1988 39.2201 23.1697 39.2148 23.1618C39.2122 23.1591 39.2386 23.1194 39.2386 23.1168C39.2254 23.1088 39.2095 23.1035 39.1963 23.0956C39.1883 23.1062 39.1698 23.1406 39.1645 23.1379C39.1354 23.1247 39.0903 23.1644 39.0639 23.1459C39.0586 23.1459 39.0824 23.1644 39.0771 23.1618C39.0665 23.175 39.0639 23.1936 39.0612 23.2068C39.1036 23.2412 39.1433 23.2756 39.1433 23.2783V23.2809C39.1433 23.2809 39.0374 23.2068 39.0427 23.2121C39.0586 23.228 39.0612 23.22 39.0639 23.2068C39.0294 23.1777 38.995 23.1485 38.9871 23.1406C38.9818 23.1353 38.9076 23.0717 38.8785 23.0426C38.7434 23.2598 38.6058 23.4742 38.4575 23.6808C37.949 24.3958 37.5624 25.1611 37.1202 25.9052Z" fill="#E09D64"/>
<path d="M82.6427 27.4913C83.077 28.2328 83.1697 29.1623 83.5298 29.954C83.8847 30.7352 84.454 31.4422 84.7268 32.2658C84.9969 33.0787 84.9042 33.9976 85.0895 34.8476C85.2723 35.6817 85.1796 36.5424 85.2776 37.4083C85.3755 38.2768 85.8866 39.0924 85.8945 39.9451C85.9025 40.8163 85.7727 41.6743 85.6907 42.5269C85.6059 43.3928 85.8972 44.3276 85.7251 45.167C85.7065 45.2624 85.6747 45.3551 85.643 45.4477C85.7621 45.4954 85.8813 45.5404 86.0031 45.5801C86.2653 45.6596 86.5301 45.7814 86.8002 45.8291C87.0253 45.8688 87.2556 45.882 87.4754 45.9376C87.682 45.9906 87.8806 46.0435 88.0871 46.0886C88.1931 46.1097 88.2645 46.1389 88.3493 46.2077C88.3996 46.2501 88.3705 46.3189 88.3122 46.3322C87.96 46.4116 87.5046 46.2501 87.155 46.1865C86.7578 46.115 86.3738 46.0118 85.9899 45.882C85.9846 45.882 85.9793 45.882 85.974 45.882C85.8283 45.8529 85.6668 45.8026 85.5079 45.7417C85.1981 46.3481 84.6817 46.8989 84.4831 47.5265C84.221 48.3526 84.1521 49.2397 83.8052 50.0262C83.4954 50.7332 83.1803 51.4429 82.8149 52.1182C83.1962 52.2771 83.5749 52.4386 83.9244 52.669C84.2898 52.9073 84.6182 53.18 84.9863 53.4104C85.1478 53.511 85.3199 53.5931 85.4841 53.6885C85.831 53.1827 86.1964 52.6875 86.4612 52.1288C86.832 51.3476 87.065 50.5188 87.3642 49.7032C87.6608 48.8929 88.2169 48.1593 88.4367 47.3199C88.6565 46.4858 88.7068 45.604 88.8498 44.746C88.9901 43.896 88.7703 43.0142 88.8312 42.143C88.8339 42.1032 88.8392 42.0635 88.8418 42.0238C88.7836 42.0397 88.728 42.0821 88.6697 42.188H88.6671C88.63 42.188 88.5876 42.1033 88.5505 42.1165C88.4658 42.143 88.4049 41.9629 88.4923 41.9338C88.5346 41.9205 88.5744 41.857 88.6194 41.8437C88.6988 41.8093 88.7809 41.7775 88.8657 41.7643C88.9504 41.0361 89.1093 40.3132 89.0934 39.5691C89.0748 38.7111 89.2523 37.832 89.1543 36.9634C89.0563 36.0948 88.4764 35.319 88.3016 34.4795C88.1268 33.6242 88.6009 32.6074 88.3519 31.7865C88.0977 30.9523 87.5575 30.2029 87.2318 29.4059C86.9008 28.6009 86.636 27.7508 86.2361 26.9882C85.8336 26.2176 84.9995 25.7013 84.5308 24.9783C84.2475 24.5388 83.9244 24.1389 83.596 23.7417C83.2518 23.9085 82.9155 24.0886 82.6083 24.3137C82.0681 24.7029 81.5862 25.1611 81.0592 25.5636C81.565 26.2203 82.2244 26.779 82.6427 27.4913Z" fill="#E09D64"/>
<path d="M55.8287 16.0992C56.6628 15.9165 57.4731 15.522 58.3416 15.424C59.2102 15.326 60.0841 15.0956 60.9367 15.0903C61.8079 15.0824 62.6739 15.4266 63.5265 15.5087C64.3924 15.5935 65.1683 16.0992 66.0104 16.2714C66.8366 16.4408 67.6892 16.3985 68.489 16.6341C68.5446 16.4805 68.6002 16.327 68.6505 16.1734C68.6531 16.1548 68.6558 16.1363 68.6584 16.1178C68.6611 16.0966 68.669 16.0807 68.6849 16.0728C68.7485 15.8768 68.8014 15.6808 68.8491 15.4822C68.9285 15.1353 69.106 14.8546 69.0874 14.4813C69.0848 14.4363 69.1192 14.4124 69.151 14.4071C69.151 14.4045 69.151 14.4045 69.151 14.4045C69.1616 14.3701 69.1695 14.3383 69.1801 14.3039C69.2039 14.1688 69.2198 14.0311 69.2357 13.904C69.2463 13.8246 69.3681 13.8299 69.376 13.9067C69.3919 14.0443 69.3681 14.1768 69.339 14.3065C69.3496 14.3197 69.3549 14.333 69.3549 14.3542C69.3549 14.3568 69.3549 14.3621 69.3522 14.3648C69.3628 14.3886 69.3628 14.4124 69.3443 14.4336C69.331 14.521 69.3019 14.5978 69.2648 14.6905C69.2622 14.6958 69.2595 14.7011 69.2569 14.7037C69.2569 14.7699 69.2622 14.8308 69.2648 14.8705C69.2728 15.0347 69.1986 15.1857 69.1827 15.3445C69.143 15.6967 69.0371 16.0251 68.9418 16.364C68.9074 16.4858 68.8729 16.6103 68.8359 16.7321C69.5905 16.9175 70.4141 16.9281 71.1158 17.2352C71.9076 17.5821 72.6252 18.117 73.3746 18.5434C74.1267 18.9724 74.9634 19.2981 75.6652 19.8012C76.3669 20.3043 76.7032 21.2656 77.3493 21.8402C77.9954 22.4122 78.6045 22.9868 79.1871 23.625C79.6505 24.1308 80.1907 24.565 80.6514 25.0735C80.805 24.9172 80.9586 24.7583 81.1148 24.6048C81.6047 24.1228 82.1476 23.7044 82.6825 23.2754C82.7937 23.1854 82.9023 23.1086 83.0135 23.0345C82.9949 23.0106 82.9738 22.9868 82.9552 22.963C82.4177 22.2824 82.2959 21.247 81.7001 20.6194C81.1043 19.9892 80.2172 19.6556 79.5657 19.0836C78.9143 18.5116 78.5145 17.6086 77.8127 17.1002C77.111 16.5918 76.4066 16.0277 75.6599 15.5855C74.9158 15.1433 73.8671 15.2492 73.0833 14.8758C72.3021 14.5051 71.476 14.2933 70.6604 13.994C69.8501 13.6975 69.1483 13.0699 68.3089 12.8474C67.4748 12.6276 66.6486 12.2781 65.7879 12.1351C64.9379 11.9948 64.0085 12.5217 63.1399 12.4608C62.2819 12.3999 61.4346 11.5843 60.5634 11.6002C59.7054 11.6187 58.8924 12.4661 58.0239 12.5641C57.1553 12.6621 56.3238 12.7415 55.4818 12.9136C54.6264 13.0911 53.832 13.3532 53.0111 13.6021C52.3888 13.7928 51.703 13.7742 51.0648 13.8881C51.0807 13.957 51.0966 14.0285 51.1045 14.0973C51.1628 14.6031 51.2237 15.1036 51.3217 15.604C51.4038 16.0171 51.4435 16.5494 51.7295 16.8778C51.8619 17.0313 51.9731 17.1929 52.0817 17.3597C52.4842 17.1214 52.8893 16.8883 53.3368 16.7401C54.1445 16.47 54.976 16.2846 55.8287 16.0992Z" fill="#E09D64"/>
<path d="M59.1784 22.8758C60.031 22.7805 60.836 22.227 61.6702 22.2509C62.5228 22.2773 63.3437 22.5924 64.1699 22.7354C65.0093 22.8811 65.7534 23.273 66.5505 23.5352C67.3555 23.8 68.1287 24.0489 68.8834 24.4222C69.6434 24.7983 70.3637 25.1822 71.0575 25.6615C71.7539 26.1408 72.4689 26.5698 73.0912 27.1418C73.7108 27.7138 74.635 28.0342 75.1699 28.6909C75.3235 28.8789 75.4691 29.0802 75.6095 29.2841C75.7313 29.157 75.8769 29.0325 76.0252 28.9398C76.0385 28.9213 76.0517 28.9001 76.0676 28.8869C76.0861 28.8683 76.1073 28.8524 76.1285 28.8365C76.1708 28.7677 76.2132 28.7094 76.2635 28.675C76.5601 28.4579 76.9388 28.4552 77.2777 28.3493C77.3413 28.3308 77.4869 28.2407 77.6485 28.1507C77.6511 28.1428 77.6538 28.1322 77.6591 28.1269C77.8126 27.9627 77.9795 27.7826 78.1781 27.6714C78.3211 27.592 78.3926 27.4754 78.4694 27.3536C78.1648 26.8426 77.8603 26.3262 77.4816 25.8893C76.9176 25.2431 76.0596 24.838 75.4241 24.266C74.7886 23.6914 73.9677 23.3498 73.2659 22.8573C72.5669 22.3647 71.926 21.7874 71.1687 21.3823C70.4167 20.9771 69.7335 20.3707 68.9337 20.0583C68.6557 19.9497 68.3644 19.8756 68.0652 19.8173C67.7766 20.8368 67.3873 21.8351 67.1887 22.8705C67.1728 22.9605 67.0351 22.9393 67.051 22.8493C67.1649 22.1502 67.4058 21.4776 67.5276 20.7838C67.5885 20.4396 67.6415 20.0953 67.6971 19.7484C67.2602 19.6743 66.818 19.6134 66.3969 19.5048C65.5734 19.293 64.6916 19.4201 63.8363 19.3089C62.9942 19.2003 62.1706 19.15 61.3074 19.1447C60.46 19.1394 59.6285 19.0838 58.7652 19.1791C57.902 19.2771 56.9911 19.0441 56.1675 19.2374C55.3254 19.436 54.6502 20.1457 53.8531 20.4396C53.7869 20.4634 53.7234 20.4873 53.6572 20.5111C53.7287 20.7335 53.7896 20.9665 53.8134 21.1863C53.869 21.6524 54.1232 22.1555 54.3351 22.5686C54.4595 22.8096 54.5734 23.0638 54.682 23.3207C55.3175 23.1538 56.0007 23.0903 56.6415 22.9261C57.4439 22.7116 58.3257 22.9711 59.1784 22.8758Z" fill="#E09D64"/>
<path d="M49.0971 26.5672C48.631 25.8919 48.202 25.1928 47.7572 24.4991C47.6565 24.3428 47.5533 24.1892 47.4473 24.0356C47.3864 24.0913 47.3255 24.1469 47.2646 24.2025C46.6185 24.7665 45.7738 25.1293 45.1991 25.7648C44.6245 26.4003 44.0578 27.073 43.5653 27.7747C43.0728 28.4738 42.9827 29.4218 42.5749 30.1791C42.1698 30.9312 41.2747 31.4714 40.9623 32.2711C40.7716 32.7636 40.8034 33.3329 40.8087 33.8917C41.1 34.0426 41.3886 34.1988 41.6746 34.3657C41.6852 34.371 41.6878 34.3789 41.6958 34.3869C42.1089 34.5775 42.5432 34.6596 42.9668 34.8264C43.2078 34.9218 43.4302 35.0436 43.6924 35.0727C43.7348 35.078 43.7745 35.0833 43.8142 35.0912C43.8407 34.8873 43.8804 34.6861 43.944 34.4928C44.2088 33.6851 44.9529 33.0628 45.3263 32.3081C45.7023 31.5508 45.7552 30.5869 46.2345 29.8905C46.7138 29.194 47.4023 28.6221 47.9743 27.9998C48.3715 27.5708 48.8799 27.2557 49.3751 26.9273C49.2798 26.8161 49.1845 26.6943 49.0971 26.5672Z" fill="#E09D64"/>
<path d="M49.1632 22.4706C48.623 22.836 48.1808 23.3206 47.7174 23.7787C47.7571 23.8528 47.7942 23.9296 47.8233 23.9932C47.8604 24.0488 47.8975 24.1044 47.9292 24.16C47.9398 24.1785 47.9425 24.1997 47.9372 24.2183C47.9928 24.3189 48.0484 24.4195 48.1067 24.5175L48.1093 24.5201C48.1252 24.5228 48.1384 24.5281 48.1543 24.5413C48.3079 24.7029 48.4138 24.8988 48.5118 25.1027C48.631 25.2881 48.7528 25.4734 48.8825 25.6535C48.9064 25.6535 48.9329 25.6641 48.9487 25.6906C48.9938 25.7727 49.0441 25.8548 49.097 25.9342C49.1368 25.9845 49.1765 26.0322 49.2189 26.0825C49.2294 26.0984 49.2347 26.109 49.2347 26.1249C49.383 26.3288 49.5446 26.5221 49.7008 26.718C49.8094 26.6412 49.9153 26.5618 50.0186 26.477C50.67 25.9448 51.1413 25.1318 51.8695 24.6949C52.5898 24.2633 53.3577 23.8237 54.1416 23.4953C54.1972 23.4715 54.2554 23.453 54.311 23.4318C54.1972 23.159 54.0886 22.8889 53.9721 22.6162C53.792 22.1978 53.5669 21.8191 53.3525 21.4193C53.2333 21.1942 53.1274 20.9665 53.0267 20.7361C52.5077 20.9267 51.9966 21.128 51.5015 21.3822C50.7282 21.7794 49.8676 21.9939 49.1632 22.4706Z" fill="#E09D64"/>
</g>
<g clip-path="url(#clip1_1_338)">
<path d="M24.8472 47.2538C23.7039 46.5852 22.9447 46.2108 22.5515 46.0503C22.3319 44.8335 22.1719 43.5943 22.0621 42.3373C22.7847 42.8098 23.6261 42.6494 23.9234 42.5379C25.0255 42.061 25.245 40.8976 25.2725 40.4341C25.2953 39.9126 25.1444 39.0077 23.9691 37.7998C23.0545 36.8637 22.4143 36.3199 22.0759 36.0614C22.181 34.8045 22.3457 33.5609 22.5743 32.3485C23.146 32.9859 24.0057 33.0483 24.3258 32.9948C25.5194 32.8209 26.0407 31.7512 26.1871 31.3099C26.3471 30.8196 26.4386 29.9058 25.62 28.4349C24.9798 27.3028 24.4996 26.6074 24.2435 26.2731C24.6825 25.0919 25.1764 23.9419 25.716 22.8187C26.1048 23.5853 26.9142 23.8572 27.2343 23.8884C28.4325 24.0222 29.2282 23.1218 29.4843 22.734C29.7724 22.3016 30.1017 21.4458 29.7038 19.8234C29.3837 18.5708 29.1093 17.7908 28.9538 17.3941C29.6901 16.3689 30.4629 15.3839 31.2998 14.4344C31.4644 15.268 32.1733 15.7271 32.4751 15.8385C33.6047 16.2664 34.6062 15.5978 34.9583 15.2858C35.347 14.9381 35.9004 14.1937 35.937 12.5222C35.9644 11.2341 35.9095 10.4095 35.8638 9.99048C36.8378 9.18816 37.8577 8.42596 38.9095 7.71724C38.85 8.55968 39.4171 9.18816 39.6686 9.37091C40.6472 10.0663 41.7905 9.67401 42.2158 9.46452C42.6823 9.22828 43.414 8.65328 43.8941 7.04418C44.2737 5.79167 44.4338 4.9849 44.4978 4.57482C45.6502 4.03549 46.8392 3.56301 48.0465 3.13956C47.7584 3.9508 48.1426 4.69963 48.3438 4.94478C49.0983 5.85853 50.3102 5.77384 50.7767 5.67133C51.2934 5.56435 52.1486 5.18993 53.0449 3.75913C53.7401 2.6448 54.1059 1.90488 54.2843 1.52601C55.5373 1.31205 56.804 1.15159 58.0891 1.04907C57.6043 1.75333 57.769 2.56902 57.8924 2.86321C58.3818 3.93742 59.5753 4.15138 60.0464 4.17812C60.5768 4.19595 61.5098 4.05777 62.7536 2.90778C63.7094 2.01186 64.2673 1.38783 64.5372 1.05799C65.8222 1.16051 67.0981 1.32543 68.3466 1.54384C67.688 2.101 67.6286 2.94344 67.6789 3.25099C67.8572 4.41436 68.9548 4.92695 69.4121 5.06067C69.9106 5.21668 70.8481 5.31028 72.3572 4.50796C73.5233 3.88394 74.2322 3.42037 74.5751 3.17076C75.787 3.59867 76.9669 4.0756 78.1193 4.61048C77.3327 4.9849 77.0538 5.77384 77.0217 6.08586C76.8846 7.25814 77.8083 8.0248 78.2108 8.27887C78.6589 8.56414 79.537 8.88506 81.2016 8.49727C82.4866 8.18526 83.2869 7.91336 83.6893 7.76627C84.7457 8.4839 85.7564 9.24165 86.7305 10.0484C85.8753 10.2089 85.3997 10.9042 85.2854 11.194C84.8463 12.2949 85.5369 13.2711 85.857 13.6098C86.2137 13.9932 86.9774 14.528 88.6923 14.5682C90.0185 14.5994 90.86 14.5459 91.2898 14.4968C92.113 15.4463 92.895 16.4402 93.6221 17.4699C92.7578 17.4075 92.1084 17.9602 91.9209 18.2098C91.2075 19.1637 91.6145 20.2735 91.8249 20.6925C92.0673 21.1472 92.6618 21.8604 94.3081 22.3284C95.5977 22.7028 96.4254 22.8543 96.8462 22.9167C97.3949 24.04 97.8797 25.2034 98.3187 26.3756C97.4864 26.0948 96.7181 26.4692 96.462 26.6654C95.5245 27.3964 95.6114 28.582 95.7166 29.0277C95.8264 29.5314 96.2059 30.3649 97.6785 31.2386C98.8218 31.9206 99.5809 32.2727 99.9742 32.4465C100.194 33.6678 100.358 34.8981 100.464 36.155C99.7409 35.6825 98.8995 35.843 98.6022 35.9678C97.5001 36.4447 97.2806 37.5992 97.2532 38.0628C97.2303 38.5843 97.3767 39.4891 98.5565 40.6881C99.4757 41.6286 100.111 42.168 100.45 42.4354C100.349 43.6968 100.18 44.936 99.9513 46.1484C99.3797 45.4976 98.5154 45.4441 98.1998 45.4976C97.0062 45.6714 96.4849 46.7456 96.3386 47.1825C96.1785 47.6772 96.0825 48.591 96.901 50.0619C97.5413 51.1985 98.0215 51.8849 98.273 52.2237C97.834 53.4094 97.3446 54.5504 96.7959 55.6826C96.4117 54.9026 95.6023 54.6351 95.2776 54.5995C94.0749 54.4702 93.2883 55.3706 93.0276 55.7628C92.7395 56.1996 92.4103 57.0599 92.8081 58.6779C93.1282 59.9394 93.4026 60.7238 93.5581 61.1161C92.8218 62.1324 92.0444 63.1353 91.2121 64.0758C91.0475 63.2378 90.3341 62.7742 90.0368 62.6717C88.9073 62.2304 87.9057 62.9079 87.5582 63.22C87.1695 63.5587 86.6161 64.3031 86.5795 65.979C86.5475 67.2583 86.6024 68.0874 86.6527 68.493C85.6786 69.3131 84.6588 70.062 83.607 70.7751C83.6665 69.9371 83.0994 69.3042 82.8479 69.1125C81.8692 68.4083 80.726 68.805 80.3007 69.0323C79.8342 69.2685 79.1025 69.8346 78.6223 71.4526C78.2382 72.6918 78.0827 73.5119 78.0187 73.9265C76.8663 74.4569 75.6727 74.9383 74.4654 75.3439C74.7535 74.5505 74.3739 73.7794 74.1727 73.5431C73.4181 72.6205 72.2063 72.7185 71.7444 72.8166C71.2276 72.9191 70.3724 73.3024 69.4761 74.7199C68.7764 75.8387 68.4106 76.5741 68.2368 76.9574C66.9838 77.1848 65.717 77.3452 64.432 77.4299C64.9167 76.7257 64.7521 75.9144 64.6286 75.6381C64.1393 74.5549 62.9457 74.3276 62.4747 74.3187C61.9442 74.292 61.0113 74.4257 59.772 75.5846C58.8162 76.485 58.2583 77.109 57.9885 77.4255C56.7034 77.3274 55.4275 77.1669 54.1791 76.9441C54.8376 76.3824 54.897 75.5578 54.8513 75.2458C54.673 74.078 53.5709 73.552 53.1135 73.4228C52.6151 73.2668 51.6822 73.1598 50.173 73.9755C49.0023 74.5951 48.2935 75.0586 47.9505 75.3127C46.7386 74.8759 45.5588 74.3989 44.4063 73.8596C45.1883 73.4986 45.4719 72.7007 45.5039 72.3887C45.6365 71.2164 44.7173 70.4453 44.3149 70.2001C43.8713 69.9193 42.9887 69.585 41.3241 69.9817C40.039 70.2848 39.2433 70.5701 38.8363 70.7216C37.7799 70.004 36.7693 69.2463 35.7952 68.435C36.6504 68.2701 37.126 67.5748 37.2403 67.285C37.6793 66.1841 36.9888 65.2168 36.6686 64.8736C36.3119 64.4903 35.5482 63.951 33.8379 63.9153C32.5117 63.8841 31.6702 63.942 31.2404 63.9955C30.4172 63.0461 29.6352 62.0477 28.9081 61.0225C29.7724 61.0804 30.4218 60.5277 30.6093 60.2737C31.3227 59.3332 30.9202 58.2144 30.7099 57.7909C30.4675 57.3452 29.8684 56.6275 28.2267 56.1551C26.9416 55.7896 26.1139 55.6336 25.6886 55.5712C25.1398 54.439 24.6551 53.2845 24.2161 52.0989C25.0484 52.3931 25.8167 52.0276 26.0728 51.827C27.0102 51.1005 26.9234 49.9193 26.8182 49.4602C26.6947 48.9654 26.3151 48.1274 24.8472 47.2538Z" fill="#E09D64"/>
<mask id="mask0_1_338" style="mask-type:alpha" maskUnits="userSpaceOnUse" x="21" y="1" width="80" height="77">
<path d="M64.3133 77.5101L64.4276 77.5012C65.6852 77.4165 66.9657 77.2561 68.237 77.0287L68.2644 77.0243L68.2781 76.9975C68.4702 76.5741 68.8406 75.8475 69.5129 74.7644C70.3681 73.4094 71.1958 72.9948 71.7446 72.8879C71.8497 72.8656 72.0647 72.8255 72.3436 72.8255C72.865 72.8255 73.5967 72.9592 74.118 73.5921C74.3284 73.8417 74.6759 74.5906 74.4015 75.3394L74.3604 75.4508L74.4747 75.4152C75.6546 75.0185 76.8482 74.5371 78.0326 73.9933L78.06 73.9799L78.0646 73.9487C78.1195 73.5698 78.275 72.7452 78.6637 71.4793C79.025 70.267 79.5783 69.4646 80.31 69.0947C80.4472 69.0189 80.9411 68.7827 81.563 68.7827C82.0203 68.7827 82.4365 68.9119 82.7932 69.1704C83.0173 69.3398 83.5889 69.9594 83.5295 70.784L83.5203 70.8999L83.6163 70.833C84.7688 70.053 85.7657 69.3042 86.6666 68.5464L86.6895 68.5286L86.6849 68.4974C86.6529 68.2166 86.5797 67.4053 86.6117 65.9879C86.6392 64.7309 86.973 63.7904 87.5721 63.2689C87.7001 63.1575 88.377 62.5914 89.2504 62.5914C89.5019 62.5914 89.7535 62.6404 89.9913 62.7341C90.2977 62.8366 90.9791 63.3001 91.1345 64.098L91.1574 64.2094L91.2351 64.1203C91.9989 63.2556 92.7671 62.2839 93.5812 61.1562L93.5994 61.1339L93.5903 61.1071C93.4165 60.6703 93.1513 59.8903 92.8449 58.6734C92.5476 57.461 92.6208 56.4715 93.0552 55.8029C93.1833 55.6112 93.8738 54.6529 95.0263 54.6529C95.0994 54.6529 95.1726 54.6574 95.2503 54.6663C95.5293 54.6975 96.3387 54.9471 96.7229 55.7182L96.7732 55.8252L96.8235 55.7182C97.386 54.5549 97.8662 53.4227 98.3006 52.2549L98.3097 52.2281L98.2915 52.2058C98.0628 51.9027 97.5826 51.2208 96.9195 50.0485C96.2976 48.9342 96.1101 47.9803 96.357 47.2136C96.4393 46.9729 96.9012 45.7472 98.168 45.5644C98.2274 45.5555 98.3006 45.5466 98.3783 45.5466C98.5933 45.5466 99.3387 45.5912 99.8692 46.1929L99.9469 46.282L99.9698 46.1661C100.203 44.9359 100.372 43.6834 100.468 42.4487L100.473 42.4175L100.45 42.3997C100.075 42.1055 99.4439 41.5617 98.5613 40.6569C97.6695 39.752 97.2351 38.8829 97.2716 38.0716C97.2854 37.8176 97.418 36.5294 98.5841 36.0257C98.7305 35.9633 98.9957 35.8965 99.3113 35.8965C99.5902 35.8965 100.002 35.9499 100.391 36.204L100.519 36.2798L100.509 36.1639C100.404 34.9158 100.24 33.7034 100.016 32.4509L100.011 32.4242L99.9835 32.4108C99.3021 32.1077 98.5338 31.7066 97.6969 31.2073C96.5857 30.5477 95.9317 29.8167 95.7625 29.0322C95.7259 28.8806 95.447 27.539 96.4851 26.7233C96.668 26.5806 97.1253 26.3444 97.6878 26.3444C97.8936 26.3444 98.0948 26.3756 98.2869 26.4425L98.4012 26.4826L98.36 26.3711C97.8753 25.0741 97.3905 23.9374 96.8875 22.9078L96.8738 22.881L96.8418 22.8766C96.1467 22.7696 95.2732 22.569 94.3128 22.2882C93.069 21.9361 92.2458 21.3968 91.8662 20.6836C91.7062 20.3627 91.2306 19.2305 91.9577 18.2588C92.1178 18.0493 92.7443 17.4832 93.6086 17.5456L93.7275 17.5545L93.6589 17.4609C92.9409 16.4447 92.1543 15.4462 91.3266 14.4834L91.3083 14.4611L91.2763 14.4656C91.0156 14.4923 90.4303 14.5414 89.4471 14.5414C89.2138 14.5414 88.9577 14.5369 88.6834 14.5325C87.3983 14.5057 86.4334 14.1803 85.8892 13.5964C85.7154 13.4092 84.8602 12.4152 85.3313 11.2385C85.4319 10.9844 85.8846 10.2846 86.7352 10.1242L86.8541 10.1019L86.7626 10.0261C85.8069 9.23269 84.7825 8.46603 83.717 7.73949L83.6941 7.72166L83.6667 7.73057C83.2139 7.89995 82.4136 8.16293 81.188 8.46157C79.9304 8.75576 78.9198 8.68444 78.2429 8.25208C78.0234 8.1139 76.935 7.36061 77.0814 6.11256C77.1088 5.84066 77.3603 5.05617 78.1469 4.68176L78.2521 4.63273L78.1469 4.5837C76.9899 4.04882 75.7963 3.56297 74.5982 3.14398L74.5707 3.13506L74.5479 3.15289C74.3101 3.32227 73.6195 3.7992 72.3345 4.48563C71.2004 5.08737 70.2034 5.27458 69.4351 5.03389C69.2797 4.98931 67.9352 4.55249 67.7385 3.26878C67.6974 3.01471 67.7248 2.17228 68.3879 1.61065L68.4794 1.53488L68.3605 1.51259C67.0891 1.28973 65.8041 1.12481 64.5465 1.02674L64.5145 1.02229L64.4962 1.04457C64.2721 1.32093 63.7416 1.92712 62.7172 2.88545C61.8163 3.71897 60.952 4.14242 60.138 4.14242C60.1106 4.14242 60.0831 4.14242 60.0557 4.14242C59.795 4.12905 58.4643 3.99087 57.9521 2.85871C57.8194 2.54224 57.6868 1.7622 58.1441 1.09806L58.2127 1L58.0938 1.00891C56.8225 1.11143 55.5375 1.2719 54.2844 1.49031L54.2524 1.49476L54.2387 1.52151C53.9369 2.17674 53.5207 2.92557 53.004 3.74572C52.3271 4.83331 51.5726 5.46625 50.7723 5.63563C50.6717 5.65791 50.4613 5.69357 50.1869 5.69357C49.661 5.69357 48.9248 5.55985 48.3988 4.92691C48.2205 4.71296 47.8272 3.98196 48.1107 3.17518L48.1519 3.06375L48.0376 3.10386C46.7297 3.56297 45.5635 4.03544 44.4843 4.53912L44.4568 4.55249L44.4523 4.5837C44.3974 4.9492 44.2419 5.75597 43.8486 7.04414C43.4873 8.25654 42.934 9.05886 42.1977 9.43327C42.0148 9.52242 41.53 9.72746 40.9447 9.72746C40.4828 9.72746 40.0666 9.59819 39.7099 9.34413C39.4859 9.18366 38.9142 8.57301 38.9737 7.73503L38.9828 7.61914L38.8868 7.686C37.8395 8.39026 36.8152 9.15692 35.8365 9.9637L35.8137 9.98152L35.8182 10.0127C35.8594 10.3738 35.9234 11.185 35.8914 12.5356C35.8594 13.797 35.5347 14.7152 34.931 15.259C34.803 15.3704 34.1216 15.9365 33.239 15.9365C32.992 15.9365 32.7451 15.8919 32.5073 15.8028C32.2466 15.7047 31.5332 15.2724 31.3686 14.4389L31.3457 14.3274L31.268 14.4166C30.4402 15.3571 29.6765 16.3243 28.922 17.3807L28.9037 17.403V17.4164C29.0409 17.764 29.3244 18.5441 29.6491 19.8367C29.9509 21.0714 29.8778 22.0342 29.4387 22.7072C29.3107 22.8989 28.6247 23.8527 27.4769 23.8527C27.3991 23.8527 27.3214 23.8483 27.2391 23.8394C26.983 23.8171 26.1598 23.5764 25.7665 22.8008L25.7162 22.6983L25.6659 22.8008C25.1217 23.9241 24.6278 25.0874 24.1888 26.2642L24.1797 26.2909L24.198 26.3132C24.3717 26.5361 24.8473 27.1957 25.5699 28.4661C26.1918 29.5849 26.3793 30.5343 26.1324 31.2965C26.0501 31.5372 25.5882 32.763 24.3169 32.9457C24.262 32.9546 24.1934 32.9591 24.1202 32.9591C23.9053 32.9591 23.1553 32.9145 22.6157 32.3172L22.5379 32.2325L22.5151 32.344C22.2864 33.5564 22.1172 34.8089 22.0166 36.0614L22.012 36.0926L22.0349 36.1104C22.259 36.2798 22.8901 36.7924 23.9236 37.8443C24.8153 38.7581 25.2498 39.6272 25.2132 40.434C25.1995 40.6881 25.0668 41.9852 23.8961 42.4889C23.7498 42.5423 23.4846 42.6047 23.1782 42.6047C22.7666 42.6047 22.4007 42.5022 22.0898 42.2927L21.9892 42.2259L21.9983 42.3418C22.108 43.6032 22.2727 44.8557 22.4922 46.0592L22.5013 46.0948L22.5288 46.1082C22.7711 46.2063 23.4754 46.5183 24.8153 47.3072C25.922 47.9669 26.576 48.6979 26.7497 49.4869C26.7863 49.6384 27.0653 50.9934 26.0226 51.7958C25.8626 51.925 25.4098 52.1657 24.8519 52.1657C24.637 52.1657 24.4266 52.1301 24.2254 52.0587L24.1111 52.0186L24.1522 52.1301C24.6141 53.3826 25.0989 54.5192 25.6248 55.6068L25.6385 55.6335L25.6705 55.638C26.0501 55.6959 26.8778 55.843 28.1994 56.2219C29.4204 56.574 30.271 57.1267 30.6506 57.831C30.8107 58.1564 31.2863 59.293 30.5546 60.2558C30.4082 60.4564 29.7817 61.0403 28.9037 60.9823L28.7848 60.9734L28.8534 61.067C29.5851 62.1011 30.3717 63.104 31.1902 64.0445L31.2085 64.0668L31.2405 64.0623C31.5058 64.0311 32.1003 63.9732 33.1109 63.9732C33.335 63.9732 33.5728 63.9777 33.8289 63.9821C35.1094 64.0133 36.0743 64.3387 36.6185 64.9226C36.7923 65.1098 37.6429 66.1127 37.1764 67.2761C37.0758 67.5301 36.6231 68.2255 35.7725 68.3904L35.6582 68.4127L35.7496 68.4885C36.71 69.2863 37.7069 70.0396 38.7953 70.7795L38.8182 70.7974L38.8456 70.7885C39.3212 70.6102 40.0987 70.3427 41.3242 70.053C42.5727 69.7544 43.5834 69.8301 44.2693 70.267C44.4065 70.3472 45.5818 71.1005 45.4309 72.402C45.4035 72.6561 45.1428 73.4718 44.3654 73.8284L44.2556 73.8774L44.3654 73.9264C45.4858 74.4524 46.6473 74.9293 47.9141 75.3795L47.9415 75.3884L47.9644 75.3706C48.1885 75.2057 48.847 74.7466 50.1778 74.0378C51.3028 73.4272 52.2906 73.24 53.0771 73.4896C53.6305 73.6456 54.6091 74.1983 54.7738 75.2681C54.8149 75.5355 54.7829 76.3557 54.1244 76.9173L54.0329 76.9931L54.1518 77.0154C55.4277 77.2427 56.7128 77.4031 57.9658 77.4967H57.9978L58.0161 77.4745C58.3316 77.1045 58.8941 76.4849 59.795 75.638C60.6868 74.809 61.542 74.3855 62.3468 74.3855C62.388 74.3855 62.4246 74.3855 62.4612 74.39C63.0328 74.3989 64.1166 74.6797 64.5648 75.6782C64.6745 75.9233 64.8575 76.7122 64.3727 77.4165L64.3133 77.5101ZM62.3514 74.2785C61.5191 74.2785 60.6365 74.7109 59.7219 75.5623C58.8347 76.3958 58.2722 77.0109 57.9521 77.3853C56.7493 77.2962 55.5192 77.1402 54.2936 76.9262C54.9109 76.3378 54.943 75.5266 54.8972 75.2547C54.7235 74.1315 53.6991 73.552 53.1229 73.3871C52.3134 73.1286 51.2891 73.3202 50.1366 73.9443C48.8424 74.6307 48.1793 75.0853 47.9324 75.2681C46.7205 74.8313 45.6047 74.3766 44.53 73.8774C45.28 73.4762 45.5269 72.6962 45.5544 72.4154C45.7099 71.047 44.4797 70.258 44.3379 70.1733C43.6245 69.7232 42.5819 69.6429 41.3014 69.946C40.0941 70.2313 39.3212 70.4987 38.8365 70.677C37.7938 69.9639 36.8335 69.2462 35.9097 68.4796C36.742 68.2701 37.181 67.5792 37.2862 67.3207C37.7755 66.0949 36.8883 65.0474 36.7054 64.8513C36.1292 64.2317 35.1643 63.9019 33.8335 63.8751C33.5728 63.8707 33.335 63.8662 33.1109 63.8662C32.1323 63.8662 31.5378 63.9197 31.2588 63.9509C30.4768 63.0461 29.7223 62.0877 29.0134 61.0938C29.018 61.0938 29.0226 61.0938 29.0272 61.0938C29.8915 61.0938 30.4906 60.5321 30.646 60.3182C31.4097 59.3108 30.9204 58.1207 30.7512 57.7775C30.3488 57.0376 29.5028 56.476 28.2314 56.1149C26.9372 55.745 26.1095 55.5934 25.7162 55.531C25.2086 54.4835 24.7467 53.3915 24.2986 52.1969C24.4769 52.2504 24.6644 52.2727 24.8519 52.2727C25.4418 52.2727 25.9129 52.0231 26.0958 51.876C27.1888 51.0291 26.8961 49.6117 26.8595 49.4557C26.6766 48.6355 26.0089 47.8822 24.8748 47.2047C23.576 46.4425 22.8672 46.1216 22.6019 46.0101C22.3962 44.8512 22.2361 43.6522 22.1263 42.4398C22.4327 42.6181 22.7986 42.7073 23.1827 42.7073C23.5028 42.7073 23.7864 42.6449 23.9419 42.5825C25.172 42.052 25.3138 40.697 25.3275 40.4296C25.3641 39.5916 24.9205 38.6912 24.0059 37.7552C23.0044 36.7344 22.3779 36.2174 22.1309 36.0302C22.2315 34.8267 22.3916 33.6277 22.6065 32.4643C23.1644 33.017 23.8961 33.0616 24.1156 33.0616C24.198 33.0616 24.2711 33.0571 24.3306 33.0482C25.6659 32.8566 26.1507 31.5773 26.2376 31.3232C26.4982 30.5343 26.3062 29.5492 25.6659 28.4037C24.9662 27.169 24.4952 26.5093 24.3077 26.2597C24.7284 25.132 25.204 24.0177 25.7208 22.9345C26.1095 23.5942 26.8412 23.8973 27.2299 23.933C27.3122 23.9419 27.3946 23.9463 27.4769 23.9463C28.6842 23.9463 29.4022 22.9524 29.5348 22.7518C29.9967 22.0564 30.0698 21.0625 29.7634 19.7966C29.4433 18.5307 29.1644 17.7551 29.0226 17.3896C29.7451 16.3778 30.4814 15.4462 31.2726 14.5458C31.4875 15.3526 32.1917 15.7805 32.457 15.883C32.7039 15.9766 32.9646 16.0257 33.2299 16.0257C34.1536 16.0257 34.867 15.4373 34.9996 15.317C35.6307 14.7509 35.9691 13.8104 36.0012 12.5133C36.0332 11.1939 35.9737 10.3827 35.9325 10.0038C36.87 9.23269 37.8533 8.49723 38.8593 7.81526C38.8502 8.64432 39.4173 9.24161 39.6459 9.40653C40.0255 9.67397 40.4645 9.81215 40.9492 9.81215C41.5575 9.81215 42.0651 9.59819 42.2526 9.50459C43.0163 9.12126 43.5879 8.2922 43.9584 7.0486C44.3425 5.78718 44.498 4.98486 44.5574 4.60152C45.6001 4.11568 46.7159 3.66103 47.9644 3.21975C47.7312 4.02653 48.1245 4.74862 48.3028 4.96703C49.1443 5.9833 50.4842 5.78272 50.7906 5.71586C51.6229 5.54202 52.3957 4.89125 53.0954 3.77692C53.6076 2.96123 54.0192 2.21685 54.3256 1.56608C55.5329 1.36104 56.7585 1.20504 57.9841 1.10252C57.5725 1.78449 57.7097 2.55115 57.8469 2.87208C58.3865 4.06219 59.7767 4.20482 60.0511 4.22265C60.0831 4.22265 60.1106 4.22265 60.1426 4.22265C60.984 4.22265 61.8804 3.79029 62.7996 2.93448C63.8011 1.99844 64.3316 1.39225 64.5694 1.10252C65.7767 1.20058 67.0068 1.35659 68.2278 1.56608C67.6105 2.15891 67.583 2.99243 67.6288 3.25095C67.8346 4.60152 69.2431 5.05617 69.4031 5.1052C70.2034 5.35927 71.2278 5.16761 72.3894 4.54804C73.6424 3.87944 74.3329 3.41142 74.5936 3.22867C75.746 3.63428 76.8893 4.09785 78.0006 4.60598C77.246 5.02051 77.0036 5.79609 76.9716 6.07244C76.8207 7.38736 77.9548 8.17185 78.1835 8.31894C78.8878 8.76467 79.9304 8.84491 81.22 8.54181C82.4319 8.24762 83.2231 7.9891 83.6849 7.81972C84.7047 8.51506 85.688 9.25498 86.6117 10.0127C85.784 10.2178 85.3404 10.9087 85.2352 11.1716C84.7413 12.4108 85.6331 13.4493 85.816 13.6455C86.3877 14.2606 87.3572 14.5904 88.6925 14.6216C88.9669 14.6261 89.223 14.6305 89.4562 14.6305C90.4074 14.6305 90.9882 14.5859 91.2672 14.5547C92.0629 15.473 92.8174 16.4357 93.508 17.4074C93.5034 17.4074 93.4943 17.4074 93.4897 17.4074C92.6437 17.4074 92.04 17.9601 91.8754 18.1741C91.1071 19.1993 91.6056 20.3805 91.7748 20.7148C92.1726 21.4547 93.0187 22.0163 94.2946 22.3774C95.2458 22.6537 96.1147 22.8543 96.8098 22.9613C97.2945 23.9553 97.761 25.0429 98.2274 26.282C98.0582 26.2374 97.8799 26.2107 97.7015 26.2107C97.107 26.2107 96.6223 26.4647 96.4302 26.6163C95.3327 27.4721 95.6299 28.8762 95.6665 29.0366C95.8448 29.8523 96.5125 30.6056 97.6558 31.2831C98.4835 31.7779 99.2472 32.179 99.9286 32.4821C100.144 33.6812 100.299 34.849 100.404 36.0435C100.098 35.8697 99.7411 35.7761 99.3616 35.7761C99.0277 35.7761 98.7442 35.8474 98.5887 35.9143C97.3585 36.4447 97.2213 37.7908 97.2076 38.0538C97.171 38.8962 97.6146 39.7922 98.5293 40.7237C99.3981 41.6152 100.025 42.1546 100.404 42.4576C100.308 43.6433 100.148 44.8423 99.9286 46.0235C99.3753 45.4664 98.6482 45.4218 98.4286 45.4218C98.3418 45.4218 98.264 45.4262 98.2 45.4396C96.8646 45.6313 96.3799 46.9105 96.2976 47.1646C96.0369 47.958 96.229 48.9431 96.8646 50.0841C97.514 51.2297 97.9896 51.9117 98.2229 52.2281C97.8067 53.3469 97.3448 54.439 96.8098 55.5533C96.3845 54.8178 95.5842 54.5727 95.3006 54.5415C95.2229 54.5326 95.1406 54.5281 95.0628 54.5281C93.851 54.5281 93.1284 55.5265 92.9958 55.7271C92.5339 56.4269 92.4562 57.4254 92.7671 58.6823C93.069 59.8769 93.3342 60.6525 93.508 61.0982C92.726 62.1769 91.9897 63.1129 91.258 63.9464C91.0431 63.1085 90.316 62.6939 90.069 62.6092C89.8175 62.5112 89.5568 62.4622 89.287 62.4622C88.3952 62.4622 87.7184 63.006 87.5309 63.1709C86.909 63.7147 86.5614 64.6864 86.5294 65.9701C86.4974 67.3474 86.566 68.1542 86.598 68.4617C85.7291 69.1927 84.7688 69.9104 83.6712 70.6592C83.6758 69.8747 83.1682 69.2774 82.8847 69.0635C82.5051 68.7916 82.0661 68.6534 81.5813 68.6534C80.9319 68.6534 80.4152 68.8986 80.2734 68.9788C79.5097 69.3621 78.9381 70.1867 78.5676 71.4303C78.1835 72.6695 78.028 73.4896 77.9686 73.8819C76.8344 74.4034 75.6866 74.8625 74.557 75.2502C74.7994 74.4346 74.3878 73.7036 74.2186 73.503C73.6698 72.8344 72.9016 72.6962 72.3574 72.6962C72.0693 72.6962 71.8406 72.7363 71.7354 72.7586C71.1684 72.87 70.3086 73.2979 69.4306 74.6886C68.7675 75.7539 68.397 76.4805 68.2004 76.9084C66.984 77.1268 65.7538 77.2828 64.5465 77.3675C64.9809 76.6498 64.798 75.8698 64.6837 75.6202C64.2127 74.5727 63.0785 74.2785 62.4794 74.2652C62.4337 74.283 62.3926 74.2785 62.3514 74.2785Z" fill="url(#paint0_linear_1_338)"/>
</mask>
<g mask="url(#mask0_1_338)">
<path d="M64.3133 77.5101L64.4276 77.5012C65.6852 77.4165 66.9657 77.2561 68.237 77.0287L68.2644 77.0243L68.2781 76.9975C68.4702 76.5741 68.8406 75.8475 69.5129 74.7644C70.3681 73.4094 71.1958 72.9948 71.7446 72.8879C71.8497 72.8656 72.0647 72.8255 72.3436 72.8255C72.865 72.8255 73.5967 72.9592 74.118 73.5921C74.3284 73.8417 74.6759 74.5906 74.4015 75.3394L74.3604 75.4508L74.4747 75.4152C75.6546 75.0185 76.8482 74.5371 78.0326 73.9933L78.06 73.9799L78.0646 73.9487C78.1195 73.5698 78.275 72.7452 78.6637 71.4793C79.025 70.267 79.5783 69.4646 80.31 69.0947C80.4472 69.0189 80.9411 68.7827 81.563 68.7827C82.0203 68.7827 82.4365 68.9119 82.7932 69.1704C83.0173 69.3398 83.5889 69.9594 83.5295 70.784L83.5203 70.8999L83.6163 70.833C84.7688 70.053 85.7657 69.3042 86.6666 68.5464L86.6895 68.5286L86.6849 68.4974C86.6529 68.2166 86.5797 67.4053 86.6117 65.9879C86.6392 64.7309 86.973 63.7904 87.5721 63.2689C87.7001 63.1575 88.377 62.5914 89.2504 62.5914C89.5019 62.5914 89.7535 62.6404 89.9913 62.7341C90.2977 62.8366 90.9791 63.3001 91.1345 64.098L91.1574 64.2094L91.2351 64.1203C91.9989 63.2556 92.7671 62.2839 93.5812 61.1562L93.5994 61.1339L93.5903 61.1071C93.4165 60.6703 93.1513 59.8903 92.8449 58.6734C92.5476 57.461 92.6208 56.4715 93.0552 55.8029C93.1833 55.6112 93.8738 54.6529 95.0263 54.6529C95.0994 54.6529 95.1726 54.6574 95.2503 54.6663C95.5293 54.6975 96.3387 54.9471 96.7229 55.7182L96.7732 55.8252L96.8235 55.7182C97.386 54.5549 97.8662 53.4227 98.3006 52.2549L98.3097 52.2281L98.2915 52.2058C98.0628 51.9027 97.5826 51.2208 96.9195 50.0485C96.2976 48.9342 96.1101 47.9803 96.357 47.2136C96.4393 46.9729 96.9012 45.7472 98.168 45.5644C98.2274 45.5555 98.3006 45.5466 98.3783 45.5466C98.5933 45.5466 99.3387 45.5912 99.8692 46.1929L99.9469 46.282L99.9698 46.1661C100.203 44.9359 100.372 43.6834 100.468 42.4487L100.473 42.4175L100.45 42.3997C100.075 42.1055 99.4439 41.5617 98.5613 40.6569C97.6695 39.752 97.2351 38.8829 97.2716 38.0716C97.2854 37.8176 97.418 36.5294 98.5841 36.0257C98.7305 35.9633 98.9957 35.8965 99.3113 35.8965C99.5902 35.8965 100.002 35.9499 100.391 36.204L100.519 36.2798L100.509 36.1639C100.404 34.9158 100.24 33.7034 100.016 32.4509L100.011 32.4242L99.9835 32.4108C99.3021 32.1077 98.5338 31.7066 97.6969 31.2073C96.5857 30.5477 95.9317 29.8167 95.7625 29.0322C95.7259 28.8806 95.447 27.539 96.4851 26.7233C96.668 26.5806 97.1253 26.3444 97.6878 26.3444C97.8936 26.3444 98.0948 26.3756 98.2869 26.4425L98.4012 26.4826L98.36 26.3711C97.8753 25.0741 97.3905 23.9374 96.8875 22.9078L96.8738 22.881L96.8418 22.8766C96.1467 22.7696 95.2732 22.569 94.3128 22.2882C93.069 21.9361 92.2458 21.3968 91.8662 20.6836C91.7062 20.3627 91.2306 19.2305 91.9577 18.2588C92.1178 18.0493 92.7443 17.4832 93.6086 17.5456L93.7275 17.5545L93.6589 17.4609C92.9409 16.4447 92.1543 15.4462 91.3266 14.4834L91.3083 14.4611L91.2763 14.4656C91.0156 14.4923 90.4303 14.5414 89.4471 14.5414C89.2138 14.5414 88.9577 14.5369 88.6834 14.5325C87.3983 14.5057 86.4334 14.1803 85.8892 13.5964C85.7154 13.4092 84.8602 12.4152 85.3313 11.2385C85.4319 10.9844 85.8846 10.2846 86.7352 10.1242L86.8541 10.1019L86.7626 10.0261C85.8069 9.23269 84.7825 8.46603 83.717 7.73949L83.6941 7.72166L83.6667 7.73057C83.2139 7.89995 82.4136 8.16293 81.188 8.46157C79.9304 8.75576 78.9198 8.68444 78.2429 8.25208C78.0234 8.1139 76.935 7.36061 77.0814 6.11256C77.1088 5.84066 77.3603 5.05617 78.1469 4.68176L78.2521 4.63273L78.1469 4.5837C76.9899 4.04882 75.7963 3.56297 74.5982 3.14398L74.5707 3.13506L74.5479 3.15289C74.3101 3.32227 73.6195 3.7992 72.3345 4.48563C71.2004 5.08737 70.2034 5.27458 69.4351 5.03389C69.2797 4.98931 67.9352 4.55249 67.7385 3.26878C67.6974 3.01471 67.7248 2.17228 68.3879 1.61065L68.4794 1.53488L68.3605 1.51259C67.0891 1.28973 65.8041 1.12481 64.5465 1.02674L64.5145 1.02229L64.4962 1.04457C64.2721 1.32093 63.7416 1.92712 62.7172 2.88545C61.8163 3.71897 60.952 4.14242 60.138 4.14242C60.1106 4.14242 60.0831 4.14242 60.0557 4.14242C59.795 4.12905 58.4643 3.99087 57.9521 2.85871C57.8194 2.54224 57.6868 1.7622 58.1441 1.09806L58.2127 1L58.0938 1.00891C56.8225 1.11143 55.5375 1.2719 54.2844 1.49031L54.2524 1.49476L54.2387 1.52151C53.9369 2.17674 53.5207 2.92557 53.004 3.74572C52.3271 4.83331 51.5726 5.46625 50.7723 5.63563C50.6717 5.65791 50.4613 5.69357 50.1869 5.69357C49.661 5.69357 48.9248 5.55985 48.3988 4.92691C48.2205 4.71296 47.8272 3.98196 48.1107 3.17518L48.1519 3.06375L48.0376 3.10386C46.7297 3.56297 45.5635 4.03544 44.4843 4.53912L44.4568 4.55249L44.4523 4.5837C44.3974 4.9492 44.2419 5.75597 43.8486 7.04414C43.4873 8.25654 42.934 9.05886 42.1977 9.43327C42.0148 9.52242 41.53 9.72746 40.9447 9.72746C40.4828 9.72746 40.0666 9.59819 39.7099 9.34413C39.4859 9.18366 38.9142 8.57301 38.9737 7.73503L38.9828 7.61914L38.8868 7.686C37.8395 8.39026 36.8152 9.15692 35.8365 9.9637L35.8137 9.98152L35.8182 10.0127C35.8594 10.3738 35.9234 11.185 35.8914 12.5356C35.8594 13.797 35.5347 14.7152 34.931 15.259C34.803 15.3704 34.1216 15.9365 33.239 15.9365C32.992 15.9365 32.7451 15.8919 32.5073 15.8028C32.2466 15.7047 31.5332 15.2724 31.3686 14.4389L31.3457 14.3274L31.268 14.4166C30.4402 15.3571 29.6765 16.3243 28.922 17.3807L28.9037 17.403V17.4164C29.0409 17.764 29.3244 18.5441 29.6491 19.8367C29.9509 21.0714 29.8778 22.0342 29.4387 22.7072C29.3107 22.8989 28.6247 23.8527 27.4769 23.8527C27.3991 23.8527 27.3214 23.8483 27.2391 23.8394C26.983 23.8171 26.1598 23.5764 25.7665 22.8008L25.7162 22.6983L25.6659 22.8008C25.1217 23.9241 24.6278 25.0874 24.1888 26.2642L24.1797 26.2909L24.198 26.3132C24.3717 26.5361 24.8473 27.1957 25.5699 28.4661C26.1918 29.5849 26.3793 30.5343 26.1324 31.2965C26.0501 31.5372 25.5882 32.763 24.3169 32.9457C24.262 32.9546 24.1934 32.9591 24.1202 32.9591C23.9053 32.9591 23.1553 32.9145 22.6157 32.3172L22.5379 32.2325L22.5151 32.344C22.2864 33.5564 22.1172 34.8089 22.0166 36.0614L22.012 36.0926L22.0349 36.1104C22.259 36.2798 22.8901 36.7924 23.9236 37.8443C24.8153 38.7581 25.2498 39.6272 25.2132 40.434C25.1995 40.6881 25.0668 41.9852 23.8961 42.4889C23.7498 42.5423 23.4846 42.6047 23.1782 42.6047C22.7666 42.6047 22.4007 42.5022 22.0898 42.2927L21.9892 42.2259L21.9983 42.3418C22.108 43.6032 22.2727 44.8557 22.4922 46.0592L22.5013 46.0948L22.5288 46.1082C22.7711 46.2063 23.4754 46.5183 24.8153 47.3072C25.922 47.9669 26.576 48.6979 26.7497 49.4869C26.7863 49.6384 27.0653 50.9934 26.0226 51.7958C25.8626 51.925 25.4098 52.1657 24.8519 52.1657C24.637 52.1657 24.4266 52.1301 24.2254 52.0587L24.1111 52.0186L24.1522 52.1301C24.6141 53.3826 25.0989 54.5192 25.6248 55.6068L25.6385 55.6335L25.6705 55.638C26.0501 55.6959 26.8778 55.843 28.1994 56.2219C29.4204 56.574 30.271 57.1267 30.6506 57.831C30.8107 58.1564 31.2863 59.293 30.5546 60.2558C30.4082 60.4564 29.7817 61.0403 28.9037 60.9823L28.7848 60.9734L28.8534 61.067C29.5851 62.1011 30.3717 63.104 31.1902 64.0445L31.2085 64.0668L31.2405 64.0623C31.5058 64.0311 32.1003 63.9732 33.1109 63.9732C33.335 63.9732 33.5728 63.9777 33.8289 63.9821C35.1094 64.0133 36.0743 64.3387 36.6185 64.9226C36.7923 65.1098 37.6429 66.1127 37.1764 67.2761C37.0758 67.5301 36.6231 68.2255 35.7725 68.3904L35.6582 68.4127L35.7496 68.4885C36.71 69.2863 37.7069 70.0396 38.7953 70.7795L38.8182 70.7974L38.8456 70.7885C39.3212 70.6102 40.0987 70.3427 41.3242 70.053C42.5727 69.7544 43.5834 69.8301 44.2693 70.267C44.4065 70.3472 45.5818 71.1005 45.4309 72.402C45.4035 72.6561 45.1428 73.4718 44.3654 73.8284L44.2556 73.8774L44.3654 73.9264C45.4858 74.4524 46.6473 74.9293 47.9141 75.3795L47.9415 75.3884L47.9644 75.3706C48.1885 75.2057 48.847 74.7466 50.1778 74.0378C51.3028 73.4272 52.2906 73.24 53.0771 73.4896C53.6305 73.6456 54.6091 74.1983 54.7738 75.2681C54.8149 75.5355 54.7829 76.3557 54.1244 76.9173L54.0329 76.9931L54.1518 77.0154C55.4277 77.2427 56.7128 77.4031 57.9658 77.4967H57.9978L58.0161 77.4745C58.3316 77.1045 58.8941 76.4849 59.795 75.638C60.6868 74.809 61.542 74.3855 62.3468 74.3855C62.388 74.3855 62.4246 74.3855 62.4612 74.39C63.0328 74.3989 64.1166 74.6797 64.5648 75.6782C64.6745 75.9233 64.8575 76.7122 64.3727 77.4165L64.3133 77.5101ZM62.3514 74.2785C61.5191 74.2785 60.6365 74.7109 59.7219 75.5623C58.8347 76.3958 58.2722 77.0109 57.9521 77.3853C56.7493 77.2962 55.5192 77.1402 54.2936 76.9262C54.9109 76.3378 54.943 75.5266 54.8972 75.2547C54.7235 74.1315 53.6991 73.552 53.1229 73.3871C52.3134 73.1286 51.2891 73.3202 50.1366 73.9443C48.8424 74.6307 48.1793 75.0853 47.9324 75.2681C46.7205 74.8313 45.6047 74.3766 44.53 73.8774C45.28 73.4762 45.5269 72.6962 45.5544 72.4154C45.7099 71.047 44.4797 70.258 44.3379 70.1733C43.6245 69.7232 42.5819 69.6429 41.3014 69.946C40.0941 70.2313 39.3212 70.4987 38.8365 70.677C37.7938 69.9639 36.8335 69.2462 35.9097 68.4796C36.742 68.2701 37.181 67.5792 37.2862 67.3207C37.7755 66.0949 36.8883 65.0474 36.7054 64.8513C36.1292 64.2317 35.1643 63.9019 33.8335 63.8751C33.5728 63.8707 33.335 63.8662 33.1109 63.8662C32.1323 63.8662 31.5378 63.9197 31.2588 63.9509C30.4768 63.0461 29.7223 62.0877 29.0134 61.0938C29.018 61.0938 29.0226 61.0938 29.0272 61.0938C29.8915 61.0938 30.4906 60.5321 30.646 60.3182C31.4097 59.3108 30.9204 58.1207 30.7512 57.7775C30.3488 57.0376 29.5028 56.476 28.2314 56.1149C26.9372 55.745 26.1095 55.5934 25.7162 55.531C25.2086 54.4835 24.7467 53.3915 24.2986 52.1969C24.4769 52.2504 24.6644 52.2727 24.8519 52.2727C25.4418 52.2727 25.9129 52.0231 26.0958 51.876C27.1888 51.0291 26.8961 49.6117 26.8595 49.4557C26.6766 48.6355 26.0089 47.8822 24.8748 47.2047C23.576 46.4425 22.8672 46.1216 22.6019 46.0101C22.3962 44.8512 22.2361 43.6522 22.1263 42.4398C22.4327 42.6181 22.7986 42.7073 23.1827 42.7073C23.5028 42.7073 23.7864 42.6449 23.9419 42.5825C25.172 42.052 25.3138 40.697 25.3275 40.4296C25.3641 39.5916 24.9205 38.6912 24.0059 37.7552C23.0044 36.7344 22.3779 36.2174 22.1309 36.0302C22.2315 34.8267 22.3916 33.6277 22.6065 32.4643C23.1644 33.017 23.8961 33.0616 24.1156 33.0616C24.198 33.0616 24.2711 33.0571 24.3306 33.0482C25.6659 32.8566 26.1507 31.5773 26.2376 31.3232C26.4982 30.5343 26.3062 29.5492 25.6659 28.4037C24.9662 27.169 24.4952 26.5093 24.3077 26.2597C24.7284 25.132 25.204 24.0177 25.7208 22.9345C26.1095 23.5942 26.8412 23.8973 27.2299 23.933C27.3122 23.9419 27.3946 23.9463 27.4769 23.9463C28.6842 23.9463 29.4022 22.9524 29.5348 22.7518C29.9967 22.0564 30.0698 21.0625 29.7634 19.7966C29.4433 18.5307 29.1644 17.7551 29.0226 17.3896C29.7451 16.3778 30.4814 15.4462 31.2726 14.5458C31.4875 15.3526 32.1917 15.7805 32.457 15.883C32.7039 15.9766 32.9646 16.0257 33.2299 16.0257C34.1536 16.0257 34.867 15.4373 34.9996 15.317C35.6307 14.7509 35.9691 13.8104 36.0012 12.5133C36.0332 11.1939 35.9737 10.3827 35.9325 10.0038C36.87 9.23269 37.8533 8.49723 38.8593 7.81526C38.8502 8.64432 39.4173 9.24161 39.6459 9.40653C40.0255 9.67397 40.4645 9.81215 40.9492 9.81215C41.5575 9.81215 42.0651 9.59819 42.2526 9.50459C43.0163 9.12126 43.5879 8.2922 43.9584 7.0486C44.3425 5.78718 44.498 4.98486 44.5574 4.60152C45.6001 4.11568 46.7159 3.66103 47.9644 3.21975C47.7312 4.02653 48.1245 4.74862 48.3028 4.96703C49.1443 5.9833 50.4842 5.78272 50.7906 5.71586C51.6229 5.54202 52.3957 4.89125 53.0954 3.77692C53.6076 2.96123 54.0192 2.21685 54.3256 1.56608C55.5329 1.36104 56.7585 1.20504 57.9841 1.10252C57.5725 1.78449 57.7097 2.55115 57.8469 2.87208C58.3865 4.06219 59.7767 4.20482 60.0511 4.22265C60.0831 4.22265 60.1106 4.22265 60.1426 4.22265C60.984 4.22265 61.8804 3.79029 62.7996 2.93448C63.8011 1.99844 64.3316 1.39225 64.5694 1.10252C65.7767 1.20058 67.0068 1.35659 68.2278 1.56608C67.6105 2.15891 67.583 2.99243 67.6288 3.25095C67.8346 4.60152 69.2431 5.05617 69.4031 5.1052C70.2034 5.35927 71.2278 5.16761 72.3894 4.54804C73.6424 3.87944 74.3329 3.41142 74.5936 3.22867C75.746 3.63428 76.8893 4.09785 78.0006 4.60598C77.246 5.02051 77.0036 5.79609 76.9716 6.07244C76.8207 7.38736 77.9548 8.17185 78.1835 8.31894C78.8878 8.76467 79.9304 8.84491 81.22 8.54181C82.4319 8.24762 83.2231 7.9891 83.6849 7.81972C84.7047 8.51506 85.688 9.25498 86.6117 10.0127C85.784 10.2178 85.3404 10.9087 85.2352 11.1716C84.7413 12.4108 85.6331 13.4493 85.816 13.6455C86.3877 14.2606 87.3572 14.5904 88.6925 14.6216C88.9669 14.6261 89.223 14.6305 89.4562 14.6305C90.4074 14.6305 90.9882 14.5859 91.2672 14.5547C92.0629 15.473 92.8174 16.4357 93.508 17.4074C93.5034 17.4074 93.4943 17.4074 93.4897 17.4074C92.6437 17.4074 92.04 17.9601 91.8754 18.1741C91.1071 19.1993 91.6056 20.3805 91.7748 20.7148C92.1726 21.4547 93.0187 22.0163 94.2946 22.3774C95.2458 22.6537 96.1147 22.8543 96.8098 22.9613C97.2945 23.9553 97.761 25.0429 98.2274 26.282C98.0582 26.2374 97.8799 26.2107 97.7015 26.2107C97.107 26.2107 96.6223 26.4647 96.4302 26.6163C95.3327 27.4721 95.6299 28.8762 95.6665 29.0366C95.8448 29.8523 96.5125 30.6056 97.6558 31.2831C98.4835 31.7779 99.2472 32.179 99.9286 32.4821C100.144 33.6812 100.299 34.849 100.404 36.0435C100.098 35.8697 99.7411 35.7761 99.3616 35.7761C99.0277 35.7761 98.7442 35.8474 98.5887 35.9143C97.3585 36.4447 97.2213 37.7908 97.2076 38.0538C97.171 38.8962 97.6146 39.7922 98.5293 40.7237C99.3981 41.6152 100.025 42.1546 100.404 42.4576C100.308 43.6433 100.148 44.8423 99.9286 46.0235C99.3753 45.4664 98.6482 45.4218 98.4286 45.4218C98.3418 45.4218 98.264 45.4262 98.2 45.4396C96.8646 45.6313 96.3799 46.9105 96.2976 47.1646C96.0369 47.958 96.229 48.9431 96.8646 50.0841C97.514 51.2297 97.9896 51.9117 98.2229 52.2281C97.8067 53.3469 97.3448 54.439 96.8098 55.5533C96.3845 54.8178 95.5842 54.5727 95.3006 54.5415C95.2229 54.5326 95.1406 54.5281 95.0628 54.5281C93.851 54.5281 93.1284 55.5265 92.9958 55.7271C92.5339 56.4269 92.4562 57.4254 92.7671 58.6823C93.069 59.8769 93.3342 60.6525 93.508 61.0982C92.726 62.1769 91.9897 63.1129 91.258 63.9464C91.0431 63.1085 90.316 62.6939 90.069 62.6092C89.8175 62.5112 89.5568 62.4622 89.287 62.4622C88.3952 62.4622 87.7184 63.006 87.5309 63.1709C86.909 63.7147 86.5614 64.6864 86.5294 65.9701C86.4974 67.3474 86.566 68.1542 86.598 68.4617C85.7291 69.1927 84.7688 69.9104 83.6712 70.6592C83.6758 69.8747 83.1682 69.2774 82.8847 69.0635C82.5051 68.7916 82.0661 68.6534 81.5813 68.6534C80.9319 68.6534 80.4152 68.8986 80.2734 68.9788C79.5097 69.3621 78.9381 70.1867 78.5676 71.4303C78.1835 72.6695 78.028 73.4896 77.9686 73.8819C76.8344 74.4034 75.6866 74.8625 74.557 75.2502C74.7994 74.4346 74.3878 73.7036 74.2186 73.503C73.6698 72.8344 72.9016 72.6962 72.3574 72.6962C72.0693 72.6962 71.8406 72.7363 71.7354 72.7586C71.1684 72.87 70.3086 73.2979 69.4306 74.6886C68.7675 75.7539 68.397 76.4805 68.2004 76.9084C66.984 77.1268 65.7538 77.2828 64.5465 77.3675C64.9809 76.6498 64.798 75.8698 64.6837 75.6202C64.2127 74.5727 63.0785 74.2785 62.4794 74.2652C62.4337 74.283 62.3926 74.2785 62.3514 74.2785Z" fill="#E09D64"/>
</g>
<circle cx="61.5" cy="48.5" r="10.5" fill="#222222"/>
</g>
<rect y="24" width="124" height="2" rx="1" fill="#E09D64"/>
<rect y="50" width="124" height="2" rx="1" fill="#E09D64"/>
<defs>
<linearGradient id="paint0_linear_1_338" x1="100.519" y1="39.2508" x2="21.9935" y2="39.2508" gradientUnits="userSpaceOnUse">
<stop/>
<stop offset="0.6237" stop-color="white"/>
<stop offset="1"/>
</linearGradient>
<clipPath id="clip0_1_338">
<rect width="80" height="25" fill="white" transform="translate(21)"/>
</clipPath>
<clipPath id="clip1_1_338">
<rect width="79" height="26" fill="white" transform="translate(22 52)"/>
</clipPath>
</defs>
</svg>
