<svg width="16" height="16" viewBox="0 0 16 16" fill="none" xmlns="http://www.w3.org/2000/svg"><path d="M6.98793 3.96853L4.61984 1.23519C4.34684 0.920209 3.84635 0.921609 3.52925 1.23939L1.58186 3.19017C1.00226 3.77044 0.836363 4.63209 1.17166 5.32295C3.17478 9.47017 6.51966 12.8196 10.6643 14.8284C11.3545 15.1637 12.2155 14.9978 12.7951 14.4175L14.7607 12.4485C15.0792 12.13 15.0799 11.6268 14.7621 11.3538L12.0181 8.99843C11.7311 8.75204 11.2852 8.78424 10.9975 9.07262L10.0427 10.0288C9.99383 10.08 9.92949 10.1138 9.85956 10.1249C9.78963 10.136 9.71798 10.1239 9.65562 10.0904C8.09494 9.19168 6.80033 7.89545 5.90364 6.33369C5.87005 6.27121 5.8579 6.19945 5.86902 6.12941C5.88015 6.05936 5.91395 5.9949 5.96524 5.94591L6.91723 4.99327C7.20563 4.70348 7.23713 4.25551 6.98793 3.96783V3.96853Z" stroke="currentColor" stroke-width="1.5" stroke-linecap="round" stroke-linejoin="round"/></svg>