<svg width="245" height="202" viewBox="0 0 245 202" fill="none" xmlns="http://www.w3.org/2000/svg">
<path d="M219.654 49.7593C213.157 28.0871 188.632 9.53362 166.568 14.5816C166.168 14.6592 165.779 14.7756 165.379 14.8532C133.893 22.641 143.345 62.6446 116.592 75.49C89.8383 88.3353 61.7318 72.3792 32.5137 97.0536C6.29829 119.177 20.1895 195.311 109.705 171.694C181.296 152.816 239.05 114.465 219.654 49.7593Z" fill="#7498CC"/>
<path d="M141.26 41.4419L139.956 43.6849C139.486 44.4152 139.069 45.1976 138.599 45.9279C137.713 47.4406 136.774 48.9011 135.835 50.3617C134.896 51.8222 133.957 53.2827 133.018 54.6389C132.549 55.317 132.027 55.9952 131.558 56.6211C131.088 57.247 130.567 57.873 130.149 58.3424C130.045 58.4468 129.941 58.5511 129.836 58.7076C129.836 58.7076 129.836 58.7076 129.836 58.7597L129.784 58.8119C129.68 58.9162 129.523 59.0206 129.315 59.177C128.897 59.4379 128.324 59.6987 127.645 59.9595C127.019 60.2203 126.289 60.4289 125.507 60.6376C124.777 60.8462 123.994 61.0027 123.159 61.1592C122.377 61.3157 121.542 61.4722 120.708 61.5765C119.873 61.6808 119.039 61.7851 118.204 61.8895C117.369 61.9938 116.535 62.046 115.648 62.1503C115.231 62.2024 114.814 62.2024 114.396 62.2546L113.77 62.3068L113.197 62.3589H113.04C110.901 62.4633 109.284 64.2889 109.389 66.4276C109.493 68.4097 111.058 69.9746 112.988 70.0789L113.718 70.1311L114.448 70.1832C114.918 70.1832 115.387 70.2354 115.857 70.2354C116.796 70.2876 117.735 70.2876 118.674 70.2876C120.551 70.2876 122.481 70.1832 124.411 69.9746C125.402 69.8703 126.394 69.7659 127.385 69.5573C128.376 69.4008 129.419 69.14 130.462 68.827C131.505 68.5141 132.601 68.1489 133.748 67.523C134.322 67.21 134.948 66.897 135.522 66.4276C135.678 66.3232 135.835 66.1668 135.991 66.0624L136.2 65.8538L136.304 65.7495L136.356 65.6973L136.409 65.6451C136.617 65.4365 136.826 65.2278 137.035 65.0714C137.817 64.2889 138.495 63.5065 139.173 62.7762C139.799 62.046 140.425 61.2635 140.999 60.5333C142.146 59.0206 143.242 57.5079 144.285 55.9952C145.328 54.4825 146.372 52.9176 147.363 51.4049C147.832 50.6225 148.354 49.84 148.823 49.0576L149.554 47.8579L150.284 46.6581C151.744 44.2065 150.962 40.9725 148.458 39.5119C146.006 38.0514 142.772 38.8338 141.312 41.3376L141.26 41.4419Z" fill="#F2B492"/>
<path d="M131.714 62.7243C131.766 62.7243 131.766 62.7243 131.818 62.7243C131.923 62.6721 132.027 62.5157 131.975 62.4113C131.14 60.5335 129.888 59.3338 129.836 59.2816C129.732 59.1773 129.575 59.1773 129.471 59.2816C129.367 59.3859 129.367 59.5424 129.471 59.6467C129.471 59.6467 130.723 60.7943 131.505 62.62C131.505 62.6721 131.61 62.7243 131.714 62.7243Z" fill="#892316"/>
<path d="M132.079 60.1162C132.183 60.1162 132.288 60.0119 132.34 59.9076C132.392 59.7511 132.288 59.6467 132.131 59.5946C132.079 59.5946 130.879 59.2816 129.836 59.4381C129.68 59.4381 129.575 59.5946 129.628 59.6989C129.628 59.8554 129.784 59.9597 129.888 59.9076C130.827 59.8032 131.975 60.064 131.975 60.064C132.027 60.1162 132.027 60.1162 132.079 60.1162Z" fill="#892316"/>
<path d="M143.502 36.9041C143.502 36.9041 135 49.6838 133.018 52.2397C133.018 52.2397 136.669 57.9775 142.094 62.2548L148.249 53.3351C148.249 53.2829 149.501 39.9295 143.502 36.9041Z" fill="#FFCD00"/>
<path d="M133.121 181.706L132.391 190.677L139.015 190.782L140.528 182.175L133.121 181.706Z" fill="#F2B492"/>
<path d="M116.43 201.214L140.738 200.954C140.894 200.641 140.999 200.171 141.051 199.597C141.155 197.563 140.477 194.277 140.164 192.19C140.112 191.93 140.112 191.721 140.06 191.512C140.008 191.147 139.956 190.886 139.956 190.678C139.956 189.008 138.443 189.269 138.443 189.269C135.991 191.721 133.174 188.122 131.557 189.321C131.557 189.321 130.879 189.843 128.949 191.564C127.019 193.338 123.785 194.485 120.969 195.685C117.369 197.25 116.378 198.763 116.17 199.806C116.065 200.693 116.43 201.214 116.43 201.214Z" fill="#FFAD33"/>
<path d="M116.429 201.214L140.737 200.953C140.893 200.64 140.998 200.171 141.05 199.597L116.221 199.858C116.064 200.692 116.429 201.214 116.429 201.214Z" fill="#2D3D0C"/>
<path d="M138.288 201.006H139.018C138.288 200.171 137.61 198.919 137.662 197.146C137.766 194.746 139.174 193.129 140.165 192.242C140.113 191.982 140.113 191.773 140.061 191.564C138.966 192.399 137.192 194.224 137.088 197.093C137.036 198.815 137.61 200.067 138.288 201.006Z" fill="#2D3D0C"/>
<path d="M129.42 193.077C129.576 193.077 129.785 192.973 129.785 192.764C129.837 192.555 129.681 192.347 129.472 192.294L127.959 191.929C127.751 191.877 127.542 192.034 127.49 192.242C127.438 192.451 127.594 192.66 127.803 192.712L129.316 193.077C129.368 193.077 129.368 193.077 129.42 193.077Z" fill="#2D3D0C"/>
<path d="M131.087 191.721C131.244 191.721 131.453 191.617 131.453 191.408C131.505 191.199 131.348 190.991 131.14 190.938L129.627 190.573C129.418 190.521 129.21 190.678 129.157 190.886C129.105 191.095 129.262 191.304 129.47 191.356L130.983 191.721C131.035 191.721 131.035 191.721 131.087 191.721Z" fill="#2D3D0C"/>
<path d="M127.905 193.965C128.062 193.965 128.27 193.86 128.27 193.652C128.322 193.443 128.166 193.235 127.957 193.182L126.445 192.817C126.236 192.765 126.027 192.922 125.975 193.13C125.923 193.339 126.079 193.548 126.288 193.6L127.801 193.965C127.853 193.965 127.905 193.965 127.905 193.965Z" fill="#2D3D0C"/>
<path d="M126.393 194.851C126.55 194.851 126.758 194.746 126.758 194.538C126.811 194.329 126.654 194.121 126.445 194.068L124.933 193.703C124.724 193.651 124.516 193.808 124.463 194.016C124.411 194.225 124.568 194.433 124.776 194.486L126.289 194.851C126.341 194.851 126.393 194.851 126.393 194.851Z" fill="#2D3D0C"/>
<path d="M124.777 195.63C124.934 195.63 125.142 195.526 125.142 195.317C125.195 195.109 125.038 194.9 124.829 194.848L123.317 194.483C123.108 194.431 122.899 194.587 122.847 194.796C122.795 195.004 122.952 195.213 123.16 195.265L124.673 195.63C124.673 195.63 124.725 195.63 124.777 195.63Z" fill="#2D3D0C"/>
<path d="M122.952 196.311C123.108 196.311 123.317 196.207 123.317 195.999C123.369 195.79 123.213 195.581 123.004 195.529L121.491 195.164C121.283 195.112 121.074 195.268 121.022 195.477C120.97 195.686 121.126 195.894 121.335 195.946L122.848 196.311C122.9 196.311 122.952 196.311 122.952 196.311Z" fill="#2D3D0C"/>
<path d="M132.287 128.97C132.183 129.857 132.079 130.639 132.027 131.318C132.027 131.474 131.974 131.683 131.974 131.891C131.244 140.55 131.922 170.335 132.131 179.62C132.131 179.933 132.131 180.193 132.131 180.506C132.183 181.758 132.027 183.636 132.027 183.636L140.946 184.419C140.946 184.419 141.259 182.593 141.468 181.393C141.52 181.08 141.572 180.767 141.677 180.454C142.668 175.499 144.806 164.858 146.58 155.521C149.031 142.845 148.51 135.334 148.51 135.334C148.51 135.334 147.988 132.309 149.918 124.954C151.483 118.851 156.699 99.5508 158.577 93.0827C158.942 91.7787 159.203 91.0484 159.203 91.0484C159.203 91.0484 146.841 82.546 142.668 86.3538C142.355 86.6668 141.259 89.4836 141.051 89.9009C140.529 90.9441 139.955 92.6654 139.277 94.8041C136.565 103.672 133.435 120.311 132.287 128.97Z" fill="#153769"/>
<path d="M140.425 180.923C140.581 180.923 140.738 180.819 140.738 180.662C140.79 180.454 144.181 157.137 145.38 150.147C146.424 144.253 146.789 132.673 146.789 131.995C149.553 120.884 156.908 92.6126 157.012 92.2996C157.065 92.1431 156.96 91.9866 156.804 91.9345C156.647 91.8823 156.491 91.9866 156.439 92.1431C156.386 92.4039 149.032 120.78 146.215 131.891V131.943C146.215 132.047 145.85 144.044 144.807 150.043C143.607 157.033 140.164 180.349 140.164 180.558C140.164 180.766 140.268 180.871 140.425 180.923Z" fill="#477CD9"/>
<path d="M164.42 183.061L164.733 190.677L172.505 190.833L171.931 183.687L164.42 183.061Z" fill="#F2B492"/>
<path d="M174.278 199.441C174.278 199.493 174.278 199.546 174.278 199.598C174.278 199.859 174.278 200.119 174.226 200.328C174.174 200.797 174.174 201.058 174.174 201.058H159.099C159.099 201.058 159.047 200.484 159.099 199.598C159.203 198.085 159.725 195.633 161.811 194.016C164.68 191.826 163.533 192.295 164.158 191.252C164.211 191.147 164.732 189.426 164.784 189.322C165.254 188.279 165.723 187.809 168.436 187.809C172.035 187.809 172.348 189.53 172.713 190.469C172.87 190.834 173.078 191.669 173.287 192.608C173.391 192.973 173.443 193.39 173.548 193.808C173.756 194.851 173.965 195.946 174.121 196.781C174.226 197.72 174.278 198.659 174.278 199.441Z" fill="#FFAD33"/>
<path d="M174.278 199.442C174.278 199.494 174.278 199.546 174.278 199.598C174.278 199.859 174.278 200.12 174.226 200.329C173.496 199.807 172.974 199.129 172.661 198.294C171.723 195.738 173.183 192.713 173.235 192.609H173.287C173.392 192.974 173.444 193.391 173.548 193.808C173.183 194.852 172.818 196.573 173.34 198.086C173.548 198.607 173.861 199.077 174.278 199.442Z" fill="#2D3D0C"/>
<path d="M174.278 199.599C174.278 200.433 174.173 201.059 174.173 201.059H159.098C159.098 201.059 159.046 200.485 159.098 199.599H174.278Z" fill="#2D3D0C"/>
<path d="M168.905 192.503C168.853 192.503 168.853 192.503 168.801 192.503C166.871 191.982 165.306 192.451 165.306 192.451C165.097 192.503 164.836 192.399 164.784 192.138C164.732 191.929 164.836 191.669 165.097 191.616C165.149 191.616 166.923 191.147 169.009 191.669C169.218 191.721 169.375 191.982 169.322 192.19C169.27 192.399 169.062 192.503 168.905 192.503Z" fill="#2D3D0C"/>
<path d="M169.113 190.783C169.06 190.783 169.06 190.783 169.008 190.783C167.078 190.262 165.513 190.731 165.513 190.731C165.305 190.783 165.044 190.679 164.992 190.418C164.94 190.21 165.044 189.949 165.305 189.897C165.357 189.897 167.13 189.427 169.217 189.949C169.426 190.001 169.582 190.262 169.53 190.47C169.478 190.679 169.321 190.783 169.113 190.783Z" fill="#2D3D0C"/>
<path d="M168.227 193.86C168.175 193.86 168.175 193.86 168.123 193.86C166.245 193.39 164.628 193.807 164.628 193.807C164.419 193.86 164.158 193.755 164.106 193.494C164.054 193.286 164.158 193.025 164.419 192.973C164.471 192.973 166.245 192.503 168.331 193.025C168.54 193.077 168.696 193.338 168.644 193.547C168.592 193.755 168.436 193.86 168.227 193.86Z" fill="#2D3D0C"/>
<path d="M167.497 195.425C167.445 195.425 167.445 195.425 167.392 195.425C165.515 194.955 163.898 195.372 163.898 195.372C163.689 195.425 163.428 195.32 163.376 195.059C163.324 194.851 163.428 194.59 163.689 194.538C163.741 194.538 165.515 194.068 167.601 194.59C167.81 194.642 167.966 194.903 167.914 195.112C167.862 195.32 167.653 195.425 167.497 195.425Z" fill="#2D3D0C"/>
<path d="M156.126 96.9947C156.543 97.099 156.96 97.2033 157.378 97.3077C162.646 98.5074 168.175 98.9768 172.035 98.0901C173.965 97.6206 175.165 95.3255 175.947 92.7174C176.156 91.9871 176.312 91.2568 176.469 90.5266C177.095 87.3969 177.251 84.5279 177.251 84.5279L146.737 77.0166C146.737 77.0166 145.798 78.7379 144.754 81.0331C143.972 82.7023 143.19 84.5801 142.616 86.3536C142.303 87.3969 142.042 88.3879 141.99 89.1704C141.677 91.7263 148.458 95.0647 156.126 96.9947Z" fill="#153769"/>
<path d="M155.76 132.256C155.813 133.143 155.813 133.925 155.865 134.603C155.865 134.76 155.865 134.969 155.917 135.177C156.543 143.836 161.811 173.151 163.48 182.332C163.533 182.645 163.585 182.906 163.637 183.166C163.846 184.366 164.002 185.096 164.002 185.096L172.922 184.47C172.922 184.47 172.974 183.792 173.026 182.54C173.026 182.227 173.078 181.914 173.078 181.549C173.287 176.49 173.756 165.64 174.069 156.146C174.539 143.262 172.817 135.908 172.817 135.908C172.817 135.908 171.826 132.986 172.609 125.475C173.235 119.216 175.373 99.2897 176.26 92.6651C176.417 91.3089 176.521 90.5265 176.521 90.5265C176.521 90.5265 162.542 86.6144 159.047 90.996C158.786 91.3611 158.577 91.7262 158.421 92.1957C158.108 93.2911 157.743 95.1168 157.43 97.3597C156.073 106.54 155.552 123.493 155.76 132.256Z" fill="#153769"/>
<path d="M163.428 182.28C163.48 182.593 163.532 182.853 163.585 183.114L172.922 182.488C172.922 182.175 172.922 181.862 172.974 181.549L163.428 182.28Z" fill="#477CD9"/>
<path d="M173.078 102.941C173.183 102.941 173.339 102.837 173.339 102.733C173.391 102.576 173.287 102.42 173.13 102.42C173.13 102.42 171.513 102.002 169.844 100.698C167.653 98.8727 166.454 96.3168 166.245 93.0306C166.245 92.8741 166.088 92.7698 165.932 92.7698C165.776 92.7698 165.671 92.9263 165.671 93.0828C165.932 97.4122 167.914 99.8638 169.531 101.168C171.253 102.576 172.922 102.994 173.026 102.994C173.026 102.941 173.026 102.941 173.078 102.941Z" fill="#477CD9"/>
<path d="M171.878 182.28C172.035 182.28 172.191 182.123 172.191 181.967C172.191 181.706 171.931 158.181 172.035 151.087C172.139 145.088 170.679 133.612 170.627 132.934C171.67 121.511 174.487 92.4565 174.539 92.1435C174.539 91.9871 174.434 91.8306 174.278 91.8306C174.121 91.8306 173.965 91.9349 173.965 92.0914C173.913 92.4043 171.096 121.563 170.053 132.934V132.986C170.053 133.091 171.565 144.984 171.461 151.087C171.357 158.181 171.618 181.706 171.618 181.967C171.565 182.175 171.722 182.28 171.878 182.28Z" fill="#477CD9"/>
<path d="M132.131 179.619C132.131 179.932 132.131 180.193 132.131 180.454L141.468 181.289C141.52 181.028 141.572 180.663 141.676 180.35L132.131 179.619Z" fill="#477CD9"/>
<path d="M156.073 97.0469C156.178 97.0469 156.282 96.9426 156.334 96.8904C156.386 96.7339 156.334 96.5774 156.178 96.5253C156.126 96.5253 152.944 95.2212 151.901 91.7264C151.848 91.5699 151.692 91.4656 151.535 91.5177C151.379 91.5699 151.275 91.7264 151.327 91.8829C152.422 95.6907 155.813 97.0469 155.917 97.0991C156.021 97.0469 156.021 97.0469 156.073 97.0469Z" fill="#477CD9"/>
<path d="M155.552 31.584C155.552 31.584 166.245 31.3753 168.958 32.575C171.096 33.514 172.505 32.7837 174.591 39.9299C176.678 47.0239 177.199 55.0047 177.825 62.1509C178.347 67.9931 178.608 82.442 177.877 87.8147C177.147 93.1874 165.254 92.9266 157.43 90.2141C149.605 87.5017 144.807 81.4509 144.754 79.3644C144.65 77.2779 146.997 74.9306 147.05 73.0006C147.05 71.0707 146.424 64.4982 144.598 62.3596C142.772 60.2731 140.112 57.7172 141.155 52.2401C141.885 48.5366 141.103 45.8764 141.677 42.3815C142.251 38.8867 142.459 36.9045 145.276 35.9656C148.041 34.9223 155.552 31.584 155.552 31.584Z" fill="#FFD940"/>
<path d="M142.772 60.5337C142.877 60.5337 142.929 60.4816 143.033 60.4294C143.137 60.2729 143.137 60.1164 143.033 59.96C139.382 56.6216 140.321 52.5008 141.207 50.4143C142.564 47.1802 142.564 44.0505 142.564 43.894C142.564 43.7375 142.407 43.5811 142.251 43.5811C142.094 43.5811 141.938 43.7375 141.938 43.894C141.938 43.9462 141.938 47.0759 140.634 50.1535C139.695 52.4486 138.651 56.8302 142.616 60.4294C142.616 60.4816 142.668 60.5337 142.772 60.5337Z" fill="#371C0E"/>
<path d="M169.01 89.2226C176.208 89.2226 177.981 85.9886 178.086 85.7799C178.19 85.6234 178.086 85.4148 177.929 85.3626C177.773 85.2583 177.564 85.3626 177.512 85.5191C177.512 85.5191 176.886 86.6667 174.904 87.5534C173.026 88.388 169.583 89.1183 163.637 88.0751C152.213 86.0407 146.528 78.2686 146.476 78.2164C146.371 78.0599 146.163 78.0599 146.006 78.1643C145.85 78.2686 145.85 78.4772 145.954 78.6337C146.006 78.738 147.414 80.668 150.336 82.911C152.996 84.9975 157.43 87.6578 163.533 88.7532C165.671 89.0661 167.497 89.2226 169.01 89.2226Z" fill="#371C0E"/>
<path d="M149.919 45.3544C150.44 45.3544 151.066 45.3023 151.692 45.2501C154.978 44.9371 160.925 40.8685 161.186 40.6598C161.342 40.5555 161.342 40.399 161.238 40.2425C161.133 40.0861 160.977 40.0861 160.82 40.1904C160.768 40.2425 154.77 44.3634 151.588 44.6763C145.641 45.2501 143.972 42.642 143.972 42.5898C143.868 42.4334 143.711 42.4334 143.555 42.4855C143.398 42.5898 143.398 42.7463 143.45 42.9028C143.555 43.0071 145.015 45.3544 149.919 45.3544Z" fill="#371C0E"/>
<path d="M167.08 72.8437C167.184 72.8437 167.236 72.7915 167.288 72.7394C167.393 72.6351 167.341 72.4264 167.236 72.3221C160.768 67.3667 148.041 64.4456 147.884 64.3935C147.728 64.3413 147.571 64.4456 147.519 64.6021C147.467 64.7586 147.571 64.9151 147.728 64.9672C147.832 65.0194 160.455 67.9405 166.871 72.7915C166.923 72.7915 166.975 72.8437 167.08 72.8437Z" fill="#371C0E"/>
<path d="M159.568 77.1732C159.62 77.1732 159.672 77.1732 159.725 77.121C159.881 77.0688 159.933 76.8602 159.829 76.7559C156.856 71.3832 152.057 69.714 151.848 69.6618C151.692 69.6097 151.535 69.714 151.483 69.8183C151.431 69.9748 151.535 70.1313 151.64 70.1834C151.692 70.1834 156.438 71.8526 159.255 77.0167C159.359 77.121 159.464 77.1732 159.568 77.1732Z" fill="#B64E00"/>
<path d="M175.009 88.0749C175.165 88.0749 175.27 87.9706 175.27 87.8141C176.782 75.6604 175.948 63.8196 174.957 56.0474C173.914 47.5972 172.505 42.0158 172.453 41.9637C172.401 41.8072 172.244 41.7029 172.088 41.755C171.931 41.8072 171.827 41.9637 171.879 42.1202C171.879 42.1723 173.288 47.7537 174.383 56.1518C175.322 63.8717 176.157 75.6604 174.696 87.762C174.696 87.9185 174.8 88.0228 175.009 88.0749C174.957 88.0749 174.957 88.0749 175.009 88.0749Z" fill="#371C0E"/>
<path d="M163.324 42.2767V43.9459C163.324 44.5197 163.324 45.0935 163.324 45.6672C163.324 46.8148 163.272 47.9624 163.22 49.1099C163.168 51.4051 163.011 53.648 162.855 55.891C162.802 56.4648 162.75 56.9864 162.698 57.5602C162.646 58.0818 162.594 58.6556 162.489 59.1772C162.333 60.2205 162.176 61.2637 161.968 62.2548C161.759 63.2459 161.551 64.1848 161.29 64.9151C161.185 65.2802 161.029 65.6453 160.872 65.9061C160.768 66.1669 160.664 66.3234 160.664 66.3234C160.612 66.3756 160.455 66.5842 160.194 66.7407C159.933 66.9494 159.621 67.158 159.203 67.3667C158.838 67.5753 158.421 67.784 157.951 67.9926C157.482 68.2013 157.065 68.4099 156.543 68.5664C155.604 68.9315 154.561 69.2967 153.518 69.6096C152.474 69.9226 151.379 70.2356 150.284 70.4964C148.093 71.0702 145.85 71.5918 143.607 72.0613C142.459 72.3221 141.312 72.5307 140.216 72.7394C139.642 72.8437 139.069 72.948 138.495 73.0523L136.826 73.3653H136.721C134.739 73.7304 133.487 75.6083 133.852 77.5904C134.165 79.3118 135.678 80.5115 137.347 80.5115H137.817H138.286H139.225C139.851 80.5115 140.477 80.5115 141.051 80.4593C142.303 80.4072 143.502 80.355 144.754 80.3029C147.206 80.1464 149.71 79.8856 152.161 79.5204C153.413 79.3118 154.665 79.1031 155.917 78.8423C157.169 78.5815 158.473 78.2685 159.725 77.8512C161.029 77.4861 162.333 77.0167 163.741 76.3385C164.419 76.0256 165.15 75.6604 165.88 75.191C166.61 74.7215 167.393 74.1477 168.175 73.3653C169.01 72.5307 169.583 71.6961 170.053 70.9137C170.522 70.1313 170.888 69.3488 171.148 68.6186C171.461 67.8883 171.67 67.158 171.931 66.4799C172.139 65.8018 172.348 65.1237 172.505 64.4456C172.818 63.0894 173.078 61.7853 173.287 60.4813C173.391 59.8553 173.443 59.1772 173.548 58.5513C173.6 57.9253 173.704 57.2994 173.756 56.6213C173.965 54.0653 174.069 51.5616 174.069 49.1099C174.069 47.8581 174.069 46.6062 174.017 45.4064C174.017 44.7805 173.965 44.1546 173.913 43.5286L173.861 42.5897L173.809 42.1202L173.756 41.5986C173.496 38.7297 170.992 36.591 168.123 36.8519C165.463 37.1127 163.428 39.3035 163.376 41.9637L163.324 42.2767Z" fill="#F2B492"/>
<path d="M162.855 67.9927C162.959 67.9927 163.011 67.9406 163.063 67.8884C163.168 67.7841 163.115 67.6276 163.011 67.5233C161.811 66.6365 160.977 66.4279 160.977 66.4279C160.82 66.3757 160.716 66.48 160.664 66.6365C160.612 66.793 160.716 66.8973 160.872 66.9495C160.872 66.9495 161.655 67.1581 162.75 67.9406C162.75 67.9927 162.802 67.9927 162.855 67.9927Z" fill="#892316"/>
<path d="M162.855 70.5489C162.907 70.5489 162.907 70.5489 162.959 70.5489C163.063 70.4968 163.168 70.3403 163.063 70.1838C162.02 67.8887 160.977 66.5846 160.925 66.5325C160.82 66.4281 160.664 66.4281 160.559 66.4803C160.455 66.5846 160.455 66.7411 160.507 66.8454C160.507 66.8454 161.551 68.1495 162.594 70.3925C162.646 70.4968 162.75 70.5489 162.855 70.5489Z" fill="#892316"/>
<path d="M138.703 73.5762C138.181 73.1068 137.034 73.2632 136.147 73.0546C135 72.7938 133.174 72.7416 132.131 72.9503C130.566 73.3154 126.028 74.6195 125.402 75.767C124.724 76.9146 128.74 76.08 129.575 75.9235C130.409 75.767 131.035 75.9757 131.035 75.9757C131.035 75.9757 122.011 78.5838 121.594 79.5749C121.177 80.5659 126.445 79.5749 127.749 79.3141C127.749 79.3141 121.072 81.6613 120.968 82.3916C120.811 83.8 128.323 81.4005 128.323 81.4005C128.323 81.4005 122.794 83.6435 123.211 84.5824C123.628 85.5213 129.575 83.0697 129.575 83.0697C129.575 83.0697 126.184 85.0519 126.184 85.9908C126.184 86.9297 133.591 83.2784 134.687 82.5481C135.782 81.87 138.547 80.7224 139.746 79.5749C140.529 78.8968 140.268 75.0889 138.703 73.5762Z" fill="#F2B492"/>
<path d="M162.542 36.2782C164.889 31.5315 171.67 31.5836 173.965 36.3304C174.747 37.9996 175.113 39.3558 175.582 42.6942C176.782 51.5096 175.217 55.9955 175.217 55.9955C170.47 56.7258 165.463 56.7258 160.612 55.5782C160.612 55.5782 160.403 40.6598 162.437 36.3825C162.489 36.3825 162.489 36.3304 162.542 36.2782Z" fill="#FCCC0C"/>
<path d="M161.29 55.7347C161.342 55.7347 161.342 55.7347 161.29 55.7347C161.498 55.7347 161.655 55.5261 161.603 55.3696C161.081 51.4053 161.603 42.1204 161.603 42.0161C161.603 41.8596 161.498 41.7031 161.29 41.7031C161.133 41.7031 160.977 41.8074 160.977 42.0161C160.977 42.3812 160.455 51.4574 160.977 55.4739C161.029 55.6304 161.133 55.7347 161.29 55.7347Z" fill="#371C0E"/>
<path d="M161.081 46.5542C161.133 46.5542 161.185 46.5542 161.237 46.502C161.394 46.3977 161.446 46.2412 161.394 46.0847L160.246 43.9461C160.142 43.7896 159.986 43.7374 159.829 43.7896C159.673 43.8939 159.62 44.0504 159.673 44.2069L160.82 46.3455C160.872 46.502 160.977 46.5542 161.081 46.5542Z" fill="#371C0E"/>
<path d="M82.1074 71.7492C82.1074 71.9056 82.1074 72.1143 82.1074 72.3229V72.8967V74.0443L82.1595 76.3916L82.2638 81.034C82.316 82.5467 82.316 84.0594 82.316 85.5199C82.316 86.2502 82.316 86.9805 82.2638 87.6064C82.2638 87.9194 82.2117 88.2324 82.2117 88.4932C82.2117 88.754 82.1595 89.0148 82.1595 89.1191C82.1595 89.1713 82.1595 89.1191 82.1595 89.1713C82.1595 89.1713 82.1595 89.2235 82.1595 89.2756C82.1595 89.3278 82.1595 89.3278 82.1074 89.3799C82.0552 89.5364 81.9509 89.7451 81.8465 90.0059C81.6379 90.4753 81.2728 90.997 80.9076 91.5186C80.1774 92.614 79.2906 93.7616 78.3517 94.857C77.4128 96.0045 76.4217 97.1521 75.3784 98.2475L73.8136 99.9688L73.0312 100.803L72.666 101.221L72.4574 101.429C72.4052 101.482 72.3531 101.586 72.3009 101.638L72.0922 101.899C70.9447 103.307 71.2055 105.342 72.6138 106.489C73.6571 107.324 75.0655 107.428 76.213 106.802L76.526 106.646L76.7868 106.489L77.3606 106.176C77.7257 105.967 78.0909 105.759 78.456 105.55C79.1863 105.133 79.8644 104.663 80.5425 104.194C81.8987 103.255 83.2549 102.264 84.559 101.169C85.2371 100.595 85.863 100.021 86.489 99.4472C87.1149 98.8213 87.7409 98.1953 88.3668 97.5172C88.9927 96.787 89.6187 96.0567 90.1925 95.1699C90.5054 94.7005 90.7663 94.231 91.0792 93.6572C91.1314 93.5007 91.2357 93.3964 91.2879 93.2399C91.34 93.0834 91.4444 92.927 91.4965 92.7705C91.6009 92.4575 91.7573 92.0402 91.8617 91.6751C92.0703 90.997 92.1746 90.4753 92.2268 89.9537C92.3311 89.4321 92.3833 88.9626 92.4354 88.4932C92.5398 87.5543 92.5919 86.6675 92.6441 85.8329C92.6963 84.9462 92.6963 84.1116 92.7484 83.277C92.7484 82.4424 92.7484 81.6078 92.7484 80.7732C92.6963 79.104 92.6441 77.487 92.5398 75.87C92.4876 75.0354 92.3833 74.2529 92.3311 73.4183C92.279 73.001 92.2268 72.5838 92.1746 72.2186L92.0703 71.5927C92.0182 71.384 92.0181 71.1754 91.966 70.9667C91.5487 68.2021 88.9927 66.3243 86.2282 66.7416C83.7765 67.1067 82.003 69.1932 81.9509 71.5927L82.1074 71.7492Z" fill="#B9CDF2"/>
<path d="M86.9062 91.5704C86.9583 91.5704 87.0627 91.5182 87.1148 91.4661C87.2191 91.3617 87.167 91.2053 87.0627 91.1009C85.6021 89.9012 82.681 89.1188 82.5767 89.0666C82.4202 89.0144 82.3159 89.1188 82.2637 89.2231C82.2116 89.3796 82.3159 89.4839 82.4202 89.5361C82.4724 89.5361 85.3413 90.3707 86.7497 91.4661C86.8018 91.5182 86.854 91.5704 86.9062 91.5704Z" fill="#5277AE"/>
<path d="M84.82 91.8833C84.8721 91.8833 84.8721 91.8833 84.9243 91.8833C85.0808 91.8312 85.1329 91.6747 85.0808 91.5704C85.0808 91.5182 84.5592 90.2141 84.194 89.6925C84.0897 89.5882 83.9332 89.536 83.8289 89.6404C83.7246 89.7447 83.6724 89.9012 83.7767 90.0055C84.1419 90.475 84.6113 91.779 84.6113 91.779C84.6113 91.8312 84.7157 91.8833 84.82 91.8833Z" fill="#5277AE"/>
<path d="M72.9791 102.316C72.9791 102.316 75.7437 103.15 75.9524 105.915L73.8137 108.366C73.8137 108.366 71.8316 112.8 70.684 113.009C69.5364 113.218 69.2235 112.644 69.2235 112.644C69.2235 112.644 68.5975 113.061 67.3456 113.061C66.1459 113.113 65.7808 112.331 65.7808 112.331C65.7808 112.331 64.581 113.061 63.4856 112.8C62.3902 112.539 60.721 110.505 60.721 110.505C60.721 110.505 62.5989 107.741 66.5632 105.706C69.3278 104.298 72.9791 102.316 72.9791 102.316Z" fill="#F9AC81"/>
<path d="M41.1081 198.972H43.2467V125.423C43.2467 117.651 49.5584 111.287 57.3827 111.287H69.5364C77.3086 111.287 83.6724 117.599 83.6724 125.423V199.024H85.7588V125.423C85.7588 116.451 78.4561 109.201 69.5364 109.201H57.3827C48.4108 109.201 41.1603 116.504 41.1603 125.423V198.972H41.1081Z" fill="#E4E5EA"/>
<path d="M83.3597 201.267H85.7592C86.4373 201.267 86.9589 200.745 86.9589 200.067V196.833C86.9589 196.155 86.4373 195.634 85.7592 195.634H83.3597C82.6816 195.634 82.16 196.155 82.16 196.833V200.067C82.1079 200.745 82.6816 201.267 83.3597 201.267Z" fill="#371C0E"/>
<path d="M41.004 201.267H43.4035C44.0816 201.267 44.6032 200.745 44.6032 200.067V196.833C44.6032 196.155 44.0816 195.634 43.4035 195.634H41.004C40.3259 195.634 39.8043 196.155 39.8043 196.833V200.067C39.7521 200.745 40.3259 201.267 41.004 201.267Z" fill="#371C0E"/>
<path d="M84.1417 144.463L85.2893 142.69L78.1952 138.047H47.9412L41.5775 142.742L42.8294 144.411L48.6193 140.134H77.5693L84.1417 144.463Z" fill="#E4E5EA"/>
<path d="M42.2036 127.353C43.2468 127.353 44.1336 126.467 44.1336 125.423C44.1336 118.121 50.08 112.174 57.3827 112.174H69.5365C76.8392 112.174 82.7857 118.121 82.7857 125.423C82.7857 126.467 83.6724 127.353 84.7157 127.353C85.7589 127.353 86.6457 126.467 86.6457 125.423C86.6457 115.982 78.9778 108.314 69.5365 108.314H57.3827C47.9414 108.314 40.2736 115.982 40.2736 125.423C40.2736 126.467 41.1082 127.353 42.2036 127.353Z" fill="#212EA3"/>
<path d="M105.32 164.649C107.823 176.333 113.561 192.347 113.561 192.347H120.134C120.134 192.347 119.664 174.508 119.716 168.144C119.716 166.371 119.664 164.806 119.612 163.397C119.247 157.92 118.308 154.791 117.786 153.486C117.578 153.017 117.473 152.808 117.473 152.808C117.473 152.808 107.302 147.436 104.746 153.174C104.537 153.643 104.381 154.165 104.276 154.791C103.963 156.877 104.433 160.528 105.32 164.649Z" fill="#F9AC81"/>
<path d="M105.32 164.649C109.649 164.649 114.396 164.284 119.56 163.345C119.195 157.868 118.256 154.738 117.734 153.434C113.822 153.173 110.849 153.069 110.849 153.069H104.746C104.537 153.539 104.381 154.06 104.276 154.686C103.963 156.877 104.433 160.528 105.32 164.649Z" fill="#BE5925"/>
<path d="M106.728 201.215H121.803C121.803 201.215 121.855 200.955 121.855 200.485C121.855 200.329 121.855 200.12 121.855 199.911C121.855 199.859 121.855 199.807 121.855 199.755C121.855 199.703 121.855 199.651 121.855 199.598C121.855 198.816 121.855 197.877 121.698 196.938C121.542 196.051 121.333 195.008 121.124 193.965C121.02 193.548 120.968 193.13 120.864 192.765C120.655 191.826 120.446 191.044 120.29 190.627C120.081 190.105 119.873 189.375 119.194 188.801C118.621 188.331 117.63 187.966 116.065 187.966C114.03 187.966 113.3 188.227 112.831 188.801C112.674 189.01 112.57 189.218 112.413 189.479C112.361 189.583 111.84 191.305 111.787 191.409C111.214 192.4 112.309 191.931 109.44 194.174C107.354 195.791 106.832 198.19 106.728 199.755C106.728 199.807 106.728 199.859 106.728 199.911C106.676 200.694 106.728 201.215 106.728 201.215Z" fill="#9397A4"/>
<path d="M106.728 199.911C106.676 200.693 106.728 201.215 106.728 201.215H121.803C121.803 201.215 121.855 200.954 121.855 200.484C121.855 200.328 121.855 200.119 121.855 199.911H106.728Z" fill="#371C0E"/>
<path d="M112.779 188.853C112.831 191.252 110.588 195.477 114.291 195.477C117.212 195.477 119.194 190.835 119.142 188.853C118.568 188.383 117.577 188.018 116.013 188.018C113.978 188.018 113.248 188.279 112.779 188.853Z" fill="#F9AC81"/>
<path d="M84.8721 192.347L91.7575 190.73C91.7575 190.73 92.3312 175.76 95.0437 169.97C95.9826 167.935 96.6085 165.953 96.9737 164.18C98.1734 158.546 97.078 154.373 96.6607 153.121C96.5564 152.86 96.5042 152.756 96.5042 152.756C96.5042 152.756 86.1761 144.202 83.2029 151.974C83.0986 152.339 82.9421 152.704 82.8377 153.121C82.4205 154.947 82.2118 157.607 82.2118 160.633C82.1597 173.047 84.8721 192.347 84.8721 192.347Z" fill="#F9AC81"/>
<path d="M82.2638 160.633C85.8108 161.989 90.7662 163.449 96.9735 164.18C98.1732 158.546 97.0778 154.373 96.6605 153.121H82.8897C82.4724 154.947 82.3159 157.607 82.2638 160.633Z" fill="#BE5925"/>
<path d="M68.8559 201.529L93.1634 201.268C93.3199 200.955 93.4242 200.485 93.4764 199.912C93.5807 197.877 92.9026 194.591 92.5896 192.505C92.5375 192.244 92.4853 192.035 92.4853 191.827C92.4331 191.461 92.381 191.201 92.381 190.992C92.381 189.323 91.755 189.74 91.755 189.74C90.2945 190.053 88.7818 190.627 87.7385 190.314C87.1126 190.157 86.4867 189.844 85.9129 189.636C85.1826 189.375 84.5045 189.271 83.9829 189.636C83.9829 189.636 83.3048 190.157 81.3748 191.879C79.8099 193.339 77.3583 194.382 74.9588 195.374C74.4372 195.582 73.9156 195.791 73.394 196.052C70.1078 197.46 68.9602 198.868 68.6472 199.912C68.5951 200.016 68.5951 200.068 68.5951 200.172C68.4907 201.007 68.8559 201.529 68.8559 201.529Z" fill="#9397A4"/>
<path d="M68.8578 201.528L93.1653 201.267C93.3218 200.954 93.4261 200.484 93.4783 199.911H68.7013C68.6491 200.015 68.6491 200.067 68.6491 200.171C68.4927 201.006 68.8578 201.528 68.8578 201.528Z" fill="#371C0E"/>
<path d="M75.0128 195.424C75.0649 195.946 75.5344 196.52 78.1425 195.476C81.7417 194.016 85.08 191.616 85.9668 189.634C85.2365 189.373 84.5584 189.269 84.0368 189.634C84.0368 189.634 83.3587 190.156 81.4287 191.877C79.8639 193.39 77.3601 194.433 75.0128 195.424Z" fill="#F9AC81"/>
<path d="M83.0985 72.1136C83.1507 75.6606 84.3504 78.1644 84.2983 81.9201C84.194 87.5536 87.3237 89.5357 89.4623 91.3092C91.6531 93.0306 93.4266 99.4465 93.7396 101.324C94.0526 103.202 92.1748 105.967 92.5921 108.001C93.0615 110.035 98.7993 115.147 106.989 116.451C115.178 117.755 126.915 115.93 126.706 110.505C126.497 105.08 123.681 90.8919 122.116 85.2584C120.238 78.373 118.36 70.6009 115.074 63.9763C111.788 57.3517 108.71 56.465 106.519 55.839C105.476 55.526 102.92 56.2042 100.469 57.0387C97.5996 57.9777 94.835 59.1774 94.835 59.1774C94.835 59.1774 91.4966 61.4725 88.5756 63.2982C87.3758 64.0806 86.2283 64.8109 85.4458 65.2282C82.8899 66.6366 83.0464 68.5666 83.0985 72.1136Z" fill="#B9CDF2"/>
<path d="M107.406 104.089C107.406 104.089 106.155 105.08 106.572 105.498C106.989 105.915 107.98 104.924 107.98 104.924C107.98 104.924 108.658 106.123 109.232 105.915C109.962 105.602 109.076 104.559 109.076 104.559C109.076 104.559 110.901 104.454 110.901 103.776C110.901 103.098 109.128 103.307 109.128 103.307C109.128 103.307 109.336 101.69 108.345 101.533C107.354 101.377 107.928 103.255 107.928 103.255C107.928 103.255 106.676 101.95 106.155 102.629C105.685 103.359 107.406 104.089 107.406 104.089Z" fill="#696B8C"/>
<path d="M117.473 100.49C117.473 100.49 116.221 101.481 116.639 101.898C117.056 102.315 118.047 101.324 118.047 101.324C118.047 101.324 118.725 102.524 119.299 102.315C120.029 102.002 119.142 100.959 119.142 100.959C119.142 100.959 120.968 100.855 120.968 100.177C120.968 99.4987 119.195 99.7073 119.195 99.7073C119.195 99.7073 119.403 98.0903 118.412 97.9338C117.421 97.7773 117.995 99.6552 117.995 99.6552C117.995 99.6552 116.743 98.3511 116.221 99.0292C115.7 99.7073 117.473 100.49 117.473 100.49Z" fill="#696B8C"/>
<path d="M103.234 78.7381C103.234 78.7381 101.982 79.7291 102.399 80.1464C102.816 80.5637 103.808 79.5726 103.808 79.5726C103.808 79.5726 104.486 80.7724 105.059 80.5637C105.79 80.2508 104.903 79.2075 104.903 79.2075C104.903 79.2075 106.729 79.1032 106.729 78.4251C106.729 77.747 104.955 77.9556 104.955 77.9556C104.955 77.9556 105.164 76.3386 104.173 76.1821C103.182 76.0256 103.755 77.9035 103.755 77.9035C103.755 77.9035 102.504 76.5994 101.982 77.2775C101.46 78.0078 103.234 78.7381 103.234 78.7381Z" fill="#696B8C"/>
<path d="M87.5848 69.9749C87.5848 69.9749 86.3329 70.966 86.7502 71.3833C87.1675 71.8005 88.1586 70.8095 88.1586 70.8095C88.1586 70.8095 88.8367 72.0092 89.4105 71.8006C90.1408 71.4876 89.254 70.4443 89.254 70.4443C89.254 70.4443 91.0797 70.34 91.0797 69.6619C91.0797 68.9838 89.3062 69.1924 89.3062 69.1924C89.3062 69.1924 89.5148 67.5754 88.5237 67.4189C87.5327 67.2624 88.1065 69.1403 88.1065 69.1403C88.1065 69.1403 86.8546 67.8362 86.3329 68.5143C85.8113 69.2446 87.5848 69.9749 87.5848 69.9749Z" fill="#696B8C"/>
<path d="M101.46 63.2984C101.46 63.2984 100.208 64.2894 100.625 64.7067C101.042 65.124 102.034 64.133 102.034 64.133C102.034 64.133 102.712 65.3327 103.285 65.124C104.016 64.8111 103.129 63.7678 103.129 63.7678C103.129 63.7678 104.955 63.6635 104.955 62.9854C104.955 62.3073 103.181 62.5159 103.181 62.5159C103.181 62.5159 103.39 60.8989 102.399 60.7424C101.408 60.5859 101.981 62.4638 101.981 62.4638C101.981 62.4638 100.729 61.1597 100.208 61.8378C99.6862 62.5681 101.46 63.2984 101.46 63.2984Z" fill="#696B8C"/>
<path d="M94.4178 79.8853C94.4178 79.8853 93.1659 80.8764 93.5832 81.2937C94.0005 81.7109 94.9916 80.7199 94.9916 80.7199C94.9916 80.7199 95.6697 81.9196 96.2435 81.711C96.9737 81.398 96.087 80.3547 96.087 80.3547C96.087 80.3547 97.9127 80.2504 97.9127 79.5723C97.9127 78.8942 96.1391 79.1028 96.1391 79.1028C96.1391 79.1028 96.3478 77.4858 95.3567 77.3293C94.3656 77.1728 94.9394 79.0507 94.9394 79.0507C94.9394 79.0507 93.6875 77.7466 93.1659 78.4247C92.6965 79.1028 94.4178 79.8853 94.4178 79.8853Z" fill="#696B8C"/>
<path d="M86.9067 82.3899C86.9067 82.3899 85.6548 83.381 86.0721 83.7983C86.4894 84.2156 87.4805 83.2245 87.4805 83.2245C87.4805 83.2245 88.1586 84.4242 88.7324 84.2156C89.4627 83.9026 88.5759 82.8594 88.5759 82.8594C88.5759 82.8594 90.4016 82.755 90.4016 82.0769C90.4016 81.3988 88.6281 81.6075 88.6281 81.6075C88.6281 81.6075 88.8367 79.9905 87.8456 79.834C86.8546 79.6775 87.4283 81.5553 87.4283 81.5553C87.4283 81.5553 86.1764 80.2513 85.6548 80.9294C85.1332 81.6075 86.9067 82.3899 86.9067 82.3899Z" fill="#696B8C"/>
<path d="M93.5312 87.9187C93.5312 87.9187 92.2793 88.9098 92.6966 89.3271C93.1139 89.7444 94.105 88.7533 94.105 88.7533C94.105 88.7533 94.7831 89.953 95.3569 89.7444C96.0872 89.4314 95.2004 88.3882 95.2004 88.3882C95.2004 88.3882 97.0261 88.2839 97.0261 87.6058C97.0261 86.9276 95.2526 87.1363 95.2526 87.1363C95.2526 87.1363 95.4612 85.5193 94.4702 85.3628C93.4791 85.2063 94.0528 87.0841 94.0528 87.0841C94.0528 87.0841 92.801 85.7801 92.2793 86.4582C91.7577 87.1363 93.5312 87.9187 93.5312 87.9187Z" fill="#696B8C"/>
<path d="M104.276 87.4492C104.276 87.4492 103.025 88.4403 103.442 88.8576C103.859 89.2749 104.85 88.2838 104.85 88.2838C104.85 88.2838 105.528 89.4836 106.102 89.2749C106.832 88.9619 105.946 87.9187 105.946 87.9187C105.946 87.9187 107.771 87.8144 107.771 87.1363C107.771 86.4582 105.998 86.6668 105.998 86.6668C105.998 86.6668 106.206 85.0498 105.215 84.8933C104.224 84.7368 104.798 86.6146 104.798 86.6146C104.798 86.6146 103.546 85.3106 103.025 85.9887C102.503 86.719 104.276 87.4492 104.276 87.4492Z" fill="#696B8C"/>
<path d="M88.6279 63.246C89.0452 65.0717 90.7144 70.6009 94.6265 68.3579C99.269 65.6976 100.521 56.9866 100.521 56.9866C97.6519 57.9255 94.8874 59.1252 94.8874 59.1252C94.8874 59.1252 91.4968 61.4203 88.6279 63.246Z" fill="#F9AC81"/>
<path d="M93.7393 74.7738C94.2609 74.6694 94.8347 74.5651 95.4606 74.3565C98.6425 73.4697 103.807 68.41 104.015 68.2013C104.12 68.097 104.12 67.8884 104.015 67.7841C103.911 67.6797 103.702 67.6797 103.598 67.7841C103.546 67.8362 98.3817 72.9481 95.3041 73.8348C89.5663 75.4519 87.4798 73.1567 87.4277 73.1567C87.3234 73.0524 87.1669 73.0003 87.0104 73.1046C86.906 73.2089 86.8539 73.3654 86.9582 73.5219C87.0625 73.6262 88.8882 75.6605 93.7393 74.7738Z" fill="#696B8C"/>
<path d="M113.248 97.0993C113.352 97.0993 113.405 97.0471 113.457 96.9428C113.509 96.7863 113.457 96.6298 113.352 96.5777C106.102 92.8741 93.0613 92.196 92.9048 92.196C92.7483 92.196 92.5918 92.3004 92.5918 92.4569C92.5918 92.6133 92.6962 92.7698 92.8527 92.7698C92.957 92.7698 105.893 93.4479 113.039 97.0993C113.144 97.0993 113.196 97.0993 113.248 97.0993Z" fill="#696B8C"/>
<path d="M105.32 101.22C105.372 101.22 105.424 101.168 105.424 101.168C105.528 101.064 105.58 100.907 105.476 100.751C101.616 95.9519 96.6086 95.2216 96.3999 95.1694C96.2434 95.1694 96.0869 95.2738 96.0869 95.4302C96.0869 95.5867 96.1913 95.7432 96.3477 95.7432C96.3999 95.7432 101.355 96.5256 105.059 101.116C105.111 101.22 105.215 101.22 105.32 101.22Z" fill="#696B8C"/>
<path d="M123.942 111.287C124.098 111.287 124.202 111.131 124.202 110.974C123.576 98.7161 120.655 87.2404 118.36 79.7291C115.856 71.644 113.457 66.3234 113.405 66.2713C113.353 66.1148 113.144 66.0626 113.04 66.1148C112.883 66.1669 112.831 66.3756 112.883 66.4799C112.883 66.5321 115.283 71.8004 117.786 79.8856C120.082 87.3447 123.003 98.7682 123.629 110.974C123.629 111.183 123.733 111.339 123.942 111.287C123.889 111.287 123.942 111.287 123.942 111.287Z" fill="#696B8C"/>
<path d="M91.1838 93.9698C91.3403 93.9177 91.4446 93.7612 91.3925 93.6047C91.3925 93.5004 90.8187 91.4139 88.7844 90.162C86.5936 88.8579 84.1419 86.302 84.6636 81.4509C84.6636 81.2944 84.5592 81.1379 84.4028 81.1379C84.2463 81.1379 84.0898 81.2423 84.0898 81.3987C83.516 86.5628 86.1763 89.3274 88.5236 90.6836C90.3492 91.779 90.8709 93.709 90.8709 93.7612C90.8709 93.9176 91.0273 93.9698 91.1838 93.9698Z" fill="#696B8C"/>
<path d="M89.7762 62.9322C94.9924 67.8355 99.374 59.4374 99.0611 57.9247C96.6616 54.6385 96.2443 52.239 96.2443 52.239L87.6376 57.2466C87.7419 57.5074 87.8462 57.716 87.9506 57.9768C88.4722 59.0722 88.9416 60.2198 89.3589 61.4195C89.5154 61.9412 89.6197 62.2541 89.7762 62.9322Z" fill="#F9AC81"/>
<path d="M93.2704 67.1584C93.4269 67.1584 93.5833 67.1584 93.7398 67.1062C98.4344 66.1673 98.956 58.03 98.956 57.717C98.956 57.5605 98.8517 57.4041 98.6431 57.4041C98.4866 57.4041 98.3301 57.5084 98.3301 57.717C98.3301 57.8214 97.8606 65.6978 93.6355 66.5324C91.4447 66.9497 90.1406 62.9332 90.1406 62.8811C90.0885 62.7246 89.932 62.6203 89.7234 62.6724C89.5669 62.7246 89.4626 62.8811 89.5147 63.0897C89.5147 63.194 90.8188 67.1584 93.2704 67.1584Z" fill="white"/>
<path d="M89.3581 61.3684C93.3746 58.8125 94.6265 53.3354 94.6265 53.3354L87.9497 57.9257C88.4192 59.0211 88.9408 60.1165 89.3581 61.3684Z" fill="#371C0E"/>
<path d="M96.2433 53.7005C96.2433 53.7005 100.677 51.9792 99.7904 45.4589C98.9036 38.8865 93.5309 33.3052 84.559 36.0698C75.3785 38.8865 76.1088 50.1535 79.2907 53.0224C82.4204 55.9435 90.9228 56.2043 96.2433 53.7005Z" fill="#C8C9CF"/>
<path d="M92.3312 38.8865C94.2612 39.3038 96.2434 38.73 97.5474 37.2694C98.4342 36.2262 99.0079 34.7657 98.2255 32.8878C96.3477 28.2976 90.1404 28.767 88.5755 31.4273C87.3236 33.5659 87.5845 37.3216 89.9839 38.3648C90.7142 38.6778 91.6009 38.73 92.3312 38.8865Z" fill="#C8C9CF"/>
<path d="M82.8376 52.3439C82.8376 52.3439 81.4292 50.4139 79.8122 51.5093C78.1952 52.6047 80.1773 58.499 83.4635 57.195L82.8376 52.3439Z" fill="#EB7133"/>
<path d="M96.1913 52.6577C96.0348 55.3179 89.7753 60.0647 86.8543 59.6996C85.0808 59.4909 83.2551 58.4998 81.4816 55.6309C81.4816 55.6309 81.4816 55.5787 81.4294 55.5787C81.3251 55.4223 81.2208 55.2136 81.1164 55.0571C80.96 54.7442 80.7513 54.4312 80.647 54.1704C80.5948 54.1182 80.5948 54.0139 80.5427 53.9617C80.4383 53.8052 80.3862 53.5966 80.2818 53.4401C80.1775 53.2315 80.1254 53.0228 80.021 52.8142C78.8735 49.6844 77.5694 46.1896 79.7602 43.2685C82.0032 40.3474 86.3326 38.3131 89.8275 40.2953C89.8275 40.2953 93.3745 42.0166 94.7829 46.6069C96.2956 51.2493 96.2956 50.7277 96.1913 52.6577Z" fill="#F9AC81"/>
<path d="M85.0285 55.787C88.1582 55.7348 88.3147 52.8659 88.3147 52.8659C88.3147 52.7615 88.2104 52.6572 88.106 52.6572C88.0017 52.6572 87.8974 52.7615 87.8974 52.8659C87.8974 52.9702 87.7931 55.3696 84.9763 55.4218C84.872 55.4218 84.7677 55.5261 84.7677 55.6305C84.8198 55.7348 84.9242 55.787 85.0285 55.787Z" fill="#371C0E"/>
<path d="M88.5755 52.553C88.6798 52.553 88.732 52.5009 88.732 52.4487C88.7842 52.3444 88.732 52.24 88.6277 52.1879C87.2715 51.7184 86.5934 52.0314 86.5412 52.0314C86.4369 52.0836 86.3847 52.1879 86.4369 52.2922C86.489 52.3965 86.5933 52.4487 86.6977 52.3965C86.6977 52.3965 87.3236 52.1357 88.5233 52.553C88.5233 52.553 88.5233 52.553 88.5755 52.553Z" fill="#EB7133"/>
<path d="M83.9331 56.1001C84.0896 56.048 84.1417 55.9437 84.1417 55.8393C83.8288 54.7439 84.3504 53.3877 84.3504 53.3877C84.4026 53.2834 84.3504 53.1791 84.2461 53.1269C84.1417 53.0747 84.0374 53.1269 83.9853 53.2312C83.9853 53.2834 83.4115 54.6918 83.7245 55.9437C83.7766 55.9958 83.8288 56.1001 83.9331 56.1001Z" fill="#EB7133"/>
<path d="M79.9167 46.0327C83.4116 45.9284 85.8632 43.8941 85.9675 43.7897C86.0718 43.7376 86.0718 43.5811 85.9675 43.5289C85.9153 43.4246 85.7589 43.4246 85.7067 43.5289C85.7067 43.5289 83.2551 45.5632 79.9167 45.6676C79.8124 45.6676 79.7081 45.7719 79.7081 45.8762C79.7081 45.9284 79.8124 46.0327 79.9167 46.0327Z" fill="#EB7133"/>
<path d="M80.1775 44.7809C82.7856 44.7288 84.6112 43.1639 84.6634 43.1118C84.7677 43.0596 84.7677 42.9031 84.6634 42.8509C84.6112 42.7466 84.4548 42.7466 84.4026 42.8509C84.4026 42.8509 82.6291 44.3636 80.1253 44.4158C80.021 44.4158 79.9166 44.5201 79.9166 44.6245C79.9688 44.6766 80.0731 44.7809 80.1775 44.7809Z" fill="#EB7133"/>
<path d="M81.8987 51.1969C82.1074 51.6142 82.4725 51.8229 82.7333 51.6664C82.9941 51.5099 83.0463 51.0926 82.8377 50.7275C82.629 50.3623 82.2639 50.1015 82.0031 50.258C81.7422 50.3623 81.6901 50.7796 81.8987 51.1969Z" fill="#371C0E"/>
<path d="M82.0031 52.3964C82.3683 52.3964 82.6813 52.2921 82.8899 52.0834C83.3072 51.7183 83.3072 51.1967 83.3594 51.1967C83.3594 51.0924 83.3072 50.988 83.2029 50.988C83.0986 50.988 82.9942 51.0402 82.9942 51.1445C82.9942 51.1445 82.9421 51.5097 82.6813 51.7705C82.4726 51.927 82.2118 51.9791 81.8467 51.9791C81.7423 51.9791 81.638 52.0313 81.638 52.1356C81.638 52.2399 81.6902 52.3443 81.7945 52.3443C81.8467 52.3964 81.8988 52.3964 82.0031 52.3964Z" fill="#EB7133"/>
<path d="M86.3846 49.1103C86.5932 49.5276 86.9584 49.7362 87.2192 49.5797C87.48 49.4232 87.5322 49.0059 87.3235 48.6408C87.1149 48.2235 86.7497 48.0149 86.4889 48.1713C86.2281 48.3278 86.176 48.7451 86.3846 49.1103Z" fill="#371C0E"/>
<path d="M87.0109 49.9451C87.376 49.9451 87.9498 49.7886 88.5236 49.1105C88.5757 49.0062 88.5757 48.9019 88.4714 48.8497C88.3671 48.7975 88.2628 48.7975 88.2106 48.9019C87.376 49.9451 86.6457 49.5278 86.6457 49.5278C86.5414 49.4756 86.4371 49.5278 86.3849 49.58C86.3328 49.6843 86.3849 49.7886 86.4371 49.8408C86.4371 49.8408 86.6457 49.9451 87.0109 49.9451Z" fill="#EB7133"/>
<path d="M87.2715 40.6079C87.2715 40.6079 90.349 45.0939 92.1226 45.6155C93.8961 46.1371 94.3134 43.3203 94.3134 43.3203C94.3134 43.3203 88.9928 36.6958 87.2715 40.6079Z" fill="#C8C9CF"/>
<path d="M81.1685 42.7466C81.1685 42.7466 85.2372 45.9285 88.5234 43.842C91.7574 41.7555 88.4712 39.5647 88.4712 39.5647C88.4712 39.5647 81.012 38.9387 81.1685 42.7466Z" fill="#C8C9CF"/>
<path d="M82.0554 42.0686C82.0554 42.0686 81.9511 47.9108 78.1954 48.1194C74.4397 48.3281 77.6738 41.547 80.0732 41.0254C82.4205 40.5038 82.0554 42.0686 82.0554 42.0686Z" fill="#C8C9CF"/>
<path d="M81.4815 55.5787C81.3772 55.4222 81.2729 55.2136 81.1686 55.0571C81.0121 54.7441 80.8034 54.4311 80.6991 54.1703C80.6469 54.1182 80.6469 54.0138 80.5948 53.9617C80.6469 53.9617 80.6991 53.9095 80.7512 53.9095C81.8988 53.4922 82.9942 53.4922 83.2029 53.9617C83.3594 54.4311 82.5769 55.1614 81.4815 55.5787Z" fill="#EB7133"/>
<path d="M92.0182 49.9451C92.1747 50.4145 91.3923 51.1448 90.1926 51.6143C89.045 52.0316 87.9496 52.0316 87.7409 51.5621C87.5845 51.0927 88.3669 50.3624 89.5666 49.8929C90.7663 49.4756 91.8618 49.4756 92.0182 49.9451Z" fill="#EB7133"/>
<path d="M85.0294 45.9272C85.0294 45.9272 86.1248 45.1447 87.4289 45.6664C88.1592 45.9793 87.8983 46.7096 87.0637 46.5531C86.4378 46.4488 86.1248 46.4488 85.4989 46.6053C84.8208 46.8139 84.7165 46.0837 85.0294 45.9272Z" fill="#C8C9CF"/>
<path d="M81.3786 47.5985C81.3786 47.5985 80.0224 47.5985 79.3443 48.7983C78.9792 49.4764 79.553 49.8937 80.1789 49.2677C80.5962 48.7983 80.857 48.5896 81.483 48.381C82.0567 48.1723 81.7438 47.5464 81.3786 47.5985Z" fill="#C8C9CF"/>
<path d="M93.218 45.8241C93.218 45.8241 93.6353 43.6333 95.774 43.7897C97.9126 43.9462 99.321 50.6751 95.461 51.1968L93.218 45.8241Z" fill="#F9AC81"/>
<path d="M90.8707 44.3635C90.8707 44.3635 91.7575 50.3622 92.905 49.4232C94.0526 48.4843 93.3223 44.8851 93.3223 44.8851L90.8707 44.3635Z" fill="#C8C9CF"/>
<path d="M95.0446 48.5369C95.0446 48.6412 95.149 48.6934 95.2533 48.6934H95.3054C95.4098 48.6934 95.4619 48.589 95.4098 48.4847C95.4098 48.4847 95.3576 47.8066 95.6184 47.1285C96.0879 47.3371 96.453 47.4936 96.5052 47.5458C96.5573 47.5458 96.6095 47.5458 96.6616 47.5458C96.7138 47.5458 96.766 47.4936 96.766 47.4415C96.8181 47.3371 96.766 47.2328 96.6616 47.1807C96.6616 47.1807 96.2444 46.972 95.7749 46.7634C95.9314 46.3982 96.2443 46.0331 96.6616 45.7723C96.766 45.7201 96.766 45.6158 96.7138 45.5115C96.6616 45.4071 96.5573 45.4072 96.453 45.4593C94.836 46.3982 94.9925 48.4325 95.0446 48.5369Z" fill="#371C0E"/>
<path d="M87.4272 56.4653C87.3229 56.4653 87.2707 56.4653 87.2707 56.4653C87.1664 56.4653 87.0621 56.4132 87.0621 56.3088C87.0621 56.2045 87.1142 56.1002 87.2185 56.1002C87.2707 56.1002 87.9488 55.9959 88.1575 55.3699C88.2096 55.2134 88.4704 55.1613 88.5226 55.4221C88.3139 56.2045 87.688 56.4131 87.4272 56.4653Z" fill="#EB7133"/>
<path d="M85.2894 53.0226C85.4459 52.9704 85.6024 52.9704 85.7589 52.8661C85.8632 52.6053 85.6546 52.4488 85.4459 52.5009C84.9765 52.7096 84.5592 52.6053 84.3505 52.5009C84.7678 51.3534 84.4027 48.8496 84.3505 48.7453C84.3505 48.641 84.194 48.5366 84.0897 48.5366C83.9854 48.5366 83.8811 48.6931 83.8811 48.7974C83.9854 49.5799 84.194 51.7185 83.8289 52.4488C83.7767 52.5531 83.8289 52.6574 83.8811 52.7618C83.9854 52.8139 84.5592 53.179 85.2894 53.0226Z" fill="#371C0E"/>
<path d="M88.6797 51.0396C89.8273 50.1528 90.0359 48.4836 89.1492 47.3361C88.2624 46.1885 86.5932 45.9799 85.4456 46.8666C84.2981 47.7534 84.0894 49.4226 84.9762 50.5701C85.9151 51.7177 87.5321 51.9263 88.6797 51.0396ZM85.7586 47.1796C86.7497 46.4493 88.1581 46.6058 88.8883 47.5969C89.6186 48.588 89.4621 49.9963 88.4711 50.7266C87.48 51.4569 86.0716 51.3004 85.3413 50.3093C84.5589 49.3704 84.7675 47.962 85.7586 47.1796Z" fill="white"/>
<path d="M89.0972 47.7541C89.1494 47.7541 89.2537 47.7019 89.2537 47.6498C89.2537 47.6498 89.7753 46.6065 91.2359 46.1371C91.3402 46.0849 91.3924 45.9806 91.3402 45.8763C91.288 45.7719 91.1837 45.7198 91.0794 45.7719C89.4624 46.2935 88.8886 47.4411 88.8886 47.4411C88.8364 47.5454 88.8886 47.6498 88.9929 47.7019C89.0451 47.7541 89.0451 47.7541 89.0972 47.7541Z" fill="white"/>
<path d="M83.046 53.441C84.1936 52.5542 84.4022 50.885 83.5155 49.7374C82.6287 48.5899 80.9595 48.3812 79.812 49.268C78.6644 50.1547 78.4558 51.8239 79.3425 52.9715C80.2293 54.0669 81.8463 54.3277 83.046 53.441ZM80.0728 49.581C81.0639 48.8507 82.4722 49.0072 83.2025 49.9983C83.9328 50.9893 83.7763 52.3977 82.7852 53.128C81.7941 53.8583 80.3858 53.7018 79.6555 52.7107C78.8731 51.7196 79.0817 50.3112 80.0728 49.581Z" fill="white"/>
<path d="M84.6635 49.5268C84.6635 49.5268 84.7157 49.4746 84.7157 49.4224C84.7679 49.3181 84.6635 49.2138 84.5592 49.1616C84.507 49.1616 83.8289 48.953 83.3073 49.6311C83.2551 49.7354 83.2552 49.8397 83.3595 49.8919C83.4638 49.9441 83.5681 49.9441 83.6203 49.8397C83.9333 49.3703 84.4549 49.5268 84.4549 49.5268C84.507 49.6311 84.6114 49.5789 84.6635 49.5268Z" fill="white"/>
<path d="M126.028 104.872C126.028 104.872 106.206 111.966 93.3223 104.872C93.3223 104.872 81.6901 125.997 79.9166 142.011C78.1431 158.025 80.5426 158.494 80.5426 158.494C87.8974 161.937 105.893 164.754 122.846 158.494C122.898 158.442 132.757 125.058 126.028 104.872Z" fill="#E27215"/>
<path d="M99.7381 158.546C102.607 158.546 105.58 158.338 108.658 157.92C117.317 156.773 123.837 154.373 123.889 154.373C124.046 154.321 124.15 154.112 124.098 153.956C124.046 153.799 123.837 153.695 123.681 153.747C123.628 153.747 117.16 156.147 108.554 157.294C100.625 158.338 89.2014 158.494 79.8122 153.434C79.6557 153.33 79.4471 153.434 79.3949 153.591C79.2906 153.747 79.3949 153.956 79.5514 154.008C83.7765 156.303 88.7319 157.712 94.3133 158.285C96.0346 158.442 97.8603 158.546 99.7381 158.546Z" fill="#B64E00"/>
<path d="M84.611 142.585C90.2445 142.063 95.3564 140.603 99.8423 138.308C103.441 136.43 106.623 134.03 109.284 131.109C113.874 126.154 115.439 121.511 115.491 121.303C115.543 121.146 115.439 120.938 115.282 120.885C115.126 120.833 114.917 120.938 114.865 121.094C114.865 121.146 113.3 125.789 108.762 130.692C104.589 135.178 97.0256 140.759 84.5067 141.959C84.3502 141.959 84.1937 142.115 84.1937 142.324C84.298 142.428 84.4545 142.585 84.611 142.585Z" fill="#B64E00"/>
<path d="M120.812 155.365C120.968 155.365 121.073 155.26 121.125 155.156C125.715 142.063 126.602 129.753 126.55 121.772C126.497 113.061 125.298 107.375 125.298 107.323C125.246 107.167 125.089 107.062 124.933 107.062C124.776 107.115 124.672 107.271 124.672 107.428C124.672 107.48 125.872 113.113 125.924 121.772C125.976 129.753 125.089 141.959 120.499 154.947C120.447 155.104 120.551 155.312 120.707 155.365C120.76 155.365 120.76 155.365 120.812 155.365Z" fill="#B64E00"/>
<path d="M54.7224 198.972H56.861V125.423C56.861 117.651 63.1726 111.287 70.9969 111.287H83.1507C90.9228 111.287 97.2866 117.599 97.2866 125.423V199.024H99.4253V125.423C99.4253 116.451 92.1226 109.201 83.2029 109.201H71.0491C62.0772 109.201 54.8267 116.504 54.8267 125.423V198.972H54.7224Z" fill="#E4E5EA"/>
<path d="M96.9735 201.267H99.373C100.051 201.267 100.573 200.745 100.573 200.067V196.833C100.573 196.155 100.051 195.634 99.373 195.634H96.9735C96.2954 195.634 95.7738 196.155 95.7738 196.833V200.067C95.7216 200.745 96.2954 201.267 96.9735 201.267Z" fill="#371C0E"/>
<path d="M54.6178 201.267H57.0172C57.6953 201.267 58.217 200.745 58.217 200.067V196.833C58.217 196.155 57.6953 195.634 57.0172 195.634H54.6178C53.9397 195.634 53.4181 196.155 53.4181 196.833V200.067C53.3659 200.745 53.9397 201.267 54.6178 201.267Z" fill="#371C0E"/>
<path d="M97.7561 144.463L98.9037 142.69L91.8097 138.047H61.5557L55.1919 142.742L56.4438 144.411L62.2338 140.134H91.1837L97.7561 144.463Z" fill="#E4E5EA"/>
<path d="M55.8177 127.353C56.861 127.353 57.7477 126.467 57.7477 125.423C57.7477 118.121 63.6942 112.174 70.9969 112.174H83.1507C90.4534 112.174 96.3998 118.121 96.3998 125.423C96.3998 126.467 97.2866 127.353 98.3298 127.353C99.3731 127.353 100.26 126.467 100.26 125.423C100.26 115.982 92.592 108.314 83.1507 108.314H70.9969C61.5556 108.314 53.8877 115.982 53.8877 125.423C53.8877 126.467 54.7223 127.353 55.8177 127.353Z" fill="#212EA3"/>
<path d="M103.911 65.1762L104.485 66.6367C104.694 67.1583 104.902 67.6278 105.111 68.1494C105.528 69.1405 105.893 70.1837 106.258 71.1748C107.041 73.2091 107.719 75.1913 108.345 77.2256C108.658 78.2167 108.971 79.2078 109.179 80.1988C109.44 81.1899 109.649 82.1289 109.805 83.0156C109.962 83.9024 110.066 84.7891 110.066 85.4151C110.066 85.728 110.066 86.041 110.014 86.1975C110.014 86.3018 110.014 86.354 110.014 86.354V86.3018V86.2497C110.014 86.1975 110.014 86.1975 110.066 86.1975C110.066 86.1975 110.066 86.1453 110.066 86.1975C110.066 86.2497 110.014 86.3018 109.91 86.4583C109.858 86.5626 109.753 86.7191 109.597 86.8756C109.388 87.1886 109.075 87.5015 108.762 87.8145C108.136 88.4926 107.406 89.1707 106.624 89.8488C105.059 91.2572 103.39 92.6134 101.668 93.9696C99.9468 95.3259 98.1733 96.6821 96.3998 98.0383L91.0793 102.055L91.0271 102.107C89.3579 103.359 88.9928 105.758 90.2968 107.427C91.3922 108.888 93.3744 109.357 94.9914 108.575C95.2522 108.419 95.513 108.314 95.7739 108.21L96.5563 107.845C97.0779 107.584 97.5995 107.323 98.1211 107.062C99.1644 106.541 100.155 105.967 101.199 105.393C103.233 104.246 105.215 103.046 107.197 101.794C108.188 101.168 109.179 100.49 110.171 99.8118C110.64 99.4467 111.162 99.1337 111.631 98.7686C112.101 98.4034 112.622 98.0383 113.092 97.6731C114.083 96.8907 115.022 96.1083 116.013 95.1694C116.482 94.6999 117.004 94.2304 117.525 93.6567C117.786 93.3959 118.047 93.0829 118.308 92.7177C118.569 92.3526 118.829 91.9875 119.09 91.518C119.247 91.3094 119.351 91.0486 119.508 90.7356C119.56 90.5791 119.664 90.4226 119.716 90.2661L119.768 90.1618L119.821 90.0575L119.873 89.9532V89.901V89.8488C120.029 89.3272 120.186 88.8578 120.29 88.3883C120.499 87.4494 120.551 86.6148 120.603 85.7802C120.655 84.9978 120.603 84.2153 120.551 83.4851C120.499 82.7548 120.447 82.0767 120.342 81.3986C120.238 80.7205 120.134 80.0945 119.977 79.4164C119.873 78.7905 119.716 78.1645 119.56 77.5386C119.247 76.2867 118.882 75.1391 118.517 73.9394C117.734 71.5921 116.899 69.4013 115.961 67.2105C115.491 66.1151 114.969 65.0197 114.448 63.9764C114.187 63.4548 113.926 62.9332 113.665 62.3594L113.248 61.577L113.039 61.1597L112.779 60.7424C111.422 58.3429 108.345 57.4562 105.945 58.8124C103.702 60.0643 102.816 62.7767 103.755 65.0718L103.911 65.1762Z" fill="#B9CDF2"/>
<path d="M115.648 86.9277C115.752 86.9277 115.856 86.8233 115.908 86.719C115.961 86.5625 115.856 86.4582 115.7 86.406C112.883 85.8322 110.797 86.0409 110.692 86.0409C110.536 86.0409 110.431 86.1974 110.484 86.3017C110.484 86.4582 110.64 86.5625 110.744 86.5104C110.744 86.5625 112.831 86.406 115.648 86.9277C115.595 86.9277 115.595 86.9277 115.648 86.9277Z" fill="#153769"/>
<path d="M111.475 86.3536C111.527 86.3536 111.579 86.3536 111.631 86.3014C112.101 85.9363 113.3 85.5711 113.77 85.4668C113.926 85.4146 113.978 85.3103 113.926 85.1538C113.874 84.9973 113.77 84.9452 113.613 84.9973C113.561 84.9973 111.944 85.4668 111.318 85.9363C111.214 86.0406 111.162 86.1971 111.266 86.3014C111.318 86.3536 111.37 86.3536 111.475 86.3536Z" fill="#153769"/>
<path d="M79.76 112.33C78.7168 111.444 83.62 108.314 83.62 108.314H81.377C81.377 108.314 82.7332 104.663 85.3414 104.298C88.0016 103.932 91.3921 102.42 91.3921 102.42C94.2611 102.68 95.8259 107.375 95.8259 107.375L92.0181 111.339C92.0181 111.339 89.5143 114.26 88.6797 114.365C87.8451 114.469 87.5843 113.582 87.5843 113.582C87.5843 113.582 86.6976 114.104 85.7586 113.895C84.8197 113.687 84.8719 112.852 84.8719 112.852C84.8719 112.852 83.7765 113.582 83.0462 113.478C82.3159 113.426 82.1595 112.643 82.1595 112.643C82.1595 112.643 81.0119 113.426 79.76 112.33Z" fill="#F9AC81"/>
<path d="M102.659 92.9265C102.711 92.9265 102.764 92.9265 102.764 92.8743C103.024 92.7178 108.919 89.4838 111.057 86.1976C111.11 86.1454 111.11 86.0933 111.11 85.9889C111.11 85.8846 109.232 76.9649 107.145 71.2271C107.093 71.0706 106.937 71.0184 106.832 71.0706C106.676 71.1227 106.624 71.2792 106.676 71.3836C108.606 76.7563 110.379 84.9457 110.588 85.9889C108.501 89.1708 102.607 92.4049 102.555 92.4049C102.451 92.457 102.398 92.6135 102.451 92.77C102.451 92.9265 102.555 92.9265 102.659 92.9265Z" fill="#153769"/>
<path d="M107.823 74.3564C107.928 74.3564 108.032 74.3043 108.084 74.1478C108.136 73.9913 108.032 73.887 107.928 73.8348L106.206 73.3132C106.05 73.261 105.945 73.3654 105.893 73.4697C105.841 73.6262 105.945 73.7305 106.05 73.7827L107.771 74.3043C107.771 74.3564 107.771 74.3564 107.823 74.3564Z" fill="#153769"/>
<path d="M99.06 106.593C99.1122 106.593 99.1643 106.593 99.2165 106.541C99.8424 106.176 114.448 97.2038 118.099 93.1873C118.203 93.0829 118.203 92.9265 118.099 92.8221C117.995 92.7178 117.838 92.7178 117.734 92.8221C114.135 96.7865 99.1122 106.019 98.9557 106.071C98.8514 106.123 98.7992 106.28 98.8514 106.436C98.9035 106.541 99.0079 106.593 99.06 106.593Z" fill="#153769"/>
<path d="M68.9626 105.706C68.9626 105.706 64.4245 106.176 63.4856 107.063C62.4945 107.949 62.8596 109.305 63.0161 109.775C63.1726 110.244 66.7718 110.557 67.5021 109.671C68.2323 108.732 66.5632 108.367 66.5632 108.367L68.9626 105.706Z" fill="#F9AC81"/>
<path d="M144.726 8.82162C144.726 8.82162 146.167 -1.85254 154.226 0.282292C163.566 2.73735 157.108 21.7907 166.715 19.8694C166.715 19.8694 164.526 24.0323 158.656 22.8582C155.4 22.2177 153.532 17.6812 152.464 13.7317C151.557 10.3694 148.195 8.23455 144.726 8.82162Z" fill="#E05B11"/>
<path d="M155.027 13.6784C155.24 13.625 155.347 13.5183 155.293 13.3582C154.92 10.9565 153.852 9.19523 152.251 8.12782C149.369 6.25984 145.58 7.27388 145.42 7.32726C145.26 7.38063 145.206 7.54074 145.206 7.64748C145.26 7.80759 145.42 7.86096 145.527 7.86096C145.58 7.86096 149.209 6.90029 151.878 8.60816C153.372 9.56883 154.333 11.17 154.706 13.4115C154.76 13.5716 154.866 13.6784 155.027 13.6784Z" fill="white"/>
<path d="M136.72 15.066C136.72 15.066 139.282 7.0604 148.835 7.64748C157.001 8.18119 162.872 21.0436 152.625 27.0745C141.31 33.6924 136.72 15.066 136.72 15.066Z" fill="#E05B11"/>
<path d="M148.247 36.7893C153.531 41.9663 157.587 33.9073 157.267 32.3596C153.851 29.0506 154.118 24.7275 154.118 24.7275L146.166 30.8118C146.273 31.0787 146.379 31.2921 146.486 31.559C146.966 32.6798 147.447 33.854 147.874 35.1349C147.98 35.7753 148.087 36.1489 148.247 36.7893Z" fill="#F2B492"/>
<path d="M147.82 35.1871C152.037 32.6787 153.424 26.968 153.424 26.968L146.433 31.5579C146.913 32.7321 147.393 33.9062 147.82 35.1871Z" fill="#24262A"/>
<path d="M137.521 16.4001C137.521 16.4001 134.959 23.3917 139.976 25.2597C139.976 25.2597 139.175 17.5743 137.521 16.4001Z" fill="#E05B11"/>
<path d="M142.378 24.8311C142.378 24.8311 140.99 22.9097 139.443 23.9771C137.842 25.0446 139.656 30.862 142.912 29.5811L142.378 24.8311Z" fill="#EB7133"/>
<path d="M139.389 25.5268C139.442 25.7403 139.549 25.9004 139.603 26.1138C139.656 26.274 139.763 26.4341 139.816 26.6476C139.869 26.7009 139.869 26.7543 139.923 26.861C139.923 26.9144 139.976 26.9678 139.976 26.9678C140.083 27.2346 140.243 27.4481 140.403 27.715C140.51 27.8751 140.617 28.0352 140.67 28.1953C140.67 28.1953 140.67 28.2487 140.723 28.2487C140.777 28.302 140.83 28.4088 140.884 28.4622C142.538 31.1307 144.246 32.0914 145.954 32.3049C148.782 32.6785 153.959 28.0886 154.119 25.4734C154.226 23.6054 154.44 24.2992 153.159 19.7627C151.825 15.2262 149.209 13.4116 149.209 13.4116C145.794 11.4369 141.524 13.3048 139.336 16.1335C137.041 19.0155 138.322 22.4313 139.389 25.5268Z" fill="#F2B492"/>
<path d="M142.163 24.1921C142.27 24.0854 142.27 23.9253 142.217 23.8719C142.217 23.8185 141.63 23.1781 140.936 23.3916C140.295 23.605 140.082 24.1921 140.029 24.2455C139.975 24.3522 140.029 24.5123 140.189 24.5657C140.296 24.6191 140.456 24.5657 140.509 24.459C140.509 24.459 140.669 24.032 141.096 23.9253C141.47 23.8185 141.843 24.2455 141.897 24.2455C141.897 24.2455 142.057 24.2455 142.163 24.1921Z" fill="#24262A"/>
<path d="M143.552 23.9253L142.751 22.2708C142.538 21.8439 142.004 21.6837 141.577 21.8439L137.841 23.6585C137.414 23.872 137.254 24.4057 137.414 24.8326L138.215 26.4871C138.428 26.9141 138.962 27.0742 139.389 26.9141L143.125 25.0995C143.552 24.8326 143.765 24.3523 143.552 23.9253ZM141.791 22.2708C142.004 22.1641 142.217 22.2708 142.324 22.4309L143.125 24.0854C143.232 24.2989 143.125 24.5124 142.965 24.6191L139.229 26.4338C139.015 26.5405 138.802 26.4338 138.695 26.2736L137.894 24.6191C137.788 24.4057 137.894 24.1922 138.055 24.0854L141.791 22.2708Z" fill="white"/>
<g opacity="0.5">
<g opacity="0.5">
<path opacity="0.5" d="M143.552 23.9253L142.751 22.2708C142.538 21.8439 142.004 21.6837 141.577 21.8439L137.841 23.6585C137.414 23.872 137.254 24.4057 137.414 24.8326L138.215 26.4871C138.428 26.9141 138.962 27.0742 139.389 26.9141L143.125 25.0995C143.552 24.8326 143.765 24.3523 143.552 23.9253Z" fill="white"/>
</g>
</g>
<path d="M147.661 24.7795C147.661 24.7795 148.301 27.2346 146.807 28.5689C145.099 30.1166 143.231 27.9818 143.231 27.9818L147.661 24.7795Z" fill="white"/>
<path d="M146.54 29.7429C146.487 29.7429 146.434 29.7963 146.38 29.7963C146.274 29.7963 146.167 29.7429 146.167 29.6362C146.167 29.5295 146.22 29.4227 146.327 29.4227C146.38 29.4227 147.021 29.316 147.234 28.6755C147.288 28.5688 147.394 28.5154 147.448 28.5688C147.554 28.6222 147.608 28.7289 147.554 28.7823C147.394 29.4227 146.807 29.6896 146.54 29.7429Z" fill="#EB7133"/>
<path d="M145.313 22.6965C145.367 22.6432 145.42 22.5364 145.42 22.483C145.42 22.483 145.313 21.7359 145.74 21.469C146.22 21.2021 146.701 21.3623 146.701 21.3623C146.808 21.4156 146.968 21.3623 147.021 21.2021C147.074 21.0954 147.021 20.9353 146.861 20.8819C146.808 20.8819 146.114 20.6151 145.473 21.042C144.779 21.469 144.94 22.483 144.94 22.5364C144.94 22.6432 145.1 22.7499 145.206 22.7499C145.206 22.7499 145.26 22.6965 145.313 22.6965Z" fill="#24262A"/>
<path d="M143.979 19.1234C143.979 19.1234 144.566 17.8958 145.901 17.7891C146.648 17.7357 146.808 18.4829 145.954 18.7498C145.367 18.9099 145.1 19.07 144.62 19.5503C144.246 19.9239 143.819 19.3902 143.979 19.1234Z" fill="#E05B11"/>
<path d="M140.83 20.3496C140.83 20.3496 139.602 19.8159 138.481 20.6164C137.894 21.0434 138.215 21.6838 139.015 21.3636C139.549 21.1501 139.869 21.0434 140.51 21.0968C141.203 21.1501 141.15 20.4563 140.83 20.3496Z" fill="#E05B11"/>
<path d="M145.847 13.0912C145.847 13.0912 148.515 18.3215 151.29 18.6951C153.052 18.9086 153.479 16.4002 153.479 16.4002C153.479 16.4002 147.554 9.30187 145.847 13.0912Z" fill="#E05B11"/>
<path d="M144.671 26.1656C144.778 26.1656 144.885 26.1123 144.992 26.0589C145.098 26.0055 145.152 25.8988 145.098 25.792C145.045 25.6853 144.938 25.6319 144.832 25.6853C144.405 25.8988 143.978 25.7921 143.818 25.6853C144.191 24.5645 143.764 22.2696 143.764 22.1628C143.764 22.0561 143.657 21.9494 143.497 22.0027C143.391 22.0027 143.284 22.1095 143.337 22.2696C143.444 23.0168 143.711 24.9915 143.337 25.7387C143.284 25.8454 143.337 25.9522 143.391 26.0055C143.444 25.9522 143.978 26.3258 144.671 26.1656Z" fill="#24262A"/>
<path d="M139.976 26.9676C140.083 27.2345 140.243 27.448 140.403 27.7148C140.509 27.8749 140.616 28.0351 140.67 28.1952C140.67 28.1952 140.67 28.2485 140.723 28.2485C140.776 28.3019 140.83 28.4087 140.883 28.462C141.737 27.8216 142.271 27.021 142.004 26.6474C141.737 26.3272 140.883 26.4339 139.976 26.9676Z" fill="#EB7133"/>
<path d="M150.382 22.0571C150.595 22.484 149.955 23.338 148.834 23.8717C147.767 24.4588 146.699 24.5655 146.486 24.1385C146.272 23.7116 146.913 22.8576 148.034 22.3239C149.101 21.7368 150.168 21.6301 150.382 22.0571Z" fill="#EB7133"/>
<path d="M151.824 19.6024C151.824 19.6024 152.251 17.4675 154.333 17.681C156.414 17.8945 157.695 24.4591 153.906 24.9395L151.824 19.6024Z" fill="#F2B492"/>
<path d="M154.386 23.5519C154.386 23.8721 154.653 24.139 154.973 24.1924C155.293 24.1924 155.56 23.9255 155.614 23.6053C155.614 23.2851 155.347 23.0182 155.027 22.9648C154.706 22.9648 154.386 23.2317 154.386 23.5519Z" fill="white"/>
<path d="M148.569 16.9873C148.569 16.9873 150.276 18.0547 150.703 20.7766C151.077 23.4985 151.024 25.58 152.892 25.9536C152.892 25.9536 151.931 25.6333 152.144 23.0182C152.358 20.403 152.785 18.8019 151.771 17.7345C150.757 16.6137 148.569 16.9873 148.569 16.9873Z" fill="#E05B11"/>
<path d="M153.532 22.3244C153.532 22.4311 153.639 22.4845 153.746 22.4845C153.746 22.4845 153.746 22.4845 153.799 22.4845C153.853 22.4845 153.959 22.3777 153.906 22.3244C153.906 22.3244 153.853 21.6839 154.119 20.9901C154.6 21.2036 154.973 21.3637 154.973 21.3637C155.027 21.3637 155.08 21.3637 155.133 21.3637C155.187 21.3637 155.24 21.3103 155.24 21.2569C155.294 21.1502 155.24 21.0435 155.187 20.9901C155.187 20.9901 154.813 20.7766 154.333 20.5631C154.493 20.1895 154.813 19.8693 155.187 19.6558C155.294 19.6024 155.294 19.4957 155.24 19.389C155.187 19.2822 155.08 19.2822 154.973 19.3356C153.426 20.2429 153.532 22.2176 153.532 22.3244Z" fill="#24262A"/>
<g opacity="0.5">
<g opacity="0.5">
<g opacity="0.5">
<path opacity="0.5" d="M149.69 21.097L148.889 19.4425C148.676 19.0155 148.142 18.8554 147.715 19.0155L143.979 20.8301C143.552 21.0436 143.392 21.5773 143.552 22.0043L144.353 23.6588C144.566 24.0857 145.1 24.2458 145.527 24.0857L149.263 22.2711C149.69 22.0576 149.903 21.5239 149.69 21.097Z" fill="white"/>
</g>
</g>
</g>
<path d="M149.69 21.097L148.889 19.4425C148.676 19.0155 148.142 18.8554 147.715 19.0155L143.979 20.8301C143.552 21.0436 143.392 21.5773 143.552 22.0043L144.353 23.6588C144.566 24.0857 145.1 24.2458 145.527 24.0857L149.263 22.2711C149.69 22.0576 149.903 21.5239 149.69 21.097ZM147.928 19.4425C148.142 19.3357 148.355 19.4425 148.462 19.6026L149.263 21.2571C149.369 21.4706 149.263 21.684 149.103 21.7908L145.367 23.6054C145.153 23.7121 144.94 23.6054 144.833 23.4453L144.032 21.7908C143.926 21.5773 144.032 21.3638 144.192 21.2571L147.928 19.4425Z" fill="white"/>
<path d="M142.965 22.9648L142.538 22.6446C142.538 22.5912 143.178 21.844 144.032 22.0041L143.925 22.5378C143.391 22.4311 143.018 22.9114 142.965 22.9648Z" fill="white"/>
<path d="M149.316 20.2966L148.889 19.9764C148.942 19.923 149.956 18.8023 151.291 18.5354L151.077 19.1758C149.903 19.3893 149.316 20.2966 149.316 20.2966Z" fill="white"/>
<path d="M150.65 13.6254C150.65 13.6254 146.541 7.27422 140.83 10.2096C135.066 13.145 134.639 19.336 138.375 19.5495C142.111 19.763 147.288 14.3192 147.288 14.3192L150.65 13.6254Z" fill="#E05B11"/>
<path d="M64.0692 68.6987C65.3895 70.2792 65.1668 72.6208 63.5863 73.9412C62.0058 75.2615 59.6641 75.0387 58.3438 73.4582C57.0235 71.8777 57.2462 69.536 58.8267 68.2157C60.4072 66.8954 62.7489 67.1182 64.0692 68.6987Z" fill="#7498CC"/>
<path d="M52.8376 69.593C53.6281 70.5323 53.494 71.9604 52.5547 72.751C51.6153 73.5416 50.1872 73.4075 49.3966 72.4681C48.606 71.5287 48.7401 70.1006 49.6795 69.3101C50.6372 68.4932 52.047 68.6536 52.8376 69.593Z" fill="#7498CC"/>
<path d="M179.581 152.955C179.11 154.96 180.36 156.953 182.365 157.424C184.37 157.895 186.362 156.646 186.834 154.641C187.305 152.636 186.055 150.643 184.05 150.172C182.045 149.701 180.053 150.95 179.581 152.955Z" fill="#7498CC"/>
<path d="M190.021 148.717C189.736 149.911 190.497 151.127 191.691 151.413C192.885 151.698 194.101 150.937 194.386 149.743C194.672 148.549 193.911 147.333 192.717 147.048C191.495 146.747 190.307 147.523 190.021 148.717Z" fill="#7498CC"/>
</svg>
