<svg width="22" height="22" viewBox="0 0 22 22" fill="none" xmlns="http://www.w3.org/2000/svg">
<path d="M11 20.625C8.44729 20.625 5.99913 19.6109 4.1941 17.8059C2.38906 16.0009 1.375 13.5527 1.375 11C1.375 8.44729 2.38906 5.99913 4.1941 4.1941C5.99913 2.38906 8.44729 1.375 11 1.375C13.5527 1.375 16.0009 2.38906 17.8059 4.1941C19.6109 5.99913 20.625 8.44729 20.625 11C20.625 13.5527 19.6109 16.0009 17.8059 17.8059C16.0009 19.6109 13.5527 20.625 11 20.625ZM11 22C13.9174 22 16.7153 20.8411 18.7782 18.7782C20.8411 16.7153 22 13.9174 22 11C22 8.08262 20.8411 5.28473 18.7782 3.22183C16.7153 1.15893 13.9174 0 11 0C8.08262 0 5.28473 1.15893 3.22183 3.22183C1.15893 5.28473 0 8.08262 0 11C0 13.9174 1.15893 16.7153 3.22183 18.7782C5.28473 20.8411 8.08262 22 11 22Z" fill="currentColor"/>
<path d="M7.22563 7.95575C7.22375 8.00015 7.23097 8.04447 7.24685 8.08598C7.26273 8.1275 7.28693 8.16532 7.31797 8.19713C7.34901 8.22894 7.38623 8.25407 7.42734 8.27096C7.46844 8.28786 7.51257 8.29616 7.55701 8.29537H8.69138C8.88113 8.29537 9.03238 8.14 9.05713 7.95162C9.18088 7.04962 9.79963 6.39238 10.9024 6.39238C11.8456 6.39238 12.7091 6.864 12.7091 7.99837C12.7091 8.8715 12.1949 9.273 11.3823 9.8835C10.4569 10.5559 9.72401 11.341 9.77626 12.6156L9.78038 12.914C9.78183 13.0042 9.81868 13.0902 9.88299 13.1535C9.9473 13.2168 10.0339 13.2523 10.1241 13.2522H11.2393C11.3304 13.2522 11.4179 13.216 11.4823 13.1516C11.5468 13.0871 11.583 12.9997 11.583 12.9085V12.7641C11.583 11.7769 11.9584 11.4895 12.9718 10.7209C13.8091 10.0842 14.6823 9.3775 14.6823 7.89387C14.6823 5.81625 12.9278 4.8125 11.0069 4.8125C9.26476 4.8125 7.35626 5.62375 7.22563 7.95575ZM9.36651 15.8799C9.36651 16.6127 9.95088 17.1545 10.7553 17.1545C11.5926 17.1545 12.1688 16.6127 12.1688 15.8799C12.1688 15.1209 11.5913 14.5874 10.7539 14.5874C9.95088 14.5874 9.36651 15.1209 9.36651 15.8799Z" fill="currentColor"/>
</svg>
