<svg width="16" height="14" viewBox="0 0 16 14" fill="none" xmlns="http://www.w3.org/2000/svg">
<path d="M12.6667 0H3.33333C2.4496 0.00101045 1.60237 0.336561 0.97748 0.933049C0.352588 1.52954 0.00105857 2.33826 0 3.18182L0 10.8182C0.00105857 11.6617 0.352588 12.4705 0.97748 13.067C1.60237 13.6634 2.4496 13.999 3.33333 14H12.6667C13.5504 13.999 14.3976 13.6634 15.0225 13.067C15.6474 12.4705 15.9989 11.6617 16 10.8182V3.18182C15.9989 2.33826 15.6474 1.52954 15.0225 0.933049C14.3976 0.336561 13.5504 0.00101045 12.6667 0ZM3.33333 1.27273H12.6667C13.0659 1.27348 13.4557 1.38824 13.786 1.60224C14.1163 1.81624 14.3719 2.11969 14.52 2.47355L9.41467 7.34745C9.03895 7.70465 8.53028 7.90521 8 7.90521C7.46972 7.90521 6.96105 7.70465 6.58533 7.34745L1.48 2.47355C1.6281 2.11969 1.88374 1.81624 2.21403 1.60224C2.54432 1.38824 2.93414 1.27348 3.33333 1.27273ZM12.6667 12.7273H3.33333C2.8029 12.7273 2.29419 12.5261 1.91912 12.1681C1.54405 11.8101 1.33333 11.3245 1.33333 10.8182V4.13636L5.64267 8.24727C6.26842 8.84307 7.11617 9.17766 8 9.17766C8.88383 9.17766 9.73158 8.84307 10.3573 8.24727L14.6667 4.13636V10.8182C14.6667 11.3245 14.456 11.8101 14.0809 12.1681C13.7058 12.5261 13.1971 12.7273 12.6667 12.7273Z" fill="white"/>
</svg>
