<svg width="119" height="37" viewBox="0 0 119 37" fill="none" xmlns="http://www.w3.org/2000/svg">
<path fill-rule="evenodd" clip-rule="evenodd" d="M34.3121 20.1073C33.4263 20.1073 32.688 19.3491 32.688 18.4393C32.688 17.5294 33.4263 16.7712 34.3121 16.7712C35.198 16.7712 35.9362 17.5294 35.9362 18.4393C35.9067 19.3491 35.198 20.1073 34.3121 20.1073Z" fill="#FFD940"/>
<path fill-rule="evenodd" clip-rule="evenodd" d="M38.3871 15.8917C37.5013 15.8917 36.7631 15.1335 36.7631 14.2237C36.7631 13.3139 37.5013 12.5557 38.3871 12.5557C39.273 12.5557 40.0112 13.3139 40.0112 14.2237C40.0112 15.1639 39.273 15.8917 38.3871 15.8917Z" fill="#FFD940"/>
<path fill-rule="evenodd" clip-rule="evenodd" d="M30.2077 12.5862C29.3218 12.5862 28.5836 13.3444 28.5836 14.2542C28.5836 15.164 29.3218 15.9222 30.2077 15.9222C31.0935 15.9222 31.8318 15.164 31.8318 14.2542C31.8318 13.3444 31.0935 12.5862 30.2077 12.5862Z" fill="#FFD940"/>
<path fill-rule="evenodd" clip-rule="evenodd" d="M30.2077 20.9868C29.3218 20.9868 28.5836 21.745 28.5836 22.6548C28.5836 23.5647 29.3218 24.3229 30.2077 24.3229C31.0935 24.3229 31.8318 23.5647 31.8318 22.6548C31.8318 21.745 31.0935 20.9868 30.2077 20.9868Z" fill="#FFD940"/>
<path fill-rule="evenodd" clip-rule="evenodd" d="M26.1327 20.1073C25.2469 20.1073 24.5087 19.3491 24.5087 18.4393C24.5087 17.5294 25.2469 16.7712 26.1327 16.7712C27.0186 16.7712 27.7568 17.5294 27.7568 18.4393C27.7568 19.3491 27.0186 20.1073 26.1327 20.1073Z" fill="#FFD940"/>
<path fill-rule="evenodd" clip-rule="evenodd" d="M22.0578 12.5862C21.1719 12.5862 20.4337 13.3444 20.4337 14.2542C20.4337 15.164 21.1719 15.9222 22.0578 15.9222C22.9436 15.9222 23.6819 15.164 23.6819 14.2542C23.6523 13.3444 22.9436 12.5862 22.0578 12.5862Z" fill="#FFD940"/>
<path fill-rule="evenodd" clip-rule="evenodd" d="M22.0578 20.9868C21.1719 20.9868 20.4337 21.745 20.4337 22.6548C20.4337 23.5647 21.1719 24.3229 22.0578 24.3229C22.9436 24.3229 23.6819 23.5647 23.6819 22.6548C23.6523 21.745 22.9436 20.9868 22.0578 20.9868Z" fill="#FFD940"/>
<path fill-rule="evenodd" clip-rule="evenodd" d="M5.69902 20.1073C6.58488 20.1073 7.32309 19.3491 7.32309 18.4393C7.32309 17.5294 6.58488 16.7712 5.69902 16.7712C4.81316 16.7712 4.07495 17.5294 4.07495 18.4393C4.07495 19.3491 4.81316 20.1073 5.69902 20.1073Z" fill="#FFD940"/>
<path fill-rule="evenodd" clip-rule="evenodd" d="M1.62407 15.8917C2.50993 15.8917 3.24814 15.1335 3.24814 14.2237C3.24814 13.3139 2.50993 12.5557 1.62407 12.5557C0.738213 12.586 0 13.3442 0 14.254C0 15.1639 0.738213 15.8917 1.62407 15.8917Z" fill="#FFD940"/>
<path fill-rule="evenodd" clip-rule="evenodd" d="M9.77391 12.5862C10.6598 12.5862 11.398 13.3444 11.398 14.2542C11.398 15.164 10.6598 15.9222 9.77391 15.9222C8.88805 15.9222 8.14984 15.164 8.14984 14.2542C8.17937 13.3444 8.88805 12.5862 9.77391 12.5862Z" fill="#FFD940"/>
<path fill-rule="evenodd" clip-rule="evenodd" d="M9.77391 20.9868C10.6598 20.9868 11.398 21.745 11.398 22.6548C11.398 23.5647 10.6598 24.3229 9.77391 24.3229C8.88805 24.3229 8.14984 23.5647 8.14984 22.6548C8.17937 21.745 8.88805 20.9868 9.77391 20.9868Z" fill="#FFD940"/>
<path fill-rule="evenodd" clip-rule="evenodd" d="M13.8784 20.1073C14.7643 20.1073 15.5025 19.3491 15.5025 18.4393C15.5025 17.5294 14.7643 16.7712 13.8784 16.7712C12.9925 16.7712 12.2543 17.5294 12.2543 18.4393C12.2543 19.3491 12.9925 20.1073 13.8784 20.1073Z" fill="#FFD940"/>
<path fill-rule="evenodd" clip-rule="evenodd" d="M17.9534 12.5862C18.8392 12.5862 19.5774 13.3444 19.5774 14.2542C19.5774 15.164 18.8392 15.9222 17.9534 15.9222C17.0675 15.9222 16.3293 15.164 16.3293 14.2542C16.3588 13.3444 17.0675 12.5862 17.9534 12.5862Z" fill="#FFD940"/>
<path fill-rule="evenodd" clip-rule="evenodd" d="M17.9534 20.9868C18.8392 20.9868 19.5774 21.745 19.5774 22.6548C19.5774 23.5647 18.8392 24.3229 17.9534 24.3229C17.0675 24.3229 16.3293 23.5647 16.3293 22.6548C16.3588 21.745 17.0675 20.9868 17.9534 20.9868Z" fill="#FFD940"/>
<path fill-rule="evenodd" clip-rule="evenodd" d="M12.2543 1.66803C12.2543 2.57787 12.9925 3.33607 13.8784 3.33607C14.7643 3.33607 15.5025 2.57787 15.5025 1.66803C15.4729 0.758197 14.7643 0 13.8784 0C12.9925 0 12.2543 0.758197 12.2543 1.66803Z" fill="#FFD940"/>
<path fill-rule="evenodd" clip-rule="evenodd" d="M19.5774 5.85333C19.5774 6.76317 18.8392 7.52137 17.9534 7.52137C17.0675 7.52137 16.3293 6.76317 16.3293 5.85333C16.3293 4.9435 17.0675 4.1853 17.9534 4.1853C18.8392 4.1853 19.5774 4.9435 19.5774 5.85333Z" fill="#FFD940"/>
<path fill-rule="evenodd" clip-rule="evenodd" d="M12.2543 10.0386C12.2543 10.9485 12.9925 11.7067 13.8784 11.7067C14.7643 11.7067 15.5025 10.9485 15.5025 10.0386C15.5025 9.1288 14.7643 8.37061 13.8784 8.37061C12.9925 8.40093 12.2543 9.1288 12.2543 10.0386Z" fill="#FFD940"/>
<path fill-rule="evenodd" clip-rule="evenodd" d="M24.5087 10.0386C24.5087 10.9485 25.2469 11.7067 26.1327 11.7067C27.0186 11.7067 27.7568 10.9485 27.7568 10.0386C27.7568 9.1288 27.0186 8.37061 26.1327 8.37061C25.2469 8.40093 24.5087 9.1288 24.5087 10.0386Z" fill="#FFD940"/>
<path fill-rule="evenodd" clip-rule="evenodd" d="M26.1327 25.1721C25.2469 25.1721 24.5087 25.9303 24.5087 26.8402C24.5087 27.75 25.2469 28.5082 26.1327 28.5082C27.0186 28.5082 27.7568 27.75 27.7568 26.8402C27.7568 25.9303 27.0186 25.1721 26.1327 25.1721Z" fill="#FFD940"/>
<path fill-rule="evenodd" clip-rule="evenodd" d="M22.0578 32.6935C21.1719 32.6935 20.4337 31.9353 20.4337 31.0255C20.4337 30.1156 21.1719 29.3574 22.0578 29.3574C22.9436 29.3574 23.6819 30.1156 23.6819 31.0255C23.6523 31.9353 22.9436 32.6935 22.0578 32.6935Z" fill="#FFD940"/>
<path fill-rule="evenodd" clip-rule="evenodd" d="M13.8784 25.1721C14.7643 25.1721 15.5025 25.9303 15.5025 26.8402C15.5025 27.75 14.7643 28.5082 13.8784 28.5082C12.9925 28.5082 12.2543 27.75 12.2543 26.8402C12.2543 25.9303 12.9925 25.1721 13.8784 25.1721Z" fill="#FFD940"/>
<path fill-rule="evenodd" clip-rule="evenodd" d="M17.9534 32.6935C18.8392 32.6935 19.5774 31.9353 19.5774 31.0255C19.5774 30.1156 18.8392 29.3574 17.9534 29.3574C17.0675 29.3574 16.3293 30.1156 16.3293 31.0255C16.3588 31.9353 17.0675 32.6935 17.9534 32.6935Z" fill="#FFD940"/>
<path fill-rule="evenodd" clip-rule="evenodd" d="M12.2543 35.241C12.2543 34.3312 12.9925 33.573 13.8784 33.573C14.7643 33.573 15.5025 34.3312 15.5025 35.241C15.5025 36.1509 14.7643 36.9091 13.8784 36.9091C12.9925 36.8787 12.2543 36.1509 12.2543 35.241Z" fill="#FFD940"/>
<path fill-rule="evenodd" clip-rule="evenodd" d="M26.1327 33.573C25.2469 33.573 24.5087 34.3312 24.5087 35.241C24.5087 36.1509 25.2469 36.9091 26.1327 36.9091C27.0186 36.9091 27.7568 36.1509 27.7568 35.241C27.7568 34.3312 27.0186 33.573 26.1327 33.573Z" fill="#FFD940"/>
<path fill-rule="evenodd" clip-rule="evenodd" d="M27.7568 1.66803C27.7568 2.57787 27.0186 3.33607 26.1327 3.33607C25.2469 3.33607 24.5087 2.57787 24.5087 1.66803C24.5087 0.758197 25.2469 0 26.1327 0C27.0186 0 27.7568 0.758197 27.7568 1.66803Z" fill="#FFD940"/>
<path fill-rule="evenodd" clip-rule="evenodd" d="M38.3871 24.2926C37.5013 24.2926 36.7631 23.5344 36.7631 22.6246C36.7631 21.7147 37.5013 20.9565 38.3871 20.9565C39.273 20.9565 40.0112 21.7147 40.0112 22.6246C40.0112 23.5647 39.273 24.2926 38.3871 24.2926Z" fill="#153769"/>
<path fill-rule="evenodd" clip-rule="evenodd" d="M34.3121 15.8917C33.4263 15.8917 32.688 15.1335 32.688 14.2237C32.688 13.3139 33.4263 12.5557 34.3121 12.5557C35.198 12.5557 35.9362 13.3139 35.9362 14.2237C35.9067 15.1639 35.198 15.8917 34.3121 15.8917Z" fill="#153769"/>
<path fill-rule="evenodd" clip-rule="evenodd" d="M30.2077 16.8018C29.3218 16.8018 28.5836 17.56 28.5836 18.4698C28.5836 19.3796 29.3218 20.1378 30.2077 20.1378C31.0935 20.1378 31.8318 19.3796 31.8318 18.4698C31.8318 17.5296 31.0935 16.8018 30.2077 16.8018Z" fill="#153769"/>
<path fill-rule="evenodd" clip-rule="evenodd" d="M34.3121 24.2926C33.4263 24.2926 32.688 23.5344 32.688 22.6246C32.688 21.7147 33.4263 20.9565 34.3121 20.9565C35.198 20.9565 35.9362 21.7147 35.9362 22.6246C35.9067 23.5647 35.198 24.2926 34.3121 24.2926Z" fill="#153769"/>
<path fill-rule="evenodd" clip-rule="evenodd" d="M26.1327 15.8917C25.2469 15.8917 24.5087 15.1335 24.5087 14.2237C24.5087 13.3139 25.2469 12.5557 26.1327 12.5557C27.0186 12.5557 27.7568 13.3139 27.7568 14.2237C27.7568 15.1639 27.0186 15.8917 26.1327 15.8917Z" fill="#153769"/>
<path fill-rule="evenodd" clip-rule="evenodd" d="M22.0578 16.8018C21.1719 16.8018 20.4337 17.56 20.4337 18.4698C20.4337 19.3796 21.1719 20.1378 22.0578 20.1378C22.9436 20.1378 23.6819 19.3796 23.6819 18.4698C23.6523 17.5296 22.9436 16.8018 22.0578 16.8018Z" fill="#153769"/>
<path fill-rule="evenodd" clip-rule="evenodd" d="M1.62407 24.2926C2.50993 24.2926 3.24814 23.5344 3.24814 22.6246C3.24814 21.7147 2.50993 20.9565 1.62407 20.9565C0.738213 20.9565 0 21.7147 0 22.6246C0 23.5647 0.738213 24.2926 1.62407 24.2926Z" fill="#153769"/>
<path fill-rule="evenodd" clip-rule="evenodd" d="M5.69902 15.8917C6.58488 15.8917 7.32309 15.1335 7.32309 14.2237C7.32309 13.3139 6.58488 12.5557 5.69902 12.5557C4.81316 12.5557 4.07495 13.3139 4.07495 14.2237C4.07495 15.1639 4.81316 15.8917 5.69902 15.8917Z" fill="#153769"/>
<path fill-rule="evenodd" clip-rule="evenodd" d="M9.77391 16.8018C10.6598 16.8018 11.398 17.56 11.398 18.4698C11.398 19.3796 10.6598 20.1378 9.77391 20.1378C8.88805 20.1378 8.14984 19.3796 8.14984 18.4698C8.17937 17.5296 8.88805 16.8018 9.77391 16.8018Z" fill="#153769"/>
<path fill-rule="evenodd" clip-rule="evenodd" d="M5.69902 24.2926C6.58488 24.2926 7.32309 23.5344 7.32309 22.6246C7.32309 21.7147 6.58488 20.9565 5.69902 20.9565C4.81316 20.9565 4.07495 21.7147 4.07495 22.6246C4.07495 23.5647 4.81316 24.2926 5.69902 24.2926Z" fill="#153769"/>
<path fill-rule="evenodd" clip-rule="evenodd" d="M13.8784 15.8917C14.7643 15.8917 15.5025 15.1335 15.5025 14.2237C15.5025 13.3139 14.7643 12.5557 13.8784 12.5557C12.9925 12.5557 12.2543 13.3139 12.2543 14.2237C12.2543 15.1639 12.9925 15.8917 13.8784 15.8917Z" fill="#153769"/>
<path fill-rule="evenodd" clip-rule="evenodd" d="M13.8784 24.2926C14.7643 24.2926 15.5025 23.5344 15.5025 22.6246C15.5025 21.7147 14.7643 20.9565 13.8784 20.9565C12.9925 20.9565 12.2543 21.7147 12.2543 22.6246C12.2543 23.5647 12.9925 24.2926 13.8784 24.2926Z" fill="#153769"/>
<path fill-rule="evenodd" clip-rule="evenodd" d="M20.4337 1.66803C20.4337 2.57787 21.1719 3.33607 22.0578 3.33607C22.9436 3.33607 23.6819 2.57787 23.6819 1.66803C23.6819 0.758197 22.9436 0 22.0578 0C21.1719 0 20.4337 0.758197 20.4337 1.66803Z" fill="#153769"/>
<path fill-rule="evenodd" clip-rule="evenodd" d="M15.4729 5.85333C15.4729 6.76317 14.7347 7.52137 13.8489 7.52137C12.963 7.52137 12.2248 6.76317 12.2248 5.85333C12.2248 4.9435 12.963 4.1853 13.8489 4.1853C14.7642 4.1853 15.4729 4.9435 15.4729 5.85333Z" fill="#153769"/>
<path fill-rule="evenodd" clip-rule="evenodd" d="M16.3588 10.0386C16.3588 10.9485 17.097 11.7067 17.9829 11.7067C18.8687 11.7067 19.607 10.9485 19.607 10.0386C19.607 9.1288 18.8687 8.37061 17.9829 8.37061C17.0675 8.40093 16.3588 9.1288 16.3588 10.0386Z" fill="#153769"/>
<path fill-rule="evenodd" clip-rule="evenodd" d="M20.4337 10.0386C20.4337 10.9485 21.1719 11.7067 22.0578 11.7067C22.9436 11.7067 23.6819 10.9485 23.6819 10.0386C23.6819 9.1288 22.9436 8.37061 22.0578 8.37061C21.1719 8.40093 20.4337 9.1288 20.4337 10.0386Z" fill="#153769"/>
<path fill-rule="evenodd" clip-rule="evenodd" d="M27.7568 5.85333C27.7568 6.76317 27.0186 7.52137 26.1327 7.52137C25.2469 7.52137 24.5087 6.76317 24.5087 5.85333C24.5087 4.9435 25.2469 4.1853 26.1327 4.1853C27.0186 4.1853 27.7568 4.9435 27.7568 5.85333Z" fill="#153769"/>
<path fill-rule="evenodd" clip-rule="evenodd" d="M26.1327 29.3877C25.2469 29.3877 24.5087 30.1459 24.5087 31.0557C24.5087 31.9656 25.2469 32.7238 26.1327 32.7238C27.0186 32.7238 27.7568 31.9656 27.7568 31.0557C27.7568 30.1156 27.0186 29.3877 26.1327 29.3877Z" fill="#153769"/>
<path fill-rule="evenodd" clip-rule="evenodd" d="M22.0578 28.5082C21.1719 28.5082 20.4337 27.75 20.4337 26.8402C20.4337 25.9303 21.1719 25.1721 22.0578 25.1721C22.9436 25.1721 23.6819 25.9303 23.6819 26.8402C23.6523 27.75 22.9436 28.5082 22.0578 28.5082Z" fill="#153769"/>
<path fill-rule="evenodd" clip-rule="evenodd" d="M13.8784 29.3877C14.7643 29.3877 15.5025 30.1459 15.5025 31.0557C15.5025 31.9656 14.7643 32.7238 13.8784 32.7238C12.9925 32.7238 12.2543 31.9656 12.2543 31.0557C12.2543 30.1156 12.9925 29.3877 13.8784 29.3877Z" fill="#153769"/>
<path fill-rule="evenodd" clip-rule="evenodd" d="M20.4337 35.241C20.4337 34.3312 21.1719 33.573 22.0578 33.573C22.9436 33.573 23.6819 34.3312 23.6819 35.241C23.6819 36.1509 22.9436 36.9091 22.0578 36.9091C21.1719 36.8787 20.4337 36.1509 20.4337 35.241Z" fill="#153769"/>
<path d="M60.1496 8.34009C59.5 8.34009 59.0866 8.70402 58.8208 9.34091L53.6238 22.4729L48.3972 9.34091C48.161 8.67369 47.6885 8.34009 47.0684 8.34009C46.3007 8.34009 45.6806 8.97697 45.6806 9.73517C45.6806 9.97779 45.7397 10.2507 45.8873 10.554L52.2655 26.0212C52.5312 26.6884 52.9742 27.0221 53.5943 27.0221C54.2439 27.0221 54.6868 26.6884 54.9526 26.0212L61.3307 10.554C61.4784 10.2507 61.5374 9.97779 61.5374 9.73517C61.5374 8.97697 60.9173 8.34009 60.1496 8.34009Z" fill="#153769"/>
<path d="M64.4903 27.022C65.2876 27.022 65.9077 26.3851 65.9077 25.536V14.4663C65.9077 13.6171 65.3171 12.9802 64.5198 12.9802C63.693 12.9802 63.1025 13.6171 63.1025 14.4663V25.5663C63.1025 26.3851 63.693 27.022 64.4903 27.022Z" fill="#153769"/>
<path d="M73.7328 27.022C76.3608 27.022 78.5754 25.6269 78.5754 22.8974C78.5754 20.9261 77.3648 19.8646 75.0025 18.8335L73.7623 18.3179C72.5516 17.8327 72.0201 17.4687 72.0201 16.7409C72.0201 15.8614 72.7583 15.4671 73.8213 15.4671C74.7958 15.4671 75.7112 15.8614 76.4199 16.4073C76.7742 16.6802 77.0104 16.8319 77.3057 16.8319C77.9553 16.8319 78.4869 16.286 78.4869 15.5884C78.4869 15.2245 78.3392 14.8909 78.0735 14.6179C77.0695 13.6171 75.5931 12.9802 73.9099 12.9802C71.3114 12.9802 69.3035 14.3753 69.3035 16.8622C69.3035 18.8942 70.6027 19.8646 72.7288 20.7745L74.0576 21.3507C75.1206 21.7753 75.8883 22.1392 75.8883 23.0187C75.8883 24.0196 74.9139 24.5351 73.7918 24.5351C72.5516 24.5351 71.5476 23.9286 70.7208 23.1401C70.4256 22.8671 70.1303 22.7458 69.835 22.7458C69.1558 22.7458 68.5948 23.322 68.5948 24.0196C68.5948 24.4138 68.7424 24.7171 69.0082 24.9597C70.0417 26.1728 71.6953 27.022 73.7328 27.022Z" fill="#153769"/>
<path d="M95.6134 24.8081C94.2256 24.8081 93.3102 24.1106 93.3102 23.0187C93.3102 21.9573 94.1075 21.381 95.643 21.381H99.0092V21.6237C99.0092 23.413 97.5033 24.8081 95.6134 24.8081ZM96.4402 12.9802C94.5209 12.9802 92.7787 13.6778 91.6566 14.8606C91.2727 15.2548 91.0956 15.6187 91.0956 16.0433C91.0956 16.6802 91.6566 17.2565 92.3358 17.2565C92.6606 17.2565 92.9559 17.1048 93.3102 16.8319C94.137 15.9827 95.1114 15.5581 96.204 15.5581C98.0052 15.5581 99.0092 16.5892 99.0092 18.4392V19.3187H95.2886C92.3358 19.3187 90.4459 20.8048 90.4459 23.1401C90.4459 25.4753 92.2767 27.022 95.0229 27.022C96.706 27.022 98.0938 26.4458 99.0387 25.4146V25.5663C99.0387 26.3851 99.6293 27.022 100.427 27.022C101.224 27.022 101.814 26.4155 101.814 25.5663V18.5909C101.844 15.0425 99.836 12.9802 96.4402 12.9802Z" fill="#153769"/>
<path d="M88.1132 24.4139C87.8769 24.4139 87.6407 24.4442 87.3159 24.4442C85.5147 24.4442 84.7469 23.7466 84.7469 22.1089V15.7704H86.7844C87.4931 15.7704 88.0246 15.2548 88.0246 14.527C88.0246 13.8294 87.4931 13.2532 86.7844 13.2532H84.7469V10.918C84.7469 10.0688 84.1268 9.43188 83.3295 9.43188C82.5323 9.43188 81.9122 10.0991 81.9122 10.918C81.9122 15.4368 81.9122 15.4975 81.9122 22.3516C81.9122 25.3843 83.6248 27.022 86.7548 27.022C87.4931 27.022 88.0541 26.9311 88.5266 26.7491C89.0581 26.5671 89.3534 26.1425 89.3534 25.536C89.3238 24.8688 88.8514 24.4139 88.1132 24.4139Z" fill="#153769"/>
<path d="M117.494 24.4139C117.258 24.4139 117.022 24.4442 116.697 24.4442C114.896 24.4442 114.128 23.7466 114.128 22.1089V15.7704H116.165C116.874 15.7704 117.405 15.2548 117.405 14.527C117.405 13.8294 116.874 13.2532 116.165 13.2532H114.128V10.918C114.128 10.0688 113.508 9.43188 112.71 9.43188C111.913 9.43188 111.293 10.0991 111.293 10.918C111.293 15.4368 111.293 15.4975 111.293 22.3516C111.293 25.3843 113.006 27.022 116.136 27.022C116.874 27.022 117.435 26.9311 117.907 26.7491C118.439 26.5671 118.734 26.1425 118.734 25.536C118.734 24.8688 118.232 24.4139 117.494 24.4139Z" fill="#153769"/>
<path d="M106.568 27.0221C107.366 27.0221 107.956 26.3852 107.956 25.5361V7.33934C107.956 6.49016 107.366 5.85327 106.568 5.85327C105.742 5.85327 105.151 6.49016 105.151 7.33934V25.5361C105.181 26.3852 105.771 27.0221 106.568 27.0221Z" fill="#153769"/>
</svg>
