<svg id="Vrstva_1" data-name="Vrstva 1" xmlns="http://www.w3.org/2000/svg" viewBox="0 0 55.86 67.24"><defs><style>.cls-1{fill:#fff;}</style></defs><title>bulb</title><path class="cls-1" d="M544.82,214.39H532.89a1.67,1.67,0,0,0,0,3.34h11.93a1.67,1.67,0,0,0,0-3.34Z" transform="translate(-510.93 -159.55)"/><path class="cls-1" d="M535.78,224.14a3.11,3.11,0,0,0,6.15,0,3.9,3.9,0,0,0,3.68-3.88H532.1A3.89,3.89,0,0,0,535.78,224.14Z" transform="translate(-510.93 -159.55)"/><path class="cls-1" d="M538.86,169.21a2.23,2.23,0,0,0,2.23-2.24v-5.18a2.23,2.23,0,1,0-4.46,0V167A2.23,2.23,0,0,0,538.86,169.21Z" transform="translate(-510.93 -159.55)"/><path class="cls-1" d="M524.22,172.46a2.23,2.23,0,0,0,3.61-2.62l-3.05-4.2a2.23,2.23,0,1,0-3.61,2.62Z" transform="translate(-510.93 -159.55)"/><path class="cls-1" d="M553.49,205.16a2.23,2.23,0,1,0-3.6,2.62l3.05,4.2a2.21,2.21,0,0,0,1.8.92,2.19,2.19,0,0,0,1.31-.43,2.22,2.22,0,0,0,.49-3.11Z" transform="translate(-510.93 -159.55)"/><path class="cls-1" d="M518.79,179.94l-4.94-1.61a2.23,2.23,0,0,0-1.38,4.25l4.94,1.6a2.07,2.07,0,0,0,.69.11,2.23,2.23,0,0,0,.69-4.35Z" transform="translate(-510.93 -159.55)"/><path class="cls-1" d="M565.24,195l-4.93-1.6a2.23,2.23,0,0,0-1.38,4.24l4.94,1.61a2.37,2.37,0,0,0,.69.11,2.23,2.23,0,0,0,.68-4.36Z" transform="translate(-510.93 -159.55)"/><path class="cls-1" d="M517.41,193.43l-4.94,1.6a2.24,2.24,0,0,0,.69,4.36,2.42,2.42,0,0,0,.69-.11l4.93-1.61a2.23,2.23,0,1,0-1.37-4.24Z" transform="translate(-510.93 -159.55)"/><path class="cls-1" d="M559.62,184.29a2.07,2.07,0,0,0,.69-.11l4.93-1.6a2.23,2.23,0,0,0-1.37-4.25l-4.94,1.61a2.23,2.23,0,0,0,.69,4.35Z" transform="translate(-510.93 -159.55)"/><path class="cls-1" d="M524.22,205.16l-3.05,4.19a2.23,2.23,0,0,0,.49,3.12,2.19,2.19,0,0,0,1.31.43,2.24,2.24,0,0,0,1.81-.92l3.05-4.2a2.23,2.23,0,1,0-3.61-2.62Z" transform="translate(-510.93 -159.55)"/><path class="cls-1" d="M552.94,165.64l-3.05,4.2a2.23,2.23,0,0,0,1.8,3.54,2.24,2.24,0,0,0,1.81-.92l3-4.2a2.23,2.23,0,1,0-3.61-2.62Z" transform="translate(-510.93 -159.55)"/><path class="cls-1" d="M555,188.89a16.12,16.12,0,1,0-28.78,9.94,68.87,68.87,0,0,1,5.23,7.65v5.35H546.2v-5.21a79.67,79.67,0,0,1,5.32-7.79A16,16,0,0,0,555,188.89Z" transform="translate(-510.93 -159.55)"/></svg>