<svg id="Vrstva_1" data-name="Vrstva 1" xmlns="http://www.w3.org/2000/svg" viewBox="0 0 60.95 60.95"><defs><style>.cls-1{fill:#fff;}</style></defs><title>it</title><path class="cls-1" d="M626.67,181.43a2.5,2.5,0,1,0,2.5,2.5A2.51,2.51,0,0,0,626.67,181.43Z" transform="translate(-618.47 -155.03)"/><path class="cls-1" d="M667.08,194.58a2.5,2.5,0,1,0-2.5,2.5A2.5,2.5,0,0,0,667.08,194.58Z" transform="translate(-618.47 -155.03)"/><path class="cls-1" d="M664,159v21.44l6.18,3.48a4.35,4.35,0,1,1-1.19,3,3.37,3.37,0,0,1,0-.44l-7.81-4.4V157.6a30.17,30.17,0,0,0-7-2.11V190L649.32,197a4.3,4.3,0,0,1,1,2.8,4.36,4.36,0,1,1-4.35-4.36,4.17,4.17,0,0,1,.94.11l4.55-6.38v-34c-.83-.07-1.68-.1-2.53-.1A30.39,30.39,0,0,0,635.88,158v17.23l5.38,5.86a4.48,4.48,0,0,1,1.9-.43A4.36,4.36,0,1,1,638.8,185a4.29,4.29,0,0,1,.48-2l-6.19-6.73v-16.8a30.48,30.48,0,0,0,2,53.19V194l-6.26-6.26a4.27,4.27,0,0,1-2.18.6,4.36,4.36,0,1,1,4.35-4.36,4.17,4.17,0,0,1-.33,1.66l7.2,7.2v21.12A30.53,30.53,0,0,0,649,216a31.28,31.28,0,0,0,5.51-.49V204.06l6.31-7.37a4.28,4.28,0,0,1-.55-2.11,4.36,4.36,0,1,1,4.36,4.36,4.29,4.29,0,0,1-1.75-.37l-5.58,6.52v9.74A30.48,30.48,0,0,0,664,159Z" transform="translate(-618.47 -155.03)"/><path class="cls-1" d="M673.37,189.41a2.5,2.5,0,1,0-2.5-2.5A2.5,2.5,0,0,0,673.37,189.41Z" transform="translate(-618.47 -155.03)"/><path class="cls-1" d="M643.48,199.75a2.51,2.51,0,1,0,4.51-1.5l-1.24-.88a2.42,2.42,0,0,0-.76-.12A2.51,2.51,0,0,0,643.48,199.75Z" transform="translate(-618.47 -155.03)"/><path class="cls-1" d="M643.16,187.48a2.5,2.5,0,1,0-2.5-2.5A2.5,2.5,0,0,0,643.16,187.48Z" transform="translate(-618.47 -155.03)"/></svg>