<svg xmlns="http://www.w3.org/2000/svg" viewBox="0 0 194.88 73.13"><title>MAPO group</title><polygon points="32.37 7.68 18.61 30.18 0 0 0 44.3 8.78 44.3 8.78 31.46 18.48 44.71 28.3 31.25 28.3 44.3 37.13 44.3 37.07 0 32.37 7.68" style="fill:#58595b"/><polygon points="76.4 8.56 72.07 0.33 67.25 9.33 67.25 9.36 49.03 43.99 59.18 43.99 72.03 19.49 85 43.99 95.02 43.99 93.08 40.31 76.4 8.56" style="fill:#58595b"/><path d="M180.9,41.09a15.34,15.34,0,0,0-6.67-5.89,19.51,19.51,0,0,0-8.58-2.09h-15.2V77H160V66.71h5.64a19.35,19.35,0,0,0,8.56-2.06h0a15.24,15.24,0,0,0,6.69-5.9,16.85,16.85,0,0,0,2.23-8.84A16.78,16.78,0,0,0,180.9,41.09ZM165.62,57.26H160V42.59h5.64a9.78,9.78,0,0,1,4.29,1A6,6,0,0,1,172.58,46a7.74,7.74,0,0,1,.9,3.93,7.63,7.63,0,0,1-.91,3.93,5.94,5.94,0,0,1-2.66,2.36h0A9.7,9.7,0,0,1,165.62,57.26Z" transform="translate(-44.04 -33)" style="fill:#58595b"/><path d="M174.21,35.2h0Z" transform="translate(-44.04 -33)" style="fill:#58595b"/><path d="M232.54,39.49a21.78,21.78,0,0,0-37.19,15.42,21.79,21.79,0,1,0,43.57,0A21,21,0,0,0,232.54,39.49Zm-6.59,24a12.17,12.17,0,0,1-20.77-8.61A12.17,12.17,0,1,1,226,63.51Z" transform="translate(-44.04 -33)" style="fill:#00afec"/><path d="M123.53,102.47c0,1.54-.29,2.28-1.12,2.89a4.4,4.4,0,0,1-2.67.77c-2,0-3.63-1-3.63-2.3a.93.93,0,0,1,.94-.94c.39,0,.55.11.94.61a2,2,0,0,0,1.81.92c1.19,0,1.71-.5,1.71-1.66v-.28c0-.14,0-.2-.11-.2s-.1,0-.22.11a3,3,0,0,1-1.79.54,3.28,3.28,0,0,1-2.93-1.44,6.64,6.64,0,0,1-.6-3.31,5,5,0,0,1,.86-3.43,3.5,3.5,0,0,1,2.69-1.14,3,3,0,0,1,1.88.54c.09,0,.14.09.18.09s.08,0,.15-.15a1,1,0,0,1,.9-.48,1,1,0,0,1,.87.46c.11.19.14.37.14,1.16Zm-5.65-4.2c0,2.14.5,3,1.82,3s1.81-.81,1.81-2.91-.5-3-1.81-3S117.88,96.13,117.88,98.27Z" transform="translate(-44.04 -33)" style="fill:#00afec"/><path d="M128,95.23c0-.86,0-1,.18-1.23a1,1,0,0,1,.81-.39.87.87,0,0,1,.86.52c.08.15.12.2.17.2s.08,0,.19-.11a2.37,2.37,0,0,1,1.6-.61c.83,0,1.31.41,1.31,1.09a.92.92,0,0,1-1,1,2.54,2.54,0,0,1-.39,0l-.46,0a1.18,1.18,0,0,0-1,.41A1.64,1.64,0,0,0,130,97.2v4.44c0,.86,0,1-.18,1.23a1,1,0,0,1-.83.39.94.94,0,0,1-.86-.46c-.14-.22-.15-.35-.15-1.16Z" transform="translate(-44.04 -33)" style="fill:#00afec"/><path d="M142.88,94.9c.59.76.81,1.73.81,3.61s-.28,2.91-1,3.66a3.76,3.76,0,0,1-2.88,1.09,3.61,3.61,0,0,1-3-1.29c-.59-.74-.81-1.75-.81-3.54s.27-3,1-3.75a3.91,3.91,0,0,1,2.87-1.07A3.63,3.63,0,0,1,142.88,94.9Zm-4.56,1.42a5.63,5.63,0,0,0-.24,2.11,4.56,4.56,0,0,0,.31,2.25,1.55,1.55,0,0,0,1.45.79,1.59,1.59,0,0,0,1.53-.92,5.57,5.57,0,0,0,.24-2.08,4.58,4.58,0,0,0-.31-2.28,1.73,1.73,0,0,0-3,.13Z" transform="translate(-44.04 -33)" style="fill:#00afec"/><path d="M155,101.64c0,.86,0,1-.18,1.23a.85.85,0,0,1-.77.39c-.45,0-.61-.11-.89-.59a.14.14,0,0,0-.11-.09s-.06,0-.13,0a3.76,3.76,0,0,1-4.49-.24,2.76,2.76,0,0,1-.66-2.22V95.23c0-.86,0-1,.18-1.23a1,1,0,0,1,.83-.39,1,1,0,0,1,.87.46c.13.22.15.35.15,1.16v4.33a2.65,2.65,0,0,0,.2,1.38,1.25,1.25,0,0,0,1.19.61,1.78,1.78,0,0,0,1.4-.63,2.34,2.34,0,0,0,.39-1.65v-4c0-.86,0-1,.18-1.23a1.06,1.06,0,0,1,1.7.07c.13.22.14.35.14,1.16Z" transform="translate(-44.04 -33)" style="fill:#00afec"/><path d="M159.43,95.23c0-.86,0-1,.18-1.23a.87.87,0,0,1,.78-.39c.46,0,.66.15.9.63,0,.07.07.11.11.11s0,0,.09-.06a3.66,3.66,0,0,1,4.88.57,5.72,5.72,0,0,1,.74,3.37c0,1.94-.26,3.13-.85,3.87a3.15,3.15,0,0,1-2.56,1.16,3,3,0,0,1-2-.66c-.15-.12-.18-.13-.2-.13s-.08,0-.08.18v1.81c0,.88,0,1-.18,1.23a1,1,0,0,1-.83.39,1,1,0,0,1-.86-.46c-.13-.23-.15-.35-.15-1.16Zm2.36.9a5.11,5.11,0,0,0-.34,2.3,4.38,4.38,0,0,0,.41,2.44,1.64,1.64,0,0,0,1.38.68,1.61,1.61,0,0,0,1.46-.81,5.13,5.13,0,0,0,.33-2.27,4.38,4.38,0,0,0-.41-2.46,1.63,1.63,0,0,0-1.38-.69A1.59,1.59,0,0,0,161.79,96.13Z" transform="translate(-44.04 -33)" style="fill:#00afec"/><rect y="68.11" width="37.23" height="1.84" style="fill:#00afec"/><rect x="154.47" y="68.11" width="37.23" height="1.84" style="fill:#00afec"/></svg>