<svg width="50" height="50" viewBox="0 0 50 50" fill="none" xmlns="http://www.w3.org/2000/svg">
<rect width="50" height="50" rx="12" fill="#393FCC"/>
<path fill-rule="evenodd" clip-rule="evenodd" d="M15.25 15.25C15.25 14.0534 16.22 13.0833 17.4167 13.0833H32.5833C33.78 13.0833 34.75 14.0534 34.75 15.25V34.75C34.75 35.9466 33.78 36.9166 32.5833 36.9166H17.4167C16.2201 36.9166 15.25 35.9466 15.25 34.75V15.25ZM21.2083 27.1666C20.61 27.1666 20.125 27.6517 20.125 28.25C20.125 28.8483 20.61 29.3333 21.2083 29.3333H28.7917C29.39 29.3333 29.875 28.8483 29.875 28.25C29.875 27.6517 29.39 27.1666 28.7917 27.1666H21.2083ZM20.125 31.5C20.125 30.9017 20.61 30.4166 21.2083 30.4166H25C25.5983 30.4166 26.0833 30.9017 26.0833 31.5C26.0833 32.0983 25.5983 32.5833 25 32.5833H21.2083C20.61 32.5833 20.125 32.0983 20.125 31.5ZM29.016 19.8077C29.4391 19.3846 29.4391 18.6987 29.016 18.2756C28.593 17.8525 27.907 17.8525 27.484 18.2756L23.9167 21.8429L22.516 20.4423C22.093 20.0192 21.407 20.0192 20.984 20.4423C20.5609 20.8653 20.5609 21.5513 20.984 21.9743L23.1506 24.141C23.5737 24.5641 24.2596 24.5641 24.6827 24.141L29.016 19.8077Z" fill="white"/>
</svg>
