<svg width="50" height="50" viewBox="0 0 50 50" fill="none" xmlns="http://www.w3.org/2000/svg">
<rect width="50" height="50" rx="12" fill="#393FCC"/>
<path d="M36.0067 34.2418C36.0067 34.2418 33.1209 29.4728 32.6033 28.6175C33.1923 28.4447 33.8196 28.2922 34.0803 27.8594C34.5147 27.1383 33.7414 25.9553 33.9445 25.1823C34.1537 24.3868 35.3885 23.6984 35.3885 22.8898C35.3885 22.102 34.1119 21.1816 33.9025 20.3908C33.6981 19.6179 34.4691 18.4337 34.0332 17.7134C33.5974 16.9931 32.1457 17.0523 31.5481 16.4994C30.9332 15.9304 30.9351 14.5382 30.1935 14.1569C29.4489 13.7742 28.2387 14.5477 27.4119 14.3644C26.5945 14.1833 25.8643 13 25.0105 13C24.1441 13 22.7661 14.3423 22.5499 14.3906C21.7236 14.5753 20.5118 13.8037 19.7679 14.188C19.027 14.5706 19.0316 15.9629 18.4178 16.5329C17.8212 17.0868 16.3695 17.0302 15.935 17.7513C15.5005 18.4723 16.2738 19.655 16.0709 20.4284C15.8673 21.2037 14.5895 21.9893 14.5895 22.886C14.5895 23.6947 15.8274 24.3809 16.0378 25.176C16.2424 25.9488 15.4714 27.1329 15.9072 27.8535C16.1445 28.2456 16.6828 28.4066 17.2205 28.5614C17.2832 28.5795 17.4019 28.647 17.3215 28.7596C16.9537 29.3701 13.9932 34.283 13.9932 34.283C13.7577 34.6737 13.9489 35.0087 14.4181 35.0277L16.7145 35.1198C17.1836 35.1388 17.7721 35.4666 18.0225 35.8485L19.2479 37.7181C19.4983 38.1001 19.8957 38.0929 20.1311 37.7022C20.1311 37.7022 23.5597 32.0105 23.5611 32.0089C23.6299 31.9316 23.6991 31.9475 23.7322 31.9745C24.1073 32.2816 24.6303 32.588 25.0667 32.588C25.4948 32.588 25.8911 32.2996 26.2832 31.9779C26.3151 31.9518 26.3927 31.8982 26.4495 32.0094C26.4504 32.0112 29.8752 37.6717 29.8752 37.6717C30.1113 38.062 30.5087 38.0686 30.7584 37.6862L31.9803 35.8143C32.23 35.4321 32.8179 35.103 33.287 35.0834L35.5832 34.9872C36.0522 34.9674 36.2428 34.6319 36.0067 34.2418ZM28.8056 29.122C26.2666 30.5423 23.219 30.3901 20.8912 28.9783C17.4803 26.8775 16.358 22.5317 18.4084 19.1288C20.4823 15.6866 25.0412 14.472 28.6533 16.3636C28.6723 16.3736 28.691 16.3838 28.7099 16.394C28.7366 16.4082 28.7633 16.4227 28.79 16.4373C29.9043 17.055 30.8706 17.9516 31.5626 19.0952C33.6774 22.5905 32.4407 27.0885 28.8056 29.122Z" fill="white"/>
<path d="M28.2249 17.4664C28.2143 17.4605 28.2037 17.455 28.1931 17.4492C26.2636 16.3754 23.8042 16.2969 21.7431 17.45C18.6844 19.161 17.6436 22.9456 19.4231 25.8866C19.9661 26.7841 20.7102 27.5005 21.5686 28.0146C21.6416 28.0591 21.7155 28.1028 21.7909 28.1448C24.8529 29.8505 28.7868 28.8429 30.5607 25.8988C32.3345 22.9546 31.2869 19.1721 28.2249 17.4664ZM28.9909 22.2794L27.9188 23.2842C27.5867 23.5954 27.3791 24.2097 27.4576 24.6492L27.7107 26.068C27.7891 26.5075 27.5175 26.6973 27.107 26.4898L25.7818 25.8198C25.3713 25.6124 24.6997 25.6124 24.2892 25.8198L22.964 26.4898C22.5536 26.6973 22.2819 26.5075 22.3603 26.068L22.6134 24.6492C22.6918 24.2097 22.4842 23.5954 22.1522 23.2842L21.0801 22.2794C20.748 21.9682 20.8518 21.6611 21.3107 21.5969L22.7923 21.3899C23.2511 21.3258 23.7946 20.9462 23.9998 20.5464L24.6624 19.2555C24.8676 18.8557 25.2035 18.8557 25.4086 19.2555L26.0713 20.5464C26.2765 20.9462 26.8198 21.3258 27.2788 21.3899L28.7604 21.5969C29.2192 21.6611 29.323 21.9682 28.9909 22.2794Z" fill="white"/>
</svg>
