<svg width="360" height="204" viewBox="0 0 360 204" fill="none" xmlns="http://www.w3.org/2000/svg">
<rect width="360" height="204" rx="12" fill="#393FCC"/>
<g opacity="0.05">
<path d="M75.8999 47.3301L34.995 155.671H119.537L160.442 47.3301H75.8999ZM161.62 69.9743L135.657 138.904H145.93L152.95 119.685H179.69L186.71 138.904H197.592L171.007 69.9743H161.62ZM57.4336 69.9769L12.199 69.9877V138.923H21.9642V108.741H42.7999L46.1198 99.9534H21.9642V78.8641H54.0879L57.4336 69.9769ZM96.8961 70.4347C100.266 70.4347 103.29 70.857 105.96 71.6976C108.633 72.5363 110.972 73.5859 112.975 74.8468C114.978 76.1076 116.698 77.4796 118.128 78.9667C119.56 80.4539 120.72 81.8736 121.611 83.2314L115.122 88.8563C114.358 87.7589 113.452 86.6086 112.405 85.4125C111.355 84.2181 110.097 83.1358 108.635 82.1659C107.171 81.1961 105.484 80.3894 103.575 79.7429C101.669 79.0963 99.4722 78.7721 96.9919 78.7721C93.4934 78.7721 90.3602 79.4524 87.5918 80.8084C84.8251 82.1662 82.4711 84.0056 80.53 86.3333C78.5925 88.6609 77.1106 91.3742 76.0941 94.4759C75.0776 97.5795 74.5688 100.878 74.5688 104.365C74.5688 107.857 75.0932 111.137 76.1433 114.205C77.1934 117.276 78.6735 119.944 80.5792 122.203C82.4884 124.466 84.8086 126.242 87.5452 127.533C90.28 128.828 93.3333 129.472 96.7045 129.472C99.5683 129.472 102.034 129.102 104.1 128.357C106.169 127.615 107.917 126.728 109.349 125.692C110.78 124.659 111.956 123.609 112.879 122.542C113.8 121.477 114.58 120.589 115.215 119.877L121.611 125.305C120.911 126.467 119.828 127.795 118.366 129.28C116.902 130.765 115.122 132.172 113.024 133.497C110.924 134.821 108.505 135.936 105.771 136.841C103.036 137.747 100.012 138.199 96.7045 138.199C91.9968 138.199 87.7025 137.356 83.8239 135.679C79.9436 133.997 76.6051 131.656 73.8049 128.651C71.0064 125.645 68.828 122.091 67.2688 117.986C65.7078 113.882 64.9304 109.405 64.9304 104.557C64.9304 99.8411 65.7078 95.4156 67.2688 91.2793C68.828 87.1431 71.0064 83.5233 73.8049 80.4216C76.6051 77.3198 79.9602 74.8778 83.8706 73.0998C87.7827 71.3235 92.1248 70.4347 96.8961 70.4347V70.4347ZM166.299 81.032L176.74 111.314H155.799L166.299 81.032Z" fill="white"/>
<path d="M298.769 69.5713C297.572 69.5713 296.479 69.7932 295.486 70.2422C294.492 70.6894 293.637 71.3011 292.919 72.068C292.202 72.8367 291.647 73.7313 291.254 74.7568C290.86 75.7805 290.664 76.878 290.664 78.0454C290.664 79.247 290.86 80.351 291.254 81.3604C291.647 82.3679 292.2 83.2459 292.909 83.9913C293.618 84.7348 294.463 85.3154 295.439 85.7303C296.417 86.1488 297.495 86.3538 298.676 86.3538C299.433 86.3538 300.149 86.25 300.828 86.0434C301.505 85.8332 302.128 85.567 302.695 85.2383C303.262 84.9114 303.755 84.5519 304.174 84.1675C304.591 83.7832 304.917 83.4097 305.152 83.0415L303.073 81.2157C302.884 81.4096 302.674 81.6375 302.446 81.8997C302.217 82.1655 301.934 82.4167 301.594 82.6574C301.257 82.8981 300.847 83.0992 300.364 83.2572C299.885 83.4189 299.306 83.4993 298.629 83.4993C297.889 83.4993 297.223 83.3526 296.633 83.0652C296.041 82.776 295.534 82.384 295.108 81.8865C294.683 81.3908 294.354 80.8079 294.126 80.1344C293.896 79.4627 293.784 78.7431 293.784 77.9744C293.784 77.2057 293.896 76.4727 294.126 75.7776C294.354 75.0807 294.686 74.4726 295.12 73.9517C295.554 73.4327 296.077 73.0146 296.692 72.7021C297.308 72.3913 297.997 72.2364 298.769 72.2364C299.779 72.2364 300.619 72.4583 301.289 72.9073C301.959 73.3545 302.543 73.9485 303.047 74.6831L305.152 72.7862C304.838 72.339 304.475 71.9194 304.065 71.526C303.655 71.1327 303.186 70.7926 302.659 70.5053C302.13 70.2161 301.543 69.9901 300.898 69.8212C300.251 69.6542 299.542 69.5713 298.769 69.5713ZM216.755 69.9554V85.9697H219.733V79.4635H225.122V76.7721H219.733V72.6205H226.942V69.9554H216.755ZM230.84 69.9554V85.9697H233.818V69.9554H230.84ZM238.419 69.9554V85.9697H241.327V74.4437L249.031 85.9697H251.963V69.9554H249.055V81.3367L241.421 69.9554H238.419ZM261.321 69.9554L255.342 85.9697H258.46L259.832 81.9129H265.693L267.065 85.9697H270.375L264.393 69.9554H261.321ZM273.596 69.9554V85.9697H276.501V74.4437L284.208 85.9697H287.139V69.9554H284.231V81.3367L276.597 69.9554H273.596ZM308.641 69.9554V85.9697H311.616V69.9554H308.641ZM320.83 69.9554L314.85 85.9697H317.968L319.341 81.9129H325.201L326.573 85.9697H329.883L323.901 69.9554H320.83ZM332.462 69.9554V85.9697H343.214V83.2809H335.438V69.9554H332.462ZM262.761 73.1967L264.843 79.4161H260.661L262.761 73.1967ZM322.272 73.1967L324.349 79.4161H320.167L322.272 73.1967ZM240.431 96.146C239.28 96.146 238.205 96.3664 237.205 96.8064C236.204 97.2446 235.338 97.847 234.605 98.6086C233.873 99.3683 233.293 100.26 232.867 101.284C232.443 102.308 232.23 103.405 232.23 104.573C232.23 105.744 232.443 106.84 232.867 107.864C233.293 108.89 233.874 109.785 234.615 110.556C235.356 111.322 236.224 111.926 237.218 112.368C238.209 112.808 239.28 113.026 240.431 113.026C241.582 113.026 242.654 112.808 243.648 112.368C244.639 111.926 245.504 111.322 246.245 110.556C246.986 109.785 247.567 108.89 247.993 107.864C248.421 106.84 248.632 105.744 248.632 104.573C248.632 103.405 248.421 102.308 247.993 101.284C247.567 100.26 246.986 99.3683 246.245 98.6086C245.504 97.847 244.639 97.2446 243.648 96.8064C242.654 96.3664 241.582 96.146 240.431 96.146ZM223.752 96.196C222.555 96.196 221.46 96.4179 220.468 96.8669C219.475 97.3141 218.62 97.9258 217.902 98.6928C217.184 99.4614 216.629 100.358 216.237 101.382C215.843 102.407 215.644 103.503 215.644 104.67C215.644 105.872 215.843 106.978 216.237 107.985C216.629 108.994 217.181 109.871 217.892 110.616C218.599 111.36 219.443 111.94 220.419 112.355C221.397 112.773 222.478 112.979 223.659 112.979C224.413 112.979 225.132 112.875 225.811 112.668C226.488 112.458 227.108 112.192 227.675 111.863C228.243 111.536 228.734 111.179 229.151 110.795C229.57 110.411 229.897 110.034 230.133 109.666L228.056 107.84C227.867 108.034 227.657 108.262 227.429 108.524C227.199 108.79 226.917 109.041 226.577 109.282C226.239 109.523 225.83 109.724 225.347 109.882C224.868 110.044 224.287 110.121 223.609 110.121C222.869 110.121 222.204 109.977 221.615 109.69C221.023 109.401 220.514 109.011 220.088 108.514C219.663 108.018 219.337 107.433 219.109 106.759C218.879 106.087 218.764 105.368 218.764 104.599C218.764 103.83 218.879 103.097 219.109 102.4C219.337 101.705 219.666 101.097 220.101 100.576C220.534 100.057 221.057 99.6393 221.672 99.3268C222.288 99.0161 222.979 98.8611 223.752 98.8611C224.76 98.8611 225.599 99.0848 226.269 99.532C226.939 99.981 227.526 100.573 228.03 101.308L230.133 99.4136C229.818 98.9646 229.458 98.5441 229.048 98.1508C228.637 97.7574 228.168 97.42 227.641 97.1326C227.113 96.8435 226.526 96.613 225.88 96.446C225.233 96.2789 224.524 96.196 223.752 96.196ZM311.733 96.196C310.536 96.196 309.441 96.4179 308.449 96.8669C307.456 97.3141 306.599 97.9258 305.883 98.6928C305.165 99.4614 304.612 100.358 304.218 101.382C303.825 102.407 303.627 103.503 303.627 104.67C303.627 105.872 303.825 106.978 304.218 107.985C304.612 108.994 305.162 109.871 305.872 110.616C306.58 111.36 307.424 111.94 308.4 112.355C309.377 112.773 310.458 112.979 311.639 112.979C312.396 112.979 313.112 112.875 313.791 112.668C314.467 112.458 315.09 112.192 315.656 111.863C316.223 111.536 316.717 111.179 317.134 110.795C317.553 110.411 317.881 110.034 318.116 109.666L316.036 107.84C315.847 108.034 315.636 108.262 315.41 108.524C315.18 108.79 314.895 109.041 314.558 109.282C314.22 109.523 313.81 109.724 313.328 109.882C312.849 110.044 312.27 110.121 311.593 110.121C310.852 110.121 310.184 109.977 309.594 109.69C309.003 109.401 308.497 109.011 308.071 108.514C307.645 108.018 307.318 107.433 307.089 106.759C306.86 106.087 306.745 105.368 306.745 104.599C306.745 103.83 306.86 103.097 307.089 102.4C307.318 101.705 307.648 101.097 308.081 100.576C308.516 100.057 309.038 99.6393 309.653 99.3268C310.267 99.0161 310.96 98.8611 311.733 98.8611C312.74 98.8611 313.58 99.0848 314.25 99.532C314.92 99.981 315.507 100.573 316.011 101.308L318.116 99.4136C317.801 98.9646 317.438 98.5441 317.028 98.1508C316.618 97.7574 316.148 97.42 315.62 97.1326C315.093 96.8435 314.506 96.613 313.859 96.446C313.213 96.2789 312.505 96.196 311.733 96.196ZM251.797 96.5801V112.594H254.702V101.068L262.409 112.594H265.34V96.5801H262.432V107.961L254.798 96.5801H251.797ZM269.769 96.5801V112.594H275.629C276.843 112.594 277.96 112.431 278.985 112.102C280.008 111.776 280.895 111.281 281.644 110.616C282.392 109.951 282.975 109.125 283.392 108.14C283.81 107.158 284.019 105.999 284.019 104.67C284.019 103.278 283.815 102.071 283.405 101.047C282.995 100.022 282.417 99.1799 281.678 98.5244C280.937 97.867 280.053 97.3786 279.031 97.059C278.006 96.7393 276.88 96.5801 275.649 96.5801H269.769ZM287.385 96.5801V106.685C287.385 107.585 287.527 108.419 287.81 109.187C288.095 109.956 288.514 110.62 289.063 111.19C289.615 111.757 290.29 112.208 291.083 112.537C291.879 112.863 292.79 113.029 293.815 113.029C294.839 113.029 295.749 112.863 296.545 112.537C297.34 112.208 298.013 111.757 298.565 111.19C299.116 110.62 299.533 109.956 299.818 109.187C300.101 108.419 300.243 107.585 300.243 106.685V96.5801H297.262V106.159C297.262 106.768 297.204 107.317 297.086 107.804C296.969 108.292 296.777 108.708 296.508 109.053C296.24 109.398 295.884 109.663 295.444 109.848C295.002 110.031 294.461 110.121 293.815 110.121C293.168 110.121 292.622 110.031 292.181 109.848C291.739 109.663 291.387 109.398 291.12 109.053C290.851 108.708 290.658 108.292 290.54 107.804C290.421 107.317 290.363 106.768 290.363 106.159V96.5801H287.385ZM320.814 96.5801V99.2452H326.154V112.597H329.132V99.2452H334.474V96.5801H320.814ZM240.431 98.8848C241.204 98.8848 241.903 99.0331 242.534 99.3294C243.163 99.6258 243.7 100.03 244.142 100.542C244.582 101.054 244.92 101.65 245.157 102.329C245.394 103.011 245.512 103.738 245.512 104.504C245.512 105.257 245.394 105.975 245.157 106.664C244.92 107.35 244.582 107.956 244.142 108.477C243.7 108.996 243.163 109.41 242.534 109.714C241.903 110.019 241.204 110.171 240.431 110.171C239.643 110.171 238.938 110.019 238.316 109.714C237.693 109.41 237.161 108.996 236.72 108.477C236.278 107.956 235.94 107.35 235.703 106.664C235.466 105.975 235.348 105.257 235.348 104.504C235.348 103.738 235.466 103.011 235.703 102.329C235.94 101.65 236.278 101.054 236.72 100.542C237.161 100.03 237.693 99.6258 238.316 99.3294C238.938 99.0331 239.643 98.8848 240.431 98.8848ZM272.744 99.2689H275.367C277.307 99.2689 278.713 99.7565 279.588 100.732C280.463 101.711 280.899 103.039 280.899 104.72C280.899 106.416 280.425 107.705 279.479 108.585C278.535 109.465 277.163 109.906 275.367 109.906H272.744V99.2689ZM289.413 122.402C288.262 122.402 287.191 122.625 286.189 123.063C285.188 123.503 284.321 124.101 283.589 124.862C282.855 125.622 282.278 126.517 281.852 127.541C281.425 128.564 281.214 129.66 281.214 130.829C281.214 131.998 281.425 133.095 281.852 134.121C282.278 135.144 282.859 136.039 283.599 136.809C284.342 137.578 285.206 138.18 286.199 138.622C287.191 139.062 288.262 139.285 289.413 139.285C290.564 139.285 291.636 139.062 292.629 138.622C293.621 138.18 294.489 137.578 295.229 136.809C295.97 136.039 296.554 135.144 296.98 134.121C297.406 133.095 297.617 131.998 297.617 130.829C297.617 129.66 297.406 128.564 296.98 127.541C296.554 126.517 295.97 125.622 295.229 124.862C294.489 124.101 293.621 123.503 292.629 123.063C291.636 122.625 290.564 122.402 289.413 122.402ZM220.704 122.834L214.725 138.851H217.842L219.215 134.794H225.075L226.448 138.851H229.757L223.775 122.834H220.704ZM231.831 122.834V132.942C231.831 133.84 231.973 134.674 232.256 135.441C232.541 136.21 232.96 136.877 233.509 137.446C234.061 138.012 234.736 138.462 235.532 138.79C236.327 139.117 237.236 139.282 238.261 139.282C239.285 139.282 240.195 139.117 240.991 138.79C241.786 138.462 242.462 138.012 243.013 137.446C243.565 136.877 243.982 136.21 244.266 135.441C244.549 134.674 244.689 133.84 244.689 132.942V122.834H241.711V132.416C241.711 133.025 241.653 133.571 241.534 134.06C241.418 134.547 241.226 134.965 240.957 135.31C240.688 135.653 240.333 135.917 239.893 136.102C239.451 136.285 238.906 136.378 238.261 136.378C237.614 136.378 237.07 136.285 236.63 136.102C236.188 135.917 235.835 135.653 235.568 135.31C235.299 134.965 235.106 134.547 234.988 134.06C234.87 133.571 234.812 133.025 234.812 132.416V122.834H231.831ZM247.739 122.834V125.499H253.081V138.851H256.057V125.499H261.399V122.834H247.739ZM264.04 122.834V138.851H267.018V131.961H274.842V138.851H277.82V122.834H274.842V129.269H267.018V122.834H264.04ZM300.965 122.834V138.851H303.827V132.537H306.069L309.262 138.851H312.618L308.977 132.153C309.875 131.686 310.543 131.066 310.976 130.29C311.41 129.514 311.626 128.621 311.626 127.612C311.626 127.1 311.525 126.565 311.329 126.004C311.132 125.446 310.822 124.927 310.396 124.455C309.97 123.982 309.411 123.594 308.718 123.289C308.025 122.987 307.183 122.834 306.191 122.834H300.965ZM322.337 122.834V125.499H327.682V138.851H330.66V125.499H335.999V122.834H322.337ZM337.856 122.834L343.318 131.816V138.851H346.342V131.816L351.801 122.834H348.681L344.9 129.222L341.116 122.834H337.856ZM316.073 122.837V138.851H319.051V122.837H316.073ZM289.413 125.141C290.186 125.141 290.889 125.289 291.518 125.583C292.149 125.88 292.684 126.284 293.124 126.796C293.566 127.308 293.906 127.904 294.144 128.585C294.379 129.266 294.496 129.991 294.496 130.758C294.496 131.513 294.379 132.231 294.144 132.921C293.906 133.607 293.566 134.213 293.124 134.734C292.684 135.253 292.149 135.664 291.518 135.967C290.889 136.273 290.186 136.425 289.413 136.425C288.625 136.425 287.921 136.273 287.297 135.967C286.675 135.664 286.147 135.253 285.705 134.734C285.265 134.213 284.924 133.607 284.687 132.921C284.45 132.231 284.332 131.513 284.332 130.758C284.332 129.991 284.45 129.266 284.687 128.585C284.924 127.904 285.265 127.308 285.705 126.796C286.147 126.284 286.675 125.88 287.297 125.583C287.921 125.289 288.625 125.141 289.413 125.141ZM303.827 125.404H306.214C306.923 125.404 307.497 125.619 307.939 126.052C308.379 126.484 308.599 127.045 308.599 127.733C308.599 128.372 308.39 128.919 307.973 129.367C307.555 129.816 306.971 130.037 306.214 130.037H303.827V125.404ZM222.146 126.075L224.226 132.295H220.044L222.146 126.075Z" fill="white"/>
</g>
<path d="M108.244 67.2295L80.5804 139.771H137.756L165.42 67.2295H108.244ZM166.217 82.3912L148.658 128.544H155.606L160.353 115.676H178.438L183.186 128.544H190.545L172.565 82.3912H166.217ZM95.7557 82.393L65.1635 82.4003V128.557H71.7677V108.348H85.8589L88.1041 102.464H71.7677V88.3436H93.493L95.7557 82.393ZM122.444 82.6996C124.723 82.6996 126.769 82.9823 128.574 83.5451C130.382 84.1067 131.964 84.8095 133.318 85.6537C134.673 86.4979 135.836 87.4166 136.803 88.4123C137.772 89.408 138.556 90.3587 139.159 91.2678L134.77 95.034C134.254 94.2992 133.641 93.529 132.933 92.7281C132.223 91.9284 131.372 91.2037 130.383 90.5544C129.393 89.905 128.252 89.3649 126.961 88.932C125.672 88.499 124.186 88.2819 122.509 88.2819C120.143 88.2819 118.024 88.7375 116.152 89.6454C114.281 90.5545 112.689 91.7862 111.376 93.3447C110.065 94.9032 109.063 96.7199 108.376 98.7967C107.688 100.875 107.344 103.083 107.344 105.418C107.344 107.756 107.699 109.953 108.409 112.007C109.119 114.063 110.12 115.849 111.409 117.362C112.7 118.877 114.269 120.066 116.12 120.931C117.97 121.798 120.035 122.229 122.315 122.229C124.251 122.229 125.919 121.981 127.316 121.482C128.715 120.985 129.898 120.392 130.866 119.698C131.834 119.006 132.629 118.303 133.253 117.589C133.876 116.876 134.404 116.281 134.833 115.805L139.159 119.439C138.685 120.217 137.953 121.106 136.964 122.1C135.975 123.095 134.771 124.037 133.351 124.924C131.931 125.81 130.296 126.557 128.446 127.163C126.596 127.769 124.551 128.072 122.315 128.072C119.131 128.072 116.227 127.508 113.603 126.385C110.979 125.259 108.721 123.691 106.828 121.679C104.935 119.666 103.462 117.287 102.407 114.538C101.352 111.79 100.826 108.793 100.826 105.547C100.826 102.389 101.352 99.4259 102.407 96.6564C103.462 93.8869 104.935 91.4632 106.828 89.3864C108.721 87.3096 110.99 85.6745 113.635 84.484C116.281 83.2947 119.217 82.6995 122.444 82.6995V82.6996ZM169.382 89.7951L176.443 110.071H162.28L169.382 89.7951Z" fill="white"/>
<path d="M258.971 82.1211C258.162 82.1211 257.422 82.2696 256.75 82.5703C256.078 82.8697 255.5 83.2793 255.015 83.7928C254.529 84.3075 254.154 84.9065 253.889 85.5931C253.622 86.2786 253.489 87.0134 253.489 87.7951C253.489 88.5996 253.622 89.3388 253.889 90.0146C254.154 90.6893 254.528 91.2771 255.008 91.7762C255.487 92.2741 256.059 92.6628 256.719 92.9406C257.38 93.2208 258.109 93.3581 258.908 93.3581C259.42 93.3581 259.904 93.2886 260.363 93.1502C260.821 93.0095 261.242 92.8313 261.626 92.6112C262.01 92.3923 262.343 92.1516 262.626 91.8942C262.908 91.6369 263.129 91.3868 263.288 91.1403L261.882 89.9178C261.754 90.0476 261.612 90.2002 261.458 90.3758C261.302 90.5537 261.111 90.722 260.882 90.8831C260.653 91.0442 260.376 91.1789 260.05 91.2847C259.726 91.393 259.334 91.4468 258.876 91.4468C258.375 91.4468 257.925 91.3486 257.526 91.1561C257.126 90.9625 256.783 90.7001 256.495 90.367C256.208 90.035 255.985 89.6447 255.831 89.1938C255.675 88.744 255.6 88.2622 255.6 87.7475C255.6 87.2328 255.675 86.742 255.831 86.2766C255.985 85.81 256.209 85.4028 256.503 85.0541C256.796 84.7066 257.15 84.4266 257.566 84.2173C257.982 84.0093 258.449 83.9056 258.971 83.9056C259.654 83.9056 260.222 84.0541 260.675 84.3548C261.128 84.6542 261.523 85.052 261.864 85.5438L263.288 84.2737C263.075 83.9743 262.83 83.6933 262.552 83.4299C262.275 83.1666 261.958 82.9389 261.601 82.7464C261.244 82.5528 260.847 82.4015 260.411 82.2884C259.973 82.1766 259.493 82.1211 258.971 82.1211ZM203.505 82.3783V93.1009H205.519V88.7446H209.163V86.9425H205.519V84.1627H210.394V82.3783H203.505ZM213.03 82.3783V93.1009H215.044V82.3783H213.03ZM218.156 82.3783V93.1009H220.123V85.3835L225.333 93.1009H227.316V82.3783H225.349V89.9988L220.186 82.3783H218.156ZM233.645 82.3783L229.601 93.1009H231.71L232.638 90.3846H236.601L237.529 93.1009H239.768L235.722 82.3783H233.645ZM241.946 82.3783V93.1009H243.911V85.3835L249.123 93.1009H251.106V82.3783H249.139V89.9988L243.976 82.3783H241.946ZM265.647 82.3783V93.1009H267.659V82.3783H265.647ZM273.891 82.3783L269.847 93.1009H271.955L272.884 90.3846H276.847L277.775 93.1009H280.013L275.968 82.3783H273.891ZM281.758 82.3783V93.1009H289.029V91.3006H283.77V82.3783H281.758ZM234.619 84.5485L236.027 88.7129H233.198L234.619 84.5485ZM274.866 84.5485L276.271 88.7129H273.442L274.866 84.5485ZM219.517 99.9146C218.739 99.9146 218.012 100.062 217.335 100.357C216.658 100.65 216.073 101.054 215.577 101.563C215.082 102.072 214.69 102.67 214.401 103.355C214.114 104.04 213.971 104.775 213.971 105.557C213.971 106.341 214.114 107.075 214.401 107.761C214.69 108.447 215.083 109.047 215.584 109.563C216.085 110.076 216.672 110.481 217.344 110.776C218.014 111.071 218.739 111.217 219.517 111.217C220.295 111.217 221.02 111.071 221.692 110.776C222.363 110.481 222.948 110.076 223.449 109.563C223.95 109.047 224.343 108.447 224.631 107.761C224.92 107.075 225.063 106.341 225.063 105.557C225.063 104.775 224.92 104.04 224.631 103.355C224.343 102.67 223.95 102.072 223.449 101.563C222.948 101.054 222.363 100.65 221.692 100.357C221.02 100.062 220.295 99.9146 219.517 99.9146ZM208.237 99.9481C207.427 99.9481 206.687 100.097 206.016 100.397C205.344 100.697 204.766 101.106 204.28 101.62C203.795 102.135 203.42 102.735 203.154 103.42C202.888 104.107 202.753 104.84 202.753 105.622C202.753 106.427 202.888 107.167 203.154 107.842C203.42 108.517 203.793 109.104 204.273 109.603C204.752 110.101 205.323 110.49 205.983 110.768C206.644 111.048 207.375 111.185 208.174 111.185C208.684 111.185 209.17 111.116 209.629 110.977C210.087 110.837 210.506 110.658 210.89 110.438C211.274 110.219 211.606 109.98 211.888 109.723C212.172 109.466 212.393 109.214 212.552 108.967L211.147 107.745C211.02 107.875 210.878 108.027 210.724 108.203C210.568 108.381 210.377 108.549 210.147 108.71C209.919 108.871 209.642 109.006 209.316 109.112C208.992 109.22 208.598 109.272 208.14 109.272C207.639 109.272 207.19 109.176 206.792 108.983C206.391 108.79 206.047 108.529 205.759 108.196C205.472 107.864 205.251 107.472 205.097 107.021C204.941 106.571 204.864 106.089 204.864 105.575C204.864 105.06 204.941 104.568 205.097 104.102C205.251 103.636 205.473 103.23 205.767 102.881C206.06 102.534 206.414 102.254 206.83 102.044C207.246 101.836 207.714 101.733 208.237 101.733C208.918 101.733 209.486 101.882 209.939 102.182C210.392 102.482 210.789 102.879 211.13 103.371L212.552 102.102C212.339 101.802 212.096 101.52 211.818 101.257C211.541 100.994 211.224 100.768 210.867 100.575C210.51 100.382 210.113 100.227 209.676 100.115C209.239 100.004 208.759 99.9481 208.237 99.9481ZM267.738 99.9481C266.929 99.9481 266.188 100.097 265.517 100.397C264.846 100.697 264.266 101.106 263.782 101.62C263.296 102.135 262.922 102.735 262.656 103.42C262.39 104.107 262.256 104.84 262.256 105.622C262.256 106.427 262.39 107.167 262.656 107.842C262.922 108.517 263.294 109.104 263.775 109.603C264.253 110.101 264.824 110.49 265.484 110.768C266.145 111.048 266.876 111.185 267.675 111.185C268.187 111.185 268.671 111.116 269.13 110.977C269.587 110.837 270.009 110.658 270.391 110.438C270.775 110.219 271.109 109.98 271.391 109.723C271.675 109.466 271.896 109.214 272.055 108.967L270.649 107.745C270.521 107.875 270.378 108.027 270.225 108.203C270.07 108.381 269.877 108.549 269.649 108.71C269.42 108.871 269.143 109.006 268.817 109.112C268.493 109.22 268.101 109.272 267.644 109.272C267.143 109.272 266.691 109.176 266.292 108.983C265.892 108.79 265.55 108.529 265.262 108.196C264.974 107.864 264.752 107.472 264.598 107.021C264.443 106.571 264.365 106.089 264.365 105.575C264.365 105.06 264.443 104.568 264.598 104.102C264.752 103.636 264.976 103.23 265.269 102.881C265.563 102.534 265.916 102.254 266.332 102.044C266.747 101.836 267.216 101.733 267.738 101.733C268.42 101.733 268.987 101.882 269.44 102.182C269.894 102.482 270.291 102.879 270.631 103.371L272.055 102.102C271.842 101.802 271.597 101.52 271.32 101.257C271.042 100.994 270.724 100.768 270.367 100.575C270.011 100.382 269.614 100.227 269.176 100.115C268.74 100.004 268.261 99.9481 267.738 99.9481ZM227.204 100.205V110.928H229.169V103.21L234.381 110.928H236.363V100.205H234.396V107.826L229.233 100.205H227.204ZM239.358 100.205V110.928H243.321C244.142 110.928 244.897 110.819 245.591 110.598C246.283 110.38 246.883 110.048 247.389 109.603C247.895 109.158 248.289 108.605 248.572 107.946C248.854 107.288 248.995 106.512 248.995 105.622C248.995 104.69 248.858 103.882 248.58 103.196C248.303 102.51 247.912 101.946 247.412 101.507C246.911 101.067 246.313 100.74 245.622 100.526C244.929 100.312 244.167 100.205 243.335 100.205H239.358ZM251.272 100.205V106.971C251.272 107.574 251.368 108.132 251.559 108.647C251.752 109.161 252.035 109.606 252.407 109.987C252.78 110.367 253.236 110.669 253.773 110.889C254.311 111.108 254.927 111.219 255.621 111.219C256.313 111.219 256.929 111.108 257.467 110.889C258.005 110.669 258.46 110.367 258.833 109.987C259.206 109.606 259.488 109.161 259.68 108.647C259.872 108.132 259.967 107.574 259.967 106.971V100.205H257.952V106.619C257.952 107.027 257.913 107.394 257.833 107.72C257.754 108.047 257.624 108.326 257.442 108.557C257.26 108.788 257.02 108.965 256.722 109.089C256.423 109.211 256.057 109.272 255.621 109.272C255.183 109.272 254.813 109.212 254.516 109.089C254.217 108.965 253.978 108.788 253.798 108.557C253.616 108.326 253.485 108.047 253.405 107.72C253.325 107.394 253.286 107.027 253.286 106.619V100.205H251.272ZM273.88 100.205V101.99H277.491V110.93H279.505V101.99H283.118V100.205H273.88ZM219.517 101.748C220.04 101.748 220.512 101.848 220.939 102.046C221.365 102.245 221.728 102.515 222.027 102.858C222.324 103.201 222.553 103.6 222.713 104.054C222.873 104.511 222.953 104.998 222.953 105.511C222.953 106.015 222.873 106.496 222.713 106.957C222.553 107.417 222.324 107.822 222.027 108.171C221.728 108.519 221.365 108.796 220.939 108.999C220.512 109.203 220.04 109.305 219.517 109.305C218.984 109.305 218.507 109.203 218.086 108.999C217.665 108.796 217.305 108.519 217.007 108.171C216.708 107.822 216.479 107.417 216.319 106.957C216.159 106.496 216.079 106.015 216.079 105.511C216.079 104.998 216.159 104.511 216.319 104.054C216.479 103.6 216.708 103.201 217.007 102.858C217.305 102.515 217.665 102.245 218.086 102.046C218.507 101.848 218.984 101.748 219.517 101.748ZM241.37 102.006H243.144C244.456 102.006 245.407 102.332 245.999 102.985C246.591 103.64 246.885 104.53 246.885 105.656C246.885 106.791 246.565 107.654 245.925 108.243C245.287 108.833 244.359 109.128 243.144 109.128H241.37V102.006ZM252.643 117.495C251.865 117.495 251.141 117.644 250.463 117.937C249.786 118.232 249.2 118.632 248.705 119.142C248.209 119.651 247.818 120.25 247.53 120.935C247.241 121.621 247.099 122.354 247.099 123.137C247.099 123.92 247.241 124.654 247.53 125.341C247.818 126.026 248.211 126.625 248.712 127.141C249.214 127.656 249.798 128.059 250.47 128.355C251.141 128.65 251.865 128.799 252.643 128.799C253.422 128.799 254.147 128.65 254.819 128.355C255.489 128.059 256.076 127.656 256.577 127.141C257.078 126.625 257.473 126.026 257.761 125.341C258.049 124.654 258.192 123.92 258.192 123.137C258.192 122.354 258.049 121.621 257.761 120.935C257.473 120.25 257.078 119.651 256.577 119.142C256.076 118.632 255.489 118.232 254.819 117.937C254.147 117.644 253.422 117.495 252.643 117.495ZM206.175 117.784L202.132 128.508H204.24L205.168 125.792H209.132L210.06 128.508H212.298L208.252 117.784H206.175ZM213.701 117.784V124.552C213.701 125.153 213.797 125.712 213.988 126.225C214.181 126.74 214.464 127.186 214.836 127.568C215.209 127.946 215.666 128.248 216.204 128.468C216.742 128.687 217.356 128.797 218.049 128.797C218.742 128.797 219.357 128.687 219.895 128.468C220.433 128.248 220.89 127.946 221.263 127.568C221.636 127.186 221.918 126.74 222.111 126.225C222.302 125.712 222.396 125.153 222.396 124.552V117.784H220.382V124.2C220.382 124.607 220.343 124.973 220.263 125.3C220.184 125.626 220.054 125.906 219.873 126.137C219.691 126.367 219.45 126.544 219.153 126.667C218.854 126.79 218.486 126.852 218.049 126.852C217.612 126.852 217.244 126.79 216.946 126.667C216.647 126.544 216.409 126.367 216.228 126.137C216.046 125.906 215.916 125.626 215.836 125.3C215.756 124.973 215.717 124.607 215.717 124.2V117.784H213.701ZM224.459 117.784V119.568H228.072V128.508H230.085V119.568H233.698V117.784H224.459ZM235.484 117.784V128.508H237.498V123.895H242.789V128.508H244.803V117.784H242.789V122.093H237.498V117.784H235.484ZM260.456 117.784V128.508H262.391V124.281H263.908L266.067 128.508H268.337L265.875 124.023C266.482 123.711 266.934 123.296 267.227 122.776C267.52 122.257 267.666 121.659 267.666 120.983C267.666 120.64 267.598 120.282 267.465 119.907C267.332 119.533 267.123 119.185 266.834 118.869C266.546 118.553 266.168 118.293 265.7 118.089C265.231 117.887 264.661 117.784 263.99 117.784H260.456ZM274.91 117.784V119.568H278.525V128.508H280.539V119.568H284.15V117.784H274.91ZM285.406 117.784L289.099 123.798V128.508H291.145V123.798L294.836 117.784H292.726L290.169 122.061L287.61 117.784H285.406ZM270.673 117.786V128.508H272.687V117.786H270.673ZM252.643 119.329C253.166 119.329 253.642 119.428 254.067 119.625C254.494 119.823 254.855 120.094 255.153 120.437C255.452 120.78 255.682 121.179 255.843 121.635C256.002 122.09 256.081 122.576 256.081 123.09C256.081 123.595 256.002 124.076 255.843 124.538C255.682 124.997 255.452 125.403 255.153 125.751C254.855 126.099 254.494 126.374 254.067 126.578C253.642 126.782 253.166 126.884 252.643 126.884C252.11 126.884 251.635 126.782 251.213 126.578C250.792 126.374 250.434 126.099 250.136 125.751C249.838 125.403 249.607 124.997 249.447 124.538C249.287 124.076 249.207 123.595 249.207 123.09C249.207 122.576 249.287 122.09 249.447 121.635C249.607 121.179 249.838 120.78 250.136 120.437C250.434 120.094 250.792 119.823 251.213 119.625C251.635 119.428 252.11 119.329 252.643 119.329ZM262.391 119.505H264.006C264.485 119.505 264.874 119.649 265.172 119.938C265.47 120.228 265.619 120.603 265.619 121.064C265.619 121.492 265.477 121.858 265.195 122.158C264.913 122.459 264.518 122.607 264.006 122.607H262.391V119.505ZM207.151 119.954L208.557 124.119H205.729L207.151 119.954Z" fill="white"/>
</svg>
