<svg width="50" height="50" viewBox="0 0 50 50" fill="none" xmlns="http://www.w3.org/2000/svg">
<rect width="50" height="50" rx="12" fill="#393FCC"/>
<path d="M29.7915 14.8154C31.0647 15.1346 32.2706 15.7926 33.2644 16.7863C34.2581 17.78 34.9161 18.9859 35.2354 20.2592C35.4573 21.2301 35.5262 22.2119 35.3788 23.2005C35.2974 23.7468 34.7885 24.1236 34.2423 24.0421C33.696 23.9607 33.3192 23.4519 33.4007 22.9056C33.5077 22.1874 33.4726 21.4521 33.2954 20.7457L33.2954 20.7457C33.0618 19.8138 32.5809 18.9313 31.8502 18.2005C31.1194 17.4698 30.2369 16.989 29.3051 16.7553C28.5986 16.5782 27.8633 16.543 27.1451 16.6501C26.5988 16.7315 26.09 16.3547 26.0086 15.8084C25.7405 14.0101 28.8543 14.5811 29.7915 14.8154Z" fill="white"/>
<path d="M27.0357 18.2506C28.244 18.0705 29.5235 18.4456 30.4563 19.3783L30.4563 19.3783C31.389 20.3111 31.7641 21.5906 31.5839 22.7988C31.5025 23.3451 30.9937 23.7219 30.4474 23.6405C29.9012 23.559 29.5244 23.0502 29.6058 22.504C29.6965 21.8956 29.5077 21.2582 29.0421 20.7925L29.0421 20.7925C28.5763 20.3268 27.9389 20.138 27.3306 20.2287C26.7844 20.3102 26.2755 19.9333 26.1941 19.3871C26.1127 18.8408 26.4895 18.332 27.0357 18.2506Z" fill="white"/>
<path d="M22.6906 23.2633C22.7363 23.4097 22.8029 23.6001 22.896 23.8177C23.1255 24.3545 23.5048 25.0321 24.1049 25.6321C24.7049 26.2321 25.3807 26.6098 25.9153 26.8377C26.1319 26.9299 26.3211 26.9959 26.4668 27.0411L28.486 26.0315C29.0767 25.736 29.7752 25.7514 30.3523 26.0723L32.5619 27.3007C33.1966 27.6536 33.5902 28.3227 33.5902 29.0488V31.5855C33.5902 33.5025 31.7736 34.9952 29.8464 34.3449C27.3116 33.4896 23.2171 31.8155 20.5694 29.1677C17.9216 26.5199 16.2475 22.4254 15.3922 19.8906C14.7419 17.9635 16.2346 16.1469 18.1515 16.1469H20.6879C21.4145 16.1469 22.0838 16.541 22.4364 17.1761L23.6597 19.3795C23.98 19.9565 23.9951 20.6544 23.6999 21.2447L22.6906 23.2633Z" fill="white"/>
</svg>
