<svg width="50" height="50" viewBox="0 0 50 50" fill="none" xmlns="http://www.w3.org/2000/svg">
<rect width="50" height="50" rx="12" fill="#393FCC"/>
<path fill-rule="evenodd" clip-rule="evenodd" d="M14 35C14 34.4477 14.4477 34 15 34H35C35.5523 34 36 34.4477 36 35C36 35.5523 35.5523 36 35 36H15C14.4477 36 14 35.5523 14 35Z" fill="white"/>
<path d="M36 19C36 18.6534 35.8205 18.3316 35.5257 18.1493C35.2309 17.9671 34.8628 17.9506 34.5528 18.1056L30.5528 20.1056C30.214 20.275 30 20.6212 30 21V32C30 32.5523 30.4477 33 31 33H35C35.5523 33 36 32.5523 36 32V19Z" fill="white"/>
<path d="M28 23C28 22.6534 27.8205 22.3316 27.5257 22.1493C27.2309 21.9671 26.8628 21.9506 26.5528 22.1056L22.5528 24.1056C22.214 24.275 22 24.6212 22 25V32C22 32.5523 22.4477 33 23 33H27C27.5523 33 28 32.5523 28 32V23Z" fill="white"/>
<path d="M15.2425 25.0299C14.9438 24.9552 14.6273 25.0223 14.3846 25.2118C14.1419 25.4013 14 25.6921 14 26V32C14 32.5523 14.4477 33 15 33H19C19.5523 33 20 32.5523 20 32V27C20 26.5411 19.6877 26.1411 19.2425 26.0299L15.2425 25.0299Z" fill="white"/>
<path fill-rule="evenodd" clip-rule="evenodd" d="M29 15C29 14.4477 29.4477 14 30 14H35C35.4638 14 35.8667 14.3189 35.9732 14.7702C36.0798 15.2216 35.862 15.687 35.4472 15.8944L19.4472 23.8944C19.2337 24.0012 18.989 24.028 18.7575 23.9701L14.7575 22.9701C14.2217 22.8362 13.8959 22.2933 14.0298 21.7575C14.1638 21.2217 14.7067 20.8959 15.2425 21.0299L18.8836 21.9401L30.7639 16H30C29.4477 16 29 15.5523 29 15Z" fill="white"/>
</svg>
