<svg width="50" height="50" viewBox="0 0 50 50" fill="none" xmlns="http://www.w3.org/2000/svg">
<rect width="50" height="50" rx="12" fill="#393FCC"/>
<path fill-rule="evenodd" clip-rule="evenodd" d="M14.1667 16.3327C14.1667 15.1361 15.1368 14.166 16.3334 14.166H33.6667C34.8634 14.166 35.8334 15.1361 35.8334 16.3327V24.9993C35.8334 26.196 34.8634 27.166 33.6667 27.166H26.0834V31.4993H30.7779C31.0873 31.4993 31.382 31.6317 31.5876 31.863L34.4764 35.113C34.8739 35.5601 34.8337 36.2449 34.3865 36.6424C33.9393 37.0399 33.2545 36.9996 32.8571 36.5524L30.2914 33.666H26.0834V35.8327C26.0834 36.431 25.5984 36.916 25.0001 36.916C24.4018 36.916 23.9167 36.431 23.9167 35.8327V33.666H19.4963L17.1733 36.517C16.7953 36.9808 16.1129 37.0505 15.6491 36.6725C15.1853 36.2946 15.1156 35.6122 15.4936 35.1484L18.1417 31.8984C18.3475 31.6459 18.6559 31.4993 18.9816 31.4993H23.9167V27.166H16.3334C15.1368 27.166 14.1667 26.196 14.1667 24.9993V16.3327ZM18.5001 19.041C18.5001 18.4427 18.9851 17.9577 19.5834 17.9577H23.9167C24.5151 17.9577 25.0001 18.4427 25.0001 19.041C25.0001 19.6393 24.5151 20.1243 23.9167 20.1243H19.5834C18.9851 20.1243 18.5001 19.6393 18.5001 19.041ZM18.5001 22.291C18.5001 21.6927 18.9851 21.2077 19.5834 21.2077H30.4167C31.0151 21.2077 31.5001 21.6927 31.5001 22.291C31.5001 22.8893 31.0151 23.3743 30.4167 23.3743H19.5834C18.9851 23.3743 18.5001 22.8893 18.5001 22.291Z" fill="white"/>
</svg>
