<svg width="360" height="204" viewBox="0 0 360 204" fill="none" xmlns="http://www.w3.org/2000/svg">
<g clip-path="url(#clip0)">
<rect width="360" height="204" rx="12" fill="#393FCC"/>
<g opacity="0.05">
<path d="M116.899 100.652C116.899 147.18 79.1815 184.898 32.6541 184.898C-13.8732 184.898 -51.5911 147.18 -51.5911 100.652C-51.5911 54.1251 -13.8732 16.4072 32.6541 16.4072C79.1815 16.4072 116.899 54.1251 116.899 100.652Z" fill="url(#paint0_radial)"/>
<path fill-rule="evenodd" clip-rule="evenodd" d="M32.6541 182.868C78.0603 182.868 114.869 146.059 114.869 100.652C114.869 55.2462 78.0603 18.4372 32.6541 18.4372C-12.7521 18.4372 -49.5611 55.2462 -49.5611 100.652C-49.5611 146.059 -12.7521 182.868 32.6541 182.868ZM32.6541 184.898C79.1815 184.898 116.899 147.18 116.899 100.652C116.899 54.1251 79.1815 16.4072 32.6541 16.4072C-13.8732 16.4072 -51.5911 54.1251 -51.5911 100.652C-51.5911 147.18 -13.8732 184.898 32.6541 184.898Z" fill="#2E3C32"/>
<path fill-rule="evenodd" clip-rule="evenodd" d="M-0.19281 25.2614C-4.03215 26.9365 -7.71878 28.8963 -11.226 31.1141C-13.945 38.6222 -15.4049 47.8328 -15.5432 58.1651C-24.513 57.5118 -32.5257 58.2541 -39.0672 60.4308C-41.8345 65.3548 -44.1094 70.5926 -45.8252 76.0775C-39.469 69.0981 -28.6375 65.7282 -15.4099 65.8701C-14.7866 79.2201 -12.1366 94.0575 -7.34305 109.298C-15.1754 126.429 -19.5517 143.025 -20.2414 156.987C-24.1022 156.104 -27.6031 154.809 -30.663 153.099C-24.604 160.406 -17.3043 166.647 -9.08702 171.499C-9.59758 169.779 -10.0094 167.969 -10.3234 166.077C-1.56818 166.049 8.25953 164.564 18.6206 161.656C25.2068 170.512 32.2286 177.648 39.239 182.608C43.4039 182.278 47.4815 181.637 51.4485 180.71C42.9967 176.81 34.3055 169.387 26.2328 159.293C36.3726 155.85 46.8818 151.11 57.2868 145.102C68.8739 138.413 79.1651 130.825 87.7968 122.886C94.3495 132.587 97.9474 142.207 97.9041 150.677C100.612 147.15 103.041 143.398 105.156 139.452C102.859 132.559 98.7125 125.226 92.994 117.861C99.4729 111.266 104.791 104.513 108.748 97.8982C110.998 97.3688 112.999 96.5316 114.703 95.3746C114.557 93.0679 114.315 90.787 113.983 88.5359C113.75 88.709 113.511 88.8756 113.266 89.0355C113.465 88.5581 113.657 88.0822 113.84 87.6079C112.895 81.6801 111.317 75.9636 109.176 70.5301C108.883 77.9306 105.883 85.6759 102.835 92.0022C90.3426 92.5462 72.7875 85.709 56.5737 72.8974C50.0021 67.7048 44.3344 62.0709 39.7603 56.3888C56.9213 41.6946 74.7144 34.9918 87.7134 39.5958C83.1 35.433 78.0125 31.7856 72.5416 28.7444C61.1353 30.7989 47.9947 38.3213 35.1041 50.0247C26.9849 37.7008 24.3801 25.8442 29.245 18.5068C27.0911 18.5947 24.9586 18.7654 22.8507 19.0159C17.5996 27.0244 21.0446 40.3426 30.7666 54.1308C26.9865 57.8573 23.2476 61.9354 19.6009 66.332C9.90933 62.7261 0.511852 60.2661 -8.18919 58.9823C-7.95262 45.198 -5.22786 33.4558 -0.19281 25.2614ZM53.2045 77.3838C69.1866 90.0123 86.2591 97.4405 99.289 98.4657C96.3961 103.174 92.8133 107.912 88.6142 112.564C78.2583 100.762 64.0295 89.1269 47.074 79.3376C40.3072 75.4308 33.5029 72.047 26.7901 69.1961C29.6319 65.9942 32.5338 63.0045 35.468 60.2442C40.3702 66.1258 46.3445 71.9633 53.2045 77.3838ZM44.4146 84.39C60.9695 93.9479 74.5428 105.645 83.8741 117.517C75.661 125.63 65.5916 133.338 54.0757 139.987C43.3913 146.155 32.54 150.79 22.1376 153.868C14.0368 142.511 6.75437 128.455 1.23843 112.642C0.933243 111.767 0.635647 110.893 0.345592 110.02C3.11332 103.937 6.37526 97.8011 10.1221 91.7241C14.0619 85.334 18.3008 79.3936 22.7265 73.9716C29.8956 76.7428 37.1896 80.2186 44.4146 84.39ZM-3.70961 119.822C1.38305 133.348 7.65251 145.55 14.5378 155.86C5.36442 157.948 -3.31778 158.759 -11.0534 158.276C-11.3753 147.022 -8.88825 133.732 -3.70961 119.822ZM-8.08889 66.2832C-7.63567 76.7346 -5.86354 88.1196 -2.7051 99.8674C-0.654999 95.9744 1.56885 92.0737 3.96379 88.1892C7.63172 82.2401 11.5141 76.6324 15.5379 71.4134C7.30136 68.7361 -0.676682 67.0212 -8.08889 66.2832Z" fill="#3A6843"/>
<path fill-rule="evenodd" clip-rule="evenodd" d="M40.4509 11C35.7489 11.6753 31.9523 13.545 29.4587 16.7008C24.1786 23.3831 25.8593 34.4154 32.7826 46.3277C28.0702 50.5459 23.3863 55.3253 18.8276 60.6032C8.74631 56.9853 -0.987183 54.6191 -9.91473 53.539C-8.36555 33.8261 -1.23952 19.2898 10.8561 15.0707C14.9042 13.6586 19.2351 13.4977 23.7112 14.451C16.7018 11.2963 9.89017 10.5569 3.7396 12.7024C-8.6739 17.0324 -15.8872 32.2389 -17.319 52.9306C-34.1561 52.2389 -47.261 56.714 -52.9868 66.6313C-57.4442 74.3518 -56.8092 84.2962 -52.0547 95.0392C-54.4034 86.9056 -54.0563 79.4143 -50.5258 73.2993C-45.0837 63.8733 -33.027 59.3626 -17.5776 59.5655C-17.721 73.6499 -15.4204 89.7943 -10.5186 106.54C-19.2035 125.623 -23.5953 144.026 -23.3749 158.848C-31.9375 156.675 -38.5474 152.389 -42.2699 145.942C-44.5024 142.075 -45.5424 137.697 -45.4995 132.978C-47.0495 140.314 -46.3728 147.054 -43.1246 152.68C-39.2435 159.403 -32.1501 163.74 -22.9025 165.762C-21.5733 176.233 -17.473 184.296 -10.4555 188.623C-4.48053 192.307 2.96487 192.885 11.1882 190.805C6.0152 191.027 1.29033 189.96 -2.76199 187.462C-9.26791 183.451 -13.256 176.233 -14.8351 166.904C-5.4571 167.591 5.45168 166.391 17.1038 163.356C32.9139 184.33 51.151 195.384 65.693 190.312C72.3207 188 77.466 182.587 81.0405 174.895C77.9493 179.049 74.1406 182.042 69.6456 183.61C56.1547 188.316 39.5222 179.126 24.844 161.103C35.7212 157.609 47.0723 152.601 58.3021 146.117C71.3735 138.57 82.7959 129.882 92.047 120.834C101.553 135.248 104.492 149.233 98.6177 159.407C95.3626 165.045 89.7412 168.925 82.4429 171.089C93.0077 169.527 101.073 165.193 105.236 157.982C111.501 147.132 107.707 131.889 96.5568 116.211C103.429 108.816 108.824 101.274 112.467 93.9964C115.93 93.0715 118.762 91.3692 120.758 88.8425C123.445 85.4418 124.33 80.9146 123.638 75.718C123.406 78.9086 122.415 81.731 120.593 84.0374C119.141 85.8748 117.248 87.2747 114.996 88.255C118.796 78.2203 118.956 68.9341 114.699 61.5608C111.174 55.454 104.997 51.315 96.9619 49.0924C101.766 51.4861 105.556 54.8354 108.049 59.1546C112.917 67.5861 112.115 78.4461 106.781 89.9769C94.2963 90.4745 76.7987 83.64 60.6341 70.8673C52.2147 64.2146 45.2789 56.8374 40.2258 49.5627C59.1274 33.8507 78.288 27.735 90.9169 35.5213C94.5663 37.7713 97.4234 41.0301 99.5076 45.1045C97.5332 37.6758 93.8097 31.9243 88.2649 28.5056C75.4396 20.5982 55.8395 27.0021 36.3127 43.2769C30.2204 32.1912 28.938 21.9297 33.9554 15.5799C35.5966 13.5028 37.8008 11.9848 40.4509 11ZM104.302 94.8107C91.4562 94.3735 74.1527 87.1344 58.0255 74.3913C49.3439 67.5314 42.1353 59.9711 36.7998 52.5186C33.1446 55.7881 29.5146 59.4089 25.9594 63.3495C33.2689 66.3552 40.7015 69.9971 48.0895 74.2625C66.7263 85.0225 82.0687 98.0124 92.5949 111.003C97.3459 105.629 101.285 100.175 104.302 94.8107ZM88.3168 115.595C78.4769 102.724 63.6542 89.8367 45.43 79.3149C37.5759 74.7803 29.6571 71.0125 21.902 68.0259C16.6972 74.2608 11.7009 81.1799 7.07727 88.679C3.28075 94.8367 -0.0534782 101.043 -2.91473 107.192C-2.25294 109.339 -1.5453 111.495 -0.791405 113.657C4.8863 129.933 12.4356 144.349 20.8225 155.875C31.9314 152.611 43.591 147.641 55.091 141.002C68.1013 133.49 79.3631 124.733 88.3168 115.595ZM13.1806 157.873C5.39062 146.414 -1.64303 132.537 -7.12176 117.051C-13.255 132.859 -16.1249 147.877 -15.5414 160.197C-7.06473 161.047 2.72332 160.261 13.1806 157.873ZM-10.2189 59.993C-10.4117 71.2 -8.95964 83.7571 -5.76713 96.8551C-3.71227 92.9512 -1.48267 89.0395 0.91898 85.1442C5.27296 78.0823 9.92911 71.5015 14.7653 65.4809C6.01434 62.6116 -2.4285 60.7751 -10.2189 59.993Z" fill="url(#paint1_linear)"/>
<path fill-rule="evenodd" clip-rule="evenodd" d="M35.0333 54.1039C38.5897 55.8613 42.9328 54.3311 44.734 50.6862C46.5351 47.0413 45.1122 42.6619 41.5558 40.9045C37.9994 39.1471 33.6563 40.6773 31.8552 44.3222C30.054 47.9671 31.477 52.3465 35.0333 54.1039ZM-6.71987 57.9487C-8.25324 62.5226 -12.7278 65.1471 -16.714 63.8107C-20.7002 62.4744 -22.6887 57.6832 -21.1553 53.1093C-19.6219 48.5354 -15.1474 45.9109 -11.1612 47.2472C-7.17494 48.5836 -5.1865 53.3748 -6.71987 57.9487ZM5.24916 106.743C5.24916 113.47 -0.204029 118.923 -6.93087 118.923C-13.6577 118.923 -19.1109 113.47 -19.1109 106.743C-19.1109 100.016 -13.6577 94.5626 -6.93087 94.5626C-0.204029 94.5626 5.24916 100.016 5.24916 106.743ZM28.4586 162.899C30.1413 158.659 27.1456 153.491 21.7675 151.357C16.3893 149.223 10.6653 150.93 8.9825 155.171C7.29973 159.412 10.2954 164.58 15.6736 166.714C21.0518 168.848 26.7758 167.14 28.4586 162.899ZM27.6361 68.0493C25.4011 72.5724 20.0116 74.4712 15.5984 72.2904C11.1852 70.1096 9.41952 64.6751 11.6546 60.1521C13.8896 55.629 19.2791 53.7303 23.6923 55.911C28.1055 58.0918 29.8712 63.5263 27.6361 68.0493Z" fill="#F9FCF9"/>
</g>
<path d="M147.033 101.684C147.033 125.912 127.392 145.553 103.164 145.553C78.9364 145.553 59.2958 125.912 59.2958 101.684C59.2958 77.4561 78.9364 57.8154 103.164 57.8154C127.392 57.8154 147.033 77.4561 147.033 101.684Z" fill="url(#paint2_radial)"/>
<path fill-rule="evenodd" clip-rule="evenodd" d="M103.164 144.495C126.808 144.495 145.976 125.328 145.976 101.684C145.976 78.0399 126.808 58.8725 103.164 58.8725C79.5202 58.8725 60.3528 78.0399 60.3528 101.684C60.3528 125.328 79.5202 144.495 103.164 144.495ZM103.164 145.553C127.392 145.553 147.033 125.912 147.033 101.684C147.033 77.4561 127.392 57.8154 103.164 57.8154C78.9364 57.8154 59.2958 77.4561 59.2958 101.684C59.2958 125.912 78.9364 145.553 103.164 145.553Z" fill="#8F8F8F"/>
<path fill-rule="evenodd" clip-rule="evenodd" d="M86.0604 62.4264C84.0611 63.2987 82.1414 64.3192 80.3151 65.4741C78.8993 69.3838 78.1391 74.1799 78.067 79.5602C73.3962 79.22 69.2238 79.6066 65.8175 80.74C64.3765 83.3041 63.1919 86.0315 62.2985 88.8876C65.6083 85.2533 71.2485 83.4985 78.1365 83.5724C78.461 90.5241 79.8409 98.2503 82.3371 106.187C78.2586 115.107 75.9797 123.749 75.6206 131.019C73.6101 130.559 71.7871 129.885 70.1938 128.995C73.3489 132.799 77.15 136.049 81.4289 138.576C81.1631 137.681 80.9486 136.738 80.7851 135.752C85.3442 135.738 90.4617 134.965 95.8569 133.45C99.2866 138.062 102.943 141.778 106.593 144.361C108.762 144.189 110.886 143.855 112.951 143.372C108.55 141.342 104.024 137.476 99.8208 132.22C105.101 130.427 110.573 127.959 115.991 124.831C122.025 121.347 127.384 117.396 131.879 113.262C135.291 118.313 137.164 123.323 137.142 127.734C138.552 125.897 139.817 123.943 140.918 121.888C139.722 118.299 137.563 114.481 134.585 110.645C137.959 107.211 140.728 103.695 142.789 100.25C143.96 99.9746 145.002 99.5386 145.889 98.9361C145.813 97.735 145.688 96.5473 145.514 95.3751C145.393 95.4652 145.269 95.5519 145.141 95.6352C145.245 95.3866 145.345 95.1388 145.44 94.8918C144.948 91.8051 144.126 88.8284 143.011 85.999C142.859 89.8526 141.296 93.8858 139.709 97.18C133.204 97.4633 124.063 93.903 115.62 87.2317C112.198 84.5278 109.247 81.594 106.865 78.6353C115.801 70.9836 125.066 67.4933 131.835 69.8907C129.433 67.723 126.784 65.8237 123.935 64.2401C117.995 65.31 111.153 69.2271 104.44 75.3213C100.212 68.904 98.8561 62.7299 101.389 58.9092C100.268 58.9549 99.1574 59.0438 98.0597 59.1742C95.3253 63.3445 97.1192 70.2796 102.182 77.4595C100.213 79.4 98.2664 81.5235 96.3674 83.8129C91.3208 81.9353 86.4273 80.6543 81.8965 79.9858C82.0196 72.8079 83.4385 66.6935 86.0604 62.4264ZM113.866 89.5679C122.188 96.1438 131.078 100.012 137.863 100.546C136.357 102.997 134.491 105.465 132.304 107.887C126.912 101.741 119.503 95.6828 110.673 90.5852C107.15 88.5509 103.607 86.7889 100.111 85.3044C101.591 83.637 103.102 82.0802 104.63 80.6428C107.183 83.7055 110.294 86.7453 113.866 89.5679ZM109.289 93.2161C117.909 98.1932 124.977 104.284 129.836 110.466C125.559 114.691 120.316 118.705 114.319 122.167C108.756 125.379 103.105 127.792 97.6884 129.395C93.4701 123.481 89.6779 116.162 86.8056 107.927C86.6467 107.472 86.4918 107.017 86.3407 106.562C87.7819 103.395 89.4805 100.2 91.4316 97.0352C93.4831 93.7077 95.6905 90.6144 97.995 87.791C101.728 89.2341 105.526 91.044 109.289 93.2161ZM84.2291 111.667C86.881 118.71 90.1456 125.064 93.731 130.432C88.9542 131.52 84.4331 131.942 80.405 131.691C80.2374 125.83 81.5324 118.91 84.2291 111.667ZM81.9487 83.7875C82.1847 89.2298 83.1075 95.1583 84.7522 101.276C85.8197 99.2485 86.9777 97.2172 88.2248 95.1945C90.1348 92.0967 92.1564 89.1766 94.2517 86.4589C89.9628 85.0648 85.8084 84.1718 81.9487 83.7875Z" fill="#CCCCCC"/>
<path fill-rule="evenodd" clip-rule="evenodd" d="M107.224 55C104.776 55.3516 102.799 56.3253 101.501 57.9686C98.7511 61.4482 99.6262 67.193 103.231 73.396C100.778 75.5925 98.3385 78.0813 95.9646 80.8296C90.7151 78.9457 85.6466 77.7135 80.9978 77.1511C81.8045 66.8861 85.5152 59.3167 91.8137 57.1197C93.9216 56.3844 96.1768 56.3006 98.5076 56.797C94.8577 55.1543 91.3107 54.7693 88.1079 55.8865C81.6439 58.1412 77.8878 66.0596 77.1422 76.8343C68.3747 76.4741 61.5507 78.8044 58.5691 83.9686C56.248 87.9888 56.5787 93.1671 59.0545 98.7613C57.8315 94.5259 58.0122 90.625 59.8506 87.4408C62.6845 82.5324 68.9627 80.1836 77.0075 80.2892C76.9329 87.6233 78.1308 96.0301 80.6834 104.75C76.1609 114.687 73.874 124.27 73.9888 131.988C69.53 130.857 66.088 128.625 64.1497 125.267C62.9871 123.254 62.4456 120.974 62.4679 118.517C61.6608 122.337 62.0132 125.847 63.7046 128.776C65.7256 132.277 69.4193 134.536 74.2347 135.589C74.9269 141.041 77.062 145.24 80.7162 147.493C83.8275 149.411 87.7045 149.712 91.9866 148.629C89.2929 148.745 86.8325 148.189 84.7224 146.888C81.3346 144.799 79.2579 141.041 78.4356 136.183C83.319 136.541 88.9995 135.916 95.067 134.335C103.3 145.257 112.796 151.013 120.369 148.372C123.82 147.168 126.499 144.35 128.36 140.344C126.751 142.507 124.767 144.066 122.427 144.882C115.402 147.333 106.741 142.548 99.0975 133.162C104.762 131.343 110.672 128.735 116.52 125.359C123.327 121.429 129.274 116.905 134.092 112.193C139.042 119.699 140.572 126.981 137.513 132.279C135.818 135.215 132.891 137.235 129.091 138.362C134.592 137.549 138.792 135.292 140.96 131.537C144.222 125.887 142.247 117.95 136.44 109.786C140.019 105.935 142.828 102.008 144.725 98.2183C146.528 97.7367 148.003 96.8502 149.043 95.5345C150.442 93.7637 150.902 91.4062 150.542 88.7003C150.421 90.3617 149.905 91.8314 148.956 93.0324C148.2 93.9891 147.215 94.7181 146.042 95.2286C148.021 90.0033 148.104 85.1677 145.887 81.3282C144.051 78.1483 140.835 75.993 136.651 74.8357C139.153 76.0821 141.126 77.8262 142.425 80.0753C144.96 84.4658 144.542 90.1208 141.764 96.1252C135.263 96.3843 126.152 92.8254 117.734 86.1744C113.35 82.7101 109.738 78.8687 107.107 75.0806C116.95 66.8989 126.927 63.7143 133.503 67.7688C135.404 68.9405 136.891 70.6374 137.977 72.7591C136.949 68.8907 135.01 65.8958 132.122 64.1156C125.444 59.998 115.238 63.3327 105.07 71.8074C101.897 66.0348 101.229 60.6914 103.842 57.3848C104.697 56.3033 105.844 55.5128 107.224 55ZM140.473 98.6423C133.784 98.4146 124.774 94.6451 116.376 88.0094C111.855 84.4373 108.102 80.5005 105.323 76.6197C103.42 78.3223 101.53 80.2077 99.6783 82.2597C103.485 83.8248 107.355 85.7212 111.202 87.9424C120.907 93.5453 128.896 100.31 134.377 107.074C136.851 104.276 138.902 101.435 140.473 98.6423ZM132.149 109.465C127.026 102.763 119.307 96.0522 109.817 90.5733C105.727 88.212 101.604 86.25 97.5656 84.6948C94.8553 87.9414 92.2536 91.5444 89.8459 95.4494C87.869 98.6558 86.1328 101.888 84.6429 105.089C84.9875 106.208 85.356 107.33 85.7485 108.456C88.7051 116.932 92.6362 124.438 97.0034 130.44C102.788 128.74 108.86 126.152 114.848 122.695C121.623 118.784 127.487 114.224 132.149 109.465ZM93.0241 131.48C88.9677 125.513 85.3051 118.287 82.4522 110.223C79.2584 118.455 77.764 126.275 78.0679 132.691C82.4819 133.133 87.5787 132.724 93.0241 131.48ZM80.8394 80.5118C80.739 86.3476 81.4951 92.8864 83.1576 99.7068C84.2276 97.674 85.3886 95.6371 86.6392 93.6087C88.9064 89.9314 91.331 86.5046 93.8493 83.3696C89.2925 81.8754 84.8961 80.9191 80.8394 80.5118Z" fill="white"/>
<path fill-rule="evenodd" clip-rule="evenodd" d="M104.404 77.4451C106.256 78.3602 108.517 77.5634 109.455 75.6654C110.393 73.7674 109.652 71.487 107.8 70.5719C105.948 69.6567 103.687 70.4535 102.749 72.3515C101.811 74.2495 102.552 76.53 104.404 77.4451ZM82.6617 79.4472C81.8632 81.8289 79.5332 83.1956 77.4575 82.4997C75.3818 81.8038 74.3463 79.3089 75.1448 76.9272C75.9433 74.5454 78.2733 73.1788 80.349 73.8747C82.4247 74.5705 83.4602 77.0654 82.6617 79.4472ZM88.8943 104.855C88.8943 108.358 86.0547 111.198 82.5518 111.198C79.049 111.198 76.2094 108.358 76.2094 104.855C76.2094 101.353 79.049 98.513 82.5518 98.513C86.0547 98.513 88.8943 101.353 88.8943 104.855ZM100.98 134.098C101.856 131.889 100.296 129.198 97.4958 128.087C94.6952 126.976 91.7146 127.865 90.8383 130.073C89.962 132.282 91.522 134.973 94.3225 136.084C97.1231 137.195 100.104 136.306 100.98 134.098ZM100.552 84.7068C99.3879 87.0621 96.5814 88.0508 94.2834 86.9153C91.9853 85.7797 91.0659 82.9498 92.2297 80.5945C93.3936 78.2393 96.2 77.2505 98.498 78.3861C100.796 79.5217 101.716 82.3516 100.552 84.7068Z" fill="#F9FCF9"/>
<path fill-rule="evenodd" clip-rule="evenodd" d="M262.476 63.9368C262.999 64.4368 263.63 64.6867 264.368 64.6867C265.13 64.6867 265.761 64.4368 266.261 63.9368C266.761 63.413 267.011 62.7821 267.011 62.0441C267.011 61.2822 266.761 60.6513 266.261 60.1513C265.761 59.6514 265.13 59.4014 264.368 59.4014C263.63 59.4014 262.999 59.6514 262.476 60.1513C261.976 60.6513 261.726 61.2822 261.726 62.0441C261.726 62.7821 261.976 63.413 262.476 63.9368ZM249.569 80.3587H251.732C251.964 80.3587 252.118 80.329 252.196 80.2697C252.299 80.1905 252.35 80.0618 252.35 79.8836V61.1176C252.35 60.9395 252.299 60.8207 252.196 60.7613C252.118 60.6821 251.964 60.6425 251.732 60.6425H249.569V59.9299H256.831V79.8836C256.831 80.0618 256.869 80.1905 256.946 80.2697C257.049 80.329 257.217 80.3587 257.449 80.3587H259.611V81.0714H249.569V80.3587ZM213.1 80.1925H215.32C215.616 80.1925 215.817 80.1467 215.923 80.0551C216.028 79.9453 216.081 79.7713 216.081 79.5333V63.0536C216.081 62.7973 216.028 62.6233 215.923 62.5318C215.817 62.4402 215.616 62.3944 215.32 62.3944H213.1V61.5155H224.263C225.51 61.5155 226.673 61.7169 227.751 62.1198C228.851 62.5226 229.728 63.0811 230.383 63.7952C231.039 64.491 231.366 65.2875 231.366 66.1848C231.366 67.3933 230.848 68.3729 229.813 69.1236C228.777 69.8744 227.508 70.4237 226.007 70.7716V70.9364C226.98 71.0646 227.931 71.3392 228.861 71.7604C229.813 72.1632 230.595 72.7034 231.208 73.3809C231.821 74.0584 232.128 74.8457 232.128 75.743C232.128 76.8599 231.789 77.8212 231.113 78.6269C230.436 79.4326 229.527 80.046 228.386 80.4671C227.265 80.87 226.028 81.0714 224.675 81.0714H213.1V80.1925ZM223.692 70.4145C224.834 70.4145 225.605 70.0666 226.007 69.3708C226.409 68.6567 226.61 67.5947 226.61 66.1848C226.61 64.9946 226.366 64.0699 225.88 63.4107C225.394 62.7332 224.728 62.3944 223.882 62.3944H221.536C221.261 62.3944 221.06 62.4402 220.933 62.5318C220.827 62.6233 220.775 62.7973 220.775 63.0536V70.4145H223.692ZM223.692 80.1925C224.813 80.1925 225.648 79.872 226.197 79.2311C226.768 78.572 227.054 77.4092 227.054 75.743C227.054 74.0767 226.768 72.9231 226.197 72.2822C225.648 71.623 224.813 71.2934 223.692 71.2934H220.775V79.5333C220.775 79.7713 220.827 79.9453 220.933 80.0551C221.06 80.1467 221.261 80.1925 221.536 80.1925H223.692ZM261.575 80.353H260.14V81.0714H268.597V80.353H267.162C266.935 80.353 266.772 80.3231 266.671 80.2632C266.596 80.1834 266.558 80.0537 266.558 79.8741V66.8841H260.14V67.6025H261.575C261.801 67.6025 261.952 67.6424 262.028 67.7222C262.128 67.782 262.179 67.9018 262.179 68.0813V79.8741C262.179 80.0537 262.128 80.1834 262.028 80.2632C261.952 80.3231 261.801 80.353 261.575 80.353ZM278.993 67.5234L269.654 80.2886V81.0714H283.625L283.849 74.8092H282.953C282.953 75.0099 282.891 75.3913 282.766 75.9533C282.666 76.5153 282.455 77.0572 282.131 77.579C281.708 78.3417 281.073 78.994 280.226 79.5359C279.404 80.0779 278.545 80.3488 277.648 80.3488H274.435L283.924 67.403V66.8009H270.924L270.7 72.0996H271.596C271.596 71.9591 271.708 71.5677 271.932 70.9255C272.157 70.2631 272.493 69.651 272.941 69.089C273.788 68.0453 274.958 67.5234 276.453 67.5234H278.993ZM293.41 81.5999C291.774 81.5999 290.31 81.273 289.017 80.6193C287.751 79.9457 286.762 79.0443 286.05 77.915C285.337 76.7858 284.981 75.5476 284.981 74.2004C284.981 72.8136 285.337 71.5556 286.05 70.4263C286.762 69.2971 287.725 68.4155 288.938 67.7815C290.178 67.1278 291.523 66.8009 292.974 66.8009C294.583 66.8009 295.968 67.2367 297.129 68.1084C298.29 68.9603 299.055 70.0896 299.424 71.4962C299.609 72.1301 299.701 73.1207 299.701 74.4678H290.046C290.046 75.4188 290.073 76.1716 290.125 76.7263C290.351 79.0148 291.809 80.0546 294.231 80.0546C296.681 80.0546 298.427 78.783 298.751 76.4292H299.78C299.622 77.7961 299.028 79.0046 298 80.0546C296.971 81.0848 295.441 81.5999 293.41 81.5999ZM295.111 72.6148C295.111 70.5346 294.926 70.0202 294.557 69.0297C294.214 68.0193 293.555 67.5141 292.579 67.5141C291.603 67.5141 290.93 68.0193 290.561 69.0297C290.218 70.0202 290.046 70.5346 290.046 72.6148H295.111ZM238.278 80.6193C239.57 81.273 241.034 81.5999 242.67 81.5999C244.701 81.5999 246.231 81.0848 247.26 80.0546C248.289 79.0046 248.882 77.7961 249.041 76.4292H248.012C247.688 78.783 245.912 80.0546 243.461 80.0546C241.04 80.0546 239.611 79.0148 239.386 76.7263C239.333 76.1716 239.307 75.4188 239.307 74.4678H248.962C248.962 73.1207 248.869 72.1301 248.685 71.4962C248.315 70.0896 247.55 68.9603 246.39 68.1084C245.229 67.2367 243.844 66.8009 242.235 66.8009C240.784 66.8009 239.438 67.1278 238.199 67.7815C236.985 68.4155 236.022 69.2971 235.31 70.4263C234.598 71.5556 234.242 72.8136 234.242 74.2004C234.242 75.5476 234.598 76.7858 235.31 77.915C236.022 79.0443 237.012 79.9457 238.278 80.6193ZM243.818 69.0297C244.187 70.0202 244.372 70.5346 244.372 72.6148H239.307C239.307 70.5346 239.478 70.0202 239.821 69.0297C240.19 68.0193 240.863 67.5141 241.839 67.5141C242.815 67.5141 243.475 68.0193 243.818 69.0297Z" fill="white"/>
<path d="M129.182 147.504V147.667H126.072V147.504H126.269C126.442 147.504 126.581 147.474 126.686 147.412C126.762 147.371 126.821 147.301 126.861 147.202C126.894 147.131 126.91 146.947 126.91 146.649V142.735C126.91 142.431 126.894 142.241 126.861 142.165C126.829 142.089 126.764 142.023 126.664 141.968C126.568 141.909 126.436 141.88 126.269 141.88H126.072V141.718H129.182V141.88H128.985C128.812 141.88 128.673 141.911 128.568 141.972C128.492 142.013 128.432 142.083 128.388 142.183C128.356 142.253 128.34 142.437 128.34 142.735V146.649C128.34 146.953 128.356 147.143 128.388 147.219C128.423 147.295 128.489 147.362 128.586 147.421C128.685 147.477 128.818 147.504 128.985 147.504H129.182Z" fill="white"/>
<path d="M131.417 143.565V144.095C131.627 143.867 131.829 143.702 132.022 143.6C132.215 143.494 132.423 143.442 132.645 143.442C132.911 143.442 133.132 143.516 133.307 143.665C133.483 143.812 133.6 143.995 133.658 144.214C133.705 144.381 133.729 144.701 133.729 145.175V146.772C133.729 147.088 133.756 147.285 133.812 147.364C133.87 147.44 133.99 147.488 134.172 147.509V147.667H132.097V147.509C132.252 147.488 132.363 147.424 132.43 147.316C132.477 147.243 132.5 147.061 132.5 146.772V144.947C132.5 144.61 132.487 144.398 132.461 144.31C132.434 144.223 132.389 144.155 132.325 144.109C132.263 144.059 132.195 144.034 132.118 144.034C131.867 144.034 131.633 144.214 131.417 144.574V146.772C131.417 147.079 131.444 147.273 131.5 147.355C131.558 147.437 131.665 147.488 131.82 147.509V147.667H129.745V147.509C129.918 147.491 130.04 147.436 130.114 147.342C130.163 147.278 130.188 147.088 130.188 146.772V144.455C130.188 144.145 130.159 143.952 130.1 143.876C130.045 143.8 129.926 143.75 129.745 143.727V143.565H131.417Z" fill="white"/>
<path d="M136.415 142.064V143.565H137.389V143.999H136.415V146.53C136.415 146.767 136.425 146.921 136.445 146.991C136.469 147.058 136.508 147.114 136.564 147.158C136.619 147.199 136.671 147.219 136.717 147.219C136.908 147.219 137.087 147.074 137.257 146.785L137.389 146.881C137.152 147.443 136.767 147.724 136.235 147.724C135.974 147.724 135.754 147.652 135.572 147.509C135.394 147.362 135.28 147.2 135.23 147.022C135.201 146.922 135.186 146.653 135.186 146.214V143.999H134.651V143.845C135.02 143.585 135.332 143.312 135.59 143.025C135.85 142.738 136.077 142.418 136.27 142.064H136.415Z" fill="white"/>
<path d="M141.299 145.469H139.048C139.074 146.013 139.219 146.443 139.482 146.759C139.684 147.001 139.927 147.123 140.211 147.123C140.386 147.123 140.546 147.074 140.689 146.978C140.832 146.878 140.986 146.701 141.15 146.447L141.299 146.544C141.076 146.997 140.831 147.319 140.562 147.509C140.293 147.696 139.981 147.79 139.627 147.79C139.019 147.79 138.558 147.556 138.245 147.088C137.994 146.71 137.868 146.242 137.868 145.684C137.868 144.999 138.052 144.455 138.421 144.052C138.792 143.645 139.227 143.442 139.724 143.442C140.139 143.442 140.499 143.613 140.803 143.955C141.11 144.294 141.275 144.799 141.299 145.469ZM140.219 145.175C140.219 144.704 140.193 144.381 140.141 144.205C140.091 144.03 140.012 143.897 139.904 143.806C139.842 143.753 139.76 143.727 139.658 143.727C139.506 143.727 139.382 143.801 139.285 143.951C139.112 144.211 139.026 144.568 139.026 145.021V145.175H140.219Z" fill="white"/>
<path d="M143.564 143.565V144.495C143.836 144.071 144.074 143.79 144.279 143.652C144.484 143.512 144.681 143.442 144.871 143.442C145.035 143.442 145.165 143.493 145.262 143.595C145.361 143.695 145.411 143.837 145.411 144.021C145.411 144.217 145.362 144.369 145.266 144.477C145.172 144.585 145.058 144.639 144.924 144.639C144.769 144.639 144.634 144.59 144.52 144.49C144.406 144.391 144.339 144.335 144.318 144.324C144.289 144.306 144.255 144.297 144.217 144.297C144.133 144.297 144.052 144.329 143.976 144.394C143.856 144.493 143.765 144.635 143.704 144.819C143.61 145.103 143.564 145.416 143.564 145.758V146.701L143.568 146.947C143.568 147.114 143.578 147.221 143.599 147.267C143.634 147.346 143.685 147.405 143.752 147.443C143.822 147.478 143.939 147.5 144.103 147.509V147.667H141.888V147.509C142.066 147.494 142.186 147.446 142.247 147.364C142.312 147.279 142.344 147.058 142.344 146.701V144.433C142.344 144.199 142.332 144.05 142.309 143.986C142.28 143.904 142.237 143.844 142.182 143.806C142.126 143.768 142.028 143.742 141.888 143.727V143.565H143.564Z" fill="white"/>
<path d="M147.575 143.565V144.095C147.785 143.867 147.987 143.702 148.18 143.6C148.373 143.494 148.581 143.442 148.803 143.442C149.069 143.442 149.29 143.516 149.466 143.665C149.641 143.812 149.758 143.995 149.817 144.214C149.863 144.381 149.887 144.701 149.887 145.175V146.772C149.887 147.088 149.915 147.285 149.97 147.364C150.029 147.44 150.149 147.488 150.33 147.509V147.667H148.255V147.509C148.41 147.488 148.521 147.424 148.588 147.316C148.635 147.243 148.658 147.061 148.658 146.772V144.947C148.658 144.61 148.645 144.398 148.619 144.31C148.593 144.223 148.547 144.155 148.483 144.109C148.421 144.059 148.353 144.034 148.277 144.034C148.025 144.034 147.791 144.214 147.575 144.574V146.772C147.575 147.079 147.602 147.273 147.658 147.355C147.717 147.437 147.823 147.488 147.978 147.509V147.667H145.903V147.509C146.076 147.491 146.199 147.436 146.272 147.342C146.321 147.278 146.346 147.088 146.346 146.772V144.455C146.346 144.145 146.317 143.952 146.258 143.876C146.203 143.8 146.084 143.75 145.903 143.727V143.565H147.575Z" fill="white"/>
<path d="M153.209 147.061C152.709 147.503 152.26 147.724 151.862 147.724C151.628 147.724 151.434 147.648 151.279 147.496C151.124 147.341 151.046 147.148 151.046 146.916C151.046 146.603 151.181 146.323 151.45 146.074C151.719 145.823 152.305 145.489 153.209 145.074V144.661C153.209 144.351 153.191 144.157 153.156 144.078C153.124 143.996 153.061 143.926 152.968 143.867C152.874 143.806 152.769 143.775 152.652 143.775C152.462 143.775 152.305 143.818 152.182 143.902C152.106 143.955 152.068 144.016 152.068 144.087C152.068 144.148 152.109 144.224 152.191 144.315C152.302 144.441 152.358 144.562 152.358 144.679C152.358 144.822 152.304 144.945 152.195 145.047C152.09 145.147 151.951 145.197 151.779 145.197C151.594 145.197 151.439 145.141 151.314 145.03C151.191 144.919 151.129 144.789 151.129 144.639C151.129 144.429 151.213 144.229 151.379 144.038C151.546 143.845 151.779 143.698 152.077 143.595C152.375 143.493 152.685 143.442 153.007 143.442C153.396 143.442 153.703 143.525 153.928 143.692C154.157 143.856 154.304 144.034 154.372 144.227C154.413 144.35 154.433 144.632 154.433 145.074V146.666C154.433 146.854 154.44 146.972 154.455 147.022C154.47 147.069 154.492 147.104 154.521 147.127C154.55 147.15 154.584 147.162 154.622 147.162C154.698 147.162 154.775 147.108 154.854 147L154.986 147.105C154.84 147.322 154.687 147.479 154.53 147.579C154.375 147.675 154.198 147.724 153.999 147.724C153.765 147.724 153.582 147.67 153.45 147.561C153.319 147.45 153.238 147.284 153.209 147.061ZM153.209 146.741V145.368C152.855 145.575 152.592 145.798 152.419 146.035C152.305 146.193 152.248 146.352 152.248 146.513C152.248 146.647 152.296 146.766 152.393 146.868C152.466 146.947 152.568 146.987 152.7 146.987C152.846 146.987 153.016 146.905 153.209 146.741Z" fill="white"/>
<path d="M157.11 142.064V143.565H158.084V143.999H157.11V146.53C157.11 146.767 157.121 146.921 157.141 146.991C157.164 147.058 157.204 147.114 157.259 147.158C157.315 147.199 157.366 147.219 157.413 147.219C157.603 147.219 157.783 147.074 157.953 146.785L158.084 146.881C157.847 147.443 157.463 147.724 156.93 147.724C156.67 147.724 156.449 147.652 156.268 147.509C156.09 147.362 155.975 147.2 155.926 147.022C155.896 146.922 155.882 146.653 155.882 146.214V143.999H155.347V143.845C155.715 143.585 156.028 143.312 156.285 143.025C156.546 142.738 156.772 142.418 156.966 142.064H157.11Z" fill="white"/>
<path d="M159.507 141.577C159.697 141.577 159.858 141.644 159.989 141.779C160.121 141.911 160.187 142.07 160.187 142.257C160.187 142.444 160.12 142.604 159.985 142.735C159.853 142.867 159.694 142.933 159.507 142.933C159.32 142.933 159.16 142.867 159.029 142.735C158.897 142.604 158.831 142.444 158.831 142.257C158.831 142.07 158.897 141.911 159.029 141.779C159.16 141.644 159.32 141.577 159.507 141.577ZM160.121 143.565V146.816C160.121 147.105 160.155 147.291 160.222 147.373C160.289 147.452 160.421 147.497 160.617 147.509V147.667H158.401V147.509C158.583 147.503 158.717 147.45 158.805 147.351C158.863 147.284 158.893 147.105 158.893 146.816V144.42C158.893 144.131 158.859 143.946 158.792 143.867C158.724 143.785 158.594 143.739 158.401 143.727V143.565H160.121Z" fill="white"/>
<path d="M163 143.442C163.357 143.442 163.689 143.534 163.996 143.718C164.303 143.902 164.536 144.164 164.694 144.503C164.854 144.843 164.935 145.214 164.935 145.618C164.935 146.2 164.787 146.687 164.492 147.079C164.135 147.553 163.642 147.79 163.013 147.79C162.396 147.79 161.921 147.573 161.587 147.14C161.254 146.707 161.087 146.206 161.087 145.635C161.087 145.047 161.257 144.536 161.596 144.1C161.938 143.661 162.406 143.442 163 143.442ZM163.018 143.753C162.868 143.753 162.74 143.81 162.632 143.924C162.526 144.035 162.456 144.258 162.421 144.591C162.389 144.922 162.373 145.382 162.373 145.973C162.373 146.286 162.393 146.579 162.434 146.851C162.466 147.058 162.535 147.216 162.64 147.324C162.746 147.433 162.866 147.487 163 147.487C163.132 147.487 163.241 147.45 163.329 147.377C163.443 147.278 163.519 147.139 163.557 146.96C163.616 146.682 163.645 146.121 163.645 145.276C163.645 144.778 163.617 144.438 163.562 144.253C163.506 144.066 163.424 143.93 163.316 143.845C163.24 143.784 163.141 143.753 163.018 143.753Z" fill="white"/>
<path d="M167.279 143.565V144.095C167.489 143.867 167.691 143.702 167.884 143.6C168.077 143.494 168.285 143.442 168.507 143.442C168.773 143.442 168.994 143.516 169.17 143.665C169.345 143.812 169.462 143.995 169.521 144.214C169.567 144.381 169.591 144.701 169.591 145.175V146.772C169.591 147.088 169.619 147.285 169.674 147.364C169.733 147.44 169.853 147.488 170.034 147.509V147.667H167.959V147.509C168.114 147.488 168.225 147.424 168.292 147.316C168.339 147.243 168.362 147.061 168.362 146.772V144.947C168.362 144.61 168.349 144.398 168.323 144.31C168.297 144.223 168.251 144.155 168.187 144.109C168.125 144.059 168.057 144.034 167.981 144.034C167.729 144.034 167.495 144.214 167.279 144.574V146.772C167.279 147.079 167.307 147.273 167.362 147.355C167.421 147.437 167.527 147.488 167.682 147.509V147.667H165.607V147.509C165.78 147.491 165.903 147.436 165.976 147.342C166.025 147.278 166.05 147.088 166.05 146.772V144.455C166.05 144.145 166.021 143.952 165.963 143.876C165.907 143.8 165.789 143.75 165.607 143.727V143.565H167.279Z" fill="white"/>
<path d="M172.913 147.061C172.413 147.503 171.964 147.724 171.566 147.724C171.332 147.724 171.138 147.648 170.983 147.496C170.828 147.341 170.75 147.148 170.75 146.916C170.75 146.603 170.885 146.323 171.154 146.074C171.423 145.823 172.009 145.489 172.913 145.074V144.661C172.913 144.351 172.896 144.157 172.86 144.078C172.828 143.996 172.765 143.926 172.672 143.867C172.578 143.806 172.473 143.775 172.356 143.775C172.166 143.775 172.009 143.818 171.886 143.902C171.81 143.955 171.772 144.016 171.772 144.087C171.772 144.148 171.813 144.224 171.895 144.315C172.006 144.441 172.062 144.562 172.062 144.679C172.062 144.822 172.008 144.945 171.9 145.047C171.794 145.147 171.655 145.197 171.483 145.197C171.299 145.197 171.144 145.141 171.018 145.03C170.895 144.919 170.833 144.789 170.833 144.639C170.833 144.429 170.917 144.229 171.084 144.038C171.25 143.845 171.483 143.698 171.781 143.595C172.079 143.493 172.39 143.442 172.711 143.442C173.1 143.442 173.407 143.525 173.633 143.692C173.861 143.856 174.008 144.034 174.076 144.227C174.117 144.35 174.137 144.632 174.137 145.074V146.666C174.137 146.854 174.144 146.972 174.159 147.022C174.174 147.069 174.196 147.104 174.225 147.127C174.254 147.15 174.288 147.162 174.326 147.162C174.402 147.162 174.479 147.108 174.558 147L174.69 147.105C174.544 147.322 174.392 147.479 174.234 147.579C174.079 147.675 173.902 147.724 173.703 147.724C173.469 147.724 173.286 147.67 173.154 147.561C173.023 147.45 172.942 147.284 172.913 147.061ZM172.913 146.741V145.368C172.559 145.575 172.296 145.798 172.123 146.035C172.009 146.193 171.952 146.352 171.952 146.513C171.952 146.647 172.001 146.766 172.097 146.868C172.17 146.947 172.273 146.987 172.404 146.987C172.55 146.987 172.72 146.905 172.913 146.741Z" fill="white"/>
<path d="M176.792 141.718V146.816C176.792 147.105 176.826 147.291 176.893 147.373C176.961 147.452 177.092 147.497 177.288 147.509V147.667H175.073V147.509C175.254 147.503 175.389 147.45 175.476 147.351C175.535 147.284 175.564 147.105 175.564 146.816V142.569C175.564 142.282 175.53 142.099 175.463 142.02C175.396 141.938 175.266 141.892 175.073 141.88V141.718H176.792Z" fill="white"/>
<path d="M182.191 142.06V144.503H182.362C182.625 144.503 182.84 144.464 183.007 144.385C183.174 144.306 183.314 144.173 183.428 143.986C183.545 143.799 183.621 143.546 183.656 143.227H183.81V146.214H183.656C183.601 145.65 183.449 145.279 183.2 145.1C182.954 144.919 182.675 144.828 182.362 144.828H182.191V146.649C182.191 146.953 182.207 147.143 182.239 147.219C182.274 147.295 182.34 147.362 182.437 147.421C182.536 147.477 182.669 147.504 182.836 147.504H183.033V147.667H179.923V147.504H180.12C180.293 147.504 180.432 147.474 180.537 147.412C180.613 147.371 180.671 147.301 180.712 147.202C180.745 147.131 180.761 146.947 180.761 146.649V142.735C180.761 142.431 180.745 142.241 180.712 142.165C180.68 142.089 180.614 142.023 180.515 141.968C180.418 141.909 180.287 141.88 180.12 141.88H179.923V141.718H184.942V143.424H184.762C184.721 143.023 184.616 142.727 184.446 142.534C184.279 142.341 184.036 142.205 183.718 142.126C183.542 142.082 183.218 142.06 182.744 142.06H182.191Z" fill="white"/>
<path d="M186.549 141.577C186.739 141.577 186.899 141.644 187.031 141.779C187.163 141.911 187.229 142.07 187.229 142.257C187.229 142.444 187.161 142.604 187.027 142.735C186.895 142.867 186.736 142.933 186.549 142.933C186.361 142.933 186.202 142.867 186.07 142.735C185.939 142.604 185.873 142.444 185.873 142.257C185.873 142.07 185.939 141.911 186.07 141.779C186.202 141.644 186.361 141.577 186.549 141.577ZM187.163 143.565V146.816C187.163 147.105 187.196 147.291 187.264 147.373C187.331 147.452 187.463 147.497 187.658 147.509V147.667H185.443V147.509C185.624 147.503 185.759 147.45 185.847 147.351C185.905 147.284 185.934 147.105 185.934 146.816V144.42C185.934 144.131 185.901 143.946 185.833 143.867C185.766 143.785 185.636 143.739 185.443 143.727V143.565H187.163Z" fill="white"/>
<path d="M189.783 143.565V144.095C189.994 143.867 190.195 143.702 190.388 143.6C190.581 143.494 190.789 143.442 191.011 143.442C191.278 143.442 191.498 143.516 191.674 143.665C191.849 143.812 191.966 143.995 192.025 144.214C192.072 144.381 192.095 144.701 192.095 145.175V146.772C192.095 147.088 192.123 147.285 192.178 147.364C192.237 147.44 192.357 147.488 192.538 147.509V147.667H190.463V147.509C190.618 147.488 190.729 147.424 190.796 147.316C190.843 147.243 190.867 147.061 190.867 146.772V144.947C190.867 144.61 190.853 144.398 190.827 144.31C190.801 144.223 190.755 144.155 190.691 144.109C190.63 144.059 190.561 144.034 190.485 144.034C190.233 144.034 189.999 144.214 189.783 144.574V146.772C189.783 147.079 189.811 147.273 189.866 147.355C189.925 147.437 190.032 147.488 190.187 147.509V147.667H188.111V147.509C188.284 147.491 188.407 147.436 188.48 147.342C188.53 147.278 188.555 147.088 188.555 146.772V144.455C188.555 144.145 188.525 143.952 188.467 143.876C188.411 143.8 188.293 143.75 188.111 143.727V143.565H189.783Z" fill="white"/>
<path d="M195.417 147.061C194.917 147.503 194.468 147.724 194.07 147.724C193.836 147.724 193.642 147.648 193.487 147.496C193.332 147.341 193.254 147.148 193.254 146.916C193.254 146.603 193.389 146.323 193.658 146.074C193.927 145.823 194.514 145.489 195.417 145.074V144.661C195.417 144.351 195.4 144.157 195.365 144.078C195.332 143.996 195.27 143.926 195.176 143.867C195.082 143.806 194.977 143.775 194.86 143.775C194.67 143.775 194.514 143.818 194.391 143.902C194.315 143.955 194.277 144.016 194.277 144.087C194.277 144.148 194.318 144.224 194.399 144.315C194.511 144.441 194.566 144.562 194.566 144.679C194.566 144.822 194.512 144.945 194.404 145.047C194.299 145.147 194.16 145.197 193.987 145.197C193.803 145.197 193.648 145.141 193.522 145.03C193.399 144.919 193.338 144.789 193.338 144.639C193.338 144.429 193.421 144.229 193.588 144.038C193.755 143.845 193.987 143.698 194.285 143.595C194.584 143.493 194.894 143.442 195.215 143.442C195.604 143.442 195.912 143.525 196.137 143.692C196.365 143.856 196.513 144.034 196.58 144.227C196.621 144.35 196.641 144.632 196.641 145.074V146.666C196.641 146.854 196.649 146.972 196.663 147.022C196.678 147.069 196.7 147.104 196.729 147.127C196.758 147.15 196.792 147.162 196.83 147.162C196.906 147.162 196.984 147.108 197.063 147L197.194 147.105C197.048 147.322 196.896 147.479 196.738 147.579C196.583 147.675 196.406 147.724 196.207 147.724C195.973 147.724 195.79 147.67 195.659 147.561C195.527 147.45 195.447 147.284 195.417 147.061ZM195.417 146.741V145.368C195.063 145.575 194.8 145.798 194.628 146.035C194.514 146.193 194.456 146.352 194.456 146.513C194.456 146.647 194.505 146.766 194.601 146.868C194.674 146.947 194.777 146.987 194.908 146.987C195.055 146.987 195.224 146.905 195.417 146.741Z" fill="white"/>
<path d="M199.367 143.565V144.095C199.577 143.867 199.779 143.702 199.972 143.6C200.165 143.494 200.373 143.442 200.595 143.442C200.861 143.442 201.082 143.516 201.258 143.665C201.433 143.812 201.55 143.995 201.609 144.214C201.656 144.381 201.679 144.701 201.679 145.175V146.772C201.679 147.088 201.707 147.285 201.762 147.364C201.821 147.44 201.941 147.488 202.122 147.509V147.667H200.047V147.509C200.202 147.488 200.313 147.424 200.38 147.316C200.427 147.243 200.451 147.061 200.451 146.772V144.947C200.451 144.61 200.437 144.398 200.411 144.31C200.385 144.223 200.339 144.155 200.275 144.109C200.214 144.059 200.145 144.034 200.069 144.034C199.817 144.034 199.583 144.214 199.367 144.574V146.772C199.367 147.079 199.395 147.273 199.45 147.355C199.509 147.437 199.615 147.488 199.771 147.509V147.667H197.695V147.509C197.868 147.491 197.991 147.436 198.064 147.342C198.114 147.278 198.138 147.088 198.138 146.772V144.455C198.138 144.145 198.109 143.952 198.051 143.876C197.995 143.8 197.877 143.75 197.695 143.727V143.565H199.367Z" fill="white"/>
<path d="M206.085 146.609L206.221 146.715C206.028 147.077 205.787 147.348 205.497 147.526C205.21 147.702 204.905 147.79 204.58 147.79C204.033 147.79 203.596 147.583 203.268 147.171C202.941 146.759 202.777 146.263 202.777 145.684C202.777 145.125 202.926 144.634 203.224 144.21C203.584 143.698 204.08 143.442 204.712 143.442C205.136 143.442 205.472 143.548 205.721 143.762C205.972 143.976 206.098 144.214 206.098 144.477C206.098 144.644 206.047 144.777 205.944 144.876C205.845 144.976 205.713 145.026 205.55 145.026C205.377 145.026 205.234 144.969 205.12 144.854C205.008 144.74 204.94 144.537 204.913 144.245C204.896 144.06 204.853 143.932 204.786 143.859C204.719 143.785 204.64 143.749 204.549 143.749C204.409 143.749 204.289 143.823 204.19 143.973C204.037 144.198 203.961 144.543 203.961 145.008C203.961 145.394 204.023 145.764 204.146 146.118C204.269 146.469 204.437 146.731 204.65 146.903C204.811 147.029 205.001 147.092 205.221 147.092C205.364 147.092 205.5 147.058 205.629 146.991C205.757 146.924 205.909 146.797 206.085 146.609Z" fill="white"/>
<path d="M207.762 141.577C207.952 141.577 208.113 141.644 208.244 141.779C208.376 141.911 208.442 142.07 208.442 142.257C208.442 142.444 208.375 142.604 208.24 142.735C208.108 142.867 207.949 142.933 207.762 142.933C207.575 142.933 207.415 142.867 207.284 142.735C207.152 142.604 207.086 142.444 207.086 142.257C207.086 142.07 207.152 141.911 207.284 141.779C207.415 141.644 207.575 141.577 207.762 141.577ZM208.376 143.565V146.816C208.376 147.105 208.41 147.291 208.477 147.373C208.544 147.452 208.676 147.497 208.872 147.509V147.667H206.656V147.509C206.838 147.503 206.972 147.45 207.06 147.351C207.118 147.284 207.148 147.105 207.148 146.816V144.42C207.148 144.131 207.114 143.946 207.047 143.867C206.979 143.785 206.849 143.739 206.656 143.727V143.565H208.376Z" fill="white"/>
<path d="M211.584 147.061C211.084 147.503 210.635 147.724 210.237 147.724C210.003 147.724 209.809 147.648 209.654 147.496C209.499 147.341 209.421 147.148 209.421 146.916C209.421 146.603 209.556 146.323 209.825 146.074C210.094 145.823 210.68 145.489 211.584 145.074V144.661C211.584 144.351 211.567 144.157 211.532 144.078C211.499 143.996 211.436 143.926 211.343 143.867C211.249 143.806 211.144 143.775 211.027 143.775C210.837 143.775 210.68 143.818 210.558 143.902C210.482 143.955 210.444 144.016 210.444 144.087C210.444 144.148 210.484 144.224 210.566 144.315C210.677 144.441 210.733 144.562 210.733 144.679C210.733 144.822 210.679 144.945 210.571 145.047C210.465 145.147 210.327 145.197 210.154 145.197C209.97 145.197 209.815 145.141 209.689 145.03C209.566 144.919 209.505 144.789 209.505 144.639C209.505 144.429 209.588 144.229 209.755 144.038C209.921 143.845 210.154 143.698 210.452 143.595C210.751 143.493 211.061 143.442 211.382 143.442C211.771 143.442 212.078 143.525 212.304 143.692C212.532 143.856 212.68 144.034 212.747 144.227C212.788 144.35 212.808 144.632 212.808 145.074V146.666C212.808 146.854 212.816 146.972 212.83 147.022C212.845 147.069 212.867 147.104 212.896 147.127C212.925 147.15 212.959 147.162 212.997 147.162C213.073 147.162 213.15 147.108 213.229 147L213.361 147.105C213.215 147.322 213.063 147.479 212.905 147.579C212.75 147.675 212.573 147.724 212.374 147.724C212.14 147.724 211.957 147.67 211.825 147.561C211.694 147.45 211.613 147.284 211.584 147.061ZM211.584 146.741V145.368C211.23 145.575 210.967 145.798 210.794 146.035C210.68 146.193 210.623 146.352 210.623 146.513C210.623 146.647 210.672 146.766 210.768 146.868C210.841 146.947 210.944 146.987 211.075 146.987C211.222 146.987 211.391 146.905 211.584 146.741Z" fill="white"/>
<path d="M215.464 141.718V146.816C215.464 147.105 215.497 147.291 215.564 147.373C215.632 147.452 215.763 147.497 215.959 147.509V147.667H213.744V147.509C213.925 147.503 214.06 147.45 214.147 147.351C214.206 147.284 214.235 147.105 214.235 146.816V142.569C214.235 142.282 214.202 142.099 214.134 142.02C214.067 141.938 213.937 141.892 213.744 141.88V141.718H215.464Z" fill="white"/>
<path d="M222.613 141.582L222.661 143.565H222.481C222.396 143.067 222.187 142.668 221.854 142.367C221.523 142.063 221.165 141.911 220.779 141.911C220.48 141.911 220.243 141.991 220.068 142.152C219.895 142.31 219.809 142.493 219.809 142.7C219.809 142.832 219.84 142.949 219.901 143.051C219.986 143.189 220.122 143.325 220.309 143.459C220.447 143.556 220.764 143.727 221.261 143.973C221.957 144.315 222.427 144.638 222.67 144.942C222.909 145.246 223.029 145.594 223.029 145.986C223.029 146.484 222.835 146.912 222.446 147.272C222.06 147.629 221.568 147.807 220.972 147.807C220.785 147.807 220.608 147.788 220.441 147.75C220.274 147.712 220.065 147.64 219.813 147.535C219.673 147.477 219.558 147.447 219.467 147.447C219.391 147.447 219.31 147.477 219.226 147.535C219.141 147.594 219.072 147.683 219.019 147.803H218.857V145.556H219.019C219.148 146.188 219.395 146.671 219.761 147.004C220.129 147.335 220.526 147.5 220.95 147.5C221.277 147.5 221.538 147.411 221.731 147.232C221.927 147.054 222.025 146.846 222.025 146.609C222.025 146.469 221.987 146.333 221.911 146.201C221.837 146.07 221.725 145.945 221.573 145.828C221.421 145.708 221.152 145.553 220.766 145.363C220.224 145.097 219.835 144.871 219.598 144.683C219.362 144.496 219.179 144.287 219.05 144.056C218.924 143.825 218.861 143.57 218.861 143.293C218.861 142.819 219.035 142.415 219.384 142.082C219.732 141.748 220.17 141.582 220.7 141.582C220.893 141.582 221.08 141.605 221.261 141.652C221.399 141.687 221.565 141.753 221.761 141.849C221.96 141.943 222.099 141.99 222.178 141.99C222.254 141.99 222.314 141.966 222.358 141.919C222.402 141.873 222.443 141.76 222.481 141.582H222.613Z" fill="white"/>
<path d="M227.216 145.469H224.965C224.992 146.013 225.136 146.443 225.4 146.759C225.601 147.001 225.844 147.123 226.128 147.123C226.303 147.123 226.463 147.074 226.606 146.978C226.749 146.878 226.903 146.701 227.067 146.447L227.216 146.544C226.994 146.997 226.748 147.319 226.479 147.509C226.21 147.696 225.898 147.79 225.544 147.79C224.936 147.79 224.475 147.556 224.162 147.088C223.911 146.71 223.785 146.242 223.785 145.684C223.785 144.999 223.969 144.455 224.338 144.052C224.709 143.645 225.144 143.442 225.641 143.442C226.056 143.442 226.416 143.613 226.72 143.955C227.027 144.294 227.192 144.799 227.216 145.469ZM226.137 145.175C226.137 144.704 226.11 144.381 226.058 144.205C226.008 144.03 225.929 143.897 225.821 143.806C225.759 143.753 225.677 143.727 225.575 143.727C225.423 143.727 225.299 143.801 225.202 143.951C225.03 144.211 224.943 144.568 224.943 145.021V145.175H226.137Z" fill="white"/>
<path d="M229.481 143.565V144.495C229.753 144.071 229.991 143.79 230.196 143.652C230.401 143.512 230.598 143.442 230.788 143.442C230.952 143.442 231.082 143.493 231.179 143.595C231.278 143.695 231.328 143.837 231.328 144.021C231.328 144.217 231.28 144.369 231.183 144.477C231.089 144.585 230.975 144.639 230.841 144.639C230.686 144.639 230.551 144.59 230.437 144.49C230.323 144.391 230.256 144.335 230.235 144.324C230.206 144.306 230.172 144.297 230.134 144.297C230.05 144.297 229.969 144.329 229.893 144.394C229.773 144.493 229.683 144.635 229.621 144.819C229.528 145.103 229.481 145.416 229.481 145.758V146.701L229.485 146.947C229.485 147.114 229.495 147.221 229.516 147.267C229.551 147.346 229.602 147.405 229.669 147.443C229.74 147.478 229.857 147.5 230.02 147.509V147.667H227.805V147.509C227.983 147.494 228.103 147.446 228.165 147.364C228.229 147.279 228.261 147.058 228.261 146.701V144.433C228.261 144.199 228.249 144.05 228.226 143.986C228.197 143.904 228.154 143.844 228.099 143.806C228.043 143.768 227.945 143.742 227.805 143.727V143.565H229.481Z" fill="white"/>
<path d="M233.667 147.79L232.285 144.609C232.119 144.226 231.988 143.983 231.895 143.88C231.828 143.804 231.728 143.753 231.596 143.727V143.565H233.777V143.727C233.639 143.727 233.546 143.752 233.496 143.801C233.426 143.866 233.391 143.942 233.391 144.03C233.391 144.138 233.455 144.341 233.584 144.639L234.26 146.179L234.799 144.85C234.954 144.47 235.032 144.201 235.032 144.043C235.032 143.952 234.998 143.879 234.931 143.823C234.866 143.765 234.751 143.733 234.584 143.727V143.565H235.927V143.727C235.798 143.744 235.693 143.793 235.611 143.872C235.529 143.951 235.406 144.183 235.242 144.569L233.873 147.79H233.667Z" fill="white"/>
<path d="M237.34 141.577C237.531 141.577 237.691 141.644 237.823 141.779C237.955 141.911 238.02 142.07 238.02 142.257C238.02 142.444 237.953 142.604 237.819 142.735C237.687 142.867 237.528 142.933 237.34 142.933C237.153 142.933 236.994 142.867 236.862 142.735C236.731 142.604 236.665 142.444 236.665 142.257C236.665 142.07 236.731 141.911 236.862 141.779C236.994 141.644 237.153 141.577 237.34 141.577ZM237.955 143.565V146.816C237.955 147.105 237.988 147.291 238.056 147.373C238.123 147.452 238.254 147.497 238.45 147.509V147.667H236.235V147.509C236.416 147.503 236.551 147.45 236.638 147.351C236.697 147.284 236.726 147.105 236.726 146.816V144.42C236.726 144.131 236.693 143.946 236.625 143.867C236.558 143.785 236.428 143.739 236.235 143.727V143.565H237.955Z" fill="white"/>
<path d="M242.246 146.609L242.382 146.715C242.189 147.077 241.948 147.348 241.659 147.526C241.372 147.702 241.066 147.79 240.742 147.79C240.195 147.79 239.757 147.583 239.43 147.171C239.102 146.759 238.938 146.263 238.938 145.684C238.938 145.125 239.088 144.634 239.386 144.21C239.746 143.698 240.241 143.442 240.873 143.442C241.297 143.442 241.634 143.548 241.882 143.762C242.134 143.976 242.26 144.214 242.26 144.477C242.26 144.644 242.208 144.777 242.106 144.876C242.007 144.976 241.875 145.026 241.711 145.026C241.539 145.026 241.395 144.969 241.281 144.854C241.17 144.74 241.101 144.537 241.075 144.245C241.058 144.06 241.015 143.932 240.948 143.859C240.881 143.785 240.802 143.749 240.711 143.749C240.571 143.749 240.451 143.823 240.351 143.973C240.199 144.198 240.123 144.543 240.123 145.008C240.123 145.394 240.184 145.764 240.307 146.118C240.43 146.469 240.598 146.731 240.812 146.903C240.973 147.029 241.163 147.092 241.382 147.092C241.525 147.092 241.661 147.058 241.79 146.991C241.919 146.924 242.071 146.797 242.246 146.609Z" fill="white"/>
<path d="M246.411 145.469H244.16C244.187 146.013 244.331 146.443 244.595 146.759C244.797 147.001 245.039 147.123 245.323 147.123C245.498 147.123 245.658 147.074 245.801 146.978C245.945 146.878 246.098 146.701 246.262 146.447L246.411 146.544C246.189 146.997 245.943 147.319 245.674 147.509C245.405 147.696 245.093 147.79 244.739 147.79C244.131 147.79 243.67 147.556 243.357 147.088C243.106 146.71 242.98 146.242 242.98 145.684C242.98 144.999 243.164 144.455 243.533 144.052C243.904 143.645 244.339 143.442 244.836 143.442C245.251 143.442 245.611 143.613 245.915 143.955C246.222 144.294 246.388 144.799 246.411 145.469ZM245.332 145.175C245.332 144.704 245.305 144.381 245.253 144.205C245.203 144.03 245.124 143.897 245.016 143.806C244.954 143.753 244.873 143.727 244.77 143.727C244.618 143.727 244.494 143.801 244.397 143.951C244.225 144.211 244.138 144.568 244.138 145.021V145.175H245.332Z" fill="white"/>
<path d="M249.567 143.451L249.632 144.85H249.483C249.305 144.435 249.119 144.151 248.926 143.999C248.736 143.847 248.546 143.771 248.356 143.771C248.236 143.771 248.133 143.812 248.049 143.894C247.964 143.973 247.921 144.065 247.921 144.17C247.921 144.249 247.951 144.325 248.009 144.398C248.103 144.518 248.364 144.724 248.794 145.017C249.224 145.306 249.507 145.553 249.641 145.758C249.779 145.96 249.847 146.187 249.847 146.438C249.847 146.666 249.79 146.89 249.676 147.109C249.562 147.329 249.401 147.497 249.194 147.614C248.986 147.731 248.756 147.79 248.505 147.79C248.309 147.79 248.047 147.728 247.719 147.605C247.632 147.573 247.572 147.557 247.54 147.557C247.443 147.557 247.363 147.63 247.298 147.776H247.154L247.083 146.302H247.232C247.364 146.688 247.544 146.978 247.772 147.171C248.003 147.364 248.221 147.46 248.426 147.46C248.566 147.46 248.68 147.418 248.768 147.333C248.859 147.245 248.904 147.14 248.904 147.017C248.904 146.877 248.86 146.756 248.772 146.653C248.685 146.551 248.489 146.396 248.185 146.188C247.737 145.878 247.447 145.641 247.316 145.477C247.123 145.238 247.026 144.973 247.026 144.683C247.026 144.367 247.135 144.082 247.351 143.828C247.57 143.57 247.886 143.442 248.299 143.442C248.521 143.442 248.736 143.496 248.944 143.604C249.022 143.648 249.087 143.67 249.137 143.67C249.189 143.67 249.232 143.66 249.264 143.639C249.296 143.616 249.347 143.553 249.417 143.451H249.567Z" fill="white"/>
<path d="M258.505 141.582V143.644H258.334C258.206 143.105 257.966 142.693 257.615 142.406C257.264 142.12 256.866 141.976 256.422 141.976C256.05 141.976 255.709 142.083 255.399 142.297C255.089 142.51 254.863 142.789 254.719 143.135C254.535 143.576 254.443 144.068 254.443 144.609C254.443 145.141 254.51 145.627 254.645 146.065C254.779 146.501 254.99 146.832 255.276 147.057C255.563 147.279 255.935 147.39 256.391 147.39C256.765 147.39 257.107 147.308 257.417 147.145C257.73 146.981 258.059 146.699 258.405 146.298V146.811C258.071 147.159 257.723 147.412 257.36 147.57C257.001 147.725 256.579 147.803 256.097 147.803C255.462 147.803 254.898 147.675 254.403 147.421C253.912 147.167 253.532 146.801 253.263 146.324C252.997 145.847 252.863 145.34 252.863 144.802C252.863 144.234 253.011 143.696 253.307 143.187C253.605 142.678 254.006 142.283 254.509 142.003C255.015 141.722 255.551 141.582 256.119 141.582C256.537 141.582 256.979 141.672 257.444 141.854C257.713 141.959 257.884 142.011 257.957 142.011C258.051 142.011 258.131 141.978 258.198 141.911C258.269 141.84 258.314 141.731 258.334 141.582H258.505Z" fill="white"/>
<path d="M261.284 143.442C261.641 143.442 261.972 143.534 262.28 143.718C262.587 143.902 262.819 144.164 262.977 144.503C263.138 144.843 263.218 145.214 263.218 145.618C263.218 146.2 263.071 146.687 262.775 147.079C262.419 147.553 261.926 147.79 261.297 147.79C260.68 147.79 260.204 147.573 259.871 147.14C259.538 146.707 259.371 146.206 259.371 145.635C259.371 145.047 259.54 144.536 259.88 144.1C260.222 143.661 260.69 143.442 261.284 143.442ZM261.301 143.753C261.152 143.753 261.023 143.81 260.915 143.924C260.81 144.035 260.74 144.258 260.705 144.591C260.672 144.922 260.656 145.382 260.656 145.973C260.656 146.286 260.677 146.579 260.718 146.851C260.75 147.058 260.819 147.216 260.924 147.324C261.029 147.433 261.149 147.487 261.284 147.487C261.415 147.487 261.525 147.45 261.613 147.377C261.727 147.278 261.803 147.139 261.841 146.96C261.899 146.682 261.929 146.121 261.929 145.276C261.929 144.778 261.901 144.438 261.845 144.253C261.79 144.066 261.708 143.93 261.6 143.845C261.524 143.784 261.424 143.753 261.301 143.753Z" fill="white"/>
<path d="M265.589 143.565V144.104C265.814 143.859 266.022 143.687 266.212 143.591C266.405 143.491 266.615 143.442 266.843 143.442C267.107 143.442 267.327 143.503 267.506 143.626C267.684 143.749 267.822 143.936 267.918 144.188C268.152 143.924 268.376 143.734 268.59 143.617C268.806 143.5 269.031 143.442 269.265 143.442C269.549 143.442 269.774 143.508 269.941 143.639C270.11 143.768 270.227 143.933 270.292 144.135C270.359 144.334 270.393 144.653 270.393 145.091V146.772C270.393 147.088 270.421 147.284 270.476 147.36C270.535 147.436 270.654 147.485 270.836 147.509V147.667H268.717V147.509C268.883 147.494 269.006 147.43 269.085 147.316C269.138 147.237 269.164 147.055 269.164 146.772V145.008C269.164 144.642 269.15 144.41 269.12 144.31C269.091 144.211 269.044 144.138 268.98 144.091C268.919 144.041 268.845 144.016 268.761 144.016C268.635 144.016 268.508 144.063 268.379 144.157C268.25 144.248 268.12 144.385 267.988 144.569V146.772C267.988 147.067 268.013 147.253 268.063 147.329C268.13 147.437 268.259 147.497 268.449 147.509V147.667H266.326V147.509C266.44 147.503 266.529 147.475 266.593 147.425C266.661 147.373 266.704 147.311 266.725 147.241C266.748 147.168 266.76 147.012 266.76 146.772V145.008C266.76 144.637 266.745 144.404 266.716 144.31C266.687 144.217 266.637 144.144 266.567 144.091C266.5 144.038 266.427 144.012 266.348 144.012C266.231 144.012 266.124 144.043 266.027 144.104C265.89 144.195 265.744 144.35 265.589 144.569V146.772C265.589 147.061 265.616 147.253 265.672 147.346C265.731 147.437 265.85 147.491 266.032 147.509V147.667H263.917V147.509C264.09 147.491 264.213 147.436 264.286 147.342C264.335 147.278 264.36 147.088 264.36 146.772V144.455C264.36 144.145 264.331 143.952 264.272 143.876C264.217 143.8 264.098 143.75 263.917 143.727V143.565H265.589Z" fill="white"/>
<path d="M273.118 143.565V144.104C273.343 143.859 273.551 143.687 273.741 143.591C273.934 143.491 274.145 143.442 274.373 143.442C274.636 143.442 274.857 143.503 275.035 143.626C275.214 143.749 275.351 143.936 275.448 144.188C275.682 143.924 275.906 143.734 276.119 143.617C276.336 143.5 276.561 143.442 276.795 143.442C277.078 143.442 277.304 143.508 277.47 143.639C277.64 143.768 277.757 143.933 277.821 144.135C277.889 144.334 277.922 144.653 277.922 145.091V146.772C277.922 147.088 277.95 147.284 278.006 147.36C278.064 147.436 278.184 147.485 278.365 147.509V147.667H276.246V147.509C276.413 147.494 276.536 147.43 276.615 147.316C276.668 147.237 276.694 147.055 276.694 146.772V145.008C276.694 144.642 276.679 144.41 276.65 144.31C276.621 144.211 276.574 144.138 276.51 144.091C276.448 144.041 276.375 144.016 276.29 144.016C276.164 144.016 276.037 144.063 275.909 144.157C275.78 144.248 275.65 144.385 275.518 144.569V146.772C275.518 147.067 275.543 147.253 275.593 147.329C275.66 147.437 275.789 147.497 275.979 147.509V147.667H273.855V147.509C273.969 147.503 274.059 147.475 274.123 147.425C274.19 147.373 274.234 147.311 274.255 147.241C274.278 147.168 274.29 147.012 274.29 146.772V145.008C274.29 144.637 274.275 144.404 274.246 144.31C274.217 144.217 274.167 144.144 274.097 144.091C274.029 144.038 273.956 144.012 273.877 144.012C273.76 144.012 273.654 144.043 273.557 144.104C273.42 144.195 273.273 144.35 273.118 144.569V146.772C273.118 147.061 273.146 147.253 273.202 147.346C273.26 147.437 273.38 147.491 273.561 147.509V147.667H271.447V147.509C271.619 147.491 271.742 147.436 271.815 147.342C271.865 147.278 271.89 147.088 271.89 146.772V144.455C271.89 144.145 271.861 143.952 271.802 143.876C271.747 143.8 271.628 143.75 271.447 143.727V143.565H273.118Z" fill="white"/>
<path d="M279.933 141.577C280.123 141.577 280.284 141.644 280.415 141.779C280.547 141.911 280.613 142.07 280.613 142.257C280.613 142.444 280.545 142.604 280.411 142.735C280.279 142.867 280.12 142.933 279.933 142.933C279.746 142.933 279.586 142.867 279.455 142.735C279.323 142.604 279.257 142.444 279.257 142.257C279.257 142.07 279.323 141.911 279.455 141.779C279.586 141.644 279.746 141.577 279.933 141.577ZM280.547 143.565V146.816C280.547 147.105 280.581 147.291 280.648 147.373C280.715 147.452 280.847 147.497 281.043 147.509V147.667H278.827V147.509C279.008 147.503 279.143 147.45 279.231 147.351C279.289 147.284 279.319 147.105 279.319 146.816V144.42C279.319 144.131 279.285 143.946 279.218 143.867C279.15 143.785 279.02 143.739 278.827 143.727V143.565H280.547Z" fill="white"/>
<path d="M284.084 143.451L284.15 144.85H284.001C283.822 144.435 283.637 144.151 283.444 143.999C283.253 143.847 283.063 143.771 282.873 143.771C282.753 143.771 282.651 143.812 282.566 143.894C282.481 143.973 282.439 144.065 282.439 144.17C282.439 144.249 282.468 144.325 282.527 144.398C282.62 144.518 282.882 144.724 283.312 145.017C283.742 145.306 284.024 145.553 284.159 145.758C284.296 145.96 284.365 146.187 284.365 146.438C284.365 146.666 284.308 146.89 284.194 147.109C284.08 147.329 283.919 147.497 283.711 147.614C283.504 147.731 283.274 147.79 283.022 147.79C282.826 147.79 282.565 147.728 282.237 147.605C282.149 147.573 282.089 147.557 282.057 147.557C281.961 147.557 281.88 147.63 281.816 147.776H281.671L281.601 146.302H281.75C281.882 146.688 282.062 146.978 282.29 147.171C282.521 147.364 282.739 147.46 282.943 147.46C283.084 147.46 283.198 147.418 283.286 147.333C283.376 147.245 283.422 147.14 283.422 147.017C283.422 146.877 283.378 146.756 283.29 146.653C283.202 146.551 283.006 146.396 282.702 146.188C282.255 145.878 281.965 145.641 281.833 145.477C281.64 145.238 281.544 144.973 281.544 144.683C281.544 144.367 281.652 144.082 281.869 143.828C282.088 143.57 282.404 143.442 282.816 143.442C283.039 143.442 283.253 143.496 283.461 143.604C283.54 143.648 283.604 143.67 283.654 143.67C283.707 143.67 283.749 143.66 283.781 143.639C283.814 143.616 283.865 143.553 283.935 143.451H284.084Z" fill="white"/>
<path d="M287.63 143.451L287.696 144.85H287.547C287.368 144.435 287.183 144.151 286.99 143.999C286.799 143.847 286.609 143.771 286.419 143.771C286.299 143.771 286.197 143.812 286.112 143.894C286.027 143.973 285.985 144.065 285.985 144.17C285.985 144.249 286.014 144.325 286.073 144.398C286.166 144.518 286.428 144.724 286.858 145.017C287.288 145.306 287.57 145.553 287.705 145.758C287.842 145.96 287.911 146.187 287.911 146.438C287.911 146.666 287.854 146.89 287.74 147.109C287.626 147.329 287.465 147.497 287.257 147.614C287.05 147.731 286.82 147.79 286.568 147.79C286.372 147.79 286.111 147.728 285.783 147.605C285.695 147.573 285.635 147.557 285.603 147.557C285.507 147.557 285.426 147.63 285.362 147.776H285.217L285.147 146.302H285.296C285.428 146.688 285.608 146.978 285.836 147.171C286.067 147.364 286.285 147.46 286.489 147.46C286.63 147.46 286.744 147.418 286.832 147.333C286.922 147.245 286.968 147.14 286.968 147.017C286.968 146.877 286.924 146.756 286.836 146.653C286.748 146.551 286.552 146.396 286.248 146.188C285.801 145.878 285.511 145.641 285.379 145.477C285.186 145.238 285.09 144.973 285.09 144.683C285.09 144.367 285.198 144.082 285.415 143.828C285.634 143.57 285.95 143.442 286.362 143.442C286.584 143.442 286.799 143.496 287.007 143.604C287.086 143.648 287.15 143.67 287.2 143.67C287.253 143.67 287.295 143.66 287.327 143.639C287.36 143.616 287.411 143.553 287.481 143.451H287.63Z" fill="white"/>
<path d="M289.57 141.577C289.76 141.577 289.921 141.644 290.053 141.779C290.185 141.911 290.25 142.07 290.25 142.257C290.25 142.444 290.183 142.604 290.049 142.735C289.917 142.867 289.758 142.933 289.57 142.933C289.383 142.933 289.224 142.867 289.092 142.735C288.96 142.604 288.895 142.444 288.895 142.257C288.895 142.07 288.96 141.911 289.092 141.779C289.224 141.644 289.383 141.577 289.57 141.577ZM290.185 143.565V146.816C290.185 147.105 290.218 147.291 290.285 147.373C290.353 147.452 290.484 147.497 290.68 147.509V147.667H288.465V147.509C288.646 147.503 288.781 147.45 288.868 147.351C288.927 147.284 288.956 147.105 288.956 146.816V144.42C288.956 144.131 288.922 143.946 288.855 143.867C288.788 143.785 288.658 143.739 288.465 143.727V143.565H290.185Z" fill="white"/>
<path d="M293.064 143.442C293.42 143.442 293.752 143.534 294.06 143.718C294.367 143.902 294.599 144.164 294.757 144.503C294.918 144.843 294.998 145.214 294.998 145.618C294.998 146.2 294.851 146.687 294.555 147.079C294.198 147.553 293.706 147.79 293.077 147.79C292.46 147.79 291.984 147.573 291.651 147.14C291.318 146.707 291.151 146.206 291.151 145.635C291.151 145.047 291.32 144.536 291.66 144.1C292.002 143.661 292.47 143.442 293.064 143.442ZM293.081 143.753C292.932 143.753 292.803 143.81 292.695 143.924C292.59 144.035 292.52 144.258 292.485 144.591C292.452 144.922 292.436 145.382 292.436 145.973C292.436 146.286 292.457 146.579 292.498 146.851C292.53 147.058 292.599 147.216 292.704 147.324C292.809 147.433 292.929 147.487 293.064 147.487C293.195 147.487 293.305 147.45 293.393 147.377C293.507 147.278 293.583 147.139 293.621 146.96C293.679 146.682 293.709 146.121 293.709 145.276C293.709 144.778 293.681 144.438 293.625 144.253C293.57 144.066 293.488 143.93 293.38 143.845C293.303 143.784 293.204 143.753 293.081 143.753Z" fill="white"/>
<path d="M297.342 143.565V144.095C297.553 143.867 297.755 143.702 297.948 143.6C298.141 143.494 298.348 143.442 298.571 143.442C298.837 143.442 299.058 143.516 299.233 143.665C299.409 143.812 299.526 143.995 299.584 144.214C299.631 144.381 299.654 144.701 299.654 145.175V146.772C299.654 147.088 299.682 147.285 299.738 147.364C299.796 147.44 299.916 147.488 300.098 147.509V147.667H298.022V147.509C298.177 147.488 298.288 147.424 298.356 147.316C298.403 147.243 298.426 147.061 298.426 146.772V144.947C298.426 144.61 298.413 144.398 298.386 144.31C298.36 144.223 298.315 144.155 298.25 144.109C298.189 144.059 298.12 144.034 298.044 144.034C297.793 144.034 297.559 144.214 297.342 144.574V146.772C297.342 147.079 297.37 147.273 297.426 147.355C297.484 147.437 297.591 147.488 297.746 147.509V147.667H295.671V147.509C295.843 147.491 295.966 147.436 296.039 147.342C296.089 147.278 296.114 147.088 296.114 146.772V144.455C296.114 144.145 296.085 143.952 296.026 143.876C295.971 143.8 295.852 143.75 295.671 143.727V143.565H297.342Z" fill="white"/>
<path fill-rule="evenodd" clip-rule="evenodd" d="M123.777 87.6785C123.777 85.4893 125.552 83.7145 127.741 83.7145H201.172C203.381 83.7145 205.172 85.5054 205.172 87.7145V88.1015C205.172 89.2743 208.104 90.0047 208.9 89.1434C209.961 87.9962 211.163 87.0048 212.44 86.1645C216.69 83.3688 221.9 82.1289 226.049 82.1289C230.497 82.1289 234.542 83.3679 237.362 84.6175C238.081 84.9359 238.928 84.8041 239.484 84.2482C239.826 83.9065 240.289 83.7145 240.772 83.7145H243.455C245.664 83.7145 247.455 85.5054 247.455 87.7145V101.913C247.455 104.122 245.664 105.913 243.455 105.913H241.641C240.474 105.913 239.445 105.148 239.11 104.03C238.34 101.465 237.125 98.1306 235.133 95.4745C233.192 92.8865 230.663 91.114 227.106 91.114C225.088 91.114 223.541 91.6977 222.55 92.5201C221.601 93.3077 221.028 94.4129 221.028 95.8709C221.028 97.5392 221.89 98.7908 224.214 100.087C226.174 101.179 228.652 102.013 231.522 102.978C232.251 103.223 233.006 103.477 233.783 103.746C237.416 105.001 241.464 106.563 244.594 109.143C247.87 111.843 250.098 115.623 250.098 120.976C250.098 127.53 246.842 132.328 242.331 135.386C237.906 138.386 232.273 139.739 227.106 139.739C221.739 139.739 217.248 138.597 214.157 137.381C213.155 136.987 212 137.177 211.239 137.938C210.763 138.415 210.116 138.682 209.442 138.682H207.586C205.377 138.682 203.586 136.891 203.586 134.682V119.427C203.586 117.218 205.377 115.427 207.586 115.427H208.872C209.983 115.427 210.975 116.122 211.355 117.166C212.343 119.882 214.115 123.517 216.695 126.423C219.258 129.31 222.426 131.283 226.313 131.283C228.507 131.283 230.428 130.675 231.731 129.697C232.967 128.77 233.713 127.482 233.713 125.733C233.713 123.896 232.805 122.624 230.532 121.363C228.601 120.293 226.17 119.5 223.337 118.577C222.579 118.33 221.792 118.073 220.978 117.799C217.338 116.575 213.268 115.026 210.122 112.366C208.068 110.629 206.446 108.454 205.516 105.715C204.859 103.781 203.207 102.213 201.164 102.213H199.887C198.686 102.213 197.636 101.404 197.331 100.243C197.317 100.191 197.244 100.201 197.244 100.255V120.862C197.244 122.531 195.891 123.883 194.223 123.883H191.958C190.499 123.883 189.316 122.7 189.316 121.241C189.316 120.471 189.099 118.687 188.305 117.199C187.588 115.854 186.524 114.898 184.559 114.898H184.331C182.122 114.898 180.331 116.689 180.331 118.898V129.169C180.331 129.232 180.333 129.283 180.443 129.406C180.593 129.574 180.905 129.811 181.45 130.049C182.559 130.531 184.032 130.754 185.087 130.754C186.547 130.754 187.73 131.937 187.73 133.397V134.718C187.73 136.908 185.955 138.682 183.766 138.682H127.741C125.552 138.682 123.777 136.908 123.777 134.718V133.397C123.777 131.937 124.96 130.754 126.42 130.754C127.475 130.754 128.948 130.531 130.057 130.049C130.603 129.811 130.914 129.574 131.065 129.406C131.175 129.283 131.177 129.232 131.177 129.169V93.2282C131.177 93.1645 131.175 93.1141 131.065 92.9909C130.914 92.8229 130.603 92.5856 130.057 92.3484C128.948 91.8662 127.475 91.6426 126.42 91.6426C124.96 91.6426 123.777 90.4594 123.777 88.9999V87.6785ZM158.132 130.754C159.187 130.754 160.66 130.531 161.769 130.049C162.315 129.811 162.627 129.574 162.777 129.406C162.887 129.283 162.889 129.232 162.889 129.169V93.2282C162.889 93.1645 162.887 93.1141 162.777 92.9909C162.627 92.8229 162.315 92.5856 161.769 92.3484C160.66 91.8662 159.187 91.6426 158.132 91.6426H153.375C152.32 91.6426 150.847 91.8662 149.738 92.3484C149.193 92.5856 148.881 92.8229 148.731 92.9909C148.62 93.1141 148.618 93.1645 148.618 93.2282V129.169C148.618 129.232 148.62 129.283 148.731 129.406C148.881 129.574 149.193 129.811 149.738 130.049C150.847 130.531 152.32 130.754 153.375 130.754H158.132ZM184.331 92.1711C182.122 92.1711 180.331 93.962 180.331 96.1711V102.442C180.331 104.651 182.122 106.442 184.331 106.442H184.559C186.524 106.442 187.588 105.486 188.305 104.141C189.099 102.653 189.316 100.869 189.316 100.099C189.316 98.6396 190.499 97.4565 191.958 97.4565H193.284C194.655 97.4565 195.537 96.0106 194.685 94.9371C193.304 93.1972 191.698 92.1711 189.844 92.1711H184.331ZM294.759 105.913C293.592 105.913 292.563 105.148 292.228 104.03C291.474 101.517 290.132 98.0307 287.998 95.2242C285.891 92.4535 283.218 90.5855 279.696 90.5855C277.397 90.5855 274.88 91.6116 272.851 94.4143C270.776 97.2815 269.125 102.153 269.125 109.877C269.125 117.748 270.434 122.688 272.529 125.616C274.485 128.349 277.402 129.697 281.81 129.697C285.255 129.697 288.108 128.272 290.379 126.356C292.671 124.422 294.257 122.073 295.062 120.541C295.78 119.172 297.516 118.71 298.82 119.54L301.727 121.39C302.903 122.138 303.296 123.671 302.624 124.893C301.13 127.61 298.879 131.356 295.093 134.4C291.247 137.492 285.97 139.739 278.639 139.739C273.185 139.739 266.112 138.175 260.334 133.823C254.437 129.382 250.098 122.185 250.098 111.463C250.098 99.9666 255.262 92.5151 261.623 88.0294C267.85 83.6382 275.141 82.1289 279.696 82.1289C284.112 82.1289 287.88 83.3482 290.524 84.5773C291.228 84.9047 292.068 84.7824 292.617 84.2332C292.949 83.9011 293.4 83.7145 293.869 83.7145H296.573C298.782 83.7145 300.573 85.5054 300.573 87.7145V101.913C300.573 104.122 298.782 105.913 296.573 105.913H294.759Z" fill="#393FCC"/>
<path d="M126.42 88.9998V86.3571H153.376V88.9998C150.733 88.9998 145.976 90.0569 145.976 93.2281V129.169C145.976 132.34 150.733 133.397 153.376 133.397V136.04H126.42V133.397C129.063 133.397 133.82 132.34 133.82 129.169V93.2281C133.82 90.0569 129.063 88.9998 126.42 88.9998Z" fill="white"/>
<path d="M158.132 133.397V136.04H185.088V133.397C182.445 133.397 177.688 132.34 177.688 129.169V112.255H184.559C190.902 112.255 191.959 119.126 191.959 121.241H194.601V100.099H191.959C191.959 102.213 190.902 109.084 184.559 109.084H177.688V89.5283H189.845C195.764 89.5283 199.006 96.2231 199.887 99.5705H202.529V86.3571H158.132V88.9998C160.775 88.9998 165.532 90.0569 165.532 93.2281V129.169C165.532 132.34 160.775 133.397 158.132 133.397Z" fill="white"/>
<path d="M206.229 136.04V118.069H208.872C210.986 123.883 216.536 133.925 226.314 133.925C231.599 133.925 236.356 131.018 236.356 125.733C236.356 113.048 207.286 119.126 207.286 100.099C207.286 89.264 218.65 84.7715 226.049 84.7715C231.969 84.7715 237.149 87.238 238.998 88.4712L241.113 86.3571H244.812V103.27H241.641C240.056 97.9849 236.356 88.4712 227.106 88.4712C222.085 88.4712 218.386 91.3782 218.386 95.8708C218.386 108.027 247.455 103.006 247.455 120.976C247.455 132.076 236.62 137.097 227.106 137.097C219.495 137.097 213.893 134.63 212.043 133.397L209.4 136.04H206.229Z" fill="white"/>
<path d="M294.759 103.27C293.174 97.9849 288.945 87.9427 279.696 87.9427C273.353 87.9427 266.482 93.7566 266.482 109.877C266.482 125.997 271.768 132.34 281.81 132.34C290.267 132.34 295.552 125.293 297.402 121.769L300.309 123.619C297.402 128.904 292.116 137.097 278.639 137.097C268.597 137.097 252.74 131.283 252.74 111.463C252.74 90.3211 271.503 84.7715 279.696 84.7715C285.615 84.7715 290.267 87.238 292.116 88.4712L294.231 86.3571H297.93V103.27H294.759Z" fill="white"/>
</g>
<defs>
<radialGradient id="paint0_radial" cx="0" cy="0" r="1" gradientUnits="userSpaceOnUse" gradientTransform="translate(25.0416 123.997) rotate(-64.6833) scale(93.7573)">
<stop stop-color="#83BE7A"/>
<stop offset="0.524819" stop-color="#418648"/>
<stop offset="1" stop-color="#37513C"/>
</radialGradient>
<linearGradient id="paint1_linear" x1="-45.8936" y1="151.064" x2="117.831" y2="66.5208" gradientUnits="userSpaceOnUse">
<stop stop-color="#B1D9A6"/>
<stop offset="0.505787" stop-color="#D6EBD2"/>
<stop offset="1" stop-color="#B1D9A6"/>
</linearGradient>
<radialGradient id="paint2_radial" cx="0" cy="0" r="1" gradientUnits="userSpaceOnUse" gradientTransform="translate(99.2003 113.84) rotate(-64.6833) scale(48.8218)">
<stop stop-color="white"/>
<stop offset="0.524819" stop-color="#F4F4F4"/>
<stop offset="1" stop-color="#EEEEEE"/>
</radialGradient>
<clipPath id="clip0">
<rect width="360" height="204" rx="12" fill="white"/>
</clipPath>
</defs>
</svg>
