<svg width="50" height="50" viewBox="0 0 50 50" fill="none" xmlns="http://www.w3.org/2000/svg">
<rect width="50" height="50" rx="12" fill="#393FCC"/>
<path fill-rule="evenodd" clip-rule="evenodd" d="M22.8333 13.0833C22.235 13.0833 21.75 13.5683 21.75 14.1666C21.75 14.765 22.235 15.25 22.8333 15.25H23.9167V17.4762C19.0417 18.015 15.25 22.148 15.25 27.1666C15.25 32.5514 19.6152 36.9166 25 36.9166C30.3848 36.9166 34.75 32.5514 34.75 27.1666C34.75 24.7263 33.8535 22.4954 32.3718 20.7853L33.3494 19.8077C33.7724 19.3846 33.7724 18.6987 33.3494 18.2756C32.9263 17.8525 32.2404 17.8525 31.8173 18.2756L30.7795 19.3134C29.4359 18.323 27.8291 17.6691 26.0833 17.4762V15.25H27.1667C27.765 15.25 28.25 14.765 28.25 14.1666C28.25 13.5683 27.765 13.0833 27.1667 13.0833H22.8333ZM17.4167 27.1666C17.4167 22.9785 20.8118 19.5833 25 19.5833C29.1882 19.5833 32.5833 22.9785 32.5833 27.1666C32.5833 31.3548 29.1882 34.75 25 34.75C20.8118 34.75 17.4167 31.3548 17.4167 27.1666Z" fill="white"/>
<path fill-rule="evenodd" clip-rule="evenodd" d="M25 19.5833C20.8118 19.5833 17.4167 22.9785 17.4167 27.1666C17.4167 31.3548 20.8118 34.75 25 34.75C29.1882 34.75 32.5833 31.3548 32.5833 27.1666C32.5833 22.9785 29.1882 19.5833 25 19.5833ZM25 22.8333C25.5983 22.8333 26.0833 23.3183 26.0833 23.9166V27.1666C26.0833 27.765 25.5983 28.25 25 28.25H21.75C21.1517 28.25 20.6667 27.765 20.6667 27.1666C20.6667 26.5683 21.1517 26.0833 21.75 26.0833H23.9167V23.9166C23.9167 23.3183 24.4017 22.8333 25 22.8333Z" fill="white"/>
</svg>
