<svg width="361" height="204" viewBox="0 0 361 204" fill="none" xmlns="http://www.w3.org/2000/svg">
<g clip-path="url(#clip0)">
<rect width="361" height="204" rx="12" fill="#393FCC"/>
<path opacity="0.05" fill-rule="evenodd" clip-rule="evenodd" d="M-56.8856 106.504L29.5161 20.106L115.91 106.504L29.5161 192.894L-56.8856 106.504ZM29.5161 13L-64 106.504L29.492 200L123 106.488L29.5161 13ZM6.83041 51.9788L29.5161 29.2941L106.745 106.52L84.0598 129.205L6.83041 51.9788ZM29.5161 83.8274L6.83845 106.512L56.7839 156.455L79.4696 133.771L29.5161 83.8274ZM6.83041 161.045L29.5161 138.361L52.1937 161.045L29.5161 183.722L6.83041 161.045ZM24.9339 79.2374L-2.34997 106.52L24.9098 133.779L2.22414 156.455L-47.7213 106.52L2.24826 56.5527L24.9339 79.2374Z" fill="white"/>
<path fill-rule="evenodd" clip-rule="evenodd" d="M53.5858 102.13L97.1339 58.5817L140.678 102.13L97.1339 145.674L53.5858 102.13ZM97.1339 55L50 102.13L97.1218 149.256L144.252 102.122L97.1339 55ZM85.6999 74.6469L97.1339 63.2129L136.059 102.138L124.625 113.572L85.6999 74.6469ZM97.1339 90.6999L85.704 102.134L110.877 127.307L122.311 115.873L97.1339 90.6999ZM85.6999 129.621L97.1339 118.187L108.564 129.621L97.1339 141.051L85.6999 129.621ZM94.8244 88.3864L81.0728 102.138L94.8123 115.877L83.3783 127.307L58.2048 102.138L83.3904 76.9523L94.8244 88.3864Z" fill="white"/>
<path fill-rule="evenodd" clip-rule="evenodd" d="M196.973 65.3999C199.282 63.3921 202.409 62.4346 205.903 62.4346C211.503 62.4346 215.622 64.9453 217.287 66.6096L212.153 71.7437C211.742 71.3335 209.431 69.6953 205.903 69.6953C203.692 69.6953 202.411 70.2936 201.738 70.8789C201.107 71.4276 200.717 72.2095 200.717 73.3257C200.717 74.0758 200.966 74.6079 201.896 75.2842C203.017 76.0995 204.659 76.7543 206.884 77.5636C207.041 77.6206 207.202 77.6788 207.367 77.7382C209.269 78.4258 211.628 79.2784 213.498 80.4873C215.7 81.9107 217.831 84.2271 217.831 87.8471C217.831 93.1144 213.582 96.8883 209.056 98.2047C204.277 99.5951 198.409 98.6459 193.572 94.1315L198.526 88.8235C201.469 91.5698 204.677 91.9171 207.028 91.233C209.634 90.475 210.571 88.8033 210.571 87.8471C210.571 87.5774 210.563 87.2359 209.556 86.5848C208.409 85.8435 206.795 85.2567 204.582 84.4521L204.403 84.3871C202.35 83.6405 199.713 82.6746 197.625 81.1562C195.346 79.4986 193.456 76.9838 193.456 73.3257C193.456 70.2928 194.622 67.4444 196.973 65.3999ZM171.155 63.4718L156.634 97.7009H164.932L167.773 90.4402H180.761L183.602 97.7009H192.938L177.379 63.4718H171.155ZM178.326 84.2167L174.267 73.8443L170.208 84.2167H178.326ZM221.98 63.4718H230.278V97.7009H221.98V63.4718ZM252.061 92.5147C254.905 92.5147 257.66 91.1795 259.615 88.9203L264.673 94.1526C261.472 97.6219 257.004 99.7754 252.061 99.7754C242.322 99.7754 234.427 91.4164 234.427 81.105C234.427 70.7936 242.322 62.4346 252.061 62.4346C257.111 62.4346 261.666 64.6827 264.88 68.2854L259.735 73.4304C257.774 71.086 254.963 69.6953 252.061 69.6953C246.717 69.6953 241.688 74.407 241.688 81.105C241.688 87.803 246.717 92.5147 252.061 92.5147Z" fill="white"/>
<path d="M156.613 116.372L160.32 106.719H161.696L165.647 116.372H164.192L163.066 113.448H159.03L157.97 116.372H156.613ZM159.398 112.408H162.671L161.663 109.735C161.356 108.923 161.128 108.256 160.979 107.733C160.856 108.352 160.682 108.967 160.459 109.577L159.398 112.408Z" fill="white"/>
<path d="M171.233 116.372V115.344C170.689 116.135 169.949 116.53 169.014 116.53C168.602 116.53 168.216 116.451 167.856 116.293C167.5 116.135 167.234 115.937 167.059 115.7C166.888 115.459 166.767 115.164 166.697 114.818C166.649 114.585 166.624 114.216 166.624 113.712V109.379H167.81V113.257C167.81 113.876 167.834 114.293 167.882 114.508C167.957 114.82 168.115 115.066 168.356 115.246C168.597 115.421 168.896 115.509 169.251 115.509C169.607 115.509 169.941 115.419 170.252 115.239C170.564 115.055 170.783 114.807 170.911 114.495C171.042 114.179 171.108 113.723 171.108 113.126V109.379H172.293V116.372H171.233Z" fill="white"/>
<path d="M173.817 114.284L174.989 114.1C175.055 114.57 175.237 114.93 175.536 115.18C175.839 115.43 176.26 115.555 176.8 115.555C177.344 115.555 177.748 115.445 178.011 115.226C178.275 115.002 178.406 114.741 178.406 114.442C178.406 114.175 178.29 113.964 178.057 113.81C177.895 113.705 177.491 113.571 176.846 113.409C175.977 113.189 175.373 113.001 175.035 112.842C174.702 112.68 174.447 112.458 174.272 112.177C174.1 111.892 174.015 111.578 174.015 111.236C174.015 110.924 174.085 110.637 174.226 110.373C174.37 110.106 174.566 109.884 174.812 109.708C174.996 109.572 175.246 109.458 175.562 109.366C175.883 109.27 176.225 109.221 176.589 109.221C177.138 109.221 177.619 109.3 178.031 109.458C178.448 109.616 178.755 109.831 178.953 110.104C179.15 110.371 179.287 110.731 179.361 111.183L178.202 111.341C178.15 110.981 177.996 110.7 177.741 110.499C177.491 110.297 177.136 110.196 176.675 110.196C176.131 110.196 175.742 110.286 175.509 110.466C175.277 110.646 175.161 110.856 175.161 111.098C175.161 111.251 175.209 111.39 175.305 111.513C175.402 111.64 175.553 111.745 175.76 111.829C175.878 111.872 176.227 111.973 176.807 112.131C177.645 112.355 178.229 112.54 178.558 112.684C178.891 112.825 179.153 113.031 179.341 113.303C179.53 113.576 179.625 113.913 179.625 114.317C179.625 114.712 179.508 115.085 179.276 115.437C179.047 115.783 178.716 116.053 178.281 116.246C177.847 116.435 177.355 116.53 176.807 116.53C175.898 116.53 175.204 116.341 174.726 115.963C174.252 115.586 173.949 115.026 173.817 114.284Z" fill="white"/>
<path d="M183.756 115.312L183.927 116.358C183.593 116.429 183.295 116.464 183.032 116.464C182.601 116.464 182.268 116.396 182.031 116.26C181.794 116.124 181.627 115.946 181.53 115.726C181.434 115.502 181.386 115.035 181.386 114.324V110.301H180.517V109.379H181.386V107.648L182.564 106.937V109.379H183.756V110.301H182.564V114.39C182.564 114.728 182.584 114.945 182.623 115.042C182.667 115.138 182.735 115.215 182.828 115.272C182.924 115.329 183.06 115.358 183.236 115.358C183.367 115.358 183.541 115.342 183.756 115.312Z" fill="white"/>
<path d="M185.043 116.372V109.379H186.11V110.439C186.382 109.943 186.632 109.616 186.86 109.458C187.093 109.3 187.347 109.221 187.624 109.221C188.023 109.221 188.429 109.349 188.842 109.603L188.434 110.703C188.144 110.531 187.854 110.446 187.565 110.446C187.306 110.446 187.073 110.525 186.867 110.683C186.66 110.837 186.513 111.052 186.426 111.328C186.294 111.75 186.228 112.21 186.228 112.711V116.372H185.043Z" fill="white"/>
<path d="M194.244 115.509C193.805 115.882 193.382 116.146 192.973 116.299C192.57 116.453 192.135 116.53 191.67 116.53C190.902 116.53 190.311 116.343 189.899 115.97C189.486 115.592 189.28 115.112 189.28 114.528C189.28 114.186 189.356 113.874 189.51 113.593C189.668 113.308 189.872 113.08 190.122 112.908C190.377 112.737 190.662 112.608 190.978 112.52C191.211 112.458 191.562 112.399 192.032 112.342C192.989 112.228 193.693 112.092 194.145 111.934C194.15 111.771 194.152 111.668 194.152 111.624C194.152 111.142 194.04 110.801 193.816 110.604C193.513 110.336 193.063 110.202 192.466 110.202C191.909 110.202 191.496 110.301 191.229 110.499C190.965 110.692 190.77 111.036 190.643 111.532L189.484 111.374C189.589 110.878 189.763 110.479 190.004 110.176C190.245 109.869 190.594 109.634 191.051 109.471C191.507 109.305 192.036 109.221 192.638 109.221C193.235 109.221 193.72 109.291 194.093 109.432C194.466 109.572 194.74 109.75 194.916 109.965C195.091 110.176 195.214 110.444 195.284 110.769C195.324 110.97 195.344 111.335 195.344 111.861V113.442C195.344 114.543 195.368 115.241 195.416 115.535C195.469 115.825 195.57 116.104 195.719 116.372H194.481C194.358 116.126 194.279 115.838 194.244 115.509ZM194.145 112.862C193.715 113.038 193.07 113.187 192.21 113.31C191.722 113.38 191.378 113.459 191.176 113.547C190.974 113.635 190.818 113.764 190.708 113.935C190.599 114.102 190.544 114.289 190.544 114.495C190.544 114.811 190.662 115.074 190.899 115.285C191.141 115.496 191.492 115.601 191.953 115.601C192.409 115.601 192.815 115.502 193.171 115.305C193.526 115.103 193.788 114.829 193.954 114.482C194.082 114.214 194.145 113.819 194.145 113.297V112.862Z" fill="white"/>
<path d="M197.296 116.372V106.719H198.481V116.372H197.296Z" fill="white"/>
<path d="M200.466 108.082V106.719H201.651V108.082H200.466ZM200.466 116.372V109.379H201.651V116.372H200.466Z" fill="white"/>
<path d="M208.159 115.509C207.72 115.882 207.297 116.146 206.888 116.299C206.485 116.453 206.05 116.53 205.585 116.53C204.817 116.53 204.226 116.343 203.814 115.97C203.401 115.592 203.195 115.112 203.195 114.528C203.195 114.186 203.272 113.874 203.425 113.593C203.583 113.308 203.787 113.08 204.038 112.908C204.292 112.737 204.577 112.608 204.893 112.52C205.126 112.458 205.477 112.399 205.947 112.342C206.904 112.228 207.608 112.092 208.06 111.934C208.065 111.771 208.067 111.668 208.067 111.624C208.067 111.142 207.955 110.801 207.731 110.604C207.428 110.336 206.978 110.202 206.381 110.202C205.824 110.202 205.411 110.301 205.144 110.499C204.88 110.692 204.685 111.036 204.558 111.532L203.399 111.374C203.504 110.878 203.678 110.479 203.919 110.176C204.16 109.869 204.509 109.634 204.966 109.471C205.422 109.305 205.951 109.221 206.553 109.221C207.15 109.221 207.635 109.291 208.008 109.432C208.381 109.572 208.655 109.75 208.831 109.965C209.006 110.176 209.129 110.444 209.199 110.769C209.239 110.97 209.259 111.335 209.259 111.861V113.442C209.259 114.543 209.283 115.241 209.331 115.535C209.384 115.825 209.485 116.104 209.634 116.372H208.396C208.273 116.126 208.194 115.838 208.159 115.509ZM208.06 112.862C207.63 113.038 206.985 113.187 206.125 113.31C205.637 113.38 205.293 113.459 205.091 113.547C204.889 113.635 204.733 113.764 204.623 113.935C204.514 114.102 204.459 114.289 204.459 114.495C204.459 114.811 204.577 115.074 204.814 115.285C205.056 115.496 205.407 115.601 205.868 115.601C206.324 115.601 206.73 115.502 207.086 115.305C207.441 115.103 207.703 114.829 207.869 114.482C207.997 114.214 208.06 113.819 208.06 113.297V112.862Z" fill="white"/>
<path d="M211.237 116.372V109.379H212.304V110.373C212.817 109.605 213.559 109.221 214.529 109.221C214.95 109.221 215.337 109.298 215.688 109.452C216.043 109.601 216.309 109.798 216.485 110.044C216.66 110.29 216.783 110.582 216.853 110.92C216.897 111.139 216.919 111.523 216.919 112.072V116.372H215.734V112.118C215.734 111.635 215.688 111.275 215.596 111.038C215.504 110.797 215.339 110.606 215.102 110.466C214.869 110.321 214.595 110.248 214.279 110.248C213.774 110.248 213.337 110.409 212.969 110.729C212.604 111.049 212.422 111.657 212.422 112.553V116.372H211.237Z" fill="white"/>
<path d="M222.482 113.27L223.687 113.165C223.744 113.648 223.876 114.045 224.082 114.357C224.293 114.664 224.618 114.914 225.057 115.107C225.496 115.296 225.99 115.391 226.538 115.391C227.025 115.391 227.456 115.318 227.829 115.173C228.202 115.028 228.478 114.831 228.658 114.581C228.843 114.326 228.935 114.05 228.935 113.751C228.935 113.448 228.847 113.185 228.671 112.961C228.496 112.733 228.206 112.542 227.802 112.388C227.543 112.287 226.971 112.131 226.084 111.921C225.197 111.706 224.576 111.504 224.221 111.315C223.76 111.074 223.415 110.775 223.187 110.42C222.963 110.06 222.851 109.658 222.851 109.215C222.851 108.727 222.989 108.273 223.266 107.852C223.542 107.426 223.946 107.103 224.477 106.884C225.009 106.664 225.599 106.555 226.249 106.555C226.964 106.555 227.594 106.671 228.138 106.904C228.687 107.132 229.108 107.47 229.402 107.918C229.696 108.365 229.854 108.872 229.876 109.439L228.652 109.531C228.586 108.921 228.362 108.46 227.98 108.148C227.603 107.836 227.043 107.681 226.301 107.681C225.529 107.681 224.965 107.823 224.609 108.109C224.258 108.389 224.082 108.73 224.082 109.129C224.082 109.476 224.207 109.761 224.458 109.985C224.703 110.209 225.344 110.439 226.38 110.676C227.42 110.909 228.134 111.113 228.52 111.289C229.082 111.548 229.497 111.877 229.764 112.276C230.032 112.671 230.166 113.128 230.166 113.646C230.166 114.159 230.019 114.644 229.725 115.101C229.431 115.553 229.007 115.906 228.454 116.161C227.906 116.411 227.287 116.536 226.597 116.536C225.724 116.536 224.991 116.409 224.398 116.154C223.81 115.9 223.347 115.518 223.009 115.009C222.676 114.495 222.5 113.916 222.482 113.27Z" fill="white"/>
<path d="M236.681 114.12L237.905 114.271C237.712 114.987 237.355 115.542 236.832 115.937C236.31 116.332 235.643 116.53 234.831 116.53C233.808 116.53 232.996 116.216 232.395 115.588C231.798 114.956 231.499 114.072 231.499 112.935C231.499 111.758 231.802 110.845 232.408 110.196C233.014 109.546 233.799 109.221 234.765 109.221C235.7 109.221 236.464 109.539 237.056 110.176C237.649 110.812 237.945 111.708 237.945 112.862C237.945 112.932 237.943 113.038 237.938 113.178H232.724C232.768 113.946 232.985 114.535 233.376 114.943C233.766 115.351 234.254 115.555 234.837 115.555C235.272 115.555 235.643 115.441 235.95 115.213C236.257 114.985 236.501 114.62 236.681 114.12ZM232.79 112.204H236.694C236.641 111.616 236.492 111.175 236.246 110.88C235.869 110.424 235.379 110.196 234.778 110.196C234.234 110.196 233.775 110.378 233.402 110.742C233.033 111.106 232.829 111.594 232.79 112.204Z" fill="white"/>
<path d="M244.098 113.81L245.263 113.962C245.136 114.765 244.809 115.395 244.282 115.851C243.76 116.304 243.117 116.53 242.353 116.53C241.396 116.53 240.626 116.218 240.042 115.595C239.463 114.967 239.173 114.069 239.173 112.902C239.173 112.147 239.298 111.486 239.548 110.92C239.798 110.354 240.178 109.93 240.687 109.649C241.201 109.364 241.758 109.221 242.36 109.221C243.119 109.221 243.74 109.414 244.223 109.801C244.706 110.183 245.015 110.727 245.151 111.433L243.999 111.611C243.889 111.142 243.694 110.788 243.413 110.551C243.136 110.314 242.801 110.196 242.406 110.196C241.809 110.196 241.324 110.411 240.951 110.841C240.577 111.267 240.391 111.943 240.391 112.869C240.391 113.808 240.571 114.491 240.931 114.916C241.291 115.342 241.76 115.555 242.34 115.555C242.805 115.555 243.193 115.412 243.505 115.127C243.817 114.842 244.014 114.403 244.098 113.81Z" fill="white"/>
<path d="M250.994 116.372V115.344C250.45 116.135 249.71 116.53 248.776 116.53C248.363 116.53 247.977 116.451 247.617 116.293C247.261 116.135 246.996 115.937 246.82 115.7C246.649 115.459 246.528 115.164 246.458 114.818C246.41 114.585 246.386 114.216 246.386 113.712V109.379H247.571V113.257C247.571 113.876 247.595 114.293 247.643 114.508C247.718 114.82 247.876 115.066 248.117 115.246C248.359 115.421 248.657 115.509 249.013 115.509C249.368 115.509 249.702 115.419 250.013 115.239C250.325 115.055 250.544 114.807 250.672 114.495C250.803 114.179 250.869 113.723 250.869 113.126V109.379H252.054V116.372H250.994Z" fill="white"/>
<path d="M254.039 116.372V109.379H255.106V110.439C255.378 109.943 255.628 109.616 255.857 109.458C256.089 109.3 256.344 109.221 256.62 109.221C257.02 109.221 257.426 109.349 257.838 109.603L257.43 110.703C257.141 110.531 256.851 110.446 256.561 110.446C256.302 110.446 256.069 110.525 255.863 110.683C255.657 110.837 255.51 111.052 255.422 111.328C255.29 111.75 255.225 112.21 255.225 112.711V116.372H254.039Z" fill="white"/>
<path d="M258.684 108.082V106.719H259.869V108.082H258.684ZM258.684 116.372V109.379H259.869V116.372H258.684Z" fill="white"/>
<path d="M264.402 115.312L264.574 116.358C264.24 116.429 263.942 116.464 263.678 116.464C263.248 116.464 262.914 116.396 262.677 116.26C262.44 116.124 262.274 115.946 262.177 115.726C262.08 115.502 262.032 115.035 262.032 114.324V110.301H261.163V109.379H262.032V107.648L263.211 106.937V109.379H264.402V110.301H263.211V114.39C263.211 114.728 263.231 114.945 263.27 115.042C263.314 115.138 263.382 115.215 263.474 115.272C263.571 115.329 263.707 115.358 263.882 115.358C264.014 115.358 264.187 115.342 264.402 115.312Z" fill="white"/>
<path d="M265.709 108.082V106.719H266.894V108.082H265.709ZM265.709 116.372V109.379H266.894V116.372H265.709Z" fill="white"/>
<path d="M273.627 114.12L274.851 114.271C274.658 114.987 274.3 115.542 273.778 115.937C273.256 116.332 272.588 116.53 271.776 116.53C270.754 116.53 269.942 116.216 269.34 115.588C268.743 114.956 268.445 114.072 268.445 112.935C268.445 111.758 268.748 110.845 269.353 110.196C269.959 109.546 270.745 109.221 271.711 109.221C272.645 109.221 273.409 109.539 274.002 110.176C274.594 110.812 274.891 111.708 274.891 112.862C274.891 112.932 274.888 113.038 274.884 113.178H269.669C269.713 113.946 269.931 114.535 270.321 114.943C270.712 115.351 271.199 115.555 271.783 115.555C272.218 115.555 272.588 115.441 272.896 115.213C273.203 114.985 273.447 114.62 273.627 114.12ZM269.735 112.204H273.64C273.587 111.616 273.438 111.175 273.192 110.88C272.814 110.424 272.325 110.196 271.724 110.196C271.179 110.196 270.721 110.378 270.348 110.742C269.979 111.106 269.775 111.594 269.735 112.204Z" fill="white"/>
<path d="M276.007 114.284L277.178 114.1C277.244 114.57 277.426 114.93 277.725 115.18C278.028 115.43 278.449 115.555 278.989 115.555C279.533 115.555 279.937 115.445 280.201 115.226C280.464 115.002 280.596 114.741 280.596 114.442C280.596 114.175 280.479 113.964 280.247 113.81C280.084 113.705 279.68 113.571 279.035 113.409C278.166 113.189 277.563 113.001 277.225 112.842C276.891 112.68 276.636 112.458 276.461 112.177C276.29 111.892 276.204 111.578 276.204 111.236C276.204 110.924 276.274 110.637 276.415 110.373C276.56 110.106 276.755 109.884 277.001 109.708C277.185 109.572 277.435 109.458 277.751 109.366C278.072 109.27 278.414 109.221 278.778 109.221C279.327 109.221 279.808 109.3 280.22 109.458C280.637 109.616 280.945 109.831 281.142 110.104C281.34 110.371 281.476 110.731 281.55 111.183L280.392 111.341C280.339 110.981 280.185 110.7 279.931 110.499C279.68 110.297 279.325 110.196 278.864 110.196C278.32 110.196 277.931 110.286 277.699 110.466C277.466 110.646 277.35 110.856 277.35 111.098C277.35 111.251 277.398 111.39 277.495 111.513C277.591 111.64 277.743 111.745 277.949 111.829C278.067 111.872 278.416 111.973 278.996 112.131C279.834 112.355 280.418 112.54 280.747 112.684C281.081 112.825 281.342 113.031 281.531 113.303C281.719 113.576 281.814 113.913 281.814 114.317C281.814 114.712 281.697 115.085 281.465 115.437C281.236 115.783 280.905 116.053 280.471 116.246C280.036 116.435 279.544 116.53 278.996 116.53C278.087 116.53 277.394 116.341 276.915 115.963C276.441 115.586 276.138 115.026 276.007 114.284Z" fill="white"/>
<path d="M292.763 115.233C292.372 115.667 291.946 115.994 291.485 116.214C291.025 116.429 290.526 116.536 289.991 116.536C289.003 116.536 288.22 116.203 287.64 115.535C287.171 114.991 286.936 114.383 286.936 113.712C286.936 113.115 287.127 112.577 287.509 112.098C287.895 111.616 288.47 111.192 289.234 110.828C288.799 110.327 288.509 109.921 288.365 109.61C288.22 109.298 288.147 108.997 288.147 108.708C288.147 108.128 288.373 107.626 288.825 107.2C289.282 106.77 289.855 106.555 290.544 106.555C291.202 106.555 291.74 106.757 292.157 107.16C292.578 107.564 292.789 108.049 292.789 108.616C292.789 109.533 292.181 110.316 290.965 110.966L292.697 113.172C292.894 112.785 293.048 112.338 293.158 111.829L294.389 112.092C294.178 112.935 293.893 113.628 293.533 114.172C293.976 114.761 294.479 115.254 295.041 115.654L294.244 116.595C293.766 116.288 293.272 115.834 292.763 115.233ZM290.353 110.202C290.867 109.899 291.198 109.634 291.347 109.406C291.501 109.177 291.578 108.925 291.578 108.648C291.578 108.319 291.472 108.051 291.262 107.845C291.055 107.634 290.796 107.529 290.485 107.529C290.164 107.529 289.896 107.632 289.681 107.839C289.471 108.045 289.365 108.297 289.365 108.596C289.365 108.745 289.403 108.903 289.477 109.07C289.556 109.232 289.673 109.406 289.826 109.59L290.353 110.202ZM292.019 114.298L289.846 111.605C289.205 111.987 288.773 112.342 288.549 112.671C288.325 112.996 288.213 113.319 288.213 113.639C288.213 114.03 288.369 114.436 288.681 114.857C288.992 115.279 289.433 115.489 290.004 115.489C290.36 115.489 290.726 115.38 291.104 115.16C291.485 114.936 291.791 114.649 292.019 114.298Z" fill="white"/>
<path d="M157.891 131.93V122.278H159.168V131.93H157.891Z" fill="white"/>
<path d="M161.41 131.93V124.938H162.476V125.932C162.99 125.164 163.732 124.78 164.702 124.78C165.123 124.78 165.509 124.857 165.861 125.01C166.216 125.16 166.482 125.357 166.657 125.603C166.833 125.849 166.956 126.141 167.026 126.479C167.07 126.698 167.092 127.082 167.092 127.631V131.93H165.907V127.677C165.907 127.194 165.861 126.834 165.768 126.597C165.676 126.356 165.512 126.165 165.275 126.024C165.042 125.879 164.768 125.807 164.452 125.807C163.947 125.807 163.51 125.967 163.141 126.288C162.777 126.608 162.595 127.216 162.595 128.111V131.93H161.41Z" fill="white"/>
<path d="M170.993 131.93L168.333 124.938H169.584L171.085 129.125C171.247 129.578 171.397 130.047 171.533 130.534C171.638 130.166 171.785 129.722 171.974 129.204L173.528 124.938H174.746L172.099 131.93H170.993Z" fill="white"/>
<path d="M180.714 129.678L181.939 129.83C181.746 130.545 181.388 131.101 180.865 131.496C180.343 131.891 179.676 132.088 178.864 132.088C177.841 132.088 177.029 131.774 176.428 131.147C175.831 130.515 175.532 129.63 175.532 128.493C175.532 127.317 175.835 126.404 176.441 125.754C177.047 125.105 177.832 124.78 178.798 124.78C179.733 124.78 180.497 125.098 181.089 125.735C181.682 126.371 181.978 127.267 181.978 128.421C181.978 128.491 181.976 128.597 181.972 128.737H176.757C176.801 129.505 177.018 130.093 177.409 130.502C177.799 130.91 178.287 131.114 178.871 131.114C179.305 131.114 179.676 131 179.983 130.771C180.29 130.543 180.534 130.179 180.714 129.678ZM176.823 127.763H180.727C180.675 127.174 180.525 126.733 180.279 126.439C179.902 125.983 179.413 125.754 178.811 125.754C178.267 125.754 177.808 125.937 177.435 126.301C177.066 126.665 176.862 127.152 176.823 127.763Z" fill="white"/>
<path d="M183.094 129.843L184.266 129.659C184.332 130.128 184.514 130.488 184.813 130.739C185.115 130.989 185.537 131.114 186.077 131.114C186.621 131.114 187.025 131.004 187.288 130.785C187.551 130.561 187.683 130.3 187.683 130.001C187.683 129.733 187.567 129.523 187.334 129.369C187.172 129.264 186.768 129.13 186.123 128.967C185.254 128.748 184.65 128.559 184.312 128.401C183.979 128.239 183.724 128.017 183.548 127.736C183.377 127.451 183.292 127.137 183.292 126.795C183.292 126.483 183.362 126.196 183.502 125.932C183.647 125.664 183.842 125.443 184.088 125.267C184.273 125.131 184.523 125.017 184.839 124.925C185.159 124.828 185.502 124.78 185.866 124.78C186.415 124.78 186.895 124.859 187.308 125.017C187.725 125.175 188.032 125.39 188.23 125.662C188.427 125.93 188.563 126.29 188.638 126.742L187.479 126.9C187.426 126.54 187.273 126.259 187.018 126.057C186.768 125.855 186.412 125.754 185.952 125.754C185.407 125.754 185.019 125.844 184.786 126.024C184.554 126.204 184.437 126.415 184.437 126.656C184.437 126.81 184.485 126.948 184.582 127.071C184.679 127.198 184.83 127.304 185.036 127.387C185.155 127.431 185.504 127.532 186.083 127.69C186.922 127.914 187.505 128.098 187.835 128.243C188.168 128.384 188.429 128.59 188.618 128.862C188.807 129.134 188.901 129.472 188.901 129.876C188.901 130.271 188.785 130.644 188.552 130.995C188.324 131.342 187.993 131.612 187.558 131.805C187.124 131.994 186.632 132.088 186.083 132.088C185.175 132.088 184.481 131.9 184.003 131.522C183.529 131.145 183.226 130.585 183.094 129.843Z" fill="white"/>
<path d="M193.033 130.87L193.204 131.917C192.87 131.987 192.572 132.022 192.308 132.022C191.878 132.022 191.545 131.954 191.308 131.818C191.071 131.682 190.904 131.504 190.807 131.285C190.711 131.061 190.662 130.594 190.662 129.883V125.86H189.793V124.938H190.662V123.206L191.841 122.495V124.938H193.033V125.86H191.841V129.948C191.841 130.286 191.861 130.504 191.9 130.6C191.944 130.697 192.012 130.774 192.104 130.831C192.201 130.888 192.337 130.916 192.512 130.916C192.644 130.916 192.818 130.901 193.033 130.87Z" fill="white"/>
<path d="M194.333 131.93V124.938H195.393V125.919C195.612 125.577 195.904 125.302 196.269 125.096C196.633 124.885 197.048 124.78 197.513 124.78C198.031 124.78 198.454 124.887 198.784 125.103C199.117 125.318 199.352 125.618 199.488 126.005C200.041 125.188 200.761 124.78 201.648 124.78C202.341 124.78 202.875 124.973 203.248 125.359C203.621 125.741 203.807 126.332 203.807 127.13V131.93H202.629V127.525C202.629 127.051 202.589 126.711 202.51 126.505C202.436 126.294 202.297 126.125 202.095 125.998C201.894 125.871 201.657 125.807 201.384 125.807C200.893 125.807 200.485 125.972 200.16 126.301C199.835 126.626 199.673 127.148 199.673 127.868V131.93H198.487V127.387C198.487 126.861 198.391 126.465 198.198 126.202C198.005 125.939 197.689 125.807 197.25 125.807C196.916 125.807 196.607 125.895 196.321 126.07C196.04 126.246 195.836 126.503 195.709 126.841C195.582 127.179 195.518 127.666 195.518 128.302V131.93H194.333Z" fill="white"/>
<path d="M210.487 129.678L211.711 129.83C211.518 130.545 211.161 131.101 210.638 131.496C210.116 131.891 209.449 132.088 208.637 132.088C207.614 132.088 206.802 131.774 206.201 131.147C205.604 130.515 205.305 129.63 205.305 128.493C205.305 127.317 205.608 126.404 206.214 125.754C206.819 125.105 207.605 124.78 208.571 124.78C209.506 124.78 210.269 125.098 210.862 125.735C211.455 126.371 211.751 127.267 211.751 128.421C211.751 128.491 211.749 128.597 211.744 128.737H206.53C206.574 129.505 206.791 130.093 207.182 130.502C207.572 130.91 208.059 131.114 208.643 131.114C209.078 131.114 209.449 131 209.756 130.771C210.063 130.543 210.307 130.179 210.487 129.678ZM206.596 127.763H210.5C210.447 127.174 210.298 126.733 210.052 126.439C209.675 125.983 209.185 125.754 208.584 125.754C208.04 125.754 207.581 125.937 207.208 126.301C206.839 126.665 206.635 127.152 206.596 127.763Z" fill="white"/>
<path d="M213.341 131.93V124.938H214.407V125.932C214.921 125.164 215.663 124.78 216.633 124.78C217.054 124.78 217.441 124.857 217.792 125.01C218.147 125.16 218.413 125.357 218.588 125.603C218.764 125.849 218.887 126.141 218.957 126.479C219.001 126.698 219.023 127.082 219.023 127.631V131.93H217.838V127.677C217.838 127.194 217.792 126.834 217.699 126.597C217.607 126.356 217.443 126.165 217.206 126.024C216.973 125.879 216.699 125.807 216.383 125.807C215.878 125.807 215.441 125.967 215.072 126.288C214.708 126.608 214.526 127.216 214.526 128.111V131.93H213.341Z" fill="white"/>
<path d="M223.569 130.87L223.74 131.917C223.407 131.987 223.108 132.022 222.845 132.022C222.415 132.022 222.081 131.954 221.844 131.818C221.607 131.682 221.44 131.504 221.344 131.285C221.247 131.061 221.199 130.594 221.199 129.883V125.86H220.33V124.938H221.199V123.206L222.377 122.495V124.938H223.569V125.86H222.377V129.948C222.377 130.286 222.397 130.504 222.437 130.6C222.48 130.697 222.549 130.774 222.641 130.831C222.737 130.888 222.873 130.916 223.049 130.916C223.181 130.916 223.354 130.901 223.569 130.87Z" fill="white"/>
<path d="M224.395 129.843L225.567 129.659C225.633 130.128 225.815 130.488 226.114 130.739C226.417 130.989 226.838 131.114 227.378 131.114C227.922 131.114 228.326 131.004 228.589 130.785C228.853 130.561 228.984 130.3 228.984 130.001C228.984 129.733 228.868 129.523 228.635 129.369C228.473 129.264 228.069 129.13 227.424 128.967C226.555 128.748 225.951 128.559 225.613 128.401C225.28 128.239 225.025 128.017 224.85 127.736C224.678 127.451 224.593 127.137 224.593 126.795C224.593 126.483 224.663 126.196 224.803 125.932C224.948 125.664 225.144 125.443 225.389 125.267C225.574 125.131 225.824 125.017 226.14 124.925C226.46 124.828 226.803 124.78 227.167 124.78C227.716 124.78 228.196 124.859 228.609 125.017C229.026 125.175 229.333 125.39 229.531 125.662C229.728 125.93 229.864 126.29 229.939 126.742L228.78 126.9C228.728 126.54 228.574 126.259 228.319 126.057C228.069 125.855 227.714 125.754 227.253 125.754C226.708 125.754 226.32 125.844 226.087 126.024C225.855 126.204 225.738 126.415 225.738 126.656C225.738 126.81 225.787 126.948 225.883 127.071C225.98 127.198 226.131 127.304 226.338 127.387C226.456 127.431 226.805 127.532 227.384 127.69C228.223 127.914 228.807 128.098 229.136 128.243C229.469 128.384 229.731 128.59 229.919 128.862C230.108 129.134 230.202 129.472 230.202 129.876C230.202 130.271 230.086 130.644 229.853 130.995C229.625 131.342 229.294 131.612 228.859 131.805C228.425 131.994 227.933 132.088 227.384 132.088C226.476 132.088 225.782 131.9 225.304 131.522C224.83 131.145 224.527 130.585 224.395 129.843Z" fill="white"/>
<path d="M242.672 128.546L243.95 128.869C243.682 129.918 243.199 130.719 242.501 131.272C241.808 131.821 240.958 132.095 239.953 132.095C238.913 132.095 238.066 131.884 237.412 131.463C236.762 131.037 236.266 130.422 235.924 129.619C235.586 128.816 235.417 127.953 235.417 127.032C235.417 126.027 235.608 125.151 235.99 124.405C236.376 123.654 236.922 123.086 237.629 122.699C238.34 122.309 239.121 122.113 239.973 122.113C240.939 122.113 241.751 122.359 242.409 122.851C243.067 123.342 243.526 124.034 243.785 124.925L242.528 125.221C242.304 124.519 241.979 124.007 241.553 123.687C241.127 123.367 240.592 123.206 239.947 123.206C239.205 123.206 238.584 123.384 238.083 123.74C237.587 124.095 237.238 124.574 237.036 125.175C236.834 125.772 236.734 126.389 236.734 127.025C236.734 127.846 236.852 128.564 237.089 129.178C237.33 129.788 237.704 130.245 238.208 130.548C238.713 130.85 239.26 131.002 239.848 131.002C240.563 131.002 241.169 130.796 241.665 130.383C242.161 129.97 242.497 129.358 242.672 128.546Z" fill="white"/>
<path d="M245.072 128.434C245.072 127.139 245.432 126.18 246.152 125.557C246.753 125.039 247.486 124.78 248.351 124.78C249.312 124.78 250.098 125.096 250.708 125.728C251.318 126.356 251.623 127.225 251.623 128.335C251.623 129.235 251.487 129.944 251.215 130.462C250.947 130.976 250.554 131.375 250.037 131.66C249.523 131.946 248.961 132.088 248.351 132.088C247.372 132.088 246.58 131.774 245.974 131.147C245.373 130.519 245.072 129.615 245.072 128.434ZM246.29 128.434C246.29 129.33 246.486 130.001 246.876 130.449C247.267 130.892 247.758 131.114 248.351 131.114C248.939 131.114 249.429 130.89 249.819 130.442C250.21 129.995 250.405 129.312 250.405 128.395C250.405 127.53 250.208 126.876 249.813 126.433C249.422 125.985 248.935 125.761 248.351 125.761C247.758 125.761 247.267 125.983 246.876 126.426C246.486 126.869 246.29 127.539 246.29 128.434Z" fill="white"/>
<path d="M253.154 131.93V124.938H254.214V125.919C254.433 125.577 254.725 125.302 255.09 125.096C255.454 124.885 255.869 124.78 256.334 124.78C256.852 124.78 257.276 124.887 257.605 125.103C257.938 125.318 258.173 125.618 258.309 126.005C258.862 125.188 259.582 124.78 260.469 124.78C261.162 124.78 261.696 124.973 262.069 125.359C262.442 125.741 262.628 126.332 262.628 127.13V131.93H261.45V127.525C261.45 127.051 261.41 126.711 261.331 126.505C261.257 126.294 261.119 126.125 260.917 125.998C260.715 125.871 260.478 125.807 260.206 125.807C259.714 125.807 259.306 125.972 258.981 126.301C258.656 126.626 258.494 127.148 258.494 127.868V131.93H257.309V127.387C257.309 126.861 257.212 126.465 257.019 126.202C256.826 125.939 256.51 125.807 256.071 125.807C255.737 125.807 255.428 125.895 255.142 126.07C254.861 126.246 254.657 126.503 254.53 126.841C254.403 127.179 254.339 127.666 254.339 128.302V131.93H253.154Z" fill="white"/>
<path d="M264.521 131.93V124.938H265.581V125.919C265.801 125.577 266.093 125.302 266.457 125.096C266.821 124.885 267.236 124.78 267.701 124.78C268.219 124.78 268.643 124.887 268.972 125.103C269.306 125.318 269.541 125.618 269.677 126.005C270.23 125.188 270.95 124.78 271.836 124.78C272.53 124.78 273.063 124.973 273.436 125.359C273.809 125.741 273.996 126.332 273.996 127.13V131.93H272.817V127.525C272.817 127.051 272.778 126.711 272.699 126.505C272.624 126.294 272.486 126.125 272.284 125.998C272.082 125.871 271.845 125.807 271.573 125.807C271.081 125.807 270.673 125.972 270.348 126.301C270.023 126.626 269.861 127.148 269.861 127.868V131.93H268.676V127.387C268.676 126.861 268.579 126.465 268.386 126.202C268.193 125.939 267.877 125.807 267.438 125.807C267.104 125.807 266.795 125.895 266.51 126.07C266.229 126.246 266.025 126.503 265.897 126.841C265.77 127.179 265.706 127.666 265.706 128.302V131.93H264.521Z" fill="white"/>
<path d="M275.895 123.641V122.278H277.08V123.641H275.895ZM275.895 131.93V124.938H277.08V131.93H275.895Z" fill="white"/>
<path d="M278.552 129.843L279.724 129.659C279.789 130.128 279.972 130.488 280.27 130.739C280.573 130.989 280.994 131.114 281.534 131.114C282.079 131.114 282.482 131.004 282.746 130.785C283.009 130.561 283.141 130.3 283.141 130.001C283.141 129.733 283.024 129.523 282.792 129.369C282.629 129.264 282.226 129.13 281.58 128.967C280.711 128.748 280.108 128.559 279.77 128.401C279.436 128.239 279.182 128.017 279.006 127.736C278.835 127.451 278.749 127.137 278.749 126.795C278.749 126.483 278.819 126.196 278.96 125.932C279.105 125.664 279.3 125.443 279.546 125.267C279.73 125.131 279.98 125.017 280.296 124.925C280.617 124.828 280.959 124.78 281.324 124.78C281.872 124.78 282.353 124.859 282.765 125.017C283.182 125.175 283.49 125.39 283.687 125.662C283.885 125.93 284.021 126.29 284.095 126.742L282.937 126.9C282.884 126.54 282.73 126.259 282.476 126.057C282.226 125.855 281.87 125.754 281.409 125.754C280.865 125.754 280.476 125.844 280.244 126.024C280.011 126.204 279.895 126.415 279.895 126.656C279.895 126.81 279.943 126.948 280.04 127.071C280.136 127.198 280.288 127.304 280.494 127.387C280.612 127.431 280.961 127.532 281.541 127.69C282.379 127.914 282.963 128.098 283.292 128.243C283.626 128.384 283.887 128.59 284.076 128.862C284.264 129.134 284.359 129.472 284.359 129.876C284.359 130.271 284.243 130.644 284.01 130.995C283.782 131.342 283.45 131.612 283.016 131.805C282.581 131.994 282.09 132.088 281.541 132.088C280.632 132.088 279.939 131.9 279.46 131.522C278.986 131.145 278.683 130.585 278.552 129.843Z" fill="white"/>
<path d="M285.429 129.843L286.601 129.659C286.666 130.128 286.849 130.488 287.147 130.739C287.45 130.989 287.871 131.114 288.411 131.114C288.955 131.114 289.359 131.004 289.623 130.785C289.886 130.561 290.018 130.3 290.018 130.001C290.018 129.733 289.901 129.523 289.669 129.369C289.506 129.264 289.103 129.13 288.457 128.967C287.588 128.748 286.985 128.559 286.647 128.401C286.313 128.239 286.059 128.017 285.883 127.736C285.712 127.451 285.626 127.137 285.626 126.795C285.626 126.483 285.696 126.196 285.837 125.932C285.982 125.664 286.177 125.443 286.423 125.267C286.607 125.131 286.857 125.017 287.173 124.925C287.494 124.828 287.836 124.78 288.201 124.78C288.749 124.78 289.23 124.859 289.642 125.017C290.059 125.175 290.367 125.39 290.564 125.662C290.762 125.93 290.898 126.29 290.972 126.742L289.814 126.9C289.761 126.54 289.607 126.259 289.353 126.057C289.103 125.855 288.747 125.754 288.286 125.754C287.742 125.754 287.353 125.844 287.121 126.024C286.888 126.204 286.772 126.415 286.772 126.656C286.772 126.81 286.82 126.948 286.917 127.071C287.013 127.198 287.165 127.304 287.371 127.387C287.489 127.431 287.838 127.532 288.418 127.69C289.256 127.914 289.84 128.098 290.169 128.243C290.503 128.384 290.764 128.59 290.953 128.862C291.141 129.134 291.236 129.472 291.236 129.876C291.236 130.271 291.119 130.644 290.887 130.995C290.659 131.342 290.327 131.612 289.893 131.805C289.458 131.994 288.966 132.088 288.418 132.088C287.509 132.088 286.816 131.9 286.337 131.522C285.863 131.145 285.56 130.585 285.429 129.843Z" fill="white"/>
<path d="M292.786 123.641V122.278H293.971V123.641H292.786ZM292.786 131.93V124.938H293.971V131.93H292.786Z" fill="white"/>
<path d="M295.476 128.434C295.476 127.139 295.836 126.18 296.555 125.557C297.157 125.039 297.89 124.78 298.755 124.78C299.716 124.78 300.502 125.096 301.112 125.728C301.722 126.356 302.027 127.225 302.027 128.335C302.027 129.235 301.891 129.944 301.619 130.462C301.351 130.976 300.958 131.375 300.44 131.66C299.927 131.946 299.365 132.088 298.755 132.088C297.776 132.088 296.983 131.774 296.378 131.147C295.776 130.519 295.476 129.615 295.476 128.434ZM296.694 128.434C296.694 129.33 296.889 130.001 297.28 130.449C297.67 130.892 298.162 131.114 298.755 131.114C299.343 131.114 299.832 130.89 300.223 130.442C300.613 129.995 300.809 129.312 300.809 128.395C300.809 127.53 300.611 126.876 300.216 126.433C299.826 125.985 299.338 125.761 298.755 125.761C298.162 125.761 297.67 125.983 297.28 126.426C296.889 126.869 296.694 127.539 296.694 128.434Z" fill="white"/>
<path d="M303.557 131.93V124.938H304.624V125.932C305.138 125.164 305.879 124.78 306.85 124.78C307.271 124.78 307.657 124.857 308.008 125.01C308.364 125.16 308.629 125.357 308.805 125.603C308.981 125.849 309.103 126.141 309.174 126.479C309.218 126.698 309.24 127.082 309.24 127.631V131.93H308.054V127.677C308.054 127.194 308.008 126.834 307.916 126.597C307.824 126.356 307.659 126.165 307.422 126.024C307.19 125.879 306.915 125.807 306.599 125.807C306.095 125.807 305.658 125.967 305.289 126.288C304.925 126.608 304.743 127.216 304.743 128.111V131.93H303.557Z" fill="white"/>
</g>
<defs>
<clipPath id="clip0">
<rect width="361" height="204" rx="12" fill="white"/>
</clipPath>
</defs>
</svg>
