<svg width="50" height="50" viewBox="0 0 50 50" fill="none" xmlns="http://www.w3.org/2000/svg">
<rect width="50" height="50" rx="12" fill="#393FCC"/>
<path fill-rule="evenodd" clip-rule="evenodd" d="M19.0416 13.0833C17.5801 13.0833 16.2049 13.3444 15.1545 13.8113C14.6306 14.0441 14.1396 14.3494 13.7649 14.7431C13.3849 15.1424 13.0833 15.6817 13.0833 16.3333V22.8333C13.0833 23.485 13.3849 24.0242 13.7649 24.4235C14.1396 24.8172 14.6306 25.1225 15.1545 25.3553C16.2049 25.8222 17.5801 26.0833 19.0416 26.0833C20.5031 26.0833 21.8783 25.8222 22.9287 25.3553C23.4526 25.1225 23.9436 24.8172 24.3182 24.4235C24.6983 24.0242 24.9999 23.485 24.9999 22.8333V16.3333C24.9999 15.6817 24.6983 15.1424 24.3182 14.7431C23.9436 14.3494 23.4526 14.0441 22.9287 13.8113C21.8783 13.3444 20.5031 13.0833 19.0416 13.0833ZM15.2499 18.8968C16.2875 19.3376 17.624 19.5833 19.0416 19.5833C20.4592 19.5833 21.7957 19.3376 22.8333 18.8968V19.5675C22.826 19.5837 22.8047 19.621 22.7487 19.6798C22.63 19.8045 22.4071 19.9661 22.0488 20.1254C21.3348 20.4427 20.2725 20.6666 19.0416 20.6666C17.8107 20.6666 16.7484 20.4427 16.0344 20.1254C15.6761 19.9661 15.4531 19.8045 15.3344 19.6798C15.2784 19.621 15.2571 19.5837 15.2499 19.5675V18.8968ZM15.2499 22.1468V22.8175C15.2571 22.8337 15.2784 22.871 15.3344 22.9298C15.4531 23.0545 15.6761 23.2161 16.0344 23.3754C16.7484 23.6927 17.8107 23.9166 19.0416 23.9166C20.2725 23.9166 21.3348 23.6927 22.0488 23.3754C22.4071 23.2161 22.63 23.0545 22.7487 22.9298C22.8047 22.871 22.826 22.8337 22.8333 22.8175V22.1468C21.7957 22.5876 20.4592 22.8333 19.0416 22.8333C17.624 22.8333 16.2875 22.5876 15.2499 22.1468Z" fill="white"/>
<path d="M28.2499 15.25C28.2499 14.6517 28.7349 14.1666 29.3333 14.1666H32.5833C34.3781 14.1666 35.8333 15.6217 35.8333 17.4166V20.6666C35.8333 21.265 35.3482 21.75 34.7499 21.75C34.1516 21.75 33.6666 21.265 33.6666 20.6666V17.4166C33.6666 16.8183 33.1815 16.3333 32.5833 16.3333H29.3333C28.7349 16.3333 28.2499 15.8483 28.2499 15.25Z" fill="white"/>
<path d="M16.3333 29.3333C16.3333 28.735 15.8482 28.25 15.2499 28.25C14.6516 28.25 14.1666 28.735 14.1666 29.3333V32.5833C14.1666 34.3782 15.6217 35.8333 17.4166 35.8333H20.6666C21.2649 35.8333 21.7499 35.3483 21.7499 34.75C21.7499 34.1517 21.2649 33.6666 20.6666 33.6666H17.4166C16.8183 33.6666 16.3333 33.1816 16.3333 32.5833V29.3333Z" fill="white"/>
<path d="M29.8749 33.6666H26.0833C25.4849 33.6666 24.9999 33.1816 24.9999 32.5833V26.0833C24.9999 25.485 25.4849 25 26.0833 25H35.8333C36.4316 25 36.9166 25.485 36.9166 26.0833V32.5833C36.9166 33.1816 36.4316 33.6666 35.8333 33.6666H32.0416V34.75H34.2083C34.8066 34.75 35.2916 35.235 35.2916 35.8333C35.2916 36.4316 34.8066 36.9166 34.2083 36.9166H27.7083C27.1099 36.9166 26.6249 36.4316 26.6249 35.8333C26.6249 35.235 27.1099 34.75 27.7083 34.75H29.8749V33.6666Z" fill="white"/>
</svg>
