<svg width="552" height="204" viewBox="0 0 552 204" fill="none" xmlns="http://www.w3.org/2000/svg">
<g clip-path="url(#clip0)">
<rect width="552" height="204" rx="12" fill="#393FCC"/>
<path d="M259.9 120.005V109.181H262.056L264.618 116.845C264.854 117.558 265.026 118.092 265.135 118.447C265.258 118.053 265.45 117.475 265.711 116.712L268.302 109.181H270.229V120.005H268.849V110.945L265.703 120.005H264.411L261.281 110.79V120.005H259.9Z" fill="white"/>
<path d="M277.487 119.037C276.995 119.456 276.52 119.751 276.062 119.923C275.609 120.096 275.122 120.182 274.6 120.182C273.739 120.182 273.077 119.973 272.614 119.554C272.151 119.131 271.92 118.592 271.92 117.937C271.92 117.553 272.006 117.204 272.178 116.889C272.356 116.569 272.585 116.313 272.865 116.121C273.151 115.929 273.471 115.784 273.825 115.685C274.086 115.616 274.48 115.55 275.006 115.486C276.079 115.358 276.869 115.205 277.376 115.028C277.381 114.846 277.384 114.73 277.384 114.681C277.384 114.14 277.258 113.758 277.007 113.537C276.667 113.237 276.163 113.086 275.494 113.086C274.868 113.086 274.406 113.197 274.105 113.419C273.81 113.635 273.591 114.022 273.448 114.578L272.149 114.401C272.267 113.844 272.461 113.397 272.732 113.057C273.003 112.712 273.394 112.449 273.906 112.267C274.418 112.08 275.011 111.986 275.685 111.986C276.355 111.986 276.899 112.065 277.317 112.223C277.736 112.38 278.043 112.579 278.24 112.821C278.437 113.057 278.575 113.357 278.654 113.721C278.698 113.948 278.72 114.356 278.72 114.947V116.719C278.72 117.954 278.747 118.737 278.801 119.067C278.86 119.392 278.974 119.704 279.141 120.005H277.753C277.615 119.729 277.526 119.407 277.487 119.037ZM277.376 116.069C276.894 116.266 276.17 116.434 275.206 116.571C274.659 116.65 274.273 116.739 274.046 116.837C273.82 116.936 273.645 117.081 273.522 117.273C273.399 117.46 273.338 117.669 273.338 117.9C273.338 118.255 273.471 118.55 273.736 118.786C274.007 119.023 274.401 119.141 274.918 119.141C275.43 119.141 275.885 119.03 276.284 118.808C276.682 118.582 276.975 118.274 277.162 117.886C277.305 117.585 277.376 117.142 277.376 116.557V116.069Z" fill="white"/>
<path d="M280.773 120.005V112.164H281.969V113.352C282.274 112.796 282.554 112.429 282.81 112.252C283.071 112.075 283.357 111.986 283.667 111.986C284.115 111.986 284.57 112.129 285.033 112.415L284.575 113.648C284.25 113.456 283.925 113.36 283.6 113.36C283.31 113.36 283.049 113.448 282.818 113.625C282.586 113.798 282.422 114.039 282.323 114.349C282.175 114.821 282.102 115.338 282.102 115.899V120.005H280.773Z" fill="white"/>
<path d="M285.83 120.005V109.181H287.159V115.353L290.304 112.164H292.025L289.027 115.073L292.327 120.005H290.688L288.097 115.995L287.159 116.896V120.005H285.83Z" fill="white"/>
<path d="M298.751 117.479L300.124 117.649C299.908 118.452 299.506 119.074 298.921 119.517C298.335 119.96 297.587 120.182 296.676 120.182C295.529 120.182 294.619 119.83 293.944 119.126C293.275 118.417 292.94 117.425 292.94 116.15C292.94 114.831 293.28 113.808 293.959 113.079C294.638 112.351 295.519 111.986 296.602 111.986C297.651 111.986 298.507 112.343 299.172 113.057C299.836 113.771 300.168 114.775 300.168 116.069C300.168 116.148 300.166 116.266 300.161 116.424H294.314C294.363 117.285 294.606 117.945 295.044 118.402C295.483 118.86 296.029 119.089 296.684 119.089C297.171 119.089 297.587 118.961 297.931 118.705C298.276 118.449 298.549 118.041 298.751 117.479ZM294.387 115.331H298.766C298.707 114.671 298.539 114.177 298.264 113.847C297.84 113.335 297.291 113.079 296.617 113.079C296.007 113.079 295.492 113.283 295.074 113.692C294.661 114.1 294.432 114.647 294.387 115.331Z" fill="white"/>
<path d="M304.702 118.816L304.894 119.99C304.52 120.069 304.185 120.108 303.89 120.108C303.407 120.108 303.033 120.032 302.767 119.879C302.502 119.726 302.315 119.527 302.206 119.281C302.098 119.03 302.044 118.506 302.044 117.708V113.197H301.069V112.164H302.044V110.222L303.365 109.424V112.164H304.702V113.197H303.365V117.782C303.365 118.161 303.388 118.405 303.432 118.513C303.481 118.621 303.557 118.708 303.661 118.772C303.769 118.836 303.922 118.868 304.119 118.868C304.266 118.868 304.461 118.85 304.702 118.816Z" fill="white"/>
<path d="M305.477 117.664L306.791 117.457C306.865 117.984 307.069 118.388 307.404 118.668C307.744 118.949 308.216 119.089 308.822 119.089C309.432 119.089 309.885 118.966 310.18 118.72C310.476 118.469 310.623 118.176 310.623 117.841C310.623 117.541 310.493 117.305 310.232 117.132C310.05 117.014 309.597 116.864 308.873 116.682C307.899 116.436 307.222 116.224 306.843 116.047C306.469 115.865 306.183 115.616 305.986 115.301C305.795 114.981 305.699 114.63 305.699 114.246C305.699 113.896 305.777 113.574 305.935 113.278C306.097 112.978 306.316 112.73 306.592 112.533C306.799 112.38 307.079 112.252 307.434 112.149C307.793 112.04 308.177 111.986 308.585 111.986C309.201 111.986 309.74 112.075 310.202 112.252C310.67 112.429 311.015 112.67 311.236 112.976C311.458 113.276 311.61 113.68 311.694 114.187L310.394 114.364C310.335 113.96 310.163 113.645 309.877 113.419C309.597 113.192 309.198 113.079 308.681 113.079C308.071 113.079 307.635 113.18 307.375 113.382C307.114 113.584 306.983 113.82 306.983 114.091C306.983 114.263 307.037 114.418 307.146 114.556C307.254 114.698 307.424 114.817 307.655 114.91C307.788 114.959 308.179 115.073 308.829 115.25C309.769 115.501 310.424 115.707 310.793 115.87C311.167 116.027 311.46 116.259 311.672 116.564C311.883 116.869 311.989 117.248 311.989 117.701C311.989 118.144 311.859 118.562 311.598 118.956C311.342 119.345 310.97 119.648 310.483 119.864C309.996 120.076 309.444 120.182 308.829 120.182C307.81 120.182 307.032 119.97 306.496 119.547C305.964 119.123 305.625 118.496 305.477 117.664Z" fill="white"/>
<path d="M317.785 110.709V109.181H319.114V110.709H317.785ZM317.785 120.005V112.164H319.114V120.005H317.785Z" fill="white"/>
<path d="M321.144 120.005V112.164H322.34V113.278C322.916 112.417 323.748 111.986 324.836 111.986C325.309 111.986 325.742 112.072 326.135 112.245C326.534 112.412 326.832 112.634 327.029 112.909C327.226 113.185 327.364 113.512 327.442 113.891C327.492 114.137 327.516 114.568 327.516 115.183V120.005H326.187V115.235C326.187 114.694 326.135 114.29 326.032 114.024C325.929 113.753 325.744 113.539 325.478 113.382C325.217 113.219 324.91 113.138 324.555 113.138C323.989 113.138 323.5 113.318 323.086 113.677C322.678 114.036 322.473 114.718 322.473 115.722V120.005H321.144Z" fill="white"/>
<path d="M334.013 120.005V109.181H341.316V110.458H335.446V113.81H340.526V115.087H335.446V120.005H334.013Z" fill="white"/>
<path d="M343.021 110.709V109.181H344.35V110.709H343.021ZM343.021 120.005V112.164H344.35V120.005H343.021Z" fill="white"/>
<path d="M346.38 120.005V112.164H347.577V113.278C348.152 112.417 348.984 111.986 350.072 111.986C350.545 111.986 350.978 112.072 351.372 112.245C351.77 112.412 352.068 112.634 352.265 112.909C352.462 113.185 352.6 113.512 352.678 113.891C352.728 114.137 352.752 114.568 352.752 115.183V120.005H351.423V115.235C351.423 114.694 351.372 114.29 351.268 114.024C351.165 113.753 350.98 113.539 350.714 113.382C350.454 113.219 350.146 113.138 349.792 113.138C349.225 113.138 348.736 113.318 348.322 113.677C347.914 114.036 347.709 114.718 347.709 115.722V120.005H346.38Z" fill="white"/>
<path d="M359.914 119.037C359.422 119.456 358.947 119.751 358.489 119.923C358.036 120.096 357.549 120.182 357.027 120.182C356.166 120.182 355.504 119.973 355.041 119.554C354.578 119.131 354.347 118.592 354.347 117.937C354.347 117.553 354.433 117.204 354.605 116.889C354.783 116.569 355.012 116.313 355.292 116.121C355.578 115.929 355.898 115.784 356.252 115.685C356.513 115.616 356.907 115.55 357.433 115.486C358.506 115.358 359.296 115.205 359.803 115.028C359.808 114.846 359.811 114.73 359.811 114.681C359.811 114.14 359.685 113.758 359.434 113.537C359.094 113.237 358.59 113.086 357.921 113.086C357.295 113.086 356.833 113.197 356.532 113.419C356.237 113.635 356.018 114.022 355.875 114.578L354.576 114.401C354.694 113.844 354.888 113.397 355.159 113.057C355.43 112.712 355.821 112.449 356.333 112.267C356.845 112.08 357.438 111.986 358.113 111.986C358.782 111.986 359.326 112.065 359.744 112.223C360.163 112.38 360.47 112.579 360.667 112.821C360.864 113.057 361.002 113.357 361.081 113.721C361.125 113.948 361.147 114.356 361.147 114.947V116.719C361.147 117.954 361.174 118.737 361.228 119.067C361.287 119.392 361.401 119.704 361.568 120.005H360.18C360.042 119.729 359.953 119.407 359.914 119.037ZM359.803 116.069C359.321 116.266 358.597 116.434 357.633 116.571C357.086 116.65 356.7 116.739 356.473 116.837C356.247 116.936 356.072 117.081 355.949 117.273C355.826 117.46 355.765 117.669 355.765 117.9C355.765 118.255 355.898 118.55 356.163 118.786C356.434 119.023 356.828 119.141 357.345 119.141C357.857 119.141 358.312 119.03 358.711 118.808C359.109 118.582 359.402 118.274 359.589 117.886C359.732 117.585 359.803 117.142 359.803 116.557V116.069Z" fill="white"/>
<path d="M363.214 120.005V112.164H364.41V113.278C364.986 112.417 365.818 111.986 366.906 111.986C367.379 111.986 367.812 112.072 368.205 112.245C368.604 112.412 368.902 112.634 369.099 112.909C369.296 113.185 369.434 113.512 369.512 113.891C369.562 114.137 369.586 114.568 369.586 115.183V120.005H368.257V115.235C368.257 114.694 368.205 114.29 368.102 114.024C367.999 113.753 367.814 113.539 367.548 113.382C367.287 113.219 366.98 113.138 366.625 113.138C366.059 113.138 365.57 113.318 365.156 113.677C364.748 114.036 364.543 114.718 364.543 115.722V120.005H363.214Z" fill="white"/>
<path d="M376.748 117.132L378.055 117.302C377.912 118.203 377.545 118.909 376.955 119.421C376.369 119.928 375.648 120.182 374.791 120.182C373.718 120.182 372.854 119.832 372.2 119.133C371.55 118.429 371.225 117.423 371.225 116.114C371.225 115.267 371.366 114.526 371.646 113.891C371.927 113.256 372.352 112.781 372.923 112.466C373.499 112.146 374.124 111.986 374.799 111.986C375.65 111.986 376.347 112.203 376.888 112.636C377.43 113.064 377.777 113.675 377.929 114.467L376.637 114.666C376.514 114.14 376.295 113.744 375.98 113.478C375.67 113.212 375.293 113.079 374.85 113.079C374.181 113.079 373.637 113.32 373.219 113.803C372.8 114.28 372.591 115.038 372.591 116.077C372.591 117.13 372.793 117.895 373.197 118.373C373.6 118.85 374.127 119.089 374.777 119.089C375.298 119.089 375.734 118.929 376.083 118.609C376.433 118.289 376.654 117.797 376.748 117.132Z" fill="white"/>
<path d="M379.199 110.709V109.181H380.528V110.709H379.199ZM379.199 120.005V112.164H380.528V120.005H379.199Z" fill="white"/>
<path d="M387.675 119.037C387.183 119.456 386.708 119.751 386.25 119.923C385.797 120.096 385.31 120.182 384.788 120.182C383.927 120.182 383.265 119.973 382.802 119.554C382.34 119.131 382.108 118.592 382.108 117.937C382.108 117.553 382.194 117.204 382.367 116.889C382.544 116.569 382.773 116.313 383.053 116.121C383.339 115.929 383.659 115.784 384.013 115.685C384.274 115.616 384.668 115.55 385.194 115.486C386.267 115.358 387.057 115.205 387.564 115.028C387.569 114.846 387.572 114.73 387.572 114.681C387.572 114.14 387.446 113.758 387.195 113.537C386.856 113.237 386.351 113.086 385.682 113.086C385.057 113.086 384.594 113.197 384.294 113.419C383.998 113.635 383.779 114.022 383.637 114.578L382.337 114.401C382.455 113.844 382.65 113.397 382.92 113.057C383.191 112.712 383.582 112.449 384.094 112.267C384.606 112.08 385.199 111.986 385.874 111.986C386.543 111.986 387.087 112.065 387.505 112.223C387.924 112.38 388.231 112.579 388.428 112.821C388.625 113.057 388.763 113.357 388.842 113.721C388.886 113.948 388.908 114.356 388.908 114.947V116.719C388.908 117.954 388.935 118.737 388.989 119.067C389.048 119.392 389.162 119.704 389.329 120.005H387.941C387.803 119.729 387.715 119.407 387.675 119.037ZM387.564 116.069C387.082 116.266 386.358 116.434 385.394 116.571C384.847 116.65 384.461 116.739 384.235 116.837C384.008 116.936 383.833 117.081 383.71 117.273C383.587 117.46 383.526 117.669 383.526 117.9C383.526 118.255 383.659 118.55 383.924 118.786C384.195 119.023 384.589 119.141 385.106 119.141C385.618 119.141 386.073 119.03 386.472 118.808C386.87 118.582 387.163 118.274 387.35 117.886C387.493 117.585 387.564 117.142 387.564 116.557V116.069Z" fill="white"/>
<path d="M390.946 120.005V109.181H392.275V120.005H390.946Z" fill="white"/>
<path d="M260.188 137.646V126.822H261.62V137.646H260.188Z" fill="white"/>
<path d="M263.983 137.646V129.805H265.179V130.92C265.755 130.058 266.587 129.627 267.675 129.627C268.147 129.627 268.58 129.714 268.974 129.886C269.373 130.053 269.671 130.275 269.867 130.55C270.064 130.826 270.202 131.153 270.281 131.532C270.33 131.778 270.355 132.209 270.355 132.824V137.646H269.026V132.876C269.026 132.335 268.974 131.931 268.871 131.665C268.767 131.395 268.583 131.18 268.317 131.023C268.056 130.86 267.748 130.779 267.394 130.779C266.828 130.779 266.338 130.959 265.925 131.318C265.516 131.678 265.312 132.359 265.312 133.363V137.646H263.983Z" fill="white"/>
<path d="M271.868 135.305L273.183 135.098C273.256 135.625 273.461 136.029 273.795 136.309C274.135 136.59 274.608 136.73 275.213 136.73C275.823 136.73 276.276 136.607 276.571 136.361C276.867 136.11 277.014 135.817 277.014 135.482C277.014 135.182 276.884 134.946 276.623 134.774C276.441 134.655 275.988 134.505 275.265 134.323C274.29 134.077 273.613 133.865 273.234 133.688C272.86 133.506 272.575 133.258 272.378 132.943C272.186 132.623 272.09 132.271 272.09 131.887C272.09 131.537 272.169 131.215 272.326 130.92C272.489 130.619 272.708 130.371 272.983 130.174C273.19 130.021 273.471 129.893 273.825 129.79C274.184 129.682 274.568 129.627 274.977 129.627C275.592 129.627 276.131 129.716 276.594 129.893C277.061 130.07 277.406 130.312 277.627 130.617C277.849 130.917 278.001 131.321 278.085 131.828L276.786 132.005C276.727 131.601 276.554 131.286 276.269 131.06C275.988 130.833 275.59 130.72 275.073 130.72C274.462 130.72 274.027 130.821 273.766 131.023C273.505 131.225 273.375 131.461 273.375 131.732C273.375 131.904 273.429 132.059 273.537 132.197C273.645 132.34 273.815 132.458 274.046 132.551C274.179 132.6 274.571 132.714 275.22 132.891C276.16 133.142 276.815 133.349 277.184 133.511C277.558 133.669 277.851 133.9 278.063 134.205C278.275 134.51 278.38 134.889 278.38 135.342C278.38 135.785 278.25 136.203 277.989 136.597C277.733 136.986 277.361 137.289 276.874 137.505C276.387 137.717 275.836 137.823 275.22 137.823C274.201 137.823 273.424 137.611 272.887 137.188C272.356 136.765 272.016 136.137 271.868 135.305Z" fill="white"/>
<path d="M282.862 136.457L283.054 137.631C282.68 137.71 282.345 137.749 282.05 137.749C281.568 137.749 281.193 137.673 280.928 137.52C280.662 137.368 280.475 137.168 280.366 136.922C280.258 136.671 280.204 136.147 280.204 135.349V130.838H279.229V129.805H280.204V127.863L281.526 127.065V129.805H282.862V130.838H281.526V135.423C281.526 135.802 281.548 136.046 281.592 136.154C281.641 136.263 281.718 136.349 281.821 136.413C281.929 136.477 282.082 136.509 282.279 136.509C282.426 136.509 282.621 136.491 282.862 136.457Z" fill="white"/>
<path d="M284.154 137.646V129.805H285.35V130.993C285.655 130.437 285.936 130.07 286.192 129.893C286.453 129.716 286.738 129.627 287.048 129.627C287.496 129.627 287.952 129.77 288.414 130.056L287.957 131.289C287.632 131.097 287.307 131.001 286.982 131.001C286.692 131.001 286.431 131.089 286.199 131.267C285.968 131.439 285.803 131.68 285.705 131.99C285.557 132.463 285.483 132.979 285.483 133.541V137.646H284.154Z" fill="white"/>
<path d="M294.343 137.646V136.494C293.733 137.38 292.903 137.823 291.855 137.823C291.392 137.823 290.959 137.734 290.555 137.557C290.157 137.38 289.859 137.158 289.662 136.893C289.47 136.622 289.335 136.292 289.256 135.903C289.202 135.642 289.175 135.229 289.175 134.663V129.805H290.504V134.153C290.504 134.847 290.531 135.315 290.585 135.556C290.669 135.906 290.846 136.181 291.117 136.383C291.387 136.58 291.722 136.678 292.121 136.678C292.519 136.678 292.893 136.578 293.243 136.376C293.592 136.169 293.839 135.891 293.981 135.541C294.129 135.187 294.203 134.675 294.203 134.006V129.805H295.532V137.646H294.343Z" fill="white"/>
<path d="M297.621 137.646V129.805H298.81V130.905C299.056 130.521 299.383 130.213 299.792 129.982C300.2 129.746 300.666 129.627 301.187 129.627C301.768 129.627 302.243 129.748 302.612 129.989C302.986 130.23 303.25 130.568 303.402 131.001C304.023 130.085 304.83 129.627 305.824 129.627C306.602 129.627 307.2 129.844 307.618 130.277C308.037 130.705 308.246 131.367 308.246 132.263V137.646H306.924V132.706C306.924 132.175 306.88 131.793 306.791 131.562C306.708 131.326 306.553 131.136 306.326 130.993C306.1 130.851 305.834 130.779 305.529 130.779C304.977 130.779 304.52 130.964 304.155 131.333C303.791 131.697 303.609 132.283 303.609 133.09V137.646H302.28V132.551C302.28 131.961 302.172 131.518 301.955 131.222C301.739 130.927 301.384 130.779 300.892 130.779C300.518 130.779 300.171 130.878 299.851 131.075C299.536 131.271 299.307 131.559 299.164 131.938C299.022 132.317 298.95 132.864 298.95 133.578V137.646H297.621Z" fill="white"/>
<path d="M315.585 135.121L316.958 135.29C316.741 136.093 316.34 136.715 315.755 137.158C315.169 137.601 314.421 137.823 313.51 137.823C312.363 137.823 311.453 137.471 310.778 136.767C310.109 136.058 309.774 135.066 309.774 133.792C309.774 132.472 310.114 131.449 310.793 130.72C311.472 129.992 312.353 129.627 313.436 129.627C314.485 129.627 315.341 129.984 316.006 130.698C316.67 131.412 317.002 132.416 317.002 133.71C317.002 133.789 317 133.907 316.995 134.065H311.147C311.197 134.926 311.44 135.586 311.878 136.044C312.316 136.501 312.863 136.73 313.517 136.73C314.005 136.73 314.421 136.602 314.765 136.346C315.11 136.09 315.383 135.682 315.585 135.121ZM311.221 132.972H315.6C315.54 132.312 315.373 131.818 315.097 131.488C314.674 130.976 314.125 130.72 313.451 130.72C312.841 130.72 312.326 130.924 311.908 131.333C311.494 131.742 311.266 132.288 311.221 132.972Z" fill="white"/>
<path d="M318.634 137.646V129.805H319.83V130.92C320.406 130.058 321.238 129.627 322.326 129.627C322.798 129.627 323.231 129.714 323.625 129.886C324.024 130.053 324.322 130.275 324.519 130.55C324.715 130.826 324.853 131.153 324.932 131.532C324.981 131.778 325.006 132.209 325.006 132.824V137.646H323.677V132.876C323.677 132.335 323.625 131.931 323.522 131.665C323.418 131.395 323.234 131.18 322.968 131.023C322.707 130.86 322.4 130.779 322.045 130.779C321.479 130.779 320.989 130.959 320.576 131.318C320.167 131.678 319.963 132.359 319.963 133.363V137.646H318.634Z" fill="white"/>
<path d="M329.953 136.457L330.145 137.631C329.771 137.71 329.436 137.749 329.14 137.749C328.658 137.749 328.284 137.673 328.018 137.52C327.752 137.368 327.565 137.168 327.457 136.922C327.349 136.671 327.295 136.147 327.295 135.349V130.838H326.32V129.805H327.295V127.863L328.616 127.065V129.805H329.953V130.838H328.616V135.423C328.616 135.802 328.638 136.046 328.683 136.154C328.732 136.263 328.808 136.349 328.912 136.413C329.02 136.477 329.172 136.509 329.369 136.509C329.517 136.509 329.711 136.491 329.953 136.457Z" fill="white"/>
<path d="M330.728 135.305L332.042 135.098C332.116 135.625 332.32 136.029 332.655 136.309C332.995 136.59 333.467 136.73 334.073 136.73C334.683 136.73 335.136 136.607 335.431 136.361C335.726 136.11 335.874 135.817 335.874 135.482C335.874 135.182 335.744 134.946 335.483 134.774C335.301 134.655 334.848 134.505 334.124 134.323C333.15 134.077 332.473 133.865 332.094 133.688C331.72 133.506 331.434 133.258 331.237 132.943C331.045 132.623 330.949 132.271 330.949 131.887C330.949 131.537 331.028 131.215 331.186 130.92C331.348 130.619 331.567 130.371 331.843 130.174C332.049 130.021 332.33 129.893 332.684 129.79C333.044 129.682 333.428 129.627 333.836 129.627C334.452 129.627 334.991 129.716 335.453 129.893C335.921 130.07 336.265 130.312 336.487 130.617C336.708 130.917 336.861 131.321 336.945 131.828L335.645 132.005C335.586 131.601 335.414 131.286 335.128 131.06C334.848 130.833 334.449 130.72 333.932 130.72C333.322 130.72 332.886 130.821 332.625 131.023C332.365 131.225 332.234 131.461 332.234 131.732C332.234 131.904 332.288 132.059 332.397 132.197C332.505 132.34 332.675 132.458 332.906 132.551C333.039 132.6 333.43 132.714 334.08 132.891C335.02 133.142 335.675 133.349 336.044 133.511C336.418 133.669 336.711 133.9 336.922 134.205C337.134 134.51 337.24 134.889 337.24 135.342C337.24 135.785 337.11 136.203 336.849 136.597C336.593 136.986 336.221 137.289 335.734 137.505C335.246 137.717 334.695 137.823 334.08 137.823C333.061 137.823 332.283 137.611 331.747 137.188C331.215 136.765 330.876 136.137 330.728 135.305Z" fill="white"/>
<path d="M343.198 137.646V126.822H346.927C347.769 126.822 348.411 126.873 348.854 126.977C349.474 127.12 350.003 127.378 350.441 127.752C351.012 128.234 351.438 128.852 351.719 129.605C352.004 130.353 352.147 131.21 352.147 132.175C352.147 132.997 352.051 133.725 351.859 134.36C351.667 134.995 351.421 135.522 351.121 135.94C350.82 136.354 350.49 136.681 350.131 136.922C349.777 137.158 349.346 137.338 348.839 137.461C348.337 137.584 347.759 137.646 347.104 137.646H343.198ZM344.631 136.368H346.942C347.655 136.368 348.214 136.302 348.618 136.169C349.026 136.036 349.351 135.849 349.592 135.608C349.932 135.268 350.195 134.813 350.382 134.242C350.574 133.666 350.67 132.97 350.67 132.153C350.67 131.02 350.483 130.152 350.109 129.546C349.74 128.936 349.289 128.527 348.758 128.321C348.374 128.173 347.756 128.099 346.905 128.099H344.631V136.368Z" fill="white"/>
<path d="M353.963 128.35V126.822H355.292V128.35H353.963ZM353.963 137.646V129.805H355.292V137.646H353.963Z" fill="white"/>
<path d="M357.308 137.646V129.805H358.504V130.993C358.809 130.437 359.09 130.07 359.346 129.893C359.606 129.716 359.892 129.627 360.202 129.627C360.65 129.627 361.105 129.77 361.568 130.056L361.11 131.289C360.785 131.097 360.46 131.001 360.136 131.001C359.845 131.001 359.584 131.089 359.353 131.267C359.122 131.439 358.957 131.68 358.858 131.99C358.711 132.463 358.637 132.979 358.637 133.541V137.646H357.308Z" fill="white"/>
<path d="M367.726 135.121L369.099 135.29C368.882 136.093 368.481 136.715 367.895 137.158C367.31 137.601 366.561 137.823 365.651 137.823C364.504 137.823 363.593 137.471 362.919 136.767C362.25 136.058 361.915 135.066 361.915 133.792C361.915 132.472 362.255 131.449 362.934 130.72C363.613 129.992 364.494 129.627 365.577 129.627C366.625 129.627 367.482 129.984 368.146 130.698C368.811 131.412 369.143 132.416 369.143 133.71C369.143 133.789 369.141 133.907 369.136 134.065H363.288C363.337 134.926 363.581 135.586 364.019 136.044C364.457 136.501 365.004 136.73 365.658 136.73C366.146 136.73 366.561 136.602 366.906 136.346C367.251 136.09 367.524 135.682 367.726 135.121ZM363.362 132.972H367.74C367.681 132.312 367.514 131.818 367.238 131.488C366.815 130.976 366.266 130.72 365.592 130.72C364.981 130.72 364.467 130.924 364.049 131.333C363.635 131.742 363.406 132.288 363.362 132.972Z" fill="white"/>
<path d="M375.891 134.774L377.198 134.943C377.056 135.844 376.689 136.551 376.098 137.062C375.512 137.569 374.791 137.823 373.935 137.823C372.862 137.823 371.998 137.473 371.343 136.774C370.694 136.071 370.369 135.064 370.369 133.755C370.369 132.908 370.509 132.167 370.79 131.532C371.07 130.897 371.496 130.422 372.067 130.107C372.643 129.787 373.268 129.627 373.942 129.627C374.794 129.627 375.49 129.844 376.032 130.277C376.573 130.705 376.92 131.316 377.073 132.108L375.781 132.308C375.658 131.781 375.439 131.385 375.124 131.119C374.813 130.853 374.437 130.72 373.994 130.72C373.325 130.72 372.781 130.961 372.362 131.444C371.944 131.921 371.735 132.679 371.735 133.718C371.735 134.771 371.936 135.537 372.34 136.014C372.744 136.491 373.27 136.73 373.92 136.73C374.442 136.73 374.877 136.57 375.227 136.25C375.576 135.93 375.798 135.438 375.891 134.774Z" fill="white"/>
<path d="M381.237 136.457L381.429 137.631C381.055 137.71 380.72 137.749 380.425 137.749C379.942 137.749 379.568 137.673 379.303 137.52C379.037 137.368 378.85 137.168 378.741 136.922C378.633 136.671 378.579 136.147 378.579 135.349V130.838H377.604V129.805H378.579V127.863L379.901 127.065V129.805H381.237V130.838H379.901V135.423C379.901 135.802 379.923 136.046 379.967 136.154C380.016 136.263 380.093 136.349 380.196 136.413C380.304 136.477 380.457 136.509 380.654 136.509C380.801 136.509 380.996 136.491 381.237 136.457Z" fill="white"/>
<path d="M382.551 128.35V126.822H383.88V128.35H382.551ZM382.551 137.646V129.805H383.88V137.646H382.551Z" fill="white"/>
<path d="M388.089 137.646L385.106 129.805H386.509L388.192 134.5C388.374 135.007 388.541 135.534 388.694 136.08C388.812 135.667 388.977 135.17 389.189 134.589L390.931 129.805H392.297L389.329 137.646H388.089Z" fill="white"/>
<path d="M398.839 135.121L400.212 135.29C399.995 136.093 399.594 136.715 399.009 137.158C398.423 137.601 397.675 137.823 396.764 137.823C395.617 137.823 394.707 137.471 394.032 136.767C393.363 136.058 393.028 135.066 393.028 133.792C393.028 132.472 393.368 131.449 394.047 130.72C394.726 129.992 395.607 129.627 396.69 129.627C397.739 129.627 398.595 129.984 399.26 130.698C399.924 131.412 400.256 132.416 400.256 133.71C400.256 133.789 400.254 133.907 400.249 134.065H394.401C394.451 134.926 394.694 135.586 395.132 136.044C395.57 136.501 396.117 136.73 396.771 136.73C397.259 136.73 397.675 136.602 398.019 136.346C398.364 136.09 398.637 135.682 398.839 135.121ZM394.475 132.972H398.853C398.794 132.312 398.627 131.818 398.351 131.488C397.928 130.976 397.379 130.72 396.705 130.72C396.095 130.72 395.58 130.924 395.162 131.333C394.748 131.742 394.519 132.288 394.475 132.972Z" fill="white"/>
<path d="M259.625 98.1621V65.6904H266.093L273.779 88.682C274.487 90.8231 275.004 92.4253 275.329 93.4885C275.698 92.3072 276.274 90.5721 277.057 88.2833L284.831 65.6904H290.612V98.1621H286.47V70.9842L277.035 98.1621H273.158L263.767 70.5191V98.1621H259.625Z" fill="white"/>
<path d="M297.058 70.2755V65.6904H301.045V70.2755H297.058ZM297.058 98.1621V74.639H301.045V98.1621H297.058Z" fill="white"/>
<path d="M307.867 98.1621V65.6904H329.773V69.5224H312.164V79.5784H327.403V83.4103H312.164V98.1621H307.867Z" fill="white"/>
<path d="M336.108 98.1621V65.6904H340.405V98.1621H336.108Z" fill="white"/>
<path d="M348.003 98.1621V65.6904H359.188C361.713 65.6904 363.641 65.8455 364.969 66.1556C366.83 66.5838 368.417 67.3591 369.732 68.4813C371.445 69.9284 372.722 71.7816 373.564 74.0409C374.42 76.2854 374.848 78.8548 374.848 81.7491C374.848 84.2151 374.56 86.4005 373.984 88.3054C373.409 90.2103 372.67 91.7903 371.77 93.0455C370.869 94.2859 369.879 95.2679 368.801 95.9914C367.738 96.7002 366.446 97.2392 364.925 97.6084C363.419 97.9775 361.684 98.1621 359.72 98.1621H348.003ZM352.3 94.3302H359.233C361.374 94.3302 363.05 94.1308 364.261 93.7321C365.486 93.3335 366.461 92.7723 367.184 92.0488C368.203 91.0299 368.993 89.664 369.555 87.951C370.13 86.2233 370.418 84.1339 370.418 81.6826C370.418 78.2863 369.857 75.68 368.735 73.8637C367.627 72.0327 366.276 70.807 364.682 70.1869C363.53 69.7439 361.677 69.5224 359.122 69.5224H352.3V94.3302Z" fill="white"/>
<path fill-rule="evenodd" clip-rule="evenodd" d="M198.963 61.6437L197.454 57L195.945 61.6437H191.063L195.013 64.5137L193.504 69.1574L197.454 66.2874L201.404 69.1574L199.895 64.5137L203.845 61.6437H198.963ZM218.494 66.8772L216.985 62.2335L215.477 66.8772H210.594L214.544 69.7472L213.035 74.3909L216.985 71.5209L220.935 74.3909L219.427 69.7472L223.377 66.8772H218.494ZM231.283 76.5313L232.792 81.175H237.674L233.724 84.0449L235.233 88.6886L231.283 85.8187L227.333 88.6886L228.842 84.0449L224.891 81.175H229.774L231.283 76.5313ZM238.025 100.706L236.516 96.0625L235.008 100.706H230.125L234.075 103.576L232.566 108.22L236.516 105.35L240.467 108.22L238.958 103.576L242.908 100.706H238.025ZM216.985 129.891L218.494 134.535H223.377L219.427 137.405L220.935 142.049L216.985 139.179L213.035 142.049L214.544 137.405L210.594 134.535H215.477L216.985 129.891ZM232.792 120.237L231.283 115.594L229.774 120.237H224.891L228.842 123.107L227.333 127.751L231.283 124.881L235.233 127.751L233.724 123.107L237.674 120.237H232.792ZM197.454 135.125L198.963 139.769H203.845L199.895 142.639L201.404 147.282L197.454 144.412L193.504 147.282L195.013 142.639L191.063 139.769H195.945L197.454 135.125ZM179.431 134.535L177.923 129.891L176.414 134.535H171.531L175.481 137.405L173.973 142.049L177.923 139.179L181.873 142.049L180.364 137.405L184.314 134.535H179.431ZM163.625 115.594L165.134 120.237H170.016L166.066 123.107L167.575 127.751L163.625 124.881L159.675 127.751L161.184 123.107L157.234 120.237H162.116L163.625 115.594ZM159.9 100.706L158.391 96.0625L156.883 100.706H152L155.95 103.576L154.441 108.22L158.391 105.35L162.342 108.22L160.833 103.576L164.783 100.706H159.9ZM177.923 62.2333L179.431 66.877H184.314L180.364 69.747L181.873 74.3907L177.923 71.5207L173.973 74.3907L175.481 69.747L171.531 66.877H176.414L177.923 62.2333ZM165.134 81.175L163.625 76.5313L162.116 81.175H157.234L161.184 84.0449L159.675 88.6886L163.625 85.8187L167.575 88.6886L166.066 84.0449L170.016 81.175H165.134Z" fill="white"/>
<path opacity="0.05" fill-rule="evenodd" clip-rule="evenodd" d="M9.3148 -13.7296L5 -27L0.685204 -13.7296H-13.2798L-1.98251 -5.52817L-6.29731 7.74207L5 -0.459373L16.2973 7.74207L11.9825 -5.52817L23.2798 -13.7296H9.3148ZM65.1749 1.22622L60.8601 -12.0442L56.5453 1.22622H42.5803L53.8776 9.42767L49.5628 22.6979L60.8601 14.4965L72.1574 22.6979L67.8426 9.42767L79.1399 1.22622H65.1749ZM101.752 28.8145L106.067 42.0849H120.032L108.735 50.2863L113.049 63.5565L101.752 55.3551L90.4548 63.5565L94.7696 50.2863L83.4723 42.0849H97.4373L101.752 28.8145ZM121.035 97.8993L116.72 84.629L112.405 97.8993H98.4404L109.738 106.101L105.423 119.371L116.72 111.17L128.017 119.371L123.703 106.101L135 97.8993H121.035ZM60.8601 181.302L65.1749 194.572H79.1399L67.8426 202.774L72.1574 216.044L60.8601 207.843L49.5628 216.044L53.8776 202.774L42.5803 194.572H56.5453L60.8601 181.302ZM106.067 153.714L101.752 140.443L97.4373 153.714H83.4723L94.7696 161.915L90.4548 175.186L101.752 166.984L113.049 175.186L108.735 161.915L120.032 153.714H106.067ZM5 196.258L9.3148 209.528H23.2798L11.9825 217.73L16.2973 231L5 222.799L-6.29731 231L-1.98251 217.73L-13.2798 209.528H0.685204L5 196.258ZM-46.5453 194.572L-50.8601 181.302L-55.1749 194.572H-69.1399L-57.8426 202.774L-62.1574 216.044L-50.8601 207.843L-39.5628 216.044L-43.8776 202.774L-32.5803 194.572H-46.5453ZM-91.7521 140.443L-87.4373 153.714H-73.4723L-84.7696 161.915L-80.4548 175.186L-91.7521 166.984L-103.049 175.186L-98.7346 161.915L-110.032 153.714H-96.0669L-91.7521 140.443ZM-102.405 97.8993L-106.72 84.629L-111.035 97.8993H-125L-113.703 106.101L-118.017 119.371L-106.72 111.17L-95.4229 119.371L-99.7377 106.101L-88.4404 97.8993H-102.405ZM-50.8601 -12.0448L-46.5453 1.22563H-32.5803L-43.8776 9.42708L-39.5628 22.6973L-50.8601 14.4959L-62.1574 22.6973L-57.8426 9.42708L-69.1399 1.22563H-55.1749L-50.8601 -12.0448ZM-87.4373 42.0849L-91.7521 28.8145L-96.0669 42.0849H-110.032L-98.7346 50.2863L-103.049 63.5565L-91.7521 55.3551L-80.4548 63.5565L-84.7696 50.2863L-73.4723 42.0849H-87.4373Z" fill="white"/>
</g>
<defs>
<clipPath id="clip0">
<rect width="552" height="204" rx="12" fill="white"/>
</clipPath>
</defs>
</svg>
