<svg width="50" height="50" viewBox="0 0 50 50" fill="none" xmlns="http://www.w3.org/2000/svg">
<rect width="50" height="50" rx="12" fill="#393FCC"/>
<path d="M33.5252 27.3774C33.3505 27.3286 33.1662 27.3027 32.9763 27.3027H29.0377C28.3364 27.3027 27.7656 27.8735 27.7656 28.5753V29.1771C28.0962 29.0552 30.8458 29.1349 31.2492 29.1136C32.7955 29.1138 34.0457 30.3729 34.0447 31.9092V32.5597C34.6379 32.1097 35.0218 31.3978 35.0218 30.5975V29.3483C35.0218 28.4103 34.3875 27.6181 33.5252 27.3774Z" fill="white"/>
<path d="M38 12.8464C36.1024 11.8283 33.6648 12.5458 32.6446 14.5079L31.5508 16.5976L34.262 20.1116L38 12.8464Z" fill="white"/>
<path d="M32.5212 31.9091C32.524 31.221 31.9563 30.6354 31.2491 30.637H28.3373C28.0321 30.637 27.7564 30.765 27.5609 30.9706C26.7688 31.8516 27.6748 33.2656 28.7817 33.2253H30.2264V34.7487C30.1305 34.7487 26.5325 34.7487 26.2939 34.7487C23.8014 33.1986 21.7846 33.3427 19.0017 33.3598V31.8364C21.4949 31.8191 23.6393 31.7108 25.9593 32.8383C25.6039 31.9972 25.684 30.9006 26.2421 30.1789V28.5753C26.2421 27.0336 27.4959 25.7793 29.0376 25.7793C29.3793 25.7942 33.3032 25.7389 33.5252 25.8214V21.665L28.0819 14.614C26.5896 14.614 25.5743 15.9327 25.7384 17.2601C25.5297 15.9411 24.6402 14.761 23.2607 14.3159L16.779 25.1796H12V35.4206H15.2454C16.8954 36.0182 19.6386 37.0125 21.3026 37.6154H28.0387C30.2934 37.6154 32.1647 35.9421 32.4755 33.7722C32.5559 33.3504 32.5089 32.3488 32.5212 31.9091ZM25.29 19.7429C25.7138 18.9879 25.8589 18.1741 25.7518 17.3542C25.8038 17.6675 25.9225 17.9796 26.1172 18.2733L28.2459 21.4471V23.2067H23.2546L25.29 19.7429Z" fill="white"/>
</svg>
