<svg width="50" height="50" viewBox="0 0 50 50" fill="none" xmlns="http://www.w3.org/2000/svg">
<rect width="50" height="50" rx="12" fill="#393FCC"/>
<g clip-path="url(#clip0)">
<path d="M26.7682 29.2711C26.6711 29.1648 26.5483 29.0852 26.4213 29.019C26.1449 28.8748 25.8426 28.7874 25.5425 28.7085V31.0343C26.0297 30.9792 26.589 30.8024 26.8448 30.3476C26.9669 30.1304 26.9912 29.8634 26.9414 29.6216C26.9144 29.4906 26.8587 29.3703 26.7682 29.2711Z" fill="white"/>
<path d="M26.8423 30.3521C26.8433 30.3505 26.8438 30.3494 26.8449 30.3477C26.844 30.3491 26.8431 30.3506 26.8423 30.3521Z" fill="white"/>
<path d="M23.2572 25.5532C23.1734 25.6755 23.1209 25.8145 23.1064 25.9622C23.0919 26.1102 23.1 26.2748 23.1563 26.4141C23.2098 26.5469 23.3219 26.6449 23.4377 26.7238C23.5676 26.8121 23.7104 26.8811 23.8559 26.9396C23.978 26.9888 24.1152 27.0357 24.2632 27.0811V24.9766C23.8894 25.0563 23.4809 25.2267 23.2572 25.5532Z" fill="white"/>
<path d="M26.8543 30.3306C26.8513 30.336 26.848 30.3417 26.8447 30.3477C26.8485 30.3407 26.8515 30.3356 26.8543 30.3306Z" fill="white"/>
<path d="M26.8667 30.3088C26.8675 30.3073 26.8676 30.3072 26.8667 30.3088V30.3088Z" fill="white"/>
<path d="M26.3618 17.6572C28.3397 15.9957 29.6613 12.2525 28.8479 12.0888C27.7673 11.8712 25.4206 12.8254 24.2863 12.9935C22.6775 13.1878 20.9253 11.249 19.9418 12.3297C19.1421 13.2083 20.5151 16.4037 22.6632 17.7958C16.2545 20.9456 7.24675 36.7576 22.9613 37.9049C44.7051 39.4925 33.8172 20.7266 26.3618 17.6572ZM28.2292 30.1273C28.1623 30.7438 27.8356 31.3012 27.3473 31.6797C26.8317 32.0793 26.1849 32.2652 25.5424 32.3172V32.9983C25.5424 33.1806 25.4628 33.3568 25.3263 33.4775C25.1388 33.6434 24.8633 33.6843 24.6357 33.5795C24.411 33.4761 24.2633 33.2456 24.2633 32.9983V32.2539C24.1532 32.233 24.0438 32.2081 23.9357 32.1784C23.3351 32.0134 22.7781 31.6918 22.3712 31.2159C22.1685 30.9787 22.0033 30.7096 21.889 30.4191C21.8591 30.3431 21.8325 30.2658 21.8092 30.1876C21.7881 30.1168 21.7663 30.0449 21.7588 29.9711C21.7461 29.8474 21.7707 29.7211 21.8283 29.6108C21.9469 29.384 22.1968 29.2471 22.4519 29.2698C22.703 29.2921 22.923 29.4663 23.0021 29.7057C23.0264 29.7794 23.0429 29.8549 23.0703 29.9279C23.0974 30.0003 23.1301 30.0707 23.1686 30.1378C23.2446 30.2698 23.3398 30.3915 23.4494 30.4972C23.6754 30.7149 23.9633 30.8564 24.2633 30.9406V28.4101C23.6766 28.2582 23.0709 28.062 22.5864 27.6853C22.3509 27.5021 22.1511 27.2745 22.0202 27.0051C21.8821 26.7208 21.8249 26.4041 21.8226 26.0895C21.8202 25.7701 21.8809 25.4535 22.0141 25.1625C22.139 24.89 22.3186 24.6453 22.5389 24.4425C23.01 24.0089 23.6358 23.7671 24.2634 23.6783V23.6226V22.9712C24.2634 22.789 24.343 22.6127 24.4794 22.4921C24.667 22.3262 24.9424 22.2852 25.1701 22.3901C25.3947 22.4935 25.5424 22.7239 25.5424 22.9712V23.6226V23.6744C25.6261 23.6849 25.7094 23.6975 25.7924 23.7126C26.4087 23.8241 27.0115 24.0786 27.4622 24.523C27.6757 24.7334 27.8505 24.9842 27.9734 25.2577C28.0078 25.334 28.0378 25.412 28.0638 25.4916C28.088 25.5658 28.1124 25.6423 28.1239 25.7197C28.1424 25.8433 28.1236 25.9711 28.0707 26.0842C27.9622 26.316 27.7191 26.4635 27.4633 26.4526C27.212 26.4416 26.9843 26.278 26.8943 26.043C26.8675 25.9732 26.8541 25.8992 26.8268 25.8295C26.7992 25.759 26.7634 25.6917 26.7223 25.6281C26.6422 25.5045 26.5385 25.3986 26.4202 25.3113C26.1638 25.122 25.8529 25.0234 25.5422 24.9682V27.3898C25.9115 27.4782 26.281 27.5747 26.6347 27.7142C27.1694 27.925 27.676 28.2482 27.9678 28.758C27.9225 28.6786 27.8785 28.6012 27.9693 28.7606C28.0585 28.9172 28.016 28.8426 27.9712 28.7641C28.2034 29.1733 28.2796 29.6625 28.2292 30.1273Z" fill="white"/>
<path d="M26.8352 30.3643C26.8315 30.3709 26.8283 30.3768 26.8257 30.3813C26.8279 30.3774 26.8312 30.3716 26.8352 30.3643Z" fill="white"/>
</g>
<defs>
<clipPath id="clip0">
<rect width="26" height="26" fill="white" transform="translate(12 12)"/>
</clipPath>
</defs>
</svg>
