<svg width="50" height="50" viewBox="0 0 50 50" fill="none" xmlns="http://www.w3.org/2000/svg">
<rect width="50" height="50" rx="12" fill="#393FCC"/>
<path d="M25 18C20.031 18 15 19.546 15 22.5C15 25.454 20.031 27 25 27C29.97 27 35 25.454 35 22.5C35 19.546 29.97 18 25 18ZM20 27.938V30.938C21.237 31.237 22.605 31.42 24 31.479V28.479C22.6525 28.4265 21.3131 28.2453 20 27.938ZM26 28.478V31.478C27.3476 31.4266 28.6871 31.2454 30 30.937V27.937C28.6871 28.2454 27.3476 28.4266 26 28.478ZM32 27.297V30.297C33.801 29.542 35 28.44 35 27V24C35 25.44 33.801 26.542 32 27.297ZM18 30.297V27.297C16.2 26.542 15 25.439 15 24V27C15 28.439 16.2 29.542 18 30.297Z" fill="white"/>
</svg>
