<svg width="50" height="50" viewBox="0 0 50 50" fill="none" xmlns="http://www.w3.org/2000/svg">
<rect width="50" height="50" rx="12" fill="#393FCC"/>
<path d="M37.5938 23.9842C37.5938 26.3404 35.725 28.2498 33.4094 28.3311C33.4094 28.1686 33.4094 28.0061 33.4094 27.8436C33.4094 23.2123 29.6313 19.3936 25 19.3936C20.3688 19.3936 16.5906 23.2123 16.5906 27.8436C16.5906 28.0061 16.5906 28.1686 16.5906 28.3311C14.275 28.2498 12.4062 26.3404 12.4062 23.9842C12.4062 22.1154 13.625 20.4498 15.3719 19.8811C15.7375 16.8748 18.3781 14.5186 21.425 14.5186C23.2937 14.5186 25.0406 15.3717 26.2188 16.8342C27.1531 15.7373 28.5344 15.0873 29.9969 15.0873C32.6781 15.0873 34.9125 17.2811 34.9125 19.9623C36.5375 20.6123 37.5938 22.1967 37.5938 23.9842Z" fill="white"/>
<path d="M25 22.8877C22.2781 22.8877 20.0437 25.1221 20.0437 27.8439C20.0437 30.5658 22.2781 32.8002 25 32.8002C27.7218 32.8002 29.9562 30.5658 29.9562 27.8439C29.9562 25.1221 27.7218 22.8877 25 22.8877ZM26.3812 30.1189C26.1375 30.3627 25.7718 30.5252 25.325 30.5658V31.2564H24.7562V30.5658C24.2687 30.5252 23.9031 30.3221 23.6593 30.0377C23.4156 29.7533 23.2937 29.3877 23.2937 28.9002H24.1875C24.1875 29.1846 24.2687 29.4283 24.4312 29.5908C24.5937 29.7533 24.7968 29.8346 25.0812 29.8346C25.3656 29.8346 25.5687 29.7533 25.6906 29.6314C25.8125 29.5096 25.8937 29.3064 25.8937 29.1033C25.8937 28.9002 25.8125 28.7377 25.6906 28.6158C25.5687 28.4939 25.325 28.3721 25.0406 28.2502C24.7562 28.1283 24.5125 28.0471 24.35 27.9658C23.7812 27.6814 23.4968 27.2346 23.4968 26.6252C23.4968 26.2189 23.6187 25.8939 23.8625 25.6502C24.1062 25.4064 24.4312 25.2439 24.8375 25.2033V24.4314H25.4062V25.2439C25.8125 25.2846 26.1375 25.4877 26.3812 25.7721C26.625 26.0564 26.7062 26.4627 26.7062 26.9096H25.8125C25.8125 26.6252 25.7312 26.3814 25.6093 26.1783C25.4875 26.0158 25.2843 25.9346 25.0406 25.9346C24.7968 25.9346 24.6343 26.0158 24.5125 26.1377C24.3906 26.2596 24.3093 26.4221 24.3093 26.6658C24.3093 26.8689 24.3906 27.0314 24.5125 27.1533C24.6343 27.2752 24.8781 27.3971 25.1625 27.5189C25.4875 27.6408 25.6906 27.7221 25.8937 27.8439C26.0562 27.9252 26.2187 28.0471 26.3406 28.1689C26.4625 28.2908 26.5437 28.4127 26.625 28.5752C26.7062 28.7377 26.7062 28.9408 26.7062 29.1439C26.7468 29.5502 26.625 29.8752 26.3812 30.1189Z" fill="white"/>
<path d="M25 20.2061C20.775 20.2061 17.3625 23.6186 17.3625 27.8436C17.3625 32.0686 20.775 35.4811 25 35.4811C29.225 35.4811 32.6375 32.0686 32.6375 27.8436C32.6375 23.6186 29.225 20.2061 25 20.2061ZM25 33.5717C21.8313 33.5717 19.2719 31.0123 19.2719 27.8436C19.2719 24.6748 21.8313 22.1154 25 22.1154C28.1688 22.1154 30.7282 24.6748 30.7282 27.8436C30.7282 31.0123 28.1688 33.5717 25 33.5717Z" fill="white"/>
</svg>
