<svg width="50" height="50" viewBox="0 0 50 50" fill="none" xmlns="http://www.w3.org/2000/svg">
<rect width="50" height="50" rx="12" fill="#393FCC"/>
<path d="M15.8286 30.2411H30.9726C31.1084 30.2411 31.2397 30.1936 31.3438 30.1069C31.4893 29.9851 34.8073 27.1308 35.0096 20.9692H18.7453C18.5437 26.5622 15.488 29.1911 15.4562 29.2173C15.2701 29.3747 15.2016 29.6316 15.2853 29.8602C15.3685 30.0883 15.5853 30.2411 15.8286 30.2411Z" fill="white"/>
<path d="M34.4496 17.4925H31.5521V16.913C31.5521 16.5885 31.2971 16.3335 30.9726 16.3335C30.6481 16.3335 30.3931 16.5885 30.3931 16.913V17.4925H27.4571V16.913C27.4571 16.5885 27.2021 16.3335 26.8776 16.3335C26.5531 16.3335 26.2981 16.5885 26.2981 16.913V17.4925H23.4006V16.913C23.4006 16.5885 23.1457 16.3335 22.8211 16.3335C22.4966 16.3335 22.2416 16.5885 22.2416 16.913V17.4925H19.3442C19.0197 17.4925 18.7647 17.7475 18.7647 18.072V19.8104H35.0291V18.072C35.0291 17.7475 34.7741 17.4925 34.4496 17.4925Z" fill="white"/>
<path d="M32.088 30.9954C31.7734 31.2574 31.3784 31.4 30.9726 31.4H18.7647V33.1385C18.7647 33.4588 19.0239 33.718 19.3442 33.718H34.4496C34.7699 33.718 35.0291 33.4588 35.0291 33.1385V26.6426C33.9118 29.3836 32.3527 30.7738 32.088 30.9954Z" fill="white"/>
</svg>
