<svg width="50" height="50" viewBox="0 0 50 50" fill="none" xmlns="http://www.w3.org/2000/svg">
<rect width="50" height="50" rx="12" fill="#393FCC"/>
<path d="M13.5829 36.9652C13.612 36.9765 13.6442 36.976 13.6729 36.9638C13.7016 36.9516 13.7243 36.9287 13.7363 36.9C14.4181 35.2635 18.9241 24.9969 26.5652 20.0752C18.8351 23.873 14.6781 33.6677 13.5139 36.8125C13.503 36.842 13.5041 36.8745 13.5171 36.9031C13.53 36.9316 13.5537 36.954 13.5829 36.9652Z" fill="white"/>
<path d="M14.64 26.511C14.6791 26.2668 14.773 26.0346 14.9148 25.832C14.5752 25.8161 14.2489 25.6947 13.9814 25.4849C13.9757 25.8219 13.8762 26.1506 13.6941 26.4342C14.0286 26.4616 14.3488 26.5821 14.6183 26.7821C14.6185 26.6913 14.6257 26.6007 14.64 26.511Z" fill="white"/>
<path d="M14.9464 25.3251C15.147 25.3305 15.3469 25.2993 15.5364 25.2332C15.5971 25.2132 15.6629 25.2158 15.7218 25.2404C15.7808 25.2651 15.8288 25.3102 15.857 25.3675C15.8853 25.4248 15.8919 25.4904 15.8757 25.5521C15.8594 25.6139 15.8214 25.6677 15.7686 25.7037C15.0254 26.2125 15.0641 26.7947 15.2166 27.3479C15.2348 27.4132 15.2287 27.4828 15.1995 27.544C15.1703 27.6051 15.12 27.6537 15.0578 27.6806C15.0213 27.6968 14.9818 27.7053 14.9418 27.7053C14.8977 27.7053 14.8543 27.6949 14.815 27.6748C14.7757 27.6548 14.7418 27.6258 14.7159 27.5901C14.6521 27.5028 14.5811 27.4211 14.5035 27.3457C14.2711 29.461 14.8314 31.1128 15.1572 31.8611C17.4008 27.5202 21.2266 21.9059 26.8508 19.3799C26.9612 19.3305 27.0863 19.325 27.2007 19.3646C27.315 19.4042 27.4099 19.4859 27.4661 19.5931C27.5223 19.7002 27.5355 19.8248 27.503 19.9413C27.4705 20.0579 27.3949 20.1577 27.2914 20.2204C22.2625 23.2648 18.5575 28.728 16.379 32.6595C16.828 32.738 17.2839 32.7705 17.7395 32.7565C18.6019 32.7359 19.916 32.5585 21.4661 31.8659C21.1287 31.6955 20.822 31.4702 20.5586 31.1991C20.5186 31.1587 20.4912 31.1074 20.4799 31.0516C20.4685 30.9959 20.4736 30.938 20.4947 30.8851C20.5157 30.8322 20.5516 30.7866 20.5982 30.7539C20.6447 30.7211 20.6998 30.7026 20.7566 30.7006C21.6777 30.652 22.5844 30.4512 23.4399 30.1065C24.9383 29.5083 26.1292 28.5457 26.9849 27.2424C26.2788 27.3389 24.9732 27.3714 24.2186 26.9753C24.1618 26.9456 24.115 26.8999 24.0841 26.8437C24.0532 26.7875 24.0395 26.7235 24.0448 26.6596C24.0501 26.5957 24.0741 26.5348 24.1139 26.4845C24.1537 26.4343 24.2074 26.3968 24.2683 26.3769C24.4016 26.3336 24.5926 26.2883 24.8345 26.231C26.1579 25.9176 28.8305 25.2845 30.3754 23.1293C29.9302 23.1733 29.3541 23.1852 28.9492 23.031C28.9136 23.0174 28.8811 22.9967 28.8538 22.9702C28.8264 22.9437 28.8047 22.9119 28.79 22.8768C28.7753 22.8417 28.7679 22.8039 28.7683 22.7658C28.7686 22.7277 28.7767 22.6901 28.792 22.6552C29.3194 21.4521 30.8024 19.7936 32.0894 18.5681C31.9315 18.4671 31.7554 18.3981 31.5709 18.365C31.5097 18.3534 31.4544 18.3206 31.415 18.2723C31.3756 18.224 31.3544 18.1634 31.3553 18.101C31.3562 18.0387 31.379 17.9786 31.4198 17.9315C31.4605 17.8843 31.5166 17.853 31.5782 17.8431C32.4257 17.7063 32.681 17.0202 32.7577 16.6234C32.7698 16.5603 32.8032 16.5032 32.8523 16.4618C32.9014 16.4203 32.9633 16.397 33.0275 16.3957C33.0952 16.3939 33.1613 16.4164 33.2138 16.4591C33.2663 16.5018 33.3018 16.5619 33.3139 16.6285C33.3461 16.862 33.4206 17.0876 33.5338 17.2944C34.252 16.7137 35.342 15.9122 36.1807 15.6456C30.5143 13.4276 26.5428 16.0993 25.7922 16.6674C25.7422 16.7052 25.6825 16.7279 25.6201 16.7328C25.5576 16.7378 25.495 16.7248 25.4397 16.6953C25.3844 16.6659 25.3387 16.6213 25.3079 16.5667C25.2771 16.5122 25.2626 16.4499 25.266 16.3874C25.2845 16.0641 25.3506 15.7452 25.4623 15.4412C19.5717 16.6667 18.6404 20.6104 18.2382 22.313C18.1116 22.8485 18.0539 23.0929 17.8638 23.1986C17.8243 23.2208 17.7804 23.2343 17.7352 23.2384C17.69 23.2425 17.6445 23.237 17.6016 23.2223C17.0851 23.049 17.0564 22.1907 17.0967 21.5821C16.109 22.77 15.3871 24.0262 14.9464 25.3251Z" fill="white"/>
<path d="M32.9911 18.8449C33.0325 18.7643 33.08 18.687 33.1333 18.6138C33.2791 18.4141 33.4684 18.2502 33.6868 18.1344C33.3915 17.9654 33.1561 17.7087 33.0133 17.3999C32.855 17.6972 32.6171 17.9445 32.3261 18.114C32.6116 18.2908 32.842 18.544 32.9911 18.8449Z" fill="white"/>
<path d="M15.5405 13.9249C15.5727 13.9336 15.6063 13.9358 15.6394 13.9315C15.6725 13.9272 15.7044 13.9164 15.7333 13.8998C15.7622 13.8831 15.7875 13.861 15.8078 13.8345C15.8282 13.8081 15.8431 13.7779 15.8518 13.7457L15.9882 13.2393C16.0054 13.1744 15.9961 13.1053 15.9625 13.0472C15.9289 12.989 15.8736 12.9466 15.8088 12.9291C15.7439 12.9117 15.6748 12.9206 15.6165 12.954C15.5582 12.9874 15.5156 13.0425 15.4978 13.1073L15.3614 13.6138C15.344 13.6788 15.353 13.7481 15.3866 13.8064C15.4202 13.8647 15.4755 13.9074 15.5405 13.9249Z" fill="white"/>
<path d="M15.2059 15.4211C15.2617 15.4211 15.316 15.4027 15.3602 15.3687C15.4045 15.3347 15.4364 15.2871 15.4509 15.2332L15.5874 14.7266C15.6046 14.6617 15.5953 14.5926 15.5617 14.5345C15.5281 14.4764 15.4728 14.4339 15.4079 14.4164C15.3431 14.399 15.274 14.4079 15.2157 14.4413C15.1574 14.4747 15.1147 14.5298 15.097 14.5946L14.9605 15.1011C14.9504 15.1387 14.949 15.1782 14.9566 15.2165C14.9642 15.2547 14.9805 15.2907 15.0042 15.3216C15.0279 15.3526 15.0585 15.3776 15.0934 15.3949C15.1284 15.4121 15.1669 15.421 15.2058 15.421L15.2059 15.4211Z" fill="white"/>
<path d="M15.7194 14.2366C15.7107 14.2688 15.7084 14.3023 15.7127 14.3354C15.717 14.3685 15.7277 14.4004 15.7443 14.4293C15.7609 14.4582 15.7831 14.4836 15.8095 14.5039C15.8359 14.5243 15.8661 14.5392 15.8983 14.5479L16.4041 14.6845C16.4364 14.6934 16.4701 14.6959 16.5033 14.6917C16.5365 14.6876 16.5686 14.6769 16.5976 14.6603C16.6267 14.6437 16.6522 14.6216 16.6727 14.5951C16.6932 14.5686 16.7082 14.5383 16.7169 14.506C16.7257 14.4737 16.7279 14.4399 16.7236 14.4068C16.7192 14.3736 16.7083 14.3416 16.6916 14.3126C16.6748 14.2836 16.6524 14.2582 16.6258 14.2379C16.5992 14.2176 16.5689 14.2028 16.5365 14.1943L16.0307 14.0576C15.9985 14.0489 15.9649 14.0466 15.9318 14.0509C15.8988 14.0552 15.8669 14.066 15.838 14.0826C15.8091 14.0992 15.7837 14.1214 15.7633 14.1478C15.743 14.1742 15.728 14.2044 15.7194 14.2366Z" fill="white"/>
<path d="M14.4122 14.1466L14.918 14.2832C14.9502 14.2919 14.9838 14.2942 15.0169 14.2899C15.0499 14.2856 15.0819 14.2749 15.1108 14.2583C15.1397 14.2417 15.1651 14.2195 15.1854 14.1931C15.2058 14.1667 15.2207 14.1365 15.2294 14.1043C15.2381 14.0721 15.2404 14.0385 15.2361 14.0054C15.2319 13.9724 15.2211 13.9405 15.2045 13.9115C15.1879 13.8826 15.1657 13.8573 15.1393 13.8369C15.1129 13.8165 15.0827 13.8016 15.0505 13.7929L14.5448 13.6563C14.5126 13.6476 14.479 13.6453 14.4459 13.6496C14.4128 13.6538 14.3809 13.6646 14.352 13.6812C14.3231 13.6978 14.2977 13.72 14.2773 13.7464C14.257 13.7728 14.242 13.8029 14.2333 13.8351C14.2246 13.8673 14.2223 13.9009 14.2266 13.934C14.2309 13.9671 14.2416 13.999 14.2582 14.0279C14.2748 14.0568 14.297 14.0822 14.3234 14.1026C14.3498 14.1229 14.38 14.1379 14.4122 14.1466Z" fill="white"/>
<path d="M28.3832 30.5885C28.351 30.5797 28.3174 30.5774 28.2843 30.5817C28.2513 30.5859 28.2193 30.5966 28.1904 30.6132C28.1615 30.6298 28.1361 30.6519 28.1157 30.6783C28.0953 30.7046 28.0803 30.7348 28.0716 30.767L27.9453 31.2308C27.9366 31.2629 27.9343 31.2965 27.9385 31.3296C27.9428 31.3627 27.9535 31.3946 27.97 31.4235C27.9866 31.4525 28.0087 31.4779 28.0351 31.4982C28.0615 31.5186 28.0916 31.5336 28.1238 31.5424C28.156 31.5511 28.1896 31.5534 28.2227 31.5492C28.2557 31.545 28.2877 31.5342 28.3166 31.5177C28.3455 31.5011 28.3709 31.479 28.3913 31.4526C28.4117 31.4262 28.4267 31.3961 28.4354 31.3639L28.5614 30.9001C28.5791 30.8352 28.5703 30.7658 28.5368 30.7074C28.5034 30.6489 28.4481 30.6062 28.3832 30.5885Z" fill="white"/>
<path d="M27.7016 32.13L27.5756 32.5937C27.5666 32.626 27.564 32.6598 27.568 32.6931C27.5721 32.7263 27.5827 32.7585 27.5992 32.7877C27.6157 32.8168 27.6379 32.8425 27.6644 32.863C27.6909 32.8836 27.7212 32.8987 27.7535 32.9075C27.7859 32.9163 27.8197 32.9186 27.8529 32.9142C27.8862 32.9099 27.9182 32.899 27.9472 32.8822C27.9763 32.8654 28.0017 32.843 28.022 32.8164C28.0423 32.7897 28.0572 32.7593 28.0657 32.7268L28.1917 32.2631C28.2007 32.2308 28.2033 32.197 28.1993 32.1637C28.1952 32.1304 28.1846 32.0983 28.1681 32.0691C28.1516 32.0399 28.1294 32.0143 28.1029 31.9938C28.0764 31.9732 28.0461 31.9581 28.0138 31.9493C27.9814 31.9405 27.9476 31.9382 27.9144 31.9426C27.8811 31.9469 27.8491 31.9578 27.8201 31.9746C27.791 31.9914 27.7656 32.0138 27.7453 32.0404C27.725 32.0671 27.7101 32.0975 27.7016 32.13Z" fill="white"/>
<path d="M28.2758 31.8026C28.2672 31.8348 28.265 31.8684 28.2694 31.9014C28.2738 31.9345 28.2846 31.9664 28.3013 31.9952C28.3179 32.0241 28.3401 32.0494 28.3666 32.0697C28.3931 32.09 28.4233 32.1049 28.4555 32.1135L28.9227 32.2386C28.9442 32.2444 28.9664 32.2473 28.9887 32.2473C29.0503 32.2474 29.1099 32.225 29.1563 32.1843C29.2027 32.1437 29.2326 32.0876 29.2407 32.0264C29.2487 31.9653 29.2342 31.9033 29.1999 31.8521C29.1656 31.8009 29.1138 31.7639 29.0542 31.748L28.587 31.6229C28.5548 31.6143 28.5212 31.6121 28.4881 31.6164C28.455 31.6208 28.4231 31.6316 28.3942 31.6483C28.3653 31.6649 28.34 31.6872 28.3197 31.7136C28.2994 31.7401 28.2845 31.7703 28.2758 31.8026Z" fill="white"/>
<path d="M27.6815 31.3807L27.2143 31.2555C27.1496 31.2389 27.0808 31.2485 27.0231 31.2823C26.9654 31.316 26.9233 31.3712 26.906 31.4358C26.8887 31.5004 26.8976 31.5692 26.9307 31.6273C26.9638 31.6854 27.0186 31.7281 27.083 31.746L27.5502 31.8712C27.5825 31.8802 27.6163 31.8827 27.6496 31.8786C27.6829 31.8745 27.7151 31.8638 27.7443 31.8472C27.7734 31.8305 27.799 31.8083 27.8195 31.7817C27.84 31.7551 27.855 31.7247 27.8637 31.6923C27.8724 31.6599 27.8746 31.626 27.8701 31.5928C27.8656 31.5595 27.8546 31.5274 27.8377 31.4985C27.8207 31.4695 27.7982 31.4441 27.7714 31.4239C27.7446 31.4037 27.7141 31.389 27.6815 31.3807Z" fill="white"/>
<path d="M34.0297 22.1569C33.9971 22.0947 33.9433 22.0461 33.878 22.02C33.8127 21.994 33.7403 21.9921 33.6737 22.0148C33.6105 22.0358 33.5564 22.078 33.5205 22.1342C33.4846 22.1904 33.469 22.2572 33.4765 22.3235C33.5411 22.9032 33.4832 23.9586 32.3702 24.5141C32.3133 24.5422 32.2681 24.5894 32.2426 24.6476C32.2172 24.7057 32.2131 24.771 32.2311 24.8319C32.2491 24.8928 32.288 24.9453 32.341 24.9802C32.394 25.0152 32.4577 25.0303 32.5207 25.0228C33.757 24.8818 34.3735 25.7291 34.631 26.2467C34.6549 26.2952 34.692 26.3361 34.7381 26.3646C34.7841 26.3932 34.8372 26.4082 34.8914 26.408C34.9162 26.408 34.9409 26.4049 34.965 26.3989C35.0333 26.3823 35.0934 26.3416 35.1341 26.2842C35.1748 26.2268 35.1933 26.1566 35.1862 26.0865C35.1349 25.5715 35.0283 24.4998 36.3765 23.881C36.4355 23.8541 36.4828 23.8068 36.5097 23.7477C36.5365 23.6887 36.5412 23.622 36.5228 23.5598C36.5044 23.4976 36.4642 23.4442 36.4095 23.4093C36.3549 23.3744 36.2894 23.3605 36.2253 23.37C34.7612 23.5853 34.2672 22.6206 34.0297 22.1569Z" fill="white"/>
</svg>
