<svg width="50" height="50" viewBox="0 0 50 50" fill="none" xmlns="http://www.w3.org/2000/svg">
<rect width="50" height="50" rx="12" fill="#393FCC"/>
<g clip-path="url(#clip0)">
<path d="M26.7685 29.2711C26.6714 29.1648 26.5485 29.0852 26.4216 29.019C26.1452 28.8748 25.8429 28.7874 25.5427 28.7085V31.0343C26.0299 30.9792 26.5892 30.8024 26.845 30.3476C26.9671 30.1304 26.9914 29.8634 26.9417 29.6216C26.9147 29.4906 26.8589 29.3703 26.7685 29.2711Z" fill="white"/>
<path d="M26.8423 30.3521C26.8433 30.3505 26.8438 30.3494 26.8449 30.3477C26.844 30.3491 26.8431 30.3506 26.8423 30.3521Z" fill="white"/>
<path d="M23.2574 25.5532C23.1737 25.6755 23.1211 25.8145 23.1066 25.9622C23.0921 26.1102 23.1003 26.2748 23.1565 26.4141C23.21 26.5469 23.3222 26.6449 23.4379 26.7238C23.5678 26.8121 23.7107 26.8811 23.8561 26.9396C23.9782 26.9888 24.1155 27.0357 24.2635 27.0811V24.9766C23.8896 25.0563 23.4811 25.2267 23.2574 25.5532Z" fill="white"/>
<path d="M26.8546 30.3306C26.8515 30.336 26.8482 30.3417 26.845 30.3477C26.8488 30.3407 26.8518 30.3356 26.8546 30.3306Z" fill="white"/>
<path d="M26.8669 30.3088C26.8677 30.3073 26.8679 30.3072 26.8669 30.3088V30.3088Z" fill="white"/>
<path d="M26.362 17.6572C28.3399 15.9957 29.6615 12.2525 28.8482 12.0888C27.7675 11.8712 25.4208 12.8254 24.2865 12.9935C22.6778 13.1878 20.9256 11.249 19.9421 12.3297C19.1424 13.2083 20.5154 16.4037 22.6634 17.7958C16.2548 20.9456 7.24699 36.7576 22.9616 37.9049C44.7054 39.4925 33.8175 20.7266 26.362 17.6572ZM28.2294 30.1273C28.1625 30.7438 27.8358 31.3012 27.3475 31.6797C26.8319 32.0793 26.1852 32.2652 25.5426 32.3172V32.9983C25.5426 33.1806 25.463 33.3568 25.3266 33.4775C25.1391 33.6434 24.8635 33.6843 24.6359 33.5795C24.4112 33.4761 24.2636 33.2456 24.2636 32.9983V32.2539C24.1534 32.233 24.044 32.2081 23.9359 32.1784C23.3354 32.0134 22.7783 31.6918 22.3714 31.2159C22.1687 30.9787 22.0035 30.7096 21.8892 30.4191C21.8594 30.3431 21.8328 30.2658 21.8094 30.1876C21.7883 30.1168 21.7666 30.0449 21.759 29.9711C21.7464 29.8474 21.7709 29.7211 21.8286 29.6108C21.9472 29.384 22.197 29.2471 22.4521 29.2698C22.7032 29.2921 22.9233 29.4663 23.0023 29.7057C23.0267 29.7794 23.0432 29.8549 23.0705 29.9279C23.0976 30.0003 23.1304 30.0707 23.1688 30.1378C23.2448 30.2698 23.34 30.3915 23.4497 30.4972C23.6757 30.7149 23.9635 30.8564 24.2636 30.9406V28.4101C23.6768 28.2582 23.0711 28.062 22.5866 27.6853C22.3511 27.5021 22.1513 27.2745 22.0205 27.0051C21.8824 26.7208 21.8252 26.4041 21.8228 26.0895C21.8205 25.7701 21.8811 25.4535 22.0144 25.1625C22.1392 24.89 22.3189 24.6453 22.5392 24.4425C23.0103 24.0089 23.636 23.7671 24.2637 23.6783V23.6226V22.9712C24.2637 22.789 24.3432 22.6127 24.4797 22.4921C24.6673 22.3262 24.9427 22.2852 25.1703 22.3901C25.395 22.4935 25.5427 22.7239 25.5427 22.9712V23.6226V23.6744C25.6263 23.6849 25.7097 23.6975 25.7926 23.7126C26.409 23.8241 27.0118 24.0786 27.4625 24.523C27.676 24.7334 27.8508 24.9842 27.9737 25.2577C28.008 25.334 28.038 25.412 28.064 25.4916C28.0883 25.5658 28.1126 25.6423 28.1242 25.7197C28.1427 25.8433 28.1238 25.9711 28.0709 26.0842C27.9625 26.316 27.7194 26.4635 27.4636 26.4526C27.2122 26.4416 26.9845 26.278 26.8945 26.043C26.8677 25.9732 26.8544 25.8992 26.827 25.8295C26.7994 25.759 26.7637 25.6917 26.7225 25.6281C26.6425 25.5045 26.5388 25.3986 26.4204 25.3113C26.1641 25.122 25.8532 25.0234 25.5425 24.9682V27.3898C25.9117 27.4782 26.2812 27.5747 26.635 27.7142C27.1696 27.925 27.6762 28.2482 27.9681 28.758C27.9228 28.6786 27.8787 28.6012 27.9696 28.7606C28.0588 28.9172 28.0162 28.8426 27.9714 28.7641C28.2036 29.1733 28.2799 29.6625 28.2294 30.1273Z" fill="white"/>
<path d="M26.8355 30.3643C26.8317 30.3709 26.8285 30.3768 26.8259 30.3813C26.8281 30.3774 26.8314 30.3716 26.8355 30.3643Z" fill="white"/>
</g>
<defs>
<clipPath id="clip0">
<rect width="26" height="26" fill="white" transform="translate(12 12)"/>
</clipPath>
</defs>
</svg>
