<svg width="50" height="50" viewBox="0 0 50 50" fill="none" xmlns="http://www.w3.org/2000/svg">
<rect width="50" height="50" rx="12" fill="#393FCC"/>
<path d="M18.4104 26.8305L15.2307 23.5835L14.5624 22.9019L12.042 28.2477C11.9633 28.4166 11.9972 28.6166 12.1272 28.75L15.7733 32.4948L15.8496 32.3289L18.4149 26.8261L18.4104 26.8305Z" fill="white"/>
<path d="M24.4738 25.7403L24.3124 25.6776V26.4489L20.8232 23.1033C20.7521 23.0355 20.6608 22.9929 20.5631 22.9822L15.2935 22.3633L19.1638 26.3054L24.3258 26.7539V27.6509L23.7608 27.6015L19.2356 27.2158L16.9932 31.9966L16.5896 32.8622L21.7381 33.2838H21.774C21.9465 33.2833 22.1035 33.1839 22.1776 33.0281L24.3124 28.503V31.6423C24.3118 31.83 24.4281 31.9982 24.6039 32.0639L29.4789 33.8847V27.6419L24.4738 25.7403Z" fill="white"/>
<path d="M27.676 18.9593L26.779 18.6274V24.2469L24.8147 24.9062L26.1332 25.4085L29.9184 26.8526L31.0217 26.44L31.9366 26.7853V26.4714V26.3682V25.8255V20.5425L27.676 18.9593Z" fill="white"/>
<path d="M37.1029 18.9593L32.8424 20.5424V26.4714C32.8424 26.719 32.6416 26.9198 32.3939 26.9198H32.3401L30.3757 27.6419V33.8847L35.2417 32.0594C35.4175 31.9937 35.5339 31.8255 35.5333 31.6378V25.7762L37.7084 24.96C37.8796 24.8961 37.995 24.7346 37.9999 24.5519V18.6274L37.1029 18.9593Z" fill="white"/>
<path d="M32.5286 16.1383C32.4354 16.1069 32.3347 16.1069 32.2415 16.1383L27.2096 17.8246L32.3851 19.7531L37.5515 17.8246L32.5286 16.1383Z" fill="white"/>
</svg>
