<svg width="50" height="50" viewBox="0 0 50 50" fill="none" xmlns="http://www.w3.org/2000/svg">
<rect width="50" height="50" rx="12" fill="#393FCC"/>
<path d="M14.1667 17.9584C14.1667 15.8643 15.8643 14.1667 17.9584 14.1667C20.0525 14.1667 21.7501 15.8643 21.7501 17.9584C21.7501 20.0525 20.0525 21.7501 17.9584 21.7501C15.8643 21.7501 14.1667 20.0525 14.1667 17.9584Z" fill="white"/>
<path d="M28.2501 32.0417C28.2501 29.9477 29.9477 28.2501 32.0417 28.2501C34.1358 28.2501 35.8334 29.9477 35.8334 32.0417C35.8334 34.1358 34.1358 35.8334 32.0417 35.8334C29.9477 35.8334 28.2501 34.1358 28.2501 32.0417Z" fill="white"/>
<path d="M35.5161 16.0161C35.9392 15.593 35.9392 14.9071 35.5161 14.484C35.093 14.061 34.4071 14.061 33.984 14.484L14.484 33.984C14.061 34.4071 14.061 35.093 14.484 35.5161C14.9071 35.9392 15.593 35.9392 16.0161 35.5161L35.5161 16.0161Z" fill="white"/>
</svg>
