<svg width="50" height="50" viewBox="0 0 50 50" fill="none" xmlns="http://www.w3.org/2000/svg">
<rect width="50" height="50" rx="12" fill="#393FCC"/>
<path d="M22.8333 28.7916H27.1667V26.625H22.8333V28.7916Z" fill="white"/>
<path fill-rule="evenodd" clip-rule="evenodd" d="M18.5 15.7916C18.5 15.1933 18.985 14.7083 19.5833 14.7083H30.4167C31.015 14.7083 31.5 15.1933 31.5 15.7916V20.125H34.2083C35.405 20.125 36.375 21.095 36.375 22.2916V33.125C36.375 34.3216 35.405 35.2916 34.2083 35.2916H15.7917C14.595 35.2916 13.625 34.3216 13.625 33.125V22.2916C13.625 21.095 14.595 20.125 15.7917 20.125H18.5V15.7916ZM29.3333 16.875V20.125H20.6667V16.875H29.3333ZM15.7917 26.625V28.7916H20.6667V29.875C20.6667 30.4733 21.1517 30.9583 21.75 30.9583H28.25C28.8483 30.9583 29.3333 30.4733 29.3333 29.875V28.7916H34.2083V26.625H29.3333V25.5416C29.3333 24.9433 28.8483 24.4583 28.25 24.4583H21.75C21.1517 24.4583 20.6667 24.9433 20.6667 25.5416V26.625H15.7917Z" fill="white"/>
</svg>
