<svg width="50" height="50" viewBox="0 0 50 50" fill="none" xmlns="http://www.w3.org/2000/svg">
<rect width="50" height="50" rx="12" fill="#393FCC"/>
<path d="M20.8244 34L19.1059 36.8209C18.8628 37.22 19.0524 37.7081 19.5293 37.9115C19.6703 37.9716 19.8206 38 19.9688 38C20.3215 38 20.6618 37.8383 20.8329 37.5573L23 34.0002H20.8244V34Z" fill="white"/>
<path d="M29 34L31.167 37.5571C31.3383 37.8383 31.6786 38 32.0313 38C32.1795 38 32.3297 37.9716 32.4707 37.9115C32.9476 37.7081 33.1372 37.22 32.8941 36.8209L31.1757 34H29Z" fill="white"/>
<path d="M35 32.2159V18H16V32.2159C16 32.649 16.4157 33 16.9288 33H34.0712C34.584 33 35 32.649 35 32.2159ZM19.7135 28.041L22.2228 24.6855C22.3748 24.4822 22.629 24.3491 22.9124 24.3243C23.1965 24.2996 23.4771 24.3858 23.6752 24.5584L25.7332 26.3496L27.6555 23.727L26.9521 23.8652C26.4518 23.9632 25.9529 23.7008 25.8367 23.2791C25.7206 22.8573 26.0315 22.4359 26.5314 22.3379L29.3908 21.7769C29.8909 21.6787 30.3897 21.9413 30.5059 22.3629L31.1708 24.7762C31.287 25.198 30.976 25.6192 30.4765 25.7172C30.4057 25.7313 30.3349 25.7379 30.2653 25.7379C29.8431 25.7379 29.4611 25.4933 29.3614 25.1312L29.211 24.5855L26.686 28.03C26.5354 28.2355 26.2807 28.3708 25.9961 28.3969C25.7113 28.423 25.4284 28.3367 25.2291 28.1633L23.1635 26.3654L21.2844 28.8779C21.1079 29.1142 20.8062 29.2435 20.4981 29.2435C20.3288 29.2435 20.1572 29.2044 20.0033 29.1224C19.5695 28.8913 19.4396 28.4073 19.7135 28.041Z" fill="white"/>
<path d="M35.1006 16C35.5973 16 36 15.6715 36 15.2664C36 14.8612 35.5973 14.5328 35.1006 14.5328H27.9517V14C27.9517 12.8972 26.8517 12 25.4999 12C24.1481 12 23.0483 12.8972 23.0483 14V14.5328H15.8992C15.4027 14.5328 15 14.8612 15 15.2664C15 15.6715 15.4027 16 15.8992 16H35.1006ZM24.847 14C24.847 13.7062 25.14 13.4674 25.5001 13.4674C25.86 13.4674 26.153 13.7062 26.153 14V14.5328H24.847V14Z" fill="white"/>
</svg>
