<svg width="360" height="204" viewBox="0 0 360 204" fill="none" xmlns="http://www.w3.org/2000/svg">
<g clip-path="url(#clip0)">
<rect width="360" height="204" rx="12" fill="#393FCC"/>
<path opacity="0.05" d="M8.13513 157.5C8.13513 178.5 14.9459 201.25 19.8108 210C-6.45946 189.583 -59 150.208 -59 87.5C-59 43.1667 -31.7568 9.72222 -18.1351 0L49 70C35.8649 83.125 8.13513 112.292 8.13513 157.5Z" fill="#0072A4"/>
<path opacity="0.05" d="M27.1902 174.91C27.1902 185.145 27.1902 198.303 31.5908 210C22.7896 195.379 18.3891 182.221 18.3891 166.138C18.3891 125.2 51.6379 87.1862 69.7291 72.5655L13 11.1586C17.9955 5.20113 22.9478 0.690911 27.1902 -2L102 72.5655C82.9308 84.2621 27.1902 126.662 27.1902 174.91Z" fill="#BCBDBF"/>
<path opacity="0.05" d="M39.0016 182.27C39.0016 193.946 43.3651 205.622 46.2742 210C40.4561 148.703 91.1055 112.216 151 81.5676L71.0011 -6C66.3466 -2.4973 59.3649 4.21622 56.4559 7.13513L123.364 77.1892C37.547 129.73 39.0016 170.595 39.0016 182.27Z" fill="#CAD935"/>
</g>
<path d="M70.5228 108.887C70.5228 115.944 72.8097 123.589 74.4432 126.53C65.6222 119.669 47.98 106.437 47.98 85.3646C47.98 70.4667 57.1278 59.228 61.7017 55.9609L84.2445 79.4838C79.8339 83.8944 70.5228 93.6956 70.5228 108.887Z" fill="white"/>
<path d="M76.8936 114.768C76.8936 118.198 76.8936 122.609 78.3638 126.529C75.4234 121.629 73.9533 117.218 73.9533 111.828C73.9533 98.106 85.0613 85.3644 91.1054 80.4638L72.1528 59.8812C73.8218 57.8844 75.4763 56.3727 76.8936 55.4707L101.887 80.4638C95.5159 84.3843 76.8936 98.596 76.8936 114.768Z" fill="white" fill-opacity="0.79"/>
<path d="M80.8145 117.218C80.8145 121.138 82.2847 125.059 83.2648 126.529C81.3046 105.946 98.3694 93.6949 118.549 83.4036L91.5958 54C90.0276 55.1761 87.6753 57.4304 86.6952 58.4105L109.238 81.9334C80.3244 99.5756 80.8145 113.297 80.8145 117.218Z" fill="white" fill-opacity="0.23"/>
<path d="M53.9145 143.179L55.0286 143.46C54.7951 144.375 54.3739 145.074 53.7652 145.557C53.1603 146.035 52.4194 146.274 51.5427 146.274C50.6353 146.274 49.8964 146.091 49.3259 145.723C48.7593 145.352 48.3266 144.816 48.028 144.115C47.7332 143.415 47.5858 142.662 47.5858 141.858C47.5858 140.981 47.7524 140.218 48.0854 139.567C48.4224 138.912 48.899 138.416 49.5154 138.079C50.1357 137.739 50.8172 137.568 51.5599 137.568C52.4022 137.568 53.1105 137.783 53.6848 138.211C54.2591 138.64 54.6591 139.243 54.885 140.02L53.7881 140.279C53.5929 139.666 53.3096 139.22 52.9382 138.941C52.5668 138.661 52.0997 138.522 51.5369 138.522C50.8899 138.522 50.3481 138.677 49.9117 138.987C49.4791 139.297 49.1747 139.714 48.9986 140.239C48.8225 140.759 48.7344 141.297 48.7344 141.852C48.7344 142.568 48.8378 143.194 49.0445 143.73C49.2551 144.263 49.5805 144.661 50.0208 144.925C50.4611 145.189 50.9378 145.321 51.4508 145.321C52.0748 145.321 52.6032 145.141 53.0358 144.781C53.4685 144.421 53.7613 143.887 53.9145 143.179Z" fill="white"/>
<path d="M57.8966 146.131V142.565L54.6519 137.712H56.0072L57.6669 140.25C57.9732 140.725 58.2584 141.2 58.5226 141.674C58.7753 141.234 59.0816 140.738 59.4415 140.187L61.0724 137.712H62.3703L59.0107 142.565V146.131H57.8966Z" fill="white"/>
<path d="M62.4875 146.131V137.712H65.6633C66.2223 137.712 66.6492 137.739 66.944 137.792C67.3575 137.861 67.7039 137.993 67.9834 138.188C68.2629 138.38 68.4869 138.65 68.6554 138.998C68.8276 139.347 68.9138 139.729 68.9138 140.147C68.9138 140.863 68.686 141.47 68.2304 141.967C67.7748 142.461 66.9516 142.708 65.7609 142.708H63.6016V146.131H62.4875ZM63.6016 141.715H65.7782C66.4979 141.715 67.0091 141.581 67.3115 141.313C67.614 141.045 67.7652 140.667 67.7652 140.181C67.7652 139.829 67.6752 139.528 67.4953 139.28C67.3192 139.027 67.0856 138.86 66.7947 138.78C66.6071 138.73 66.2606 138.705 65.7552 138.705H63.6016V141.715Z" fill="white"/>
<path d="M69.4674 146.131V137.712H73.2003C73.9507 137.712 74.5211 137.788 74.9117 137.942C75.3022 138.091 75.6142 138.357 75.8478 138.74C76.0813 139.123 76.1981 139.546 76.1981 140.009C76.1981 140.606 76.0047 141.11 75.618 141.519C75.2314 141.929 74.6341 142.189 73.8263 142.3C74.1211 142.442 74.345 142.582 74.4982 142.72C74.8236 143.018 75.1318 143.392 75.4228 143.839L76.8872 146.131H75.486L74.3718 144.379C74.0464 143.874 73.7784 143.487 73.5678 143.219C73.3573 142.951 73.1677 142.764 72.9993 142.656C72.8347 142.549 72.6662 142.475 72.4939 142.432C72.3676 142.406 72.1608 142.392 71.8737 142.392H70.5815V146.131H69.4674ZM70.5815 141.427H72.9763C73.4855 141.427 73.8837 141.376 74.1708 141.272C74.458 141.165 74.6762 140.997 74.8255 140.767C74.9748 140.533 75.0495 140.281 75.0495 140.009C75.0495 139.611 74.904 139.283 74.613 139.027C74.3259 138.77 73.8703 138.642 73.2462 138.642H70.5815V141.427Z" fill="white"/>
<path d="M82.5922 137.712H83.7063V142.576C83.7063 143.422 83.6106 144.094 83.4192 144.592C83.2278 145.09 82.8813 145.495 82.3797 145.809C81.882 146.119 81.2273 146.274 80.4157 146.274C79.627 146.274 78.9818 146.139 78.4803 145.867C77.9788 145.595 77.6208 145.202 77.4064 144.689C77.192 144.173 77.0848 143.468 77.0848 142.576V137.712H78.1989V142.57C78.1989 143.302 78.2659 143.841 78.3999 144.19C78.5377 144.534 78.7713 144.8 79.1005 144.988C79.4336 145.176 79.8395 145.269 80.318 145.269C81.1373 145.269 81.7212 145.084 82.0696 144.712C82.418 144.341 82.5922 143.627 82.5922 142.57V137.712Z" fill="white"/>
<path d="M84.3059 143.426L85.3568 143.334C85.4066 143.755 85.5215 144.102 85.7014 144.374C85.8852 144.642 86.1685 144.86 86.5514 145.028C86.9342 145.193 87.3649 145.275 87.8435 145.275C88.2685 145.275 88.6437 145.212 88.9691 145.086C89.2946 144.959 89.5358 144.787 89.6927 144.569C89.8535 144.347 89.9339 144.106 89.9339 143.845C89.9339 143.581 89.8574 143.351 89.7042 143.156C89.5511 142.957 89.2984 142.79 88.9462 142.656C88.7203 142.568 88.2206 142.432 87.4473 142.249C86.6739 142.061 86.1321 141.885 85.822 141.72C85.42 141.51 85.1195 141.249 84.9204 140.939C84.7251 140.625 84.6275 140.275 84.6275 139.888C84.6275 139.463 84.7481 139.067 84.9893 138.7C85.2305 138.328 85.5827 138.047 86.046 137.855C86.5093 137.664 87.0242 137.568 87.5908 137.568C88.2149 137.568 88.7643 137.67 89.239 137.873C89.7176 138.072 90.0852 138.367 90.3417 138.757C90.5982 139.148 90.736 139.59 90.7552 140.084L89.687 140.164C89.6296 139.632 89.4343 139.23 89.1012 138.958C88.772 138.686 88.2838 138.55 87.6368 138.55C86.9629 138.55 86.471 138.675 86.1609 138.924C85.8546 139.169 85.7014 139.465 85.7014 139.814C85.7014 140.116 85.8105 140.365 86.0288 140.56C86.2432 140.756 86.8021 140.957 87.7057 141.163C88.6131 141.366 89.2352 141.544 89.5721 141.697C90.0622 141.923 90.424 142.21 90.6575 142.559C90.8911 142.903 91.0079 143.302 91.0079 143.753C91.0079 144.201 90.8796 144.624 90.6231 145.023C90.3666 145.417 89.9971 145.725 89.5147 145.947C89.0361 146.165 88.4963 146.274 87.8952 146.274C87.1333 146.274 86.4939 146.163 85.9771 145.941C85.464 145.719 85.0601 145.386 84.7653 144.942C84.4744 144.494 84.3212 143.989 84.3059 143.426Z" fill="white"/>
<path d="M93.6599 143.426L94.7109 143.334C94.7606 143.755 94.8755 144.102 95.0554 144.374C95.2392 144.642 95.5225 144.86 95.9054 145.028C96.2883 145.193 96.719 145.275 97.1975 145.275C97.6225 145.275 97.9977 145.212 98.3232 145.086C98.6486 144.959 98.8898 144.787 99.0468 144.569C99.2076 144.347 99.288 144.106 99.288 143.845C99.288 143.581 99.2114 143.351 99.0582 143.156C98.9051 142.957 98.6524 142.79 98.3002 142.656C98.0743 142.568 97.5747 142.432 96.8013 142.249C96.0279 142.061 95.4862 141.885 95.176 141.72C94.774 141.51 94.4735 141.249 94.2744 140.939C94.0792 140.625 93.9815 140.275 93.9815 139.888C93.9815 139.463 94.1021 139.067 94.3433 138.7C94.5845 138.328 94.9368 138.047 95.4 137.855C95.8633 137.664 96.3782 137.568 96.9449 137.568C97.5689 137.568 98.1183 137.67 98.5931 137.873C99.0716 138.072 99.4392 138.367 99.6957 138.757C99.9522 139.148 100.09 139.59 100.109 140.084L99.041 140.164C98.9836 139.632 98.7883 139.23 98.4552 138.958C98.126 138.686 97.6378 138.55 96.9908 138.55C96.317 138.55 95.825 138.675 95.5149 138.924C95.2086 139.169 95.0554 139.465 95.0554 139.814C95.0554 140.116 95.1646 140.365 95.3828 140.56C95.5972 140.756 96.1562 140.957 97.0597 141.163C97.9671 141.366 98.5892 141.544 98.9262 141.697C99.4162 141.923 99.778 142.21 100.012 142.559C100.245 142.903 100.362 143.302 100.362 143.753C100.362 144.201 100.234 144.624 99.9771 145.023C99.7206 145.417 99.3511 145.725 98.8687 145.947C98.3902 146.165 97.8503 146.274 97.2492 146.274C96.4873 146.274 95.848 146.163 95.3311 145.941C94.8181 145.719 94.4142 145.386 94.1194 144.942C93.8284 144.494 93.6752 143.989 93.6599 143.426Z" fill="white"/>
<path d="M101.025 146.131V137.712H107.112V138.705H102.139V141.284H106.796V142.272H102.139V145.137H107.307V146.131H101.025Z" fill="white"/>
<path d="M113.971 143.179L115.086 143.46C114.852 144.375 114.431 145.074 113.822 145.557C113.217 146.035 112.476 146.274 111.6 146.274C110.692 146.274 109.953 146.091 109.383 145.723C108.816 145.352 108.384 144.816 108.085 144.115C107.79 143.415 107.643 142.662 107.643 141.858C107.643 140.981 107.809 140.218 108.142 139.567C108.479 138.912 108.956 138.416 109.572 138.079C110.193 137.739 110.874 137.568 111.617 137.568C112.459 137.568 113.167 137.783 113.742 138.211C114.316 138.64 114.716 139.243 114.942 140.02L113.845 140.279C113.65 139.666 113.366 139.22 112.995 138.941C112.624 138.661 112.157 138.522 111.594 138.522C110.947 138.522 110.405 138.677 109.969 138.987C109.536 139.297 109.232 139.714 109.055 140.239C108.879 140.759 108.791 141.297 108.791 141.852C108.791 142.568 108.895 143.194 109.101 143.73C109.312 144.263 109.637 144.661 110.078 144.925C110.518 145.189 110.995 145.321 111.508 145.321C112.132 145.321 112.66 145.141 113.093 144.781C113.525 144.421 113.818 143.887 113.971 143.179Z" fill="white"/>
<path d="M121.106 137.712H122.22V142.576C122.22 143.422 122.125 144.094 121.933 144.592C121.742 145.09 121.395 145.495 120.894 145.809C120.396 146.119 119.741 146.274 118.93 146.274C118.141 146.274 117.496 146.139 116.994 145.867C116.493 145.595 116.135 145.202 115.921 144.689C115.706 144.173 115.599 143.468 115.599 142.576V137.712H116.713V142.57C116.713 143.302 116.78 143.841 116.914 144.19C117.052 144.534 117.285 144.8 117.615 144.988C117.948 145.176 118.354 145.269 118.832 145.269C119.652 145.269 120.235 145.084 120.584 144.712C120.932 144.341 121.106 143.627 121.106 142.57V137.712Z" fill="white"/>
<path d="M123.216 146.131V137.712H126.949C127.7 137.712 128.27 137.788 128.661 137.942C129.051 138.091 129.363 138.357 129.597 138.74C129.83 139.123 129.947 139.546 129.947 140.009C129.947 140.606 129.754 141.11 129.367 141.519C128.98 141.929 128.383 142.189 127.575 142.3C127.87 142.442 128.094 142.582 128.247 142.72C128.573 143.018 128.881 143.392 129.172 143.839L130.636 146.131H129.235L128.121 144.379C127.795 143.874 127.527 143.487 127.317 143.219C127.106 142.951 126.917 142.764 126.748 142.656C126.584 142.549 126.415 142.475 126.243 142.432C126.116 142.406 125.91 142.392 125.623 142.392H124.33V146.131H123.216ZM124.33 141.427H126.725C127.234 141.427 127.633 141.376 127.92 141.272C128.207 141.165 128.425 140.997 128.574 140.767C128.724 140.533 128.798 140.281 128.798 140.009C128.798 139.611 128.653 139.283 128.362 139.027C128.075 138.77 127.619 138.642 126.995 138.642H124.33V141.427Z" fill="white"/>
<path d="M131.006 146.131V137.712H132.12V146.131H131.006Z" fill="white"/>
<path d="M135.35 146.131V138.705H132.576V137.712H139.249V138.705H136.464V146.131H135.35Z" fill="white"/>
<path d="M139.705 146.131V137.712H140.819V146.131H139.705Z" fill="white"/>
<path d="M141.93 146.131V137.712H148.018V138.705H143.044V141.284H147.702V142.272H143.044V145.137H148.213V146.131H141.93Z" fill="white"/>
<path d="M148.491 143.426L149.542 143.334C149.592 143.755 149.706 144.102 149.886 144.374C150.07 144.642 150.353 144.86 150.736 145.028C151.119 145.193 151.55 145.275 152.028 145.275C152.453 145.275 152.829 145.212 153.154 145.086C153.479 144.959 153.721 144.787 153.878 144.569C154.038 144.347 154.119 144.106 154.119 143.845C154.119 143.581 154.042 143.351 153.889 143.156C153.736 142.957 153.483 142.79 153.131 142.656C152.905 142.568 152.406 142.432 151.632 142.249C150.859 142.061 150.317 141.885 150.007 141.72C149.605 141.51 149.304 141.249 149.105 140.939C148.91 140.625 148.812 140.275 148.812 139.888C148.812 139.463 148.933 139.067 149.174 138.7C149.415 138.328 149.768 138.047 150.231 137.855C150.694 137.664 151.209 137.568 151.776 137.568C152.4 137.568 152.949 137.67 153.424 137.873C153.903 138.072 154.27 138.367 154.527 138.757C154.783 139.148 154.921 139.59 154.94 140.084L153.872 140.164C153.814 139.632 153.619 139.23 153.286 138.958C152.957 138.686 152.469 138.55 151.822 138.55C151.148 138.55 150.656 138.675 150.346 138.924C150.039 139.169 149.886 139.465 149.886 139.814C149.886 140.116 149.995 140.365 150.214 140.56C150.428 140.756 150.987 140.957 151.891 141.163C152.798 141.366 153.42 141.544 153.757 141.697C154.247 141.923 154.609 142.21 154.842 142.559C155.076 142.903 155.193 143.302 155.193 143.753C155.193 144.201 155.064 144.624 154.808 145.023C154.551 145.417 154.182 145.725 153.7 145.947C153.221 146.165 152.681 146.274 152.08 146.274C151.318 146.274 150.679 146.163 150.162 145.941C149.649 145.719 149.245 145.386 148.95 144.942C148.659 144.494 148.506 143.989 148.491 143.426Z" fill="white"/>
<path d="M156.645 146.131L159.878 137.712H161.078L164.524 146.131H163.255L162.273 143.581H158.752L157.828 146.131H156.645ZM159.074 142.674H161.928L161.049 140.342C160.781 139.634 160.582 139.052 160.452 138.596C160.345 139.136 160.194 139.672 159.998 140.204L159.074 142.674Z" fill="white"/>
<path d="M164.52 146.131V137.712H165.663L170.085 144.322V137.712H171.153V146.131H170.011L165.589 139.515V146.131H164.52Z" fill="white"/>
<path d="M172.149 146.131V137.712H175.049C175.704 137.712 176.204 137.752 176.548 137.832C177.031 137.943 177.442 138.144 177.783 138.435C178.227 138.811 178.558 139.291 178.777 139.877C178.999 140.459 179.11 141.125 179.11 141.875C179.11 142.515 179.035 143.081 178.886 143.575C178.736 144.069 178.545 144.479 178.311 144.804C178.078 145.126 177.821 145.38 177.542 145.568C177.266 145.752 176.931 145.892 176.537 145.987C176.146 146.083 175.696 146.131 175.187 146.131H172.149ZM173.263 145.137H175.061C175.616 145.137 176.051 145.086 176.365 144.982C176.682 144.879 176.935 144.733 177.123 144.546C177.387 144.282 177.592 143.928 177.737 143.483C177.886 143.035 177.961 142.494 177.961 141.858C177.961 140.978 177.816 140.302 177.525 139.831C177.237 139.356 176.887 139.038 176.474 138.878C176.175 138.763 175.695 138.705 175.032 138.705H173.263V145.137Z" fill="white"/>
<path d="M182.181 146.131V137.712H188.268V138.705H183.295V141.284H187.953V142.272H183.295V145.137H188.464V146.131H182.181Z" fill="white"/>
<path d="M188.265 146.131L191.521 141.743L188.65 137.712H189.976L191.504 139.871C191.822 140.319 192.048 140.664 192.182 140.905C192.369 140.599 192.591 140.279 192.848 139.946L194.542 137.712H195.754L192.796 141.68L195.983 146.131H194.605L192.486 143.127C192.367 142.955 192.245 142.767 192.118 142.565C191.931 142.871 191.797 143.081 191.716 143.196L189.603 146.131H188.265Z" fill="white"/>
<path d="M202.09 143.179L203.205 143.46C202.971 144.375 202.55 145.074 201.941 145.557C201.336 146.035 200.595 146.274 199.719 146.274C198.811 146.274 198.072 146.091 197.502 145.723C196.935 145.352 196.503 144.816 196.204 144.115C195.909 143.415 195.762 142.662 195.762 141.858C195.762 140.981 195.928 140.218 196.261 139.567C196.598 138.912 197.075 138.416 197.691 138.079C198.312 137.739 198.993 137.568 199.736 137.568C200.578 137.568 201.286 137.783 201.861 138.211C202.435 138.64 202.835 139.243 203.061 140.02L201.964 140.279C201.769 139.666 201.485 139.22 201.114 138.941C200.743 138.661 200.276 138.522 199.713 138.522C199.066 138.522 198.524 138.677 198.088 138.987C197.655 139.297 197.351 139.714 197.174 140.239C196.998 140.759 196.91 141.297 196.91 141.852C196.91 142.568 197.014 143.194 197.22 143.73C197.431 144.263 197.756 144.661 198.197 144.925C198.637 145.189 199.114 145.321 199.627 145.321C200.251 145.321 200.779 145.141 201.212 144.781C201.644 144.421 201.937 143.887 202.09 143.179Z" fill="white"/>
<path d="M203.735 146.131V137.712H204.849V141.169H209.225V137.712H210.339V146.131H209.225V142.163H204.849V146.131H203.735Z" fill="white"/>
<path d="M210.393 146.131L213.627 137.712H214.827L218.273 146.131H217.004L216.022 143.581H212.501L211.577 146.131H210.393ZM212.823 142.674H215.677L214.798 140.342C214.53 139.634 214.331 139.052 214.201 138.596C214.094 139.136 213.943 139.672 213.747 140.204L212.823 142.674Z" fill="white"/>
<path d="M218.269 146.131V137.712H219.412L223.834 144.322V137.712H224.902V146.131H223.759L219.337 139.515V146.131H218.269Z" fill="white"/>
<path d="M229.838 142.829V141.841L233.404 141.835V144.959C232.857 145.396 232.292 145.725 231.71 145.947C231.128 146.165 230.531 146.274 229.918 146.274C229.091 146.274 228.339 146.098 227.661 145.746C226.987 145.39 226.478 144.877 226.134 144.207C225.789 143.537 225.617 142.789 225.617 141.962C225.617 141.142 225.787 140.378 226.128 139.67C226.472 138.958 226.966 138.43 227.61 138.085C228.253 137.741 228.994 137.568 229.832 137.568C230.441 137.568 230.99 137.668 231.48 137.867C231.974 138.062 232.361 138.336 232.64 138.688C232.92 139.04 233.132 139.5 233.278 140.066L232.273 140.342C232.146 139.913 231.989 139.576 231.802 139.331C231.614 139.086 231.346 138.891 230.998 138.746C230.649 138.596 230.263 138.522 229.838 138.522C229.329 138.522 228.888 138.6 228.517 138.757C228.146 138.91 227.845 139.113 227.615 139.366C227.389 139.618 227.213 139.896 227.087 140.198C226.873 140.719 226.765 141.284 226.765 141.893C226.765 142.643 226.894 143.271 227.15 143.776C227.41 144.282 227.788 144.657 228.281 144.902C228.775 145.147 229.3 145.269 229.855 145.269C230.337 145.269 230.808 145.178 231.268 144.994C231.727 144.806 232.076 144.607 232.313 144.397V142.829H229.838Z" fill="white"/>
<path d="M234.193 146.131V137.712H240.281V138.705H235.307V141.284H239.965V142.272H235.307V145.137H240.476V146.131H234.193Z" fill="white"/>
<path d="M249.531 143.179L250.645 143.46C250.412 144.375 249.991 145.074 249.382 145.557C248.777 146.035 248.036 146.274 247.16 146.274C246.252 146.274 245.513 146.091 244.943 145.723C244.376 145.352 243.943 144.816 243.645 144.115C243.35 143.415 243.203 142.662 243.203 141.858C243.203 140.981 243.369 140.218 243.702 139.567C244.039 138.912 244.516 138.416 245.132 138.079C245.753 137.739 246.434 137.568 247.177 137.568C248.019 137.568 248.727 137.783 249.302 138.211C249.876 138.64 250.276 139.243 250.502 140.02L249.405 140.279C249.21 139.666 248.926 139.22 248.555 138.941C248.184 138.661 247.717 138.522 247.154 138.522C246.507 138.522 245.965 138.677 245.529 138.987C245.096 139.297 244.792 139.714 244.615 140.239C244.439 140.759 244.351 141.297 244.351 141.852C244.351 142.568 244.455 143.194 244.661 143.73C244.872 144.263 245.197 144.661 245.638 144.925C246.078 145.189 246.555 145.321 247.068 145.321C247.692 145.321 248.22 145.141 248.653 144.781C249.085 144.421 249.378 143.887 249.531 143.179Z" fill="white"/>
<path d="M250.803 142.03C250.803 140.633 251.178 139.54 251.928 138.751C252.679 137.959 253.647 137.562 254.834 137.562C255.612 137.562 256.312 137.748 256.936 138.12C257.56 138.491 258.035 139.01 258.36 139.676C258.69 140.338 258.854 141.091 258.854 141.933C258.854 142.787 258.682 143.55 258.337 144.224C257.993 144.898 257.505 145.409 256.873 145.758C256.241 146.102 255.56 146.274 254.829 146.274C254.036 146.274 253.328 146.083 252.704 145.7C252.08 145.317 251.607 144.795 251.285 144.132C250.964 143.47 250.803 142.769 250.803 142.03ZM251.951 142.048C251.951 143.062 252.223 143.862 252.767 144.448C253.314 145.03 254 145.321 254.823 145.321C255.661 145.321 256.35 145.026 256.89 144.437C257.434 143.847 257.706 143.011 257.706 141.927C257.706 141.242 257.589 140.645 257.355 140.135C257.126 139.622 256.787 139.226 256.339 138.947C255.895 138.663 255.395 138.522 254.84 138.522C254.051 138.522 253.372 138.793 252.801 139.337C252.235 139.877 251.951 140.78 251.951 142.048Z" fill="white"/>
<path d="M259.379 146.131V137.712H261.056L263.049 143.673C263.233 144.228 263.367 144.643 263.451 144.919C263.547 144.613 263.696 144.163 263.899 143.57L265.915 137.712H267.414V146.131H266.34V139.084L263.893 146.131H262.888L260.453 138.964V146.131H259.379Z" fill="white"/>
<path d="M268.294 146.131V137.712H269.971L271.964 143.673C272.148 144.228 272.282 144.643 272.366 144.919C272.462 144.613 272.611 144.163 272.814 143.57L274.83 137.712H276.329V146.131H275.255V139.084L272.808 146.131H271.803L269.368 138.964V146.131H268.294Z" fill="white"/>
<path d="M277.434 146.131V137.712H278.548V146.131H277.434Z" fill="white"/>
<path d="M279.257 143.426L280.307 143.334C280.357 143.755 280.472 144.102 280.652 144.374C280.836 144.642 281.119 144.86 281.502 145.028C281.885 145.193 282.316 145.275 282.794 145.275C283.219 145.275 283.594 145.212 283.92 145.086C284.245 144.959 284.486 144.787 284.643 144.569C284.804 144.347 284.885 144.106 284.885 143.845C284.885 143.581 284.808 143.351 284.655 143.156C284.502 142.957 284.249 142.79 283.897 142.656C283.671 142.568 283.171 142.432 282.398 142.249C281.625 142.061 281.083 141.885 280.773 141.72C280.371 141.51 280.07 141.249 279.871 140.939C279.676 140.625 279.578 140.275 279.578 139.888C279.578 139.463 279.699 139.067 279.94 138.7C280.181 138.328 280.533 138.047 280.997 137.855C281.46 137.664 281.975 137.568 282.541 137.568C283.166 137.568 283.715 137.67 284.19 137.873C284.668 138.072 285.036 138.367 285.292 138.757C285.549 139.148 285.687 139.59 285.706 140.084L284.638 140.164C284.58 139.632 284.385 139.23 284.052 138.958C283.723 138.686 283.234 138.55 282.587 138.55C281.914 138.55 281.422 138.675 281.112 138.924C280.805 139.169 280.652 139.465 280.652 139.814C280.652 140.116 280.761 140.365 280.979 140.56C281.194 140.756 281.753 140.957 282.656 141.163C283.564 141.366 284.186 141.544 284.523 141.697C285.013 141.923 285.375 142.21 285.608 142.559C285.842 142.903 285.959 143.302 285.959 143.753C285.959 144.201 285.83 144.624 285.574 145.023C285.317 145.417 284.948 145.725 284.465 145.947C283.987 146.165 283.447 146.274 282.846 146.274C282.084 146.274 281.445 146.163 280.928 145.941C280.415 145.719 280.011 145.386 279.716 144.942C279.425 144.494 279.272 143.989 279.257 143.426Z" fill="white"/>
<path d="M286.219 143.426L287.27 143.334C287.32 143.755 287.435 144.102 287.615 144.374C287.799 144.642 288.082 144.86 288.465 145.028C288.848 145.193 289.278 145.275 289.757 145.275C290.182 145.275 290.557 145.212 290.882 145.086C291.208 144.959 291.449 144.787 291.606 144.569C291.767 144.347 291.847 144.106 291.847 143.845C291.847 143.581 291.771 143.351 291.618 143.156C291.464 142.957 291.212 142.79 290.859 142.656C290.634 142.568 290.134 142.432 289.361 142.249C288.587 142.061 288.045 141.885 287.735 141.72C287.333 141.51 287.033 141.249 286.834 140.939C286.638 140.625 286.541 140.275 286.541 139.888C286.541 139.463 286.661 139.067 286.903 138.7C287.144 138.328 287.496 138.047 287.959 137.855C288.423 137.664 288.938 137.568 289.504 137.568C290.128 137.568 290.678 137.67 291.152 137.873C291.631 138.072 291.999 138.367 292.255 138.757C292.512 139.148 292.649 139.59 292.669 140.084L291.6 140.164C291.543 139.632 291.348 139.23 291.015 138.958C290.685 138.686 290.197 138.55 289.55 138.55C288.876 138.55 288.384 138.675 288.074 138.924C287.768 139.169 287.615 139.465 287.615 139.814C287.615 140.116 287.724 140.365 287.942 140.56C288.156 140.756 288.715 140.957 289.619 141.163C290.526 141.366 291.149 141.544 291.485 141.697C291.976 141.923 292.337 142.21 292.571 142.559C292.804 142.903 292.921 143.302 292.921 143.753C292.921 144.201 292.793 144.624 292.536 145.023C292.28 145.417 291.91 145.725 291.428 145.947C290.949 146.165 290.41 146.274 289.809 146.274C289.047 146.274 288.407 146.163 287.89 145.941C287.377 145.719 286.973 145.386 286.679 144.942C286.388 144.494 286.235 143.989 286.219 143.426Z" fill="white"/>
<path d="M293.75 146.131V137.712H294.865V146.131H293.75Z" fill="white"/>
<path d="M295.613 142.03C295.613 140.633 295.989 139.54 296.739 138.751C297.489 137.959 298.458 137.562 299.645 137.562C300.422 137.562 301.123 137.748 301.747 138.12C302.371 138.491 302.846 139.01 303.171 139.676C303.5 140.338 303.665 141.091 303.665 141.933C303.665 142.787 303.493 143.55 303.148 144.224C302.804 144.898 302.315 145.409 301.684 145.758C301.052 146.102 300.37 146.274 299.639 146.274C298.847 146.274 298.138 146.083 297.514 145.7C296.89 145.317 296.417 144.795 296.096 144.132C295.774 143.47 295.613 142.769 295.613 142.03ZM296.762 142.048C296.762 143.062 297.034 143.862 297.578 144.448C298.125 145.03 298.81 145.321 299.633 145.321C300.472 145.321 301.161 145.026 301.701 144.437C302.245 143.847 302.516 143.011 302.516 141.927C302.516 141.242 302.4 140.645 302.166 140.135C301.936 139.622 301.598 139.226 301.15 138.947C300.705 138.663 300.206 138.522 299.651 138.522C298.862 138.522 298.182 138.793 297.612 139.337C297.045 139.877 296.762 140.78 296.762 142.048Z" fill="white"/>
<path d="M304.213 146.131V137.712H305.356L309.778 144.322V137.712H310.846V146.131H309.703L305.281 139.515V146.131H304.213Z" fill="white"/>
<path fill-rule="evenodd" clip-rule="evenodd" d="M131.781 64.291H130.8V65.2711V72.132V79.9729V80.9531H131.781H143.052V78.9928H132.761V73.1121H142.072V71.1519H132.761V66.2513H143.052V64.291H131.781ZM146.972 64.291H145.992V65.2711V80.9531H147.953V66.2513H156.774V80.9531H158.734V65.2711V64.291H157.754H146.972ZM164.615 80.9531V64.291H162.654V80.9531H164.615ZM167.555 66.2513H172.456V80.463H174.416V66.2513H179.316V64.291H173.436H167.555V66.2513ZM182.747 64.291H181.767V65.2711V73.1121V80.463H183.727V74.0922H188.628C189.441 74.0922 190.66 73.9624 191.697 73.2441C192.801 72.4801 193.528 71.1727 193.528 69.1916C193.528 67.2105 192.801 65.9031 191.697 65.1391C190.66 64.4209 189.441 64.291 188.628 64.291H182.747ZM188.628 72.132H183.727V66.2513H188.628C189.284 66.2513 190.026 66.3664 190.581 66.7508C191.07 67.0895 191.568 67.7423 191.568 69.1916C191.568 70.641 191.07 71.2938 190.581 71.6324C190.026 72.0168 189.284 72.132 188.628 72.132ZM202.839 64.291C200.949 64.291 198.976 64.8308 197.465 66.1983C195.934 67.5834 194.998 69.7073 194.998 72.622C194.998 75.5338 195.931 77.7582 197.429 79.2571C198.92 80.7472 200.894 81.4431 202.839 81.4431C204.785 81.4431 206.759 80.7472 208.249 79.2571C209.748 77.7582 210.68 75.5338 210.68 72.622C210.68 69.7073 209.745 67.5834 208.214 66.1983C206.702 64.8308 204.729 64.291 202.839 64.291ZM196.959 72.622C196.959 70.1461 197.738 68.5946 198.78 67.6519C199.841 66.6916 201.299 66.2513 202.839 66.2513C204.38 66.2513 205.837 66.6916 206.899 67.6519C207.94 68.5946 208.72 70.1461 208.72 72.622C208.72 75.1009 207.937 76.797 206.863 77.871C205.78 78.9536 204.324 79.4829 202.839 79.4829C201.354 79.4829 199.898 78.9536 198.816 77.871C197.742 76.797 196.959 75.1009 196.959 72.622ZM215.091 64.291H214.111V65.2711V80.9531H216.071V66.2513H224.892V80.9531H226.852V65.2711V64.291H225.872H215.091ZM232.243 64.291V71.1519H241.064V64.291H243.024V72.132V80.9531H241.064V73.1121H232.243V80.9531H230.283V72.132V64.291H232.243ZM143.96 87.3239L137.296 94.2653L144.525 103.986H142.082L135.919 95.6992L132.761 98.9896V103.986H130.8V98.5952V87.3239H132.761V96.159L135.308 93.5059L141.242 87.3239H143.96ZM145.992 87.3239V88.304V95.1648V103.006V103.986H146.972H157.754V102.026H147.953V96.1449H156.774V94.1847H147.953V89.2841H157.754V87.3239H146.972H145.992ZM166.085 87.3239V89.3113C164.6 89.3968 163.076 89.702 161.832 90.4722C160.228 91.4652 159.224 93.1458 159.224 95.6549C159.224 98.164 160.228 99.8445 161.832 100.838C163.076 101.608 164.6 101.913 166.085 101.999V103.986H168.045V101.999C169.53 101.913 171.053 101.608 172.298 100.838C173.902 99.8445 174.906 98.164 174.906 95.6549C174.906 93.1458 173.902 91.4652 172.298 90.4722C171.053 89.702 169.53 89.3968 168.045 89.3113V87.3239H166.085ZM181.215 87.3239L177.442 97.7723L175.198 103.986H177.282L179.052 99.0853H185.779L187.685 103.986H191.494L196.503 90.1154L201.897 103.986H204L197.52 87.3239H195.426L189.592 103.481L187.363 97.7499L183.308 87.3239H181.215ZM210.101 87.3239L206.328 97.7723L204.084 103.986H206.168L207.938 99.0853H214.665L216.571 103.986H218.674L216.249 97.7499L212.195 87.3239H210.101ZM220.481 87.3239V103.986H222.442V87.3239H220.481ZM230.439 87.3239L226.665 97.7723L224.422 103.986H226.506L228.275 99.0853H235.003L236.909 103.986H239.012L236.587 97.7499L232.532 87.3239H230.439ZM240.574 87.3239V88.304V103.986H242.534V89.2841H251.845V87.3239H241.554H240.574ZM261.156 87.3239C259.266 87.3239 257.294 87.8636 255.782 89.2311C254.251 90.6162 253.316 92.7401 253.316 95.6549C253.316 98.5696 254.251 100.694 255.782 102.079C257.294 103.446 259.266 103.986 261.156 103.986C263.047 103.986 265.019 103.446 266.531 102.079C268.062 100.694 268.997 98.5696 268.997 95.6549C268.997 92.7401 268.062 90.6162 266.531 89.2311C265.019 87.8636 263.047 87.3239 261.156 87.3239ZM271.938 103.986H273.898V97.1251H278.799C279.612 97.1251 280.831 96.9952 281.868 96.277C282.972 95.513 283.699 94.2055 283.699 92.2245C283.699 90.2434 282.972 88.9359 281.868 88.172C280.831 87.4537 279.612 87.3239 278.799 87.3239H272.918H271.938V88.304V96.1449V103.986ZM290.008 87.3239L286.235 97.7723L283.991 103.986H286.075L287.845 99.0853H294.572L296.478 103.986H298.581H299.871H302.812H311.633V102.026H302.237L307.915 96.3479L308.608 95.6549L307.915 94.9618L302.237 89.2841H311.633V87.3239H302.812H299.871H297.505L299.178 88.997L305.836 95.6549L299.178 102.313L298.28 103.211L296.156 97.7499L292.102 87.3239H290.008ZM293.81 97.1251H288.553L291.084 90.1154L293.81 97.1251ZM162.864 92.139C163.704 91.6189 164.824 91.3591 166.085 91.2754V100.034C164.824 99.9507 163.704 99.6908 162.864 99.1708C161.895 98.5711 161.184 97.5563 161.184 95.6549C161.184 93.7534 161.895 92.7387 162.864 92.139ZM171.266 99.1708C170.426 99.6908 169.305 99.9507 168.045 100.034V91.2754C169.305 91.3591 170.426 91.6189 171.266 92.139C172.235 92.7387 172.946 93.7534 172.946 95.6549C172.946 97.5563 172.235 98.5711 171.266 99.1708ZM255.276 95.6549C255.276 93.179 256.055 91.6274 257.097 90.6847C258.159 89.7245 259.616 89.2841 261.156 89.2841C262.697 89.2841 264.154 89.7245 265.216 90.6847C266.258 91.6274 267.037 93.179 267.037 95.6549C267.037 98.1308 266.258 99.6823 265.216 100.625C264.154 101.585 262.697 102.026 261.156 102.026C259.616 102.026 258.159 101.585 257.097 100.625C256.055 99.6823 255.276 98.1308 255.276 95.6549ZM278.799 95.1648H273.898V89.2841H278.799C279.455 89.2841 280.197 89.3993 280.752 89.7837C281.242 90.1223 281.739 90.7751 281.739 92.2245C281.739 93.6738 281.242 94.3266 280.752 94.6653C280.197 95.0497 279.455 95.1648 278.799 95.1648ZM218.185 109.867H220.523L214.601 118.978V127.509H212.641V118.978L206.718 109.867H209.056L213.621 116.889L218.185 109.867ZM183.237 109.867H177.356H176.376V110.847V118.688V127.509H178.336V119.668H183.237C184.05 119.668 185.269 119.538 186.306 118.82C187.41 118.056 188.137 116.748 188.137 114.767C188.137 112.786 187.41 111.479 186.306 110.715C185.269 109.996 184.05 109.867 183.237 109.867ZM172.456 127.509V110.847V109.867H171.475H160.694H159.714V110.847V127.509H161.674V111.827H170.495V127.509H172.456ZM152.363 127.509V118.978L158.286 109.867H155.948L151.383 116.889L146.818 109.867H142.215L135.309 117.027L135.308 117.029L132.761 119.682V109.867H130.8V122.118V127.509H132.761V122.512L135.919 119.222L142.082 127.509H144.525L137.297 117.79L144.665 110.15L150.403 118.978V127.509H152.363ZM197.449 109.867C195.503 109.867 193.529 110.563 192.039 112.053C190.54 113.552 189.608 115.776 189.608 118.688C189.608 121.6 190.54 123.824 192.039 125.323C193.529 126.813 195.503 127.509 197.449 127.509C199.394 127.509 201.368 126.813 202.859 125.323C204.357 123.824 205.29 121.6 205.29 118.688C205.29 115.776 204.357 113.552 202.859 112.053C201.368 110.563 199.394 109.867 197.449 109.867ZM183.237 117.708H178.336V111.827H183.237C183.894 111.827 184.635 111.942 185.191 112.326C185.68 112.665 186.177 113.318 186.177 114.767C186.177 116.217 185.68 116.869 185.191 117.208C184.635 117.592 183.894 117.708 183.237 117.708ZM191.568 118.688C191.568 116.209 192.351 114.513 193.425 113.439C194.508 112.356 195.964 111.827 197.449 111.827C198.934 111.827 200.39 112.356 201.472 113.439C202.546 114.513 203.329 116.209 203.329 118.688C203.329 121.167 202.546 122.863 201.472 123.937C200.39 125.019 198.934 125.549 197.449 125.549C195.964 125.549 194.508 125.019 193.425 123.937C192.351 122.863 191.568 121.167 191.568 118.688ZM179.76 97.1251H185.017L182.291 90.1154L179.76 97.1251ZM208.646 97.1251H213.903L211.177 90.1154L208.646 97.1251ZM228.983 97.1251H234.241L231.515 90.1154L228.983 97.1251Z" fill="white"/>
<rect x="47" y="148" width="265" height="2" fill="white"/>
<defs>
<clipPath id="clip0">
<rect width="360" height="204" rx="12" fill="white"/>
</clipPath>
</defs>
</svg>
