<svg width="50" height="50" viewBox="0 0 50 50" fill="none" xmlns="http://www.w3.org/2000/svg">
<rect width="50" height="50" rx="12" fill="#393FCC"/>
<path d="M17.4166 19.5834C17.4166 18.985 17.9016 18.5 18.4999 18.5H31.4999C32.0982 18.5 32.5833 18.985 32.5833 19.5834C32.5833 20.1817 32.0982 20.6667 31.4999 20.6667H18.4999C17.9016 20.6667 17.4166 20.1817 17.4166 19.5834Z" fill="white"/>
<path d="M18.4999 22.2917C17.9016 22.2917 17.4166 22.7767 17.4166 23.375C17.4166 23.9733 17.9016 24.4584 18.4999 24.4584H21.7499C22.3482 24.4584 22.8333 23.9733 22.8333 23.375C22.8333 22.7767 22.3482 22.2917 21.7499 22.2917H18.4999Z" fill="white"/>
<path d="M17.4166 27.1667C17.4166 26.5684 17.9016 26.0834 18.4999 26.0834H20.6666C21.2649 26.0834 21.7499 26.5684 21.7499 27.1667C21.7499 27.765 21.2649 28.25 20.6666 28.25H18.4999C17.9016 28.25 17.4166 27.765 17.4166 27.1667Z" fill="white"/>
<path fill-rule="evenodd" clip-rule="evenodd" d="M13.0833 16.3334C13.0833 15.1367 14.0533 14.1667 15.2499 14.1667H34.7499C35.9466 14.1667 36.9166 15.1367 36.9166 16.3334V30.4167C36.9166 31.6133 35.9466 32.5834 34.7499 32.5834H31.4999V34.7503C31.4999 35.1258 31.3055 35.4745 30.9861 35.6719C30.6667 35.8693 30.2679 35.8872 29.9321 35.7193L28.2499 34.8782L26.5677 35.7193C26.2319 35.8872 25.8331 35.8693 25.5137 35.6719C25.1943 35.4745 24.9999 35.1258 24.9999 34.7503V32.5834H15.2499C14.0533 32.5834 13.0833 31.6133 13.0833 30.4167V16.3334ZM31.4999 30.4167V29.4913C32.1741 28.7274 32.5833 27.724 32.5833 26.625C32.5833 24.2318 30.6432 22.2917 28.2499 22.2917C25.8567 22.2917 23.9166 24.2318 23.9166 26.625C23.9166 27.724 24.3257 28.7274 24.9999 29.4913V30.4167H15.2499V16.3334H34.7499V30.4167H31.4999Z" fill="white"/>
</svg>
