<svg width="50" height="50" viewBox="0 0 50 50" fill="none" xmlns="http://www.w3.org/2000/svg">
<rect width="50" height="50" rx="12" fill="#393FCC"/>
<path fill-rule="evenodd" clip-rule="evenodd" d="M16.2038 15.5571C17.8116 15.0212 19.9639 14.7083 22.2916 14.7083C24.6193 14.7083 26.7716 15.0212 28.3794 15.5571C29.1777 15.8232 29.9018 16.1639 30.4486 16.5949C30.9833 17.0162 31.4999 17.6518 31.4999 18.4999V22.3815C34.5741 22.8972 36.9166 25.5709 36.9166 28.7916C36.9166 32.3814 34.0064 35.2916 30.4166 35.2916C29.4214 35.2916 28.4761 35.0672 27.6309 34.6658C26.1331 35.0638 24.2778 35.2916 22.2916 35.2916C19.9639 35.2916 17.8116 34.9787 16.2038 34.4427C15.4055 34.1766 14.6814 33.8359 14.1345 33.405C13.5999 32.9837 13.0833 32.3481 13.0833 31.4999V18.4999C13.0833 17.6518 13.5999 17.0162 14.1345 16.5949C14.6814 16.1639 15.4055 15.8232 16.2038 15.5571ZM25.3881 32.9105C24.8989 32.314 24.5137 31.6287 24.2602 30.8818C23.6266 30.9319 22.9676 30.9583 22.2916 30.9583C19.9639 30.9583 17.8116 30.6453 16.2038 30.1094C15.8704 29.9983 15.5499 29.8741 15.2499 29.7358V31.4699C15.2653 31.4996 15.3179 31.5789 15.4756 31.7033C15.7511 31.9203 16.2168 32.1632 16.8889 32.3873C18.2218 32.8315 20.132 33.1249 22.2916 33.1249C23.4039 33.1249 24.4512 33.0471 25.3881 32.9105ZM23.9168 28.7348C23.9234 27.9656 24.0639 27.2278 24.316 26.5439C23.6647 26.597 22.9868 26.6249 22.2916 26.6249C19.9639 26.6249 17.8116 26.312 16.2038 25.7761C15.8704 25.6649 15.5499 25.5408 15.2499 25.4025V27.1366C15.2653 27.1663 15.3179 27.2456 15.4756 27.3699C15.7511 27.587 16.2168 27.8299 16.8889 28.0539C18.2218 28.4982 20.132 28.7916 22.2916 28.7916C22.8504 28.7916 23.3942 28.7719 23.9168 28.7348ZM25.8448 24.1711C26.7751 23.2507 27.9838 22.6082 29.3333 22.3816V21.0692C29.0332 21.2075 28.7128 21.3316 28.3794 21.4427C26.7716 21.9787 24.6193 22.2916 22.2916 22.2916C19.9639 22.2916 17.8116 21.9787 16.2038 21.4427C15.8704 21.3316 15.5499 21.2075 15.2499 21.0692V22.8033C15.2653 22.833 15.3179 22.9123 15.4756 23.0366C15.7511 23.2537 16.2168 23.4966 16.8889 23.7206C18.2218 24.1649 20.132 24.4583 22.2916 24.4583C23.5835 24.4583 24.7926 24.3532 25.8448 24.1711ZM33.6201 26.9422C34.0432 27.3653 34.0432 28.0512 33.6201 28.4743L30.641 31.4535C30.2179 31.8765 29.532 31.8765 29.1089 31.4535L27.4839 29.8284C27.0608 29.4054 27.0608 28.7195 27.4839 28.2964C27.907 27.8733 28.5929 27.8733 29.0159 28.2964L29.8749 29.1554L32.0881 26.9422C32.5111 26.5192 33.197 26.5192 33.6201 26.9422Z" fill="white"/>
</svg>
