<svg width="50" height="50" viewBox="0 0 50 50" fill="none" xmlns="http://www.w3.org/2000/svg">
<rect width="50" height="50" rx="12" fill="#393FCC"/>
<g clip-path="url(#clip0)">
<path d="M37.4668 12.0023C32.3914 11.9113 26.6032 14.5644 22.9393 18.6799C19.438 18.746 16.0287 20.1814 13.5187 22.6915C13.3724 22.8356 13.3204 23.0512 13.3843 23.2462C13.4493 23.4423 13.6183 23.5842 13.822 23.6134L17.9972 24.2114L17.4815 24.7889C17.2897 25.0034 17.2995 25.3294 17.5032 25.5331L24.4657 32.4957C24.5708 32.6008 24.7095 32.6539 24.8492 32.6539C24.9782 32.6539 25.1071 32.6084 25.21 32.5163L25.7874 32.0006L26.3854 36.1758C26.4147 36.3794 26.575 36.5289 26.7689 36.5939C26.8187 36.6102 26.8707 36.6178 26.9238 36.6178C27.0777 36.6178 27.2347 36.5506 27.3431 36.4434C29.8185 33.9679 31.2539 30.5587 31.32 27.0574C35.4399 23.3859 38.1147 17.5999 37.9966 12.5309C37.989 12.2428 37.7561 12.0099 37.4668 12.0023ZM32.4748 21.3536C31.9472 21.8812 31.2539 22.1455 30.5595 22.1455C29.8651 22.1455 29.1717 21.8812 28.6442 21.3536C27.589 20.2974 27.589 18.5792 28.6442 17.5229C29.7004 16.4667 31.4186 16.4667 32.4748 17.5229C33.5311 18.5792 33.5311 20.2984 32.4748 21.3536Z" fill="white"/>
<path d="M14.9513 30.3126C13.7921 31.4718 12.2007 36.7087 12.0231 37.3013C11.9656 37.4919 12.0187 37.6988 12.1585 37.8397C12.2625 37.9437 12.4001 37.9989 12.542 37.9989C12.594 37.9989 12.646 37.9913 12.698 37.9762C13.2906 37.7985 18.5274 36.2071 19.6866 35.0479C20.992 33.7425 20.992 31.6181 19.6866 30.3126C18.3801 29.0072 16.2567 29.0083 14.9513 30.3126Z" fill="white"/>
</g>
<defs>
<clipPath id="clip0">
<rect width="26" height="26" fill="white" transform="translate(12 12)"/>
</clipPath>
</defs>
</svg>
