<svg width="50" height="50" viewBox="0 0 50 50" fill="none" xmlns="http://www.w3.org/2000/svg">
<rect width="50" height="50" rx="12" fill="#393FCC"/>
<path fill-rule="evenodd" clip-rule="evenodd" d="M14.1666 14.7083C13.5683 14.7083 13.0833 15.1933 13.0833 15.7916V29.8749C13.0833 30.4732 13.5683 30.9583 14.1666 30.9583H23.9166V33.1249H18.4999C17.9016 33.1249 17.4166 33.6099 17.4166 34.2083C17.4166 34.8066 17.9016 35.2916 18.4999 35.2916H31.4999C32.0982 35.2916 32.5833 34.8066 32.5833 34.2083C32.5833 33.6099 32.0982 33.1249 31.4999 33.1249H26.0833V30.9583H35.8333C36.4316 30.9583 36.9166 30.4732 36.9166 29.8749V15.7916C36.9166 15.1933 36.4316 14.7083 35.8333 14.7083H14.1666ZM21.7499 23.9166C21.7499 23.3183 21.2649 22.8333 20.6666 22.8333C20.0683 22.8333 19.5833 23.3183 19.5833 23.9166V26.0833C19.5833 26.6816 20.0683 27.1666 20.6666 27.1666C21.2649 27.1666 21.7499 26.6816 21.7499 26.0833V23.9166ZM24.9999 20.6666C25.5982 20.6666 26.0833 21.1516 26.0833 21.7499V26.0833C26.0833 26.6816 25.5982 27.1666 24.9999 27.1666C24.4016 27.1666 23.9166 26.6816 23.9166 26.0833V21.7499C23.9166 21.1516 24.4016 20.6666 24.9999 20.6666ZM30.4166 19.5833C30.4166 18.9849 29.9316 18.4999 29.3333 18.4999C28.7349 18.4999 28.2499 18.9849 28.2499 19.5833V26.0833C28.2499 26.6816 28.7349 27.1666 29.3333 27.1666C29.9316 27.1666 30.4166 26.6816 30.4166 26.0833V19.5833Z" fill="white"/>
</svg>
