<svg width="50" height="50" viewBox="0 0 50 50" fill="none" xmlns="http://www.w3.org/2000/svg">
<rect width="50" height="50" rx="12" fill="#393FCC"/>
<path d="M24.5934 17.6534C25.0606 18.0272 25.1364 18.7089 24.7626 19.1761L22.5959 21.8845C22.2222 22.3517 21.5404 22.4274 21.0732 22.0537C20.606 21.6799 20.5303 20.9982 20.9041 20.531L23.0707 17.8226C23.4445 17.3554 24.1262 17.2797 24.5934 17.6534Z" fill="white"/>
<path d="M28.0333 20.2327C28.3923 19.7541 28.2953 19.0751 27.8167 18.7161C27.338 18.3571 26.659 18.4541 26.3 18.9327L24.675 21.0994C24.316 21.5781 24.413 22.2571 24.8917 22.6161C25.3703 22.9751 26.0493 22.8781 26.4083 22.3994L28.0333 20.2327Z" fill="white"/>
<path fill-rule="evenodd" clip-rule="evenodd" d="M15.7917 14.166C14.595 14.166 13.625 15.1361 13.625 16.3327V29.3327C13.625 30.5293 14.5951 31.4993 15.7917 31.4993H19.6452L18.569 34.3693C18.4442 34.7019 18.4905 35.0747 18.6929 35.3667C18.8953 35.6587 19.228 35.833 19.5833 35.833H30.4167C30.772 35.833 31.1047 35.6587 31.3071 35.3667C31.5095 35.0747 31.5558 34.7019 31.431 34.3693L30.3548 31.4993H34.2083C35.405 31.4993 36.375 30.5293 36.375 29.3327V16.3327C36.375 15.1361 35.405 14.166 34.2083 14.166H15.7917ZM28.0408 31.4993L28.8534 33.6663H21.1466L21.9592 31.4993H28.0408ZM34.2083 29.3327V26.0827H15.7917V29.3327H34.2083ZM34.2083 23.916V16.3327H15.7917V23.916H34.2083Z" fill="white"/>
<path fill-rule="evenodd" clip-rule="evenodd" d="M34.2083 26.0827V29.3327H15.7917V26.0827H34.2083ZM25 28.791C25.5983 28.791 26.0833 28.306 26.0833 27.7077C26.0833 27.1094 25.5983 26.6243 25 26.6243C24.4017 26.6243 23.9167 27.1094 23.9167 27.7077C23.9167 28.306 24.4017 28.791 25 28.791Z" fill="white"/>
</svg>
