<svg width="50" height="50" viewBox="0 0 50 50" fill="none" xmlns="http://www.w3.org/2000/svg">
<rect width="50" height="50" rx="12" fill="#393FCC"/>
<path d="M19.5834 18.5C19.5834 15.5084 22.0085 13.0833 25.0001 13.0833C27.9916 13.0833 30.4167 15.5084 30.4167 18.5C30.4167 21.4915 27.9916 23.9166 25.0001 23.9166C22.0085 23.9166 19.5834 21.4915 19.5834 18.5Z" fill="white"/>
<path d="M25.0001 25C19.017 25 14.1667 29.8502 14.1667 35.8333C14.1667 36.4316 14.6518 36.9166 15.2501 36.9166C15.8484 36.9166 16.3334 36.4316 16.3334 35.8333C16.3334 31.5609 19.425 28.0104 23.4931 27.2972L21.798 32.8064C21.6926 33.1491 21.7635 33.5217 21.9875 33.8017L24.1542 36.5101C24.3597 36.767 24.671 36.9166 25.0001 36.9166C25.3292 36.9166 25.6404 36.767 25.846 36.5101L28.0127 33.8017C28.2367 33.5217 28.3076 33.1491 28.2022 32.8064L26.5071 27.2972C30.5752 28.0105 33.6667 31.5609 33.6667 35.8333C33.6667 36.4316 34.1518 36.9166 34.7501 36.9166C35.3484 36.9166 35.8334 36.4316 35.8334 35.8333C35.8334 29.8512 30.9847 25.0015 25.0029 25" fill="white"/>
<path d="M25.0001 25C25.0001 25 25.0001 25 25.0001 25V25Z" fill="white"/>
</svg>
