<svg width="360" height="204" viewBox="0 0 360 204" fill="none" xmlns="http://www.w3.org/2000/svg">
<g clip-path="url(#clip0)">
<rect width="360" height="204" rx="12" fill="#393FCC"/>
<path opacity="0.05" fill-rule="evenodd" clip-rule="evenodd" d="M45.3882 128.062C40.4133 130.458 34.6835 131.823 28.5851 131.823C9.48427 131.823 -6 118.431 -6 101.911C-6 85.3918 9.48427 72 28.5851 72C47.6859 72 63.1702 85.3918 63.1702 101.911C63.1702 108.735 60.528 115.026 56.0801 120.059L65.0397 129.018L55.6924 138.366L45.3882 128.062ZM50.0838 101.911C50.0838 111.204 40.4584 118.737 28.5849 118.737C16.7114 118.737 7.08609 111.204 7.08609 101.911C7.08609 92.6191 16.7114 85.0863 28.5849 85.0863C40.4584 85.0863 50.0838 92.6191 50.0838 101.911ZM172.534 131.823C191.635 131.823 207.119 118.431 207.119 101.911C207.119 85.3918 191.635 72 172.534 72C153.433 72 137.949 85.3918 137.949 101.911C137.949 118.431 153.433 131.823 172.534 131.823ZM172.534 118.737C184.407 118.737 194.033 111.204 194.033 101.911C194.033 92.6191 184.407 85.0863 172.534 85.0863C160.66 85.0863 151.035 92.6191 151.035 101.911C151.035 111.204 160.66 118.737 172.534 118.737ZM128.601 72H113.646V109.389H128.601V72ZM70.648 72.0007H85.6037V109.389H85.6052C85.6055 114.552 91.8828 118.736 99.6262 118.736C107.37 118.736 113.647 114.552 113.647 109.389H128.602C128.602 121.779 115.629 131.823 99.6253 131.823C83.6223 131.823 70.6492 121.779 70.6486 109.39H70.648V72.0007ZM233.292 72H212.727V85.0863H233.292V129.953H246.378V85.0863H266.942V72H246.378H233.292ZM276.289 72H289.375V129.953H276.289V72ZM315.548 72H297.788L323.96 100.977L297.788 129.954H315.548L332.685 110.636L350.133 129.953H366.958L341.253 100.977L366.958 72.0003H350.133L332.685 91.318L315.548 72Z" fill="white"/>
<path opacity="0.05" d="M8.13513 157.5C8.13513 178.5 14.9459 201.25 19.8108 210C-6.45946 189.583 -59 150.208 -59 87.5C-59 43.1667 -31.7568 9.72222 -18.1351 0L49 70C35.8649 83.125 8.13513 112.292 8.13513 157.5Z" fill="#0072A4"/>
<path fill-rule="evenodd" clip-rule="evenodd" d="M85.9018 121.167C82.4262 122.841 78.4231 123.795 74.1625 123.795C60.8179 123.795 50 114.439 50 102.897C50 91.356 60.8179 82 74.1625 82C87.5071 82 98.325 91.356 98.325 102.897C98.325 107.665 96.4791 112.059 93.3716 115.576L99.6311 121.835L93.1007 128.366L85.9018 121.167ZM89.1826 102.897C89.1826 109.389 82.4579 114.652 74.1626 114.652C65.8673 114.652 59.1427 109.389 59.1427 102.897C59.1427 96.4054 65.8673 91.1426 74.1626 91.1426C82.4579 91.1426 89.1826 96.4054 89.1826 102.897ZM174.731 123.795C188.076 123.795 198.894 114.439 198.894 102.897C198.894 91.356 188.076 82 174.731 82C161.386 82 150.569 91.356 150.569 102.897C150.569 114.439 161.386 123.795 174.731 123.795ZM174.731 114.652C183.027 114.652 189.751 109.389 189.751 102.897C189.751 96.4054 183.027 91.1426 174.731 91.1426C166.436 91.1426 159.711 96.4054 159.711 102.897C159.711 109.389 166.436 114.652 174.731 114.652ZM262.239 122.489H274.646L286.619 108.992L298.809 122.489H310.564L292.605 102.244L310.564 82H298.809L286.619 95.4962L274.646 82.0001H262.239L280.524 102.244L262.239 122.489ZM144.038 82.0001H133.589V108.122H144.038V82.0001ZM103.549 82.0007H113.998V108.122H113.999C113.999 111.729 118.385 114.652 123.795 114.652C129.204 114.652 133.59 111.729 133.59 108.122H144.038C144.038 116.778 134.975 123.795 123.794 123.795C112.614 123.795 103.55 116.778 103.55 108.122H103.549V82.0007ZM217.179 82.0001H202.812V91.1427H217.179V122.489H226.321V91.1427H240.688V82.0001H226.321H217.179ZM247.219 82.0001H256.361V122.489H247.219V82.0001Z" fill="white"/>
</g>
<defs>
<clipPath id="clip0">
<rect width="360" height="204" rx="12" fill="white"/>
</clipPath>
</defs>
</svg>
