<svg width="360" height="204" viewBox="0 0 360 204" fill="none" xmlns="http://www.w3.org/2000/svg">
<rect width="360" height="204" rx="12" fill="#393FCC"/>
<path fill-rule="evenodd" clip-rule="evenodd" d="M66.4697 77H81.0524L81.1459 78.2101H76.285V101.575C76.285 110.419 72.0784 113.025 64.1327 113.025C57.4957 113.025 56 110.512 56 107.161C56 106.416 56.3739 103.996 58.7109 103.996C61.0479 103.996 61.2348 105.578 61.2348 108.185V108.743C61.4218 110.419 62.9175 111.629 64.6001 111.443C69.0871 111.443 71.1436 109.395 71.1436 102.227V78.2101H66.4697V77ZM80.8656 108.185C81.4265 107.626 82.1743 107.347 82.9222 107.347V107.44H83.0157C84.6048 107.44 85.82 108.65 85.82 110.233C85.82 110.977 85.5396 111.629 84.9787 112.187C84.4178 112.746 83.67 113.025 82.9222 113.025C82.1743 113.025 81.4265 112.746 80.8656 112.187C80.3048 111.722 80.0243 110.977 80.0243 110.233C80.0243 109.488 80.3048 108.743 80.8656 108.185ZM115.359 107.347C113.864 107.347 112.555 108.557 112.461 110.046V110.139C112.461 110.884 112.835 111.629 113.396 112.094C113.957 112.653 114.705 112.932 115.453 112.932C116.2 112.932 116.948 112.653 117.509 112.094C118.07 111.629 118.35 110.884 118.35 110.139C118.35 109.395 118.07 108.65 117.509 108.092C116.948 107.533 116.294 107.254 115.546 107.254L115.359 107.347ZM90.8678 77H105.264C116.388 77 118.351 81.189 118.351 87.0535C118.351 92.9181 115.266 97.2933 104.235 97.2933H100.403V106.788C100.309 107.533 100.496 108.278 100.777 109.022C101.057 109.767 101.711 110.326 102.553 110.605C103.487 110.884 104.422 110.977 105.451 110.977V112.094H90.2135V110.977C91.1483 110.977 92.083 110.791 92.9244 110.512C93.6722 110.326 94.3265 109.674 94.7005 108.929C95.0744 107.812 95.1679 106.695 95.0744 105.578V78.2101H90.8678V77ZM100.309 95.8969H103.207L103.394 96.0831C110.125 96.0831 113.49 93.0112 113.49 87.4259C113.49 81.8406 111.433 78.3963 102.927 78.3963H100.309V95.8969ZM163.875 108.836C163.595 108.091 163.501 107.254 163.595 106.416V78.2101H167.427V77.0931H158.36L147.329 103.809C147.329 103.903 147.236 103.996 147.142 103.996C147.049 103.996 146.955 103.903 146.862 103.809C146.862 103.809 135.457 77.3723 135.364 77.0931H125.268V78.2101H129.662V107.905C129.662 108.557 129.381 109.115 129.101 109.674C128.727 110.233 128.166 110.605 127.512 110.791C126.857 110.977 126.109 110.977 125.455 110.977V112.094H135.457V110.977C134.803 110.977 134.242 110.884 133.681 110.698C132.933 110.512 132.373 110.139 131.905 109.581C131.531 109.022 131.344 108.464 131.251 107.812L131.157 105.299V81.8406H131.718C131.718 81.8406 144.712 111.722 144.712 112.094H145.927L158.173 82.1198H158.453V106.23C158.453 107.068 158.36 107.905 158.173 108.743C157.892 109.488 157.331 110.046 156.677 110.326C155.836 110.605 154.995 110.791 154.153 110.791V111.908H168.082V110.791C167.24 110.791 166.305 110.605 165.464 110.326C164.716 109.953 164.155 109.302 163.875 108.557V108.836ZM170.512 99.8066C170.512 91.2425 175.186 86.4019 182.664 86.4019C189.488 86.4019 194.536 90.9632 194.63 99.5274C194.63 110.512 186.684 113.118 182.477 113.118C180.327 113.118 170.512 112.374 170.512 99.8066ZM176.121 99.8997C176.121 108.743 176.962 111.536 182.571 111.536C187.525 111.536 189.114 108.371 189.114 99.3412C189.114 93.1974 189.021 87.7982 182.571 87.7982C176.588 87.7982 176.121 93.0112 176.121 99.8997ZM214.073 86.7743C209.586 86.7743 208.277 89.3808 206.969 92.0803H206.595C206.595 92.0803 205.94 88.2637 205.754 87.0535H197.06V88.3568H201.734V105.764C201.827 106.974 201.64 108.185 201.173 109.302C200.706 110.139 199.584 110.605 197.901 110.605H197.153V112.187H211.549V110.605H210.895C209.025 110.605 208.184 110.233 207.717 109.395C207.249 108.278 206.969 106.974 207.156 105.764V96.7347C207.156 93.7559 209.493 90.2185 212.204 90.2185C213.422 90.2185 214.111 91.0449 214.77 91.8341C215.626 92.861 216.43 93.825 218.28 92.825C219.962 91.801 219.588 86.7743 214.073 86.7743ZM269.413 107.254C269.506 108.65 269.974 109.488 271.563 109.488C272.498 109.488 273.619 108.557 273.806 106.695H274.648C274.461 110.698 272.404 112.374 269.039 112.374C266.702 112.467 264.645 110.884 264.178 108.557C262.121 111.163 259.037 112.653 255.765 112.746C252.306 112.839 249.315 110.233 248.941 106.788C248.473 98.5965 259.41 97.6656 263.991 97.2933V92.9181C263.991 91.6149 263.71 90.4048 262.963 89.2877C262.028 88.1706 260.532 87.6121 259.13 87.7983C257.915 87.6121 256.606 88.0775 255.671 88.9153C255.017 89.7531 254.55 90.7771 254.55 91.8942C254.269 93.7559 253.428 94.5006 252.026 94.5006C251.465 94.5006 250.904 94.3145 250.436 93.9421C249.969 93.4767 249.689 92.8251 249.782 92.1734C249.782 90.5909 250.623 89.0084 252.026 88.1706C254.456 86.6812 257.167 86.0296 259.971 86.2158C263.71 86.2158 266.328 86.9605 267.637 88.2637C268.945 89.66 269.6 91.6149 269.413 93.4767V107.254ZM263.991 106.974V106.788L264.084 98.6896C260.532 98.6896 254.082 101.017 254.082 105.671V106.23C254.176 108.464 256.045 110.139 258.195 110.046C260.439 109.767 262.495 108.743 263.991 107.068V106.974ZM301.102 109.302C300.448 108.185 300.167 106.881 300.167 105.578V94.2213C300.261 92.7319 299.98 91.3356 299.326 90.0323C298.765 89.0083 297.83 88.0775 296.802 87.5189C295.587 86.9604 294.278 86.6811 292.969 86.6811C289.511 86.588 286.332 88.4498 284.743 91.5217H284.182L283.248 86.9604H275.489V88.2636H279.415V105.578C279.415 106.602 279.322 107.533 279.135 108.557C278.948 109.302 278.387 109.953 277.639 110.139C276.985 110.419 276.237 110.512 275.489 110.512V112.094H287.922V110.512C286.987 110.605 286.052 110.139 285.398 109.488C284.837 108.371 284.556 107.161 284.743 105.95V99.3412C284.463 96.9209 284.837 94.5006 285.678 92.1734C286.706 90.4047 288.669 89.2876 290.726 89.3807C292.128 89.1945 293.53 89.9392 294.185 91.1494C294.839 93.0111 295.119 95.0591 295.026 97.0139V105.206C295.119 106.23 295.119 107.254 295.026 108.278C294.933 109.022 294.559 109.674 293.904 110.046C293.25 110.419 292.596 110.605 291.941 110.605V112.187H304V110.605C302.504 110.419 301.57 110.046 301.102 109.302ZM243.239 87.3328C243.332 86.495 243.893 85.7503 244.735 85.3779C246.043 85.0056 246.978 85.5641 247.445 86.9604C247.632 87.7051 247.445 88.636 246.978 89.2876C246.511 90.1254 245.669 90.777 244.735 91.0563C243.706 91.3356 242.585 91.3356 241.556 91.0563C242.304 92.5457 242.585 94.2213 242.585 95.8038C242.585 102.413 237.443 104.461 231.928 105.299C226.413 106.137 225.01 106.788 225.01 108.557C225.01 109.674 225.758 110.326 229.591 110.326C230.783 110.381 231.877 110.418 232.883 110.451C238.661 110.646 241.557 110.743 243.706 113.677C244.548 114.98 245.015 116.469 244.921 118.052C244.921 121.31 242.865 124.196 239.874 125.499C237.35 126.616 234.639 127.082 231.928 126.988C229.591 126.988 227.254 126.709 225.01 125.964C222.58 125.499 220.897 123.544 220.804 121.124C220.71 120.286 220.991 119.448 221.365 118.797C221.832 118.145 222.673 117.773 223.515 117.866H223.795C224.917 118.238 225.478 119.448 225.104 120.472C224.73 121.775 225.291 123.172 226.413 124.01C228.282 125.127 230.526 125.592 232.676 125.406C235.013 125.499 237.35 125.034 239.5 124.01C241.089 123.358 242.211 121.775 242.211 120.007C242.304 118.89 241.837 117.866 240.995 117.121C239.967 116.469 238.845 116.097 237.724 116.004C235.761 115.818 233.704 115.725 231.741 115.725C229.217 115.818 226.693 115.445 224.263 114.608C222.58 114.049 221.458 112.467 221.458 110.698C221.458 106.974 224.823 105.857 228.656 105.206C228.937 105.206 228.937 104.833 228.656 104.833C224.169 103.809 222.113 101.389 222.113 95.99V94.8729C222.486 89.7531 227.067 85.9364 232.208 86.3088C235.106 86.1226 238.098 87.0535 240.341 89.0084C240.902 89.1945 241.556 89.2876 242.117 89.1015C242.678 88.9153 243.052 88.3567 243.239 87.3328ZM227.067 95.8969C227.067 102.506 229.03 103.716 232.302 103.716C235.293 103.716 237.443 102.692 237.537 95.8038C237.537 90.9632 236.415 87.7982 232.302 87.7982C228.656 87.7982 227.067 91.2425 227.067 95.8969Z" fill="white"/>
</svg>
