<svg width="50" height="50" viewBox="0 0 50 50" fill="none" xmlns="http://www.w3.org/2000/svg">
<rect width="50" height="50" rx="12" fill="#393FCC"/>
<path d="M19.5833 20.6673C19.5833 17.6758 22.0084 15.2507 24.9999 15.2507C27.9915 15.2507 30.4166 17.6758 30.4166 20.6673V29.334C30.4166 32.3255 27.9915 34.7506 24.9999 34.7506C24.4016 34.7506 23.9166 35.2357 23.9166 35.834C23.9166 36.4323 24.4016 36.9173 24.9999 36.9173C28.8534 36.9173 32.0356 34.0431 32.5195 30.3215C35.0236 29.8445 36.9166 27.6437 36.9166 25.0007C36.9166 22.3576 35.0236 20.1568 32.5195 19.6798C32.0356 15.9582 28.8534 13.084 24.9999 13.084C21.1464 13.084 17.9643 15.9582 17.4803 19.6798C14.9762 20.1568 13.0833 22.3576 13.0833 25.0007C13.0833 27.9922 15.5084 30.4173 18.4999 30.4173C19.0982 30.4173 19.5833 29.9323 19.5833 29.334V20.6673Z" fill="white"/>
</svg>
