<svg width="50" height="50" viewBox="0 0 50 50" fill="none" xmlns="http://www.w3.org/2000/svg">
<rect width="50" height="50" rx="12" fill="#393FCC"/>
<path d="M13 33.3281H17.6V38H13V33.3281Z" fill="white"/>
<path d="M19.1333 27.2344H23.7333V38H19.1333V27.2344Z" fill="white"/>
<path d="M25.2666 30.2812H29.8666V38H25.2666V30.2812Z" fill="white"/>
<path d="M31.3999 22.6641H35.9999V38H31.3999V22.6641Z" fill="white"/>
<path d="M33.1395 16.4937C33.3199 16.539 33.5056 16.5703 33.7 16.5703C34.9683 16.5703 36 15.5452 36 14.2852C36 13.0251 34.9683 12 33.7 12C32.4317 12 31.4 13.0251 31.4 14.2852C31.4 14.7976 31.5767 15.266 31.8645 15.6476L28.1272 21.2173C27.9467 21.172 27.761 21.1406 27.5667 21.1406C26.9482 21.1406 26.3883 21.3872 25.9746 21.7832L23.7052 20.6558C23.7165 20.5641 23.7333 20.4738 23.7333 20.3789C23.7333 19.1188 22.7016 18.0938 21.4333 18.0938C20.1651 18.0938 19.1333 19.1188 19.1333 20.3789C19.1333 20.766 19.2398 21.1253 19.4115 21.4452L16.1866 25.8884C15.9135 25.7745 15.6142 25.7109 15.3 25.7109C14.0317 25.7109 13 26.736 13 27.9961C13 29.2562 14.0317 30.2812 15.3 30.2812C16.5683 30.2812 17.6 29.2562 17.6 27.9961C17.6 27.609 17.4935 27.2497 17.3219 26.9298L20.5468 22.4866C20.8198 22.6005 21.1192 22.6641 21.4333 22.6641C22.0518 22.6641 22.6117 22.4175 23.0254 22.0215L25.2948 23.1489C25.2835 23.2406 25.2667 23.3309 25.2667 23.4258C25.2667 24.6859 26.2984 25.7109 27.5667 25.7109C28.8349 25.7109 29.8667 24.6859 29.8667 23.4258C29.8667 22.9133 29.69 22.4449 29.4022 22.0634L33.1395 16.4937Z" fill="white"/>
</svg>
