<svg width="552" height="204" viewBox="0 0 552 204" fill="none" xmlns="http://www.w3.org/2000/svg">
<rect width="552" height="204" rx="12" fill="#393FCC"/>
<path opacity="0.05" fill-rule="evenodd" clip-rule="evenodd" d="M363.159 96.6761H348.992V44.9646H362.334V50.7534C363.996 47.2751 368.162 44.1965 373.581 43.8031C382.757 43.416 389 48.4366 389 59.2398V96.6761H374.418V57.6973C374.418 53.0701 374.418 49.2047 371.082 48.4366C369.83 48.0495 367.747 48.4366 366.079 49.5919C363.996 51.5277 363.159 53.8382 363.159 57.6973V96.6761ZM116.811 70.8172C116.811 80.4651 116.811 88.1834 115.143 92.0488C113.891 93.9721 112.638 95.1336 109.718 95.1336C107.22 95.1336 105.552 93.9721 104.721 92.0426C102.638 88.1834 102.638 80.4651 102.638 70.8172C102.638 61.5565 102.638 53.4573 104.715 49.5919C105.552 47.6623 107.22 46.507 109.718 46.507C112.638 46.507 113.891 47.6623 115.143 49.5919C117.226 53.451 116.811 61.5565 116.811 70.8235V70.8172ZM122.223 48.4366C118.888 45.7327 114.722 43.8031 109.718 43.8031C104.721 43.8031 100.97 45.739 97.2193 48.4366C91.3789 53.0701 87.6279 61.5565 87.6279 70.8172C87.6279 80.4651 91.3789 88.5706 97.2193 93.2041C100.97 95.9017 104.721 97.8313 109.718 97.8313C114.722 97.8313 118.894 95.9017 122.23 93.2041C128.479 88.5706 131.815 80.4651 131.815 70.8172C131.815 61.5565 128.479 53.0701 122.23 48.4366H122.223ZM267.705 116.359V130.247H264.791C263.123 124.458 260.618 119.444 253.947 119.057C249.781 118.676 246.03 120.992 245.614 124.458C245.199 127.936 246.445 131.015 253.947 134.887C263.538 139.895 271.04 142.212 271.04 152.634C271.04 163.824 260.618 169.232 251.864 169.232H235.186V149.936H238.106C240.196 159.965 243.525 166.141 251.449 166.528C256.452 166.528 260.197 163.824 260.197 158.81C260.197 153.789 256.867 150.704 248.95 146.458C240.196 141.444 234.777 138.352 234.777 131.408C234.777 122.148 241.864 116.359 253.116 116.359H267.705ZM286.044 96.6761V59.2398C286.044 48.4366 279.795 43.416 270.625 43.8031C264.369 44.1903 260.618 48.0495 258.95 51.1343C256.867 45.7327 252.279 43.416 245.608 43.8031C240.196 44.1903 236.023 47.2751 234.355 50.7534V44.9646H221.435V96.6698H235.608V57.7036C235.608 53.8444 236.023 51.5277 238.528 49.5981C240.196 48.4429 241.864 48.0557 243.11 48.4429C246.445 49.2109 246.445 53.0763 246.445 57.7036V96.6823H260.618V57.3102C260.618 53.8319 261.449 51.5152 263.538 49.5856C265.206 48.4304 266.874 48.0432 268.12 48.4304C271.456 49.1985 271.871 53.0639 271.871 57.6911V96.6698H286.044V96.6761ZM141.4 96.6761H155.988V34.1552H141.4V96.6761ZM190.584 49.2109C193.504 53.0701 193.504 62.3246 193.504 69.662C193.504 77.3803 193.926 87.4153 190.59 91.6554C189.338 93.2041 188.085 93.9721 186.002 93.9721C183.088 93.9721 181.42 90.8873 180.59 85.8667C180.168 81.2394 180.168 75.4507 180.168 69.2748C180.168 58.8588 180.999 47.2751 186.424 47.2751C188.501 47.2751 189.338 48.0495 190.59 49.2109H190.584ZM207.683 96.6761V34.1552H193.089V48.8238C191.843 46.1199 188.922 44.1903 184.756 44.1903C174.334 44.1903 166.001 54.2254 165.58 69.662C165.164 80.0842 168.915 97.4504 183.504 97.4504C189.338 97.4504 192.673 94.3593 193.926 91.6554V96.6761H207.683ZM321.061 65.8028L316.473 68.5005C311.892 71.2044 311.061 74.6826 310.639 78.5355C310.224 81.6266 310.224 84.3243 310.639 88.9577C311.055 93.2041 313.975 93.9722 316.473 93.2041C319.394 92.0426 321.061 87.0282 321.061 81.6266V65.8028ZM329.394 46.507C333.151 48.4429 335.65 51.5214 335.65 58.4717V96.6761H321.892V90.8873C320.231 95.1336 315.643 97.8313 309.387 97.8313C304.39 97.8313 295.635 95.5208 295.635 83.5562C295.635 72.3596 303.553 70.0491 312.313 66.5709C320.231 63.4861 321.061 63.0989 321.061 60.0141V51.5214C321.061 48.0495 318.978 46.507 314.806 46.507C313.144 46.8942 310.224 47.6623 310.224 49.5919C309.802 51.9086 312.722 51.9086 313.144 55.3806C313.559 60.7884 308.971 62.7117 304.805 62.3308C301.885 62.3308 298.549 60.7884 298.134 56.5421C297.719 49.5919 306.051 43.8031 317.726 43.8031C323.145 43.8031 326.48 44.9646 329.394 46.507ZM114.722 137.965L110.14 140.669C105.552 143.373 104.721 146.845 104.299 150.704C103.89 153.789 103.89 156.88 104.299 161.12C104.299 165.754 107.22 166.528 109.718 165.367C113.054 164.211 114.722 159.584 114.722 153.789V137.965ZM123.061 118.669C126.811 120.986 128.895 123.69 128.895 130.634V169.226H115.565V163.437C113.897 167.296 109.315 169.994 103.06 169.994C97.6409 169.994 89.302 168.07 89.302 156.106C89.302 144.915 97.2255 142.599 105.558 139.121C113.897 135.655 114.728 135.268 114.728 132.564V124.071C114.728 120.218 112.645 118.676 108.478 119.057C106.811 119.057 103.897 119.831 103.897 121.761C103.475 124.464 106.395 124.464 106.811 127.936C107.226 132.951 102.644 134.88 98.4717 134.88C95.5578 134.493 92.2222 132.951 91.8005 128.705C91.3852 122.148 99.7241 116.353 111.392 116.353C116.817 116.353 120.147 117.127 123.067 118.676L123.061 118.669ZM223.94 131.796C223.94 120.992 217.684 115.585 208.514 116.359C203.932 116.74 200.175 118.669 198.092 121.373V106.324H183.913V141.831C183.913 154.944 173.906 167.296 163.899 166.909C156.819 166.909 155.151 161.895 154.314 156.493C153.068 148.775 153.068 139.901 153.899 130.247C154.736 124.077 156.404 119.057 161.407 119.057C165.158 119.057 165.573 121.373 163.906 122.916C162.238 124.852 159.739 126.775 160.985 131.021C162.238 135.655 170.155 136.423 173.912 132.957C176.826 129.866 176.411 124.845 174.328 121.761C171.823 117.901 167.656 116.359 161.407 116.359C153.483 116.359 138.48 122.916 138.48 143.754C138.48 166.141 153.899 170 162.653 170C172.66 170 181.408 161.895 183.913 155.331V169.226H198.086V130.247C198.086 126.394 198.916 124.077 201.006 122.141C202.674 120.986 204.757 120.599 206.009 120.986C209.345 121.761 209.345 125.62 209.345 130.247V169.226H223.933V131.796H223.94ZM78.0429 33V54.9997H75.1227C72.6241 44.1965 67.2054 36.0848 59.7035 35.7039C54.7002 35.3167 51.78 38.0144 49.2814 41.8736C46.7829 46.507 45.5305 56.1549 45.5305 67.7262C45.5305 78.5355 45.9459 86.641 47.1983 92.4297C48.029 95.1336 50.1122 99.3737 55.5309 99.3737C58.4511 99.3737 60.5343 98.6056 61.7867 97.0632C63.8635 94.7465 64.2852 90.113 64.2852 87.0282V76.606C64.2852 72.7468 63.0391 70.4363 60.9496 69.2748C59.2881 68.5005 56.7833 68.5005 55.5372 68.1133V65.4157H78.8736V120.605H75.9597C74.7073 116.359 73.8765 113.268 71.7871 109.796C69.7102 106.324 65.953 102.465 59.7035 102.465C53.0324 102.078 48.029 105.937 48.029 111.726C48.029 119.444 53.0324 121.373 62.202 126.007C70.9563 130.634 82.2155 134.5 82.2155 148C82.2155 161.12 70.1193 169.232 56.3679 169.232H34.2776V142.599H37.1915C40.9425 162.669 50.1122 166.141 56.3679 166.141C64.2852 166.141 68.0361 161.507 68.0361 154.951C67.6208 146.458 61.365 143.373 52.617 139.127C40.1117 132.57 34.2776 129.479 34.2776 118.676C34.693 109.409 42.6103 103.626 51.3646 101.31C33.0252 99.3737 27.6065 83.9433 28.0219 67.3452C28.0219 50.7534 38.444 33 58.8665 33H78.0429Z" fill="white"/>
<path fill-rule="evenodd" clip-rule="evenodd" d="M378.82 98.2958H369.402V63.9473H378.272V67.7924C379.377 65.482 382.147 63.4371 385.749 63.1758C391.849 62.9186 396 66.2535 396 73.4293V98.2958H386.306V72.4048C386.306 69.3312 386.306 66.7637 384.088 66.2535C383.255 65.9964 381.87 66.2535 380.762 67.0209C379.377 68.3067 378.82 69.8414 378.82 72.4048V98.2958ZM215.043 81.1195C215.043 87.5279 215.043 92.6547 213.935 95.2222C213.102 96.4997 212.269 97.2713 210.328 97.2713C208.667 97.2713 207.558 96.4997 207.006 95.2181C205.621 92.6547 205.621 87.5279 205.621 81.1195C205.621 74.9682 205.621 69.5884 207.002 67.0209C207.558 65.7392 208.667 64.9718 210.328 64.9718C212.269 64.9718 213.102 65.7392 213.935 67.0209C215.319 69.5843 215.043 74.9682 215.043 81.1236V81.1195ZM218.642 66.2535C216.424 64.4575 213.654 63.1758 210.328 63.1758C207.006 63.1758 204.512 64.4616 202.018 66.2535C198.136 69.3312 195.642 74.9682 195.642 81.1195C195.642 87.5279 198.136 92.9118 202.018 95.9896C204.512 97.7814 207.006 99.0631 210.328 99.0631C213.654 99.0631 216.428 97.7814 218.646 95.9896C222.801 92.9118 225.018 87.5279 225.018 81.1195C225.018 74.9682 222.801 69.3312 218.646 66.2535H218.642ZM315.361 111.37V120.595H313.423C312.314 116.75 310.649 113.419 306.214 113.162C303.444 112.909 300.951 114.448 300.674 116.75C300.398 119.06 301.227 121.105 306.214 123.677C312.591 127.003 317.578 128.542 317.578 135.465C317.578 142.898 310.649 146.49 304.829 146.49H293.741V133.673H295.683C297.072 140.334 299.285 144.437 304.553 144.694C307.879 144.694 310.369 142.898 310.369 139.567C310.369 136.232 308.156 134.183 302.892 131.363C297.072 128.032 293.469 125.979 293.469 121.366C293.469 115.215 298.181 111.37 305.662 111.37H315.361ZM327.553 98.2958V73.4293C327.553 66.2535 323.398 62.9186 317.302 63.1758C313.143 63.433 310.649 65.9964 309.54 68.0454C308.156 64.4575 305.105 62.9186 300.67 63.1758C297.072 63.433 294.298 65.482 293.189 67.7924V63.9473H284.599V98.2916H294.022V72.409C294.022 69.8456 294.298 68.3067 295.963 67.025C297.072 66.2577 298.181 66.0005 299.009 66.2577C301.227 66.7679 301.227 69.3354 301.227 72.409V98.2999H310.649V72.1476C310.649 69.8373 311.202 68.2984 312.591 67.0167C313.699 66.2494 314.808 65.9922 315.637 66.2494C317.854 66.7596 318.13 69.3271 318.13 72.4007V98.2916H327.553V98.2958ZM231.39 98.2958H241.089V56.7674H231.39V98.2958ZM264.089 66.7679C266.03 69.3312 266.03 75.4784 266.03 80.3521C266.03 85.4789 266.311 92.1445 264.093 94.9609C263.261 95.9896 262.428 96.4997 261.043 96.4997C259.106 96.4997 257.997 94.4507 257.445 91.1158C257.164 88.0423 257.164 84.1972 257.164 80.0949C257.164 73.1763 257.717 65.482 261.323 65.482C262.704 65.482 263.261 65.9964 264.093 66.7679H264.089ZM275.457 98.2958V56.7674H265.754V66.5107C264.926 64.7147 262.984 63.433 260.215 63.433C253.286 63.433 247.746 70.0986 247.466 80.3521C247.19 87.2749 249.683 98.8101 259.382 98.8101C263.261 98.8101 265.478 96.7569 266.311 94.9609V98.2958H275.457ZM350.833 77.7887L347.783 79.5806C344.737 81.3766 344.185 83.687 343.904 86.2462C343.628 88.2994 343.628 90.0913 343.904 93.169C344.18 95.9896 346.122 96.4998 347.783 95.9896C349.724 95.2181 350.833 91.8873 350.833 88.2994V77.7887ZM356.373 64.9718C358.871 66.2577 360.532 68.3026 360.532 72.9191V98.2958H351.385V94.4507C350.281 97.2713 347.231 99.0631 343.072 99.0631C339.749 99.0631 333.929 97.5284 333.929 89.5811C333.929 82.144 339.193 80.6093 345.017 78.2989C350.281 76.2499 350.833 75.9927 350.833 73.9437V68.3026C350.833 65.9964 349.448 64.9718 346.674 64.9718C345.569 65.229 343.628 65.7392 343.628 67.0209C343.348 68.5597 345.289 68.5597 345.569 70.8659C345.846 74.458 342.795 75.7355 340.026 75.4825C338.084 75.4825 335.867 74.458 335.59 71.6374C335.314 67.0209 340.854 63.1758 348.615 63.1758C352.218 63.1758 354.436 63.9473 356.373 64.9718ZM213.654 125.721L210.608 127.517C207.558 129.314 207.006 131.62 206.725 134.183C206.453 136.232 206.453 138.285 206.725 141.102C206.725 144.179 208.667 144.694 210.328 143.922C212.545 143.155 213.654 140.081 213.654 136.232V125.721ZM219.198 112.905C221.692 114.443 223.077 116.239 223.077 120.852V146.486H214.215V142.641C213.106 145.204 210.06 146.996 205.901 146.996C202.299 146.996 196.755 145.718 196.755 137.771C196.755 130.338 202.023 128.799 207.562 126.489C213.106 124.187 213.658 123.93 213.658 122.134V116.492C213.658 113.933 212.273 112.909 209.504 113.162C208.395 113.162 206.458 113.676 206.458 114.958C206.177 116.754 208.119 116.754 208.395 119.06C208.671 122.391 205.625 123.672 202.851 123.672C200.914 123.415 198.696 122.391 198.416 119.57C198.14 115.215 203.684 111.366 211.441 111.366C215.048 111.366 217.261 111.88 219.202 112.909L219.198 112.905ZM286.265 121.623C286.265 114.448 282.106 110.856 276.009 111.37C272.963 111.623 270.465 112.905 269.081 114.701V104.704H259.654V128.289C259.654 137 253.001 145.204 246.349 144.947C241.641 144.947 240.533 141.616 239.976 138.028C239.148 132.901 239.148 127.007 239.7 120.595C240.257 116.497 241.365 113.162 244.692 113.162C247.185 113.162 247.461 114.701 246.353 115.725C245.244 117.011 243.583 118.288 244.411 121.109C245.244 124.187 250.507 124.697 253.005 122.395C254.943 120.342 254.666 117.007 253.282 114.958C251.616 112.394 248.846 111.37 244.692 111.37C239.424 111.37 229.449 115.725 229.449 129.567C229.449 144.437 239.7 147 245.52 147C252.173 147 257.989 141.616 259.654 137.257V146.486H269.076V120.595C269.076 118.035 269.629 116.497 271.018 115.211C272.127 114.443 273.511 114.186 274.344 114.443C276.562 114.958 276.562 117.521 276.562 120.595V146.486H286.26V121.623H286.265ZM189.269 56V70.6129H187.328C185.667 63.4371 182.065 58.049 177.077 57.796C173.751 57.5389 171.809 59.3307 170.148 61.8941C168.487 64.9718 167.655 71.3803 167.655 79.0663C167.655 86.2462 167.931 91.6302 168.763 95.4752C169.316 97.2713 170.701 100.088 174.303 100.088C176.244 100.088 177.629 99.5775 178.462 98.5529C179.843 97.0141 180.123 93.9364 180.123 91.8873V84.9645C180.123 82.4012 179.295 80.8664 177.906 80.0949C176.801 79.5806 175.136 79.5806 174.307 79.3234V77.5316H189.822V114.19H187.885C187.052 111.37 186.5 109.317 185.111 107.01C183.73 104.704 181.232 102.141 177.077 102.141C172.642 101.884 169.316 104.447 169.316 108.292C169.316 113.419 172.642 114.701 178.738 117.778C184.558 120.852 192.044 123.419 192.044 132.387C192.044 141.102 184.002 146.49 174.86 146.49H160.174V128.799H162.111C164.604 142.13 170.701 144.437 174.86 144.437C180.123 144.437 182.617 141.359 182.617 137.004C182.341 131.363 178.182 129.314 172.366 126.493C164.052 122.138 160.174 120.085 160.174 112.909C160.45 106.753 165.713 102.912 171.533 101.373C159.341 100.088 155.738 89.8383 156.015 78.8133C156.015 67.7924 162.943 56 176.521 56H189.269Z" fill="white"/>
</svg>
