<svg width="22" height="24" viewBox="0 0 22 24" fill="none" xmlns="http://www.w3.org/2000/svg">
<path d="M19.7494 2.49976H17.1244V1.62476C17.1244 1.39269 17.0322 1.17013 16.8681 1.00604C16.704 0.841943 16.4815 0.749756 16.2494 0.749756C16.0173 0.749756 15.7948 0.841943 15.6307 1.00604C15.4666 1.17013 15.3744 1.39269 15.3744 1.62476V2.49976H6.62439V1.62476C6.62439 1.39269 6.5322 1.17013 6.36811 1.00604C6.20401 0.841943 5.98145 0.749756 5.74939 0.749756C5.51733 0.749756 5.29477 0.841943 5.13067 1.00604C4.96658 1.17013 4.87439 1.39269 4.87439 1.62476V2.49976H2.24939C1.7854 2.50021 1.34055 2.68474 1.01246 3.01283C0.684369 3.34091 0.499848 3.78577 0.49939 4.24976V21.7498C0.499848 22.2137 0.684369 22.6586 1.01246 22.9867C1.34055 23.3148 1.7854 23.4993 2.24939 23.4998H19.7494C20.2134 23.4993 20.6582 23.3148 20.9863 22.9867C21.3144 22.6586 21.4989 22.2137 21.4994 21.7498V4.24976C21.4989 3.78577 21.3144 3.34091 20.9863 3.01283C20.6582 2.68474 20.2134 2.50021 19.7494 2.49976ZM19.7494 7.74976H2.24939V4.24976H4.87439V5.12476C4.87439 5.35682 4.96658 5.57938 5.13067 5.74347C5.29477 5.90757 5.51733 5.99976 5.74939 5.99976C5.98145 5.99976 6.20401 5.90757 6.36811 5.74347C6.5322 5.57938 6.62439 5.35682 6.62439 5.12476V4.24976H15.3744V5.12476C15.3744 5.35682 15.4666 5.57938 15.6307 5.74347C15.7948 5.90757 16.0173 5.99976 16.2494 5.99976C16.4815 5.99976 16.704 5.90757 16.8681 5.74347C17.0322 5.57938 17.1244 5.35682 17.1244 5.12476V4.24976H19.7494V7.74976Z" fill="#1C1F61" fill-opacity="0.7"/>
</svg>
