<svg width="50" height="50" viewBox="0 0 50 50" fill="none" xmlns="http://www.w3.org/2000/svg">
<rect width="50" height="50" rx="12" fill="#393FCC"/>
<path d="M35.1984 34.564C18.7889 34.564 18.9106 34.564 14.8014 34.564C14.4505 34.564 14.1666 34.8479 14.1666 35.1987C14.1666 35.5496 14.4505 35.8335 14.8014 35.8335H35.1984C35.5493 35.8335 35.8332 35.5496 35.8332 35.1987C35.8332 34.8479 35.5493 34.564 35.1984 34.564Z" fill="white"/>
<path d="M19.9641 28.2163H16.0709C15.7201 28.2163 15.4362 28.5002 15.4362 28.8511V33.2944H20.5989V28.8511C20.5989 28.5002 20.315 28.2163 19.9641 28.2163Z" fill="white"/>
<path d="M26.3118 24.4077H22.5032C22.1523 24.4077 21.8684 24.6916 21.8684 25.0425V33.2944H26.9465V25.0425C26.9465 24.6916 26.6626 24.4077 26.3118 24.4077Z" fill="white"/>
<path d="M35.6473 19.4305L31.2039 14.3525C30.956 14.1045 30.5543 14.1045 30.3063 14.3525L25.863 19.4305C25.6814 19.6122 25.6268 19.8849 25.7254 20.1224C25.8233 20.3598 26.0552 20.5141 26.3118 20.5141H28.2161V33.294H33.2942V20.5141H35.1985C35.4551 20.5141 35.687 20.3598 35.7849 20.1224C35.8834 19.8849 35.8289 19.6122 35.6473 19.4305Z" fill="white"/>
</svg>
