<svg width="50" height="50" viewBox="0 0 50 50" fill="none" xmlns="http://www.w3.org/2000/svg">
<rect width="50" height="50" rx="12" fill="#393FCC"/>
<path fill-rule="evenodd" clip-rule="evenodd" d="M13.0835 25.0002C13.0835 18.4188 18.4188 13.0835 25.0002 13.0835C31.5816 13.0835 36.9168 18.4188 36.9168 25.0002C36.9168 31.5816 31.5816 36.9168 25.0002 36.9168C18.4188 36.9168 13.0835 31.5816 13.0835 25.0002ZM26.088 18.5003C26.088 17.902 25.6031 17.4169 25.0048 17.4168C24.4064 17.4168 23.9214 17.9017 23.9213 18.5001L23.9207 25.0048C23.9206 25.2922 24.0348 25.5678 24.238 25.771L28.831 30.364C29.254 30.787 29.94 30.787 30.363 30.364C30.7861 29.9409 30.7861 29.255 30.363 28.8319L26.0874 24.5562L26.088 18.5003Z" fill="white"/>
</svg>
