<svg width="50" height="50" viewBox="0 0 50 50" fill="none" xmlns="http://www.w3.org/2000/svg">
<rect width="50" height="50" rx="12" fill="#393FCC"/>
<path d="M13.5742 33.3281H18.1445V38H13.5742V33.3281Z" fill="white"/>
<path d="M19.668 27.2344H24.2383V38H19.668V27.2344Z" fill="white"/>
<path d="M25.7617 30.2812H30.332V38H25.7617V30.2812Z" fill="white"/>
<path d="M31.8555 22.6641H36.4258V38H31.8555V22.6641Z" fill="white"/>
<path d="M33.5838 16.4937C33.763 16.539 33.9475 16.5703 34.1406 16.5703C35.4007 16.5703 36.4258 15.5452 36.4258 14.2852C36.4258 13.0251 35.4007 12 34.1406 12C32.8805 12 31.8555 13.0251 31.8555 14.2852C31.8555 14.7976 32.031 15.266 32.317 15.6476L28.6038 21.2173C28.4245 21.172 28.24 21.1406 28.0469 21.1406C27.4324 21.1406 26.8761 21.3872 26.465 21.7832L24.2103 20.6558C24.2215 20.5641 24.2383 20.4738 24.2383 20.3789C24.2383 19.1188 23.2132 18.0938 21.9531 18.0938C20.693 18.0938 19.668 19.1188 19.668 20.3789C19.668 20.766 19.7738 21.1253 19.9443 21.4452L16.7402 25.8884C16.4689 25.7745 16.1715 25.7109 15.8594 25.7109C14.5993 25.7109 13.5742 26.736 13.5742 27.9961C13.5742 29.2562 14.5993 30.2812 15.8594 30.2812C17.1195 30.2812 18.1445 29.2562 18.1445 27.9961C18.1445 27.609 18.0387 27.2497 17.8682 26.9298L21.0723 22.4866C21.3436 22.6005 21.641 22.6641 21.9531 22.6641C22.5676 22.6641 23.1239 22.4175 23.535 22.0215L25.7897 23.1489C25.7785 23.2406 25.7617 23.3309 25.7617 23.4258C25.7617 24.6859 26.7868 25.7109 28.0469 25.7109C29.307 25.7109 30.332 24.6859 30.332 23.4258C30.332 22.9133 30.1565 22.4449 29.8705 22.0634L33.5838 16.4937Z" fill="white"/>
</svg>
