<svg width="50" height="50" viewBox="0 0 50 50" fill="none" xmlns="http://www.w3.org/2000/svg">
<rect width="50" height="50" rx="12" fill="#393FCC"/>
<path d="M32.7056 25.6174L23.0363 35.2868C22.9236 35.3994 22.8002 35.5068 22.6714 35.6033C22.8324 35.6463 22.9987 35.6677 23.1704 35.6677H32.2602C33.3602 35.6677 34.2563 34.7716 34.2563 33.6716V25.5423C33.827 25.5155 33.387 25.4618 32.9309 25.376C32.8612 25.4565 32.7861 25.537 32.7056 25.6174Z" fill="white"/>
<path d="M36.7943 19.2855C36.7782 19.2694 36.7621 19.2533 36.746 19.2372C35.8499 18.3411 34.546 17.5148 33.0651 16.8977C32.7968 16.785 32.5231 16.683 32.2495 16.5918V16.5757C32.2334 15.3899 31.2782 14.4347 30.0924 14.4187L24.2972 14.3328C23.5299 14.3221 22.7894 14.6226 22.2475 15.1645L12.5835 24.8392C11.8055 25.6172 11.8055 26.8836 12.5835 27.6616L19.0119 34.0899C19.7899 34.868 21.0562 34.868 21.8343 34.0899L31.509 24.4153C31.788 24.1362 31.9973 23.8089 32.1421 23.4494C33.1134 23.7231 34.0578 23.8679 34.8895 23.8626C36.95 23.8519 37.6314 22.9504 37.8568 22.4138C38.0768 21.8772 38.2378 20.7557 36.7943 19.2855ZM24.8231 24.7748C24.5977 24.8982 24.367 25.0323 24.1363 25.1504C23.9163 25.2631 23.8411 25.2362 23.7606 25.0001C23.5943 24.528 23.326 24.1255 22.9558 23.7928C22.8592 23.707 22.7572 23.6265 22.6338 23.5782C22.1938 23.4065 21.8075 23.6909 21.8611 24.1631C21.888 24.3992 21.9631 24.6245 22.0543 24.8445C22.2099 25.2255 22.3763 25.6065 22.4889 26.0036C22.8538 27.2699 22.0489 28.5148 20.7772 28.6382C20.3158 28.6811 19.8758 28.5845 19.4733 28.3538C19.2962 28.2519 19.1621 28.2626 19.0279 28.4128C18.8938 28.5577 18.7436 28.6919 18.604 28.8314C18.4806 28.9548 18.3465 28.9602 18.2231 28.8367C18.0675 28.6919 17.9172 28.5363 17.767 28.386C17.6382 28.2519 17.6489 28.1124 17.7777 27.9836C17.8797 27.8816 17.9816 27.7743 18.0836 27.6724C18.3089 27.4416 18.3089 27.4255 18.1265 27.1733C17.8904 26.8514 17.6811 26.5133 17.5523 26.1323C17.4504 25.8372 17.4772 25.7621 17.7455 25.6119C17.944 25.4992 18.1426 25.3865 18.3465 25.2792C18.5826 25.1558 18.6523 25.1826 18.7328 25.4348C18.867 25.8641 19.087 26.245 19.3606 26.5992C19.5377 26.8299 19.7577 27.0016 20.026 27.1089C20.5304 27.3075 20.9919 26.9533 20.9382 26.4167C20.9221 26.2343 20.8684 26.0572 20.7987 25.8855C20.627 25.4455 20.407 25.0216 20.2943 24.5548C20.1065 23.8036 20.1923 23.1167 20.7987 22.5801C21.4855 21.9738 22.2528 21.9362 23.0631 22.3118C23.3958 22.4675 23.3958 22.4728 23.6533 22.2153C23.7392 22.1294 23.825 22.0436 23.9163 21.9577C24.1148 21.7699 24.1792 21.7699 24.3777 21.9577C24.4367 22.0167 24.4958 22.0757 24.5548 22.1348C24.9626 22.5426 24.9626 22.5426 24.5548 22.9558C24.265 23.2455 24.265 23.2455 24.5065 23.5782C24.6943 23.8358 24.8392 24.1094 24.9519 24.4045C25.0109 24.5655 24.9787 24.6889 24.8231 24.7748ZM36.3007 21.7699C36.1182 22.2045 34.1704 22.5855 31.2138 21.3514C30.3446 20.9918 29.5397 20.5411 28.8797 20.0582C28.8582 20.085 28.8314 20.1118 28.8099 20.1387C28.166 20.7826 27.1143 20.7826 26.4704 20.1387C25.8265 19.4948 25.8265 18.4431 26.4704 17.7991C27.1143 17.1552 28.166 17.1552 28.8099 17.7991C29.1963 18.1855 29.3465 18.7113 29.2768 19.2104C29.9099 19.6611 30.6719 20.0743 31.4821 20.4123C31.7719 20.5304 32.0455 20.6377 32.3138 20.7289L32.2816 18.4001C32.3299 18.4216 32.3729 18.4377 32.4212 18.4592C33.6875 18.985 34.8251 19.704 35.5602 20.4392C35.5709 20.4499 35.5817 20.4606 35.5924 20.4714C36.2899 21.1743 36.3597 21.625 36.3007 21.7699Z" fill="white"/>
</svg>
