<svg width="50" height="50" viewBox="0 0 50 50" fill="none" xmlns="http://www.w3.org/2000/svg">
<rect width="50" height="50" rx="12" fill="#393FCC"/>
<g clip-path="url(#clip0)">
<path d="M28.7742 25.1066C28.5415 25.1758 28.3034 25.2256 28.0625 25.2556C28.2268 25.5806 28.6141 25.8829 29.6174 26.2185C30.1459 26.3868 30.6168 26.6996 30.9768 27.1216C31.1196 27.3009 31.3626 27.3664 31.5762 27.2832C31.7606 27.2043 31.8803 27.0231 31.8803 26.8226C31.8805 26.7718 31.8723 26.7213 31.8562 26.6731C31.7691 26.3958 31.6532 26.1285 31.5103 25.8754C31.2458 25.9863 30.9696 26.0669 30.6871 26.1159C30.6625 26.12 30.6377 26.122 30.6128 26.122C30.3701 26.1226 30.1679 25.9362 30.1488 25.6942C30.1297 25.4523 30.3001 25.2365 30.5399 25.199C31.3066 25.0737 31.9933 24.6519 32.4518 24.0248C31.7384 24.2405 30.9689 24.1696 30.3068 23.827C30.1114 23.7252 29.9288 23.6005 29.7627 23.4556C28.9872 23.7666 28.103 23.4279 27.7338 22.6784C27.6581 22.5298 27.6679 22.3521 27.7594 22.2127C27.8509 22.0733 28.0102 21.9938 28.1766 22.0042C28.343 22.0147 28.491 22.1136 28.5644 22.2633C28.6566 22.4389 28.819 22.5672 29.0112 22.6161C29.2034 22.6651 29.4074 22.6302 29.5723 22.5201C29.8543 22.3245 29.9497 21.9513 29.7961 21.6444C29.7221 21.496 29.7328 21.3193 29.8244 21.1809C29.9159 21.0425 30.0743 20.9635 30.2399 20.9736C30.4055 20.9837 30.5531 21.0813 30.6272 21.2298C30.893 21.7549 30.8452 22.3842 30.5032 22.8632C30.5749 22.9148 30.6502 22.9614 30.7284 23.0024C31.5273 23.4011 32.4935 23.224 33.0991 22.5679L33.1074 22.559C33.5918 22.02 33.7435 21.2597 33.503 20.5761C33.3953 20.6606 33.2789 20.7333 33.1557 20.7929C33.0055 20.8634 32.8291 20.8484 32.693 20.7536C32.5568 20.6588 32.4816 20.4985 32.4956 20.3332C32.5097 20.1679 32.6109 20.0226 32.7611 19.9521C32.9461 19.8651 33.1 19.7233 33.2017 19.5458C33.4311 19.1431 33.3464 18.6347 32.9987 18.3282C32.6509 18.0217 32.1359 18.0015 31.7652 18.2797C31.56 18.4336 31.269 18.392 31.1152 18.1869C30.9613 17.9817 31.0029 17.6907 31.208 17.5369C31.3888 17.402 31.5923 17.3006 31.8088 17.2374C31.5065 15.9396 30.3879 14.9944 29.0579 14.9127C29.0579 14.9485 29.0686 14.9819 29.0686 15.0181C29.0686 15.2745 28.8607 15.4824 28.6043 15.4824C28.3479 15.4824 28.14 15.2745 28.14 15.0181C28.14 14.6692 27.9539 14.3468 27.6517 14.1723C27.3495 13.9979 26.9773 13.9979 26.6751 14.1723C26.3729 14.3468 26.1868 14.6692 26.1868 15.0181C26.1868 15.2745 25.9789 15.4824 25.7225 15.4824C25.4661 15.4824 25.2582 15.2745 25.2582 15.0181C25.2606 14.8102 25.2973 14.604 25.3668 14.408C25.0017 14.1676 24.5746 14.0386 24.1374 14.0366C23.3332 14.0406 22.5898 14.4658 22.1786 15.1569C22.0716 15.3386 21.9905 15.5342 21.9376 15.7382C21.8661 15.9773 21.6183 16.117 21.3767 16.0546C21.1351 15.9922 20.986 15.7499 21.0392 15.5061C21.0648 15.4072 21.1015 15.312 21.1363 15.2164C21.0804 15.2065 21.0239 15.2002 20.9673 15.1973C20.3025 15.1992 19.7291 15.6646 19.5907 16.3149C20.1145 16.3666 20.5925 16.6362 20.9078 17.0577C21.0609 17.2635 21.0182 17.5544 20.8124 17.7075C20.6067 17.8606 20.3157 17.8179 20.1627 17.6121C19.9803 17.3638 19.6903 17.2175 19.3822 17.2184C18.8427 17.2212 18.4069 17.6595 18.4072 18.1989C18.4072 18.3076 18.4256 18.4154 18.4615 18.5179C18.5363 18.7355 18.6852 18.9199 18.8822 19.0388C19.0243 19.1243 19.1101 19.2792 19.1071 19.4451C19.1041 19.6109 19.0129 19.7626 18.8677 19.8429C18.7226 19.9233 18.5456 19.9201 18.4035 19.8346C18.2778 19.7567 18.1617 19.6643 18.0576 19.5593C17.9099 19.9055 17.8329 20.2777 17.831 20.6541C17.8204 21.5165 18.2046 22.3365 18.874 22.8803C19.5435 23.4241 20.4248 23.6321 21.2667 23.4449C21.2403 23.2915 21.2262 23.1363 21.2245 22.9806C20.4067 22.8914 19.7867 22.2015 19.7852 21.3788C19.7847 21.1213 19.992 20.9115 20.2495 20.909C20.372 20.9076 20.49 20.9553 20.5772 21.0413C20.6643 21.1274 20.7135 21.2447 20.7138 21.3672V21.3788C20.722 21.7445 21.0102 22.0422 21.3754 22.0623C21.441 21.8538 21.5301 21.6535 21.641 21.4652C21.7729 21.2453 22.0581 21.174 22.278 21.3059C22.4978 21.4379 22.5691 21.7231 22.4372 21.9429C21.9096 22.8261 22.1434 23.9659 22.9759 24.5702C23.8085 25.1745 24.9646 25.0434 25.6408 24.2681C25.773 24.1256 25.976 24.073 26.1608 24.1334C26.649 24.328 27.1755 24.4074 27.6994 24.3656C27.9713 24.3473 28.2402 24.2978 28.5008 24.2179C28.6594 24.1693 28.8319 24.2089 28.9533 24.3219C29.0747 24.4348 29.1267 24.604 29.0896 24.7657C29.0524 24.9274 28.9319 25.057 28.7733 25.1057L28.7742 25.1066ZM23.0292 18.9594C23.0292 19.2159 22.8213 19.4237 22.5649 19.4237C22.3085 19.4237 22.1006 19.2159 22.1006 18.9594C22.1021 17.7806 23.0574 16.8253 24.2363 16.8237C24.4927 16.8237 24.7006 17.0316 24.7006 17.288C24.7006 17.5444 24.4927 17.7523 24.2363 17.7523C23.5696 17.7523 23.0292 18.2928 23.0292 18.9594ZM26.6715 21.4633C26.3318 22.3624 25.4695 22.956 24.5084 22.9523C24.252 22.9523 24.0441 22.7444 24.0441 22.488C24.0441 22.2316 24.252 22.0237 24.5084 22.0237C24.9575 22.0247 25.379 21.8072 25.6385 21.4406C25.0656 21.3175 24.5459 21.0175 24.1527 20.583C23.9808 20.3928 23.9957 20.0992 24.1859 19.9272C24.3762 19.7553 24.6698 19.7702 24.8417 19.9604C25.4781 20.6401 26.5137 20.7571 27.2857 20.2367C27.6865 19.9595 27.9618 19.5357 28.0523 19.0569C28.0808 18.8915 28.1965 18.7544 28.3547 18.6983C28.513 18.6422 28.6892 18.676 28.8155 18.7865C28.9419 18.8971 28.9987 19.0672 28.9641 19.2315C28.7417 20.3816 27.8272 21.2719 26.6715 21.4633Z" fill="white"/>
<path d="M34.588 26.2645C35.5045 25.0262 36.3699 23.8567 36.3987 21.7632C36.4252 20.5223 36.2739 19.284 35.9493 18.0861C35.5401 16.6778 34.6801 15.4427 33.5011 14.5705C30.4874 12.1998 27.8498 11.2513 21.7928 12.6502C20.3159 12.991 18.7995 13.4641 17.7149 14.6127C16.9819 15.397 16.4164 16.3224 16.0528 17.3325C15.8946 17.7929 15.7654 18.2627 15.6661 18.7393L15.6289 18.9013C15.5135 19.3343 15.3573 19.7553 15.1623 20.1586C15.0132 20.4357 14.9085 20.7345 14.8522 21.044C14.8721 21.187 15.0486 21.3495 15.2361 21.5213C15.6195 21.7919 15.8668 22.2152 15.9144 22.682C15.9059 22.9099 15.8406 23.132 15.7246 23.3283C15.6973 23.3784 15.6737 23.4304 15.654 23.4838C15.563 24.2203 15.2534 24.9126 14.7653 25.4715C14.2161 26.0634 13.1947 27.1652 13.1868 27.4335C13.2824 27.5252 13.385 27.6093 13.4937 27.6852C13.6054 27.7597 13.7226 27.8258 13.8442 27.883C14.2407 28.0858 14.7839 28.3635 14.8916 28.9332C14.9588 29.2836 14.9151 29.6463 14.7667 29.9708C14.6883 30.1371 14.6066 30.2824 14.5346 30.4082C14.5104 30.4518 14.4835 30.5011 14.4598 30.5433C14.6502 30.6956 14.9148 30.8948 15.0263 30.9774C15.1268 31.052 15.1929 31.164 15.2097 31.288C15.2265 31.4121 15.1925 31.5376 15.1154 31.6362C15.0467 31.7262 14.9871 31.8228 14.9376 31.9246L15.0365 31.9817C15.4461 32.1589 15.758 32.506 15.8908 32.9321C15.9636 33.2506 15.9514 33.5827 15.8555 33.895C15.7404 34.2683 15.7567 34.6698 15.9019 35.0325C16.0013 35.4623 16.422 35.7371 16.8556 35.6556C18.2023 35.326 19.5302 34.9238 20.8336 34.4507H20.8363C21.2872 34.2966 21.699 34.1517 22.0319 34.0329C22.3875 33.908 22.6559 33.8137 22.7919 33.771C24.7159 33.1675 25.1064 32.4678 25.0952 31.9891C25.0893 31.7328 25.2921 31.5202 25.5484 31.5141C25.6724 31.5079 25.7935 31.5529 25.8833 31.6386C25.9731 31.7243 26.0238 31.8431 26.0233 31.9673C26.0507 33.128 25.0572 34.0315 23.0714 34.6564C22.9414 34.6973 22.6828 34.7883 22.3397 34.909L21.9929 35.0306C22.6938 35.7867 23.2149 36.6914 23.5171 37.6771C23.5809 37.8675 23.7584 37.9965 23.9591 37.9983H29.7957C28.9344 35.5859 28.1618 32.8304 28.6679 29.9843C28.7041 29.7786 28.7478 29.5702 28.7919 29.3594C29.0342 28.5721 29.0617 27.7344 28.8713 26.933C27.8238 26.5175 27.2927 26.0318 27.0921 25.2885C26.763 25.2616 26.4378 25.1982 26.1227 25.0996C25.4602 25.7183 24.5471 25.9927 23.6533 25.8419C22.7595 25.691 21.9871 25.1321 21.5643 24.3302C20.0587 24.697 18.4821 24.1049 17.59 22.8378C16.6979 21.5708 16.6722 19.8868 17.5251 18.5931C17.3204 17.6962 17.7959 16.7832 18.6482 16.4369C18.6915 15.7353 19.0515 15.0914 19.6266 14.6871C20.2017 14.2828 20.9294 14.162 21.6043 14.3588C22.2115 13.5749 23.1458 13.1142 24.1374 13.1098C24.7528 13.1108 25.3547 13.2898 25.8706 13.6252C26.2802 13.2387 26.8409 13.0552 27.3998 13.1247C27.9587 13.1943 28.4574 13.5095 28.7598 13.9846C28.8063 13.9846 28.8471 13.9771 28.8922 13.9771C30.7854 13.9873 32.4052 15.3393 32.7536 17.2002C33.2977 17.3157 33.7638 17.664 34.0287 18.1531C34.2937 18.6422 34.3308 19.2229 34.1302 19.7417C34.7682 20.7942 34.6648 22.1362 33.873 23.0785C33.6696 24.0291 33.1198 24.8699 32.3307 25.4376C32.4994 25.7376 32.6367 26.0542 32.7406 26.3824C32.7877 26.524 32.8116 26.6723 32.8112 26.8216C32.8103 27.3554 32.5112 27.844 32.0363 28.0877C31.9983 28.5786 31.9233 29.0659 31.8121 29.5456C31.7698 29.7475 31.7276 29.9472 31.6932 30.1445C31.2034 32.8945 32.0289 35.6231 32.8929 37.9988H33.327C33.4866 37.9987 33.635 37.9165 33.7198 37.7813C33.8047 37.6461 33.8141 37.4768 33.7449 37.333C33.1152 35.9474 32.7229 34.4658 32.5842 32.9502C32.3999 31.3974 32.6331 29.8235 33.2597 28.3909C33.6199 27.6337 34.0656 26.9203 34.588 26.2645Z" fill="white"/>
<path d="M30.7762 29.9845C30.8128 29.7783 30.8565 29.5666 30.9006 29.3567C30.9863 28.9808 31.0513 28.6005 31.0951 28.2174C30.7722 28.1487 30.4814 27.9746 30.2682 27.7225C30.1636 27.5997 30.0439 27.4905 29.9121 27.3975C29.9536 28.1211 29.8824 28.8467 29.7013 29.5485C29.6591 29.7491 29.6173 29.9483 29.5829 30.1446C29.0931 32.8937 29.9186 35.6232 30.7827 37.9985H31.9035C31.0417 35.5861 30.2692 32.831 30.7762 29.9845Z" fill="white"/>
</g>
<defs>
<clipPath id="clip0">
<rect width="26" height="26" fill="white" transform="translate(12 12)"/>
</clipPath>
</defs>
</svg>
