<svg width="50" height="50" viewBox="0 0 50 50" fill="none" xmlns="http://www.w3.org/2000/svg">
<rect width="50" height="50" rx="12" fill="#393FCC"/>
<path d="M25 13.0835C21.7093 13.0835 19.0417 15.7511 19.0417 19.0418C19.0417 22.3325 21.7093 25.0002 25 25.0002C28.2907 25.0002 30.9583 22.3325 30.9583 19.0418C30.9583 15.7511 28.2907 13.0835 25 13.0835Z" fill="white"/>
<path fill-rule="evenodd" clip-rule="evenodd" d="M21.6734 25.3423L21.7886 25.4655C21.8626 25.5447 21.9698 25.6597 22.1032 25.8033C22.37 26.0904 22.7417 26.4924 23.1621 26.9519C23.7343 27.5774 24.4013 28.3147 25.0173 29.016L28.3117 25.3585C28.5505 25.0935 28.9043 24.9629 29.258 25.0095C30.1318 25.1244 30.9974 25.6336 31.7508 26.2596C32.5277 26.9052 33.2923 27.7644 33.9658 28.746C35.1142 30.4197 36.0676 32.554 36.3134 34.7502H36.9167C37.515 34.7502 38 35.2352 38 35.8335C38 36.4318 37.515 36.9168 36.9167 36.9168H13.0833C12.485 36.9168 12 36.4318 12 35.8335C12 35.2352 12.485 34.7502 13.0833 34.7502H13.6803C13.8977 32.6093 14.7356 30.6022 15.8383 28.9787C17.1107 27.1054 18.8297 25.6084 20.5504 25.0526C20.9492 24.9238 21.3866 25.0366 21.6734 25.3423ZM15.861 34.7502H34.1295C33.8923 33.0769 33.142 31.3751 32.1792 29.9718C31.5985 29.1253 30.964 28.423 30.366 27.926C30.0176 27.6365 29.7121 27.4418 29.4608 27.3201L25.8049 31.3789C25.5955 31.6114 25.2956 31.742 24.9827 31.737C24.6697 31.732 24.3742 31.5919 24.1723 31.3528C23.415 30.456 22.3979 29.3265 21.5634 28.4144C21.1923 28.0087 20.8593 27.6481 20.6044 27.3733C19.6295 27.8773 18.5418 28.8547 17.6307 30.1961C16.7332 31.5174 16.0697 33.1027 15.861 34.7502Z" fill="white"/>
</svg>
