<svg width="50" height="50" viewBox="0 0 50 50" fill="none" xmlns="http://www.w3.org/2000/svg">
<rect width="50" height="50" rx="12" fill="#393FCC"/>
<path d="M24.5934 17.6539C25.0606 18.0277 25.1364 18.7094 24.7626 19.1766L22.5959 21.885C22.2222 22.3522 21.5404 22.4279 21.0732 22.0542C20.606 21.6804 20.5303 20.9987 20.9041 20.5315L23.0707 17.8231C23.4445 17.3559 24.1262 17.2802 24.5934 17.6539Z" fill="white"/>
<path d="M28.0333 20.2332C28.3923 19.7546 28.2953 19.0756 27.8167 18.7166C27.338 18.3576 26.659 18.4546 26.3 18.9332L24.675 21.0999C24.316 21.5785 24.413 22.2576 24.8917 22.6166C25.3703 22.9756 26.0493 22.8785 26.4083 22.3999L28.0333 20.2332Z" fill="white"/>
<path fill-rule="evenodd" clip-rule="evenodd" d="M15.7917 14.1665C14.595 14.1665 13.625 15.1366 13.625 16.3332V29.3332C13.625 30.5298 14.5951 31.4998 15.7917 31.4998H19.6452L18.569 34.3697C18.4442 34.7024 18.4905 35.0752 18.6929 35.3672C18.8953 35.6592 19.228 35.8335 19.5833 35.8335H30.4167C30.772 35.8335 31.1047 35.6592 31.3071 35.3672C31.5095 35.0752 31.5558 34.7024 31.431 34.3697L30.3548 31.4998H34.2083C35.405 31.4998 36.375 30.5298 36.375 29.3332V16.3332C36.375 15.1366 35.405 14.1665 34.2083 14.1665H15.7917ZM28.0408 31.4998L28.8534 33.6668H21.1466L21.9592 31.4998H28.0408ZM34.2083 29.3332V26.0832H15.7917V29.3332H34.2083ZM34.2083 23.9165V16.3332H15.7917V23.9165H34.2083Z" fill="white"/>
<path fill-rule="evenodd" clip-rule="evenodd" d="M34.2083 26.0832V29.3332H15.7917V26.0832H34.2083ZM25 28.7915C25.5983 28.7915 26.0833 28.3065 26.0833 27.7082C26.0833 27.1099 25.5983 26.6248 25 26.6248C24.4017 26.6248 23.9167 27.1099 23.9167 27.7082C23.9167 28.3065 24.4017 28.7915 25 28.7915Z" fill="white"/>
</svg>
