<svg width="50" height="50" viewBox="0 0 50 50" fill="none" xmlns="http://www.w3.org/2000/svg">
<rect width="50" height="50" rx="12" fill="#393FCC"/>
<path fill-rule="evenodd" clip-rule="evenodd" d="M25 16C24.2114 16 22.8937 16.2981 21.6537 16.63C20.3851 16.9675 19.1063 17.3669 18.3543 17.6087C18.0399 17.711 17.7611 17.8984 17.5501 18.1495C17.339 18.4007 17.2042 18.7053 17.1611 19.0285C16.48 24.0651 18.0606 27.7979 19.9783 30.2673C20.7915 31.3236 21.7612 32.2538 22.8549 33.0269C23.296 33.334 23.7051 33.5691 24.0526 33.73C24.3726 33.8785 24.7166 34 25 34C25.2834 34 25.6263 33.8785 25.9474 33.73C26.3663 33.5296 26.767 33.2944 27.1451 33.0269C28.2388 32.2538 29.2085 31.3236 30.0217 30.2673C31.9394 27.7979 33.52 24.0651 32.8389 19.0285C32.7959 18.7052 32.6611 18.4003 32.45 18.149C32.239 17.8977 31.9602 17.71 31.6457 17.6076C30.5541 17.2553 29.4539 16.9289 28.3463 16.6289C27.1063 16.2993 25.7886 16 25 16ZM25 21.625C25.4048 21.6244 25.7968 21.7649 26.1066 22.0215C26.4163 22.2782 26.6237 22.6344 26.6922 23.0272C26.7606 23.42 26.6856 23.8239 26.4805 24.1675C26.2754 24.5111 25.9533 24.7721 25.5714 24.9044L26.0114 27.1431C26.0274 27.2246 26.025 27.3085 26.0042 27.3888C25.9834 27.4692 25.9448 27.5441 25.8911 27.608C25.8375 27.672 25.7702 27.7235 25.694 27.7588C25.6178 27.7942 25.5345 27.8125 25.4503 27.8125H24.5497C24.4656 27.8124 24.3825 27.7939 24.3064 27.7585C24.2303 27.7231 24.1631 27.6715 24.1096 27.6076C24.0561 27.5436 24.0176 27.4688 23.9969 27.3886C23.9762 27.3083 23.9737 27.2245 23.9897 27.1431L24.4286 24.9044C24.0467 24.7721 23.7246 24.5111 23.5195 24.1675C23.3144 23.8239 23.2394 23.42 23.3078 23.0272C23.3763 22.6344 23.5837 22.2782 23.8934 22.0215C24.2032 21.7649 24.5952 21.6244 25 21.625Z" fill="white"/>
</svg>
