<svg width="50" height="50" viewBox="0 0 50 50" fill="none" xmlns="http://www.w3.org/2000/svg">
<rect width="50" height="50" rx="12" fill="#393FCC"/>
<path d="M33.1152 16.8848C30.602 14.3717 26.5131 14.3717 23.9999 16.8849C22.2833 18.6015 21.6871 21.1312 22.4304 23.4263L15.1717 30.685C15.0618 30.7949 15 30.9436 15 31.0993V34.4141C15 34.7379 15.2621 35 15.5859 35H18.9007C19.0563 35 19.2051 34.9382 19.315 34.8283L20.1435 33.9992C20.27 33.8727 20.3318 33.6954 20.3112 33.5174L20.2082 32.627L21.4418 32.5109C21.7222 32.4845 21.9437 32.2631 21.97 31.9827L22.0862 30.749L22.9765 30.8526C23.1419 30.8749 23.3084 30.8194 23.4337 30.7084C23.5585 30.5968 23.63 30.4377 23.63 30.2707V29.1797H24.7012C24.8568 29.1797 25.0056 29.1179 25.1154 29.008L26.618 27.5253C28.9126 28.2691 31.3985 27.7178 33.1152 26C35.6283 23.487 35.6283 19.3979 33.1152 16.8848ZM31.4575 21.0282C30.772 21.7137 29.6574 21.7137 28.9719 21.0282C28.2864 20.3427 28.2864 19.228 28.9719 18.5425C29.6574 17.857 30.772 17.857 31.4575 18.5425C32.143 19.228 32.143 20.3427 31.4575 21.0282Z" fill="white"/>
</svg>
