<svg width="50" height="50" viewBox="0 0 50 50" fill="none" xmlns="http://www.w3.org/2000/svg">
<rect width="50" height="50" rx="12" fill="#393FCC"/>
<path d="M19.1708 30.491C16.2302 27.3294 16.2822 22.3738 19.3372 19.2967C20.5345 18.0855 22.0914 17.2939 23.7754 17.0399L23.6857 14.3398C21.3216 14.6253 19.1236 15.7025 17.4496 17.3961C13.3559 21.5171 13.3065 28.1718 17.2897 32.3864L15.0264 34.664L22.1894 35.0553L22.1699 27.4711L19.1708 30.491ZM27.8119 14.9443L27.8314 22.5285L30.8305 19.5099C33.7711 22.6741 33.7191 27.6297 30.6641 30.7042C29.467 31.9158 27.9101 32.7075 26.2259 32.961L26.3156 35.6598C28.6798 35.374 30.8779 34.2974 32.553 32.6048C36.6454 28.4812 36.6948 21.8265 32.7116 17.6145L34.9749 15.3343L27.8119 14.9443Z" fill="white"/>
</svg>
