<svg width="50" height="50" viewBox="0 0 50 50" fill="none" xmlns="http://www.w3.org/2000/svg">
<rect width="50" height="50" rx="12" fill="#393FCC"/>
<path d="M24.4453 35.5667C24.7638 35.7368 25.1636 35.7357 25.4821 35.5656C34.1618 30.903 34.7782 21.7932 34.7706 19.203C34.7698 18.9948 34.7082 18.7913 34.5936 18.6176C34.4789 18.4438 34.316 18.3073 34.1249 18.2247L25.4041 14.3615C25.2653 14.3004 25.1153 14.2689 24.9636 14.269C24.8119 14.2692 24.662 14.3011 24.5233 14.3626L15.8632 18.2258C15.6749 18.3084 15.5143 18.4435 15.4006 18.6148C15.2869 18.7861 15.2248 18.9865 15.2218 19.1921C15.185 21.7694 15.7039 30.8986 24.4453 35.5667ZM21.3968 23.1506L23.8809 25.6347L28.5317 20.984L30.0635 22.5158L23.8809 28.6984L19.865 24.6825L21.3968 23.1506Z" fill="white"/>
</svg>
