<svg width="50" height="50" viewBox="0 0 50 50" fill="none" xmlns="http://www.w3.org/2000/svg">
<rect width="50" height="50" rx="12" fill="#393FCC"/>
<g clip-path="url(#clip0)">
<path d="M37.8404 27.6238L33.2459 36.3192C33.0211 36.7516 32.3839 37.2089 31.8919 37.2089L13.467 37.2123C13.0778 37.2123 12.7046 37.058 12.4296 36.7827C12.1545 36.5074 12 36.1346 12 35.7453L12.003 21.4382C12.003 20.629 12.6589 19.9725 13.4681 19.9717L14.8152 19.9705V21.2203H13.9139C13.7375 21.2203 13.5681 21.2903 13.4433 21.4151C13.3186 21.5399 13.2485 21.7092 13.2485 21.8857L13.2498 35.2975C13.2498 35.6654 13.5479 35.963 13.9154 35.963H14.8384L19.1927 27.1546C19.4387 26.6626 19.9036 26.2649 20.3949 26.2649H31.0587L31.0623 22.7201C31.7586 22.7847 32.3082 23.3622 32.3082 24.075V26.2649H37.199C37.7766 26.2709 38.2629 26.842 37.8404 27.6238ZM15.6647 31.529C15.625 27.1445 15.6647 13.9906 15.6647 13.9906C15.6647 13.3269 16.2045 12.7876 16.8675 12.7876H26.4995C26.6538 12.7876 26.8009 12.8522 26.9052 12.9657L30.0192 16.349C30.1125 16.4509 30.1648 16.5843 30.1648 16.7225V25.4871H29.1546V17.4793C29.1546 17.3407 29.0421 17.2282 28.9034 17.2282H26.5199C26.241 17.2282 26.0142 17.0018 26.0142 16.7233V14.0491C26.0142 13.9105 25.9017 13.798 25.7629 13.798H16.8681C16.7618 13.798 16.6753 13.8844 16.6753 13.9906V30.4262L15.9023 31.9902C15.9023 31.9899 15.6687 31.9728 15.6647 31.529ZM27.0255 16.2184H28.526L27.0255 14.5873V16.2184ZM27.5727 18.2571H18.2636C17.9206 18.2571 17.6422 18.5358 17.6422 18.8788C17.6422 19.2215 17.9209 19.5003 18.2636 19.5003H27.5729C27.9159 19.5003 28.1952 19.2213 28.1952 18.8788C28.1946 18.5361 27.9154 18.2571 27.5727 18.2571ZM28.1946 22.4987C28.1946 22.1559 27.9157 21.8775 27.5727 21.8775H18.2636C17.9206 21.8775 17.6422 22.1565 17.6422 22.4987C17.6422 22.8414 17.9209 23.1198 18.2636 23.1198H27.5729C27.9154 23.1198 28.1946 22.8414 28.1946 22.4987ZM17.6418 26.1431C17.6418 26.4857 17.9206 26.7642 18.2633 26.7642H18.4865C18.8794 25.6692 19.8533 25.5219 19.8533 25.5219H18.2633C17.9211 25.5219 17.6418 25.8003 17.6418 26.1431Z" fill="white"/>
</g>
<defs>
<clipPath id="clip0">
<rect width="26" height="26" fill="white" transform="translate(12 12)"/>
</clipPath>
</defs>
</svg>
