<svg width="24" height="24" viewBox="0 0 24 24" fill="none" xmlns="http://www.w3.org/2000/svg">
<g opacity="0.1">
<path d="M9.28127 12C9.28127 12.6962 9.55783 13.3639 10.0501 13.8562C10.5424 14.3484 11.2101 14.625 11.9063 14.625C12.6025 14.625 13.2701 14.3484 13.7624 13.8562C14.2547 13.3639 14.5313 12.6962 14.5313 12C14.5313 11.3038 14.2547 10.6361 13.7624 10.1438C13.2701 9.65156 12.6025 9.375 11.9063 9.375C11.2101 9.375 10.5424 9.65156 10.0501 10.1438C9.55783 10.6361 9.28127 11.3038 9.28127 12ZM22.0828 11.3953C19.861 6.71484 16.5024 4.35938 12 4.35938C7.49533 4.35938 4.13908 6.71484 1.9172 11.3977C1.82808 11.5864 1.78186 11.7925 1.78186 12.0012C1.78186 12.2099 1.82808 12.416 1.9172 12.6047C4.13908 17.2852 7.49768 19.6406 12 19.6406C16.5047 19.6406 19.861 17.2852 22.0828 12.6023C22.2633 12.2227 22.2633 11.782 22.0828 11.3953ZM11.9063 16.125C9.62815 16.125 7.78127 14.2781 7.78127 12C7.78127 9.72188 9.62815 7.875 11.9063 7.875C14.1844 7.875 16.0313 9.72188 16.0313 12C16.0313 14.2781 14.1844 16.125 11.9063 16.125Z" fill="#1C1F61"/>
</g>
</svg>
