<svg width="34" height="34" viewBox="0 0 34 34" fill="none" xmlns="http://www.w3.org/2000/svg">
<rect width="34" height="34" rx="17" fill="#393FCC"/>
<path d="M24.8163 14.8494C24.7461 14.6289 24.611 14.4347 24.4287 14.2922C24.2465 14.1496 24.0255 14.0653 23.7946 14.0502L19.6187 13.7579L18.0696 9.85724C17.9858 9.64159 17.8387 9.45629 17.6478 9.32563C17.4569 9.19497 17.2309 9.12504 16.9995 9.125H16.9984C16.7674 9.12541 16.5419 9.19552 16.3514 9.32616C16.1609 9.45681 16.0142 9.6419 15.9306 9.85724L14.3584 13.7805L10.2056 14.0502C9.97467 14.0653 9.75366 14.1496 9.5714 14.2922C9.38914 14.4347 9.25408 14.6289 9.18385 14.8494C9.10976 15.073 9.10472 15.3138 9.16939 15.5403C9.23405 15.7668 9.36542 15.9686 9.5464 16.1194L12.7412 18.8199L11.7909 22.558C11.7254 22.8098 11.7374 23.0755 11.8255 23.3203C11.9135 23.5652 12.0734 23.7777 12.2842 23.9302C12.4877 24.0783 12.7311 24.1617 12.9827 24.1695C13.2343 24.1773 13.4825 24.1093 13.6948 23.9741L16.9907 21.8862C16.9951 21.8829 16.9995 21.8807 17.0094 21.8862L20.5558 24.1329C20.7483 24.2559 20.9735 24.3179 21.2019 24.3109C21.4302 24.3038 21.6511 24.228 21.8357 24.0933C22.0267 23.9552 22.1716 23.7627 22.2514 23.5409C22.3312 23.3191 22.3421 23.0784 22.2828 22.8502L21.2732 18.7666L24.4537 16.1194C24.6347 15.9686 24.7661 15.7668 24.8308 15.5403C24.8954 15.3138 24.8904 15.073 24.8163 14.8494Z" fill="white"/>
</svg>
