<svg width="34" height="34" viewBox="0 0 34 34" fill="none" xmlns="http://www.w3.org/2000/svg">
<rect width="34" height="34" rx="17" fill="white"/>
<path d="M24.8162 14.8494C24.746 14.6289 24.6109 14.4347 24.4287 14.2922C24.2464 14.1496 24.0254 14.0653 23.7945 14.0502L19.6186 13.7579L18.0695 9.85724C17.9857 9.64159 17.8387 9.45629 17.6477 9.32563C17.4568 9.19497 17.2308 9.12504 16.9995 9.125H16.9984C16.7674 9.12541 16.5418 9.19552 16.3513 9.32616C16.1608 9.45681 16.0141 9.6419 15.9305 9.85724L14.3583 13.7805L10.2055 14.0502C9.97461 14.0653 9.7536 14.1496 9.57134 14.2922C9.38908 14.4347 9.25402 14.6289 9.18379 14.8494C9.1097 15.073 9.10466 15.3138 9.16933 15.5403C9.23399 15.7668 9.36536 15.9686 9.54634 16.1194L12.7412 18.8199L11.7908 22.558C11.7253 22.8098 11.7374 23.0755 11.8254 23.3203C11.9134 23.5652 12.0733 23.7777 12.2841 23.9302C12.4877 24.0783 12.7311 24.1617 12.9827 24.1695C13.2343 24.1773 13.4824 24.1093 13.6948 23.9741L16.9907 21.8862C16.9951 21.8829 16.9995 21.8807 17.0093 21.8862L20.5557 24.1329C20.7483 24.2559 20.9734 24.3179 21.2018 24.3109C21.4302 24.3038 21.6511 24.228 21.8356 24.0933C22.0267 23.9552 22.1716 23.7627 22.2513 23.5409C22.3311 23.3191 22.3421 23.0784 22.2828 22.8502L21.2731 18.7666L24.4537 16.1194C24.6347 15.9686 24.766 15.7668 24.8307 15.5403C24.8954 15.3138 24.8903 15.073 24.8162 14.8494Z" fill="#393FCC"/>
</svg>


