<svg id="Vrstva_1" data-name="Vrstva 1" xmlns="http://www.w3.org/2000/svg" viewBox="0 0 70.86 88.98"><defs><style>.cls-1{fill:#fff;}</style></defs><title>keys</title><path class="cls-1" d="M731.61,106a1.86,1.86,0,0,0,.06.48l.79,1a1.74,1.74,0,0,0,.82.23l14.84-6.38-.08-4,5.68-2.11a1.68,1.68,0,0,0,1.67-1.54l2.13-5,3.1-.64A1.7,1.7,0,0,0,762.29,87l-.53-1.83,2.12.15a1,1,0,0,0,1.08-1l.51-2.88c.21.12.83-.18,1.65-.68a16.56,16.56,0,0,1,17.15-24.05l.65.11a16.09,16.09,0,0,0-1.41-1.58,15.42,15.42,0,0,0-13.43-4.15A15.17,15.17,0,0,1,782.83,36a15,15,0,0,1,2.11-.15,15.41,15.41,0,0,1,14.95,13.35,15.59,15.59,0,0,1-5.54,14.4A15.42,15.42,0,0,0,769.93,82.4l-17.5,30.69a1.76,1.76,0,0,0-.18,1.19L751,121a1.5,1.5,0,0,0,.16.45l1,.83a1.74,1.74,0,0,0,.85,0l7.4-2.62a1.69,1.69,0,0,0,1.35-1.64l3.32-9.15,5.07-3.33a1.68,1.68,0,0,0,1.28-1.88l1-5.31,3,.15a1.69,1.69,0,0,0,1.38-1.46l1.76-7.56c.24.08.82-.39,1.55-1.13A15.42,15.42,0,0,0,795.7,65.58a18,18,0,0,0,6.57-16.76,17.81,17.81,0,0,0-17.33-15.41,18.23,18.23,0,0,0-2.45.17,17.61,17.61,0,0,0-14.81,18.16,15.42,15.42,0,0,0-9,20.83l-23.91,26a1.78,1.78,0,0,0-.44,1.12Zm42.75-19.93L754.28,119c-.65,0-.82,0-1.13-.6l20.12-32.94C773.65,84.79,774.75,85.45,774.36,86.08ZM789.25,65.7l-.44.15a14.83,14.83,0,0,1-2.06.44,14.48,14.48,0,0,1-3.35.07c-.9.57-.46,2.39.34,2.49a17,17,0,0,0,6-.79,7.23,7.23,0,0,1-.57,1.67,4.08,4.08,0,1,1-1.36-5.6A4,4,0,0,1,789.25,65.7Zm-55.2,38.73L760.13,76c.49-.54,1.43.32.94.86l-26,28.4C734.39,105.13,734.24,105,734.05,104.43Z" transform="translate(-731.61 -33.41)"/></svg>