<svg id="Vrstva_1" data-name="Vrstva 1" xmlns="http://www.w3.org/2000/svg" viewBox="0 0 54.77 50.7"><defs><style>.cls-1{fill:#fff;}</style></defs><title>heart</title><path class="cls-1" d="M623.65,78.32h14.13a1.73,1.73,0,0,1,1.64,1l.88,2.2L645,66.47a1.73,1.73,0,0,1,1.75-1.12,1.68,1.68,0,0,1,1.64,1.24L652,84.21l3.85-11.78a1.72,1.72,0,0,1,1.66-1.1h0a1.73,1.73,0,0,1,1.67,1.08l2,5.91h13c.19-.35.36-.68.51-1,2.14-4.81,3.83-17.27-7.07-22.47-7.49-3.57-13.53,1.1-16.57,4.38a3,3,0,0,1-4.33,0c-3-3.28-9.08-7.95-16.57-4.38C619.31,60,621,72.5,623.14,77.31,623.29,77.64,623.46,78,623.65,78.32Z" transform="translate(-621.56 -53.56)"/><path class="cls-1" d="M660,81.34a1.72,1.72,0,0,1-1.67-1.08l-.69-2-4.25,13a1.74,1.74,0,0,1-1.68,1.1h-.08A1.67,1.67,0,0,1,650,91.16l-3.65-17.4L642.2,87.07a1.72,1.72,0,0,1-1.62,1.12,1.77,1.77,0,0,1-1.71-1l-2.33-5.84h-11c4.93,6.93,14.69,16.56,19.9,21.53a5,5,0,0,0,6.95,0c5.21-5,15-14.6,19.9-21.53Z" transform="translate(-621.56 -53.56)"/></svg>