<svg id="Vrstva_1" data-name="Vrstva 1" xmlns="http://www.w3.org/2000/svg" xmlns:xlink="http://www.w3.org/1999/xlink" viewBox="0 0 29.62 29.62"><defs><style>.cls-1{fill:url(#linear-gradient);}.cls-2{fill:url(#linear-gradient-2);}.cls-3{fill:url(#linear-gradient-3);}.cls-4{fill:url(#linear-gradient-4);}</style><linearGradient id="linear-gradient" x1="197.12" y1="539.05" x2="170.73" y2="565.43" gradientUnits="userSpaceOnUse"><stop offset="0" stop-color="#e85b42"/><stop offset="0.48" stop-color="#e44192"/><stop offset="1" stop-color="#13438e"/></linearGradient><linearGradient id="linear-gradient-2" x1="197.12" y1="539.05" x2="170.73" y2="565.44" xlink:href="#linear-gradient"/><linearGradient id="linear-gradient-3" x1="197.12" y1="539.05" x2="170.73" y2="565.43" xlink:href="#linear-gradient"/><linearGradient id="linear-gradient-4" x1="197.09" y1="539.02" x2="170.7" y2="565.41" xlink:href="#linear-gradient"/></defs><title>ig</title><path class="cls-1" d="M189.5,567.21H178a9.08,9.08,0,0,1-9.07-9.07V546.66a9.08,9.08,0,0,1,9.07-9.07H189.5a9.08,9.08,0,0,1,9.07,9.07v11.48A9.08,9.08,0,0,1,189.5,567.21ZM178,538.69a8,8,0,0,0-8,8v11.48a8,8,0,0,0,8,8H189.5a8,8,0,0,0,8-8V546.66a8,8,0,0,0-8-8Z" transform="translate(-168.95 -537.59)"/><path class="cls-2" d="M186.81,545.22h-6.09a4.15,4.15,0,0,0-4.14,4.14v6.09a4.14,4.14,0,0,0,4.14,4.13h6.09a4.13,4.13,0,0,0,4.13-4.13v-6.09A4.14,4.14,0,0,0,186.81,545.22Zm2.67,10.23a2.68,2.68,0,0,1-2.67,2.67h-6.09a2.67,2.67,0,0,1-2.67-2.67v-6.09a2.66,2.66,0,0,1,2.67-2.67h6.09a2.67,2.67,0,0,1,2.67,2.67Z" transform="translate(-168.95 -537.59)"/><path class="cls-3" d="M183.76,549.07a3.34,3.34,0,1,0,3.34,3.33A3.33,3.33,0,0,0,183.76,549.07Zm0,5.13a1.8,1.8,0,1,1,1.8-1.8A1.8,1.8,0,0,1,183.76,554.2Z" transform="translate(-168.95 -537.59)"/><path class="cls-4" d="M187.5,547.62a1,1,0,1,0,1,1A1,1,0,0,0,187.5,547.62Z" transform="translate(-168.95 -537.59)"/></svg>