<svg id="Vrstva_1" data-name="Vrstva 1" xmlns="http://www.w3.org/2000/svg" viewBox="0 0 194.88 73.13"><defs><style>.cls-1{fill:#d7d7d7;}</style></defs><title>ikony web</title><polygon class="cls-1" points="32.37 7.68 18.61 30.18 0 0 0 44.3 8.78 44.3 8.78 31.46 18.48 44.71 28.3 31.25 28.3 44.3 37.13 44.3 37.07 0 32.37 7.68"/><polygon class="cls-1" points="76.4 8.56 72.07 0.33 67.25 9.33 67.25 9.36 49.03 43.99 59.18 43.99 72.03 19.49 85 43.99 95.02 43.99 93.08 40.31 76.4 8.56"/><path class="cls-1" d="M163.67,42.3A15.37,15.37,0,0,0,157,36.41a19.24,19.24,0,0,0-8.58-2.09h-15.2V78.19h9.56V67.92h5.64A19.58,19.58,0,0,0,157,65.85h0A15.38,15.38,0,0,0,163.67,60a16.91,16.91,0,0,0,2.23-8.83A16.87,16.87,0,0,0,163.67,42.3ZM148.39,58.47h-5.62V43.79h5.64a9.66,9.66,0,0,1,4.29,1,5.91,5.91,0,0,1,2.64,2.35,7.65,7.65,0,0,1,.9,3.94,7.6,7.6,0,0,1-.9,3.92,6,6,0,0,1-2.66,2.36h0A9.75,9.75,0,0,1,148.39,58.47Z" transform="translate(-26.81 -34.2)"/><path class="cls-1" d="M157,36.4h0Z" transform="translate(-26.81 -34.2)"/><path class="cls-1" d="M215.31,40.7a21.79,21.79,0,0,0-37.2,15.41,21.79,21.79,0,1,0,43.58,0A21.05,21.05,0,0,0,215.31,40.7Zm-6.6,24a12.17,12.17,0,0,1-20.77-8.6,12.17,12.17,0,1,1,20.77,8.6Z" transform="translate(-26.81 -34.2)"/><path class="cls-1" d="M106.3,103.67c0,1.55-.3,2.28-1.13,2.89a4.33,4.33,0,0,1-2.66.78c-2,0-3.63-1-3.63-2.3a.92.92,0,0,1,.94-.94c.39,0,.55.1.94.6a2,2,0,0,0,1.8.92c1.2,0,1.71-.49,1.71-1.65v-.28c0-.15,0-.2-.11-.2s-.09,0-.22.11a3,3,0,0,1-1.78.54,3.29,3.29,0,0,1-2.93-1.44,6.56,6.56,0,0,1-.61-3.32A5,5,0,0,1,99.49,96a3.45,3.45,0,0,1,2.68-1.15,3,3,0,0,1,1.88.54.43.43,0,0,0,.19.09s.07,0,.14-.14a1.06,1.06,0,0,1,1.77,0c.11.18.15.37.15,1.16Zm-5.65-4.2c0,2.14.49,3,1.82,3s1.8-.81,1.8-2.91-.49-3-1.8-3S100.65,97.34,100.65,99.47Z" transform="translate(-26.81 -34.2)"/><path class="cls-1" d="M110.75,96.44c0-.87,0-1,.19-1.23a1,1,0,0,1,.81-.4.87.87,0,0,1,.86.52c.07.15.11.2.17.2s.07,0,.18-.11a2.44,2.44,0,0,1,1.6-.61c.83,0,1.31.41,1.31,1.09a.92.92,0,0,1-1,1,1.84,1.84,0,0,1-.38,0l-.46,0a1.19,1.19,0,0,0-1,.4,1.67,1.67,0,0,0-.27,1.2v4.43c0,.87,0,1-.19,1.24a1,1,0,0,1-.83.38.93.93,0,0,1-.86-.46c-.13-.22-.15-.35-.15-1.16Z" transform="translate(-26.81 -34.2)"/><path class="cls-1" d="M125.64,96.11c.59.75.82,1.72.82,3.61s-.28,2.9-1,3.66a3.73,3.73,0,0,1-2.87,1.08,3.63,3.63,0,0,1-3-1.28c-.59-.74-.81-1.75-.81-3.54s.28-3,1-3.75a3.9,3.9,0,0,1,2.87-1.08A3.59,3.59,0,0,1,125.64,96.11Zm-4.56,1.41a5.65,5.65,0,0,0-.24,2.12,4.62,4.62,0,0,0,.31,2.25,1.74,1.74,0,0,0,3-.13,5.87,5.87,0,0,0,.24-2.09,4.52,4.52,0,0,0-.32-2.27,1.72,1.72,0,0,0-3,.12Z" transform="translate(-26.81 -34.2)"/><path class="cls-1" d="M137.74,102.84c0,.87,0,1-.19,1.24a.83.83,0,0,1-.77.38c-.44,0-.61-.11-.88-.58a.15.15,0,0,0-.11-.1s-.06,0-.13.06a3.31,3.31,0,0,1-2.08.62,3.21,3.21,0,0,1-2.41-.86,2.79,2.79,0,0,1-.67-2.23V96.44c0-.87,0-1,.19-1.23a1,1,0,0,1,.83-.4,1,1,0,0,1,.86.47c.13.22.15.35.15,1.16v4.32a2.69,2.69,0,0,0,.2,1.39,1.27,1.27,0,0,0,1.2.6,1.79,1.79,0,0,0,1.39-.62,2.37,2.37,0,0,0,.39-1.66v-4c0-.87,0-1,.19-1.23a1,1,0,0,1,.82-.4.94.94,0,0,1,.87.47c.13.22.15.35.15,1.16Z" transform="translate(-26.81 -34.2)"/><path class="cls-1" d="M142.19,96.44c0-.87,0-1,.19-1.23a.85.85,0,0,1,.77-.4c.46,0,.66.15.9.63,0,.07.08.12.11.12a.28.28,0,0,0,.1-.06,3.63,3.63,0,0,1,4.87.56,5.7,5.7,0,0,1,.74,3.38c0,1.93-.26,3.13-.84,3.86a3.13,3.13,0,0,1-2.57,1.16,2.94,2.94,0,0,1-2-.66c-.15-.11-.19-.13-.21-.13s-.07.06-.07.19v1.8c0,.88,0,1-.19,1.24a1.06,1.06,0,0,1-1.69-.08c-.13-.22-.15-.35-.15-1.16Zm2.36.9a5.23,5.23,0,0,0-.33,2.3,4.44,4.44,0,0,0,.4,2.43,1.66,1.66,0,0,0,1.38.68,1.58,1.58,0,0,0,1.46-.81,5.13,5.13,0,0,0,.33-2.27,4.52,4.52,0,0,0-.4-2.46,1.66,1.66,0,0,0-1.39-.68A1.58,1.58,0,0,0,144.55,97.34Z" transform="translate(-26.81 -34.2)"/><rect class="cls-1" y="68.11" width="37.23" height="1.84"/><rect class="cls-1" x="154.47" y="68.11" width="37.23" height="1.84"/></svg>