<svg id="Vrstva_1" data-name="Vrstva 1" xmlns="http://www.w3.org/2000/svg" viewBox="0 0 77.59 66.09"><defs><style>.cls-1{fill:#fff;}</style></defs><title>marketing</title><path class="cls-1" d="M752.63,159c-10.45,0-18.93,7.28-18.93,16.26a14.46,14.46,0,0,0,2.78,8.48l-4.87,8.56,12-2.73a21.32,21.32,0,0,0,9,2h.14a26,26,0,0,1,6.58-8.47,30.5,30.5,0,0,1,12.13-6.3,12.12,12.12,0,0,0,.09-1.48C771.57,166.31,763.09,159,752.63,159ZM743.75,178a2.68,2.68,0,1,1,2.68-2.68A2.68,2.68,0,0,1,743.75,178Zm8.88,0a2.68,2.68,0,1,1,2.68-2.68A2.67,2.67,0,0,1,752.63,178Zm8.88,0a2.68,2.68,0,1,1,2.68-2.68A2.68,2.68,0,0,1,761.51,178Z" transform="translate(-731.61 -159.03)"/><path class="cls-1" d="M802.45,213.25a20.12,20.12,0,0,0,3.85-11.75c0-12.45-11.75-22.54-26.25-22.54s-26.24,10.09-26.24,22.54S765.56,224,780.05,224a29.76,29.76,0,0,0,12.46-2.69l16.69,3.78Zm-34.71-8a3.71,3.71,0,1,1,3.72-3.71A3.72,3.72,0,0,1,767.74,205.21Zm12.31,0a3.71,3.71,0,1,1,3.71-3.71A3.71,3.71,0,0,1,780.05,205.21Zm12.31,0a3.71,3.71,0,1,1,3.71-3.71A3.71,3.71,0,0,1,792.36,205.21Z" transform="translate(-731.61 -159.03)"/></svg>