<svg id="Vrstva_1" data-name="Vrstva 1" xmlns="http://www.w3.org/2000/svg" viewBox="0 0 80.31 48.86"><defs><style>.cls-1{fill:#fff;}</style></defs><title>pills</title><path class="cls-1" d="M496.12,59.33v0l.46-.46a15,15,0,0,1,21.16,0l19,19a15.05,15.05,0,0,1,4.36,10.59,14.83,14.83,0,0,1-3.93,10.1v0l-.43.43a15,15,0,0,1-21.16,0l-19-19a14.94,14.94,0,0,1-.46-20.66Zm30,12.26L509.31,88.42l8.43,8.4a11.72,11.72,0,0,0,8.4,3.49,11.84,11.84,0,0,0,8.39-3.46l0,0a11.94,11.94,0,0,0,0-16.83Z" transform="translate(-492.2 -54.48)"/><path class="cls-1" d="M527.54,59.33v0l.46-.46a15,15,0,0,1,21.16,0l19,19a15,15,0,0,1,.43,20.69v0l-.43.43A15,15,0,0,1,547,99L528,80a15,15,0,0,1-.46-20.66ZM561,84.21A1.52,1.52,0,0,1,561,82a1.57,1.57,0,0,1,2.17,0,8.51,8.51,0,0,1,0,11.95A1.53,1.53,0,0,1,561,91.83a5.43,5.43,0,0,0,0-7.62Zm-3.43-12.62L540.73,88.42l8.43,8.4a11.89,11.89,0,0,0,16.8,0l0,0A11.94,11.94,0,0,0,566,80Z" transform="translate(-492.2 -54.48)"/></svg>