<svg id="Vrstva_1" data-name="Vrstva 1" xmlns="http://www.w3.org/2000/svg" viewBox="0 0 59.74 59.74"><defs><style>.cls-1{fill:#fff;}</style></defs><title>play</title><path class="cls-1" d="M551.19,299.74l-22.44,11.74a.84.84,0,0,1-1.22-.74V287.26a.83.83,0,0,1,1.22-.74l22.44,11.74A.83.83,0,0,1,551.19,299.74Z" transform="translate(-506.76 -269.13)"/><path class="cls-1" d="M536.63,328.87A29.87,29.87,0,1,1,566.5,299,29.9,29.9,0,0,1,536.63,328.87Zm0-57.37a27.5,27.5,0,1,0,27.5,27.5A27.53,27.53,0,0,0,536.63,271.5Z" transform="translate(-506.76 -269.13)"/></svg>