<svg width="30" height="30" viewBox="0 0 30 30" fill="none" xmlns="http://www.w3.org/2000/svg">
<path d="M27.5788 21.0634H25.8447C25.8437 20.106 25.0679 19.3302 24.1105 19.3292H22.0542V19.1213L23.5414 18.08C23.8518 18.3244 24.2363 18.4553 24.6313 18.4511C25.0617 18.4481 25.4808 18.313 25.832 18.0641C26.586 17.536 27.3938 15.5753 27.5479 15.1875C27.6022 15.0519 27.5843 14.8981 27.5005 14.7785C27.4163 14.6595 27.2783 14.5903 27.1326 14.5939C26.7156 14.6062 24.597 14.6947 23.8425 15.2231L23.8421 15.2233C23.4337 15.5031 23.1388 15.9197 23.0106 16.3979C22.9266 16.7178 22.9389 17.0554 23.0461 17.3684L22.0541 18.0629V14.7859L23.5414 13.7446C23.8517 13.989 24.2363 14.1199 24.6312 14.1157C25.0617 14.1127 25.4808 13.9777 25.832 13.7287C26.586 13.2006 27.3938 11.2399 27.5479 10.8521C27.6022 10.7165 27.5843 10.5627 27.5005 10.4431C27.4161 10.3243 27.2783 10.2551 27.1326 10.2585C26.7156 10.2708 24.597 10.3593 23.8425 10.8877L23.8421 10.8879C23.4337 11.1677 23.1388 11.5843 23.0106 12.0625C22.9266 12.3824 22.9389 12.72 23.0461 13.033L22.0541 13.7275V10.4505L23.5414 9.40923C23.8517 9.65357 24.2363 9.78451 24.6312 9.78034C25.0617 9.77735 25.4808 9.64226 25.832 9.39334C26.586 8.86518 27.3938 6.90451 27.5479 6.5167C27.6022 6.3811 27.5843 6.2273 27.5005 6.10771C27.4181 5.98662 27.2789 5.91678 27.1326 5.92312C26.7156 5.9354 24.597 6.02388 23.8425 6.55226L23.8421 6.55247C23.4337 6.83231 23.1388 7.24893 23.0106 7.72713C22.9266 8.04705 22.9389 8.38465 23.0461 8.69757L22.0541 9.39207V7.12084C22.8546 6.84826 23.3826 6.08429 23.3548 5.23916C23.3548 4.3181 22.2121 2.53187 21.983 2.18321C21.8982 2.06801 21.7637 2 21.6206 2C21.4775 2 21.343 2.06801 21.2582 2.18321C21.0291 2.53187 19.8864 4.3181 19.8864 5.23916C19.8585 6.08429 20.3866 6.84826 21.1871 7.12084V9.39208L20.1953 8.69766C20.3026 8.38473 20.3149 8.04706 20.2306 7.72715C20.1026 7.24883 19.8076 6.8321 19.3991 6.55225C18.6447 6.0239 16.5257 5.93543 16.1087 5.92313C15.9628 5.91874 15.8244 5.98816 15.7407 6.10777C15.657 6.22739 15.6392 6.38112 15.6934 6.51671C15.8475 6.90452 16.6553 8.86519 17.4102 9.39357C17.761 9.64298 18.18 9.77865 18.6105 9.78223C18.6731 9.78223 18.7358 9.77926 18.798 9.77312C19.1274 9.7427 19.4405 9.61563 19.698 9.40785L21.1871 10.4505V13.7275L20.1953 13.0331C20.3026 12.7201 20.3149 12.3825 20.2307 12.0625C20.1026 11.5842 19.8077 11.1675 19.3992 10.8877C18.6447 10.3593 16.5257 10.2708 16.1087 10.2585C15.9633 10.2563 15.8259 10.3252 15.7408 10.4431C15.657 10.5627 15.6391 10.7165 15.6934 10.8521C15.8475 11.2399 16.6553 13.2006 17.4102 13.7289C17.761 13.9784 18.18 14.114 18.6105 14.1176C18.6731 14.1176 18.7358 14.1146 18.798 14.1085C19.1274 14.0781 19.4405 13.951 19.698 13.7432L21.1871 14.7859V18.0629L20.1953 17.3685C20.3026 17.0555 20.3149 16.7179 20.2307 16.3979C20.1026 15.9196 19.8077 15.5029 19.3992 15.2231C18.6447 14.6947 16.5257 14.6062 16.1087 14.5939C15.9632 14.5915 15.8258 14.6604 15.7408 14.7785C15.657 14.8981 15.6391 15.0519 15.6934 15.1875C15.8475 15.5753 16.6553 17.536 17.4102 18.0643C17.761 18.3138 18.18 18.4494 18.6105 18.453C18.6731 18.453 18.7358 18.45 18.798 18.4439C19.1274 18.4135 19.4405 18.2864 19.698 18.0786L21.1871 19.1213V19.3292H8.82529V19.1213L10.3145 18.0786C10.5719 18.2864 10.885 18.4135 11.2144 18.4439C11.2767 18.4501 11.3393 18.453 11.402 18.453C11.8324 18.4495 12.2514 18.3138 12.6023 18.0644C13.3571 17.536 14.1649 15.5753 14.3191 15.1875C14.3733 15.0519 14.3555 14.8981 14.2716 14.7785C14.1873 14.6596 14.0494 14.5905 13.9037 14.5939C13.4867 14.6062 11.3677 14.6947 10.6132 15.2231C10.2047 15.5029 9.90978 15.9196 9.78171 16.398C9.69748 16.7179 9.7098 17.0555 9.81711 17.3685L8.82529 18.0629V14.7859L10.3145 13.7432C10.5719 13.951 10.885 14.0781 11.2144 14.1085C11.2767 14.1147 11.3393 14.1176 11.402 14.1176C11.8324 14.1141 12.2514 13.9784 12.6023 13.729C13.3571 13.2006 14.1649 11.2399 14.3191 10.8521C14.3733 10.7165 14.3555 10.5627 14.2716 10.4431C14.1872 10.3244 14.0494 10.2552 13.9037 10.2585C13.4867 10.2708 11.3677 10.3593 10.6132 10.8877C10.2047 11.1675 9.90978 11.5842 9.78171 12.0626C9.69748 12.3825 9.7098 12.7201 9.81711 13.0331L8.82529 13.7275V10.4505L10.3145 9.40783C10.5719 9.61565 10.885 9.74274 11.2144 9.77313C11.2767 9.77926 11.3393 9.78223 11.402 9.78223C11.8324 9.77866 12.2514 9.64299 12.6023 9.39357C13.3571 8.86519 14.1649 6.90453 14.3191 6.51671C14.3733 6.38112 14.3555 6.22732 14.2716 6.10773C14.1892 5.98671 14.05 5.91689 13.9037 5.92314C13.4867 5.93541 11.3677 6.0239 10.6132 6.55228C10.2047 6.83212 9.90978 7.24885 9.78171 7.72717C9.69748 8.04707 9.7098 8.38474 9.81711 8.69766L8.82529 9.39208V7.12084C9.62574 6.84826 10.1538 6.08429 10.1259 5.23916C10.1259 4.3181 8.98321 2.53187 8.75416 2.18321C8.66934 2.06801 8.53481 2 8.39175 2C8.24869 2 8.11416 2.06801 8.02934 2.18321C7.80029 2.53187 6.65759 4.3181 6.65759 5.23916C6.6297 6.08429 7.15775 6.84826 7.95821 7.12084V9.39208L6.96631 8.69758C7.07347 8.38466 7.08581 8.04706 7.0018 7.72715C6.8736 7.24894 6.57868 6.83232 6.17027 6.55248L6.16983 6.55227C5.4154 6.02389 3.29681 5.93543 2.87978 5.92313C2.73368 5.91784 2.59496 5.98744 2.51186 6.10772C2.42805 6.22732 2.41022 6.38111 2.46445 6.51671C2.61856 6.90452 3.42636 8.86519 4.18083 9.39357C4.53178 9.64255 4.95082 9.77757 5.38111 9.78032C5.77603 9.78428 6.16047 9.65334 6.47086 9.40915L7.95822 10.4505V13.7275L6.96632 13.033C7.07347 12.7201 7.08582 12.3825 7.0018 12.0625C6.87361 11.5843 6.57869 11.1677 6.17028 10.8879L6.16984 10.8877C5.4154 10.3593 3.29681 10.2708 2.87978 10.2585C2.73434 10.2562 2.59694 10.3251 2.51186 10.4431C2.42805 10.5627 2.41022 10.7165 2.46445 10.8521C2.61856 11.2399 3.42636 13.2006 4.18083 13.729C4.53178 13.9779 4.95082 14.113 5.38111 14.1157C5.77603 14.1197 6.16047 13.9887 6.47086 13.7445L7.95822 14.7859V18.0629L6.96632 17.3684C7.07347 17.0555 7.08582 16.7179 7.0018 16.3979C6.87361 15.9197 6.57869 15.5031 6.17028 15.2233L6.16984 15.2231C5.4154 14.6947 3.29681 14.6062 2.87978 14.5939C2.73429 14.5914 2.59681 14.6604 2.51186 14.7785C2.42805 14.8981 2.41022 15.0519 2.46445 15.1875C2.61856 15.5753 3.42636 17.536 4.18083 18.0644C4.53178 18.3133 4.95082 18.4484 5.38111 18.4511C5.77603 18.4551 6.16047 18.3241 6.47086 18.0799L7.95822 19.1213V19.3292H5.90186C4.94453 19.3302 4.16872 20.106 4.1677 21.0634H2.43354C2.31855 21.0633 2.20826 21.109 2.12695 21.1903C2.04564 21.2716 1.99997 21.3819 2 21.4969V23.2311C1.99997 23.3461 2.04564 23.4563 2.12695 23.5377C2.20826 23.619 2.31855 23.6646 2.43354 23.6646H2.47469L2.86921 27.6096C2.89135 27.8313 3.07788 28.0001 3.30062 28H26.7118C26.9345 28.0001 27.121 27.8313 27.1432 27.6096L27.5377 23.6646H27.5788C27.6938 23.6646 27.8041 23.619 27.8854 23.5377C27.9668 23.4563 28.0124 23.3461 28.0124 23.2311V21.4969C28.0124 21.3819 27.9668 21.2716 27.8854 21.1903C27.8041 21.109 27.6938 21.0633 27.5788 21.0634ZM23.8506 16.6134C23.9274 16.3358 24.1008 16.0947 24.3396 15.9335V15.9333C24.6503 15.7159 25.6182 15.5679 26.4709 15.4995C26.1152 16.2773 25.6448 17.1365 25.3345 17.3539C24.9251 17.7045 24.311 17.6653 23.9494 17.2656L23.9492 17.2652L23.949 17.265C23.8216 17.073 23.7856 16.8345 23.8506 16.6134ZM23.8506 12.278C23.9274 12.0004 24.1008 11.7593 24.3396 11.5981V11.5979C24.6503 11.3805 25.6182 11.2325 26.4709 11.1641C26.1152 11.9419 25.6448 12.8011 25.3345 13.0185C24.925 13.369 24.311 13.3298 23.9494 12.9302L23.9492 12.9298L23.949 12.9296C23.8216 12.7376 23.7856 12.4991 23.8506 12.278ZM23.8506 7.94265C23.9274 7.66498 24.1008 7.42386 24.3396 7.2627V7.26249C24.6503 7.04509 25.6182 6.89712 26.4709 6.82874C26.1152 7.60651 25.6448 8.46573 25.3345 8.68314C24.925 9.03358 24.311 8.99443 23.9494 8.59484L23.9492 8.59444L23.949 8.59423C23.8216 8.40222 23.7856 8.16372 23.8506 7.94265ZM18.7137 8.91028C18.4264 8.93261 18.1406 8.8521 17.9072 8.68314C17.5968 8.46573 17.1261 7.60648 16.7704 6.82853C17.6227 6.89669 18.5909 7.04486 18.9021 7.2627C19.1409 7.42386 19.3143 7.66498 19.3911 7.94265C19.456 8.16378 19.4198 8.40228 19.2923 8.59423L19.292 8.59444L19.2919 8.59487C19.1551 8.78016 18.9435 8.89559 18.7137 8.91028ZM18.7137 13.2457C18.4265 13.2678 18.1407 13.1873 17.9072 13.0185C17.5968 12.8011 17.1261 11.9419 16.7704 11.1639C17.6227 11.2321 18.5909 11.3803 18.9021 11.5981C19.1409 11.7593 19.3143 12.0004 19.3911 12.278C19.456 12.4992 19.4198 12.7377 19.2923 12.9296L19.292 12.9298L19.2919 12.9303C19.1551 13.1156 18.9435 13.231 18.7137 13.2457ZM18.7137 17.5811C18.4265 17.6031 18.1407 17.5226 17.9072 17.3539C17.5968 17.1365 17.1261 16.2773 16.7704 15.4993C17.6227 15.5675 18.5909 15.7157 18.9021 15.9335C19.1409 16.0947 19.3143 16.3358 19.3911 16.6134C19.456 16.8346 19.4198 17.0731 19.2923 17.265L19.292 17.2652L19.2919 17.2657C19.1551 17.451 18.9435 17.5664 18.7137 17.5811ZM10.6213 16.6134C10.6981 16.3358 10.8715 16.0947 11.1103 15.9335C11.421 15.7161 12.3893 15.5679 13.242 15.4995C12.8863 16.2773 12.4156 17.1365 12.1052 17.3539C11.8715 17.5223 11.5859 17.6027 11.2987 17.5811C11.0671 17.5718 10.8532 17.4549 10.7202 17.2651C10.5873 17.0752 10.5507 16.8342 10.6213 16.6134L10.6213 16.6134ZM10.6213 12.278C10.6981 12.0004 10.8715 11.7593 11.1103 11.5981C11.421 11.3807 12.3893 11.2325 13.242 11.1641C12.8863 11.9419 12.4156 12.8011 12.1052 13.0185C11.8716 13.187 11.5859 13.2674 11.2987 13.2457C11.0671 13.2364 10.8532 13.1195 10.7202 12.9297C10.5873 12.7398 10.5507 12.4988 10.6213 12.278L10.6213 12.278ZM10.6213 7.94265C10.6981 7.66498 10.8715 7.42386 11.1103 7.2627C11.421 7.0453 12.3893 6.89711 13.242 6.82873C12.8863 7.6065 12.4156 8.46572 12.1052 8.68313C11.8716 8.85166 11.5859 8.93211 11.2987 8.91027C11.0671 8.90102 10.8532 8.78414 10.7202 8.59428C10.5873 8.40443 10.5507 8.16339 10.6213 7.94264L10.6213 7.94265ZM4.6783 8.68335C4.36755 8.46571 3.89717 7.60648 3.54153 6.82853C4.39379 6.89669 5.36164 7.04486 5.67281 7.2625V7.26271C5.91161 7.42387 6.08502 7.665 6.16182 7.94266C6.22682 8.16373 6.1908 8.40223 6.0634 8.59424L6.06317 8.59445L6.06298 8.59485C5.70149 8.99435 5.0877 9.03358 4.67829 8.68335H4.6783ZM4.6783 13.0187C4.36755 12.8011 3.89717 11.9419 3.54153 11.1639C4.39379 11.2321 5.36164 11.3803 5.67281 11.5979V11.5981C5.91161 11.7593 6.08502 12.0004 6.16182 12.2781C6.22682 12.4991 6.1908 12.7376 6.0634 12.9296L6.06317 12.9298L6.06298 12.9302C5.70134 13.3294 5.08781 13.3687 4.67829 13.0187H4.6783ZM4.6783 17.3541C4.36755 17.1365 3.89717 16.2773 3.54153 15.4993C4.39379 15.5675 5.36164 15.7157 5.67281 15.9333V15.9335C5.91161 16.0947 6.08502 16.3358 6.16182 16.6135C6.22682 16.8345 6.1908 17.073 6.0634 17.265L6.06317 17.2652L6.06298 17.2656C5.70139 17.6649 5.08777 17.7042 4.67829 17.3541H4.6783ZM20.7536 5.23916C20.7536 4.86003 21.1875 3.98194 21.6206 3.2442C22.0537 3.98152 22.4877 4.8596 22.4877 5.23916C22.54 5.77566 22.1555 6.25622 21.6206 6.32301C21.0858 6.25622 20.7013 5.77566 20.7536 5.23916ZM7.52467 5.23916C7.52467 4.86003 7.95864 3.98194 8.39175 3.2442C8.82485 3.98152 9.25883 4.8596 9.25883 5.23916C9.31107 5.77566 8.92663 6.25622 8.39175 6.32301C7.85686 6.25621 7.47242 5.77566 7.52467 5.23916ZM5.90186 20.1963H24.1105C24.5892 20.1968 24.9771 20.5847 24.9776 21.0634H5.03478C5.03533 20.5847 5.42321 20.1968 5.90186 20.1963ZM2.86708 21.9304H27.1453V22.7975H2.86708V21.9304ZM4.78075 27.1329L8.24907 23.6646H10.4913L7.02297 27.1329H4.78075ZM7.02297 23.6646L3.6805 27.0071L3.34634 23.6646H7.02297ZM26.3193 27.1329H8.24907L11.7174 23.6646H26.666L26.3193 27.1329Z" fill="#E09D64"/>
</svg>
