<svg width="30" height="30" viewBox="0 0 30 30" fill="none" xmlns="http://www.w3.org/2000/svg">
<path d="M28.9964 14.15C28.9964 14.0949 28.982 14.0398 28.9605 13.992C28.9569 13.981 28.9497 13.97 28.9425 13.9553C28.9318 13.9332 28.9174 13.9112 28.903 13.8928L21.9542 4.15796C21.8788 4.0551 21.7603 4 21.6346 4H17.2858C17.196 4 17.1098 4.02204 17.0416 4.07714C17.038 4.06612 17.0344 4.0551 17.0272 4.04408C16.9841 4.0698 16.941 4.10653 16.9123 4.15062L14.9946 6.84699L13.077 4.16164C13.0015 4.05878 12.883 4.00367 12.7573 4.00367H8.86815H8.4049H8.35103C8.22534 4.00367 8.10684 4.0551 8.03142 4.16164L1.079 13.9075C1.05387 13.9406 1.03591 13.9736 1.02155 14.0104C1.01077 14.0434 1.00359 14.0765 1 14.1132C1 14.1169 1.01436 14.1206 1.01436 14.1243C1.01436 14.1316 1.02514 14.139 1.02514 14.1463V26.5739C1.02514 26.798 1.17596 26.9963 1.39143 26.9963H5.74028C5.95934 26.9963 6.15685 26.798 6.15685 26.5739V14.2822L10.5739 8.08864L14.991 14.2822V26.5775C14.991 26.8016 15.1419 27 15.3609 27H19.7098C19.9288 27 20.1263 26.8016 20.1263 26.5775V14.1647C20.1263 14.161 20.1156 14.1537 20.1156 14.15C20.1156 14.0949 20.0976 14.0398 20.0796 13.992H20.0761C20.0725 13.981 20.0653 13.97 20.0581 13.959C20.0473 13.9369 20.033 13.9149 20.0186 13.8965L17.6592 10.5793L19.444 8.08864L23.8647 14.2822V26.5775C23.8647 26.8016 24.0263 27 24.2453 27H28.5942C28.8133 27 29 26.8016 29 26.5775V14.1647C29 14.161 28.9964 14.1537 28.9964 14.15ZM21.4335 4.81185L27.8149 13.7385H24.4429L18.0614 4.81185H21.4335ZM12.5562 4.81185L18.9377 13.7385H15.5656L9.18417 4.81185H12.5562ZM1.81519 26.1918V14.5467H5.3704V26.1918H1.81519ZM5.54277 13.7385H2.17071L8.37976 5.03594L10.064 7.39802L5.54277 13.7385ZM15.7847 26.1918V14.5467H19.3399V26.1918H15.7847ZM17.1672 9.89235L15.483 7.53027L17.2606 5.03961L18.9449 7.40537L17.1672 9.89235ZM24.6547 26.1918V14.5467H28.21V26.1918H24.6547Z" fill="#E09D64"/>
</svg>
