<svg width="30" height="30" viewBox="0 0 30 30" fill="none" xmlns="http://www.w3.org/2000/svg">
<path d="M28.9504 7.64139H28.2313C27.728 7.64139 27.5122 7.46741 27.0808 7.04985C26.8213 6.73768 26.4929 6.48579 26.1195 6.31272C25.7462 6.13965 25.3375 6.0498 24.9235 6.0498C24.5096 6.0498 24.1009 6.13965 23.7276 6.31272C23.3542 6.48579 23.0258 6.73768 22.7663 7.04985C22.3708 7.43261 22.1191 7.64139 21.6158 7.64139C21.1124 7.64139 20.8967 7.46741 20.4652 7.04985C20.2058 6.73768 19.8773 6.48579 19.504 6.31272C19.1306 6.13965 18.722 6.0498 18.308 6.0498C17.894 6.0498 17.4854 6.13965 17.112 6.31272C16.7387 6.48579 16.4102 6.73768 16.1508 7.04985C15.7553 7.43261 15.5036 7.64139 15.0002 7.64139C14.4969 7.64139 14.2811 7.46741 13.8497 7.04985C13.5902 6.73768 13.2618 6.48579 12.8884 6.31272C12.5151 6.13965 12.1064 6.0498 11.6925 6.0498C11.2785 6.0498 10.8698 6.13965 10.4965 6.31272C10.1231 6.48579 9.79465 6.73768 9.53521 7.04985C9.13971 7.43261 8.88804 7.64139 8.38468 7.64139C7.88132 7.64139 7.6656 7.46741 7.23415 7.04985C6.9747 6.73768 6.64622 6.48579 6.27288 6.31272C5.89955 6.13965 5.49086 6.0498 5.0769 6.0498C4.66295 6.0498 4.25426 6.13965 3.88092 6.31272C3.50759 6.48579 3.17911 6.73768 2.91966 7.04985C2.52417 7.43261 2.27249 7.64139 1.76913 7.64139H1.05005V9.03323H1.76913C2.18296 9.02729 2.59045 8.93391 2.96308 8.7596C3.33571 8.5853 3.66447 8.33429 3.92637 8.02414C4.32187 7.64139 4.57355 7.43261 5.0769 7.43261C5.58026 7.43261 5.79599 7.60659 6.22743 8.02414C6.48688 8.33632 6.81536 8.58821 7.1887 8.76128C7.56204 8.93435 7.97072 9.02419 8.38468 9.02419C8.79864 9.02419 9.20732 8.93435 9.58066 8.76128C9.95399 8.58821 10.2825 8.33632 10.5419 8.02414C10.9374 7.64139 11.1891 7.43261 11.6925 7.43261C12.1958 7.43261 12.4115 7.60659 12.843 8.02414C13.1024 8.33632 13.4309 8.58821 13.8042 8.76128C14.1776 8.93435 14.5863 9.02419 15.0002 9.02419C15.4142 9.02419 15.8229 8.93435 16.1962 8.76128C16.5695 8.58821 16.898 8.33632 17.1575 8.02414C17.553 7.64139 17.8046 7.43261 18.308 7.43261C18.8114 7.43261 19.0271 7.60659 19.4585 8.02414C19.718 8.33632 20.0465 8.58821 20.4198 8.76128C20.7931 8.93435 21.2018 9.02419 21.6158 9.02419C22.0297 9.02419 22.4384 8.93435 22.8118 8.76128C23.1851 8.58821 23.5136 8.33632 23.773 8.02414C24.1685 7.64139 24.4202 7.43261 24.9235 7.43261C25.4269 7.43261 25.6426 7.60659 26.0741 8.02414C26.336 8.33429 26.6647 8.5853 27.0374 8.7596C27.41 8.93391 27.8175 9.02729 28.2313 9.03323H28.9504V7.64139Z" fill="#E09D64"/>
<path fill-rule="evenodd" clip-rule="evenodd" d="M3.85971 6.26754C4.23966 6.0914 4.65551 6 5.07668 6C5.49784 6 5.9137 6.0914 6.29365 6.26754C6.67277 6.44329 7.00658 6.69898 7.27053 7.01594C7.48587 7.22429 7.64282 7.36699 7.80661 7.45876C7.96847 7.54946 8.13945 7.59158 8.38445 7.59158C8.62819 7.59158 8.8083 7.5413 8.97543 7.44591C9.14399 7.3497 9.30119 7.20672 9.49837 7.01595C9.76233 6.69898 10.0961 6.44329 10.4753 6.26754C10.8552 6.0914 11.2711 6 11.6922 6C12.1134 6 12.5292 6.0914 12.9092 6.26754C13.2883 6.44329 13.6221 6.69897 13.8861 7.01594C14.1014 7.22429 14.2584 7.36699 14.4222 7.45876C14.584 7.54946 14.755 7.59158 15 7.59158C15.2437 7.59158 15.4238 7.5413 15.591 7.44591C15.7595 7.3497 15.9167 7.20672 16.1139 7.01595C16.3779 6.69898 16.7117 6.44329 17.0908 6.26754C17.4708 6.0914 17.8866 6 18.3078 6C18.7289 6 19.1448 6.0914 19.5247 6.26754C19.9039 6.44329 20.2377 6.69898 20.5016 7.01595C20.717 7.22429 20.8739 7.36699 21.0377 7.45876C21.1996 7.54946 21.3705 7.59158 21.6155 7.59158C21.8593 7.59158 22.0394 7.5413 22.2065 7.44591C22.3751 7.3497 22.5323 7.20672 22.7295 7.01595C22.9934 6.69898 23.3272 6.44329 23.7064 6.26754C24.0863 6.0914 24.5022 6 24.9233 6C25.3445 6 25.7603 6.0914 26.1403 6.26754C26.5194 6.44329 26.8532 6.69897 27.1172 7.01594C27.3325 7.22428 27.4895 7.36699 27.6533 7.45876C27.8151 7.54946 27.9861 7.59158 28.2311 7.59158H29V9.08287H28.2311C27.8102 9.07684 27.3951 8.98186 27.016 8.80455C26.6377 8.62759 26.3037 8.37286 26.0374 8.05803C25.822 7.84961 25.665 7.70687 25.5012 7.61507C25.3393 7.52438 25.1683 7.48225 24.9233 7.48225C24.6796 7.48225 24.4995 7.53253 24.3323 7.62793C24.1638 7.72413 24.0066 7.86713 23.8094 8.0579C23.5454 8.37487 23.2116 8.63055 22.8325 8.8063C22.4526 8.98243 22.0367 9.07384 21.6155 9.07384C21.1944 9.07384 20.7785 8.98243 20.3986 8.8063C20.0195 8.63054 19.6856 8.37486 19.4217 8.05789C19.2064 7.84955 19.0494 7.70685 18.8856 7.61507C18.7238 7.52438 18.5528 7.48225 18.3078 7.48225C18.064 7.48225 17.8839 7.53253 17.7168 7.62793C17.5482 7.72413 17.391 7.86712 17.1939 8.05789C16.9299 8.37486 16.5961 8.63054 16.217 8.8063C15.837 8.98243 15.4212 9.07384 15 9.07384C14.5788 9.07384 14.163 8.98243 13.783 8.8063C13.4039 8.63055 13.0701 8.37486 12.8061 8.0579C12.5908 7.84955 12.4339 7.70685 12.2701 7.61507C12.1082 7.52438 11.9372 7.48225 11.6922 7.48225C11.4485 7.48225 11.2684 7.53253 11.1012 7.62793C10.9327 7.72413 10.7755 7.86712 10.5783 8.0579C10.3143 8.37486 9.98054 8.63055 9.60142 8.8063C9.22147 8.98243 8.80562 9.07384 8.38445 9.07384C7.96329 9.07384 7.54743 8.98243 7.16748 8.8063C6.78836 8.63054 6.45456 8.37486 6.1906 8.05789C5.97526 7.84955 5.81831 7.70685 5.65452 7.61507C5.49266 7.52438 5.32168 7.48225 5.07668 7.48225C4.83295 7.48225 4.65283 7.53253 4.4857 7.62793C4.3171 7.72416 4.15987 7.86719 3.96262 8.05803C3.69628 8.37286 3.36229 8.62759 2.98399 8.80455C2.60493 8.98186 2.19047 9.07683 1.76962 9.08287L1 9.08287V7.59158H1.7689C2.01264 7.59158 2.19275 7.5413 2.35988 7.44591C2.52845 7.3497 2.68564 7.20672 2.88282 7.01594C3.14678 6.69898 3.48059 6.44329 3.85971 6.26754ZM5.07668 6.09945C4.66993 6.09945 4.26841 6.18773 3.90169 6.35773C3.53497 6.52773 3.21244 6.7751 2.95778 7.08152L2.95432 7.08568C2.75691 7.27673 2.59079 7.42868 2.40935 7.53224C2.22593 7.63692 2.02853 7.69103 1.7689 7.69103H1.09964V8.98343H1.76855C2.17523 8.97754 2.57562 8.88574 2.9417 8.7145C3.30789 8.54321 3.63086 8.2966 3.88805 7.99202L3.89129 7.98819C4.0887 7.79714 4.25479 7.64516 4.43623 7.5416C4.61965 7.43691 4.81705 7.38281 5.07668 7.38281C5.33504 7.38281 5.5236 7.42767 5.7033 7.52836C5.88058 7.62769 6.04677 7.78017 6.26189 7.98837L6.26578 7.99213C6.52044 8.29855 6.84274 8.5461 7.20946 8.7161C7.57618 8.88611 7.9777 8.97439 8.38445 8.97439C8.7912 8.97439 9.19272 8.88611 9.55944 8.7161C9.92616 8.5461 10.2487 8.29874 10.5033 7.99232L10.5068 7.98816C10.7042 7.79711 10.8703 7.64516 11.0518 7.5416C11.2352 7.43691 11.4326 7.38281 11.6922 7.38281C11.9506 7.38281 12.1391 7.42767 12.3188 7.52836C12.4961 7.62769 12.6623 7.78017 12.8774 7.98837L12.8813 7.99213C13.136 8.29855 13.4583 8.5461 13.825 8.7161C14.1917 8.88611 14.5933 8.97439 15 8.97439C15.4067 8.97439 15.8083 8.88611 16.175 8.7161C16.5417 8.5461 16.8642 8.29874 17.1189 7.99232L17.1224 7.98816C17.3198 7.79711 17.4859 7.64516 17.6673 7.5416C17.8507 7.43691 18.0482 7.38281 18.3078 7.38281C18.5661 7.38281 18.7547 7.42767 18.9344 7.52836C19.1117 7.62769 19.2779 7.78017 19.493 7.98837L19.4969 7.99213C19.7515 8.29855 20.0738 8.5461 20.4406 8.7161C20.8073 8.88611 21.2088 8.97439 21.6155 8.97439C22.0223 8.97439 22.4238 8.88611 22.7905 8.7161C23.1573 8.5461 23.4798 8.29874 23.7344 7.99232L23.7379 7.98816C23.9353 7.79711 24.1014 7.64516 24.2829 7.5416C24.4663 7.43691 24.6637 7.38281 24.9233 7.38281C25.1817 7.38281 25.3702 7.42767 25.5499 7.52836C25.7272 7.62769 25.8934 7.78017 26.1085 7.98837L26.1121 7.99186C26.3693 8.29643 26.6921 8.54321 27.0583 8.7145C27.4244 8.88574 27.8248 8.97754 28.2315 8.98343H28.9004V7.69103H28.2311C27.9727 7.69103 27.7842 7.64617 27.6045 7.54548C27.4272 7.44615 27.261 7.29367 27.0459 7.08547L27.042 7.08171C26.7873 6.77529 26.465 6.52773 26.0983 6.35773C25.7316 6.18773 25.3301 6.09945 24.9233 6.09945C24.5166 6.09945 24.1151 6.18773 23.7483 6.35773C23.3816 6.52773 23.0591 6.7751 22.8044 7.08152L22.801 7.08568C22.6036 7.27673 22.4374 7.42868 22.256 7.53224C22.0726 7.63692 21.8752 7.69103 21.6155 7.69103C21.3572 7.69103 21.1686 7.64617 20.9889 7.54548C20.8116 7.44615 20.6455 7.29367 20.4303 7.08547L20.4264 7.08171C20.1718 6.77529 19.8495 6.52773 19.4828 6.35773C19.116 6.18773 18.7145 6.09945 18.3078 6.09945C17.901 6.09945 17.4995 6.18773 17.1328 6.35773C16.7661 6.52773 16.4435 6.7751 16.1889 7.08152L16.1854 7.08568C15.988 7.27673 15.8219 7.42868 15.6404 7.53224C15.457 7.63692 15.2596 7.69103 15 7.69103C14.7416 7.69103 14.5531 7.64617 14.3734 7.54548C14.1961 7.44615 14.0299 7.29367 13.8148 7.08547L13.8109 7.08171C13.5562 6.77529 13.2339 6.52773 12.8672 6.35773C12.5005 6.18773 12.099 6.09945 11.6922 6.09945C11.2855 6.09945 10.884 6.18773 10.5172 6.35773C10.1505 6.52773 9.82799 6.7751 9.57333 7.08152L9.56987 7.08568C9.37246 7.27673 9.20634 7.42868 9.0249 7.53224C8.84148 7.63692 8.64408 7.69103 8.38445 7.69103C8.12609 7.69103 7.93753 7.64617 7.75783 7.54548C7.58055 7.44615 7.41436 7.29367 7.19924 7.08547L7.19535 7.08171C6.94069 6.77529 6.61839 6.52773 6.25167 6.35773C5.88495 6.18773 5.48343 6.09945 5.07668 6.09945Z" fill="#181818"/>
<path d="M28.9502 15.597H28.2311C27.7277 15.597 27.512 15.423 27.0805 15.0054C26.8211 14.6932 26.4926 14.4414 26.1193 14.2683C25.7459 14.0952 25.3373 14.0054 24.9233 14.0054C24.5093 14.0054 24.1007 14.0952 23.7273 14.2683C23.354 14.4414 23.0255 14.6932 22.7661 15.0054C22.3706 15.3882 22.1189 15.597 21.6155 15.597C21.1122 15.597 20.8965 15.423 20.465 15.0054C20.2056 14.6932 19.8771 14.4414 19.5037 14.2683C19.1304 14.0952 18.7217 14.0054 18.3078 14.0054C17.8938 14.0054 17.4851 14.0952 17.1118 14.2683C16.7384 14.4414 16.41 14.6932 16.1505 15.0054C15.755 15.3882 15.5033 15.597 15 15.597C14.4966 15.597 14.2809 15.423 13.8495 15.0054C13.59 14.6932 13.2615 14.4414 12.8882 14.2683C12.5149 14.0952 12.1062 14.0054 11.6922 14.0054C11.2783 14.0054 10.8696 14.0952 10.4962 14.2683C10.1229 14.4414 9.79441 14.6932 9.53496 15.0054C9.13947 15.3882 8.88779 15.597 8.38443 15.597C7.88108 15.597 7.66535 15.423 7.2339 15.0054C6.97446 14.6932 6.64598 14.4414 6.27264 14.2683C5.8993 14.0952 5.49062 14.0054 5.07666 14.0054C4.6627 14.0054 4.25402 14.0952 3.88068 14.2683C3.50734 14.4414 3.17886 14.6932 2.91942 15.0054C2.52392 15.3882 2.27224 15.597 1.76889 15.597H1.0498V16.9888H1.76889C2.18271 16.9829 2.5902 16.8895 2.96283 16.7152C3.33546 16.5409 3.66423 16.2899 3.92613 15.9797C4.32162 15.597 4.5733 15.3882 5.07666 15.3882C5.58002 15.3882 5.79574 15.5622 6.22719 15.9797C6.48664 16.2919 6.81512 16.5438 7.18845 16.7168C7.56179 16.8899 7.97048 16.9798 8.38443 16.9798C8.79839 16.9798 9.20708 16.8899 9.58041 16.7168C9.95375 16.5438 10.2822 16.2919 10.5417 15.9797C10.9372 15.597 11.1889 15.3882 11.6922 15.3882C12.1956 15.3882 12.4113 15.5622 12.8427 15.9797C13.1022 16.2919 13.4307 16.5438 13.804 16.7168C14.1773 16.8899 14.586 16.9798 15 16.9798C15.4139 16.9798 15.8226 16.8899 16.196 16.7168C16.5693 16.5438 16.8978 16.2919 17.1572 15.9797C17.5527 15.597 17.8044 15.3882 18.3078 15.3882C18.8111 15.3882 19.0268 15.5622 19.4583 15.9797C19.7177 16.2919 20.0462 16.5438 20.4196 16.7168C20.7929 16.8899 21.2016 16.9798 21.6155 16.9798C22.0295 16.9798 22.4382 16.8899 22.8115 16.7168C23.1848 16.5438 23.5133 16.2919 23.7728 15.9797C24.1683 15.597 24.4199 15.3882 24.9233 15.3882C25.4267 15.3882 25.6424 15.5622 26.0738 15.9797C26.3357 16.2899 26.6645 16.5409 27.0371 16.7152C27.4098 16.8895 27.8173 16.9829 28.2311 16.9888H28.9502V15.597Z" fill="#E09D64"/>
<path fill-rule="evenodd" clip-rule="evenodd" d="M3.85971 14.2231C4.23966 14.047 4.65551 13.9556 5.07668 13.9556C5.49784 13.9556 5.9137 14.047 6.29365 14.2231C6.67277 14.3989 7.00658 14.6545 7.27053 14.9715C7.48587 15.1799 7.64282 15.3226 7.80661 15.4143C7.96847 15.505 8.13945 15.5471 8.38445 15.5471C8.62818 15.5471 8.8083 15.4969 8.97543 15.4015C9.14399 15.3053 9.30119 15.1623 9.49837 14.9715C9.76233 14.6545 10.0961 14.3989 10.4753 14.2231C10.8552 14.047 11.2711 13.9556 11.6922 13.9556C12.1134 13.9556 12.5292 14.047 12.9092 14.2231C13.2883 14.3989 13.6221 14.6545 13.8861 14.9715C14.1014 15.1799 14.2584 15.3226 14.4222 15.4143C14.584 15.505 14.755 15.5471 15 15.5471C15.2437 15.5471 15.4238 15.4969 15.591 15.4015C15.7595 15.3053 15.9167 15.1623 16.1139 14.9715C16.3779 14.6545 16.7117 14.3989 17.0908 14.2231C17.4708 14.047 17.8866 13.9556 18.3078 13.9556C18.7289 13.9556 19.1448 14.047 19.5247 14.2231C19.9039 14.3989 20.2377 14.6545 20.5016 14.9715C20.717 15.1799 20.8739 15.3226 21.0377 15.4143C21.1996 15.505 21.3705 15.5471 21.6155 15.5471C21.8593 15.5471 22.0394 15.4969 22.2065 15.4015C22.3751 15.3053 22.5323 15.1623 22.7295 14.9715C22.9934 14.6545 23.3272 14.3989 23.7064 14.2231C24.0863 14.047 24.5022 13.9556 24.9233 13.9556C25.3445 13.9556 25.7603 14.047 26.1403 14.2231C26.5194 14.3989 26.8532 14.6545 27.1172 14.9715C27.3325 15.1798 27.4895 15.3226 27.6533 15.4143C27.8151 15.505 27.9861 15.5471 28.2311 15.5471H29V17.0384H28.2311C27.8102 17.0324 27.3951 16.9374 27.016 16.7601C26.6377 16.5832 26.3037 16.3284 26.0374 16.0136C25.822 15.8052 25.665 15.6624 25.5012 15.5706C25.3393 15.4799 25.1683 15.4378 24.9233 15.4378C24.6796 15.4378 24.4995 15.4881 24.3323 15.5835C24.1638 15.6797 24.0066 15.8227 23.8094 16.0135C23.5454 16.3304 23.2116 16.5861 22.8325 16.7619C22.4526 16.938 22.0367 17.0294 21.6155 17.0294C21.1944 17.0294 20.7785 16.938 20.3986 16.7619C20.0195 16.5861 19.6856 16.3304 19.4217 16.0135C19.2064 15.8051 19.0494 15.6624 18.8856 15.5706C18.7238 15.4799 18.5528 15.4378 18.3078 15.4378C18.064 15.4378 17.8839 15.4881 17.7168 15.5835C17.5482 15.6797 17.391 15.8227 17.1939 16.0135C16.9299 16.3304 16.5961 16.5861 16.217 16.7619C15.837 16.938 15.4212 17.0294 15 17.0294C14.5788 17.0294 14.163 16.938 13.783 16.7619C13.4039 16.5861 13.0701 16.3304 12.8061 16.0135C12.5908 15.8051 12.4339 15.6624 12.2701 15.5706C12.1082 15.4799 11.9372 15.4378 11.6922 15.4378C11.4485 15.4378 11.2684 15.4881 11.1012 15.5835C10.9327 15.6797 10.7755 15.8227 10.5783 16.0135C10.3143 16.3304 9.98054 16.5861 9.60142 16.7619C9.22147 16.938 8.80562 17.0294 8.38445 17.0294C7.96329 17.0294 7.54743 16.938 7.16748 16.7619C6.78836 16.5861 6.45456 16.3304 6.1906 16.0135C5.97526 15.8051 5.81831 15.6624 5.65452 15.5706C5.49266 15.4799 5.32168 15.4378 5.07668 15.4378C4.83295 15.4378 4.65283 15.4881 4.4857 15.5835C4.3171 15.6797 4.15987 15.8228 3.96262 16.0136C3.69628 16.3284 3.36229 16.5832 2.98399 16.7601C2.60493 16.9374 2.19047 17.0324 1.76962 17.0384L1 17.0384V15.5471H1.7689C2.01264 15.5471 2.19275 15.4969 2.35988 15.4015C2.52845 15.3053 2.68564 15.1623 2.88282 14.9715C3.14678 14.6545 3.48059 14.3989 3.85971 14.2231ZM5.07668 14.055C4.66993 14.055 4.26841 14.1433 3.90169 14.3133C3.53497 14.4833 3.21244 14.7307 2.95778 15.0371L2.95432 15.0412C2.75691 15.2323 2.59079 15.3842 2.40935 15.4878C2.22593 15.5925 2.02853 15.6466 1.7689 15.6466H1.09964V16.939H1.76855C2.17523 16.9331 2.57562 16.8413 2.9417 16.6701C3.30789 16.4988 3.63086 16.2522 3.88805 15.9476L3.89129 15.9438C4.0887 15.7527 4.25479 15.6007 4.43623 15.4972C4.61965 15.3925 4.81705 15.3384 5.07668 15.3384C5.33504 15.3384 5.5236 15.3832 5.7033 15.4839C5.88058 15.5833 6.04677 15.7357 6.26189 15.9439L6.26578 15.9477C6.52044 16.2541 6.84274 16.5017 7.20946 16.6717C7.57618 16.8417 7.9777 16.93 8.38445 16.93C8.7912 16.93 9.19272 16.8417 9.55944 16.6717C9.92616 16.5017 10.2487 16.2543 10.5033 15.9479L10.5068 15.9437C10.7042 15.7527 10.8703 15.6007 11.0518 15.4972C11.2352 15.3925 11.4326 15.3384 11.6922 15.3384C11.9506 15.3384 12.1391 15.3832 12.3188 15.4839C12.4961 15.5833 12.6623 15.7357 12.8774 15.9439L12.8813 15.9477C13.136 16.2541 13.4583 16.5017 13.825 16.6717C14.1917 16.8417 14.5933 16.93 15 16.93C15.4067 16.93 15.8083 16.8417 16.175 16.6717C16.5417 16.5017 16.8642 16.2543 17.1189 15.9479L17.1224 15.9437C17.3198 15.7527 17.4859 15.6007 17.6673 15.4972C17.8507 15.3925 18.0482 15.3384 18.3078 15.3384C18.5661 15.3384 18.7547 15.3832 18.9344 15.4839C19.1117 15.5833 19.2779 15.7357 19.493 15.9439L19.4969 15.9477C19.7515 16.2541 20.0738 16.5017 20.4406 16.6717C20.8073 16.8417 21.2088 16.93 21.6155 16.93C22.0223 16.93 22.4238 16.8417 22.7905 16.6717C23.1573 16.5017 23.4798 16.2543 23.7344 15.9479L23.7379 15.9437C23.9353 15.7527 24.1014 15.6007 24.2829 15.4972C24.4663 15.3925 24.6637 15.3384 24.9233 15.3384C25.1817 15.3384 25.3702 15.3832 25.5499 15.4839C25.7272 15.5833 25.8934 15.7357 26.1085 15.9439L26.1121 15.9474C26.3693 16.252 26.6921 16.4988 27.0583 16.6701C27.4244 16.8413 27.8248 16.9331 28.2315 16.939H28.9004V15.6466H28.2311C27.9727 15.6466 27.7842 15.6017 27.6045 15.501C27.4272 15.4017 27.261 15.2492 27.0459 15.041L27.042 15.0373C26.7873 14.7309 26.465 14.4833 26.0983 14.3133C25.7316 14.1433 25.3301 14.055 24.9233 14.055C24.5166 14.055 24.1151 14.1433 23.7483 14.3133C23.3816 14.4833 23.0591 14.7307 22.8044 15.0371L22.801 15.0412C22.6036 15.2323 22.4374 15.3842 22.256 15.4878C22.0726 15.5925 21.8752 15.6466 21.6155 15.6466C21.3572 15.6466 21.1686 15.6017 20.9889 15.501C20.8116 15.4017 20.6455 15.2492 20.4303 15.041L20.4264 15.0373C20.1718 14.7309 19.8495 14.4833 19.4828 14.3133C19.116 14.1433 18.7145 14.055 18.3078 14.055C17.901 14.055 17.4995 14.1433 17.1328 14.3133C16.7661 14.4833 16.4435 14.7307 16.1889 15.0371L16.1854 15.0412C15.988 15.2323 15.8219 15.3842 15.6404 15.4878C15.457 15.5925 15.2596 15.6466 15 15.6466C14.7416 15.6466 14.5531 15.6017 14.3734 15.501C14.1961 15.4017 14.0299 15.2492 13.8148 15.041L13.8109 15.0373C13.5562 14.7309 13.2339 14.4833 12.8672 14.3133C12.5005 14.1433 12.099 14.055 11.6922 14.055C11.2855 14.055 10.884 14.1433 10.5172 14.3133C10.1505 14.4833 9.82799 14.7307 9.57333 15.0371L9.56987 15.0412C9.37246 15.2323 9.20634 15.3842 9.0249 15.4878C8.84148 15.5925 8.64408 15.6466 8.38445 15.6466C8.12609 15.6466 7.93753 15.6017 7.75783 15.501C7.58055 15.4017 7.41436 15.2492 7.19924 15.041L7.19535 15.0373C6.94069 14.7309 6.61839 14.4833 6.25167 14.3133C5.88495 14.1433 5.48343 14.055 5.07668 14.055Z" fill="#181818"/>
<path d="M28.9502 22.5584H28.2311C27.7277 22.5584 27.512 22.3844 27.0805 21.9668C26.8211 21.6547 26.4926 21.4028 26.1193 21.2297C25.7459 21.0566 25.3373 20.9668 24.9233 20.9668C24.5093 20.9668 24.1007 21.0566 23.7273 21.2297C23.354 21.4028 23.0255 21.6547 22.7661 21.9668C22.3706 22.3496 22.1189 22.5584 21.6155 22.5584C21.1122 22.5584 20.8965 22.3844 20.465 21.9668C20.2056 21.6547 19.8771 21.4028 19.5037 21.2297C19.1304 21.0566 18.7217 20.9668 18.3078 20.9668C17.8938 20.9668 17.4851 21.0566 17.1118 21.2297C16.7384 21.4028 16.41 21.6547 16.1505 21.9668C15.755 22.3496 15.5033 22.5584 15 22.5584C14.4966 22.5584 14.2809 22.3844 13.8495 21.9668C13.59 21.6547 13.2615 21.4028 12.8882 21.2297C12.5149 21.0566 12.1062 20.9668 11.6922 20.9668C11.2783 20.9668 10.8696 21.0566 10.4962 21.2297C10.1229 21.4028 9.79441 21.6547 9.53496 21.9668C9.13947 22.3496 8.88779 22.5584 8.38443 22.5584C7.88108 22.5584 7.66535 22.3844 7.2339 21.9668C6.97446 21.6547 6.64598 21.4028 6.27264 21.2297C5.8993 21.0566 5.49062 20.9668 5.07666 20.9668C4.6627 20.9668 4.25402 21.0566 3.88068 21.2297C3.50734 21.4028 3.17886 21.6547 2.91942 21.9668C2.52392 22.3496 2.27224 22.5584 1.76889 22.5584H1.0498V23.9502H1.76889C2.18271 23.9443 2.5902 23.8509 2.96283 23.6766C3.33546 23.5023 3.66423 23.2513 3.92613 22.9411C4.32162 22.5584 4.5733 22.3496 5.07666 22.3496C5.58002 22.3496 5.79574 22.5236 6.22719 22.9411C6.48664 23.2533 6.81512 23.5052 7.18845 23.6783C7.56179 23.8513 7.97048 23.9412 8.38443 23.9412C8.79839 23.9412 9.20708 23.8513 9.58041 23.6783C9.95375 23.5052 10.2822 23.2533 10.5417 22.9411C10.9372 22.5584 11.1889 22.3496 11.6922 22.3496C12.1956 22.3496 12.4113 22.5236 12.8427 22.9411C13.1022 23.2533 13.4307 23.5052 13.804 23.6783C14.1773 23.8513 14.586 23.9412 15 23.9412C15.4139 23.9412 15.8226 23.8513 16.196 23.6783C16.5693 23.5052 16.8978 23.2533 17.1572 22.9411C17.5527 22.5584 17.8044 22.3496 18.3078 22.3496C18.8111 22.3496 19.0268 22.5236 19.4583 22.9411C19.7177 23.2533 20.0462 23.5052 20.4196 23.6783C20.7929 23.8513 21.2016 23.9412 21.6155 23.9412C22.0295 23.9412 22.4382 23.8513 22.8115 23.6783C23.1848 23.5052 23.5133 23.2533 23.7728 22.9411C24.1683 22.5584 24.4199 22.3496 24.9233 22.3496C25.4267 22.3496 25.6424 22.5236 26.0738 22.9411C26.3357 23.2513 26.6645 23.5023 27.0371 23.6766C27.4098 23.8509 27.8173 23.9443 28.2311 23.9502H28.9502V22.5584Z" fill="#E09D64"/>
<path fill-rule="evenodd" clip-rule="evenodd" d="M3.85971 21.1845C4.23966 21.0084 4.65551 20.917 5.07668 20.917C5.49784 20.917 5.9137 21.0084 6.29365 21.1845C6.67277 21.3603 7.00658 21.616 7.27053 21.9329C7.48587 22.1413 7.64282 22.284 7.80661 22.3758C7.96847 22.4664 8.13945 22.5086 8.38445 22.5086C8.62818 22.5086 8.8083 22.4583 8.97543 22.3629C9.14399 22.2667 9.30119 22.1237 9.49837 21.9329C9.76233 21.616 10.0961 21.3603 10.4753 21.1845C10.8552 21.0084 11.2711 20.917 11.6922 20.917C12.1134 20.917 12.5292 21.0084 12.9092 21.1845C13.2883 21.3603 13.6221 21.616 13.8861 21.9329C14.1014 22.1413 14.2584 22.284 14.4222 22.3758C14.584 22.4664 14.755 22.5086 15 22.5086C15.2437 22.5086 15.4238 22.4583 15.591 22.3629C15.7595 22.2667 15.9167 22.1237 16.1139 21.9329C16.3779 21.616 16.7117 21.3603 17.0908 21.1845C17.4708 21.0084 17.8866 20.917 18.3078 20.917C18.7289 20.917 19.1448 21.0084 19.5247 21.1845C19.9039 21.3603 20.2377 21.616 20.5016 21.9329C20.717 22.1413 20.8739 22.284 21.0377 22.3758C21.1996 22.4664 21.3705 22.5086 21.6155 22.5086C21.8593 22.5086 22.0394 22.4583 22.2065 22.3629C22.3751 22.2667 22.5323 22.1237 22.7295 21.9329C22.9934 21.616 23.3272 21.3603 23.7064 21.1845C24.0863 21.0084 24.5022 20.917 24.9233 20.917C25.3445 20.917 25.7603 21.0084 26.1403 21.1845C26.5194 21.3603 26.8532 21.616 27.1172 21.9329C27.3325 22.1413 27.4895 22.284 27.6533 22.3758C27.8151 22.4664 27.9861 22.5086 28.2311 22.5086H29V23.9999H28.2311C27.8102 23.9938 27.3951 23.8989 27.016 23.7215C26.6377 23.5446 26.3037 23.2899 26.0374 22.975C25.822 22.7666 25.665 22.6239 25.5012 22.5321C25.3393 22.4414 25.1683 22.3992 24.9233 22.3992C24.6796 22.3992 24.4995 22.4495 24.3323 22.5449C24.1638 22.6411 24.0066 22.7841 23.8094 22.9749C23.5454 23.2919 23.2116 23.5475 22.8325 23.7233C22.4526 23.8994 22.0367 23.9908 21.6155 23.9908C21.1944 23.9908 20.7785 23.8994 20.3986 23.7233C20.0195 23.5475 19.6856 23.2919 19.4217 22.9749C19.2064 22.7665 19.0494 22.6238 18.8856 22.5321C18.7238 22.4414 18.5528 22.3992 18.3078 22.3992C18.064 22.3992 17.8839 22.4495 17.7168 22.5449C17.5482 22.6411 17.391 22.7841 17.1939 22.9749C16.9299 23.2919 16.5961 23.5475 16.217 23.7233C15.837 23.8994 15.4212 23.9908 15 23.9908C14.5788 23.9908 14.163 23.8994 13.783 23.7233C13.4039 23.5475 13.0701 23.2919 12.8061 22.9749C12.5908 22.7665 12.4339 22.6238 12.2701 22.5321C12.1082 22.4414 11.9372 22.3992 11.6922 22.3992C11.4485 22.3992 11.2684 22.4495 11.1012 22.5449C10.9327 22.6411 10.7755 22.7841 10.5783 22.9749C10.3143 23.2919 9.98054 23.5475 9.60142 23.7233C9.22147 23.8994 8.80562 23.9908 8.38445 23.9908C7.96329 23.9908 7.54743 23.8994 7.16748 23.7233C6.78836 23.5475 6.45456 23.2919 6.19059 22.9749C5.97526 22.7665 5.81831 22.6238 5.65452 22.5321C5.49266 22.4414 5.32168 22.3992 5.07668 22.3992C4.83295 22.3992 4.65283 22.4495 4.4857 22.5449C4.3171 22.6411 4.15987 22.7842 3.96262 22.975C3.69628 23.2899 3.36229 23.5446 2.98399 23.7215C2.60493 23.8989 2.19047 23.9938 1.76962 23.9999L1 23.9999V22.5086H1.7689C2.01264 22.5086 2.19275 22.4583 2.35988 22.3629C2.52845 22.2667 2.68564 22.1237 2.88282 21.9329C3.14678 21.616 3.48059 21.3603 3.85971 21.1845ZM5.07668 21.0164C4.66993 21.0164 4.26841 21.1047 3.90169 21.2747C3.53497 21.4447 3.21244 21.6921 2.95778 21.9985L2.95432 22.0027C2.75691 22.1937 2.59079 22.3457 2.40935 22.4492C2.22593 22.5539 2.02853 22.608 1.7689 22.608H1.09964V23.9004H1.76855C2.17523 23.8945 2.57562 23.8027 2.9417 23.6315C3.30789 23.4602 3.63086 23.2136 3.88805 22.909L3.89129 22.9052C4.0887 22.7141 4.25479 22.5621 4.43623 22.4586C4.61965 22.3539 4.81705 22.2998 5.07668 22.2998C5.33504 22.2998 5.5236 22.3447 5.7033 22.4453C5.88058 22.5447 6.04677 22.6972 6.26189 22.9054L6.26578 22.9091C6.52044 23.2155 6.84274 23.4631 7.20946 23.6331C7.57618 23.8031 7.9777 23.8914 8.38445 23.8914C8.7912 23.8914 9.19272 23.8031 9.55944 23.6331C9.92616 23.4631 10.2487 23.2157 10.5033 22.9093L10.5068 22.9051C10.7042 22.7141 10.8703 22.5621 11.0518 22.4586C11.2352 22.3539 11.4326 22.2998 11.6922 22.2998C11.9506 22.2998 12.1391 22.3447 12.3188 22.4453C12.4961 22.5447 12.6623 22.6972 12.8774 22.9054L12.8813 22.9091C13.136 23.2155 13.4583 23.4631 13.825 23.6331C14.1917 23.8031 14.5933 23.8914 15 23.8914C15.4067 23.8914 15.8083 23.8031 16.175 23.6331C16.5417 23.4631 16.8642 23.2157 17.1189 22.9093L17.1224 22.9051C17.3198 22.7141 17.4859 22.5621 17.6673 22.4586C17.8507 22.3539 18.0482 22.2998 18.3078 22.2998C18.5661 22.2998 18.7547 22.3447 18.9344 22.4453C19.1117 22.5447 19.2779 22.6972 19.493 22.9054L19.4969 22.9091C19.7515 23.2155 20.0738 23.4631 20.4406 23.6331C20.8073 23.8031 21.2088 23.8914 21.6155 23.8914C22.0223 23.8914 22.4238 23.8031 22.7905 23.6331C23.1573 23.4631 23.4798 23.2157 23.7344 22.9093L23.7379 22.9051C23.9353 22.7141 24.1014 22.5621 24.2829 22.4586C24.4663 22.3539 24.6637 22.2998 24.9233 22.2998C25.1817 22.2998 25.3702 22.3447 25.5499 22.4453C25.7272 22.5447 25.8934 22.6972 26.1085 22.9054L26.1121 22.9088C26.3693 23.2134 26.6921 23.4602 27.0583 23.6315C27.4244 23.8027 27.8248 23.8945 28.2315 23.9004H28.9004V22.608H28.2311C27.9727 22.608 27.7842 22.5632 27.6045 22.4625C27.4272 22.3631 27.261 22.2107 27.0459 22.0025L27.042 21.9987C26.7873 21.6923 26.465 21.4447 26.0983 21.2747C25.7316 21.1047 25.3301 21.0164 24.9233 21.0164C24.5166 21.0164 24.1151 21.1047 23.7483 21.2747C23.3816 21.4447 23.0591 21.6921 22.8044 21.9985L22.801 22.0027C22.6036 22.1937 22.4374 22.3457 22.256 22.4492C22.0726 22.5539 21.8752 22.608 21.6155 22.608C21.3572 22.608 21.1686 22.5632 20.9889 22.4625C20.8116 22.3631 20.6455 22.2107 20.4303 22.0025L20.4264 21.9987C20.1718 21.6923 19.8495 21.4447 19.4828 21.2747C19.116 21.1047 18.7145 21.0164 18.3078 21.0164C17.901 21.0164 17.4995 21.1047 17.1328 21.2747C16.7661 21.4447 16.4435 21.6921 16.1889 21.9985L16.1854 22.0027C15.988 22.1937 15.8219 22.3457 15.6404 22.4492C15.457 22.5539 15.2596 22.608 15 22.608C14.7416 22.608 14.5531 22.5632 14.3734 22.4625C14.1961 22.3631 14.0299 22.2107 13.8148 22.0025L13.8109 21.9987C13.5562 21.6923 13.2339 21.4447 12.8672 21.2747C12.5005 21.1047 12.099 21.0164 11.6922 21.0164C11.2855 21.0164 10.884 21.1047 10.5172 21.2747C10.1505 21.4447 9.82799 21.6921 9.57333 21.9985L9.56987 22.0027C9.37246 22.1937 9.20634 22.3457 9.0249 22.4492C8.84148 22.5539 8.64408 22.608 8.38445 22.608C8.12609 22.608 7.93753 22.5632 7.75783 22.4625C7.58055 22.3631 7.41436 22.2107 7.19924 22.0025L7.19535 21.9987C6.94069 21.6923 6.61839 21.4447 6.25167 21.2747C5.88495 21.1047 5.48343 21.0164 5.07668 21.0164Z" fill="#181818"/>
</svg>
