<svg width="30" height="30" viewBox="0 0 30 30" fill="none" xmlns="http://www.w3.org/2000/svg">
<path d="M28.1192 5.1228V1.07265C28.1192 0.659374 27.7923 0.246094 27.3018 0.246094C26.8931 0.246094 26.4844 0.659374 26.4844 1.07265V4.95749H25.0131V1.07265C25.0131 0.659374 24.6862 0.246094 24.1957 0.246094C23.7053 0.246094 23.3783 0.659374 23.3783 1.07265V5.1228C22.4792 5.45342 21.8253 6.36264 21.8253 7.43717C21.8253 8.5117 22.4792 9.33826 23.3783 9.75154V13.0578H17.4113C17.0026 12.1486 16.1852 11.57 15.1226 11.57C14.1417 11.57 13.2425 12.2312 12.8338 13.0578H5.80418C3.5972 13.0578 1.88065 14.8762 1.88065 17.1906V21.0754C0.981511 21.406 0.24585 22.3152 0.24585 23.3898C0.24585 24.4643 0.899771 25.3735 1.88065 25.7041V28.9277C1.88065 29.4237 2.28935 29.7543 2.69805 29.7543C3.1885 29.7543 3.51546 29.4237 3.51546 28.9277V25.7868H4.98678V28.9277C4.98678 29.4237 5.31374 29.7543 5.80418 29.7543C6.21288 29.7543 6.62158 29.4237 6.62158 28.9277V25.6215C7.52072 25.2909 8.17464 24.3816 8.17464 23.3071C8.17464 22.2326 7.52072 21.406 6.62158 20.9928V17.9345H12.9156C13.2425 18.8437 14.1417 19.4223 15.2043 19.4223C16.1852 19.4223 17.0843 18.761 17.493 17.9345H24.6862C26.5662 17.9345 28.201 16.2814 28.201 14.2976V9.66888C29.1001 9.33825 29.754 8.42904 29.754 7.35451C29.754 6.27998 29.0184 5.53608 28.1192 5.1228ZM5.6407 24.2163H2.69805C2.28935 24.2163 1.88065 23.8857 1.88065 23.3898C1.88065 22.9765 2.28935 22.5632 2.69805 22.5632H5.6407C6.13114 22.5632 6.4581 22.9765 6.4581 23.3898C6.4581 23.8857 6.13114 24.2163 5.6407 24.2163ZM12.6704 16.364H5.80418C5.31374 16.364 4.98678 16.7773 4.98678 17.1906V20.9101H3.51546V17.1906C3.51546 15.8681 4.57808 14.7109 5.80418 14.7109H12.6704V16.364V16.364ZM15.94 17.1079C15.94 17.6039 15.5313 17.9345 15.1226 17.9345C14.7139 17.9345 14.3052 17.6039 14.3052 17.1079V14.0496C14.3052 13.6364 14.7139 13.2231 15.1226 13.2231C15.5313 13.2231 15.94 13.6364 15.94 14.0496V17.1079ZM26.4844 14.3803C26.4844 15.4548 25.667 16.364 24.6044 16.364H17.5748V14.7109H24.114C24.6044 14.7109 24.9314 14.3803 24.9314 13.8843V9.91685H26.4027V14.3803H26.4844ZM27.2201 8.26373H24.1957C23.787 8.26373 23.3783 7.85045 23.3783 7.43717C23.3783 6.94123 23.787 6.61061 24.1957 6.61061H27.2201C27.6288 6.61061 28.0375 6.94123 28.0375 7.43717C28.0375 7.9331 27.6288 8.26373 27.2201 8.26373Z" fill="#E09D64"/>
<path fill-rule="evenodd" clip-rule="evenodd" d="M23.1325 1.07246C23.1325 0.542299 23.5513 0 24.1958 0C24.8402 0 25.2591 0.542299 25.2591 1.07246V4.71139H26.2386V1.07246C26.2386 0.78681 26.3774 0.521057 26.5651 0.331294C26.7526 0.141702 27.0166 0 27.3019 0C27.9463 0 28.3652 0.542299 28.3652 1.07246V4.96837C29.2514 5.41803 30 6.20828 30 7.35432C30 8.46426 29.361 9.42197 28.4469 9.83369V14.2974C28.4469 16.4107 26.7082 18.1802 24.6862 18.1802H17.6409C17.1692 19.0132 16.2368 19.668 15.2044 19.668C14.116 19.668 13.1605 19.1047 12.7495 18.1802H6.86754V20.8392C7.76568 21.3062 8.4206 22.1795 8.4206 23.3069C8.4206 24.4169 7.78162 25.3746 6.86754 25.7863V28.9275C6.86754 29.5725 6.33514 30 5.80423 30C5.5023 30 5.23196 29.8971 5.03677 29.6997C4.84182 29.5026 4.74093 29.2306 4.74093 28.9275V26.0325H3.76141V28.9275C3.76141 29.2306 3.66052 29.5026 3.46557 29.6997C3.27038 29.8971 3.00004 30 2.69811 30C2.16719 30 1.6348 29.5725 1.6348 28.9275V25.8743C0.645726 25.4661 0 24.5057 0 23.3896C0 22.2675 0.722853 21.3172 1.6348 20.9099V17.1904C1.6348 14.7528 3.44916 12.8117 5.80423 12.8117H12.686C13.1578 11.9786 14.0902 11.3239 15.1226 11.3239C16.2293 11.3239 17.0992 11.902 17.5659 12.8117H23.1325V9.90469C22.2343 9.43766 21.5794 8.56445 21.5794 7.43698C21.5794 6.32703 22.2184 5.36933 23.1325 4.9576V1.07246ZM24.1958 0.491803C23.8593 0.491803 23.6243 0.776064 23.6243 1.07246V5.29418L23.4632 5.3534C22.6641 5.64723 22.0712 6.46196 22.0712 7.43698C22.0712 8.39944 22.6537 9.1476 23.4811 9.52791L23.6243 9.59374V13.3035H17.2523L17.1871 13.1584C16.816 12.3329 16.0835 11.8157 15.1226 11.8157C14.2492 11.8157 13.4281 12.4105 13.0543 13.1666L12.9866 13.3035H5.80423C3.74533 13.3035 2.12661 14.9992 2.12661 17.1904V21.2468L1.96557 21.306C1.15369 21.6045 0.491803 22.4279 0.491803 23.3896C0.491803 24.3608 1.08045 25.1747 1.95925 25.4709L2.12661 25.5273V28.9275C2.12661 29.2745 2.41162 29.5082 2.69811 29.5082C2.88662 29.5082 3.02498 29.4458 3.11588 29.3539C3.20702 29.2617 3.26961 29.1204 3.26961 28.9275V25.5407H5.23273V28.9275C5.23273 29.1204 5.29532 29.2617 5.38646 29.3539C5.47736 29.4458 5.61572 29.5082 5.80423 29.5082C6.09072 29.5082 6.37573 29.2745 6.37573 28.9275V25.4497L6.53677 25.3905C7.33586 25.0967 7.9288 24.2819 7.9288 23.3069C7.9288 22.3445 7.34635 21.5963 6.51894 21.216L6.37573 21.1502V17.6884H13.0885L13.147 17.8511C13.4339 18.6489 14.2299 19.1762 15.2044 19.1762C16.0777 19.1762 16.8988 18.5813 17.2726 17.8253L17.3403 17.6884H24.6862C26.4242 17.6884 27.9551 16.1516 27.9551 14.2974V9.49711L28.1162 9.43789C28.9153 9.14406 29.5082 8.32934 29.5082 7.35432C29.5082 6.41257 28.8677 5.73721 28.0166 5.34604L27.8734 5.28021V1.07246C27.8734 0.776064 27.6383 0.491803 27.3019 0.491803C27.1785 0.491803 27.0338 0.556742 26.9148 0.677109C26.7959 0.797306 26.7304 0.944833 26.7304 1.07246V5.2032H24.7673V1.07246C24.7673 0.776064 24.5322 0.491803 24.1958 0.491803ZM24.1958 6.85632C23.9093 6.85632 23.6243 7.09006 23.6243 7.43698C23.6243 7.5646 23.6898 7.71213 23.8086 7.83233C23.9277 7.9527 24.0724 8.01763 24.1958 8.01763H27.2202C27.5066 8.01763 27.7917 7.78389 27.7917 7.43698C27.7917 7.09006 27.5066 6.85632 27.2202 6.85632H24.1958ZM23.1325 7.43698C23.1325 6.79202 23.6649 6.36451 24.1958 6.36451H27.2202C27.7511 6.36451 28.2835 6.79202 28.2835 7.43698C28.2835 8.08193 27.7511 8.50944 27.2202 8.50944H24.1958C23.9105 8.50944 23.6465 8.36774 23.459 8.17814C23.2713 7.98838 23.1325 7.72263 23.1325 7.43698ZM24.6855 9.67075H26.6487V14.1342H26.7304V14.3801C26.7304 15.5739 25.8188 16.6097 24.6045 16.6097H17.3289V14.4648H24.114C24.3025 14.4648 24.4409 14.4024 24.5318 14.3105C24.6229 14.2183 24.6855 14.077 24.6855 13.8841V9.67075ZM26.2224 14.626H26.1569V10.1626H25.1773V13.8841C25.1773 14.1872 25.0764 14.4592 24.8815 14.6563C24.6863 14.8537 24.416 14.9566 24.114 14.9566H17.8207V16.1179H24.6045C25.4358 16.1179 26.1108 15.466 26.2224 14.626ZM14.7355 13.6541C14.6166 13.7743 14.5511 13.9218 14.5511 14.0495V17.1077C14.5511 17.4546 14.8361 17.6884 15.1226 17.6884C15.4091 17.6884 15.6941 17.4546 15.6941 17.1077V14.0495C15.6941 13.9218 15.6286 13.7743 15.5097 13.6541C15.3907 13.5337 15.246 13.4688 15.1226 13.4688C14.9992 13.4688 14.8545 13.5337 14.7355 13.6541ZM14.3858 13.3083C14.5733 13.1187 14.8373 12.977 15.1226 12.977C15.4079 12.977 15.6719 13.1187 15.8594 13.3083C16.0471 13.4981 16.1859 13.7638 16.1859 14.0495V17.1077C16.1859 17.7527 15.6535 18.1802 15.1226 18.1802C14.5917 18.1802 14.0593 17.7527 14.0593 17.1077V14.0495C14.0593 13.7638 14.1981 13.4981 14.3858 13.3083ZM5.80423 14.9566C4.73248 14.9566 3.76141 15.9844 3.76141 17.1904V20.664H4.74093V17.1904C4.74093 16.6602 5.1598 16.1179 5.80423 16.1179H12.4245V14.9566H5.80423ZM12.6704 16.3638H12.9163V14.4648H5.80423C4.42378 14.4648 3.26961 15.7514 3.26961 17.1904V21.1558H5.23273V17.1904C5.23273 16.894 5.46778 16.6097 5.80423 16.6097H12.6704V16.3638ZM2.31099 22.9942C2.19212 23.1144 2.12661 23.262 2.12661 23.3896C2.12661 23.7365 2.41162 23.9702 2.69811 23.9702H5.64075C5.82926 23.9702 5.96763 23.9078 6.05852 23.8159C6.14966 23.7238 6.21225 23.5825 6.21225 23.3896C6.21225 23.0932 5.9772 22.8089 5.64075 22.8089H2.69811C2.5747 22.8089 2.43002 22.8739 2.31099 22.9942ZM1.9613 22.6484C2.14879 22.4588 2.41281 22.3171 2.69811 22.3171H5.64075C6.28518 22.3171 6.70406 22.8594 6.70406 23.3896C6.70406 23.6926 6.60316 23.9646 6.40821 24.1617C6.21302 24.3591 5.94268 24.462 5.64075 24.462H2.69811C2.16719 24.462 1.6348 24.0345 1.6348 23.3896C1.6348 23.1039 1.77364 22.8382 1.9613 22.6484Z" fill="#181818"/>
</svg>
