<svg width="30" height="30" viewBox="0 0 30 30" fill="none" xmlns="http://www.w3.org/2000/svg">
<path d="M6.51897 9H5.48103C5.21538 9 5 9.22363 5 9.5C5 9.77637 5.21538 10 5.48103 10H6.51897C6.78462 10 7 9.77637 7 9.5C7 9.22363 6.78462 9 6.51897 9Z" fill="#E09D64"/>
<path d="M6.51897 23H5.48103C5.21538 23 5 23.2236 5 23.5C5 23.7764 5.21538 24 5.48103 24H6.51897C6.78462 24 7 23.7764 7 23.5C7 23.2236 6.78462 23 6.51897 23Z" fill="#E09D64"/>
<path d="M14 9.5C14 9.77637 14.2154 10 14.481 10H15.519C15.7846 10 16 9.77637 16 9.5C16 9.22363 15.7846 9 15.519 9H14.481C14.2154 9 14 9.22363 14 9.5Z" fill="#E09D64"/>
<path d="M15.519 23H14.481C14.2154 23 14 23.2236 14 23.5C14 23.7764 14.2154 24 14.481 24H15.519C15.7846 24 16 23.7764 16 23.5C16 23.2236 15.7846 23 15.519 23Z" fill="#E09D64"/>
<path d="M23 9.5C23 9.77637 23.2154 10 23.481 10H24.519C24.7846 10 25 9.77637 25 9.5C25 9.22363 24.7846 9 24.519 9H23.481C23.2154 9 23 9.22363 23 9.5Z" fill="#E09D64"/>
<path d="M24.519 23H23.481C23.2154 23 23 23.2236 23 23.5C23 23.7764 23.2154 24 23.481 24H24.519C24.7846 24 25 23.7764 25 23.5C25 23.2236 24.7846 23 24.519 23Z" fill="#E09D64"/>
<path d="M24.2251 3.14784C24.0298 2.95072 23.7134 2.95072 23.5181 3.14784L20.8896 5.80054C20.7959 5.89516 20.7432 6.02328 20.7432 6.15732V10.2613H18.1287V6.15732C18.1287 6.02328 18.0759 5.89516 17.9822 5.80054L15.3535 3.14784C15.1582 2.95072 14.8418 2.95072 14.6465 3.14784L12.0181 5.80054C11.9243 5.89516 11.8716 6.02328 11.8716 6.15732V10.2613H9.25708V6.15732C9.25708 6.02328 9.20435 5.89516 9.1106 5.80054L6.48218 3.14784C6.28687 2.95072 5.97046 2.95072 5.77515 3.14784L3.14648 5.80054C3.05273 5.89516 3 6.02328 3 6.15732V26.4954C3 26.7743 3.22388 27 3.5 27H8.75708C9.0332 27 9.25708 26.7743 9.25708 26.4954V22.3416H11.8716V26.4954C11.8716 26.7743 12.0955 27 12.3716 27H17.6287C17.9048 27 18.1287 26.7743 18.1287 26.4954V22.3416H20.7432V26.4954C20.7432 26.7743 20.967 27 21.2432 27H26.5C26.7761 27 27 26.7743 27 26.4954V6.15732C27 6.02328 26.9473 5.89516 26.8535 5.80054L24.2251 3.14784ZM4 25.9908V6.36627L6.12866 4.21818L8.25708 6.36627V10.7562C8.25702 10.7596 8.25513 10.7625 8.25513 10.7659V21.837C8.25513 21.8405 8.25702 21.8433 8.25708 21.8468V25.9908H4ZM9.25708 21.3324V11.2705H11.8716V21.3324H9.25708ZM17.1287 25.9908H12.8716V6.36627L15 4.21818L17.1287 6.36627V25.9908ZM18.1287 21.3324V11.2705H20.7432V21.3324H18.1287ZM26 25.9908H21.7432V21.8468C21.7432 21.8433 21.7451 21.8405 21.7451 21.837V10.7659C21.7451 10.7625 21.7432 10.7596 21.7432 10.7562V6.36627L23.8716 4.21818L26 6.36627V25.9908Z" fill="#E09D64"/>
</svg>
