<svg width="30" height="30" viewBox="0 0 30 30" fill="none" xmlns="http://www.w3.org/2000/svg">
<path d="M28.3333 12.9688H18.79L18.2167 9.59375H23.6667V10.8594C23.6667 10.9713 23.7369 11.0786 23.8619 11.1577C23.987 11.2368 24.1565 11.2813 24.3333 11.2813C24.5101 11.2813 24.6797 11.2368 24.8047 11.1577C24.9298 11.0786 25 10.9713 25 10.8594V9.17188C25 9.05999 24.9298 8.95269 24.8047 8.87357C24.6797 8.79445 24.5101 8.75 24.3333 8.75H18.0767L17 2.37758C16.9826 2.27354 16.9048 2.17729 16.7816 2.10752C16.6584 2.03774 16.4987 1.99943 16.3333 2.00001H13.6667C13.5013 1.99943 13.3416 2.03774 13.2184 2.10752C13.0952 2.17729 13.0174 2.27354 13 2.37758L11.9233 8.75H5.66667C5.48986 8.75 5.32029 8.79445 5.19526 8.87357C5.07024 8.95269 5 9.05999 5 9.17188V10.8594C5 10.9713 5.07024 11.0786 5.19526 11.1577C5.32029 11.2368 5.48986 11.2813 5.66667 11.2813C5.84348 11.2813 6.01305 11.2368 6.13807 11.1577C6.2631 11.0786 6.33333 10.9713 6.33333 10.8594V9.59375H11.7833L11.21 12.9688H1.66667C1.48986 12.9688 1.32029 13.0132 1.19526 13.0923C1.07024 13.1714 1 13.2787 1 13.3906V15.0781C1 15.19 1.07024 15.2973 1.19526 15.3764C1.32029 15.4556 1.48986 15.5 1.66667 15.5C1.84348 15.5 2.01305 15.4556 2.13807 15.3764C2.2631 15.2973 2.33333 15.19 2.33333 15.0781V13.8125H11.0667L9.06667 25.625H9C8.46957 25.625 7.96086 25.7583 7.58579 25.9957C7.21071 26.233 7 26.555 7 26.8906V28.1562H2.33333C2.15652 28.1562 1.98695 28.2007 1.86193 28.2798C1.7369 28.3589 1.66667 28.4662 1.66667 28.5781C1.66667 28.69 1.7369 28.7973 1.86193 28.8764C1.98695 28.9556 2.15652 29 2.33333 29H27.6667C27.8435 29 28.013 28.9556 28.1381 28.8764C28.2631 28.7973 28.3333 28.69 28.3333 28.5781C28.3333 28.4662 28.2631 28.3589 28.1381 28.2798C28.013 28.2007 27.8435 28.1562 27.6667 28.1562H23V26.8906C23 26.555 22.7893 26.233 22.4142 25.9957C22.0391 25.7583 21.5304 25.625 21 25.625H20.9333L18.9333 13.8125H27.6667V15.0781C27.6667 15.19 27.7369 15.2973 27.8619 15.3764C27.987 15.4556 28.1565 15.5 28.3333 15.5C28.5101 15.5 28.6797 15.4556 28.8047 15.3764C28.9298 15.2973 29 15.19 29 15.0781V13.3906C29 13.2787 28.9298 13.1714 28.8047 13.0923C28.6797 13.0132 28.5101 12.9688 28.3333 12.9688ZM14.2667 2.84376H15.7333L16.7333 8.75H13.2667L14.2667 2.84376ZM13.1233 9.59375H16.8767L17.45 12.9688H12.55L13.1233 9.59375ZM21.6667 26.8906V28.1562H8.33333V26.8906C8.33333 26.7787 8.40357 26.6714 8.52859 26.5923C8.65362 26.5132 8.82319 26.4688 9 26.4688H21C21.1768 26.4688 21.3464 26.5132 21.4714 26.5923C21.5964 26.6714 21.6667 26.7787 21.6667 26.8906ZM19.59 25.625H10.41L12.41 13.8125H17.59L19.59 25.625Z" fill="#E09D64"/>
</svg>
