<svg width="22" height="22" viewBox="0 0 22 22" fill="none" xmlns="http://www.w3.org/2000/svg">
<path d="M18.5024 13.7626C17.7073 12.9776 16.7147 12.9776 15.9247 13.7626C15.322 14.3601 14.7194 14.9577 14.1269 15.5654C13.9648 15.7325 13.8281 15.768 13.6306 15.6566C13.2406 15.4439 12.8253 15.2717 12.4506 15.0387C10.7034 13.9398 9.23978 12.5269 7.94331 10.9368C7.30014 10.1467 6.72787 9.30102 6.32779 8.34895C6.24676 8.15651 6.26195 8.02991 6.41895 7.87292C7.0216 7.29054 7.60907 6.69296 8.20159 6.09539C9.02708 5.26486 9.02708 4.29254 8.19653 3.45695C7.72554 2.98091 7.25456 2.51501 6.78358 2.03897C6.2974 1.55281 5.81629 1.06158 5.32505 0.580484C4.52995 -0.194337 3.53735 -0.194337 2.74731 0.585549C2.13959 1.18312 1.55719 1.79589 0.939345 2.38334C0.367076 2.9252 0.0784091 3.58861 0.0176372 4.36344C-0.0785851 5.62442 0.230339 6.8145 0.665871 7.9742C1.55719 10.3746 2.91443 12.5067 4.56034 14.4614C6.78358 17.1049 9.43729 19.1964 12.5417 20.7056C13.9395 21.3842 15.3879 21.9058 16.9629 21.9919C18.0466 22.0527 18.9886 21.7792 19.7432 20.9335C20.2598 20.3561 20.8422 19.8295 21.3891 19.2775C22.1994 18.4571 22.2045 17.4645 21.3992 16.6542C20.437 15.687 19.4697 14.7248 18.5024 13.7626Z" fill="#181818"/>
</svg>
