<svg width="18" height="18" viewBox="0 0 18 18" fill="none" xmlns="http://www.w3.org/2000/svg">
<g clip-path="url(#clip0_114_374)">
<path d="M17.9962 5.5094C17.9962 3.14289 16.0779 1.22457 13.7114 1.22457C11.3449 1.22456 9.42654 3.14289 9.42654 5.5094C9.42654 7.87591 11.3449 9.79419 13.7114 9.79419C14.1977 9.79419 14.6633 9.70941 15.0991 9.56C14.1348 15.0903 9.82226 18.6567 13.82 15.7215C18.2529 12.4666 18.0009 5.64035 17.996 5.51524C17.996 5.5133 17.9962 5.51156 17.9962 5.5094Z" fill="#E09D64"/>
<path d="M8.56965 5.5094C8.56965 3.14289 6.65133 1.22457 4.28482 1.22457C1.91831 1.22457 -1.4067e-05 3.14289 -1.42739e-05 5.5094C-1.44808e-05 7.87591 1.91834 9.7942 4.28485 9.7942C4.77124 9.7942 5.23675 9.70941 5.67258 9.56C4.70831 15.0903 0.395737 18.6567 4.39348 15.7215C8.82638 12.4666 8.57443 5.64035 8.56944 5.51524C8.56944 5.5133 8.56965 5.51156 8.56965 5.5094Z" fill="#E09D64"/>
</g>
<defs>
<clipPath id="clip0_114_374">
<rect width="18" height="18" fill="white" transform="translate(18 18) rotate(-180)"/>
</clipPath>
</defs>
</svg>
