<svg width="13" height="8" viewBox="0 0 13 8" fill="none" xmlns="http://www.w3.org/2000/svg">
<path d="M12.328 0.972255L11.7268 0.371137C11.6467 0.290864 11.5544 0.250854 11.4501 0.250854C11.3461 0.250854 11.2538 0.290864 11.1737 0.371137L6.44795 5.09665L1.72239 0.371263C1.64224 0.290991 1.55001 0.250981 1.44581 0.250981C1.34158 0.250981 1.24934 0.290991 1.16924 0.371263L0.568164 0.972424C0.487892 1.05253 0.447882 1.14476 0.447882 1.249C0.447882 1.35315 0.488018 1.44538 0.568164 1.52549L6.17137 7.12882C6.25148 7.20897 6.34375 7.24902 6.44795 7.24902C6.55214 7.24902 6.64425 7.20897 6.72431 7.12882L12.328 1.52549C12.4081 1.44534 12.4479 1.35311 12.4479 1.249C12.4479 1.14476 12.4081 1.05253 12.328 0.972255Z" fill="#13569A"/>
</svg>
