<svg width="15" height="15" viewBox="0 0 15 15" fill="none" xmlns="http://www.w3.org/2000/svg">
<path d="M14.0934 0.726289C13.7588 0.391693 13.2222 0.391693 12.8876 0.726289L7.48359 6.13033L2.07956 0.726289C1.74496 0.391693 1.20835 0.391693 0.873749 0.726289C0.539154 1.06088 0.539154 1.5975 0.873749 1.9321L6.27778 7.33614L0.873749 12.7402C0.539154 13.0748 0.539154 13.6114 0.873749 13.946C1.03789 14.1101 1.25885 14.1985 1.4735 14.1985C1.68814 14.1985 1.9091 14.1164 2.07324 13.946L7.47728 8.54195L12.8813 13.946C13.0455 14.1101 13.2664 14.1985 13.4811 14.1985C13.702 14.1985 13.9167 14.1164 14.0808 13.946C14.4154 13.6114 14.4154 13.0748 14.0808 12.7402L8.6894 7.33614L14.0934 1.9321C14.428 1.5975 14.428 1.06088 14.0934 0.726289Z" fill="#125599"/>
</svg>
