<svg width="42" height="37" viewBox="0 0 42 37" fill="none" xmlns="http://www.w3.org/2000/svg">
<path d="M24.128 27.685H13.128V24.595C13.1219 23.6223 13.4505 22.677 14.0586 21.9178C14.6667 21.1585 15.5174 20.6315 16.468 20.425L19.038 19.855V19.045C18.5496 18.692 18.1488 18.2317 17.8662 17.6995C17.5836 17.1673 17.4269 16.5773 17.408 15.975C16.5406 15.0976 16.0462 13.9187 16.028 12.685V12.145C16.0267 11.5095 16.151 10.88 16.3939 10.2928C16.6368 9.70553 16.9934 9.17211 17.4433 8.72321C17.8931 8.2743 18.4273 7.91879 19.015 7.67712C19.6028 7.43544 20.2325 7.31239 20.868 7.31503H21.418C22.1903 7.31009 22.9482 7.52335 23.6045 7.93026C24.2609 8.33716 24.789 8.92117 25.128 9.61503C25.5212 9.67038 25.8813 9.86568 26.1421 10.1651C26.403 10.4645 26.5471 10.8479 26.548 11.245V12.685C26.5496 13.914 26.0767 15.0961 25.228 15.985C25.2146 16.4308 25.1232 16.8708 24.958 17.285C24.718 17.665 24.398 18.175 24.248 18.455C24.05 18.6749 23.8287 18.8728 23.588 19.045V19.855L23.888 19.925V20.595L23.588 20.535V26.365H18.988V20.525L17.988 20.745V26.365H16.988V27.015H24.128V27.685ZM17.378 20.905L16.588 21.075C15.7846 21.2528 15.0661 21.6997 14.5514 22.3417C14.0367 22.9837 13.7568 23.7822 13.758 24.605V27.025H16.388V25.685H17.388L17.378 20.905ZM19.678 22.065V25.685H22.968V22.055C22.5372 22.4825 21.9549 22.7224 21.348 22.7224C20.7411 22.7224 20.1588 22.4825 19.728 22.055H19.678V22.065ZM19.678 19.435V20.435C19.7103 20.8492 19.8977 21.2359 20.2026 21.5179C20.5075 21.8 20.9076 21.9567 21.323 21.9567C21.7384 21.9567 22.1385 21.8 22.4434 21.5179C22.7484 21.2359 22.9357 20.8492 22.968 20.435V19.435C22.4485 19.6798 21.8811 19.8059 21.3069 19.8041C20.7327 19.8024 20.166 19.6729 19.648 19.425L19.678 19.435ZM24.608 12.925C22.5146 13.7508 20.2882 14.188 18.038 14.215V15.855C18.0134 16.3017 18.08 16.7486 18.234 17.1686C18.3879 17.5886 18.6259 17.9728 18.9334 18.2977C19.2408 18.6226 19.6113 18.8814 20.0222 19.0583C20.4331 19.2351 20.8757 19.3263 21.323 19.3263C21.7703 19.3263 22.213 19.2351 22.6238 19.0583C23.0347 18.8814 23.4052 18.6226 23.7126 18.2977C24.0201 17.9728 24.2581 17.5886 24.412 17.1686C24.566 16.7486 24.6327 16.3017 24.608 15.855V12.925ZM25.268 12.245V14.925C25.6838 14.2527 25.8989 13.4755 25.888 12.685V11.245C25.888 10.9798 25.7827 10.7255 25.5951 10.5379C25.4076 10.3504 25.1532 10.245 24.888 10.245H24.668L24.578 10.045C24.3128 9.42134 23.8698 8.88958 23.3043 8.51612C22.7387 8.14265 22.0757 7.94402 21.398 7.94503H20.848C20.2987 7.94371 19.7546 8.05092 19.2468 8.26052C18.7391 8.47012 18.2778 8.77797 17.8894 9.16638C17.501 9.55479 17.1931 10.0161 16.9835 10.5238C16.7739 11.0316 16.6667 11.5757 16.668 12.125V12.685C16.6696 13.4794 16.8987 14.2567 17.328 14.925V13.545H17.788C20.0456 13.5463 22.2826 13.1152 24.378 12.275H24.498L25.268 12.245Z" fill="#125599"/>
<path d="M29.4381 27.685H23.5581V27.025H25.4881V26.375H24.4881V20.745L23.5381 20.535V19.865L26.0681 20.425C27.0188 20.6329 27.8697 21.16 28.4791 21.9187C29.0886 22.6773 29.42 23.6218 29.4181 24.595V27.685H29.4381ZM25.1281 20.895V25.685H26.1281V26.995H28.7581V24.595C28.763 23.7712 28.4844 22.9708 27.9691 22.3281C27.4539 21.6853 26.7332 21.2394 25.9281 21.065L25.1281 20.895Z" fill="#125599"/>
<path d="M13.478 24.3049C15.6872 24.3049 17.478 22.5141 17.478 20.3049C17.478 18.0958 15.6872 16.3049 13.478 16.3049C11.2689 16.3049 9.47803 18.0958 9.47803 20.3049C9.47803 22.5141 11.2689 24.3049 13.478 24.3049Z" fill="white"/>
<path d="M13.4778 24.005C15.5213 24.005 17.1778 22.3484 17.1778 20.305C17.1778 18.2615 15.5213 16.605 13.4778 16.605C11.4344 16.605 9.77783 18.2615 9.77783 20.305C9.77783 22.3484 11.4344 24.005 13.4778 24.005Z" stroke="#125599" stroke-width="0.6"/>
<path d="M13.478 18.3049V22.3049" stroke="#125599" stroke-width="0.5"/>
<path d="M15.478 20.3049H11.478" stroke="#125599" stroke-width="0.5"/>
</svg>
