<svg width="42" height="37" viewBox="0 0 42 37" fill="none" xmlns="http://www.w3.org/2000/svg">
<path d="M24.1279 27.685H13.1279V24.595C13.1218 23.6223 13.4504 22.677 14.0585 21.9178C14.6666 21.1585 15.5173 20.6315 16.4679 20.425L19.0379 19.855V19.045C18.5495 18.692 18.1486 18.2317 17.866 17.6995C17.5835 17.1673 17.4267 16.5773 17.4079 15.975C16.5405 15.0976 16.046 13.9187 16.0279 12.685V12.145C16.0266 11.5095 16.1509 10.88 16.3938 10.2928C16.6367 9.70553 16.9933 9.17211 17.4432 8.72321C17.893 8.2743 18.4271 7.91879 19.0149 7.67712C19.6027 7.43544 20.2324 7.31239 20.8679 7.31503H21.4179C22.1901 7.31009 22.9481 7.52335 23.6044 7.93026C24.2608 8.33716 24.7889 8.92117 25.1279 9.61503C25.5211 9.67038 25.8812 9.86568 26.142 10.1651C26.4028 10.4645 26.547 10.8479 26.5479 11.245V12.685C26.5494 13.914 26.0766 15.0961 25.2279 15.985C25.2145 16.4308 25.1231 16.8708 24.9579 17.285C24.7179 17.665 24.3979 18.175 24.2479 18.455C24.0498 18.6749 23.8285 18.8728 23.5879 19.045V19.855L23.8879 19.925V20.595L23.5879 20.535V26.365H18.9879V20.525L17.9879 20.745V26.365H16.9879V27.015H24.1279V27.685ZM17.3779 20.905L16.5879 21.075C15.7845 21.2528 15.066 21.6997 14.5513 22.3417C14.0366 22.9837 13.7567 23.7822 13.7579 24.605V27.025H16.3879V25.685H17.3879L17.3779 20.905ZM19.6779 22.065V25.685H22.9679V22.055C22.5371 22.4825 21.9548 22.7224 21.3479 22.7224C20.741 22.7224 20.1587 22.4825 19.7279 22.055H19.6779V22.065ZM19.6779 19.435V20.435C19.7102 20.8492 19.8975 21.2359 20.2025 21.5179C20.5074 21.8 20.9075 21.9567 21.3229 21.9567C21.7383 21.9567 22.1384 21.8 22.4433 21.5179C22.7483 21.2359 22.9356 20.8492 22.9679 20.435V19.435C22.4484 19.6798 21.881 19.8059 21.3068 19.8041C20.7325 19.8024 20.1659 19.6729 19.6479 19.425L19.6779 19.435ZM24.6079 12.925C22.5145 13.7508 20.2881 14.188 18.0379 14.215V15.855C18.0132 16.3017 18.0799 16.7486 18.2339 17.1686C18.3878 17.5886 18.6258 17.9728 18.9333 18.2977C19.2407 18.6226 19.6112 18.8814 20.0221 19.0583C20.433 19.2351 20.8756 19.3263 21.3229 19.3263C21.7702 19.3263 22.2128 19.2351 22.6237 19.0583C23.0346 18.8814 23.4051 18.6226 23.7125 18.2977C24.02 17.9728 24.258 17.5886 24.4119 17.1686C24.5659 16.7486 24.6325 16.3017 24.6079 15.855V12.925ZM25.2679 12.245V14.925C25.6837 14.2527 25.8988 13.4755 25.8879 12.685V11.245C25.8879 10.9798 25.7825 10.7255 25.595 10.5379C25.4075 10.3504 25.1531 10.245 24.8879 10.245H24.6679L24.5779 10.045C24.3127 9.42134 23.8697 8.88958 23.3042 8.51612C22.7386 8.14265 22.0756 7.94402 21.3979 7.94503H20.8479C20.2986 7.94371 19.7545 8.05092 19.2467 8.26052C18.739 8.47012 18.2777 8.77797 17.8892 9.16638C17.5008 9.55479 17.193 10.0161 16.9834 10.5238C16.7738 11.0316 16.6666 11.5757 16.6679 12.125V12.685C16.6695 13.4794 16.8985 14.2567 17.3279 14.925V13.545H17.7879C20.0455 13.5463 22.2825 13.1152 24.3779 12.275H24.4979L25.2679 12.245Z" fill="#979090"/>
<path d="M29.4378 27.685H23.5578V27.025H25.4878V26.375H24.4878V20.745L23.5378 20.535V19.865L26.0678 20.425C27.0185 20.6329 27.8694 21.16 28.4789 21.9187C29.0884 22.6773 29.4197 23.6218 29.4178 24.595V27.685H29.4378ZM25.1278 20.895V25.685H26.1278V26.995H28.7578V24.595C28.7627 23.7712 28.4842 22.9708 27.9689 22.3281C27.4536 21.6853 26.733 21.2394 25.9278 21.065L25.1278 20.895Z" fill="#979090"/>
<path d="M13.4779 24.3049C15.687 24.3049 17.4779 22.5141 17.4779 20.3049C17.4779 18.0958 15.687 16.3049 13.4779 16.3049C11.2688 16.3049 9.47791 18.0958 9.47791 20.3049C9.47791 22.5141 11.2688 24.3049 13.4779 24.3049Z" fill="white"/>
<path d="M13.478 24.005C15.5214 24.005 17.178 22.3484 17.178 20.305C17.178 18.2615 15.5214 16.605 13.478 16.605C11.4345 16.605 9.77795 18.2615 9.77795 20.305C9.77795 22.3484 11.4345 24.005 13.478 24.005Z" stroke="#979090" stroke-width="0.6"/>
<path d="M13.4779 18.3049V22.3049" stroke="#979090" stroke-width="0.5"/>
<path d="M15.4779 20.3049H11.4779" stroke="#979090" stroke-width="0.5"/>
</svg>
