<svg width="17" height="21" viewBox="0 0 17 21" fill="none" xmlns="http://www.w3.org/2000/svg">
<path d="M11.3618 20.8451H0.361825V17.7451C0.359922 16.7719 0.691275 15.8274 1.30076 15.0688C1.91025 14.3101 2.76112 13.783 3.71182 13.5751L6.28182 13.0051V12.1951C5.79072 11.8463 5.38708 11.3886 5.10255 10.8577C4.81801 10.3267 4.66032 9.73716 4.64182 9.1351C3.79085 8.25016 3.31131 7.07278 3.30182 5.8451V5.3051C3.29714 4.56962 3.46259 3.84302 3.78525 3.18209C4.10791 2.52115 4.57904 1.94378 5.16182 1.4951C6.02239 0.836651 7.07831 0.484677 8.16182 0.495098H8.71182C9.4737 0.491181 10.2216 0.699629 10.8716 1.09706C11.5216 1.49449 12.0481 2.06517 12.3918 2.7451C12.7883 2.80756 13.149 3.01072 13.408 3.3174C13.6669 3.62408 13.8067 4.01376 13.8018 4.4151V5.8451C13.7981 7.07792 13.3221 8.26245 12.4718 9.1551C12.4598 9.60007 12.3719 10.0397 12.2118 10.4551C11.9618 10.8251 11.6418 11.3351 11.4918 11.6151C11.2973 11.8378 11.0793 12.0389 10.8418 12.2151V13.0251L11.1418 13.0851V13.7451L10.8418 13.6751V19.5051H6.24182V13.7451L5.24182 13.9551V19.5751H4.24182V20.2351H11.3418V20.8851L11.3618 20.8451ZM4.61182 14.0651L3.80182 14.2451C3.00729 14.4243 2.29732 14.8684 1.7885 15.5044C1.27969 16.1405 1.00228 16.9306 1.00182 17.7451V20.1751H3.63182V18.8751H4.63182L4.61182 14.0651ZM6.91182 15.2251V18.8751H10.2018V15.2251C9.99245 15.4413 9.74253 15.6141 9.46634 15.7336C9.19014 15.8531 8.8931 15.917 8.59219 15.9217C8.29128 15.9263 7.9924 15.8716 7.71265 15.7607C7.4329 15.6497 7.17776 15.4847 6.96182 15.2751L6.91182 15.2251ZM6.91182 12.5951V13.5951C6.89413 13.8219 6.92352 14.0499 6.99817 14.2648C7.07281 14.4797 7.19109 14.6769 7.34557 14.8439C7.50005 15.0109 7.6874 15.1441 7.89584 15.2353C8.10429 15.3264 8.32933 15.3735 8.55682 15.3735C8.78432 15.3735 9.00936 15.3264 9.21781 15.2353C9.42625 15.1441 9.6136 15.0109 9.76808 14.8439C9.92256 14.6769 10.0408 14.4797 10.1155 14.2648C10.1901 14.0499 10.2195 13.8219 10.2018 13.5951V12.5951C9.68711 12.8368 9.12546 12.9621 8.55682 12.9621C7.98819 12.9621 7.42654 12.8368 6.91182 12.5951ZM11.8018 6.0851C9.71012 6.91658 7.48264 7.35394 5.23182 7.3751V9.0151C5.20717 9.46174 5.27386 9.90871 5.42781 10.3287C5.58176 10.7487 5.81974 11.1329 6.1272 11.4578C6.43466 11.7827 6.80515 12.0415 7.21602 12.2183C7.62689 12.3952 8.06951 12.4864 8.51682 12.4864C8.96414 12.4864 9.40676 12.3952 9.81763 12.2183C10.2285 12.0415 10.599 11.7827 10.9065 11.4578C11.2139 11.1329 11.4519 10.7487 11.6058 10.3287C11.7598 9.90871 11.8265 9.46174 11.8018 9.0151V6.0851ZM12.4618 5.4051V8.0851C12.8912 7.41676 13.1202 6.63947 13.1218 5.8451V4.4151C13.1218 4.14988 13.0165 3.89553 12.8289 3.70799C12.6414 3.52045 12.387 3.4151 12.1218 3.4151H11.9018L11.8218 3.2151C11.5549 2.59063 11.1101 2.05852 10.5428 1.68509C9.97556 1.31167 9.31096 1.11343 8.63182 1.1151H8.08182C7.15425 1.11482 6.25318 1.42456 5.52182 1.9951C5.01736 2.38167 4.60942 2.87997 4.33006 3.45083C4.0507 4.02169 3.90754 4.64956 3.91182 5.2851V5.8251C3.90474 6.61927 4.13073 7.39808 4.56182 8.0651V6.7451H5.03182C7.28971 6.74938 9.52724 6.31817 11.6218 5.4751H11.7318L12.4618 5.4051Z" fill="#125599"/>
<path d="M16.7018 20.8452H10.8018V20.1952H12.8018V19.5352H11.8018V13.9152L10.8018 13.7452V13.0752L13.3218 13.6352C14.268 13.8349 15.1182 14.3506 15.7324 15.0975C16.3467 15.8445 16.6885 16.7782 16.7018 17.7452V20.8452ZM12.4318 14.0652V18.8752H13.4318V20.1952H16.0618V17.7452C16.0648 16.9219 15.7856 16.1224 15.2706 15.4801C14.7556 14.8377 14.036 14.3913 13.2318 14.2152L12.4318 14.0652Z" fill="#125599"/>
</svg>
