<svg width="17" height="21" viewBox="0 0 17 21" fill="none" xmlns="http://www.w3.org/2000/svg">
<path d="M11.3618 20.8451H0.361758V17.7451C0.359855 16.7719 0.691209 15.8274 1.30069 15.0688C1.91018 14.3101 2.76105 13.783 3.71176 13.5751L6.28176 13.0051V12.1951C5.79066 11.8463 5.38702 11.3886 5.10248 10.8577C4.81795 10.3267 4.66025 9.73716 4.64176 9.1351C3.79078 8.25016 3.31124 7.07278 3.30176 5.8451V5.3051C3.29707 4.56962 3.46252 3.84302 3.78518 3.18209C4.10785 2.52115 4.57898 1.94378 5.16176 1.4951C6.02232 0.836651 7.07824 0.484677 8.16176 0.495098H8.71176C9.47363 0.491181 10.2215 0.699629 10.8716 1.09706C11.5216 1.49449 12.048 2.06517 12.3918 2.7451C12.7882 2.80756 13.149 3.01072 13.4079 3.3174C13.6668 3.62408 13.8066 4.01376 13.8018 4.4151V5.8451C13.798 7.07792 13.3221 8.26245 12.4718 9.1551C12.4597 9.60007 12.3718 10.0397 12.2118 10.4551C11.9618 10.8251 11.6418 11.3351 11.4918 11.6151C11.2972 11.8378 11.0793 12.0389 10.8418 12.2151V13.0251L11.1418 13.0851V13.7451L10.8418 13.6751V19.5051H6.24176V13.7451L5.24176 13.9551V19.5751H4.24176V20.2351H11.3418V20.8851L11.3618 20.8451ZM4.61176 14.0651L3.80176 14.2451C3.00722 14.4243 2.29725 14.8684 1.78844 15.5044C1.27962 16.1405 1.00221 16.9306 1.00176 17.7451V20.1751H3.63176V18.8751H4.63176L4.61176 14.0651ZM6.91176 15.2251V18.8751H10.2018V15.2251C9.99239 15.4413 9.74246 15.6141 9.46627 15.7336C9.19007 15.8531 8.89303 15.917 8.59212 15.9217C8.29121 15.9263 7.99234 15.8716 7.71259 15.7607C7.43284 15.6497 7.1777 15.4847 6.96176 15.2751L6.91176 15.2251ZM6.91176 12.5951V13.5951C6.89406 13.8219 6.92346 14.0499 6.9981 14.2648C7.07274 14.4797 7.19102 14.6769 7.3455 14.8439C7.49998 15.0109 7.68733 15.1441 7.89577 15.2353C8.10422 15.3264 8.32926 15.3735 8.55676 15.3735C8.78425 15.3735 9.0093 15.3264 9.21774 15.2353C9.42619 15.1441 9.61353 15.0109 9.76801 14.8439C9.9225 14.6769 10.0408 14.4797 10.1154 14.2648C10.1901 14.0499 10.2195 13.8219 10.2018 13.5951V12.5951C9.68705 12.8368 9.12539 12.9621 8.55676 12.9621C7.98812 12.9621 7.42647 12.8368 6.91176 12.5951ZM11.8018 6.0851C9.71005 6.91658 7.48257 7.35394 5.23176 7.3751V9.0151C5.20711 9.46174 5.27379 9.90871 5.42774 10.3287C5.58169 10.7487 5.81967 11.1329 6.12713 11.4578C6.43459 11.7827 6.80508 12.0415 7.21595 12.2183C7.62682 12.3952 8.06944 12.4864 8.51676 12.4864C8.96408 12.4864 9.40669 12.3952 9.81756 12.2183C10.2284 12.0415 10.5989 11.7827 10.9064 11.4578C11.2138 11.1329 11.4518 10.7487 11.6058 10.3287C11.7597 9.90871 11.8264 9.46174 11.8018 9.0151V6.0851ZM12.4618 5.4051V8.0851C12.8911 7.41676 13.1201 6.63947 13.1218 5.8451V4.4151C13.1218 4.14988 13.0164 3.89553 12.8289 3.70799C12.6413 3.52045 12.387 3.4151 12.1218 3.4151H11.9018L11.8218 3.2151C11.5548 2.59063 11.11 2.05852 10.5427 1.68509C9.9755 1.31167 9.31089 1.11343 8.63176 1.1151H8.08176C7.15418 1.11482 6.25312 1.42456 5.52176 1.9951C5.01729 2.38167 4.60935 2.87997 4.32999 3.45083C4.05064 4.02169 3.90747 4.64956 3.91176 5.2851V5.8251C3.90467 6.61927 4.13066 7.39808 4.56176 8.0651V6.7451H5.03176C7.28964 6.74938 9.52717 6.31817 11.6218 5.4751H11.7318L12.4618 5.4051Z" fill="#979090"/>
<path d="M16.7018 20.8452H10.8018V20.1952H12.8018V19.5352H11.8018V13.9152L10.8018 13.7452V13.0752L13.3218 13.6352C14.268 13.8349 15.1182 14.3506 15.7324 15.0975C16.3467 15.8445 16.6885 16.7782 16.7018 17.7452V20.8452ZM12.4318 14.0652V18.8752H13.4318V20.1952H16.0618V17.7452C16.0648 16.9219 15.7856 16.1224 15.2706 15.4801C14.7556 14.8377 14.036 14.3913 13.2318 14.2152L12.4318 14.0652Z" fill="#979090"/>
</svg>
