<svg width="42" height="37" viewBox="0 0 42 37" fill="none" xmlns="http://www.w3.org/2000/svg">
<path d="M24.7575 26.8052H13.7575V23.7452C13.7495 22.7719 14.0774 21.8257 14.6858 21.0661C15.2942 20.3065 16.146 19.7799 17.0975 19.5752L19.6675 18.9952V18.1852C19.1793 17.8343 18.7784 17.3758 18.4958 16.8452C18.2131 16.3146 18.0563 15.7261 18.0375 15.1252C17.1846 14.2349 16.7112 13.048 16.7175 11.8152V11.2752C16.7073 10.538 16.8682 9.8085 17.1875 9.14396C17.5067 8.47943 17.9756 7.89794 18.5575 7.44516C19.4169 6.78464 20.4736 6.43242 21.5575 6.44516H22.1075C22.8741 6.44818 23.6247 6.66505 24.2748 7.07137C24.925 7.4777 25.4488 8.05736 25.7875 8.74516C26.1816 8.7985 26.5428 8.99322 26.804 9.29308C27.0653 9.59293 27.2086 9.97748 27.2075 10.3752V11.7952C27.2085 13.027 26.7359 14.2121 25.8875 15.1052C25.8768 15.5513 25.7853 15.9917 25.6175 16.4052C25.3775 16.7852 25.0575 17.2852 24.9075 17.5652C24.7157 17.7906 24.4975 17.992 24.2575 18.1652V18.9752L24.5575 19.0452V19.7452L24.2675 19.6452V25.4852H19.6675V19.6552L18.6675 19.8752V25.4852H17.6675V26.1452H24.7675V26.8052H24.7575ZM18.0075 20.0152L17.2275 20.1952C16.419 20.3702 15.6957 20.8192 15.1801 21.466C14.6644 22.1129 14.3879 22.918 14.3975 23.7452V26.1452H17.0175V24.8252H18.0175L18.0075 20.0152ZM20.2675 21.1752V24.8252H23.5575V21.1752C23.3481 21.3913 23.0982 21.5641 22.822 21.6836C22.5458 21.8032 22.2487 21.8671 21.9478 21.8717C21.6469 21.8764 21.348 21.8217 21.0683 21.7107C20.7885 21.5998 20.5334 21.4348 20.3175 21.2252L20.2675 21.1752ZM20.2675 18.5552V19.5552C20.2998 19.9693 20.4871 20.356 20.792 20.6381C21.097 20.9201 21.4971 21.0768 21.9125 21.0768C22.3279 21.0768 22.728 20.9201 23.0329 20.6381C23.3378 20.356 23.5252 19.9693 23.5575 19.5552V18.5552C23.0415 18.7922 22.4803 18.915 21.9125 18.915C21.3446 18.915 20.7835 18.7922 20.2675 18.5552ZM25.2675 12.0352C23.1758 12.8666 20.9483 13.304 18.6975 13.3252V14.9752C18.7438 15.8151 19.1101 16.6053 19.7211 17.1835C20.3321 17.7616 21.1413 18.0838 21.9825 18.0838C22.8236 18.0838 23.6329 17.7616 24.2438 17.1835C24.8548 16.6053 25.2211 15.8151 25.2675 14.9752V12.0352ZM25.9275 11.3552V14.0352C26.3554 13.3667 26.5811 12.5888 26.5775 11.7952V10.3752C26.5775 10.1099 26.4721 9.85559 26.2846 9.66805C26.097 9.48052 25.8427 9.37516 25.5775 9.37516H25.3575L25.2675 9.18516C24.9984 8.56223 24.5531 8.03156 23.9863 7.65845C23.4195 7.28534 22.756 7.08607 22.0775 7.08516H21.5275C20.4214 7.08779 19.3612 7.52765 18.5782 8.30882C17.7951 9.09 17.3527 10.1491 17.3475 11.2552V11.7952C17.3463 12.5899 17.5755 13.368 18.0075 14.0352V12.6752H18.4675C20.7251 12.6765 22.962 12.2454 25.0575 11.4052L25.1775 11.3552H25.9275Z" fill="#125599"/>
<path d="M30.0976 26.8051H24.2676V26.1451H26.1976V25.4951H25.1976V19.8751L24.2676 19.6651V18.9951L26.7976 19.5551C27.7442 19.7702 28.5883 20.3037 29.1889 21.0663C29.7895 21.8289 30.1103 22.7745 30.0976 23.7451V26.8251V26.8051ZM25.8176 20.0151V24.8251H26.8176V26.1451H29.4476V23.7451C29.4525 22.9213 29.1739 22.1209 28.6586 21.4782C28.1434 20.8355 27.4227 20.3895 26.6176 20.2151L25.8176 20.0151Z" fill="#125599"/>
<path d="M18.5576 23.6053L19.6876 21.9653L20.0276 21.8853H24.3976L25.5576 23.7553L18.7276 23.8253L18.5576 23.6053Z" fill="white"/>
<path d="M25.4377 23.8853H18.1377V28.1853H25.4377V23.8853Z" fill="white"/>
<path d="M22.7574 28.5953H22.4474C22.4335 28.5967 22.4194 28.5951 22.4061 28.5907C22.3927 28.5863 22.3805 28.5792 22.3701 28.5697C22.3598 28.5603 22.3515 28.5488 22.3458 28.536C22.3402 28.5231 22.3373 28.5093 22.3374 28.4953C22.3374 28.4661 22.349 28.4381 22.3696 28.4175C22.3903 28.3968 22.4182 28.3853 22.4474 28.3853H22.7574C22.7866 28.3853 22.8146 28.3968 22.8352 28.4175C22.8558 28.4381 22.8674 28.4661 22.8674 28.4953C22.8675 28.5093 22.8646 28.5231 22.859 28.536C22.8533 28.5488 22.845 28.5603 22.8347 28.5697C22.8243 28.5792 22.8121 28.5863 22.7987 28.5907C22.7854 28.5951 22.7714 28.5967 22.7574 28.5953Z" fill="#125599" stroke="#125599" stroke-width="0.3"/>
<path d="M25.5676 28.5951H24.5676C24.5536 28.5965 24.5395 28.595 24.5262 28.5906C24.5129 28.5862 24.5007 28.579 24.4903 28.5696C24.4799 28.5602 24.4716 28.5487 24.466 28.5358C24.4604 28.523 24.4575 28.5091 24.4576 28.4951C24.4576 28.4659 24.4691 28.438 24.4898 28.4173C24.5104 28.3967 24.5384 28.3851 24.5676 28.3851H25.4676V23.9651H18.4676V28.3851H21.7076C21.7367 28.3851 21.7647 28.3967 21.7853 28.4173C21.806 28.438 21.8176 28.4659 21.8176 28.4951C21.8151 28.5225 21.8024 28.548 21.782 28.5665C21.7616 28.585 21.7351 28.5952 21.7076 28.5951H18.3576C18.3436 28.5965 18.3295 28.595 18.3162 28.5906C18.3029 28.5862 18.2907 28.579 18.2803 28.5696C18.2699 28.5602 18.2616 28.5487 18.256 28.5358C18.2504 28.523 18.2475 28.5091 18.2476 28.4951V23.8551C18.2476 23.8259 18.2591 23.798 18.2798 23.7773C18.3004 23.7567 18.3284 23.7451 18.3576 23.7451H25.5676C25.5967 23.7451 25.6247 23.7567 25.6453 23.7773C25.666 23.798 25.6776 23.8259 25.6776 23.8551V28.4951C25.6776 28.5091 25.6748 28.523 25.6691 28.5358C25.6635 28.5487 25.6552 28.5602 25.6448 28.5696C25.6345 28.579 25.6222 28.5862 25.6089 28.5906C25.5956 28.595 25.5815 28.5965 25.5676 28.5951Z" fill="#125599" stroke="#125599" stroke-width="0.3"/>
<path d="M23.8076 28.5953H23.4976C23.4841 28.5969 23.4704 28.5954 23.4575 28.5909C23.4446 28.5865 23.433 28.5792 23.4233 28.5695C23.4137 28.5599 23.4064 28.5482 23.4019 28.5353C23.3975 28.5225 23.396 28.5088 23.3976 28.4953C23.3962 28.4813 23.3977 28.4672 23.4021 28.4539C23.4065 28.4406 23.4137 28.4284 23.4231 28.418C23.4325 28.4076 23.444 28.3993 23.4569 28.3937C23.4697 28.3881 23.4836 28.3852 23.4976 28.3853H23.8076C23.8368 28.3853 23.8648 28.3968 23.8854 28.4175C23.906 28.4381 23.9176 28.4661 23.9176 28.4953C23.9177 28.5093 23.9148 28.5231 23.9092 28.536C23.9035 28.5488 23.8952 28.5603 23.8849 28.5698C23.8745 28.5792 23.8623 28.5863 23.8489 28.5907C23.8356 28.5951 23.8216 28.5967 23.8076 28.5953Z" fill="#125599" stroke="#125599" stroke-width="0.3"/>
<path d="M25.5676 23.9652H18.3576C18.3284 23.9652 18.3004 23.9536 18.2798 23.933C18.2591 23.9124 18.2476 23.8844 18.2476 23.8552L19.4076 21.9152C19.4173 21.9002 19.4307 21.8878 19.4463 21.8791C19.462 21.8703 19.4796 21.8656 19.4976 21.8652H24.3876C24.4055 21.8656 24.4231 21.8703 24.4388 21.8791C24.4545 21.8878 24.4678 21.9002 24.4776 21.9152L25.6376 23.8552C25.6559 23.8739 25.6661 23.8991 25.6661 23.9252C25.6661 23.9514 25.6559 23.9765 25.6376 23.9952H25.5776L25.5676 23.9652ZM18.5676 23.7452H25.4076L24.4076 22.0252H19.5776L18.5676 23.7452Z" fill="#125599" stroke="#125599" stroke-width="0.3"/>
<path d="M22.7374 23.9652H21.1874C21.1608 23.9608 21.1365 23.9475 21.1183 23.9276C21.1002 23.9076 21.0893 23.8821 21.0874 23.8552L21.3674 21.9152C21.3718 21.8913 21.3839 21.8694 21.402 21.8531C21.4201 21.8369 21.4431 21.827 21.4674 21.8252H22.4674C22.4934 21.8248 22.5187 21.8336 22.5389 21.8501C22.559 21.8665 22.5727 21.8896 22.5774 21.9152L22.8574 23.8552C22.8604 23.8829 22.8527 23.9107 22.836 23.9329C22.8193 23.9552 22.7948 23.9703 22.7674 23.9752L22.7374 23.9652ZM21.2674 23.7452H22.5674L22.3174 22.0252H21.5174L21.2674 23.7452Z" fill="#125599" stroke="#125599" stroke-width="0.3"/>
<path d="M22.7375 25.5051C22.7281 25.5096 22.7179 25.5119 22.7075 25.5119C22.6971 25.5119 22.6869 25.5096 22.6775 25.5051L21.9575 25.0351L21.2475 25.5051C21.2271 25.5241 21.2003 25.5347 21.1725 25.5347C21.1447 25.5347 21.1179 25.5241 21.0975 25.5051C21.0932 25.4854 21.0932 25.4649 21.0975 25.4451V23.8551C21.0975 23.8259 21.1091 23.798 21.1297 23.7773C21.1503 23.7567 21.1783 23.7451 21.2075 23.7451H22.7575C22.7715 23.745 22.7854 23.7479 22.7982 23.7536C22.8111 23.7592 22.8226 23.7675 22.832 23.7778C22.8414 23.7882 22.8486 23.8005 22.853 23.8138C22.8573 23.8271 22.8589 23.8412 22.8575 23.8551V25.3951C22.8589 25.4091 22.8573 25.4232 22.853 25.4365C22.8486 25.4498 22.8414 25.462 22.832 25.4724C22.8226 25.4828 22.8111 25.491 22.7982 25.4967C22.7854 25.5023 22.7715 25.5052 22.7575 25.5051H22.7375ZM21.9575 24.7851H22.0175L22.6275 25.1951V23.9651H21.2675V25.1951L21.8675 24.7951H21.9275L21.9575 24.7851Z" fill="#125599" stroke="#125599" stroke-width="0.3"/>
<path d="M20.5177 27.8251C20.5038 27.8265 20.4897 27.825 20.4764 27.8206C20.4631 27.8162 20.4508 27.809 20.4404 27.7996C20.4301 27.7902 20.4218 27.7787 20.4162 27.7658C20.4105 27.753 20.4076 27.7391 20.4077 27.7251V26.5851C20.4077 26.5559 20.4193 26.5279 20.4399 26.5073C20.4606 26.4867 20.4885 26.4751 20.5177 26.4751C20.5317 26.475 20.5456 26.4779 20.5584 26.4835C20.5713 26.4892 20.5828 26.4975 20.5922 26.5078C20.6016 26.5182 20.6088 26.5304 20.6132 26.5438C20.6176 26.5571 20.6191 26.5712 20.6177 26.5851V27.7251C20.6177 27.7516 20.6072 27.7771 20.5884 27.7958C20.5697 27.8146 20.5442 27.8251 20.5177 27.8251Z" fill="#125599" stroke="#125599" stroke-width="0.3"/>
<path d="M20.8174 26.9952C20.7949 27.0036 20.77 27.0036 20.7474 26.9952L20.5174 26.7652L20.2874 26.9952C20.2665 27.0071 20.2422 27.0118 20.2183 27.0086C20.1945 27.0053 20.1723 26.9944 20.1553 26.9773C20.1382 26.9603 20.1273 26.9381 20.124 26.9143C20.1208 26.8904 20.1255 26.8661 20.1374 26.8452L20.4374 26.5452C20.4578 26.5262 20.4846 26.5156 20.5124 26.5156C20.5403 26.5156 20.5671 26.5262 20.5874 26.5452L20.8974 26.8452C20.9164 26.8655 20.927 26.8923 20.927 26.9202C20.927 26.948 20.9164 26.9748 20.8974 26.9952C20.8715 27.0043 20.8433 27.0043 20.8174 26.9952Z" fill="#125599" stroke="#125599" stroke-width="0.3"/>
<path d="M19.3374 27.8251C19.3239 27.8267 19.3102 27.8252 19.2974 27.8208C19.2845 27.8163 19.2728 27.809 19.2632 27.7994C19.2536 27.7897 19.2462 27.7781 19.2418 27.7652C19.2373 27.7523 19.2358 27.7386 19.2374 27.7251V26.5851C19.236 26.5712 19.2376 26.5571 19.242 26.5438C19.2464 26.5304 19.2535 26.5182 19.263 26.5078C19.2724 26.4975 19.2839 26.4892 19.2967 26.4835C19.3096 26.4779 19.3234 26.475 19.3374 26.4751C19.3666 26.4751 19.3946 26.4867 19.4152 26.5073C19.4359 26.5279 19.4474 26.5559 19.4474 26.5851V27.7251C19.4449 27.7525 19.4323 27.778 19.4119 27.7965C19.3915 27.815 19.365 27.8252 19.3374 27.8251Z" fill="#125599" stroke="#125599" stroke-width="0.3"/>
<path d="M19.0275 26.9951C19 26.9926 18.9746 26.9799 18.9561 26.9596C18.9375 26.9392 18.9273 26.9126 18.9275 26.8851C18.9174 26.8594 18.9174 26.8308 18.9275 26.8051L19.2375 26.5051C19.2578 26.4861 19.2846 26.4756 19.3125 26.4756C19.3403 26.4756 19.3671 26.4861 19.3875 26.5051L19.6875 26.8051C19.6994 26.8261 19.7041 26.8503 19.7008 26.8742C19.6976 26.8981 19.6867 26.9202 19.6696 26.9373C19.6526 26.9543 19.6304 26.9653 19.6065 26.9685C19.5827 26.9717 19.5584 26.967 19.5375 26.9551L19.3075 26.7251L19.0775 26.9551C19.0647 26.9727 19.0474 26.9866 19.0275 26.9951Z" fill="#125599" stroke="#125599" stroke-width="0.3"/>
</svg>
