<svg width="42" height="37" viewBox="0 0 42 37" fill="none" xmlns="http://www.w3.org/2000/svg">
<path d="M20.2676 27.4848H9.26762V24.3848C9.26337 23.4125 9.59262 22.4682 10.2004 21.7093C10.8083 20.9504 11.6579 20.4229 12.6076 20.2148L15.1776 19.6448V18.8348C14.6895 18.4839 14.2886 18.0254 14.0059 17.4948C13.7233 16.9642 13.5665 16.3757 13.5476 15.7748C12.7185 14.8805 12.2609 13.7042 12.2676 12.4848V11.9448C12.2703 10.6628 12.7814 9.43434 13.6888 8.52883C14.5961 7.62331 15.8257 7.11476 17.1076 7.11476H17.6576C18.4216 7.1127 19.171 7.32414 19.8212 7.72523C20.4714 8.12632 20.9966 8.7011 21.3376 9.38476C21.7308 9.44011 22.0909 9.63541 22.3517 9.93482C22.6126 10.2342 22.7567 10.6177 22.7576 11.0148V12.4848C22.7576 13.7164 22.2852 14.9011 21.4376 15.7948C21.427 16.2409 21.3355 16.6813 21.1676 17.0948C20.9276 17.4648 20.6076 17.9748 20.4576 18.2548C20.2571 18.4752 20.0361 18.6761 19.7976 18.8548V19.6648L20.0976 19.7248V20.3848L19.7976 20.3148V26.1448H15.1976V20.3848L14.1976 20.5948V26.2148H13.2676V26.8748H20.3676V27.5248L20.2676 27.4848ZM13.5176 20.7048L12.7276 20.8848C11.9366 21.0692 11.231 21.5151 10.7247 22.1502C10.2184 22.7853 9.94114 23.5726 9.93762 24.3848V26.8148H12.5676V25.5148H13.5676L13.5176 20.7048ZM15.8176 21.8648V25.5148H19.1076V21.8648C18.8982 22.0809 18.6483 22.2537 18.3721 22.3733C18.0959 22.4928 17.7989 22.5567 17.498 22.5613C17.1971 22.566 16.8982 22.5113 16.6184 22.4003C16.3387 22.2894 16.0836 22.1244 15.8676 21.9148L15.8176 21.8648ZM15.8176 19.2348V20.2348C15.7999 20.4616 15.8293 20.6896 15.904 20.9045C15.9786 21.1194 16.0969 21.3165 16.2514 21.4835C16.4058 21.6505 16.5932 21.7838 16.8016 21.8749C17.0101 21.9661 17.2351 22.0131 17.4626 22.0131C17.6901 22.0131 17.9152 21.9661 18.1236 21.8749C18.332 21.7838 18.5194 21.6505 18.6739 21.4835C18.8284 21.3165 18.9466 21.1194 19.0213 20.9045C19.0959 20.6896 19.1253 20.4616 19.1076 20.2348V19.2348C18.5983 19.4704 18.0438 19.5925 17.4826 19.5925C16.9214 19.5925 16.3669 19.4704 15.8576 19.2348H15.8176ZM20.7476 12.7248C18.6841 13.5454 16.4881 13.9826 14.2676 14.0148V15.6548C14.243 16.1014 14.3097 16.5484 14.4636 16.9684C14.6176 17.3884 14.8555 17.7725 15.163 18.0974C15.4705 18.4223 15.8409 18.6811 16.2518 18.858C16.6627 19.0349 17.1053 19.1261 17.5526 19.1261C17.9999 19.1261 18.4426 19.0349 18.8534 18.858C19.2643 18.6811 19.6348 18.4223 19.9422 18.0974C20.2497 17.7725 20.4877 17.3884 20.6416 16.9684C20.7956 16.5484 20.8623 16.1014 20.8376 15.6548L20.7476 12.7248ZM21.4076 12.0448V14.7248C21.834 14.0556 22.0595 13.2782 22.0576 12.4848V11.0548C22.0576 10.7895 21.9523 10.5352 21.7647 10.3477C21.5772 10.1601 21.3228 10.0548 21.0576 10.0548H20.8376L20.7476 9.85476C20.4835 9.2303 20.0408 8.69781 19.475 8.32418C18.9092 7.95056 18.2456 7.75245 17.5676 7.75476H17.0176C16.0872 7.75606 15.1835 8.06551 14.4476 8.63476C13.9449 9.0229 13.5382 9.52152 13.259 10.092C12.9798 10.6625 12.8356 11.2896 12.8376 11.9248V12.4648C12.8392 13.2591 13.0683 14.0364 13.4976 14.7048V13.3848H13.9576C16.2157 13.3911 18.4536 12.9598 20.5476 12.1148H20.6676L21.4076 12.0448Z" fill="#125599"/>
<path d="M25.6476 27.4848H19.7676V26.8348H21.6976V26.1748H20.6976V20.5548L19.7676 20.3848V19.7148L22.2976 20.2748C23.2375 20.4821 24.0797 21.0008 24.6878 21.7469C25.2959 22.4929 25.6341 23.4225 25.6476 24.3848V27.4848ZM21.3676 20.7048V25.5148H22.3676V26.8348H24.9976V24.3848C25.0006 23.5615 24.7214 22.7621 24.2064 22.1197C23.6914 21.4774 22.9718 21.0309 22.1676 20.8548L21.3676 20.7048Z" fill="#125599"/>
<path d="M31.4575 11.6448H24.9275C24.5986 11.6448 24.2832 11.7754 24.0507 12.008C23.8181 12.2405 23.6875 12.5559 23.6875 12.8848V16.8848C23.6875 17.2136 23.8181 17.529 24.0507 17.7616C24.2832 17.9941 24.5986 18.1248 24.9275 18.1248V19.9348L27.5275 18.1248H31.4575C31.7846 18.1221 32.0975 17.9903 32.3279 17.7581C32.5582 17.5258 32.6875 17.2119 32.6875 16.8848V12.8848C32.6875 12.5576 32.5582 12.2437 32.3279 12.0115C32.0975 11.7792 31.7846 11.6474 31.4575 11.6448ZM32.1675 16.8748C32.1675 16.968 32.1491 17.0603 32.1135 17.1465C32.0778 17.2326 32.0255 17.3109 31.9595 17.3768C31.8936 17.4428 31.8153 17.495 31.7292 17.5307C31.6431 17.5664 31.5507 17.5848 31.4575 17.5848H27.3675L25.4475 18.9148V17.5848H24.9275C24.7392 17.5848 24.5586 17.51 24.4255 17.3768C24.2923 17.2437 24.2175 17.0631 24.2175 16.8748V12.8748C24.2175 12.6865 24.2923 12.5059 24.4255 12.3727C24.5586 12.2396 24.7392 12.1648 24.9275 12.1648H31.4575C31.6458 12.1648 31.8264 12.2396 31.9595 12.3727C32.0927 12.5059 32.1675 12.6865 32.1675 12.8748V16.8748Z" fill="#125599"/>
<path d="M26.0977 13.5049H30.2677V14.0349H26.0977V13.5049Z" fill="#125599"/>
<path d="M26.0977 14.6348H30.2677V15.1648H26.0977V14.6348Z" fill="#125599"/>
<path d="M26.0977 15.7549H30.2677V16.2849H26.0977V15.7549Z" fill="#125599"/>
</svg>
