<svg id="Vrstva_1" data-name="Vrstva 1" xmlns="http://www.w3.org/2000/svg" viewBox="0 0 95.76 98.08"><defs><style>.cls-1{opacity:0.8;}.cls-2{fill:#e32a78;}</style></defs><title>check</title><g class="cls-1"><path class="cls-2" d="M251.63,391c-3,3.66-5.53,7-8.08,10.56-4,5.44-8.16,9.93-12.59,15.49-2.22,2.74-4.22,5.31-6.31,8-4.46,5.29-9.24,11.2-14,17.45-.55.64-2.16,2.53-1.61,2.66-4.85,5.87-9.61,11.53-13.84,17.56-1.82,2.5-4.1,4.81-5.92,7.31-1.45,2.06-3,4-4.6,5.91l-2.35,2.87L181,480.62l-1.51,2c-.51.81-1.76,2.91-2.27,3.54l-.23.26c-1.05-2.37-2-4.41-3-6.43l-.74-1.43-.57-1.06-1.17-2.08c-1.57-2.76-3.23-5.43-4.78-8.18-1.21-2.21-2.19-3.9-3.24-6.06-.3-.09-.53-.62-.9-1.2-.83-1.63-4.86-11-5-11.94-.08-.48,9.18,17.78,9.25,17.34s-6-11.89-6.42-12.95c23.8,41.79,12.83,21.55,5.45,8.89-1-2.06-2.78-4.79-4.78-8.74,1.35,2.26,4.47,6.68,5.07,7.79,2.94,5,2.82,4.1,5.76,10.06.83,1.69,1.94,3.75,3.14,5.9l.45.81.22.4.16.27.62,1,1.07,1.72,1.76-2.76a26.18,26.18,0,0,1-1.85,3.75,21.24,21.24,0,0,1-2.41-3.94,24.15,24.15,0,0,0,2.36,4.53c.8-1.32,1.37-2.47,1.9-3.49l.41-.75c.17-.29.48-.75.74-1.15.57-.83,1.23-1.75,2-2.8.45-.6.94-1.32,1.44-2.12l1.83-2.15c4-5.27,7.26-10.15,11.32-15.27-.33.46-.75.59-1.13,1-3.76,4.22-6.2,8.38-9.89,13.06-.74.87-1.4,2.37-2.13,3.34-1.46,2-3,3.56-4.47,5.31,2.49-3.84,5.81-8.09,8.72-12.06a22.79,22.79,0,0,0,1.5-2.69l-4.16,5.44c-1.6,2.19-3.27,4.66-4.94,7.15l-1.25,1.86-.3.44-.11.19-.23.4c-.31.53-.68,1.12-1.05,1.67a13.4,13.4,0,0,1-.75-1.46c-.11-.25-.2-.49-.28-.71l0-.17,0-.08-.07-.17c-.08-.23-.17-.46-.25-.68l-.38-.58a1.34,1.34,0,0,0-.1-.33,27.53,27.53,0,0,1-1.48-3.38l1.34,2.8,1.08,1.76.25.41.1.13.18.22c.23.29.41.54.57.78.21-.33.4-.61.59-.88l.57-.78,1.33-1.77c1.77-2.37,3.54-4.74,5.21-7.13,1.08-1.62,3.36-3.93,4.44-5.56a169.83,169.83,0,0,1,10.66-13.77c13.3-15.93,26.62-31.72,40-46.93l.84-1.14-.49.39.91-1a64.35,64.35,0,0,1,4.92-5.92c.77-.72-1.1,1.47-1.42,2.22l.74-.88s0,.16.05.31a2.43,2.43,0,0,1,.75-.7L236.6,408.14a12.35,12.35,0,0,0,2.14-2.33c1.09-1.54,2.17-3.09,3.29-4.4,2.84-3.87,6.28-7.5,9.19-11.1.59-.62,1.18-1.24,1.78-1.82C253.77,387.77,252.75,389.7,251.63,391ZM205.1,444.62c1.07-1.16,2.15-2.26,3.27-3.41l1.07-1.3a17.17,17.17,0,0,0,1.33-1.78l5.89-6.81a81.9,81.9,0,0,0-6.75,7.31c6-7.74,11.91-13.75,17.92-20.5,1.73-2.11,3.46-4.26,5.21-6.48,1.21-1.58,2.36-3.15,3.48-4.72-15.64,18.55-31.72,36.2-47,55.72C194.84,456.61,199.79,450.67,205.1,444.62Zm-1.51,2.52q-3,3.78-5.77,7.53c-5.22,6.72-10.89,14.08-13.6,18.92,4.3-6.14,8.79-12.49,13.6-18.92-4.69,6-1.25,1.72,5-6.42C202.91,448,203.22,447.64,203.59,447.14Z" transform="translate(-157.51 -388.33)"/><path class="cls-2" d="M232.4,410.08c2.42-2.61,4.86-5.22,7.29-7.83-1.09.87-2.06,1.61-3.23,2.71-3.06,3-6,6.84-9,10.18-8.66,9.59-17.2,20-25.67,30.8a27.63,27.63,0,0,0-2,2.63C210.8,435.15,221.18,422.51,232.4,410.08Z" transform="translate(-157.51 -388.33)"/><path class="cls-2" d="M185.89,465.83c-1.45,2.07-2.89,4.13-4.36,6,1.51-1.59,3.36-3.94,4.83-5.84l6-8.1C190.21,460.46,188,463.05,185.89,465.83Z" transform="translate(-157.51 -388.33)"/><path class="cls-2" d="M199.79,448.57l-1.32,1.61c-2,2.49-4.07,5.08-6.08,7.74l6.92-8C199.11,449.79,199.36,449.24,199.79,448.57Z" transform="translate(-157.51 -388.33)"/></g></svg>