<svg id="Vrstva_1" data-name="Vrstva 1" xmlns="http://www.w3.org/2000/svg" xmlns:xlink="http://www.w3.org/1999/xlink" viewBox="0 0 30.47 30.46"><defs><style>.cls-1{fill:url(#linear-gradient);}.cls-2{fill:url(#linear-gradient-2);}</style><linearGradient id="linear-gradient" x1="157.15" y1="541.13" x2="132.18" y2="566.09" gradientUnits="userSpaceOnUse"><stop offset="0" stop-color="#3e4595"/><stop offset="1" stop-color="#4767ab"/></linearGradient><linearGradient id="linear-gradient-2" x1="157.51" y1="541.49" x2="132.55" y2="566.46" xlink:href="#linear-gradient"/></defs><title>fb</title><path class="cls-1" d="M151,568.38H139.22a9.34,9.34,0,0,1-9.33-9.33v-11.8a9.34,9.34,0,0,1,9.33-9.33H151a9.34,9.34,0,0,1,9.33,9.33v11.8A9.34,9.34,0,0,1,151,568.38Zm-11.81-29.33a8.21,8.21,0,0,0-8.2,8.2v11.8a8.21,8.21,0,0,0,8.2,8.2H151a8.2,8.2,0,0,0,8.19-8.2v-11.8a8.2,8.2,0,0,0-8.19-8.2Z" transform="translate(-129.89 -537.92)"/><path class="cls-2" d="M149.19,545.11l-2.37-.06a3.48,3.48,0,0,0-3.56,3.48v2.25h-2.2a.16.16,0,0,0-.16.16v2.83a.16.16,0,0,0,.16.16h2.2v7.15a.18.18,0,0,0,.17.17h2.92a.17.17,0,0,0,.16-.17v-7.15h2.22a.16.16,0,0,0,.16-.14l.37-2.83a.17.17,0,0,0,0-.13.17.17,0,0,0-.12-.05h-2.59v-1.43a1.62,1.62,0,0,1,.3-1.09.88.88,0,0,1,.7-.27h1.68a.17.17,0,0,0,.16-.17v-2.55A.16.16,0,0,0,149.19,545.11Z" transform="translate(-129.89 -537.92)"/></svg>